M48
; DRILL file {KiCad (5.1.4)-1} date 10/27/2020 6:56:59 PM
; FORMAT={-:-/ absolute / inch / decimal}
; #@! TF.CreationDate,2020-10-27T18:56:59+03:00
; #@! TF.GenerationSoftware,Kicad,Pcbnew,(5.1.4)-1
; #@! TF.FileFunction,Plated,1,2,PTH
FMAT,2
INCH
T1C0.0157
T2C0.0276
T3C0.0409
T4C0.0579
%
G90
G05
T1
X2.2188Y-2.25
X2.2188Y-2.3125
X2.375Y-2.9688
X2.375Y-3.0081
X2.5Y-2.4375
X2.635Y-3.225
X2.68Y-3.22
X2.72Y-3.22
X2.93Y-2.625
X2.9375Y-2.5312
X3.36Y-2.5
T3
X4.605Y-1.91
X4.705Y-1.91
X4.605Y-2.66
X4.705Y-2.66
X3.8448Y-2.6598
X3.9448Y-2.6598
X3.845Y-1.91
X3.945Y-1.91
T4
X4.505Y-2.21
X4.5566Y-2.2675
X4.7534Y-2.2872
X4.755Y-2.31
X4.505Y-2.96
X4.5566Y-3.0175
X4.7534Y-3.0372
X4.755Y-3.06
X3.7448Y-2.9598
X3.7964Y-3.0173
X3.9932Y-3.037
X3.9948Y-3.0598
X3.745Y-2.21
X3.7966Y-2.2675
X3.9934Y-2.2872
X3.995Y-2.31
T2
G00X1.7014Y-2.1013
M15
G01X1.7486Y-2.1013
M16
G05
G00X1.7014Y-2.3887
M15
G01X1.7486Y-2.3887
M16
G05
G00X1.8785Y-2.1013
M15
G01X1.9258Y-2.1013
M16
G05
G00X1.8785Y-2.3887
M15
G01X1.9258Y-2.3887
M16
G05
T0
M30
