G04 #@! TF.GenerationSoftware,KiCad,Pcbnew,(5.1.4)-1*
G04 #@! TF.CreationDate,2020-12-19T20:41:22+02:00*
G04 #@! TF.ProjectId,100_keyboard,3130305f-6b65-4796-926f-6172642e6b69,rev?*
G04 #@! TF.SameCoordinates,Original*
G04 #@! TF.FileFunction,Soldermask,Bot*
G04 #@! TF.FilePolarity,Negative*
%FSLAX46Y46*%
G04 Gerber Fmt 4.6, Leading zero omitted, Abs format (unit mm)*
G04 Created by KiCad (PCBNEW (5.1.4)-1) date 2020-12-19 20:41:22*
%MOMM*%
%LPD*%
G04 APERTURE LIST*
%ADD10C,0.100000*%
G04 APERTURE END LIST*
D10*
G36*
X100663500Y-110101000D02*
G01*
X99361500Y-110101000D01*
X99361500Y-109099000D01*
X100663500Y-109099000D01*
X100663500Y-110101000D01*
X100663500Y-110101000D01*
G37*
G36*
X81613500Y-110101000D02*
G01*
X80311500Y-110101000D01*
X80311500Y-109099000D01*
X81613500Y-109099000D01*
X81613500Y-110101000D01*
X81613500Y-110101000D01*
G37*
G36*
X108596474Y-106033684D02*
G01*
X108814474Y-106123983D01*
X108968623Y-106187833D01*
X109303548Y-106411623D01*
X109588377Y-106696452D01*
X109812167Y-107031377D01*
X109844562Y-107109586D01*
X109966316Y-107403526D01*
X110044900Y-107798594D01*
X110044900Y-108201406D01*
X109966316Y-108596474D01*
X109915451Y-108719272D01*
X109812167Y-108968623D01*
X109588377Y-109303548D01*
X109303548Y-109588377D01*
X108968623Y-109812167D01*
X108814474Y-109876017D01*
X108596474Y-109966316D01*
X108201406Y-110044900D01*
X107798594Y-110044900D01*
X107403526Y-109966316D01*
X107185526Y-109876017D01*
X107031377Y-109812167D01*
X106696452Y-109588377D01*
X106411623Y-109303548D01*
X106187833Y-108968623D01*
X106084549Y-108719272D01*
X106033684Y-108596474D01*
X105955100Y-108201406D01*
X105955100Y-107798594D01*
X106033684Y-107403526D01*
X106155438Y-107109586D01*
X106187833Y-107031377D01*
X106411623Y-106696452D01*
X106696452Y-106411623D01*
X107031377Y-106187833D01*
X107185526Y-106123983D01*
X107403526Y-106033684D01*
X107798594Y-105955100D01*
X108201406Y-105955100D01*
X108596474Y-106033684D01*
X108596474Y-106033684D01*
G37*
G36*
X89596474Y-106033684D02*
G01*
X89814474Y-106123983D01*
X89968623Y-106187833D01*
X90303548Y-106411623D01*
X90588377Y-106696452D01*
X90812167Y-107031377D01*
X90844562Y-107109586D01*
X90966316Y-107403526D01*
X91044900Y-107798594D01*
X91044900Y-108201406D01*
X90966316Y-108596474D01*
X90915451Y-108719272D01*
X90812167Y-108968623D01*
X90588377Y-109303548D01*
X90303548Y-109588377D01*
X89968623Y-109812167D01*
X89814474Y-109876017D01*
X89596474Y-109966316D01*
X89201406Y-110044900D01*
X88798594Y-110044900D01*
X88403526Y-109966316D01*
X88185526Y-109876017D01*
X88031377Y-109812167D01*
X87696452Y-109588377D01*
X87411623Y-109303548D01*
X87187833Y-108968623D01*
X87084549Y-108719272D01*
X87033684Y-108596474D01*
X86955100Y-108201406D01*
X86955100Y-107798594D01*
X87033684Y-107403526D01*
X87155438Y-107109586D01*
X87187833Y-107031377D01*
X87411623Y-106696452D01*
X87696452Y-106411623D01*
X88031377Y-106187833D01*
X88185526Y-106123983D01*
X88403526Y-106033684D01*
X88798594Y-105955100D01*
X89201406Y-105955100D01*
X89596474Y-106033684D01*
X89596474Y-106033684D01*
G37*
G36*
X103190104Y-107109585D02*
G01*
X103358626Y-107179389D01*
X103510291Y-107280728D01*
X103639272Y-107409709D01*
X103740611Y-107561374D01*
X103810415Y-107729896D01*
X103846000Y-107908797D01*
X103846000Y-108091203D01*
X103810415Y-108270104D01*
X103740611Y-108438626D01*
X103639272Y-108590291D01*
X103510291Y-108719272D01*
X103358626Y-108820611D01*
X103190104Y-108890415D01*
X103011203Y-108926000D01*
X102828797Y-108926000D01*
X102649896Y-108890415D01*
X102481374Y-108820611D01*
X102329709Y-108719272D01*
X102200728Y-108590291D01*
X102099389Y-108438626D01*
X102029585Y-108270104D01*
X101994000Y-108091203D01*
X101994000Y-107908797D01*
X102029585Y-107729896D01*
X102099389Y-107561374D01*
X102200728Y-107409709D01*
X102329709Y-107280728D01*
X102481374Y-107179389D01*
X102649896Y-107109585D01*
X102828797Y-107074000D01*
X103011203Y-107074000D01*
X103190104Y-107109585D01*
X103190104Y-107109585D01*
G37*
G36*
X84190104Y-107109585D02*
G01*
X84358626Y-107179389D01*
X84510291Y-107280728D01*
X84639272Y-107409709D01*
X84740611Y-107561374D01*
X84810415Y-107729896D01*
X84846000Y-107908797D01*
X84846000Y-108091203D01*
X84810415Y-108270104D01*
X84740611Y-108438626D01*
X84639272Y-108590291D01*
X84510291Y-108719272D01*
X84358626Y-108820611D01*
X84190104Y-108890415D01*
X84011203Y-108926000D01*
X83828797Y-108926000D01*
X83649896Y-108890415D01*
X83481374Y-108820611D01*
X83329709Y-108719272D01*
X83200728Y-108590291D01*
X83099389Y-108438626D01*
X83029585Y-108270104D01*
X82994000Y-108091203D01*
X82994000Y-107908797D01*
X83029585Y-107729896D01*
X83099389Y-107561374D01*
X83200728Y-107409709D01*
X83329709Y-107280728D01*
X83481374Y-107179389D01*
X83649896Y-107109585D01*
X83828797Y-107074000D01*
X84011203Y-107074000D01*
X84190104Y-107109585D01*
X84190104Y-107109585D01*
G37*
G36*
X94350104Y-107109585D02*
G01*
X94518626Y-107179389D01*
X94670291Y-107280728D01*
X94799272Y-107409709D01*
X94900611Y-107561374D01*
X94970415Y-107729896D01*
X95006000Y-107908797D01*
X95006000Y-108091203D01*
X94970415Y-108270104D01*
X94900611Y-108438626D01*
X94799272Y-108590291D01*
X94670291Y-108719272D01*
X94518626Y-108820611D01*
X94350104Y-108890415D01*
X94171203Y-108926000D01*
X93988797Y-108926000D01*
X93809896Y-108890415D01*
X93641374Y-108820611D01*
X93489709Y-108719272D01*
X93360728Y-108590291D01*
X93259389Y-108438626D01*
X93189585Y-108270104D01*
X93154000Y-108091203D01*
X93154000Y-107908797D01*
X93189585Y-107729896D01*
X93259389Y-107561374D01*
X93360728Y-107409709D01*
X93489709Y-107280728D01*
X93641374Y-107179389D01*
X93809896Y-107109585D01*
X93988797Y-107074000D01*
X94171203Y-107074000D01*
X94350104Y-107109585D01*
X94350104Y-107109585D01*
G37*
G36*
X113350104Y-107109585D02*
G01*
X113518626Y-107179389D01*
X113670291Y-107280728D01*
X113799272Y-107409709D01*
X113900611Y-107561374D01*
X113970415Y-107729896D01*
X114006000Y-107908797D01*
X114006000Y-108091203D01*
X113970415Y-108270104D01*
X113900611Y-108438626D01*
X113799272Y-108590291D01*
X113670291Y-108719272D01*
X113518626Y-108820611D01*
X113350104Y-108890415D01*
X113171203Y-108926000D01*
X112988797Y-108926000D01*
X112809896Y-108890415D01*
X112641374Y-108820611D01*
X112489709Y-108719272D01*
X112360728Y-108590291D01*
X112259389Y-108438626D01*
X112189585Y-108270104D01*
X112154000Y-108091203D01*
X112154000Y-107908797D01*
X112189585Y-107729896D01*
X112259389Y-107561374D01*
X112360728Y-107409709D01*
X112489709Y-107280728D01*
X112641374Y-107179389D01*
X112809896Y-107109585D01*
X112988797Y-107074000D01*
X113171203Y-107074000D01*
X113350104Y-107109585D01*
X113350104Y-107109585D01*
G37*
G36*
X100663500Y-106801000D02*
G01*
X99361500Y-106801000D01*
X99361500Y-105799000D01*
X100663500Y-105799000D01*
X100663500Y-106801000D01*
X100663500Y-106801000D01*
G37*
G36*
X81613500Y-106801000D02*
G01*
X80311500Y-106801000D01*
X80311500Y-105799000D01*
X81613500Y-105799000D01*
X81613500Y-106801000D01*
X81613500Y-106801000D01*
G37*
G36*
X81613500Y-91151000D02*
G01*
X80311500Y-91151000D01*
X80311500Y-90149000D01*
X81613500Y-90149000D01*
X81613500Y-91151000D01*
X81613500Y-91151000D01*
G37*
G36*
X100663500Y-91051000D02*
G01*
X99361500Y-91051000D01*
X99361500Y-90049000D01*
X100663500Y-90049000D01*
X100663500Y-91051000D01*
X100663500Y-91051000D01*
G37*
G36*
X108596474Y-87033684D02*
G01*
X108814474Y-87123983D01*
X108968623Y-87187833D01*
X109303548Y-87411623D01*
X109588377Y-87696452D01*
X109812167Y-88031377D01*
X109844562Y-88109586D01*
X109966316Y-88403526D01*
X110044900Y-88798594D01*
X110044900Y-89201406D01*
X109966316Y-89596474D01*
X109915451Y-89719272D01*
X109812167Y-89968623D01*
X109588377Y-90303548D01*
X109303548Y-90588377D01*
X108968623Y-90812167D01*
X108814474Y-90876017D01*
X108596474Y-90966316D01*
X108201406Y-91044900D01*
X107798594Y-91044900D01*
X107403526Y-90966316D01*
X107185526Y-90876017D01*
X107031377Y-90812167D01*
X106696452Y-90588377D01*
X106411623Y-90303548D01*
X106187833Y-89968623D01*
X106084549Y-89719272D01*
X106033684Y-89596474D01*
X105955100Y-89201406D01*
X105955100Y-88798594D01*
X106033684Y-88403526D01*
X106155438Y-88109586D01*
X106187833Y-88031377D01*
X106411623Y-87696452D01*
X106696452Y-87411623D01*
X107031377Y-87187833D01*
X107185526Y-87123983D01*
X107403526Y-87033684D01*
X107798594Y-86955100D01*
X108201406Y-86955100D01*
X108596474Y-87033684D01*
X108596474Y-87033684D01*
G37*
G36*
X89571475Y-87008685D02*
G01*
X89789475Y-87098984D01*
X89943624Y-87162834D01*
X90278549Y-87386624D01*
X90563378Y-87671453D01*
X90787168Y-88006378D01*
X90829918Y-88109586D01*
X90941317Y-88378527D01*
X91019901Y-88773595D01*
X91019901Y-89176407D01*
X90941317Y-89571475D01*
X90890452Y-89694273D01*
X90787168Y-89943624D01*
X90563378Y-90278549D01*
X90278549Y-90563378D01*
X89943624Y-90787168D01*
X89789475Y-90851018D01*
X89571475Y-90941317D01*
X89176407Y-91019901D01*
X88773595Y-91019901D01*
X88378527Y-90941317D01*
X88160527Y-90851018D01*
X88006378Y-90787168D01*
X87671453Y-90563378D01*
X87386624Y-90278549D01*
X87162834Y-89943624D01*
X87059550Y-89694273D01*
X87008685Y-89571475D01*
X86930101Y-89176407D01*
X86930101Y-88773595D01*
X87008685Y-88378527D01*
X87120084Y-88109586D01*
X87162834Y-88006378D01*
X87386624Y-87671453D01*
X87671453Y-87386624D01*
X88006378Y-87162834D01*
X88160527Y-87098984D01*
X88378527Y-87008685D01*
X88773595Y-86930101D01*
X89176407Y-86930101D01*
X89571475Y-87008685D01*
X89571475Y-87008685D01*
G37*
G36*
X103190104Y-88109585D02*
G01*
X103358626Y-88179389D01*
X103510291Y-88280728D01*
X103639272Y-88409709D01*
X103740611Y-88561374D01*
X103810415Y-88729896D01*
X103846000Y-88908797D01*
X103846000Y-89091203D01*
X103810415Y-89270104D01*
X103740611Y-89438626D01*
X103639272Y-89590291D01*
X103510291Y-89719272D01*
X103358626Y-89820611D01*
X103190104Y-89890415D01*
X103011203Y-89926000D01*
X102828797Y-89926000D01*
X102649896Y-89890415D01*
X102481374Y-89820611D01*
X102329709Y-89719272D01*
X102200728Y-89590291D01*
X102099389Y-89438626D01*
X102029585Y-89270104D01*
X101994000Y-89091203D01*
X101994000Y-88908797D01*
X102029585Y-88729896D01*
X102099389Y-88561374D01*
X102200728Y-88409709D01*
X102329709Y-88280728D01*
X102481374Y-88179389D01*
X102649896Y-88109585D01*
X102828797Y-88074000D01*
X103011203Y-88074000D01*
X103190104Y-88109585D01*
X103190104Y-88109585D01*
G37*
G36*
X113350104Y-88109585D02*
G01*
X113518626Y-88179389D01*
X113670291Y-88280728D01*
X113799272Y-88409709D01*
X113900611Y-88561374D01*
X113970415Y-88729896D01*
X114006000Y-88908797D01*
X114006000Y-89091203D01*
X113970415Y-89270104D01*
X113900611Y-89438626D01*
X113799272Y-89590291D01*
X113670291Y-89719272D01*
X113518626Y-89820611D01*
X113350104Y-89890415D01*
X113171203Y-89926000D01*
X112988797Y-89926000D01*
X112809896Y-89890415D01*
X112641374Y-89820611D01*
X112489709Y-89719272D01*
X112360728Y-89590291D01*
X112259389Y-89438626D01*
X112189585Y-89270104D01*
X112154000Y-89091203D01*
X112154000Y-88908797D01*
X112189585Y-88729896D01*
X112259389Y-88561374D01*
X112360728Y-88409709D01*
X112489709Y-88280728D01*
X112641374Y-88179389D01*
X112809896Y-88109585D01*
X112988797Y-88074000D01*
X113171203Y-88074000D01*
X113350104Y-88109585D01*
X113350104Y-88109585D01*
G37*
G36*
X84165105Y-88084586D02*
G01*
X84333627Y-88154390D01*
X84485292Y-88255729D01*
X84614273Y-88384710D01*
X84715612Y-88536375D01*
X84785416Y-88704897D01*
X84821001Y-88883798D01*
X84821001Y-89066204D01*
X84785416Y-89245105D01*
X84715612Y-89413627D01*
X84614273Y-89565292D01*
X84485292Y-89694273D01*
X84333627Y-89795612D01*
X84165105Y-89865416D01*
X83986204Y-89901001D01*
X83803798Y-89901001D01*
X83624897Y-89865416D01*
X83456375Y-89795612D01*
X83304710Y-89694273D01*
X83175729Y-89565292D01*
X83074390Y-89413627D01*
X83004586Y-89245105D01*
X82969001Y-89066204D01*
X82969001Y-88883798D01*
X83004586Y-88704897D01*
X83074390Y-88536375D01*
X83175729Y-88384710D01*
X83304710Y-88255729D01*
X83456375Y-88154390D01*
X83624897Y-88084586D01*
X83803798Y-88049001D01*
X83986204Y-88049001D01*
X84165105Y-88084586D01*
X84165105Y-88084586D01*
G37*
G36*
X94325105Y-88084586D02*
G01*
X94493627Y-88154390D01*
X94645292Y-88255729D01*
X94774273Y-88384710D01*
X94875612Y-88536375D01*
X94945416Y-88704897D01*
X94981001Y-88883798D01*
X94981001Y-89066204D01*
X94945416Y-89245105D01*
X94875612Y-89413627D01*
X94774273Y-89565292D01*
X94645292Y-89694273D01*
X94493627Y-89795612D01*
X94325105Y-89865416D01*
X94146204Y-89901001D01*
X93963798Y-89901001D01*
X93784897Y-89865416D01*
X93616375Y-89795612D01*
X93464710Y-89694273D01*
X93335729Y-89565292D01*
X93234390Y-89413627D01*
X93164586Y-89245105D01*
X93129001Y-89066204D01*
X93129001Y-88883798D01*
X93164586Y-88704897D01*
X93234390Y-88536375D01*
X93335729Y-88384710D01*
X93464710Y-88255729D01*
X93616375Y-88154390D01*
X93784897Y-88084586D01*
X93963798Y-88049001D01*
X94146204Y-88049001D01*
X94325105Y-88084586D01*
X94325105Y-88084586D01*
G37*
G36*
X81613500Y-87851000D02*
G01*
X80311500Y-87851000D01*
X80311500Y-86849000D01*
X81613500Y-86849000D01*
X81613500Y-87851000D01*
X81613500Y-87851000D01*
G37*
G36*
X100663500Y-87751000D02*
G01*
X99361500Y-87751000D01*
X99361500Y-86749000D01*
X100663500Y-86749000D01*
X100663500Y-87751000D01*
X100663500Y-87751000D01*
G37*
G36*
X127476627Y-84112037D02*
G01*
X127646466Y-84163557D01*
X127802991Y-84247222D01*
X127838729Y-84276552D01*
X127940186Y-84359814D01*
X128023448Y-84461271D01*
X128052778Y-84497009D01*
X128136443Y-84653534D01*
X128187963Y-84823373D01*
X128201000Y-84955742D01*
X128201000Y-86044258D01*
X128187963Y-86176627D01*
X128136443Y-86346466D01*
X128052778Y-86502991D01*
X128023448Y-86538729D01*
X127940186Y-86640186D01*
X127802989Y-86752779D01*
X127646467Y-86836442D01*
X127646465Y-86836443D01*
X127476626Y-86887963D01*
X127300000Y-86905359D01*
X127123373Y-86887963D01*
X126953534Y-86836443D01*
X126797009Y-86752778D01*
X126761271Y-86723448D01*
X126659814Y-86640186D01*
X126547221Y-86502989D01*
X126463558Y-86346467D01*
X126463557Y-86346465D01*
X126412037Y-86176626D01*
X126399000Y-86044257D01*
X126399001Y-84955742D01*
X126412038Y-84823373D01*
X126463558Y-84653534D01*
X126547223Y-84497009D01*
X126576553Y-84461271D01*
X126659815Y-84359814D01*
X126761272Y-84276552D01*
X126797010Y-84247222D01*
X126953535Y-84163557D01*
X127123374Y-84112037D01*
X127300000Y-84094641D01*
X127476627Y-84112037D01*
X127476627Y-84112037D01*
G37*
G36*
X120176627Y-84112037D02*
G01*
X120346466Y-84163557D01*
X120502991Y-84247222D01*
X120538729Y-84276552D01*
X120640186Y-84359814D01*
X120723448Y-84461271D01*
X120752778Y-84497009D01*
X120836443Y-84653534D01*
X120887963Y-84823373D01*
X120901000Y-84955742D01*
X120901000Y-86044258D01*
X120887963Y-86176627D01*
X120836443Y-86346466D01*
X120752778Y-86502991D01*
X120723448Y-86538729D01*
X120640186Y-86640186D01*
X120502989Y-86752779D01*
X120346467Y-86836442D01*
X120346465Y-86836443D01*
X120176626Y-86887963D01*
X120000000Y-86905359D01*
X119823373Y-86887963D01*
X119653534Y-86836443D01*
X119497009Y-86752778D01*
X119461271Y-86723448D01*
X119359814Y-86640186D01*
X119247221Y-86502989D01*
X119163558Y-86346467D01*
X119163557Y-86346465D01*
X119112037Y-86176626D01*
X119099000Y-86044257D01*
X119099001Y-84955742D01*
X119112038Y-84823373D01*
X119163558Y-84653534D01*
X119247223Y-84497009D01*
X119276553Y-84461271D01*
X119359815Y-84359814D01*
X119461272Y-84276552D01*
X119497010Y-84247222D01*
X119653535Y-84163557D01*
X119823374Y-84112037D01*
X120000000Y-84094641D01*
X120176627Y-84112037D01*
X120176627Y-84112037D01*
G37*
G36*
X127476627Y-79612037D02*
G01*
X127646466Y-79663557D01*
X127802991Y-79747222D01*
X127838729Y-79776552D01*
X127940186Y-79859814D01*
X128023448Y-79961271D01*
X128052778Y-79997009D01*
X128136443Y-80153534D01*
X128187963Y-80323373D01*
X128201000Y-80455742D01*
X128201000Y-81544258D01*
X128187963Y-81676627D01*
X128136443Y-81846466D01*
X128052778Y-82002991D01*
X128023448Y-82038729D01*
X127940186Y-82140186D01*
X127802989Y-82252779D01*
X127646467Y-82336442D01*
X127646465Y-82336443D01*
X127476626Y-82387963D01*
X127300000Y-82405359D01*
X127123373Y-82387963D01*
X126953534Y-82336443D01*
X126797009Y-82252778D01*
X126761271Y-82223448D01*
X126659814Y-82140186D01*
X126547221Y-82002989D01*
X126463558Y-81846467D01*
X126463557Y-81846465D01*
X126412037Y-81676626D01*
X126399000Y-81544257D01*
X126399001Y-80455742D01*
X126412038Y-80323373D01*
X126463558Y-80153534D01*
X126547223Y-79997009D01*
X126576553Y-79961271D01*
X126659815Y-79859814D01*
X126761272Y-79776552D01*
X126797010Y-79747222D01*
X126953535Y-79663557D01*
X127123374Y-79612037D01*
X127300000Y-79594641D01*
X127476627Y-79612037D01*
X127476627Y-79612037D01*
G37*
G36*
X120176627Y-79612037D02*
G01*
X120346466Y-79663557D01*
X120502991Y-79747222D01*
X120538729Y-79776552D01*
X120640186Y-79859814D01*
X120723448Y-79961271D01*
X120752778Y-79997009D01*
X120836443Y-80153534D01*
X120887963Y-80323373D01*
X120901000Y-80455742D01*
X120901000Y-81544258D01*
X120887963Y-81676627D01*
X120836443Y-81846466D01*
X120752778Y-82002991D01*
X120723448Y-82038729D01*
X120640186Y-82140186D01*
X120502989Y-82252779D01*
X120346467Y-82336442D01*
X120346465Y-82336443D01*
X120176626Y-82387963D01*
X120000000Y-82405359D01*
X119823373Y-82387963D01*
X119653534Y-82336443D01*
X119497009Y-82252778D01*
X119461271Y-82223448D01*
X119359814Y-82140186D01*
X119247221Y-82002989D01*
X119163558Y-81846467D01*
X119163557Y-81846465D01*
X119112037Y-81676626D01*
X119099000Y-81544257D01*
X119099001Y-80455742D01*
X119112038Y-80323373D01*
X119163558Y-80153534D01*
X119247223Y-79997009D01*
X119276553Y-79961271D01*
X119359815Y-79859814D01*
X119461272Y-79776552D01*
X119497010Y-79747222D01*
X119653535Y-79663557D01*
X119823374Y-79612037D01*
X120000000Y-79594641D01*
X120176627Y-79612037D01*
X120176627Y-79612037D01*
G37*
M02*
