G04 #@! TF.GenerationSoftware,KiCad,Pcbnew,(5.1.4)-1*
G04 #@! TF.CreationDate,2020-10-27T19:19:28+03:00*
G04 #@! TF.ProjectId,100_keyboard,3130305f-6b65-4796-926f-6172642e6b69,rev?*
G04 #@! TF.SameCoordinates,Original*
G04 #@! TF.FileFunction,Soldermask,Top*
G04 #@! TF.FilePolarity,Negative*
%FSLAX46Y46*%
G04 Gerber Fmt 4.6, Leading zero omitted, Abs format (unit mm)*
G04 Created by KiCad (PCBNEW (5.1.4)-1) date 2020-10-27 19:19:28*
%MOMM*%
%LPD*%
G04 APERTURE LIST*
%ADD10C,0.100000*%
G04 APERTURE END LIST*
D10*
G36*
X64682795Y-78669073D02*
G01*
X64689809Y-78671201D01*
X64703577Y-78678560D01*
X64726216Y-78687937D01*
X64750249Y-78692717D01*
X64774753Y-78692717D01*
X64798786Y-78687936D01*
X64821423Y-78678560D01*
X64835191Y-78671201D01*
X64842205Y-78669073D01*
X64855640Y-78667750D01*
X65169360Y-78667750D01*
X65182795Y-78669073D01*
X65189809Y-78671201D01*
X65203577Y-78678560D01*
X65226216Y-78687937D01*
X65250249Y-78692717D01*
X65274753Y-78692717D01*
X65298786Y-78687936D01*
X65321423Y-78678560D01*
X65335191Y-78671201D01*
X65342205Y-78669073D01*
X65355640Y-78667750D01*
X65669360Y-78667750D01*
X65682795Y-78669073D01*
X65689809Y-78671201D01*
X65703577Y-78678560D01*
X65726216Y-78687937D01*
X65750249Y-78692717D01*
X65774753Y-78692717D01*
X65798786Y-78687936D01*
X65821423Y-78678560D01*
X65835191Y-78671201D01*
X65842205Y-78669073D01*
X65855640Y-78667750D01*
X66169360Y-78667750D01*
X66182795Y-78669073D01*
X66189809Y-78671201D01*
X66203577Y-78678560D01*
X66226216Y-78687937D01*
X66250249Y-78692717D01*
X66274753Y-78692717D01*
X66298786Y-78687936D01*
X66321423Y-78678560D01*
X66335191Y-78671201D01*
X66342205Y-78669073D01*
X66355640Y-78667750D01*
X66669360Y-78667750D01*
X66682795Y-78669073D01*
X66689809Y-78671201D01*
X66703577Y-78678560D01*
X66726216Y-78687937D01*
X66750249Y-78692717D01*
X66774753Y-78692717D01*
X66798786Y-78687936D01*
X66821423Y-78678560D01*
X66835191Y-78671201D01*
X66842205Y-78669073D01*
X66855640Y-78667750D01*
X67169360Y-78667750D01*
X67182795Y-78669073D01*
X67189809Y-78671201D01*
X67203577Y-78678560D01*
X67226216Y-78687937D01*
X67250249Y-78692717D01*
X67274753Y-78692717D01*
X67298786Y-78687936D01*
X67321423Y-78678560D01*
X67335191Y-78671201D01*
X67342205Y-78669073D01*
X67355640Y-78667750D01*
X67669360Y-78667750D01*
X67682795Y-78669073D01*
X67689809Y-78671201D01*
X67703577Y-78678560D01*
X67726216Y-78687937D01*
X67750249Y-78692717D01*
X67774753Y-78692717D01*
X67798786Y-78687936D01*
X67821423Y-78678560D01*
X67835191Y-78671201D01*
X67842205Y-78669073D01*
X67855640Y-78667750D01*
X68169360Y-78667750D01*
X68182795Y-78669073D01*
X68189809Y-78671201D01*
X68203577Y-78678560D01*
X68226216Y-78687937D01*
X68250249Y-78692717D01*
X68274753Y-78692717D01*
X68298786Y-78687936D01*
X68321423Y-78678560D01*
X68335191Y-78671201D01*
X68342205Y-78669073D01*
X68355640Y-78667750D01*
X68669360Y-78667750D01*
X68682795Y-78669073D01*
X68689809Y-78671201D01*
X68703577Y-78678560D01*
X68726216Y-78687937D01*
X68750249Y-78692717D01*
X68774753Y-78692717D01*
X68798786Y-78687936D01*
X68821423Y-78678560D01*
X68835191Y-78671201D01*
X68842205Y-78669073D01*
X68855640Y-78667750D01*
X69169360Y-78667750D01*
X69182795Y-78669073D01*
X69189809Y-78671201D01*
X69203577Y-78678560D01*
X69226216Y-78687937D01*
X69250249Y-78692717D01*
X69274753Y-78692717D01*
X69298786Y-78687936D01*
X69321423Y-78678560D01*
X69335191Y-78671201D01*
X69342205Y-78669073D01*
X69355640Y-78667750D01*
X69669360Y-78667750D01*
X69682795Y-78669073D01*
X69689809Y-78671201D01*
X69703577Y-78678560D01*
X69726216Y-78687937D01*
X69750249Y-78692717D01*
X69774753Y-78692717D01*
X69798786Y-78687936D01*
X69821423Y-78678560D01*
X69835191Y-78671201D01*
X69842205Y-78669073D01*
X69855640Y-78667750D01*
X70169360Y-78667750D01*
X70182795Y-78669073D01*
X70189809Y-78671201D01*
X70203577Y-78678560D01*
X70226216Y-78687937D01*
X70250249Y-78692717D01*
X70274753Y-78692717D01*
X70298786Y-78687936D01*
X70321423Y-78678560D01*
X70335191Y-78671201D01*
X70342205Y-78669073D01*
X70355640Y-78667750D01*
X70669360Y-78667750D01*
X70682795Y-78669073D01*
X70689809Y-78671201D01*
X70703577Y-78678560D01*
X70726216Y-78687937D01*
X70750249Y-78692717D01*
X70774753Y-78692717D01*
X70798786Y-78687936D01*
X70821423Y-78678560D01*
X70835191Y-78671201D01*
X70842205Y-78669073D01*
X70855640Y-78667750D01*
X71169360Y-78667750D01*
X71182795Y-78669073D01*
X71189809Y-78671201D01*
X71203577Y-78678560D01*
X71226216Y-78687937D01*
X71250249Y-78692717D01*
X71274753Y-78692717D01*
X71298786Y-78687936D01*
X71321423Y-78678560D01*
X71335191Y-78671201D01*
X71342205Y-78669073D01*
X71355640Y-78667750D01*
X71669360Y-78667750D01*
X71682795Y-78669073D01*
X71689809Y-78671201D01*
X71703577Y-78678560D01*
X71726216Y-78687937D01*
X71750249Y-78692717D01*
X71774753Y-78692717D01*
X71798786Y-78687936D01*
X71821423Y-78678560D01*
X71835191Y-78671201D01*
X71842205Y-78669073D01*
X71855640Y-78667750D01*
X72169360Y-78667750D01*
X72182795Y-78669073D01*
X72189810Y-78671201D01*
X72196276Y-78674658D01*
X72201942Y-78679308D01*
X72206592Y-78684974D01*
X72210049Y-78691440D01*
X72212177Y-78698455D01*
X72213500Y-78711890D01*
X72213500Y-80275610D01*
X72212177Y-80289045D01*
X72210049Y-80296060D01*
X72206592Y-80302526D01*
X72201942Y-80308192D01*
X72196276Y-80312842D01*
X72189810Y-80316299D01*
X72182795Y-80318427D01*
X72169360Y-80319750D01*
X71855640Y-80319750D01*
X71842205Y-80318427D01*
X71835191Y-80316299D01*
X71821423Y-80308940D01*
X71798784Y-80299563D01*
X71774751Y-80294783D01*
X71750247Y-80294783D01*
X71726214Y-80299564D01*
X71703577Y-80308940D01*
X71689809Y-80316299D01*
X71682795Y-80318427D01*
X71669360Y-80319750D01*
X71355640Y-80319750D01*
X71342205Y-80318427D01*
X71335191Y-80316299D01*
X71321423Y-80308940D01*
X71298784Y-80299563D01*
X71274751Y-80294783D01*
X71250247Y-80294783D01*
X71226214Y-80299564D01*
X71203577Y-80308940D01*
X71189809Y-80316299D01*
X71182795Y-80318427D01*
X71169360Y-80319750D01*
X70855640Y-80319750D01*
X70842205Y-80318427D01*
X70835191Y-80316299D01*
X70821423Y-80308940D01*
X70798784Y-80299563D01*
X70774751Y-80294783D01*
X70750247Y-80294783D01*
X70726214Y-80299564D01*
X70703577Y-80308940D01*
X70689809Y-80316299D01*
X70682795Y-80318427D01*
X70669360Y-80319750D01*
X70355640Y-80319750D01*
X70342205Y-80318427D01*
X70335191Y-80316299D01*
X70321423Y-80308940D01*
X70298784Y-80299563D01*
X70274751Y-80294783D01*
X70250247Y-80294783D01*
X70226214Y-80299564D01*
X70203577Y-80308940D01*
X70189809Y-80316299D01*
X70182795Y-80318427D01*
X70169360Y-80319750D01*
X69855640Y-80319750D01*
X69842205Y-80318427D01*
X69835191Y-80316299D01*
X69821423Y-80308940D01*
X69798784Y-80299563D01*
X69774751Y-80294783D01*
X69750247Y-80294783D01*
X69726214Y-80299564D01*
X69703577Y-80308940D01*
X69689809Y-80316299D01*
X69682795Y-80318427D01*
X69669360Y-80319750D01*
X69355640Y-80319750D01*
X69342205Y-80318427D01*
X69335191Y-80316299D01*
X69321423Y-80308940D01*
X69298784Y-80299563D01*
X69274751Y-80294783D01*
X69250247Y-80294783D01*
X69226214Y-80299564D01*
X69203577Y-80308940D01*
X69189809Y-80316299D01*
X69182795Y-80318427D01*
X69169360Y-80319750D01*
X68855640Y-80319750D01*
X68842205Y-80318427D01*
X68835191Y-80316299D01*
X68821423Y-80308940D01*
X68798784Y-80299563D01*
X68774751Y-80294783D01*
X68750247Y-80294783D01*
X68726214Y-80299564D01*
X68703577Y-80308940D01*
X68689809Y-80316299D01*
X68682795Y-80318427D01*
X68669360Y-80319750D01*
X68355640Y-80319750D01*
X68342205Y-80318427D01*
X68335191Y-80316299D01*
X68321423Y-80308940D01*
X68298784Y-80299563D01*
X68274751Y-80294783D01*
X68250247Y-80294783D01*
X68226214Y-80299564D01*
X68203577Y-80308940D01*
X68189809Y-80316299D01*
X68182795Y-80318427D01*
X68169360Y-80319750D01*
X67855640Y-80319750D01*
X67842205Y-80318427D01*
X67835191Y-80316299D01*
X67821423Y-80308940D01*
X67798784Y-80299563D01*
X67774751Y-80294783D01*
X67750247Y-80294783D01*
X67726214Y-80299564D01*
X67703577Y-80308940D01*
X67689809Y-80316299D01*
X67682795Y-80318427D01*
X67669360Y-80319750D01*
X67355640Y-80319750D01*
X67342205Y-80318427D01*
X67335191Y-80316299D01*
X67321423Y-80308940D01*
X67298784Y-80299563D01*
X67274751Y-80294783D01*
X67250247Y-80294783D01*
X67226214Y-80299564D01*
X67203577Y-80308940D01*
X67189809Y-80316299D01*
X67182795Y-80318427D01*
X67169360Y-80319750D01*
X66855640Y-80319750D01*
X66842205Y-80318427D01*
X66835191Y-80316299D01*
X66821423Y-80308940D01*
X66798784Y-80299563D01*
X66774751Y-80294783D01*
X66750247Y-80294783D01*
X66726214Y-80299564D01*
X66703577Y-80308940D01*
X66689809Y-80316299D01*
X66682795Y-80318427D01*
X66669360Y-80319750D01*
X66355640Y-80319750D01*
X66342205Y-80318427D01*
X66335191Y-80316299D01*
X66321423Y-80308940D01*
X66298784Y-80299563D01*
X66274751Y-80294783D01*
X66250247Y-80294783D01*
X66226214Y-80299564D01*
X66203577Y-80308940D01*
X66189809Y-80316299D01*
X66182795Y-80318427D01*
X66169360Y-80319750D01*
X65855640Y-80319750D01*
X65842205Y-80318427D01*
X65835191Y-80316299D01*
X65821423Y-80308940D01*
X65798784Y-80299563D01*
X65774751Y-80294783D01*
X65750247Y-80294783D01*
X65726214Y-80299564D01*
X65703577Y-80308940D01*
X65689809Y-80316299D01*
X65682795Y-80318427D01*
X65669360Y-80319750D01*
X65355640Y-80319750D01*
X65342205Y-80318427D01*
X65335191Y-80316299D01*
X65321423Y-80308940D01*
X65298784Y-80299563D01*
X65274751Y-80294783D01*
X65250247Y-80294783D01*
X65226214Y-80299564D01*
X65203577Y-80308940D01*
X65189809Y-80316299D01*
X65182795Y-80318427D01*
X65169360Y-80319750D01*
X64855640Y-80319750D01*
X64842205Y-80318427D01*
X64835191Y-80316299D01*
X64821423Y-80308940D01*
X64798784Y-80299563D01*
X64774751Y-80294783D01*
X64750247Y-80294783D01*
X64726214Y-80299564D01*
X64703577Y-80308940D01*
X64689809Y-80316299D01*
X64682795Y-80318427D01*
X64669360Y-80319750D01*
X64355640Y-80319750D01*
X64342205Y-80318427D01*
X64335190Y-80316299D01*
X64328724Y-80312842D01*
X64323058Y-80308192D01*
X64318408Y-80302526D01*
X64314951Y-80296060D01*
X64312823Y-80289045D01*
X64311500Y-80275610D01*
X64311500Y-78711890D01*
X64312823Y-78698455D01*
X64314951Y-78691440D01*
X64318408Y-78684974D01*
X64323058Y-78679308D01*
X64328724Y-78674658D01*
X64335190Y-78671201D01*
X64342205Y-78669073D01*
X64355640Y-78667750D01*
X64669360Y-78667750D01*
X64682795Y-78669073D01*
X64682795Y-78669073D01*
G37*
G36*
X120887249Y-75971902D02*
G01*
X121113027Y-76023735D01*
X121324355Y-76118620D01*
X121513111Y-76252910D01*
X121672041Y-76421443D01*
X121795038Y-76617745D01*
X121877376Y-76834270D01*
X121906238Y-77005455D01*
X121944500Y-77560250D01*
X121946603Y-77576015D01*
X121952376Y-77605039D01*
X121953000Y-77608175D01*
X121953000Y-77679203D01*
X121953295Y-77687775D01*
X121954188Y-77700723D01*
X121953053Y-77739416D01*
X121953000Y-77743014D01*
X121953000Y-77839826D01*
X121951647Y-77846630D01*
X121949301Y-77867340D01*
X121949098Y-77874249D01*
X121927438Y-77968599D01*
X121926699Y-77972050D01*
X121907807Y-78067027D01*
X121905152Y-78073438D01*
X121898815Y-78093275D01*
X121897265Y-78100027D01*
X121857624Y-78188315D01*
X121856220Y-78191570D01*
X121819158Y-78281045D01*
X121815309Y-78286805D01*
X121805214Y-78305042D01*
X121802380Y-78311355D01*
X121746291Y-78390193D01*
X121744244Y-78393161D01*
X121690459Y-78473656D01*
X121685559Y-78478556D01*
X121672098Y-78494478D01*
X121668090Y-78500111D01*
X121597689Y-78566501D01*
X121595110Y-78569005D01*
X121526652Y-78637463D01*
X121520896Y-78641309D01*
X121504587Y-78654298D01*
X121499557Y-78659041D01*
X121417554Y-78710422D01*
X121414563Y-78712358D01*
X121334045Y-78766158D01*
X121327636Y-78768813D01*
X121309127Y-78778360D01*
X121303255Y-78782039D01*
X121212847Y-78816418D01*
X121209443Y-78817770D01*
X121182414Y-78828966D01*
X121120027Y-78854807D01*
X121113228Y-78856159D01*
X121093203Y-78861915D01*
X121086730Y-78864376D01*
X120991348Y-78880458D01*
X120987754Y-78881118D01*
X120892827Y-78900000D01*
X120885900Y-78900000D01*
X120865127Y-78901739D01*
X120858302Y-78902890D01*
X120761584Y-78900053D01*
X120757959Y-78900000D01*
X120661174Y-78900000D01*
X120654381Y-78898649D01*
X120633665Y-78896302D01*
X120629130Y-78896169D01*
X120626751Y-78896099D01*
X120532446Y-78874449D01*
X120528899Y-78873689D01*
X120508790Y-78869689D01*
X120433973Y-78854807D01*
X120427562Y-78852152D01*
X120407725Y-78845815D01*
X120400973Y-78844265D01*
X120312687Y-78804625D01*
X120309429Y-78803219D01*
X120219955Y-78766158D01*
X120219954Y-78766157D01*
X120219951Y-78766156D01*
X120214194Y-78762309D01*
X120195955Y-78752213D01*
X120189645Y-78749380D01*
X120110806Y-78693290D01*
X120107824Y-78691234D01*
X120102890Y-78687937D01*
X120088856Y-78678560D01*
X120027346Y-78637461D01*
X120022447Y-78632562D01*
X120006521Y-78619097D01*
X120000888Y-78615089D01*
X119957430Y-78569005D01*
X119934534Y-78544725D01*
X119931993Y-78542108D01*
X119863537Y-78473652D01*
X119859689Y-78467893D01*
X119846711Y-78451596D01*
X119841959Y-78446557D01*
X119790577Y-78364551D01*
X119788657Y-78361585D01*
X119734842Y-78281045D01*
X119732187Y-78274635D01*
X119722636Y-78256119D01*
X119718962Y-78250255D01*
X119684553Y-78159770D01*
X119683264Y-78156524D01*
X119646193Y-78067027D01*
X119644841Y-78060228D01*
X119639085Y-78040201D01*
X119636624Y-78033730D01*
X119620540Y-77938332D01*
X119619882Y-77934750D01*
X119607052Y-77870249D01*
X119601000Y-77839826D01*
X119601000Y-77768804D01*
X119600704Y-77760204D01*
X119600174Y-77752526D01*
X119559812Y-77167277D01*
X119564902Y-76993751D01*
X119616735Y-76767973D01*
X119711620Y-76556645D01*
X119845910Y-76367889D01*
X120014443Y-76208959D01*
X120210745Y-76085962D01*
X120427270Y-76003624D01*
X120618972Y-75971303D01*
X120655697Y-75965111D01*
X120655698Y-75965111D01*
X120887249Y-75971902D01*
X120887249Y-75971902D01*
G37*
G36*
X101578249Y-75967902D02*
G01*
X101804027Y-76019735D01*
X102015355Y-76114620D01*
X102204111Y-76248910D01*
X102363041Y-76417443D01*
X102486038Y-76613745D01*
X102568376Y-76830270D01*
X102597238Y-77001455D01*
X102635500Y-77556250D01*
X102637603Y-77572015D01*
X102643543Y-77601878D01*
X102644000Y-77604175D01*
X102644000Y-77675203D01*
X102644295Y-77683775D01*
X102645188Y-77696723D01*
X102644053Y-77735416D01*
X102644000Y-77739014D01*
X102644000Y-77835826D01*
X102642647Y-77842630D01*
X102640301Y-77863340D01*
X102640098Y-77870249D01*
X102618438Y-77964599D01*
X102617699Y-77968050D01*
X102598807Y-78063027D01*
X102596152Y-78069438D01*
X102589815Y-78089275D01*
X102588265Y-78096027D01*
X102548624Y-78184315D01*
X102547220Y-78187570D01*
X102510158Y-78277045D01*
X102507486Y-78281044D01*
X102506309Y-78282805D01*
X102496214Y-78301042D01*
X102493380Y-78307355D01*
X102437291Y-78386193D01*
X102435251Y-78389151D01*
X102399567Y-78442555D01*
X102381459Y-78469656D01*
X102376559Y-78474556D01*
X102363098Y-78490478D01*
X102359090Y-78496111D01*
X102288689Y-78562501D01*
X102286110Y-78565005D01*
X102217652Y-78633463D01*
X102211896Y-78637309D01*
X102195587Y-78650298D01*
X102190557Y-78655041D01*
X102108554Y-78706422D01*
X102105563Y-78708358D01*
X102025045Y-78762158D01*
X102018636Y-78764813D01*
X102000127Y-78774360D01*
X101994255Y-78778039D01*
X101924272Y-78804651D01*
X101903847Y-78812418D01*
X101900443Y-78813770D01*
X101894050Y-78816418D01*
X101811027Y-78850807D01*
X101804228Y-78852159D01*
X101784203Y-78857915D01*
X101777730Y-78860376D01*
X101682348Y-78876458D01*
X101678754Y-78877118D01*
X101583827Y-78896000D01*
X101576900Y-78896000D01*
X101556127Y-78897739D01*
X101549302Y-78898890D01*
X101452584Y-78896053D01*
X101448959Y-78896000D01*
X101352174Y-78896000D01*
X101345381Y-78894649D01*
X101324665Y-78892302D01*
X101320130Y-78892169D01*
X101317751Y-78892099D01*
X101223446Y-78870449D01*
X101219899Y-78869689D01*
X101208467Y-78867415D01*
X101124973Y-78850807D01*
X101118562Y-78848152D01*
X101098725Y-78841815D01*
X101091973Y-78840265D01*
X101003687Y-78800625D01*
X101000429Y-78799219D01*
X100910955Y-78762158D01*
X100910954Y-78762157D01*
X100910951Y-78762156D01*
X100905194Y-78758309D01*
X100886955Y-78748213D01*
X100880645Y-78745380D01*
X100801806Y-78689290D01*
X100798824Y-78687234D01*
X100795442Y-78684974D01*
X100756630Y-78659041D01*
X100718346Y-78633461D01*
X100713447Y-78628562D01*
X100697521Y-78615097D01*
X100691888Y-78611089D01*
X100652202Y-78569005D01*
X100625534Y-78540725D01*
X100622993Y-78538108D01*
X100554537Y-78469652D01*
X100550689Y-78463893D01*
X100537711Y-78447596D01*
X100532959Y-78442557D01*
X100481577Y-78360551D01*
X100479657Y-78357585D01*
X100425842Y-78277045D01*
X100423187Y-78270635D01*
X100413636Y-78252119D01*
X100409962Y-78246255D01*
X100375553Y-78155770D01*
X100374264Y-78152524D01*
X100337193Y-78063027D01*
X100335841Y-78056228D01*
X100330085Y-78036201D01*
X100327624Y-78029730D01*
X100311540Y-77934332D01*
X100310882Y-77930750D01*
X100299643Y-77874246D01*
X100292000Y-77835826D01*
X100292000Y-77764804D01*
X100291704Y-77756204D01*
X100288496Y-77709688D01*
X100250812Y-77163277D01*
X100255902Y-76989751D01*
X100307735Y-76763973D01*
X100402620Y-76552645D01*
X100536910Y-76363889D01*
X100705443Y-76204959D01*
X100901745Y-76081962D01*
X101118270Y-75999624D01*
X101309972Y-75967303D01*
X101346697Y-75961111D01*
X101346698Y-75961111D01*
X101578249Y-75967902D01*
X101578249Y-75967902D01*
G37*
G36*
X114719866Y-74039177D02*
G01*
X114937583Y-74118311D01*
X115018557Y-74167398D01*
X115135679Y-74238398D01*
X115236830Y-74331003D01*
X115263723Y-74355624D01*
X116493795Y-75726541D01*
X116588810Y-75832436D01*
X116593460Y-75837345D01*
X116650461Y-75894346D01*
X116698866Y-75966790D01*
X116702011Y-75971280D01*
X116753602Y-76041576D01*
X116760622Y-76056613D01*
X116769944Y-76073165D01*
X116779158Y-76086955D01*
X116812511Y-76167477D01*
X116814711Y-76172474D01*
X116851595Y-76251480D01*
X116855549Y-76267607D01*
X116861457Y-76285643D01*
X116867807Y-76300973D01*
X116884812Y-76386463D01*
X116885988Y-76391763D01*
X116906756Y-76476469D01*
X116907488Y-76493059D01*
X116909766Y-76511913D01*
X116913000Y-76528174D01*
X116913000Y-76615311D01*
X116913120Y-76620751D01*
X116916963Y-76707896D01*
X116914444Y-76724308D01*
X116913000Y-76743248D01*
X116913000Y-76759827D01*
X116896001Y-76845287D01*
X116895055Y-76850655D01*
X116881825Y-76936866D01*
X116881823Y-76936871D01*
X116876158Y-76952457D01*
X116871042Y-76970763D01*
X116867807Y-76987027D01*
X116834452Y-77067552D01*
X116832478Y-77072632D01*
X116802691Y-77154583D01*
X116797420Y-77163278D01*
X116794093Y-77168766D01*
X116785505Y-77185723D01*
X116779158Y-77201045D01*
X116763095Y-77225085D01*
X116730746Y-77273499D01*
X116727799Y-77278126D01*
X116682605Y-77352679D01*
X116671396Y-77364922D01*
X116659674Y-77379865D01*
X116653131Y-77389657D01*
X116650458Y-77393657D01*
X116588829Y-77455286D01*
X116585030Y-77459257D01*
X116526179Y-77523539D01*
X116512809Y-77533352D01*
X116498383Y-77545732D01*
X116486656Y-77557459D01*
X116464863Y-77572021D01*
X116414192Y-77605878D01*
X116409694Y-77609029D01*
X116339426Y-77660600D01*
X116324393Y-77667618D01*
X116307841Y-77676940D01*
X116294045Y-77686158D01*
X116213494Y-77719523D01*
X116208504Y-77721720D01*
X116129521Y-77758593D01*
X116113401Y-77762545D01*
X116095362Y-77768455D01*
X116080027Y-77774807D01*
X115994518Y-77791816D01*
X115989223Y-77792990D01*
X115904532Y-77813754D01*
X115887956Y-77814485D01*
X115869097Y-77816764D01*
X115852828Y-77820000D01*
X115765645Y-77820000D01*
X115760205Y-77820119D01*
X115673106Y-77823961D01*
X115656709Y-77821445D01*
X115637766Y-77820000D01*
X115621173Y-77820000D01*
X115535663Y-77802991D01*
X115530300Y-77802046D01*
X115444135Y-77788823D01*
X115428542Y-77783156D01*
X115410252Y-77778045D01*
X115393973Y-77774807D01*
X115313410Y-77741437D01*
X115308312Y-77739455D01*
X115226418Y-77709689D01*
X115219820Y-77705689D01*
X115212248Y-77701099D01*
X115195300Y-77692514D01*
X115179955Y-77686158D01*
X115107421Y-77637692D01*
X115102830Y-77634769D01*
X115028323Y-77589603D01*
X115028321Y-77589602D01*
X115016102Y-77578415D01*
X115001143Y-77566680D01*
X114987346Y-77557461D01*
X114925682Y-77495797D01*
X114921701Y-77491989D01*
X114900278Y-77472376D01*
X114885223Y-77455597D01*
X114880573Y-77450688D01*
X114823539Y-77393654D01*
X114810681Y-77374411D01*
X114799787Y-77360379D01*
X114075041Y-76552647D01*
X113513114Y-75926378D01*
X113410400Y-75786423D01*
X113410400Y-75786422D01*
X113410398Y-75786420D01*
X113322362Y-75597842D01*
X113312407Y-75576519D01*
X113257246Y-75351530D01*
X113247039Y-75120105D01*
X113282177Y-74891134D01*
X113361311Y-74673417D01*
X113421354Y-74574370D01*
X113481398Y-74475321D01*
X113572878Y-74375400D01*
X113637823Y-74304461D01*
X113769652Y-74207710D01*
X113824579Y-74167398D01*
X113953797Y-74107074D01*
X114034481Y-74069407D01*
X114259470Y-74014246D01*
X114490895Y-74004039D01*
X114719866Y-74039177D01*
X114719866Y-74039177D01*
G37*
G36*
X95410866Y-74035177D02*
G01*
X95628583Y-74114311D01*
X95709557Y-74163398D01*
X95826679Y-74234398D01*
X95932197Y-74331001D01*
X95954723Y-74351624D01*
X97200742Y-75740314D01*
X97279810Y-75828436D01*
X97284460Y-75833345D01*
X97341461Y-75890346D01*
X97389866Y-75962790D01*
X97393011Y-75967280D01*
X97444602Y-76037576D01*
X97451622Y-76052613D01*
X97460944Y-76069165D01*
X97470158Y-76082955D01*
X97503511Y-76163477D01*
X97505711Y-76168474D01*
X97542595Y-76247480D01*
X97546549Y-76263607D01*
X97552457Y-76281643D01*
X97558807Y-76296973D01*
X97575812Y-76382463D01*
X97576988Y-76387763D01*
X97597756Y-76472469D01*
X97598488Y-76489059D01*
X97600766Y-76507917D01*
X97604000Y-76524175D01*
X97604000Y-76611311D01*
X97604120Y-76616751D01*
X97607963Y-76703896D01*
X97605444Y-76720308D01*
X97604000Y-76739248D01*
X97604000Y-76755827D01*
X97587001Y-76841287D01*
X97586055Y-76846655D01*
X97572825Y-76932866D01*
X97572823Y-76932871D01*
X97567158Y-76948457D01*
X97562042Y-76966763D01*
X97558807Y-76983027D01*
X97525452Y-77063552D01*
X97523478Y-77068632D01*
X97493691Y-77150583D01*
X97486191Y-77162955D01*
X97485093Y-77164766D01*
X97476505Y-77181723D01*
X97470158Y-77197045D01*
X97463032Y-77207710D01*
X97421746Y-77269499D01*
X97418799Y-77274126D01*
X97373605Y-77348679D01*
X97362396Y-77360922D01*
X97350674Y-77375865D01*
X97344779Y-77384687D01*
X97341458Y-77389657D01*
X97279829Y-77451286D01*
X97276030Y-77455257D01*
X97217179Y-77519539D01*
X97203809Y-77529352D01*
X97189383Y-77541732D01*
X97177656Y-77553459D01*
X97105192Y-77601878D01*
X97100694Y-77605029D01*
X97030426Y-77656600D01*
X97015393Y-77663618D01*
X96998841Y-77672940D01*
X96985045Y-77682158D01*
X96904494Y-77715523D01*
X96899504Y-77717720D01*
X96820521Y-77754593D01*
X96804401Y-77758545D01*
X96786362Y-77764455D01*
X96771027Y-77770807D01*
X96685518Y-77787816D01*
X96680223Y-77788990D01*
X96595532Y-77809754D01*
X96578956Y-77810485D01*
X96560097Y-77812764D01*
X96543828Y-77816000D01*
X96456645Y-77816000D01*
X96451205Y-77816119D01*
X96364106Y-77819961D01*
X96347709Y-77817445D01*
X96328766Y-77816000D01*
X96312173Y-77816000D01*
X96226663Y-77798991D01*
X96221300Y-77798046D01*
X96135135Y-77784823D01*
X96119542Y-77779156D01*
X96101252Y-77774045D01*
X96084973Y-77770807D01*
X96004410Y-77737437D01*
X95999312Y-77735455D01*
X95917418Y-77705689D01*
X95903247Y-77697099D01*
X95886300Y-77688514D01*
X95870955Y-77682158D01*
X95798421Y-77633692D01*
X95793830Y-77630769D01*
X95719323Y-77585603D01*
X95719321Y-77585602D01*
X95707102Y-77574415D01*
X95692143Y-77562680D01*
X95678346Y-77553461D01*
X95616682Y-77491797D01*
X95612701Y-77487989D01*
X95591278Y-77468376D01*
X95576223Y-77451597D01*
X95571573Y-77446688D01*
X95514539Y-77389654D01*
X95501681Y-77370411D01*
X95490787Y-77356379D01*
X94747672Y-76528174D01*
X94204114Y-75922378D01*
X94101400Y-75782423D01*
X94101400Y-75782422D01*
X94101398Y-75782420D01*
X94048566Y-75669250D01*
X94003407Y-75572519D01*
X93948246Y-75347530D01*
X93938039Y-75116105D01*
X93973177Y-74887134D01*
X94052311Y-74669417D01*
X94169973Y-74475322D01*
X94172398Y-74471321D01*
X94260216Y-74375400D01*
X94328823Y-74300461D01*
X94480890Y-74188857D01*
X94515579Y-74163398D01*
X94644797Y-74103074D01*
X94725481Y-74065407D01*
X94950470Y-74010246D01*
X95181895Y-74000039D01*
X95410866Y-74035177D01*
X95410866Y-74035177D01*
G37*
G36*
X63382795Y-69869073D02*
G01*
X63389810Y-69871201D01*
X63396276Y-69874658D01*
X63401942Y-69879308D01*
X63406592Y-69884974D01*
X63410049Y-69891440D01*
X63412177Y-69898455D01*
X63413500Y-69911890D01*
X63413500Y-70225610D01*
X63412177Y-70239045D01*
X63410049Y-70246059D01*
X63402690Y-70259827D01*
X63393313Y-70282466D01*
X63388533Y-70306499D01*
X63388533Y-70331003D01*
X63393314Y-70355036D01*
X63402690Y-70377673D01*
X63410049Y-70391441D01*
X63412177Y-70398455D01*
X63413500Y-70411890D01*
X63413500Y-70725610D01*
X63412177Y-70739045D01*
X63410049Y-70746059D01*
X63402690Y-70759827D01*
X63393313Y-70782466D01*
X63388533Y-70806499D01*
X63388533Y-70831003D01*
X63393314Y-70855036D01*
X63402690Y-70877673D01*
X63410049Y-70891441D01*
X63412177Y-70898455D01*
X63413500Y-70911890D01*
X63413500Y-71225610D01*
X63412177Y-71239045D01*
X63410049Y-71246059D01*
X63402690Y-71259827D01*
X63393313Y-71282466D01*
X63388533Y-71306499D01*
X63388533Y-71331003D01*
X63393314Y-71355036D01*
X63402690Y-71377673D01*
X63410049Y-71391441D01*
X63412177Y-71398455D01*
X63413500Y-71411890D01*
X63413500Y-71725610D01*
X63412177Y-71739045D01*
X63410049Y-71746059D01*
X63402690Y-71759827D01*
X63393313Y-71782466D01*
X63388533Y-71806499D01*
X63388533Y-71831003D01*
X63393314Y-71855036D01*
X63402690Y-71877673D01*
X63410049Y-71891441D01*
X63412177Y-71898455D01*
X63413500Y-71911890D01*
X63413500Y-72225610D01*
X63412177Y-72239045D01*
X63410049Y-72246059D01*
X63402690Y-72259827D01*
X63393313Y-72282466D01*
X63388533Y-72306499D01*
X63388533Y-72331003D01*
X63393314Y-72355036D01*
X63402690Y-72377673D01*
X63410049Y-72391441D01*
X63412177Y-72398455D01*
X63413500Y-72411890D01*
X63413500Y-72725610D01*
X63412177Y-72739045D01*
X63410049Y-72746059D01*
X63402690Y-72759827D01*
X63393313Y-72782466D01*
X63388533Y-72806499D01*
X63388533Y-72831003D01*
X63393314Y-72855036D01*
X63402690Y-72877673D01*
X63410049Y-72891441D01*
X63412177Y-72898455D01*
X63413500Y-72911890D01*
X63413500Y-73225610D01*
X63412177Y-73239045D01*
X63410049Y-73246059D01*
X63402690Y-73259827D01*
X63393313Y-73282466D01*
X63388533Y-73306499D01*
X63388533Y-73331003D01*
X63393314Y-73355036D01*
X63402690Y-73377673D01*
X63410049Y-73391441D01*
X63412177Y-73398455D01*
X63413500Y-73411890D01*
X63413500Y-73725610D01*
X63412177Y-73739045D01*
X63410049Y-73746059D01*
X63402690Y-73759827D01*
X63393313Y-73782466D01*
X63388533Y-73806499D01*
X63388533Y-73831003D01*
X63393314Y-73855036D01*
X63402690Y-73877673D01*
X63410049Y-73891441D01*
X63412177Y-73898455D01*
X63413500Y-73911890D01*
X63413500Y-74225610D01*
X63412177Y-74239045D01*
X63410049Y-74246059D01*
X63402690Y-74259827D01*
X63393313Y-74282466D01*
X63388533Y-74306499D01*
X63388533Y-74331003D01*
X63393314Y-74355036D01*
X63402690Y-74377673D01*
X63410049Y-74391441D01*
X63412177Y-74398455D01*
X63413500Y-74411890D01*
X63413500Y-74725610D01*
X63412177Y-74739045D01*
X63410049Y-74746059D01*
X63402690Y-74759827D01*
X63393313Y-74782466D01*
X63388533Y-74806499D01*
X63388533Y-74831003D01*
X63393314Y-74855036D01*
X63402690Y-74877673D01*
X63410049Y-74891441D01*
X63412177Y-74898455D01*
X63413500Y-74911890D01*
X63413500Y-75225610D01*
X63412177Y-75239045D01*
X63410049Y-75246059D01*
X63402690Y-75259827D01*
X63393313Y-75282466D01*
X63388533Y-75306499D01*
X63388533Y-75331003D01*
X63393314Y-75355036D01*
X63402690Y-75377673D01*
X63410049Y-75391441D01*
X63412177Y-75398455D01*
X63413500Y-75411890D01*
X63413500Y-75725610D01*
X63412177Y-75739045D01*
X63410049Y-75746059D01*
X63402690Y-75759827D01*
X63393313Y-75782466D01*
X63388533Y-75806499D01*
X63388533Y-75831003D01*
X63393314Y-75855036D01*
X63402690Y-75877673D01*
X63410049Y-75891441D01*
X63412177Y-75898455D01*
X63413500Y-75911890D01*
X63413500Y-76225610D01*
X63412177Y-76239045D01*
X63410049Y-76246059D01*
X63402690Y-76259827D01*
X63393313Y-76282466D01*
X63388533Y-76306499D01*
X63388533Y-76331003D01*
X63393314Y-76355036D01*
X63402690Y-76377673D01*
X63410049Y-76391441D01*
X63412177Y-76398455D01*
X63413500Y-76411890D01*
X63413500Y-76725610D01*
X63412177Y-76739045D01*
X63410049Y-76746059D01*
X63402690Y-76759827D01*
X63393313Y-76782466D01*
X63388533Y-76806499D01*
X63388533Y-76831003D01*
X63393314Y-76855036D01*
X63402690Y-76877673D01*
X63410049Y-76891441D01*
X63412177Y-76898455D01*
X63413500Y-76911890D01*
X63413500Y-77225610D01*
X63412177Y-77239045D01*
X63410049Y-77246059D01*
X63402690Y-77259827D01*
X63393313Y-77282466D01*
X63388533Y-77306499D01*
X63388533Y-77331003D01*
X63393314Y-77355036D01*
X63402690Y-77377673D01*
X63410049Y-77391441D01*
X63412177Y-77398455D01*
X63413500Y-77411890D01*
X63413500Y-77725610D01*
X63412177Y-77739045D01*
X63410049Y-77746060D01*
X63406592Y-77752526D01*
X63401942Y-77758192D01*
X63396276Y-77762842D01*
X63389810Y-77766299D01*
X63382795Y-77768427D01*
X63369360Y-77769750D01*
X61805640Y-77769750D01*
X61792205Y-77768427D01*
X61785190Y-77766299D01*
X61778724Y-77762842D01*
X61773058Y-77758192D01*
X61768408Y-77752526D01*
X61764951Y-77746060D01*
X61762823Y-77739045D01*
X61761500Y-77725610D01*
X61761500Y-77411890D01*
X61762823Y-77398455D01*
X61764951Y-77391441D01*
X61772310Y-77377673D01*
X61781687Y-77355034D01*
X61786467Y-77331001D01*
X61786467Y-77306497D01*
X61781686Y-77282464D01*
X61772310Y-77259827D01*
X61764951Y-77246059D01*
X61762823Y-77239045D01*
X61761500Y-77225610D01*
X61761500Y-76911890D01*
X61762823Y-76898455D01*
X61764951Y-76891441D01*
X61772310Y-76877673D01*
X61781687Y-76855034D01*
X61786467Y-76831001D01*
X61786467Y-76806497D01*
X61781686Y-76782464D01*
X61772310Y-76759827D01*
X61764951Y-76746059D01*
X61762823Y-76739045D01*
X61761500Y-76725610D01*
X61761500Y-76411890D01*
X61762823Y-76398455D01*
X61764951Y-76391441D01*
X61772310Y-76377673D01*
X61781687Y-76355034D01*
X61786467Y-76331001D01*
X61786467Y-76306497D01*
X61781686Y-76282464D01*
X61772310Y-76259827D01*
X61764951Y-76246059D01*
X61762823Y-76239045D01*
X61761500Y-76225610D01*
X61761500Y-75911890D01*
X61762823Y-75898455D01*
X61764951Y-75891441D01*
X61772310Y-75877673D01*
X61781687Y-75855034D01*
X61786467Y-75831001D01*
X61786467Y-75806497D01*
X61781686Y-75782464D01*
X61772310Y-75759827D01*
X61764951Y-75746059D01*
X61762823Y-75739045D01*
X61761500Y-75725610D01*
X61761500Y-75411890D01*
X61762823Y-75398455D01*
X61764951Y-75391441D01*
X61772310Y-75377673D01*
X61781687Y-75355034D01*
X61786467Y-75331001D01*
X61786467Y-75306497D01*
X61781686Y-75282464D01*
X61772310Y-75259827D01*
X61764951Y-75246059D01*
X61762823Y-75239045D01*
X61761500Y-75225610D01*
X61761500Y-74911890D01*
X61762823Y-74898455D01*
X61764951Y-74891441D01*
X61772310Y-74877673D01*
X61781687Y-74855034D01*
X61786467Y-74831001D01*
X61786467Y-74806497D01*
X61781686Y-74782464D01*
X61772310Y-74759827D01*
X61764951Y-74746059D01*
X61762823Y-74739045D01*
X61761500Y-74725610D01*
X61761500Y-74411890D01*
X61762823Y-74398455D01*
X61764951Y-74391441D01*
X61772310Y-74377673D01*
X61781687Y-74355034D01*
X61786467Y-74331001D01*
X61786467Y-74306497D01*
X61781686Y-74282464D01*
X61772310Y-74259827D01*
X61764951Y-74246059D01*
X61762823Y-74239045D01*
X61761500Y-74225610D01*
X61761500Y-73911890D01*
X61762823Y-73898455D01*
X61764951Y-73891441D01*
X61772310Y-73877673D01*
X61781687Y-73855034D01*
X61786467Y-73831001D01*
X61786467Y-73806497D01*
X61781686Y-73782464D01*
X61772310Y-73759827D01*
X61764951Y-73746059D01*
X61762823Y-73739045D01*
X61761500Y-73725610D01*
X61761500Y-73411890D01*
X61762823Y-73398455D01*
X61764951Y-73391441D01*
X61772310Y-73377673D01*
X61781687Y-73355034D01*
X61786467Y-73331001D01*
X61786467Y-73306497D01*
X61781686Y-73282464D01*
X61772310Y-73259827D01*
X61764951Y-73246059D01*
X61762823Y-73239045D01*
X61761500Y-73225610D01*
X61761500Y-72911890D01*
X61762823Y-72898455D01*
X61764951Y-72891441D01*
X61772310Y-72877673D01*
X61781687Y-72855034D01*
X61786467Y-72831001D01*
X61786467Y-72806497D01*
X61781686Y-72782464D01*
X61772310Y-72759827D01*
X61764951Y-72746059D01*
X61762823Y-72739045D01*
X61761500Y-72725610D01*
X61761500Y-72411890D01*
X61762823Y-72398455D01*
X61764951Y-72391441D01*
X61772310Y-72377673D01*
X61781687Y-72355034D01*
X61786467Y-72331001D01*
X61786467Y-72306497D01*
X61781686Y-72282464D01*
X61772310Y-72259827D01*
X61764951Y-72246059D01*
X61762823Y-72239045D01*
X61761500Y-72225610D01*
X61761500Y-71911890D01*
X61762823Y-71898455D01*
X61764951Y-71891441D01*
X61772310Y-71877673D01*
X61781687Y-71855034D01*
X61786467Y-71831001D01*
X61786467Y-71806497D01*
X61781686Y-71782464D01*
X61772310Y-71759827D01*
X61764951Y-71746059D01*
X61762823Y-71739045D01*
X61761500Y-71725610D01*
X61761500Y-71411890D01*
X61762823Y-71398455D01*
X61764951Y-71391441D01*
X61772310Y-71377673D01*
X61781687Y-71355034D01*
X61786467Y-71331001D01*
X61786467Y-71306497D01*
X61781686Y-71282464D01*
X61772310Y-71259827D01*
X61764951Y-71246059D01*
X61762823Y-71239045D01*
X61761500Y-71225610D01*
X61761500Y-70911890D01*
X61762823Y-70898455D01*
X61764951Y-70891441D01*
X61772310Y-70877673D01*
X61781687Y-70855034D01*
X61786467Y-70831001D01*
X61786467Y-70806497D01*
X61781686Y-70782464D01*
X61772310Y-70759827D01*
X61764951Y-70746059D01*
X61762823Y-70739045D01*
X61761500Y-70725610D01*
X61761500Y-70411890D01*
X61762823Y-70398455D01*
X61764951Y-70391441D01*
X61772310Y-70377673D01*
X61781687Y-70355034D01*
X61786467Y-70331001D01*
X61786467Y-70306497D01*
X61781686Y-70282464D01*
X61772310Y-70259827D01*
X61764951Y-70246059D01*
X61762823Y-70239045D01*
X61761500Y-70225610D01*
X61761500Y-69911890D01*
X61762823Y-69898455D01*
X61764951Y-69891440D01*
X61768408Y-69884974D01*
X61773058Y-69879308D01*
X61778724Y-69874658D01*
X61785190Y-69871201D01*
X61792205Y-69869073D01*
X61805640Y-69867750D01*
X63369360Y-69867750D01*
X63382795Y-69869073D01*
X63382795Y-69869073D01*
G37*
G36*
X74732795Y-69869073D02*
G01*
X74739810Y-69871201D01*
X74746276Y-69874658D01*
X74751942Y-69879308D01*
X74756592Y-69884974D01*
X74760049Y-69891440D01*
X74762177Y-69898455D01*
X74763500Y-69911890D01*
X74763500Y-70225610D01*
X74762177Y-70239045D01*
X74760049Y-70246059D01*
X74752690Y-70259827D01*
X74743313Y-70282466D01*
X74738533Y-70306499D01*
X74738533Y-70331003D01*
X74743314Y-70355036D01*
X74752690Y-70377673D01*
X74760049Y-70391441D01*
X74762177Y-70398455D01*
X74763500Y-70411890D01*
X74763500Y-70725610D01*
X74762177Y-70739045D01*
X74760049Y-70746059D01*
X74752690Y-70759827D01*
X74743313Y-70782466D01*
X74738533Y-70806499D01*
X74738533Y-70831003D01*
X74743314Y-70855036D01*
X74752690Y-70877673D01*
X74760049Y-70891441D01*
X74762177Y-70898455D01*
X74763500Y-70911890D01*
X74763500Y-71225610D01*
X74762177Y-71239045D01*
X74760049Y-71246059D01*
X74752690Y-71259827D01*
X74743313Y-71282466D01*
X74738533Y-71306499D01*
X74738533Y-71331003D01*
X74743314Y-71355036D01*
X74752690Y-71377673D01*
X74760049Y-71391441D01*
X74762177Y-71398455D01*
X74763500Y-71411890D01*
X74763500Y-71725610D01*
X74762177Y-71739045D01*
X74760049Y-71746059D01*
X74752690Y-71759827D01*
X74743313Y-71782466D01*
X74738533Y-71806499D01*
X74738533Y-71831003D01*
X74743314Y-71855036D01*
X74752690Y-71877673D01*
X74760049Y-71891441D01*
X74762177Y-71898455D01*
X74763500Y-71911890D01*
X74763500Y-72225610D01*
X74762177Y-72239045D01*
X74760049Y-72246059D01*
X74752690Y-72259827D01*
X74743313Y-72282466D01*
X74738533Y-72306499D01*
X74738533Y-72331003D01*
X74743314Y-72355036D01*
X74752690Y-72377673D01*
X74760049Y-72391441D01*
X74762177Y-72398455D01*
X74763500Y-72411890D01*
X74763500Y-72725610D01*
X74762177Y-72739045D01*
X74760049Y-72746059D01*
X74752690Y-72759827D01*
X74743313Y-72782466D01*
X74738533Y-72806499D01*
X74738533Y-72831003D01*
X74743314Y-72855036D01*
X74752690Y-72877673D01*
X74760049Y-72891441D01*
X74762177Y-72898455D01*
X74763500Y-72911890D01*
X74763500Y-73225610D01*
X74762177Y-73239045D01*
X74760049Y-73246059D01*
X74752690Y-73259827D01*
X74743313Y-73282466D01*
X74738533Y-73306499D01*
X74738533Y-73331003D01*
X74743314Y-73355036D01*
X74752690Y-73377673D01*
X74760049Y-73391441D01*
X74762177Y-73398455D01*
X74763500Y-73411890D01*
X74763500Y-73725610D01*
X74762177Y-73739045D01*
X74760049Y-73746059D01*
X74752690Y-73759827D01*
X74743313Y-73782466D01*
X74738533Y-73806499D01*
X74738533Y-73831003D01*
X74743314Y-73855036D01*
X74752690Y-73877673D01*
X74760049Y-73891441D01*
X74762177Y-73898455D01*
X74763500Y-73911890D01*
X74763500Y-74225610D01*
X74762177Y-74239045D01*
X74760049Y-74246059D01*
X74752690Y-74259827D01*
X74743313Y-74282466D01*
X74738533Y-74306499D01*
X74738533Y-74331003D01*
X74743314Y-74355036D01*
X74752690Y-74377673D01*
X74760049Y-74391441D01*
X74762177Y-74398455D01*
X74763500Y-74411890D01*
X74763500Y-74725610D01*
X74762177Y-74739045D01*
X74760049Y-74746059D01*
X74752690Y-74759827D01*
X74743313Y-74782466D01*
X74738533Y-74806499D01*
X74738533Y-74831003D01*
X74743314Y-74855036D01*
X74752690Y-74877673D01*
X74760049Y-74891441D01*
X74762177Y-74898455D01*
X74763500Y-74911890D01*
X74763500Y-75225610D01*
X74762177Y-75239045D01*
X74760049Y-75246059D01*
X74752690Y-75259827D01*
X74743313Y-75282466D01*
X74738533Y-75306499D01*
X74738533Y-75331003D01*
X74743314Y-75355036D01*
X74752690Y-75377673D01*
X74760049Y-75391441D01*
X74762177Y-75398455D01*
X74763500Y-75411890D01*
X74763500Y-75725610D01*
X74762177Y-75739045D01*
X74760049Y-75746059D01*
X74752690Y-75759827D01*
X74743313Y-75782466D01*
X74738533Y-75806499D01*
X74738533Y-75831003D01*
X74743314Y-75855036D01*
X74752690Y-75877673D01*
X74760049Y-75891441D01*
X74762177Y-75898455D01*
X74763500Y-75911890D01*
X74763500Y-76225610D01*
X74762177Y-76239045D01*
X74760049Y-76246059D01*
X74752690Y-76259827D01*
X74743313Y-76282466D01*
X74738533Y-76306499D01*
X74738533Y-76331003D01*
X74743314Y-76355036D01*
X74752690Y-76377673D01*
X74760049Y-76391441D01*
X74762177Y-76398455D01*
X74763500Y-76411890D01*
X74763500Y-76725610D01*
X74762177Y-76739045D01*
X74760049Y-76746059D01*
X74752690Y-76759827D01*
X74743313Y-76782466D01*
X74738533Y-76806499D01*
X74738533Y-76831003D01*
X74743314Y-76855036D01*
X74752690Y-76877673D01*
X74760049Y-76891441D01*
X74762177Y-76898455D01*
X74763500Y-76911890D01*
X74763500Y-77225610D01*
X74762177Y-77239045D01*
X74760049Y-77246059D01*
X74752690Y-77259827D01*
X74743313Y-77282466D01*
X74738533Y-77306499D01*
X74738533Y-77331003D01*
X74743314Y-77355036D01*
X74752690Y-77377673D01*
X74760049Y-77391441D01*
X74762177Y-77398455D01*
X74763500Y-77411890D01*
X74763500Y-77725610D01*
X74762177Y-77739045D01*
X74760049Y-77746060D01*
X74756592Y-77752526D01*
X74751942Y-77758192D01*
X74746276Y-77762842D01*
X74739810Y-77766299D01*
X74732795Y-77768427D01*
X74719360Y-77769750D01*
X73155640Y-77769750D01*
X73142205Y-77768427D01*
X73135190Y-77766299D01*
X73128724Y-77762842D01*
X73123058Y-77758192D01*
X73118408Y-77752526D01*
X73114951Y-77746060D01*
X73112823Y-77739045D01*
X73111500Y-77725610D01*
X73111500Y-77411890D01*
X73112823Y-77398455D01*
X73114951Y-77391441D01*
X73122310Y-77377673D01*
X73131687Y-77355034D01*
X73136467Y-77331001D01*
X73136467Y-77306497D01*
X73131686Y-77282464D01*
X73122310Y-77259827D01*
X73114951Y-77246059D01*
X73112823Y-77239045D01*
X73111500Y-77225610D01*
X73111500Y-76911890D01*
X73112823Y-76898455D01*
X73114951Y-76891441D01*
X73122310Y-76877673D01*
X73131687Y-76855034D01*
X73136467Y-76831001D01*
X73136467Y-76806497D01*
X73131686Y-76782464D01*
X73122310Y-76759827D01*
X73114951Y-76746059D01*
X73112823Y-76739045D01*
X73111500Y-76725610D01*
X73111500Y-76411890D01*
X73112823Y-76398455D01*
X73114951Y-76391441D01*
X73122310Y-76377673D01*
X73131687Y-76355034D01*
X73136467Y-76331001D01*
X73136467Y-76306497D01*
X73131686Y-76282464D01*
X73122310Y-76259827D01*
X73114951Y-76246059D01*
X73112823Y-76239045D01*
X73111500Y-76225610D01*
X73111500Y-75911890D01*
X73112823Y-75898455D01*
X73114951Y-75891441D01*
X73122310Y-75877673D01*
X73131687Y-75855034D01*
X73136467Y-75831001D01*
X73136467Y-75806497D01*
X73131686Y-75782464D01*
X73122310Y-75759827D01*
X73114951Y-75746059D01*
X73112823Y-75739045D01*
X73111500Y-75725610D01*
X73111500Y-75411890D01*
X73112823Y-75398455D01*
X73114951Y-75391441D01*
X73122310Y-75377673D01*
X73131687Y-75355034D01*
X73136467Y-75331001D01*
X73136467Y-75306497D01*
X73131686Y-75282464D01*
X73122310Y-75259827D01*
X73114951Y-75246059D01*
X73112823Y-75239045D01*
X73111500Y-75225610D01*
X73111500Y-74911890D01*
X73112823Y-74898455D01*
X73114951Y-74891441D01*
X73122310Y-74877673D01*
X73131687Y-74855034D01*
X73136467Y-74831001D01*
X73136467Y-74806497D01*
X73131686Y-74782464D01*
X73122310Y-74759827D01*
X73114951Y-74746059D01*
X73112823Y-74739045D01*
X73111500Y-74725610D01*
X73111500Y-74411890D01*
X73112823Y-74398455D01*
X73114951Y-74391441D01*
X73122310Y-74377673D01*
X73131687Y-74355034D01*
X73136467Y-74331001D01*
X73136467Y-74306497D01*
X73131686Y-74282464D01*
X73122310Y-74259827D01*
X73114951Y-74246059D01*
X73112823Y-74239045D01*
X73111500Y-74225610D01*
X73111500Y-73911890D01*
X73112823Y-73898455D01*
X73114951Y-73891441D01*
X73122310Y-73877673D01*
X73131687Y-73855034D01*
X73136467Y-73831001D01*
X73136467Y-73806497D01*
X73131686Y-73782464D01*
X73122310Y-73759827D01*
X73114951Y-73746059D01*
X73112823Y-73739045D01*
X73111500Y-73725610D01*
X73111500Y-73411890D01*
X73112823Y-73398455D01*
X73114951Y-73391441D01*
X73122310Y-73377673D01*
X73131687Y-73355034D01*
X73136467Y-73331001D01*
X73136467Y-73306497D01*
X73131686Y-73282464D01*
X73122310Y-73259827D01*
X73114951Y-73246059D01*
X73112823Y-73239045D01*
X73111500Y-73225610D01*
X73111500Y-72911890D01*
X73112823Y-72898455D01*
X73114951Y-72891441D01*
X73122310Y-72877673D01*
X73131687Y-72855034D01*
X73136467Y-72831001D01*
X73136467Y-72806497D01*
X73131686Y-72782464D01*
X73122310Y-72759827D01*
X73114951Y-72746059D01*
X73112823Y-72739045D01*
X73111500Y-72725610D01*
X73111500Y-72411890D01*
X73112823Y-72398455D01*
X73114951Y-72391441D01*
X73122310Y-72377673D01*
X73131687Y-72355034D01*
X73136467Y-72331001D01*
X73136467Y-72306497D01*
X73131686Y-72282464D01*
X73122310Y-72259827D01*
X73114951Y-72246059D01*
X73112823Y-72239045D01*
X73111500Y-72225610D01*
X73111500Y-71911890D01*
X73112823Y-71898455D01*
X73114951Y-71891441D01*
X73122310Y-71877673D01*
X73131687Y-71855034D01*
X73136467Y-71831001D01*
X73136467Y-71806497D01*
X73131686Y-71782464D01*
X73122310Y-71759827D01*
X73114951Y-71746059D01*
X73112823Y-71739045D01*
X73111500Y-71725610D01*
X73111500Y-71411890D01*
X73112823Y-71398455D01*
X73114951Y-71391441D01*
X73122310Y-71377673D01*
X73131687Y-71355034D01*
X73136467Y-71331001D01*
X73136467Y-71306497D01*
X73131686Y-71282464D01*
X73122310Y-71259827D01*
X73114951Y-71246059D01*
X73112823Y-71239045D01*
X73111500Y-71225610D01*
X73111500Y-70911890D01*
X73112823Y-70898455D01*
X73114951Y-70891441D01*
X73122310Y-70877673D01*
X73131687Y-70855034D01*
X73136467Y-70831001D01*
X73136467Y-70806497D01*
X73131686Y-70782464D01*
X73122310Y-70759827D01*
X73114951Y-70746059D01*
X73112823Y-70739045D01*
X73111500Y-70725610D01*
X73111500Y-70411890D01*
X73112823Y-70398455D01*
X73114951Y-70391441D01*
X73122310Y-70377673D01*
X73131687Y-70355034D01*
X73136467Y-70331001D01*
X73136467Y-70306497D01*
X73131686Y-70282464D01*
X73122310Y-70259827D01*
X73114951Y-70246059D01*
X73112823Y-70239045D01*
X73111500Y-70225610D01*
X73111500Y-69911890D01*
X73112823Y-69898455D01*
X73114951Y-69891440D01*
X73118408Y-69884974D01*
X73123058Y-69879308D01*
X73128724Y-69874658D01*
X73135190Y-69871201D01*
X73142205Y-69869073D01*
X73155640Y-69867750D01*
X74719360Y-69867750D01*
X74732795Y-69869073D01*
X74732795Y-69869073D01*
G37*
G36*
X118833474Y-70677684D02*
G01*
X119014851Y-70752813D01*
X119205623Y-70831833D01*
X119540548Y-71055623D01*
X119825377Y-71340452D01*
X120049167Y-71675377D01*
X120103478Y-71806497D01*
X120203316Y-72047526D01*
X120281900Y-72442594D01*
X120281900Y-72845406D01*
X120203316Y-73240474D01*
X120124899Y-73429790D01*
X120049167Y-73612623D01*
X119825377Y-73947548D01*
X119540548Y-74232377D01*
X119205623Y-74456167D01*
X119051474Y-74520017D01*
X118833474Y-74610316D01*
X118438406Y-74688900D01*
X118035594Y-74688900D01*
X117640526Y-74610316D01*
X117422526Y-74520017D01*
X117268377Y-74456167D01*
X116933452Y-74232377D01*
X116648623Y-73947548D01*
X116424833Y-73612623D01*
X116349101Y-73429790D01*
X116270684Y-73240474D01*
X116192100Y-72845406D01*
X116192100Y-72442594D01*
X116270684Y-72047526D01*
X116370522Y-71806497D01*
X116424833Y-71675377D01*
X116648623Y-71340452D01*
X116933452Y-71055623D01*
X117268377Y-70831833D01*
X117459149Y-70752813D01*
X117640526Y-70677684D01*
X118035594Y-70599100D01*
X118438406Y-70599100D01*
X118833474Y-70677684D01*
X118833474Y-70677684D01*
G37*
G36*
X99524474Y-70673684D02*
G01*
X99699202Y-70746059D01*
X99896623Y-70827833D01*
X100231548Y-71051623D01*
X100516377Y-71336452D01*
X100740167Y-71671377D01*
X100786181Y-71782466D01*
X100894316Y-72043526D01*
X100972900Y-72438594D01*
X100972900Y-72841406D01*
X100894316Y-73236474D01*
X100839140Y-73369681D01*
X100740167Y-73608623D01*
X100516377Y-73943548D01*
X100231548Y-74228377D01*
X99896623Y-74452167D01*
X99742474Y-74516017D01*
X99524474Y-74606316D01*
X99129406Y-74684900D01*
X98726594Y-74684900D01*
X98331526Y-74606316D01*
X98113526Y-74516017D01*
X97959377Y-74452167D01*
X97624452Y-74228377D01*
X97339623Y-73943548D01*
X97115833Y-73608623D01*
X97016860Y-73369681D01*
X96961684Y-73236474D01*
X96883100Y-72841406D01*
X96883100Y-72438594D01*
X96961684Y-72043526D01*
X97069819Y-71782466D01*
X97115833Y-71671377D01*
X97339623Y-71336452D01*
X97624452Y-71051623D01*
X97959377Y-70827833D01*
X98156798Y-70746059D01*
X98331526Y-70673684D01*
X98726594Y-70595100D01*
X99129406Y-70595100D01*
X99524474Y-70673684D01*
X99524474Y-70673684D01*
G37*
G36*
X123587104Y-71753585D02*
G01*
X123755626Y-71823389D01*
X123907291Y-71924728D01*
X124036272Y-72053709D01*
X124137611Y-72205374D01*
X124207415Y-72373896D01*
X124243000Y-72552797D01*
X124243000Y-72735203D01*
X124207415Y-72914104D01*
X124137611Y-73082626D01*
X124036272Y-73234291D01*
X123907291Y-73363272D01*
X123755626Y-73464611D01*
X123587104Y-73534415D01*
X123408203Y-73570000D01*
X123225797Y-73570000D01*
X123046896Y-73534415D01*
X122878374Y-73464611D01*
X122726709Y-73363272D01*
X122597728Y-73234291D01*
X122496389Y-73082626D01*
X122426585Y-72914104D01*
X122391000Y-72735203D01*
X122391000Y-72552797D01*
X122426585Y-72373896D01*
X122496389Y-72205374D01*
X122597728Y-72053709D01*
X122726709Y-71924728D01*
X122878374Y-71823389D01*
X123046896Y-71753585D01*
X123225797Y-71718000D01*
X123408203Y-71718000D01*
X123587104Y-71753585D01*
X123587104Y-71753585D01*
G37*
G36*
X113427104Y-71753585D02*
G01*
X113595626Y-71823389D01*
X113747291Y-71924728D01*
X113876272Y-72053709D01*
X113977611Y-72205374D01*
X114047415Y-72373896D01*
X114083000Y-72552797D01*
X114083000Y-72735203D01*
X114047415Y-72914104D01*
X113977611Y-73082626D01*
X113876272Y-73234291D01*
X113747291Y-73363272D01*
X113595626Y-73464611D01*
X113427104Y-73534415D01*
X113248203Y-73570000D01*
X113065797Y-73570000D01*
X112886896Y-73534415D01*
X112718374Y-73464611D01*
X112566709Y-73363272D01*
X112437728Y-73234291D01*
X112336389Y-73082626D01*
X112266585Y-72914104D01*
X112231000Y-72735203D01*
X112231000Y-72552797D01*
X112266585Y-72373896D01*
X112336389Y-72205374D01*
X112437728Y-72053709D01*
X112566709Y-71924728D01*
X112718374Y-71823389D01*
X112886896Y-71753585D01*
X113065797Y-71718000D01*
X113248203Y-71718000D01*
X113427104Y-71753585D01*
X113427104Y-71753585D01*
G37*
G36*
X104278104Y-71749585D02*
G01*
X104446626Y-71819389D01*
X104598291Y-71920728D01*
X104727272Y-72049709D01*
X104828611Y-72201374D01*
X104898415Y-72369896D01*
X104934000Y-72548797D01*
X104934000Y-72731203D01*
X104898415Y-72910104D01*
X104828611Y-73078626D01*
X104727272Y-73230291D01*
X104598291Y-73359272D01*
X104446626Y-73460611D01*
X104278104Y-73530415D01*
X104099203Y-73566000D01*
X103916797Y-73566000D01*
X103737896Y-73530415D01*
X103569374Y-73460611D01*
X103417709Y-73359272D01*
X103288728Y-73230291D01*
X103187389Y-73078626D01*
X103117585Y-72910104D01*
X103082000Y-72731203D01*
X103082000Y-72548797D01*
X103117585Y-72369896D01*
X103187389Y-72201374D01*
X103288728Y-72049709D01*
X103417709Y-71920728D01*
X103569374Y-71819389D01*
X103737896Y-71749585D01*
X103916797Y-71714000D01*
X104099203Y-71714000D01*
X104278104Y-71749585D01*
X104278104Y-71749585D01*
G37*
G36*
X94118104Y-71749585D02*
G01*
X94286626Y-71819389D01*
X94438291Y-71920728D01*
X94567272Y-72049709D01*
X94668611Y-72201374D01*
X94738415Y-72369896D01*
X94774000Y-72548797D01*
X94774000Y-72731203D01*
X94738415Y-72910104D01*
X94668611Y-73078626D01*
X94567272Y-73230291D01*
X94438291Y-73359272D01*
X94286626Y-73460611D01*
X94118104Y-73530415D01*
X93939203Y-73566000D01*
X93756797Y-73566000D01*
X93577896Y-73530415D01*
X93409374Y-73460611D01*
X93257709Y-73359272D01*
X93128728Y-73230291D01*
X93027389Y-73078626D01*
X92957585Y-72910104D01*
X92922000Y-72731203D01*
X92922000Y-72548797D01*
X92957585Y-72369896D01*
X93027389Y-72201374D01*
X93128728Y-72049709D01*
X93257709Y-71920728D01*
X93409374Y-71819389D01*
X93577896Y-71749585D01*
X93756797Y-71714000D01*
X93939203Y-71714000D01*
X94118104Y-71749585D01*
X94118104Y-71749585D01*
G37*
G36*
X64682795Y-67319073D02*
G01*
X64689809Y-67321201D01*
X64703577Y-67328560D01*
X64726216Y-67337937D01*
X64750249Y-67342717D01*
X64774753Y-67342717D01*
X64798786Y-67337936D01*
X64821423Y-67328560D01*
X64835191Y-67321201D01*
X64842205Y-67319073D01*
X64855640Y-67317750D01*
X65169360Y-67317750D01*
X65182795Y-67319073D01*
X65189809Y-67321201D01*
X65203577Y-67328560D01*
X65226216Y-67337937D01*
X65250249Y-67342717D01*
X65274753Y-67342717D01*
X65298786Y-67337936D01*
X65321423Y-67328560D01*
X65335191Y-67321201D01*
X65342205Y-67319073D01*
X65355640Y-67317750D01*
X65669360Y-67317750D01*
X65682795Y-67319073D01*
X65689809Y-67321201D01*
X65703577Y-67328560D01*
X65726216Y-67337937D01*
X65750249Y-67342717D01*
X65774753Y-67342717D01*
X65798786Y-67337936D01*
X65821423Y-67328560D01*
X65835191Y-67321201D01*
X65842205Y-67319073D01*
X65855640Y-67317750D01*
X66169360Y-67317750D01*
X66182795Y-67319073D01*
X66189809Y-67321201D01*
X66203577Y-67328560D01*
X66226216Y-67337937D01*
X66250249Y-67342717D01*
X66274753Y-67342717D01*
X66298786Y-67337936D01*
X66321423Y-67328560D01*
X66335191Y-67321201D01*
X66342205Y-67319073D01*
X66355640Y-67317750D01*
X66669360Y-67317750D01*
X66682795Y-67319073D01*
X66689809Y-67321201D01*
X66703577Y-67328560D01*
X66726216Y-67337937D01*
X66750249Y-67342717D01*
X66774753Y-67342717D01*
X66798786Y-67337936D01*
X66821423Y-67328560D01*
X66835191Y-67321201D01*
X66842205Y-67319073D01*
X66855640Y-67317750D01*
X67169360Y-67317750D01*
X67182795Y-67319073D01*
X67189809Y-67321201D01*
X67203577Y-67328560D01*
X67226216Y-67337937D01*
X67250249Y-67342717D01*
X67274753Y-67342717D01*
X67298786Y-67337936D01*
X67321423Y-67328560D01*
X67335191Y-67321201D01*
X67342205Y-67319073D01*
X67355640Y-67317750D01*
X67669360Y-67317750D01*
X67682795Y-67319073D01*
X67689809Y-67321201D01*
X67703577Y-67328560D01*
X67726216Y-67337937D01*
X67750249Y-67342717D01*
X67774753Y-67342717D01*
X67798786Y-67337936D01*
X67821423Y-67328560D01*
X67835191Y-67321201D01*
X67842205Y-67319073D01*
X67855640Y-67317750D01*
X68169360Y-67317750D01*
X68182795Y-67319073D01*
X68189809Y-67321201D01*
X68203577Y-67328560D01*
X68226216Y-67337937D01*
X68250249Y-67342717D01*
X68274753Y-67342717D01*
X68298786Y-67337936D01*
X68321423Y-67328560D01*
X68335191Y-67321201D01*
X68342205Y-67319073D01*
X68355640Y-67317750D01*
X68669360Y-67317750D01*
X68682795Y-67319073D01*
X68689809Y-67321201D01*
X68703577Y-67328560D01*
X68726216Y-67337937D01*
X68750249Y-67342717D01*
X68774753Y-67342717D01*
X68798786Y-67337936D01*
X68821423Y-67328560D01*
X68835191Y-67321201D01*
X68842205Y-67319073D01*
X68855640Y-67317750D01*
X69169360Y-67317750D01*
X69182795Y-67319073D01*
X69189809Y-67321201D01*
X69203577Y-67328560D01*
X69226216Y-67337937D01*
X69250249Y-67342717D01*
X69274753Y-67342717D01*
X69298786Y-67337936D01*
X69321423Y-67328560D01*
X69335191Y-67321201D01*
X69342205Y-67319073D01*
X69355640Y-67317750D01*
X69669360Y-67317750D01*
X69682795Y-67319073D01*
X69689809Y-67321201D01*
X69703577Y-67328560D01*
X69726216Y-67337937D01*
X69750249Y-67342717D01*
X69774753Y-67342717D01*
X69798786Y-67337936D01*
X69821423Y-67328560D01*
X69835191Y-67321201D01*
X69842205Y-67319073D01*
X69855640Y-67317750D01*
X70169360Y-67317750D01*
X70182795Y-67319073D01*
X70189809Y-67321201D01*
X70203577Y-67328560D01*
X70226216Y-67337937D01*
X70250249Y-67342717D01*
X70274753Y-67342717D01*
X70298786Y-67337936D01*
X70321423Y-67328560D01*
X70335191Y-67321201D01*
X70342205Y-67319073D01*
X70355640Y-67317750D01*
X70669360Y-67317750D01*
X70682795Y-67319073D01*
X70689809Y-67321201D01*
X70703577Y-67328560D01*
X70726216Y-67337937D01*
X70750249Y-67342717D01*
X70774753Y-67342717D01*
X70798786Y-67337936D01*
X70821423Y-67328560D01*
X70835191Y-67321201D01*
X70842205Y-67319073D01*
X70855640Y-67317750D01*
X71169360Y-67317750D01*
X71182795Y-67319073D01*
X71189809Y-67321201D01*
X71203577Y-67328560D01*
X71226216Y-67337937D01*
X71250249Y-67342717D01*
X71274753Y-67342717D01*
X71298786Y-67337936D01*
X71321423Y-67328560D01*
X71335191Y-67321201D01*
X71342205Y-67319073D01*
X71355640Y-67317750D01*
X71669360Y-67317750D01*
X71682795Y-67319073D01*
X71689809Y-67321201D01*
X71703577Y-67328560D01*
X71726216Y-67337937D01*
X71750249Y-67342717D01*
X71774753Y-67342717D01*
X71798786Y-67337936D01*
X71821423Y-67328560D01*
X71835191Y-67321201D01*
X71842205Y-67319073D01*
X71855640Y-67317750D01*
X72169360Y-67317750D01*
X72182795Y-67319073D01*
X72189810Y-67321201D01*
X72196276Y-67324658D01*
X72201942Y-67329308D01*
X72206592Y-67334974D01*
X72210049Y-67341440D01*
X72212177Y-67348455D01*
X72213500Y-67361890D01*
X72213500Y-68925610D01*
X72212177Y-68939045D01*
X72210049Y-68946060D01*
X72206592Y-68952526D01*
X72201942Y-68958192D01*
X72196276Y-68962842D01*
X72189810Y-68966299D01*
X72182795Y-68968427D01*
X72169360Y-68969750D01*
X71855640Y-68969750D01*
X71842205Y-68968427D01*
X71835191Y-68966299D01*
X71821423Y-68958940D01*
X71798784Y-68949563D01*
X71774751Y-68944783D01*
X71750247Y-68944783D01*
X71726214Y-68949564D01*
X71703577Y-68958940D01*
X71689809Y-68966299D01*
X71682795Y-68968427D01*
X71669360Y-68969750D01*
X71355640Y-68969750D01*
X71342205Y-68968427D01*
X71335191Y-68966299D01*
X71321423Y-68958940D01*
X71298784Y-68949563D01*
X71274751Y-68944783D01*
X71250247Y-68944783D01*
X71226214Y-68949564D01*
X71203577Y-68958940D01*
X71189809Y-68966299D01*
X71182795Y-68968427D01*
X71169360Y-68969750D01*
X70855640Y-68969750D01*
X70842205Y-68968427D01*
X70835191Y-68966299D01*
X70821423Y-68958940D01*
X70798784Y-68949563D01*
X70774751Y-68944783D01*
X70750247Y-68944783D01*
X70726214Y-68949564D01*
X70703577Y-68958940D01*
X70689809Y-68966299D01*
X70682795Y-68968427D01*
X70669360Y-68969750D01*
X70355640Y-68969750D01*
X70342205Y-68968427D01*
X70335191Y-68966299D01*
X70321423Y-68958940D01*
X70298784Y-68949563D01*
X70274751Y-68944783D01*
X70250247Y-68944783D01*
X70226214Y-68949564D01*
X70203577Y-68958940D01*
X70189809Y-68966299D01*
X70182795Y-68968427D01*
X70169360Y-68969750D01*
X69855640Y-68969750D01*
X69842205Y-68968427D01*
X69835191Y-68966299D01*
X69821423Y-68958940D01*
X69798784Y-68949563D01*
X69774751Y-68944783D01*
X69750247Y-68944783D01*
X69726214Y-68949564D01*
X69703577Y-68958940D01*
X69689809Y-68966299D01*
X69682795Y-68968427D01*
X69669360Y-68969750D01*
X69355640Y-68969750D01*
X69342205Y-68968427D01*
X69335191Y-68966299D01*
X69321423Y-68958940D01*
X69298784Y-68949563D01*
X69274751Y-68944783D01*
X69250247Y-68944783D01*
X69226214Y-68949564D01*
X69203577Y-68958940D01*
X69189809Y-68966299D01*
X69182795Y-68968427D01*
X69169360Y-68969750D01*
X68855640Y-68969750D01*
X68842205Y-68968427D01*
X68835191Y-68966299D01*
X68821423Y-68958940D01*
X68798784Y-68949563D01*
X68774751Y-68944783D01*
X68750247Y-68944783D01*
X68726214Y-68949564D01*
X68703577Y-68958940D01*
X68689809Y-68966299D01*
X68682795Y-68968427D01*
X68669360Y-68969750D01*
X68355640Y-68969750D01*
X68342205Y-68968427D01*
X68335191Y-68966299D01*
X68321423Y-68958940D01*
X68298784Y-68949563D01*
X68274751Y-68944783D01*
X68250247Y-68944783D01*
X68226214Y-68949564D01*
X68203577Y-68958940D01*
X68189809Y-68966299D01*
X68182795Y-68968427D01*
X68169360Y-68969750D01*
X67855640Y-68969750D01*
X67842205Y-68968427D01*
X67835191Y-68966299D01*
X67821423Y-68958940D01*
X67798784Y-68949563D01*
X67774751Y-68944783D01*
X67750247Y-68944783D01*
X67726214Y-68949564D01*
X67703577Y-68958940D01*
X67689809Y-68966299D01*
X67682795Y-68968427D01*
X67669360Y-68969750D01*
X67355640Y-68969750D01*
X67342205Y-68968427D01*
X67335191Y-68966299D01*
X67321423Y-68958940D01*
X67298784Y-68949563D01*
X67274751Y-68944783D01*
X67250247Y-68944783D01*
X67226214Y-68949564D01*
X67203577Y-68958940D01*
X67189809Y-68966299D01*
X67182795Y-68968427D01*
X67169360Y-68969750D01*
X66855640Y-68969750D01*
X66842205Y-68968427D01*
X66835191Y-68966299D01*
X66821423Y-68958940D01*
X66798784Y-68949563D01*
X66774751Y-68944783D01*
X66750247Y-68944783D01*
X66726214Y-68949564D01*
X66703577Y-68958940D01*
X66689809Y-68966299D01*
X66682795Y-68968427D01*
X66669360Y-68969750D01*
X66355640Y-68969750D01*
X66342205Y-68968427D01*
X66335191Y-68966299D01*
X66321423Y-68958940D01*
X66298784Y-68949563D01*
X66274751Y-68944783D01*
X66250247Y-68944783D01*
X66226214Y-68949564D01*
X66203577Y-68958940D01*
X66189809Y-68966299D01*
X66182795Y-68968427D01*
X66169360Y-68969750D01*
X65855640Y-68969750D01*
X65842205Y-68968427D01*
X65835191Y-68966299D01*
X65821423Y-68958940D01*
X65798784Y-68949563D01*
X65774751Y-68944783D01*
X65750247Y-68944783D01*
X65726214Y-68949564D01*
X65703577Y-68958940D01*
X65689809Y-68966299D01*
X65682795Y-68968427D01*
X65669360Y-68969750D01*
X65355640Y-68969750D01*
X65342205Y-68968427D01*
X65335191Y-68966299D01*
X65321423Y-68958940D01*
X65298784Y-68949563D01*
X65274751Y-68944783D01*
X65250247Y-68944783D01*
X65226214Y-68949564D01*
X65203577Y-68958940D01*
X65189809Y-68966299D01*
X65182795Y-68968427D01*
X65169360Y-68969750D01*
X64855640Y-68969750D01*
X64842205Y-68968427D01*
X64835191Y-68966299D01*
X64821423Y-68958940D01*
X64798784Y-68949563D01*
X64774751Y-68944783D01*
X64750247Y-68944783D01*
X64726214Y-68949564D01*
X64703577Y-68958940D01*
X64689809Y-68966299D01*
X64682795Y-68968427D01*
X64669360Y-68969750D01*
X64355640Y-68969750D01*
X64342205Y-68968427D01*
X64335190Y-68966299D01*
X64328724Y-68962842D01*
X64323058Y-68958192D01*
X64318408Y-68952526D01*
X64314951Y-68946060D01*
X64312823Y-68939045D01*
X64311500Y-68925610D01*
X64311500Y-67361890D01*
X64312823Y-67348455D01*
X64314951Y-67341440D01*
X64318408Y-67334974D01*
X64323058Y-67329308D01*
X64328724Y-67324658D01*
X64335190Y-67321201D01*
X64342205Y-67319073D01*
X64355640Y-67317750D01*
X64669360Y-67317750D01*
X64682795Y-67319073D01*
X64682795Y-67319073D01*
G37*
G36*
X120510500Y-68567500D02*
G01*
X118503500Y-68567500D01*
X118503500Y-66560500D01*
X120510500Y-66560500D01*
X120510500Y-68567500D01*
X120510500Y-68567500D01*
G37*
G36*
X117093425Y-66565988D02*
G01*
X117259710Y-66599063D01*
X117442336Y-66674709D01*
X117606694Y-66784530D01*
X117746470Y-66924306D01*
X117856291Y-67088664D01*
X117931937Y-67271290D01*
X117950062Y-67362415D01*
X117969705Y-67461164D01*
X117970500Y-67465164D01*
X117970500Y-67662836D01*
X117931937Y-67856710D01*
X117856291Y-68039336D01*
X117746470Y-68203694D01*
X117606694Y-68343470D01*
X117442336Y-68453291D01*
X117259710Y-68528937D01*
X117093425Y-68562012D01*
X117065837Y-68567500D01*
X116868163Y-68567500D01*
X116840575Y-68562012D01*
X116674290Y-68528937D01*
X116491664Y-68453291D01*
X116327306Y-68343470D01*
X116187530Y-68203694D01*
X116077709Y-68039336D01*
X116002063Y-67856710D01*
X115963500Y-67662836D01*
X115963500Y-67465164D01*
X115964296Y-67461164D01*
X115983938Y-67362415D01*
X116002063Y-67271290D01*
X116077709Y-67088664D01*
X116187530Y-66924306D01*
X116327306Y-66784530D01*
X116491664Y-66674709D01*
X116674290Y-66599063D01*
X116840575Y-66565988D01*
X116868163Y-66560500D01*
X117065837Y-66560500D01*
X117093425Y-66565988D01*
X117093425Y-66565988D01*
G37*
G36*
X101201500Y-68563500D02*
G01*
X99194500Y-68563500D01*
X99194500Y-66556500D01*
X101201500Y-66556500D01*
X101201500Y-68563500D01*
X101201500Y-68563500D01*
G37*
G36*
X97769078Y-66558935D02*
G01*
X97950710Y-66595063D01*
X98133336Y-66670709D01*
X98297694Y-66780530D01*
X98437470Y-66920306D01*
X98547291Y-67084664D01*
X98622937Y-67267290D01*
X98641858Y-67362415D01*
X98661500Y-67461163D01*
X98661500Y-67658837D01*
X98660704Y-67662837D01*
X98622937Y-67852710D01*
X98547291Y-68035336D01*
X98437470Y-68199694D01*
X98297694Y-68339470D01*
X98133336Y-68449291D01*
X97950710Y-68524937D01*
X97784425Y-68558012D01*
X97756837Y-68563500D01*
X97559163Y-68563500D01*
X97531575Y-68558012D01*
X97365290Y-68524937D01*
X97182664Y-68449291D01*
X97018306Y-68339470D01*
X96878530Y-68199694D01*
X96768709Y-68035336D01*
X96693063Y-67852710D01*
X96655296Y-67662837D01*
X96654500Y-67658837D01*
X96654500Y-67461163D01*
X96674142Y-67362415D01*
X96693063Y-67267290D01*
X96768709Y-67084664D01*
X96878530Y-66920306D01*
X97018306Y-66780530D01*
X97182664Y-66670709D01*
X97365290Y-66595063D01*
X97546922Y-66558935D01*
X97559163Y-66556500D01*
X97756837Y-66556500D01*
X97769078Y-66558935D01*
X97769078Y-66558935D01*
G37*
G36*
X79959468Y-65491065D02*
G01*
X79998138Y-65502796D01*
X80033777Y-65521846D01*
X80065017Y-65547483D01*
X80090654Y-65578723D01*
X80109704Y-65614362D01*
X80121435Y-65653032D01*
X80126000Y-65699388D01*
X80126000Y-66350612D01*
X80121435Y-66396968D01*
X80109704Y-66435638D01*
X80090654Y-66471277D01*
X80065017Y-66502517D01*
X80033777Y-66528154D01*
X79998138Y-66547204D01*
X79959468Y-66558935D01*
X79913112Y-66563500D01*
X78836888Y-66563500D01*
X78790532Y-66558935D01*
X78751862Y-66547204D01*
X78716223Y-66528154D01*
X78684983Y-66502517D01*
X78659346Y-66471277D01*
X78640296Y-66435638D01*
X78628565Y-66396968D01*
X78624000Y-66350612D01*
X78624000Y-65699388D01*
X78628565Y-65653032D01*
X78640296Y-65614362D01*
X78659346Y-65578723D01*
X78684983Y-65547483D01*
X78716223Y-65521846D01*
X78751862Y-65502796D01*
X78790532Y-65491065D01*
X78836888Y-65486500D01*
X79913112Y-65486500D01*
X79959468Y-65491065D01*
X79959468Y-65491065D01*
G37*
G36*
X79959468Y-63616065D02*
G01*
X79998138Y-63627796D01*
X80033777Y-63646846D01*
X80065017Y-63672483D01*
X80090654Y-63703723D01*
X80109704Y-63739362D01*
X80121435Y-63778032D01*
X80126000Y-63824388D01*
X80126000Y-64475612D01*
X80121435Y-64521968D01*
X80109704Y-64560638D01*
X80090654Y-64596277D01*
X80065017Y-64627517D01*
X80033777Y-64653154D01*
X79998138Y-64672204D01*
X79959468Y-64683935D01*
X79913112Y-64688500D01*
X78836888Y-64688500D01*
X78790532Y-64683935D01*
X78751862Y-64672204D01*
X78716223Y-64653154D01*
X78684983Y-64627517D01*
X78659346Y-64596277D01*
X78640296Y-64560638D01*
X78628565Y-64521968D01*
X78624000Y-64475612D01*
X78624000Y-63824388D01*
X78628565Y-63778032D01*
X78640296Y-63739362D01*
X78659346Y-63703723D01*
X78684983Y-63672483D01*
X78716223Y-63646846D01*
X78751862Y-63627796D01*
X78790532Y-63616065D01*
X78836888Y-63611500D01*
X79913112Y-63611500D01*
X79959468Y-63616065D01*
X79959468Y-63616065D01*
G37*
G36*
X73635968Y-63166315D02*
G01*
X73674638Y-63178046D01*
X73710277Y-63197096D01*
X73741517Y-63222733D01*
X73767154Y-63253973D01*
X73786204Y-63289612D01*
X73797935Y-63328282D01*
X73802500Y-63374638D01*
X73802500Y-64450862D01*
X73797935Y-64497218D01*
X73786204Y-64535888D01*
X73767154Y-64571527D01*
X73741517Y-64602767D01*
X73710277Y-64628404D01*
X73674638Y-64647454D01*
X73635968Y-64659185D01*
X73589612Y-64663750D01*
X72938388Y-64663750D01*
X72892032Y-64659185D01*
X72853362Y-64647454D01*
X72817723Y-64628404D01*
X72786483Y-64602767D01*
X72760846Y-64571527D01*
X72741796Y-64535888D01*
X72730065Y-64497218D01*
X72725500Y-64450862D01*
X72725500Y-63374638D01*
X72730065Y-63328282D01*
X72741796Y-63289612D01*
X72760846Y-63253973D01*
X72786483Y-63222733D01*
X72817723Y-63197096D01*
X72853362Y-63178046D01*
X72892032Y-63166315D01*
X72938388Y-63161750D01*
X73589612Y-63161750D01*
X73635968Y-63166315D01*
X73635968Y-63166315D01*
G37*
G36*
X71760968Y-63166315D02*
G01*
X71799638Y-63178046D01*
X71835277Y-63197096D01*
X71866517Y-63222733D01*
X71892154Y-63253973D01*
X71911204Y-63289612D01*
X71922935Y-63328282D01*
X71927500Y-63374638D01*
X71927500Y-64450862D01*
X71922935Y-64497218D01*
X71911204Y-64535888D01*
X71892154Y-64571527D01*
X71866517Y-64602767D01*
X71835277Y-64628404D01*
X71799638Y-64647454D01*
X71760968Y-64659185D01*
X71714612Y-64663750D01*
X71063388Y-64663750D01*
X71017032Y-64659185D01*
X70978362Y-64647454D01*
X70942723Y-64628404D01*
X70911483Y-64602767D01*
X70885846Y-64571527D01*
X70866796Y-64535888D01*
X70855065Y-64497218D01*
X70850500Y-64450862D01*
X70850500Y-63374638D01*
X70855065Y-63328282D01*
X70866796Y-63289612D01*
X70885846Y-63253973D01*
X70911483Y-63222733D01*
X70942723Y-63197096D01*
X70978362Y-63178046D01*
X71017032Y-63166315D01*
X71063388Y-63161750D01*
X71714612Y-63161750D01*
X71760968Y-63166315D01*
X71760968Y-63166315D01*
G37*
G36*
X65171968Y-62499565D02*
G01*
X65210638Y-62511296D01*
X65246277Y-62530346D01*
X65277517Y-62555983D01*
X65303154Y-62587223D01*
X65322204Y-62622862D01*
X65333935Y-62661532D01*
X65338500Y-62707888D01*
X65338500Y-63784112D01*
X65333935Y-63830468D01*
X65322204Y-63869138D01*
X65303154Y-63904777D01*
X65277517Y-63936017D01*
X65246277Y-63961654D01*
X65210638Y-63980704D01*
X65171968Y-63992435D01*
X65125612Y-63997000D01*
X64474388Y-63997000D01*
X64428032Y-63992435D01*
X64389362Y-63980704D01*
X64353723Y-63961654D01*
X64322483Y-63936017D01*
X64296846Y-63904777D01*
X64277796Y-63869138D01*
X64266065Y-63830468D01*
X64261500Y-63784112D01*
X64261500Y-62707888D01*
X64266065Y-62661532D01*
X64277796Y-62622862D01*
X64296846Y-62587223D01*
X64322483Y-62555983D01*
X64353723Y-62530346D01*
X64389362Y-62511296D01*
X64428032Y-62499565D01*
X64474388Y-62495000D01*
X65125612Y-62495000D01*
X65171968Y-62499565D01*
X65171968Y-62499565D01*
G37*
G36*
X67046968Y-62499565D02*
G01*
X67085638Y-62511296D01*
X67121277Y-62530346D01*
X67152517Y-62555983D01*
X67178154Y-62587223D01*
X67197204Y-62622862D01*
X67208935Y-62661532D01*
X67213500Y-62707888D01*
X67213500Y-63784112D01*
X67208935Y-63830468D01*
X67197204Y-63869138D01*
X67178154Y-63904777D01*
X67152517Y-63936017D01*
X67121277Y-63961654D01*
X67085638Y-63980704D01*
X67046968Y-63992435D01*
X67000612Y-63997000D01*
X66349388Y-63997000D01*
X66303032Y-63992435D01*
X66264362Y-63980704D01*
X66228723Y-63961654D01*
X66197483Y-63936017D01*
X66171846Y-63904777D01*
X66152796Y-63869138D01*
X66141065Y-63830468D01*
X66136500Y-63784112D01*
X66136500Y-62707888D01*
X66141065Y-62661532D01*
X66152796Y-62622862D01*
X66171846Y-62587223D01*
X66197483Y-62555983D01*
X66228723Y-62530346D01*
X66264362Y-62511296D01*
X66303032Y-62499565D01*
X66349388Y-62495000D01*
X67000612Y-62495000D01*
X67046968Y-62499565D01*
X67046968Y-62499565D01*
G37*
G36*
X73557468Y-61134315D02*
G01*
X73596138Y-61146046D01*
X73631777Y-61165096D01*
X73663017Y-61190733D01*
X73688654Y-61221973D01*
X73707704Y-61257612D01*
X73719435Y-61296282D01*
X73724000Y-61342638D01*
X73724000Y-62418862D01*
X73719435Y-62465218D01*
X73707704Y-62503888D01*
X73688654Y-62539527D01*
X73663017Y-62570767D01*
X73631777Y-62596404D01*
X73596138Y-62615454D01*
X73557468Y-62627185D01*
X73511112Y-62631750D01*
X72859888Y-62631750D01*
X72813532Y-62627185D01*
X72774862Y-62615454D01*
X72739223Y-62596404D01*
X72707983Y-62570767D01*
X72682346Y-62539527D01*
X72663296Y-62503888D01*
X72651565Y-62465218D01*
X72647000Y-62418862D01*
X72647000Y-61342638D01*
X72651565Y-61296282D01*
X72663296Y-61257612D01*
X72682346Y-61221973D01*
X72707983Y-61190733D01*
X72739223Y-61165096D01*
X72774862Y-61146046D01*
X72813532Y-61134315D01*
X72859888Y-61129750D01*
X73511112Y-61129750D01*
X73557468Y-61134315D01*
X73557468Y-61134315D01*
G37*
G36*
X71682468Y-61134315D02*
G01*
X71721138Y-61146046D01*
X71756777Y-61165096D01*
X71788017Y-61190733D01*
X71813654Y-61221973D01*
X71832704Y-61257612D01*
X71844435Y-61296282D01*
X71849000Y-61342638D01*
X71849000Y-62418862D01*
X71844435Y-62465218D01*
X71832704Y-62503888D01*
X71813654Y-62539527D01*
X71788017Y-62570767D01*
X71756777Y-62596404D01*
X71721138Y-62615454D01*
X71682468Y-62627185D01*
X71636112Y-62631750D01*
X70984888Y-62631750D01*
X70938532Y-62627185D01*
X70899862Y-62615454D01*
X70864223Y-62596404D01*
X70832983Y-62570767D01*
X70807346Y-62539527D01*
X70788296Y-62503888D01*
X70776565Y-62465218D01*
X70772000Y-62418862D01*
X70772000Y-61342638D01*
X70776565Y-61296282D01*
X70788296Y-61257612D01*
X70807346Y-61221973D01*
X70832983Y-61190733D01*
X70864223Y-61165096D01*
X70899862Y-61146046D01*
X70938532Y-61134315D01*
X70984888Y-61129750D01*
X71636112Y-61129750D01*
X71682468Y-61134315D01*
X71682468Y-61134315D01*
G37*
G36*
X48919853Y-59777968D02*
G01*
X48991627Y-59785037D01*
X49161466Y-59836557D01*
X49161468Y-59836558D01*
X49189871Y-59851740D01*
X49317991Y-59920222D01*
X49353729Y-59949552D01*
X49455186Y-60032814D01*
X49538448Y-60134271D01*
X49567778Y-60170009D01*
X49651443Y-60326534D01*
X49702963Y-60496373D01*
X49720359Y-60673000D01*
X49702963Y-60849627D01*
X49651443Y-61019466D01*
X49567778Y-61175991D01*
X49555679Y-61190733D01*
X49455186Y-61313186D01*
X49353729Y-61396448D01*
X49317991Y-61425778D01*
X49161466Y-61509443D01*
X48991627Y-61560963D01*
X48925442Y-61567482D01*
X48859260Y-61574000D01*
X47770740Y-61574000D01*
X47704558Y-61567482D01*
X47638373Y-61560963D01*
X47468534Y-61509443D01*
X47312009Y-61425778D01*
X47276271Y-61396448D01*
X47174814Y-61313186D01*
X47074321Y-61190733D01*
X47062222Y-61175991D01*
X46978557Y-61019466D01*
X46927037Y-60849627D01*
X46909641Y-60673000D01*
X46927037Y-60496373D01*
X46978557Y-60326534D01*
X47062222Y-60170009D01*
X47091552Y-60134271D01*
X47174814Y-60032814D01*
X47276271Y-59949552D01*
X47312009Y-59920222D01*
X47440129Y-59851740D01*
X47468532Y-59836558D01*
X47468534Y-59836557D01*
X47638373Y-59785037D01*
X47710147Y-59777968D01*
X47770740Y-59772000D01*
X48859260Y-59772000D01*
X48919853Y-59777968D01*
X48919853Y-59777968D01*
G37*
G36*
X44419853Y-59777968D02*
G01*
X44491627Y-59785037D01*
X44661466Y-59836557D01*
X44661468Y-59836558D01*
X44689871Y-59851740D01*
X44817991Y-59920222D01*
X44853729Y-59949552D01*
X44955186Y-60032814D01*
X45038448Y-60134271D01*
X45067778Y-60170009D01*
X45151443Y-60326534D01*
X45202963Y-60496373D01*
X45220359Y-60673000D01*
X45202963Y-60849627D01*
X45151443Y-61019466D01*
X45067778Y-61175991D01*
X45055679Y-61190733D01*
X44955186Y-61313186D01*
X44853729Y-61396448D01*
X44817991Y-61425778D01*
X44661466Y-61509443D01*
X44491627Y-61560963D01*
X44425442Y-61567482D01*
X44359260Y-61574000D01*
X43270740Y-61574000D01*
X43204558Y-61567482D01*
X43138373Y-61560963D01*
X42968534Y-61509443D01*
X42812009Y-61425778D01*
X42776271Y-61396448D01*
X42674814Y-61313186D01*
X42574321Y-61190733D01*
X42562222Y-61175991D01*
X42478557Y-61019466D01*
X42427037Y-60849627D01*
X42409641Y-60673000D01*
X42427037Y-60496373D01*
X42478557Y-60326534D01*
X42562222Y-60170009D01*
X42591552Y-60134271D01*
X42674814Y-60032814D01*
X42776271Y-59949552D01*
X42812009Y-59920222D01*
X42940129Y-59851740D01*
X42968532Y-59836558D01*
X42968534Y-59836557D01*
X43138373Y-59785037D01*
X43210147Y-59777968D01*
X43270740Y-59772000D01*
X44359260Y-59772000D01*
X44419853Y-59777968D01*
X44419853Y-59777968D01*
G37*
G36*
X59198000Y-60444000D02*
G01*
X57896000Y-60444000D01*
X57896000Y-59442000D01*
X59198000Y-59442000D01*
X59198000Y-60444000D01*
X59198000Y-60444000D01*
G37*
G36*
X62052468Y-58872065D02*
G01*
X62091138Y-58883796D01*
X62126777Y-58902846D01*
X62158017Y-58928483D01*
X62183654Y-58959723D01*
X62202704Y-58995362D01*
X62214435Y-59034032D01*
X62219000Y-59080388D01*
X62219000Y-59731612D01*
X62214435Y-59777968D01*
X62202704Y-59816638D01*
X62183654Y-59852277D01*
X62158017Y-59883517D01*
X62126777Y-59909154D01*
X62091138Y-59928204D01*
X62052468Y-59939935D01*
X62006112Y-59944500D01*
X60929888Y-59944500D01*
X60883532Y-59939935D01*
X60844862Y-59928204D01*
X60809223Y-59909154D01*
X60777983Y-59883517D01*
X60752346Y-59852277D01*
X60733296Y-59816638D01*
X60721565Y-59777968D01*
X60717000Y-59731612D01*
X60717000Y-59080388D01*
X60721565Y-59034032D01*
X60733296Y-58995362D01*
X60752346Y-58959723D01*
X60777983Y-58928483D01*
X60809223Y-58902846D01*
X60844862Y-58883796D01*
X60883532Y-58872065D01*
X60929888Y-58867500D01*
X62006112Y-58867500D01*
X62052468Y-58872065D01*
X62052468Y-58872065D01*
G37*
G36*
X63957468Y-58823565D02*
G01*
X63996138Y-58835296D01*
X64031777Y-58854346D01*
X64063017Y-58879983D01*
X64088654Y-58911223D01*
X64107704Y-58946862D01*
X64119435Y-58985532D01*
X64124000Y-59031888D01*
X64124000Y-59683112D01*
X64119435Y-59729468D01*
X64107704Y-59768138D01*
X64088654Y-59803777D01*
X64063017Y-59835017D01*
X64031777Y-59860654D01*
X63996138Y-59879704D01*
X63957468Y-59891435D01*
X63911112Y-59896000D01*
X62834888Y-59896000D01*
X62788532Y-59891435D01*
X62749862Y-59879704D01*
X62714223Y-59860654D01*
X62682983Y-59835017D01*
X62657346Y-59803777D01*
X62638296Y-59768138D01*
X62626565Y-59729468D01*
X62622000Y-59683112D01*
X62622000Y-59031888D01*
X62626565Y-58985532D01*
X62638296Y-58946862D01*
X62657346Y-58911223D01*
X62682983Y-58879983D01*
X62714223Y-58854346D01*
X62749862Y-58835296D01*
X62788532Y-58823565D01*
X62834888Y-58819000D01*
X63911112Y-58819000D01*
X63957468Y-58823565D01*
X63957468Y-58823565D01*
G37*
G36*
X101583249Y-56921902D02*
G01*
X101809027Y-56973735D01*
X102020355Y-57068620D01*
X102209111Y-57202910D01*
X102368041Y-57371443D01*
X102491038Y-57567745D01*
X102573376Y-57784270D01*
X102602238Y-57955455D01*
X102640500Y-58510250D01*
X102642603Y-58526015D01*
X102645306Y-58539602D01*
X102649000Y-58558175D01*
X102649000Y-58629203D01*
X102649295Y-58637775D01*
X102650188Y-58650723D01*
X102649053Y-58689416D01*
X102649000Y-58693014D01*
X102649000Y-58789826D01*
X102647647Y-58796630D01*
X102645301Y-58817340D01*
X102645098Y-58824249D01*
X102623438Y-58918599D01*
X102622699Y-58922050D01*
X102603807Y-59017027D01*
X102601152Y-59023438D01*
X102594815Y-59043275D01*
X102593265Y-59050027D01*
X102553624Y-59138315D01*
X102552220Y-59141570D01*
X102515158Y-59231045D01*
X102511309Y-59236805D01*
X102501214Y-59255042D01*
X102498380Y-59261355D01*
X102442291Y-59340193D01*
X102440244Y-59343161D01*
X102386459Y-59423656D01*
X102381559Y-59428556D01*
X102368098Y-59444478D01*
X102364090Y-59450111D01*
X102293689Y-59516501D01*
X102291110Y-59519005D01*
X102222652Y-59587463D01*
X102216896Y-59591309D01*
X102200587Y-59604298D01*
X102195557Y-59609041D01*
X102113554Y-59660422D01*
X102110563Y-59662358D01*
X102030045Y-59716158D01*
X102023636Y-59718813D01*
X102005127Y-59728360D01*
X101999255Y-59732039D01*
X101939791Y-59754651D01*
X101908847Y-59766418D01*
X101905443Y-59767770D01*
X101884760Y-59776337D01*
X101816027Y-59804807D01*
X101809228Y-59806159D01*
X101789203Y-59811915D01*
X101782730Y-59814376D01*
X101687348Y-59830458D01*
X101683754Y-59831118D01*
X101588827Y-59850000D01*
X101581900Y-59850000D01*
X101561127Y-59851739D01*
X101554302Y-59852890D01*
X101457584Y-59850053D01*
X101453959Y-59850000D01*
X101357174Y-59850000D01*
X101350381Y-59848649D01*
X101329665Y-59846302D01*
X101325130Y-59846169D01*
X101322751Y-59846099D01*
X101228446Y-59824449D01*
X101224899Y-59823689D01*
X101213467Y-59821415D01*
X101129973Y-59804807D01*
X101123562Y-59802152D01*
X101103725Y-59795815D01*
X101096973Y-59794265D01*
X101008687Y-59754625D01*
X101005429Y-59753219D01*
X100915955Y-59716158D01*
X100915954Y-59716157D01*
X100915951Y-59716156D01*
X100910194Y-59712309D01*
X100891955Y-59702213D01*
X100885645Y-59699380D01*
X100806806Y-59643290D01*
X100803824Y-59641234D01*
X100723346Y-59587461D01*
X100718447Y-59582562D01*
X100702521Y-59569097D01*
X100696888Y-59565089D01*
X100653430Y-59519005D01*
X100630534Y-59494725D01*
X100627993Y-59492108D01*
X100559537Y-59423652D01*
X100555689Y-59417893D01*
X100542711Y-59401596D01*
X100537959Y-59396557D01*
X100486577Y-59314551D01*
X100484657Y-59311585D01*
X100430842Y-59231045D01*
X100428187Y-59224635D01*
X100418636Y-59206119D01*
X100414962Y-59200255D01*
X100380553Y-59109770D01*
X100379264Y-59106524D01*
X100342193Y-59017027D01*
X100340841Y-59010228D01*
X100335085Y-58990201D01*
X100332624Y-58983730D01*
X100316540Y-58888332D01*
X100315882Y-58884750D01*
X100314934Y-58879983D01*
X100297000Y-58789826D01*
X100297000Y-58718804D01*
X100296704Y-58710204D01*
X100289835Y-58610600D01*
X100255812Y-58117277D01*
X100260902Y-57943751D01*
X100312735Y-57717973D01*
X100407620Y-57506645D01*
X100541910Y-57317889D01*
X100710443Y-57158959D01*
X100906745Y-57035962D01*
X101123270Y-56953624D01*
X101314972Y-56921303D01*
X101351697Y-56915111D01*
X101351698Y-56915111D01*
X101583249Y-56921902D01*
X101583249Y-56921902D01*
G37*
G36*
X120887249Y-56921902D02*
G01*
X121113027Y-56973735D01*
X121324355Y-57068620D01*
X121513111Y-57202910D01*
X121672041Y-57371443D01*
X121795038Y-57567745D01*
X121877376Y-57784270D01*
X121906238Y-57955455D01*
X121944500Y-58510250D01*
X121946603Y-58526015D01*
X121949306Y-58539602D01*
X121953000Y-58558175D01*
X121953000Y-58629203D01*
X121953295Y-58637775D01*
X121954188Y-58650723D01*
X121953053Y-58689416D01*
X121953000Y-58693014D01*
X121953000Y-58789826D01*
X121951647Y-58796630D01*
X121949301Y-58817340D01*
X121949098Y-58824249D01*
X121927438Y-58918599D01*
X121926699Y-58922050D01*
X121907807Y-59017027D01*
X121905152Y-59023438D01*
X121898815Y-59043275D01*
X121897265Y-59050027D01*
X121857624Y-59138315D01*
X121856220Y-59141570D01*
X121819158Y-59231045D01*
X121815309Y-59236805D01*
X121805214Y-59255042D01*
X121802380Y-59261355D01*
X121746291Y-59340193D01*
X121744244Y-59343161D01*
X121690459Y-59423656D01*
X121685559Y-59428556D01*
X121672098Y-59444478D01*
X121668090Y-59450111D01*
X121597689Y-59516501D01*
X121595110Y-59519005D01*
X121526652Y-59587463D01*
X121520896Y-59591309D01*
X121504587Y-59604298D01*
X121499557Y-59609041D01*
X121417554Y-59660422D01*
X121414563Y-59662358D01*
X121334045Y-59716158D01*
X121327636Y-59718813D01*
X121309127Y-59728360D01*
X121303255Y-59732039D01*
X121243791Y-59754651D01*
X121212847Y-59766418D01*
X121209443Y-59767770D01*
X121188760Y-59776337D01*
X121120027Y-59804807D01*
X121113228Y-59806159D01*
X121093203Y-59811915D01*
X121086730Y-59814376D01*
X120991348Y-59830458D01*
X120987754Y-59831118D01*
X120892827Y-59850000D01*
X120885900Y-59850000D01*
X120865127Y-59851739D01*
X120858302Y-59852890D01*
X120761584Y-59850053D01*
X120757959Y-59850000D01*
X120661174Y-59850000D01*
X120654381Y-59848649D01*
X120633665Y-59846302D01*
X120629130Y-59846169D01*
X120626751Y-59846099D01*
X120532446Y-59824449D01*
X120528899Y-59823689D01*
X120517467Y-59821415D01*
X120433973Y-59804807D01*
X120427562Y-59802152D01*
X120407725Y-59795815D01*
X120400973Y-59794265D01*
X120312687Y-59754625D01*
X120309429Y-59753219D01*
X120219955Y-59716158D01*
X120219954Y-59716157D01*
X120219951Y-59716156D01*
X120214194Y-59712309D01*
X120195955Y-59702213D01*
X120189645Y-59699380D01*
X120110806Y-59643290D01*
X120107824Y-59641234D01*
X120027346Y-59587461D01*
X120022447Y-59582562D01*
X120006521Y-59569097D01*
X120000888Y-59565089D01*
X119957430Y-59519005D01*
X119934534Y-59494725D01*
X119931993Y-59492108D01*
X119863537Y-59423652D01*
X119859689Y-59417893D01*
X119846711Y-59401596D01*
X119841959Y-59396557D01*
X119790577Y-59314551D01*
X119788657Y-59311585D01*
X119734842Y-59231045D01*
X119732187Y-59224635D01*
X119722636Y-59206119D01*
X119718962Y-59200255D01*
X119684553Y-59109770D01*
X119683264Y-59106524D01*
X119646193Y-59017027D01*
X119644841Y-59010228D01*
X119639085Y-58990201D01*
X119636624Y-58983730D01*
X119620540Y-58888332D01*
X119619882Y-58884750D01*
X119618934Y-58879983D01*
X119601000Y-58789826D01*
X119601000Y-58718804D01*
X119600704Y-58710204D01*
X119593835Y-58610600D01*
X119559812Y-58117277D01*
X119564902Y-57943751D01*
X119616735Y-57717973D01*
X119711620Y-57506645D01*
X119845910Y-57317889D01*
X120014443Y-57158959D01*
X120210745Y-57035962D01*
X120427270Y-56953624D01*
X120618972Y-56921303D01*
X120655697Y-56915111D01*
X120655698Y-56915111D01*
X120887249Y-56921902D01*
X120887249Y-56921902D01*
G37*
G36*
X54854968Y-58181565D02*
G01*
X54893638Y-58193296D01*
X54929277Y-58212346D01*
X54960517Y-58237983D01*
X54986154Y-58269223D01*
X55005204Y-58304862D01*
X55016935Y-58343532D01*
X55021500Y-58389888D01*
X55021500Y-59466112D01*
X55016935Y-59512468D01*
X55005204Y-59551138D01*
X54986154Y-59586777D01*
X54960517Y-59618017D01*
X54929277Y-59643654D01*
X54893638Y-59662704D01*
X54854968Y-59674435D01*
X54808612Y-59679000D01*
X54157388Y-59679000D01*
X54111032Y-59674435D01*
X54072362Y-59662704D01*
X54036723Y-59643654D01*
X54005483Y-59618017D01*
X53979846Y-59586777D01*
X53960796Y-59551138D01*
X53949065Y-59512468D01*
X53944500Y-59466112D01*
X53944500Y-58389888D01*
X53949065Y-58343532D01*
X53960796Y-58304862D01*
X53979846Y-58269223D01*
X54005483Y-58237983D01*
X54036723Y-58212346D01*
X54072362Y-58193296D01*
X54111032Y-58181565D01*
X54157388Y-58177000D01*
X54808612Y-58177000D01*
X54854968Y-58181565D01*
X54854968Y-58181565D01*
G37*
G36*
X52979968Y-58181565D02*
G01*
X53018638Y-58193296D01*
X53054277Y-58212346D01*
X53085517Y-58237983D01*
X53111154Y-58269223D01*
X53130204Y-58304862D01*
X53141935Y-58343532D01*
X53146500Y-58389888D01*
X53146500Y-59466112D01*
X53141935Y-59512468D01*
X53130204Y-59551138D01*
X53111154Y-59586777D01*
X53085517Y-59618017D01*
X53054277Y-59643654D01*
X53018638Y-59662704D01*
X52979968Y-59674435D01*
X52933612Y-59679000D01*
X52282388Y-59679000D01*
X52236032Y-59674435D01*
X52197362Y-59662704D01*
X52161723Y-59643654D01*
X52130483Y-59618017D01*
X52104846Y-59586777D01*
X52085796Y-59551138D01*
X52074065Y-59512468D01*
X52069500Y-59466112D01*
X52069500Y-58389888D01*
X52074065Y-58343532D01*
X52085796Y-58304862D01*
X52104846Y-58269223D01*
X52130483Y-58237983D01*
X52161723Y-58212346D01*
X52197362Y-58193296D01*
X52236032Y-58181565D01*
X52282388Y-58177000D01*
X52933612Y-58177000D01*
X52979968Y-58181565D01*
X52979968Y-58181565D01*
G37*
G36*
X69880000Y-59492000D02*
G01*
X68718000Y-59492000D01*
X68718000Y-58740000D01*
X69880000Y-58740000D01*
X69880000Y-59492000D01*
X69880000Y-59492000D01*
G37*
G36*
X67680000Y-59492000D02*
G01*
X66518000Y-59492000D01*
X66518000Y-56840000D01*
X67680000Y-56840000D01*
X67680000Y-59492000D01*
X67680000Y-59492000D01*
G37*
G36*
X49491000Y-58924000D02*
G01*
X47139000Y-58924000D01*
X47139000Y-55122000D01*
X49491000Y-55122000D01*
X49491000Y-58924000D01*
X49491000Y-58924000D01*
G37*
G36*
X114719866Y-54989177D02*
G01*
X114937583Y-55068311D01*
X115018557Y-55117398D01*
X115135679Y-55188398D01*
X115263723Y-55305624D01*
X116261816Y-56418000D01*
X116588810Y-56782436D01*
X116593460Y-56787345D01*
X116650461Y-56844346D01*
X116698866Y-56916790D01*
X116702011Y-56921280D01*
X116753602Y-56991576D01*
X116760622Y-57006613D01*
X116769944Y-57023165D01*
X116779158Y-57036955D01*
X116812511Y-57117477D01*
X116814711Y-57122474D01*
X116851595Y-57201480D01*
X116855549Y-57217607D01*
X116861457Y-57235643D01*
X116867807Y-57250973D01*
X116884812Y-57336463D01*
X116885988Y-57341763D01*
X116906756Y-57426469D01*
X116907488Y-57443059D01*
X116909766Y-57461917D01*
X116913000Y-57478175D01*
X116913000Y-57565311D01*
X116913120Y-57570751D01*
X116916963Y-57657896D01*
X116914444Y-57674308D01*
X116913000Y-57693248D01*
X116913000Y-57709827D01*
X116896001Y-57795287D01*
X116895055Y-57800655D01*
X116881825Y-57886866D01*
X116881823Y-57886871D01*
X116876158Y-57902457D01*
X116871042Y-57920763D01*
X116867807Y-57937027D01*
X116834452Y-58017552D01*
X116832478Y-58022632D01*
X116802691Y-58104583D01*
X116802690Y-58104584D01*
X116794093Y-58118766D01*
X116785505Y-58135723D01*
X116779158Y-58151045D01*
X116779157Y-58151046D01*
X116730746Y-58223499D01*
X116727799Y-58228126D01*
X116682605Y-58302679D01*
X116671396Y-58314922D01*
X116659674Y-58329865D01*
X116650542Y-58343532D01*
X116650458Y-58343657D01*
X116588829Y-58405286D01*
X116585030Y-58409257D01*
X116526179Y-58473539D01*
X116512809Y-58483352D01*
X116498383Y-58495732D01*
X116486656Y-58507459D01*
X116414192Y-58555878D01*
X116409694Y-58559029D01*
X116339426Y-58610600D01*
X116324393Y-58617618D01*
X116307841Y-58626940D01*
X116294045Y-58636158D01*
X116213494Y-58669523D01*
X116208504Y-58671720D01*
X116129521Y-58708593D01*
X116113401Y-58712545D01*
X116095362Y-58718455D01*
X116080027Y-58724807D01*
X115994518Y-58741816D01*
X115989223Y-58742990D01*
X115904532Y-58763754D01*
X115887956Y-58764485D01*
X115869097Y-58766764D01*
X115852828Y-58770000D01*
X115765645Y-58770000D01*
X115760205Y-58770119D01*
X115673106Y-58773961D01*
X115656709Y-58771445D01*
X115637766Y-58770000D01*
X115621173Y-58770000D01*
X115535663Y-58752991D01*
X115530300Y-58752046D01*
X115444135Y-58738823D01*
X115428542Y-58733156D01*
X115410252Y-58728045D01*
X115393973Y-58724807D01*
X115313410Y-58691437D01*
X115308312Y-58689455D01*
X115226418Y-58659689D01*
X115212247Y-58651099D01*
X115195300Y-58642514D01*
X115179955Y-58636158D01*
X115107421Y-58587692D01*
X115102830Y-58584769D01*
X115028323Y-58539603D01*
X115028321Y-58539602D01*
X115016102Y-58528415D01*
X115001143Y-58516680D01*
X114987346Y-58507461D01*
X114925682Y-58445797D01*
X114921701Y-58441989D01*
X114900278Y-58422376D01*
X114885223Y-58405597D01*
X114880573Y-58400688D01*
X114823539Y-58343654D01*
X114810681Y-58324411D01*
X114799787Y-58310379D01*
X114055141Y-57480468D01*
X113513114Y-56876378D01*
X113410400Y-56736423D01*
X113410400Y-56736422D01*
X113410398Y-56736420D01*
X113324229Y-56551842D01*
X113312407Y-56526519D01*
X113257246Y-56301530D01*
X113247039Y-56070105D01*
X113282177Y-55841134D01*
X113361311Y-55623417D01*
X113438505Y-55496078D01*
X113481398Y-55425321D01*
X113590983Y-55305624D01*
X113637823Y-55254461D01*
X113818309Y-55122000D01*
X113824579Y-55117398D01*
X113953797Y-55057074D01*
X114034481Y-55019407D01*
X114259470Y-54964246D01*
X114490895Y-54954039D01*
X114719866Y-54989177D01*
X114719866Y-54989177D01*
G37*
G36*
X95415866Y-54989177D02*
G01*
X95633583Y-55068311D01*
X95714557Y-55117398D01*
X95831679Y-55188398D01*
X95959723Y-55305624D01*
X96957816Y-56418000D01*
X97284810Y-56782436D01*
X97289460Y-56787345D01*
X97346461Y-56844346D01*
X97394866Y-56916790D01*
X97398011Y-56921280D01*
X97449602Y-56991576D01*
X97456622Y-57006613D01*
X97465944Y-57023165D01*
X97475158Y-57036955D01*
X97508511Y-57117477D01*
X97510711Y-57122474D01*
X97547595Y-57201480D01*
X97551549Y-57217607D01*
X97557457Y-57235643D01*
X97563807Y-57250973D01*
X97580812Y-57336463D01*
X97581988Y-57341763D01*
X97602756Y-57426469D01*
X97603488Y-57443059D01*
X97605766Y-57461917D01*
X97609000Y-57478175D01*
X97609000Y-57565311D01*
X97609120Y-57570751D01*
X97612963Y-57657896D01*
X97610444Y-57674308D01*
X97609000Y-57693248D01*
X97609000Y-57709827D01*
X97592001Y-57795287D01*
X97591055Y-57800655D01*
X97577825Y-57886866D01*
X97577823Y-57886871D01*
X97572158Y-57902457D01*
X97567042Y-57920763D01*
X97563807Y-57937027D01*
X97530452Y-58017552D01*
X97528478Y-58022632D01*
X97498691Y-58104583D01*
X97498690Y-58104584D01*
X97490093Y-58118766D01*
X97481505Y-58135723D01*
X97475158Y-58151045D01*
X97475157Y-58151046D01*
X97426746Y-58223499D01*
X97423799Y-58228126D01*
X97378605Y-58302679D01*
X97367396Y-58314922D01*
X97355674Y-58329865D01*
X97346542Y-58343532D01*
X97346458Y-58343657D01*
X97284829Y-58405286D01*
X97281030Y-58409257D01*
X97222179Y-58473539D01*
X97208809Y-58483352D01*
X97194383Y-58495732D01*
X97182656Y-58507459D01*
X97110192Y-58555878D01*
X97105694Y-58559029D01*
X97035426Y-58610600D01*
X97020393Y-58617618D01*
X97003841Y-58626940D01*
X96990045Y-58636158D01*
X96909494Y-58669523D01*
X96904504Y-58671720D01*
X96825521Y-58708593D01*
X96809401Y-58712545D01*
X96791362Y-58718455D01*
X96776027Y-58724807D01*
X96690518Y-58741816D01*
X96685223Y-58742990D01*
X96600532Y-58763754D01*
X96583956Y-58764485D01*
X96565097Y-58766764D01*
X96548828Y-58770000D01*
X96461645Y-58770000D01*
X96456205Y-58770119D01*
X96369106Y-58773961D01*
X96352709Y-58771445D01*
X96333766Y-58770000D01*
X96317173Y-58770000D01*
X96231663Y-58752991D01*
X96226300Y-58752046D01*
X96140135Y-58738823D01*
X96124542Y-58733156D01*
X96106252Y-58728045D01*
X96089973Y-58724807D01*
X96009410Y-58691437D01*
X96004312Y-58689455D01*
X95922418Y-58659689D01*
X95908247Y-58651099D01*
X95891300Y-58642514D01*
X95875955Y-58636158D01*
X95803421Y-58587692D01*
X95798830Y-58584769D01*
X95724323Y-58539603D01*
X95724321Y-58539602D01*
X95712102Y-58528415D01*
X95697143Y-58516680D01*
X95683346Y-58507461D01*
X95621682Y-58445797D01*
X95617701Y-58441989D01*
X95596278Y-58422376D01*
X95581223Y-58405597D01*
X95576573Y-58400688D01*
X95519539Y-58343654D01*
X95506681Y-58324411D01*
X95495787Y-58310379D01*
X94751141Y-57480468D01*
X94209114Y-56876378D01*
X94106400Y-56736423D01*
X94106400Y-56736422D01*
X94106398Y-56736420D01*
X94020229Y-56551842D01*
X94008407Y-56526519D01*
X93953246Y-56301530D01*
X93943039Y-56070105D01*
X93978177Y-55841134D01*
X94057311Y-55623417D01*
X94134505Y-55496078D01*
X94177398Y-55425321D01*
X94286983Y-55305624D01*
X94333823Y-55254461D01*
X94514309Y-55122000D01*
X94520579Y-55117398D01*
X94649797Y-55057074D01*
X94730481Y-55019407D01*
X94955470Y-54964246D01*
X95186895Y-54954039D01*
X95415866Y-54989177D01*
X95415866Y-54989177D01*
G37*
G36*
X62052468Y-56997065D02*
G01*
X62091138Y-57008796D01*
X62126777Y-57027846D01*
X62158017Y-57053483D01*
X62183654Y-57084723D01*
X62202704Y-57120362D01*
X62214435Y-57159032D01*
X62219000Y-57205388D01*
X62219000Y-57856612D01*
X62214435Y-57902968D01*
X62202704Y-57941638D01*
X62183654Y-57977277D01*
X62158017Y-58008517D01*
X62126777Y-58034154D01*
X62091138Y-58053204D01*
X62052468Y-58064935D01*
X62006112Y-58069500D01*
X60929888Y-58069500D01*
X60883532Y-58064935D01*
X60844862Y-58053204D01*
X60809223Y-58034154D01*
X60777983Y-58008517D01*
X60752346Y-57977277D01*
X60733296Y-57941638D01*
X60721565Y-57902968D01*
X60717000Y-57856612D01*
X60717000Y-57205388D01*
X60721565Y-57159032D01*
X60733296Y-57120362D01*
X60752346Y-57084723D01*
X60777983Y-57053483D01*
X60809223Y-57027846D01*
X60844862Y-57008796D01*
X60883532Y-56997065D01*
X60929888Y-56992500D01*
X62006112Y-56992500D01*
X62052468Y-56997065D01*
X62052468Y-56997065D01*
G37*
G36*
X63957468Y-56948565D02*
G01*
X63996138Y-56960296D01*
X64031777Y-56979346D01*
X64063017Y-57004983D01*
X64088654Y-57036223D01*
X64107704Y-57071862D01*
X64119435Y-57110532D01*
X64124000Y-57156888D01*
X64124000Y-57808112D01*
X64119435Y-57854468D01*
X64107704Y-57893138D01*
X64088654Y-57928777D01*
X64063017Y-57960017D01*
X64031777Y-57985654D01*
X63996138Y-58004704D01*
X63957468Y-58016435D01*
X63911112Y-58021000D01*
X62834888Y-58021000D01*
X62788532Y-58016435D01*
X62749862Y-58004704D01*
X62714223Y-57985654D01*
X62682983Y-57960017D01*
X62657346Y-57928777D01*
X62638296Y-57893138D01*
X62626565Y-57854468D01*
X62622000Y-57808112D01*
X62622000Y-57156888D01*
X62626565Y-57110532D01*
X62638296Y-57071862D01*
X62657346Y-57036223D01*
X62682983Y-57004983D01*
X62714223Y-56979346D01*
X62749862Y-56960296D01*
X62788532Y-56948565D01*
X62834888Y-56944000D01*
X63911112Y-56944000D01*
X63957468Y-56948565D01*
X63957468Y-56948565D01*
G37*
G36*
X54776468Y-56149565D02*
G01*
X54815138Y-56161296D01*
X54850777Y-56180346D01*
X54882017Y-56205983D01*
X54907654Y-56237223D01*
X54926704Y-56272862D01*
X54938435Y-56311532D01*
X54943000Y-56357888D01*
X54943000Y-57434112D01*
X54938435Y-57480468D01*
X54926704Y-57519138D01*
X54907654Y-57554777D01*
X54882017Y-57586017D01*
X54850777Y-57611654D01*
X54815138Y-57630704D01*
X54776468Y-57642435D01*
X54730112Y-57647000D01*
X54078888Y-57647000D01*
X54032532Y-57642435D01*
X53993862Y-57630704D01*
X53958223Y-57611654D01*
X53926983Y-57586017D01*
X53901346Y-57554777D01*
X53882296Y-57519138D01*
X53870565Y-57480468D01*
X53866000Y-57434112D01*
X53866000Y-56357888D01*
X53870565Y-56311532D01*
X53882296Y-56272862D01*
X53901346Y-56237223D01*
X53926983Y-56205983D01*
X53958223Y-56180346D01*
X53993862Y-56161296D01*
X54032532Y-56149565D01*
X54078888Y-56145000D01*
X54730112Y-56145000D01*
X54776468Y-56149565D01*
X54776468Y-56149565D01*
G37*
G36*
X52901468Y-56149565D02*
G01*
X52940138Y-56161296D01*
X52975777Y-56180346D01*
X53007017Y-56205983D01*
X53032654Y-56237223D01*
X53051704Y-56272862D01*
X53063435Y-56311532D01*
X53068000Y-56357888D01*
X53068000Y-57434112D01*
X53063435Y-57480468D01*
X53051704Y-57519138D01*
X53032654Y-57554777D01*
X53007017Y-57586017D01*
X52975777Y-57611654D01*
X52940138Y-57630704D01*
X52901468Y-57642435D01*
X52855112Y-57647000D01*
X52203888Y-57647000D01*
X52157532Y-57642435D01*
X52118862Y-57630704D01*
X52083223Y-57611654D01*
X52051983Y-57586017D01*
X52026346Y-57554777D01*
X52007296Y-57519138D01*
X51995565Y-57480468D01*
X51991000Y-57434112D01*
X51991000Y-56357888D01*
X51995565Y-56311532D01*
X52007296Y-56272862D01*
X52026346Y-56237223D01*
X52051983Y-56205983D01*
X52083223Y-56180346D01*
X52118862Y-56161296D01*
X52157532Y-56149565D01*
X52203888Y-56145000D01*
X52855112Y-56145000D01*
X52901468Y-56149565D01*
X52901468Y-56149565D01*
G37*
G36*
X69880000Y-57592000D02*
G01*
X68718000Y-57592000D01*
X68718000Y-56840000D01*
X69880000Y-56840000D01*
X69880000Y-57592000D01*
X69880000Y-57592000D01*
G37*
G36*
X59198000Y-57144000D02*
G01*
X57896000Y-57144000D01*
X57896000Y-56142000D01*
X59198000Y-56142000D01*
X59198000Y-57144000D01*
X59198000Y-57144000D01*
G37*
G36*
X55385604Y-53815347D02*
G01*
X55422144Y-53826432D01*
X55455821Y-53844433D01*
X55485341Y-53868659D01*
X55509567Y-53898179D01*
X55527568Y-53931856D01*
X55538653Y-53968396D01*
X55543000Y-54012538D01*
X55543000Y-55461462D01*
X55538653Y-55505604D01*
X55527568Y-55542144D01*
X55509567Y-55575821D01*
X55485341Y-55605341D01*
X55455821Y-55629567D01*
X55422144Y-55647568D01*
X55385604Y-55658653D01*
X55341462Y-55663000D01*
X54392538Y-55663000D01*
X54348396Y-55658653D01*
X54311856Y-55647568D01*
X54278179Y-55629567D01*
X54248659Y-55605341D01*
X54224433Y-55575821D01*
X54206432Y-55542144D01*
X54195347Y-55505604D01*
X54191000Y-55461462D01*
X54191000Y-54012538D01*
X54195347Y-53968396D01*
X54206432Y-53931856D01*
X54224433Y-53898179D01*
X54248659Y-53868659D01*
X54278179Y-53844433D01*
X54311856Y-53826432D01*
X54348396Y-53815347D01*
X54392538Y-53811000D01*
X55341462Y-53811000D01*
X55385604Y-53815347D01*
X55385604Y-53815347D01*
G37*
G36*
X52585604Y-53815347D02*
G01*
X52622144Y-53826432D01*
X52655821Y-53844433D01*
X52685341Y-53868659D01*
X52709567Y-53898179D01*
X52727568Y-53931856D01*
X52738653Y-53968396D01*
X52743000Y-54012538D01*
X52743000Y-55461462D01*
X52738653Y-55505604D01*
X52727568Y-55542144D01*
X52709567Y-55575821D01*
X52685341Y-55605341D01*
X52655821Y-55629567D01*
X52622144Y-55647568D01*
X52585604Y-55658653D01*
X52541462Y-55663000D01*
X51592538Y-55663000D01*
X51548396Y-55658653D01*
X51511856Y-55647568D01*
X51478179Y-55629567D01*
X51448659Y-55605341D01*
X51424433Y-55575821D01*
X51406432Y-55542144D01*
X51395347Y-55505604D01*
X51391000Y-55461462D01*
X51391000Y-54012538D01*
X51395347Y-53968396D01*
X51406432Y-53931856D01*
X51424433Y-53898179D01*
X51448659Y-53868659D01*
X51478179Y-53844433D01*
X51511856Y-53826432D01*
X51548396Y-53815347D01*
X51592538Y-53811000D01*
X52541462Y-53811000D01*
X52585604Y-53815347D01*
X52585604Y-53815347D01*
G37*
G36*
X99529474Y-51627684D02*
G01*
X99747474Y-51717983D01*
X99901623Y-51781833D01*
X100236548Y-52005623D01*
X100521377Y-52290452D01*
X100745167Y-52625377D01*
X100777562Y-52703586D01*
X100899316Y-52997526D01*
X100977900Y-53392594D01*
X100977900Y-53795406D01*
X100899316Y-54190474D01*
X100848451Y-54313272D01*
X100745167Y-54562623D01*
X100521377Y-54897548D01*
X100236548Y-55182377D01*
X99901623Y-55406167D01*
X99768128Y-55461462D01*
X99529474Y-55560316D01*
X99134406Y-55638900D01*
X98731594Y-55638900D01*
X98336526Y-55560316D01*
X98097872Y-55461462D01*
X97964377Y-55406167D01*
X97629452Y-55182377D01*
X97344623Y-54897548D01*
X97120833Y-54562623D01*
X97017549Y-54313272D01*
X96966684Y-54190474D01*
X96888100Y-53795406D01*
X96888100Y-53392594D01*
X96966684Y-52997526D01*
X97088438Y-52703586D01*
X97120833Y-52625377D01*
X97344623Y-52290452D01*
X97629452Y-52005623D01*
X97964377Y-51781833D01*
X98118526Y-51717983D01*
X98336526Y-51627684D01*
X98731594Y-51549100D01*
X99134406Y-51549100D01*
X99529474Y-51627684D01*
X99529474Y-51627684D01*
G37*
G36*
X118833474Y-51627684D02*
G01*
X119051474Y-51717983D01*
X119205623Y-51781833D01*
X119540548Y-52005623D01*
X119825377Y-52290452D01*
X120049167Y-52625377D01*
X120081562Y-52703586D01*
X120203316Y-52997526D01*
X120281900Y-53392594D01*
X120281900Y-53795406D01*
X120203316Y-54190474D01*
X120152451Y-54313272D01*
X120049167Y-54562623D01*
X119825377Y-54897548D01*
X119540548Y-55182377D01*
X119205623Y-55406167D01*
X119072128Y-55461462D01*
X118833474Y-55560316D01*
X118438406Y-55638900D01*
X118035594Y-55638900D01*
X117640526Y-55560316D01*
X117401872Y-55461462D01*
X117268377Y-55406167D01*
X116933452Y-55182377D01*
X116648623Y-54897548D01*
X116424833Y-54562623D01*
X116321549Y-54313272D01*
X116270684Y-54190474D01*
X116192100Y-53795406D01*
X116192100Y-53392594D01*
X116270684Y-52997526D01*
X116392438Y-52703586D01*
X116424833Y-52625377D01*
X116648623Y-52290452D01*
X116933452Y-52005623D01*
X117268377Y-51781833D01*
X117422526Y-51717983D01*
X117640526Y-51627684D01*
X118035594Y-51549100D01*
X118438406Y-51549100D01*
X118833474Y-51627684D01*
X118833474Y-51627684D01*
G37*
G36*
X104283104Y-52703585D02*
G01*
X104451626Y-52773389D01*
X104603291Y-52874728D01*
X104732272Y-53003709D01*
X104833611Y-53155374D01*
X104903415Y-53323896D01*
X104939000Y-53502797D01*
X104939000Y-53685203D01*
X104903415Y-53864104D01*
X104833611Y-54032626D01*
X104732272Y-54184291D01*
X104603291Y-54313272D01*
X104451626Y-54414611D01*
X104283104Y-54484415D01*
X104104203Y-54520000D01*
X103921797Y-54520000D01*
X103742896Y-54484415D01*
X103574374Y-54414611D01*
X103422709Y-54313272D01*
X103293728Y-54184291D01*
X103192389Y-54032626D01*
X103122585Y-53864104D01*
X103087000Y-53685203D01*
X103087000Y-53502797D01*
X103122585Y-53323896D01*
X103192389Y-53155374D01*
X103293728Y-53003709D01*
X103422709Y-52874728D01*
X103574374Y-52773389D01*
X103742896Y-52703585D01*
X103921797Y-52668000D01*
X104104203Y-52668000D01*
X104283104Y-52703585D01*
X104283104Y-52703585D01*
G37*
G36*
X94123104Y-52703585D02*
G01*
X94291626Y-52773389D01*
X94443291Y-52874728D01*
X94572272Y-53003709D01*
X94673611Y-53155374D01*
X94743415Y-53323896D01*
X94779000Y-53502797D01*
X94779000Y-53685203D01*
X94743415Y-53864104D01*
X94673611Y-54032626D01*
X94572272Y-54184291D01*
X94443291Y-54313272D01*
X94291626Y-54414611D01*
X94123104Y-54484415D01*
X93944203Y-54520000D01*
X93761797Y-54520000D01*
X93582896Y-54484415D01*
X93414374Y-54414611D01*
X93262709Y-54313272D01*
X93133728Y-54184291D01*
X93032389Y-54032626D01*
X92962585Y-53864104D01*
X92927000Y-53685203D01*
X92927000Y-53502797D01*
X92962585Y-53323896D01*
X93032389Y-53155374D01*
X93133728Y-53003709D01*
X93262709Y-52874728D01*
X93414374Y-52773389D01*
X93582896Y-52703585D01*
X93761797Y-52668000D01*
X93944203Y-52668000D01*
X94123104Y-52703585D01*
X94123104Y-52703585D01*
G37*
G36*
X113427104Y-52703585D02*
G01*
X113595626Y-52773389D01*
X113747291Y-52874728D01*
X113876272Y-53003709D01*
X113977611Y-53155374D01*
X114047415Y-53323896D01*
X114083000Y-53502797D01*
X114083000Y-53685203D01*
X114047415Y-53864104D01*
X113977611Y-54032626D01*
X113876272Y-54184291D01*
X113747291Y-54313272D01*
X113595626Y-54414611D01*
X113427104Y-54484415D01*
X113248203Y-54520000D01*
X113065797Y-54520000D01*
X112886896Y-54484415D01*
X112718374Y-54414611D01*
X112566709Y-54313272D01*
X112437728Y-54184291D01*
X112336389Y-54032626D01*
X112266585Y-53864104D01*
X112231000Y-53685203D01*
X112231000Y-53502797D01*
X112266585Y-53323896D01*
X112336389Y-53155374D01*
X112437728Y-53003709D01*
X112566709Y-52874728D01*
X112718374Y-52773389D01*
X112886896Y-52703585D01*
X113065797Y-52668000D01*
X113248203Y-52668000D01*
X113427104Y-52703585D01*
X113427104Y-52703585D01*
G37*
G36*
X123587104Y-52703585D02*
G01*
X123755626Y-52773389D01*
X123907291Y-52874728D01*
X124036272Y-53003709D01*
X124137611Y-53155374D01*
X124207415Y-53323896D01*
X124243000Y-53502797D01*
X124243000Y-53685203D01*
X124207415Y-53864104D01*
X124137611Y-54032626D01*
X124036272Y-54184291D01*
X123907291Y-54313272D01*
X123755626Y-54414611D01*
X123587104Y-54484415D01*
X123408203Y-54520000D01*
X123225797Y-54520000D01*
X123046896Y-54484415D01*
X122878374Y-54414611D01*
X122726709Y-54313272D01*
X122597728Y-54184291D01*
X122496389Y-54032626D01*
X122426585Y-53864104D01*
X122391000Y-53685203D01*
X122391000Y-53502797D01*
X122426585Y-53323896D01*
X122496389Y-53155374D01*
X122597728Y-53003709D01*
X122726709Y-52874728D01*
X122878374Y-52773389D01*
X123046896Y-52703585D01*
X123225797Y-52668000D01*
X123408203Y-52668000D01*
X123587104Y-52703585D01*
X123587104Y-52703585D01*
G37*
G36*
X44425442Y-52478518D02*
G01*
X44491627Y-52485037D01*
X44661466Y-52536557D01*
X44817991Y-52620222D01*
X44853729Y-52649552D01*
X44955186Y-52732814D01*
X45038448Y-52834271D01*
X45067778Y-52870009D01*
X45151443Y-53026534D01*
X45202963Y-53196373D01*
X45220359Y-53373000D01*
X45202963Y-53549627D01*
X45151443Y-53719466D01*
X45067778Y-53875991D01*
X45038448Y-53911729D01*
X44955186Y-54013186D01*
X44853729Y-54096448D01*
X44817991Y-54125778D01*
X44661466Y-54209443D01*
X44491627Y-54260963D01*
X44425442Y-54267482D01*
X44359260Y-54274000D01*
X43270740Y-54274000D01*
X43204558Y-54267482D01*
X43138373Y-54260963D01*
X42968534Y-54209443D01*
X42812009Y-54125778D01*
X42776271Y-54096448D01*
X42674814Y-54013186D01*
X42591552Y-53911729D01*
X42562222Y-53875991D01*
X42478557Y-53719466D01*
X42427037Y-53549627D01*
X42409641Y-53373000D01*
X42427037Y-53196373D01*
X42478557Y-53026534D01*
X42562222Y-52870009D01*
X42591552Y-52834271D01*
X42674814Y-52732814D01*
X42776271Y-52649552D01*
X42812009Y-52620222D01*
X42968534Y-52536557D01*
X43138373Y-52485037D01*
X43204557Y-52478519D01*
X43270740Y-52472000D01*
X44359260Y-52472000D01*
X44425442Y-52478518D01*
X44425442Y-52478518D01*
G37*
G36*
X48925442Y-52478518D02*
G01*
X48991627Y-52485037D01*
X49161466Y-52536557D01*
X49317991Y-52620222D01*
X49353729Y-52649552D01*
X49455186Y-52732814D01*
X49538448Y-52834271D01*
X49567778Y-52870009D01*
X49651443Y-53026534D01*
X49702963Y-53196373D01*
X49720359Y-53373000D01*
X49702963Y-53549627D01*
X49651443Y-53719466D01*
X49567778Y-53875991D01*
X49538448Y-53911729D01*
X49455186Y-54013186D01*
X49353729Y-54096448D01*
X49317991Y-54125778D01*
X49161466Y-54209443D01*
X48991627Y-54260963D01*
X48925442Y-54267482D01*
X48859260Y-54274000D01*
X47770740Y-54274000D01*
X47704558Y-54267482D01*
X47638373Y-54260963D01*
X47468534Y-54209443D01*
X47312009Y-54125778D01*
X47276271Y-54096448D01*
X47174814Y-54013186D01*
X47091552Y-53911729D01*
X47062222Y-53875991D01*
X46978557Y-53719466D01*
X46927037Y-53549627D01*
X46909641Y-53373000D01*
X46927037Y-53196373D01*
X46978557Y-53026534D01*
X47062222Y-52870009D01*
X47091552Y-52834271D01*
X47174814Y-52732814D01*
X47276271Y-52649552D01*
X47312009Y-52620222D01*
X47468534Y-52536557D01*
X47638373Y-52485037D01*
X47704557Y-52478519D01*
X47770740Y-52472000D01*
X48859260Y-52472000D01*
X48925442Y-52478518D01*
X48925442Y-52478518D01*
G37*
G36*
X97789425Y-47515988D02*
G01*
X97955710Y-47549063D01*
X98138336Y-47624709D01*
X98302694Y-47734530D01*
X98442470Y-47874306D01*
X98552291Y-48038664D01*
X98627937Y-48221290D01*
X98666500Y-48415164D01*
X98666500Y-48612836D01*
X98627937Y-48806710D01*
X98552291Y-48989336D01*
X98442470Y-49153694D01*
X98302694Y-49293470D01*
X98138336Y-49403291D01*
X97955710Y-49478937D01*
X97789425Y-49512012D01*
X97761837Y-49517500D01*
X97564163Y-49517500D01*
X97536575Y-49512012D01*
X97370290Y-49478937D01*
X97187664Y-49403291D01*
X97023306Y-49293470D01*
X96883530Y-49153694D01*
X96773709Y-48989336D01*
X96698063Y-48806710D01*
X96659500Y-48612836D01*
X96659500Y-48415164D01*
X96698063Y-48221290D01*
X96773709Y-48038664D01*
X96883530Y-47874306D01*
X97023306Y-47734530D01*
X97187664Y-47624709D01*
X97370290Y-47549063D01*
X97536575Y-47515988D01*
X97564163Y-47510500D01*
X97761837Y-47510500D01*
X97789425Y-47515988D01*
X97789425Y-47515988D01*
G37*
G36*
X101206500Y-49517500D02*
G01*
X99199500Y-49517500D01*
X99199500Y-47510500D01*
X101206500Y-47510500D01*
X101206500Y-49517500D01*
X101206500Y-49517500D01*
G37*
G36*
X117093425Y-47515988D02*
G01*
X117259710Y-47549063D01*
X117442336Y-47624709D01*
X117606694Y-47734530D01*
X117746470Y-47874306D01*
X117856291Y-48038664D01*
X117931937Y-48221290D01*
X117970500Y-48415164D01*
X117970500Y-48612836D01*
X117931937Y-48806710D01*
X117856291Y-48989336D01*
X117746470Y-49153694D01*
X117606694Y-49293470D01*
X117442336Y-49403291D01*
X117259710Y-49478937D01*
X117093425Y-49512012D01*
X117065837Y-49517500D01*
X116868163Y-49517500D01*
X116840575Y-49512012D01*
X116674290Y-49478937D01*
X116491664Y-49403291D01*
X116327306Y-49293470D01*
X116187530Y-49153694D01*
X116077709Y-48989336D01*
X116002063Y-48806710D01*
X115963500Y-48612836D01*
X115963500Y-48415164D01*
X116002063Y-48221290D01*
X116077709Y-48038664D01*
X116187530Y-47874306D01*
X116327306Y-47734530D01*
X116491664Y-47624709D01*
X116674290Y-47549063D01*
X116840575Y-47515988D01*
X116868163Y-47510500D01*
X117065837Y-47510500D01*
X117093425Y-47515988D01*
X117093425Y-47515988D01*
G37*
G36*
X120510500Y-49517500D02*
G01*
X118503500Y-49517500D01*
X118503500Y-47510500D01*
X120510500Y-47510500D01*
X120510500Y-49517500D01*
X120510500Y-49517500D01*
G37*
M02*
