G04 #@! TF.GenerationSoftware,KiCad,Pcbnew,(5.1.4)-1*
G04 #@! TF.CreationDate,2020-10-27T19:19:28+03:00*
G04 #@! TF.ProjectId,100_keyboard,3130305f-6b65-4796-926f-6172642e6b69,rev?*
G04 #@! TF.SameCoordinates,Original*
G04 #@! TF.FileFunction,Soldermask,Bot*
G04 #@! TF.FilePolarity,Negative*
%FSLAX46Y46*%
G04 Gerber Fmt 4.6, Leading zero omitted, Abs format (unit mm)*
G04 Created by KiCad (PCBNEW (5.1.4)-1) date 2020-10-27 19:19:28*
%MOMM*%
%LPD*%
G04 APERTURE LIST*
%ADD10C,0.100000*%
G04 APERTURE END LIST*
D10*
G36*
X118833474Y-70677684D02*
G01*
X119051474Y-70767983D01*
X119205623Y-70831833D01*
X119540548Y-71055623D01*
X119825377Y-71340452D01*
X120049167Y-71675377D01*
X120081562Y-71753586D01*
X120203316Y-72047526D01*
X120281900Y-72442594D01*
X120281900Y-72845406D01*
X120203316Y-73240474D01*
X120152451Y-73363272D01*
X120049167Y-73612623D01*
X119825377Y-73947548D01*
X119540548Y-74232377D01*
X119205623Y-74456167D01*
X119051474Y-74520017D01*
X118833474Y-74610316D01*
X118438406Y-74688900D01*
X118035594Y-74688900D01*
X117640526Y-74610316D01*
X117422526Y-74520017D01*
X117268377Y-74456167D01*
X116933452Y-74232377D01*
X116648623Y-73947548D01*
X116424833Y-73612623D01*
X116321549Y-73363272D01*
X116270684Y-73240474D01*
X116192100Y-72845406D01*
X116192100Y-72442594D01*
X116270684Y-72047526D01*
X116392438Y-71753586D01*
X116424833Y-71675377D01*
X116648623Y-71340452D01*
X116933452Y-71055623D01*
X117268377Y-70831833D01*
X117422526Y-70767983D01*
X117640526Y-70677684D01*
X118035594Y-70599100D01*
X118438406Y-70599100D01*
X118833474Y-70677684D01*
X118833474Y-70677684D01*
G37*
G36*
X99524474Y-70673684D02*
G01*
X99742474Y-70763983D01*
X99896623Y-70827833D01*
X100231548Y-71051623D01*
X100516377Y-71336452D01*
X100740167Y-71671377D01*
X100774219Y-71753586D01*
X100894316Y-72043526D01*
X100972900Y-72438594D01*
X100972900Y-72841406D01*
X100894316Y-73236474D01*
X100843451Y-73359272D01*
X100740167Y-73608623D01*
X100516377Y-73943548D01*
X100231548Y-74228377D01*
X99896623Y-74452167D01*
X99742474Y-74516017D01*
X99524474Y-74606316D01*
X99129406Y-74684900D01*
X98726594Y-74684900D01*
X98331526Y-74606316D01*
X98113526Y-74516017D01*
X97959377Y-74452167D01*
X97624452Y-74228377D01*
X97339623Y-73943548D01*
X97115833Y-73608623D01*
X97012549Y-73359272D01*
X96961684Y-73236474D01*
X96883100Y-72841406D01*
X96883100Y-72438594D01*
X96961684Y-72043526D01*
X97081781Y-71753586D01*
X97115833Y-71671377D01*
X97339623Y-71336452D01*
X97624452Y-71051623D01*
X97959377Y-70827833D01*
X98113526Y-70763983D01*
X98331526Y-70673684D01*
X98726594Y-70595100D01*
X99129406Y-70595100D01*
X99524474Y-70673684D01*
X99524474Y-70673684D01*
G37*
G36*
X107839000Y-74541000D02*
G01*
X106537000Y-74541000D01*
X106537000Y-73539000D01*
X107839000Y-73539000D01*
X107839000Y-74541000D01*
X107839000Y-74541000D01*
G37*
G36*
X127143000Y-74541000D02*
G01*
X125841000Y-74541000D01*
X125841000Y-73539000D01*
X127143000Y-73539000D01*
X127143000Y-74541000D01*
X127143000Y-74541000D01*
G37*
G36*
X113427104Y-71753585D02*
G01*
X113595626Y-71823389D01*
X113747291Y-71924728D01*
X113876272Y-72053709D01*
X113977611Y-72205374D01*
X114047415Y-72373896D01*
X114083000Y-72552797D01*
X114083000Y-72735203D01*
X114047415Y-72914104D01*
X113977611Y-73082626D01*
X113876272Y-73234291D01*
X113747291Y-73363272D01*
X113595626Y-73464611D01*
X113427104Y-73534415D01*
X113248203Y-73570000D01*
X113065797Y-73570000D01*
X112886896Y-73534415D01*
X112718374Y-73464611D01*
X112566709Y-73363272D01*
X112437728Y-73234291D01*
X112336389Y-73082626D01*
X112266585Y-72914104D01*
X112231000Y-72735203D01*
X112231000Y-72552797D01*
X112266585Y-72373896D01*
X112336389Y-72205374D01*
X112437728Y-72053709D01*
X112566709Y-71924728D01*
X112718374Y-71823389D01*
X112886896Y-71753585D01*
X113065797Y-71718000D01*
X113248203Y-71718000D01*
X113427104Y-71753585D01*
X113427104Y-71753585D01*
G37*
G36*
X123587104Y-71753585D02*
G01*
X123755626Y-71823389D01*
X123907291Y-71924728D01*
X124036272Y-72053709D01*
X124137611Y-72205374D01*
X124207415Y-72373896D01*
X124243000Y-72552797D01*
X124243000Y-72735203D01*
X124207415Y-72914104D01*
X124137611Y-73082626D01*
X124036272Y-73234291D01*
X123907291Y-73363272D01*
X123755626Y-73464611D01*
X123587104Y-73534415D01*
X123408203Y-73570000D01*
X123225797Y-73570000D01*
X123046896Y-73534415D01*
X122878374Y-73464611D01*
X122726709Y-73363272D01*
X122597728Y-73234291D01*
X122496389Y-73082626D01*
X122426585Y-72914104D01*
X122391000Y-72735203D01*
X122391000Y-72552797D01*
X122426585Y-72373896D01*
X122496389Y-72205374D01*
X122597728Y-72053709D01*
X122726709Y-71924728D01*
X122878374Y-71823389D01*
X123046896Y-71753585D01*
X123225797Y-71718000D01*
X123408203Y-71718000D01*
X123587104Y-71753585D01*
X123587104Y-71753585D01*
G37*
G36*
X104278104Y-71749585D02*
G01*
X104446626Y-71819389D01*
X104598291Y-71920728D01*
X104727272Y-72049709D01*
X104828611Y-72201374D01*
X104898415Y-72369896D01*
X104934000Y-72548797D01*
X104934000Y-72731203D01*
X104898415Y-72910104D01*
X104828611Y-73078626D01*
X104727272Y-73230291D01*
X104598291Y-73359272D01*
X104446626Y-73460611D01*
X104278104Y-73530415D01*
X104099203Y-73566000D01*
X103916797Y-73566000D01*
X103737896Y-73530415D01*
X103569374Y-73460611D01*
X103417709Y-73359272D01*
X103288728Y-73230291D01*
X103187389Y-73078626D01*
X103117585Y-72910104D01*
X103082000Y-72731203D01*
X103082000Y-72548797D01*
X103117585Y-72369896D01*
X103187389Y-72201374D01*
X103288728Y-72049709D01*
X103417709Y-71920728D01*
X103569374Y-71819389D01*
X103737896Y-71749585D01*
X103916797Y-71714000D01*
X104099203Y-71714000D01*
X104278104Y-71749585D01*
X104278104Y-71749585D01*
G37*
G36*
X94118104Y-71749585D02*
G01*
X94286626Y-71819389D01*
X94438291Y-71920728D01*
X94567272Y-72049709D01*
X94668611Y-72201374D01*
X94738415Y-72369896D01*
X94774000Y-72548797D01*
X94774000Y-72731203D01*
X94738415Y-72910104D01*
X94668611Y-73078626D01*
X94567272Y-73230291D01*
X94438291Y-73359272D01*
X94286626Y-73460611D01*
X94118104Y-73530415D01*
X93939203Y-73566000D01*
X93756797Y-73566000D01*
X93577896Y-73530415D01*
X93409374Y-73460611D01*
X93257709Y-73359272D01*
X93128728Y-73230291D01*
X93027389Y-73078626D01*
X92957585Y-72910104D01*
X92922000Y-72731203D01*
X92922000Y-72548797D01*
X92957585Y-72369896D01*
X93027389Y-72201374D01*
X93128728Y-72049709D01*
X93257709Y-71920728D01*
X93409374Y-71819389D01*
X93577896Y-71749585D01*
X93756797Y-71714000D01*
X93939203Y-71714000D01*
X94118104Y-71749585D01*
X94118104Y-71749585D01*
G37*
G36*
X107839000Y-71241000D02*
G01*
X106537000Y-71241000D01*
X106537000Y-70239000D01*
X107839000Y-70239000D01*
X107839000Y-71241000D01*
X107839000Y-71241000D01*
G37*
G36*
X127143000Y-71241000D02*
G01*
X125841000Y-71241000D01*
X125841000Y-70239000D01*
X127143000Y-70239000D01*
X127143000Y-71241000D01*
X127143000Y-71241000D01*
G37*
G36*
X85763000Y-62344000D02*
G01*
X84561000Y-62344000D01*
X84561000Y-60442000D01*
X85763000Y-60442000D01*
X85763000Y-62344000D01*
X85763000Y-62344000D01*
G37*
G36*
X82063000Y-62344000D02*
G01*
X80861000Y-62344000D01*
X80861000Y-60442000D01*
X82063000Y-60442000D01*
X82063000Y-62344000D01*
X82063000Y-62344000D01*
G37*
G36*
X48925442Y-59778518D02*
G01*
X48991627Y-59785037D01*
X49161466Y-59836557D01*
X49317991Y-59920222D01*
X49353729Y-59949552D01*
X49455186Y-60032814D01*
X49538448Y-60134271D01*
X49567778Y-60170009D01*
X49651443Y-60326534D01*
X49702963Y-60496373D01*
X49720359Y-60673000D01*
X49702963Y-60849627D01*
X49651443Y-61019466D01*
X49567778Y-61175991D01*
X49538448Y-61211729D01*
X49455186Y-61313186D01*
X49353729Y-61396448D01*
X49317991Y-61425778D01*
X49161466Y-61509443D01*
X48991627Y-61560963D01*
X48925442Y-61567482D01*
X48859260Y-61574000D01*
X47770740Y-61574000D01*
X47704558Y-61567482D01*
X47638373Y-61560963D01*
X47468534Y-61509443D01*
X47312009Y-61425778D01*
X47276271Y-61396448D01*
X47174814Y-61313186D01*
X47091552Y-61211729D01*
X47062222Y-61175991D01*
X46978557Y-61019466D01*
X46927037Y-60849627D01*
X46909641Y-60673000D01*
X46927037Y-60496373D01*
X46978557Y-60326534D01*
X47062222Y-60170009D01*
X47091552Y-60134271D01*
X47174814Y-60032814D01*
X47276271Y-59949552D01*
X47312009Y-59920222D01*
X47468534Y-59836557D01*
X47638373Y-59785037D01*
X47704558Y-59778518D01*
X47770740Y-59772000D01*
X48859260Y-59772000D01*
X48925442Y-59778518D01*
X48925442Y-59778518D01*
G37*
G36*
X44425442Y-59778518D02*
G01*
X44491627Y-59785037D01*
X44661466Y-59836557D01*
X44817991Y-59920222D01*
X44853729Y-59949552D01*
X44955186Y-60032814D01*
X45038448Y-60134271D01*
X45067778Y-60170009D01*
X45151443Y-60326534D01*
X45202963Y-60496373D01*
X45220359Y-60673000D01*
X45202963Y-60849627D01*
X45151443Y-61019466D01*
X45067778Y-61175991D01*
X45038448Y-61211729D01*
X44955186Y-61313186D01*
X44853729Y-61396448D01*
X44817991Y-61425778D01*
X44661466Y-61509443D01*
X44491627Y-61560963D01*
X44425442Y-61567482D01*
X44359260Y-61574000D01*
X43270740Y-61574000D01*
X43204558Y-61567482D01*
X43138373Y-61560963D01*
X42968534Y-61509443D01*
X42812009Y-61425778D01*
X42776271Y-61396448D01*
X42674814Y-61313186D01*
X42591552Y-61211729D01*
X42562222Y-61175991D01*
X42478557Y-61019466D01*
X42427037Y-60849627D01*
X42409641Y-60673000D01*
X42427037Y-60496373D01*
X42478557Y-60326534D01*
X42562222Y-60170009D01*
X42591552Y-60134271D01*
X42674814Y-60032814D01*
X42776271Y-59949552D01*
X42812009Y-59920222D01*
X42968534Y-59836557D01*
X43138373Y-59785037D01*
X43204558Y-59778518D01*
X43270740Y-59772000D01*
X44359260Y-59772000D01*
X44425442Y-59778518D01*
X44425442Y-59778518D01*
G37*
G36*
X82063000Y-56144000D02*
G01*
X80861000Y-56144000D01*
X80861000Y-54242000D01*
X82063000Y-54242000D01*
X82063000Y-56144000D01*
X82063000Y-56144000D01*
G37*
G36*
X85763000Y-56144000D02*
G01*
X84561000Y-56144000D01*
X84561000Y-54242000D01*
X85763000Y-54242000D01*
X85763000Y-56144000D01*
X85763000Y-56144000D01*
G37*
G36*
X107966000Y-55872000D02*
G01*
X106664000Y-55872000D01*
X106664000Y-54870000D01*
X107966000Y-54870000D01*
X107966000Y-55872000D01*
X107966000Y-55872000D01*
G37*
G36*
X127143000Y-55745000D02*
G01*
X125841000Y-55745000D01*
X125841000Y-54743000D01*
X127143000Y-54743000D01*
X127143000Y-55745000D01*
X127143000Y-55745000D01*
G37*
G36*
X118833474Y-51627684D02*
G01*
X119051474Y-51717983D01*
X119205623Y-51781833D01*
X119540548Y-52005623D01*
X119825377Y-52290452D01*
X120049167Y-52625377D01*
X120081562Y-52703586D01*
X120203316Y-52997526D01*
X120281900Y-53392594D01*
X120281900Y-53795406D01*
X120203316Y-54190474D01*
X120152451Y-54313272D01*
X120049167Y-54562623D01*
X119825377Y-54897548D01*
X119540548Y-55182377D01*
X119205623Y-55406167D01*
X119051474Y-55470017D01*
X118833474Y-55560316D01*
X118438406Y-55638900D01*
X118035594Y-55638900D01*
X117640526Y-55560316D01*
X117422526Y-55470017D01*
X117268377Y-55406167D01*
X116933452Y-55182377D01*
X116648623Y-54897548D01*
X116424833Y-54562623D01*
X116321549Y-54313272D01*
X116270684Y-54190474D01*
X116192100Y-53795406D01*
X116192100Y-53392594D01*
X116270684Y-52997526D01*
X116392438Y-52703586D01*
X116424833Y-52625377D01*
X116648623Y-52290452D01*
X116933452Y-52005623D01*
X117268377Y-51781833D01*
X117422526Y-51717983D01*
X117640526Y-51627684D01*
X118035594Y-51549100D01*
X118438406Y-51549100D01*
X118833474Y-51627684D01*
X118833474Y-51627684D01*
G37*
G36*
X99529474Y-51627684D02*
G01*
X99747474Y-51717983D01*
X99901623Y-51781833D01*
X100236548Y-52005623D01*
X100521377Y-52290452D01*
X100745167Y-52625377D01*
X100777562Y-52703586D01*
X100899316Y-52997526D01*
X100977900Y-53392594D01*
X100977900Y-53795406D01*
X100899316Y-54190474D01*
X100848451Y-54313272D01*
X100745167Y-54562623D01*
X100521377Y-54897548D01*
X100236548Y-55182377D01*
X99901623Y-55406167D01*
X99747474Y-55470017D01*
X99529474Y-55560316D01*
X99134406Y-55638900D01*
X98731594Y-55638900D01*
X98336526Y-55560316D01*
X98118526Y-55470017D01*
X97964377Y-55406167D01*
X97629452Y-55182377D01*
X97344623Y-54897548D01*
X97120833Y-54562623D01*
X97017549Y-54313272D01*
X96966684Y-54190474D01*
X96888100Y-53795406D01*
X96888100Y-53392594D01*
X96966684Y-52997526D01*
X97088438Y-52703586D01*
X97120833Y-52625377D01*
X97344623Y-52290452D01*
X97629452Y-52005623D01*
X97964377Y-51781833D01*
X98118526Y-51717983D01*
X98336526Y-51627684D01*
X98731594Y-51549100D01*
X99134406Y-51549100D01*
X99529474Y-51627684D01*
X99529474Y-51627684D01*
G37*
G36*
X94123104Y-52703585D02*
G01*
X94291626Y-52773389D01*
X94443291Y-52874728D01*
X94572272Y-53003709D01*
X94673611Y-53155374D01*
X94743415Y-53323896D01*
X94779000Y-53502797D01*
X94779000Y-53685203D01*
X94743415Y-53864104D01*
X94673611Y-54032626D01*
X94572272Y-54184291D01*
X94443291Y-54313272D01*
X94291626Y-54414611D01*
X94123104Y-54484415D01*
X93944203Y-54520000D01*
X93761797Y-54520000D01*
X93582896Y-54484415D01*
X93414374Y-54414611D01*
X93262709Y-54313272D01*
X93133728Y-54184291D01*
X93032389Y-54032626D01*
X92962585Y-53864104D01*
X92927000Y-53685203D01*
X92927000Y-53502797D01*
X92962585Y-53323896D01*
X93032389Y-53155374D01*
X93133728Y-53003709D01*
X93262709Y-52874728D01*
X93414374Y-52773389D01*
X93582896Y-52703585D01*
X93761797Y-52668000D01*
X93944203Y-52668000D01*
X94123104Y-52703585D01*
X94123104Y-52703585D01*
G37*
G36*
X123587104Y-52703585D02*
G01*
X123755626Y-52773389D01*
X123907291Y-52874728D01*
X124036272Y-53003709D01*
X124137611Y-53155374D01*
X124207415Y-53323896D01*
X124243000Y-53502797D01*
X124243000Y-53685203D01*
X124207415Y-53864104D01*
X124137611Y-54032626D01*
X124036272Y-54184291D01*
X123907291Y-54313272D01*
X123755626Y-54414611D01*
X123587104Y-54484415D01*
X123408203Y-54520000D01*
X123225797Y-54520000D01*
X123046896Y-54484415D01*
X122878374Y-54414611D01*
X122726709Y-54313272D01*
X122597728Y-54184291D01*
X122496389Y-54032626D01*
X122426585Y-53864104D01*
X122391000Y-53685203D01*
X122391000Y-53502797D01*
X122426585Y-53323896D01*
X122496389Y-53155374D01*
X122597728Y-53003709D01*
X122726709Y-52874728D01*
X122878374Y-52773389D01*
X123046896Y-52703585D01*
X123225797Y-52668000D01*
X123408203Y-52668000D01*
X123587104Y-52703585D01*
X123587104Y-52703585D01*
G37*
G36*
X113427104Y-52703585D02*
G01*
X113595626Y-52773389D01*
X113747291Y-52874728D01*
X113876272Y-53003709D01*
X113977611Y-53155374D01*
X114047415Y-53323896D01*
X114083000Y-53502797D01*
X114083000Y-53685203D01*
X114047415Y-53864104D01*
X113977611Y-54032626D01*
X113876272Y-54184291D01*
X113747291Y-54313272D01*
X113595626Y-54414611D01*
X113427104Y-54484415D01*
X113248203Y-54520000D01*
X113065797Y-54520000D01*
X112886896Y-54484415D01*
X112718374Y-54414611D01*
X112566709Y-54313272D01*
X112437728Y-54184291D01*
X112336389Y-54032626D01*
X112266585Y-53864104D01*
X112231000Y-53685203D01*
X112231000Y-53502797D01*
X112266585Y-53323896D01*
X112336389Y-53155374D01*
X112437728Y-53003709D01*
X112566709Y-52874728D01*
X112718374Y-52773389D01*
X112886896Y-52703585D01*
X113065797Y-52668000D01*
X113248203Y-52668000D01*
X113427104Y-52703585D01*
X113427104Y-52703585D01*
G37*
G36*
X104283104Y-52703585D02*
G01*
X104451626Y-52773389D01*
X104603291Y-52874728D01*
X104732272Y-53003709D01*
X104833611Y-53155374D01*
X104903415Y-53323896D01*
X104939000Y-53502797D01*
X104939000Y-53685203D01*
X104903415Y-53864104D01*
X104833611Y-54032626D01*
X104732272Y-54184291D01*
X104603291Y-54313272D01*
X104451626Y-54414611D01*
X104283104Y-54484415D01*
X104104203Y-54520000D01*
X103921797Y-54520000D01*
X103742896Y-54484415D01*
X103574374Y-54414611D01*
X103422709Y-54313272D01*
X103293728Y-54184291D01*
X103192389Y-54032626D01*
X103122585Y-53864104D01*
X103087000Y-53685203D01*
X103087000Y-53502797D01*
X103122585Y-53323896D01*
X103192389Y-53155374D01*
X103293728Y-53003709D01*
X103422709Y-52874728D01*
X103574374Y-52773389D01*
X103742896Y-52703585D01*
X103921797Y-52668000D01*
X104104203Y-52668000D01*
X104283104Y-52703585D01*
X104283104Y-52703585D01*
G37*
G36*
X48925442Y-52478518D02*
G01*
X48991627Y-52485037D01*
X49161466Y-52536557D01*
X49317991Y-52620222D01*
X49353729Y-52649552D01*
X49455186Y-52732814D01*
X49538448Y-52834271D01*
X49567778Y-52870009D01*
X49651443Y-53026534D01*
X49702963Y-53196373D01*
X49720359Y-53373000D01*
X49702963Y-53549627D01*
X49651443Y-53719466D01*
X49567778Y-53875991D01*
X49538448Y-53911729D01*
X49455186Y-54013186D01*
X49353729Y-54096448D01*
X49317991Y-54125778D01*
X49161466Y-54209443D01*
X48991627Y-54260963D01*
X48925442Y-54267482D01*
X48859260Y-54274000D01*
X47770740Y-54274000D01*
X47704558Y-54267482D01*
X47638373Y-54260963D01*
X47468534Y-54209443D01*
X47312009Y-54125778D01*
X47276271Y-54096448D01*
X47174814Y-54013186D01*
X47091552Y-53911729D01*
X47062222Y-53875991D01*
X46978557Y-53719466D01*
X46927037Y-53549627D01*
X46909641Y-53373000D01*
X46927037Y-53196373D01*
X46978557Y-53026534D01*
X47062222Y-52870009D01*
X47091552Y-52834271D01*
X47174814Y-52732814D01*
X47276271Y-52649552D01*
X47312009Y-52620222D01*
X47468534Y-52536557D01*
X47638373Y-52485037D01*
X47704557Y-52478519D01*
X47770740Y-52472000D01*
X48859260Y-52472000D01*
X48925442Y-52478518D01*
X48925442Y-52478518D01*
G37*
G36*
X44425442Y-52478518D02*
G01*
X44491627Y-52485037D01*
X44661466Y-52536557D01*
X44817991Y-52620222D01*
X44853729Y-52649552D01*
X44955186Y-52732814D01*
X45038448Y-52834271D01*
X45067778Y-52870009D01*
X45151443Y-53026534D01*
X45202963Y-53196373D01*
X45220359Y-53373000D01*
X45202963Y-53549627D01*
X45151443Y-53719466D01*
X45067778Y-53875991D01*
X45038448Y-53911729D01*
X44955186Y-54013186D01*
X44853729Y-54096448D01*
X44817991Y-54125778D01*
X44661466Y-54209443D01*
X44491627Y-54260963D01*
X44425442Y-54267482D01*
X44359260Y-54274000D01*
X43270740Y-54274000D01*
X43204558Y-54267482D01*
X43138373Y-54260963D01*
X42968534Y-54209443D01*
X42812009Y-54125778D01*
X42776271Y-54096448D01*
X42674814Y-54013186D01*
X42591552Y-53911729D01*
X42562222Y-53875991D01*
X42478557Y-53719466D01*
X42427037Y-53549627D01*
X42409641Y-53373000D01*
X42427037Y-53196373D01*
X42478557Y-53026534D01*
X42562222Y-52870009D01*
X42591552Y-52834271D01*
X42674814Y-52732814D01*
X42776271Y-52649552D01*
X42812009Y-52620222D01*
X42968534Y-52536557D01*
X43138373Y-52485037D01*
X43204557Y-52478519D01*
X43270740Y-52472000D01*
X44359260Y-52472000D01*
X44425442Y-52478518D01*
X44425442Y-52478518D01*
G37*
G36*
X107966000Y-52572000D02*
G01*
X106664000Y-52572000D01*
X106664000Y-51570000D01*
X107966000Y-51570000D01*
X107966000Y-52572000D01*
X107966000Y-52572000D01*
G37*
G36*
X127143000Y-52445000D02*
G01*
X125841000Y-52445000D01*
X125841000Y-51443000D01*
X127143000Y-51443000D01*
X127143000Y-52445000D01*
X127143000Y-52445000D01*
G37*
M02*
