G04 #@! TF.GenerationSoftware,KiCad,Pcbnew,(5.1.4)-1*
G04 #@! TF.CreationDate,2020-10-27T19:19:28+03:00*
G04 #@! TF.ProjectId,100_keyboard,3130305f-6b65-4796-926f-6172642e6b69,rev?*
G04 #@! TF.SameCoordinates,Original*
G04 #@! TF.FileFunction,Copper,L2,Bot*
G04 #@! TF.FilePolarity,Positive*
%FSLAX46Y46*%
G04 Gerber Fmt 4.6, Leading zero omitted, Abs format (unit mm)*
G04 Created by KiCad (PCBNEW (5.1.4)-1) date 2020-10-27 19:19:28*
%MOMM*%
%LPD*%
G04 APERTURE LIST*
%ADD10R,1.905000X1.905000*%
%ADD11C,1.905000*%
%ADD12C,2.250000*%
%ADD13C,2.250000*%
%ADD14O,2.700000X1.700000*%
%ADD15R,1.100000X1.800000*%
%ADD16R,1.200000X0.900000*%
%ADD17C,0.800000*%
%ADD18C,0.381000*%
%ADD19C,0.254000*%
G04 APERTURE END LIST*
D10*
X119507000Y-48514000D03*
D11*
X116967000Y-48514000D03*
D12*
X115737000Y-57594000D03*
X115082001Y-56864000D03*
D13*
X114427000Y-56134000D02*
X115737002Y-57594000D01*
D12*
X120777000Y-58674000D03*
X120757000Y-58384000D03*
D13*
X120737000Y-58094000D02*
X120777000Y-58674000D01*
D14*
X43815000Y-53373000D03*
X43815000Y-60673000D03*
X48315000Y-60673000D03*
X48315000Y-53373000D03*
D15*
X85162000Y-55193000D03*
X81462000Y-61393000D03*
X81462000Y-55193000D03*
X85162000Y-61393000D03*
D10*
X100203000Y-48514000D03*
D11*
X97663000Y-48514000D03*
D12*
X96433000Y-57594000D03*
X95778001Y-56864000D03*
D13*
X95123000Y-56134000D02*
X96433002Y-57594000D01*
D12*
X101473000Y-58674000D03*
X101453000Y-58384000D03*
D13*
X101433000Y-58094000D02*
X101473000Y-58674000D01*
D10*
X119507000Y-67564000D03*
D11*
X116967000Y-67564000D03*
D12*
X115737000Y-76644000D03*
X115082001Y-75914000D03*
D13*
X114427000Y-75184000D02*
X115737002Y-76644000D01*
D12*
X120777000Y-77724000D03*
X120757000Y-77434000D03*
D13*
X120737000Y-77144000D02*
X120777000Y-77724000D01*
D10*
X100198000Y-67560000D03*
D11*
X97658000Y-67560000D03*
D12*
X96428000Y-76640000D03*
X95773001Y-75910000D03*
D13*
X95118000Y-75180000D02*
X96428002Y-76640000D01*
D12*
X101468000Y-77720000D03*
X101448000Y-77430000D03*
D13*
X101428000Y-77140000D02*
X101468000Y-77720000D01*
D16*
X126492000Y-55244000D03*
X126492000Y-51944000D03*
X107315000Y-55371000D03*
X107315000Y-52071000D03*
X126492000Y-74040000D03*
X126492000Y-70740000D03*
X107188000Y-74040000D03*
X107188000Y-70740000D03*
D17*
X63500000Y-61912500D03*
X74612500Y-64293750D03*
X74422000Y-66675000D03*
X68072000Y-81788000D03*
X69088000Y-81788000D03*
X66929000Y-81915000D03*
X56356250Y-58737500D03*
X60325000Y-76406253D03*
X56356250Y-57150000D03*
X60325000Y-75406250D03*
X85344000Y-63500000D03*
D18*
X63500000Y-61912500D02*
X65881250Y-64293750D01*
X65881250Y-64293750D02*
X74612500Y-64293750D01*
X74612500Y-64293750D02*
X74612500Y-66484500D01*
X74612500Y-66484500D02*
X74422000Y-66675000D01*
D19*
X74612500Y-63728065D02*
X74612500Y-64293750D01*
X74612500Y-61238500D02*
X74612500Y-63728065D01*
X80658000Y-55193000D02*
X74612500Y-61238500D01*
X81462000Y-55193000D02*
X80658000Y-55193000D01*
X105148000Y-74040000D02*
X101468000Y-77720000D01*
X107188000Y-74040000D02*
X105148000Y-74040000D01*
X107338000Y-70740000D02*
X107188000Y-70740000D01*
X108042000Y-70036000D02*
X107338000Y-70740000D01*
X125638000Y-70036000D02*
X108042000Y-70036000D01*
X126342000Y-70740000D02*
X125638000Y-70036000D01*
X126492000Y-70740000D02*
X126342000Y-70740000D01*
X68072000Y-81847962D02*
X68072000Y-81788000D01*
X107188000Y-70740000D02*
X107038000Y-70740000D01*
X107038000Y-70740000D02*
X106334000Y-70036000D01*
X106334000Y-70036000D02*
X81915962Y-70036000D01*
X81915962Y-70036000D02*
X69436961Y-82515001D01*
X69436961Y-82515001D02*
X68739039Y-82515001D01*
X68739039Y-82515001D02*
X68072000Y-81847962D01*
X121357000Y-77144000D02*
X120737000Y-77144000D01*
X124461000Y-74040000D02*
X121357000Y-77144000D01*
X126492000Y-74040000D02*
X124461000Y-74040000D01*
X104156000Y-55371000D02*
X107315000Y-55371000D01*
X101433000Y-58094000D02*
X104156000Y-55371000D01*
X126492000Y-51944000D02*
X125638000Y-51944000D01*
X126342000Y-51944000D02*
X124817000Y-50419000D01*
X126492000Y-51944000D02*
X126342000Y-51944000D01*
X108169000Y-52071000D02*
X107315000Y-52071000D01*
X109821000Y-50419000D02*
X108169000Y-52071000D01*
X124817000Y-50419000D02*
X109821000Y-50419000D01*
X106461000Y-52071000D02*
X105663099Y-51273099D01*
X69487999Y-81388001D02*
X69088000Y-81788000D01*
X107315000Y-52071000D02*
X106461000Y-52071000D01*
X93243299Y-51273099D02*
X82339001Y-62177397D01*
X105663099Y-51273099D02*
X93243299Y-51273099D01*
X82339001Y-62177397D02*
X82339001Y-68536999D01*
X82339001Y-68536999D02*
X69487999Y-81388001D01*
X121357000Y-58094000D02*
X120737000Y-58094000D01*
X124207000Y-55244000D02*
X121357000Y-58094000D01*
X126492000Y-55244000D02*
X124207000Y-55244000D01*
X67983011Y-82969011D02*
X66929000Y-81915000D01*
X95118000Y-75180000D02*
X87328989Y-82969011D01*
X87328989Y-82969011D02*
X67983011Y-82969011D01*
X60249041Y-76406253D02*
X60325000Y-76406253D01*
X56356250Y-58737500D02*
X56356250Y-72513462D01*
X56356250Y-72513462D02*
X60249041Y-76406253D01*
X56356250Y-57150000D02*
X60325000Y-61118750D01*
X60325000Y-61118750D02*
X60325000Y-75406250D01*
X85344000Y-61575000D02*
X85162000Y-61393000D01*
X85344000Y-63500000D02*
X85344000Y-61575000D01*
M02*
