M48
; DRILL file {KiCad (5.1.4)-1} date 19/12/2020 20:41:23
; FORMAT={-:-/ absolute / inch / decimal}
; #@! TF.CreationDate,2020-12-19T20:41:23+02:00
; #@! TF.GenerationSoftware,Kicad,Pcbnew,(5.1.4)-1
; #@! TF.FileFunction,Plated,1,2,PTH
FMAT,2
INCH
T1C0.0157
T2C0.0276
T3C0.0409
T4C0.0579
%
G90
G05
T1
X4.6654Y-4.2717
X4.6654Y-4.4094
X5.315Y-3.7008
X5.5906Y-3.7008
T3
X4.202Y-3.7039
X4.302Y-3.7039
X3.453Y-3.703
X3.553Y-3.703
X3.4539Y-4.452
X3.5539Y-4.452
X4.202Y-4.452
X4.302Y-4.452
T4
X4.152Y-4.052
X4.1535Y-4.0748
X4.3504Y-4.0945
X4.402Y-4.152
X4.152Y-3.3039
X4.1535Y-3.3268
X4.3504Y-3.3465
X4.402Y-3.4039
X3.403Y-3.303
X3.4045Y-3.3258
X3.6014Y-3.3455
X3.653Y-3.403
X3.4039Y-4.052
X3.4055Y-4.0748
X3.6024Y-4.0945
X3.6539Y-4.152
T2
G00X4.7244Y-3.1654
M15
G01X4.7244Y-3.2126
M16
G05
G00X4.7244Y-3.3425
M15
G01X4.7244Y-3.3898
M16
G05
G00X5.0118Y-3.1654
M15
G01X5.0118Y-3.2126
M16
G05
G00X5.0118Y-3.3425
M15
G01X5.0118Y-3.3898
M16
G05
T0
M30
