G04 #@! TF.GenerationSoftware,KiCad,Pcbnew,(5.1.4)-1*
G04 #@! TF.CreationDate,2020-10-27T18:56:57+03:00*
G04 #@! TF.ProjectId,100_keyboard,3130305f-6b65-4796-926f-6172642e6b69,rev?*
G04 #@! TF.SameCoordinates,Original*
G04 #@! TF.FileFunction,Legend,Bot*
G04 #@! TF.FilePolarity,Positive*
%FSLAX46Y46*%
G04 Gerber Fmt 4.6, Leading zero omitted, Abs format (unit mm)*
G04 Created by KiCad (PCBNEW (5.1.4)-1) date 2020-10-27 18:56:57*
%MOMM*%
%LPD*%
G04 APERTURE LIST*
%ADD10C,0.150000*%
%ADD11C,0.120000*%
%ADD12C,1.852000*%
%ADD13C,4.089800*%
%ADD14O,2.802000X1.802000*%
%ADD15R,1.202000X1.902000*%
%ADD16R,1.302000X1.002000*%
G04 APERTURE END LIST*
D10*
X61951047Y-84272333D02*
X61998666Y-84224714D01*
X62093904Y-84081857D01*
X62141523Y-83986619D01*
X62189142Y-83843761D01*
X62236761Y-83605666D01*
X62236761Y-83415190D01*
X62189142Y-83177095D01*
X62141523Y-83034238D01*
X62093904Y-82939000D01*
X61998666Y-82796142D01*
X61951047Y-82748523D01*
X60998666Y-83796142D02*
X61046285Y-83843761D01*
X61189142Y-83891380D01*
X61284380Y-83891380D01*
X61427238Y-83843761D01*
X61522476Y-83748523D01*
X61570095Y-83653285D01*
X61617714Y-83462809D01*
X61617714Y-83319952D01*
X61570095Y-83129476D01*
X61522476Y-83034238D01*
X61427238Y-82939000D01*
X61284380Y-82891380D01*
X61189142Y-82891380D01*
X61046285Y-82939000D01*
X60998666Y-82986619D01*
X60665333Y-84272333D02*
X60617714Y-84224714D01*
X60522476Y-84081857D01*
X60474857Y-83986619D01*
X60427238Y-83843761D01*
X60379619Y-83605666D01*
X60379619Y-83415190D01*
X60427238Y-83177095D01*
X60474857Y-83034238D01*
X60522476Y-82939000D01*
X60617714Y-82796142D01*
X60665333Y-82748523D01*
X58998666Y-83891380D02*
X59093904Y-83843761D01*
X59141523Y-83748523D01*
X59141523Y-82891380D01*
X58474857Y-83891380D02*
X58570095Y-83843761D01*
X58617714Y-83796142D01*
X58665333Y-83700904D01*
X58665333Y-83415190D01*
X58617714Y-83319952D01*
X58570095Y-83272333D01*
X58474857Y-83224714D01*
X58332000Y-83224714D01*
X58236761Y-83272333D01*
X58189142Y-83319952D01*
X58141523Y-83415190D01*
X58141523Y-83700904D01*
X58189142Y-83796142D01*
X58236761Y-83843761D01*
X58332000Y-83891380D01*
X58474857Y-83891380D01*
X57284380Y-83843761D02*
X57379619Y-83891380D01*
X57570095Y-83891380D01*
X57665333Y-83843761D01*
X57712952Y-83796142D01*
X57760571Y-83700904D01*
X57760571Y-83415190D01*
X57712952Y-83319952D01*
X57665333Y-83272333D01*
X57570095Y-83224714D01*
X57379619Y-83224714D01*
X57284380Y-83272333D01*
X56427238Y-83891380D02*
X56427238Y-83367571D01*
X56474857Y-83272333D01*
X56570095Y-83224714D01*
X56760571Y-83224714D01*
X56855809Y-83272333D01*
X56427238Y-83843761D02*
X56522476Y-83891380D01*
X56760571Y-83891380D01*
X56855809Y-83843761D01*
X56903428Y-83748523D01*
X56903428Y-83653285D01*
X56855809Y-83558047D01*
X56760571Y-83510428D01*
X56522476Y-83510428D01*
X56427238Y-83462809D01*
X55808190Y-83891380D02*
X55903428Y-83843761D01*
X55951047Y-83748523D01*
X55951047Y-82891380D01*
X54998666Y-83843761D02*
X55093904Y-83891380D01*
X55284380Y-83891380D01*
X55379619Y-83843761D01*
X55427238Y-83796142D01*
X55474857Y-83700904D01*
X55474857Y-83415190D01*
X55427238Y-83319952D01*
X55379619Y-83272333D01*
X55284380Y-83224714D01*
X55093904Y-83224714D01*
X54998666Y-83272333D01*
X54141523Y-83843761D02*
X54236761Y-83891380D01*
X54427238Y-83891380D01*
X54522476Y-83843761D01*
X54570095Y-83796142D01*
X54617714Y-83700904D01*
X54617714Y-83415190D01*
X54570095Y-83319952D01*
X54522476Y-83272333D01*
X54427238Y-83224714D01*
X54236761Y-83224714D01*
X54141523Y-83272333D01*
X52141523Y-83891380D02*
X52189142Y-83891380D01*
X52284380Y-83843761D01*
X52427238Y-83700904D01*
X52665333Y-83415190D01*
X52760571Y-83272333D01*
X52808190Y-83129476D01*
X52808190Y-83034238D01*
X52760571Y-82939000D01*
X52665333Y-82891380D01*
X52617714Y-82891380D01*
X52522476Y-82939000D01*
X52474857Y-83034238D01*
X52474857Y-83081857D01*
X52522476Y-83177095D01*
X52570095Y-83224714D01*
X52855809Y-83415190D01*
X52903428Y-83462809D01*
X52951047Y-83558047D01*
X52951047Y-83700904D01*
X52903428Y-83796142D01*
X52855809Y-83843761D01*
X52760571Y-83891380D01*
X52617714Y-83891380D01*
X52522476Y-83843761D01*
X52474857Y-83796142D01*
X52332000Y-83605666D01*
X52284380Y-83462809D01*
X52284380Y-83367571D01*
X51046285Y-83224714D02*
X50522476Y-83224714D01*
X51046285Y-83891380D01*
X50522476Y-83891380D01*
X49998666Y-83891380D02*
X50093904Y-83843761D01*
X50141523Y-83748523D01*
X50141523Y-82891380D01*
X49474857Y-83891380D02*
X49570095Y-83843761D01*
X49617714Y-83796142D01*
X49665333Y-83700904D01*
X49665333Y-83415190D01*
X49617714Y-83319952D01*
X49570095Y-83272333D01*
X49474857Y-83224714D01*
X49332000Y-83224714D01*
X49236761Y-83272333D01*
X49189142Y-83319952D01*
X49141523Y-83415190D01*
X49141523Y-83700904D01*
X49189142Y-83796142D01*
X49236761Y-83843761D01*
X49332000Y-83891380D01*
X49474857Y-83891380D01*
X48808190Y-83224714D02*
X48570095Y-83891380D01*
X48332000Y-83224714D01*
X47522476Y-83891380D02*
X47522476Y-83367571D01*
X47570095Y-83272333D01*
X47665333Y-83224714D01*
X47855809Y-83224714D01*
X47951047Y-83272333D01*
X47522476Y-83843761D02*
X47617714Y-83891380D01*
X47855809Y-83891380D01*
X47951047Y-83843761D01*
X47998666Y-83748523D01*
X47998666Y-83653285D01*
X47951047Y-83558047D01*
X47855809Y-83510428D01*
X47617714Y-83510428D01*
X47522476Y-83462809D01*
X47046285Y-83224714D02*
X47046285Y-83891380D01*
X47046285Y-83319952D02*
X46998666Y-83272333D01*
X46903428Y-83224714D01*
X46760571Y-83224714D01*
X46665333Y-83272333D01*
X46617714Y-83367571D01*
X46617714Y-83891380D01*
X46284380Y-83224714D02*
X45903428Y-83224714D01*
X46141523Y-82891380D02*
X46141523Y-83748523D01*
X46093904Y-83843761D01*
X45998666Y-83891380D01*
X45903428Y-83891380D01*
X45141523Y-83224714D02*
X45141523Y-83891380D01*
X45570095Y-83224714D02*
X45570095Y-83748523D01*
X45522476Y-83843761D01*
X45427238Y-83891380D01*
X45284380Y-83891380D01*
X45189142Y-83843761D01*
X45141523Y-83796142D01*
X44760571Y-83224714D02*
X44236761Y-83224714D01*
X44760571Y-83891380D01*
X44236761Y-83891380D01*
X43427238Y-83224714D02*
X43427238Y-83891380D01*
X43855809Y-83224714D02*
X43855809Y-83748523D01*
X43808190Y-83843761D01*
X43712952Y-83891380D01*
X43570095Y-83891380D01*
X43474857Y-83843761D01*
X43427238Y-83796142D01*
X133030857Y-80717000D02*
X133126095Y-80669380D01*
X133268952Y-80669380D01*
X133411809Y-80717000D01*
X133507047Y-80812238D01*
X133554666Y-80907476D01*
X133602285Y-81097952D01*
X133602285Y-81240809D01*
X133554666Y-81431285D01*
X133507047Y-81526523D01*
X133411809Y-81621761D01*
X133268952Y-81669380D01*
X133173714Y-81669380D01*
X133030857Y-81621761D01*
X132983238Y-81574142D01*
X132983238Y-81240809D01*
X133173714Y-81240809D01*
X132554666Y-81669380D02*
X132554666Y-81002714D01*
X132554666Y-80669380D02*
X132602285Y-80717000D01*
X132554666Y-80764619D01*
X132507047Y-80717000D01*
X132554666Y-80669380D01*
X132554666Y-80764619D01*
X132221333Y-81002714D02*
X131840380Y-81002714D01*
X132078476Y-80669380D02*
X132078476Y-81526523D01*
X132030857Y-81621761D01*
X131935619Y-81669380D01*
X131840380Y-81669380D01*
X131507047Y-81669380D02*
X131507047Y-80669380D01*
X131078476Y-81669380D02*
X131078476Y-81145571D01*
X131126095Y-81050333D01*
X131221333Y-81002714D01*
X131364190Y-81002714D01*
X131459428Y-81050333D01*
X131507047Y-81097952D01*
X130173714Y-81002714D02*
X130173714Y-81669380D01*
X130602285Y-81002714D02*
X130602285Y-81526523D01*
X130554666Y-81621761D01*
X130459428Y-81669380D01*
X130316571Y-81669380D01*
X130221333Y-81621761D01*
X130173714Y-81574142D01*
X129697523Y-81669380D02*
X129697523Y-80669380D01*
X129697523Y-81050333D02*
X129602285Y-81002714D01*
X129411809Y-81002714D01*
X129316571Y-81050333D01*
X129268952Y-81097952D01*
X129221333Y-81193190D01*
X129221333Y-81478904D01*
X129268952Y-81574142D01*
X129316571Y-81621761D01*
X129411809Y-81669380D01*
X129602285Y-81669380D01*
X129697523Y-81621761D01*
X128792761Y-81574142D02*
X128745142Y-81621761D01*
X128792761Y-81669380D01*
X128840380Y-81621761D01*
X128792761Y-81574142D01*
X128792761Y-81669380D01*
X128792761Y-81050333D02*
X128745142Y-81097952D01*
X128792761Y-81145571D01*
X128840380Y-81097952D01*
X128792761Y-81050333D01*
X128792761Y-81145571D01*
X127554666Y-81669380D02*
X127554666Y-80669380D01*
X127126095Y-81669380D02*
X127126095Y-81145571D01*
X127173714Y-81050333D01*
X127268952Y-81002714D01*
X127411809Y-81002714D01*
X127507047Y-81050333D01*
X127554666Y-81097952D01*
X126792761Y-81002714D02*
X126411809Y-81002714D01*
X126649904Y-80669380D02*
X126649904Y-81526523D01*
X126602285Y-81621761D01*
X126507047Y-81669380D01*
X126411809Y-81669380D01*
X126221333Y-81002714D02*
X125840380Y-81002714D01*
X126078476Y-80669380D02*
X126078476Y-81526523D01*
X126030857Y-81621761D01*
X125935619Y-81669380D01*
X125840380Y-81669380D01*
X125507047Y-81002714D02*
X125507047Y-82002714D01*
X125507047Y-81050333D02*
X125411809Y-81002714D01*
X125221333Y-81002714D01*
X125126095Y-81050333D01*
X125078476Y-81097952D01*
X125030857Y-81193190D01*
X125030857Y-81478904D01*
X125078476Y-81574142D01*
X125126095Y-81621761D01*
X125221333Y-81669380D01*
X125411809Y-81669380D01*
X125507047Y-81621761D01*
X124649904Y-81621761D02*
X124554666Y-81669380D01*
X124364190Y-81669380D01*
X124268952Y-81621761D01*
X124221333Y-81526523D01*
X124221333Y-81478904D01*
X124268952Y-81383666D01*
X124364190Y-81336047D01*
X124507047Y-81336047D01*
X124602285Y-81288428D01*
X124649904Y-81193190D01*
X124649904Y-81145571D01*
X124602285Y-81050333D01*
X124507047Y-81002714D01*
X124364190Y-81002714D01*
X124268952Y-81050333D01*
X123792761Y-81574142D02*
X123745142Y-81621761D01*
X123792761Y-81669380D01*
X123840380Y-81621761D01*
X123792761Y-81574142D01*
X123792761Y-81669380D01*
X123792761Y-81050333D02*
X123745142Y-81097952D01*
X123792761Y-81145571D01*
X123840380Y-81097952D01*
X123792761Y-81050333D01*
X123792761Y-81145571D01*
X122602285Y-80621761D02*
X123459428Y-81907476D01*
X121554666Y-80621761D02*
X122411809Y-81907476D01*
X120792761Y-81002714D02*
X120792761Y-81812238D01*
X120840380Y-81907476D01*
X120888000Y-81955095D01*
X120983238Y-82002714D01*
X121126095Y-82002714D01*
X121221333Y-81955095D01*
X120792761Y-81621761D02*
X120888000Y-81669380D01*
X121078476Y-81669380D01*
X121173714Y-81621761D01*
X121221333Y-81574142D01*
X121268952Y-81478904D01*
X121268952Y-81193190D01*
X121221333Y-81097952D01*
X121173714Y-81050333D01*
X121078476Y-81002714D01*
X120888000Y-81002714D01*
X120792761Y-81050333D01*
X120316571Y-81669380D02*
X120316571Y-81002714D01*
X120316571Y-80669380D02*
X120364190Y-80717000D01*
X120316571Y-80764619D01*
X120268952Y-80717000D01*
X120316571Y-80669380D01*
X120316571Y-80764619D01*
X119983238Y-81002714D02*
X119602285Y-81002714D01*
X119840380Y-80669380D02*
X119840380Y-81526523D01*
X119792761Y-81621761D01*
X119697523Y-81669380D01*
X119602285Y-81669380D01*
X119268952Y-81669380D02*
X119268952Y-80669380D01*
X118840380Y-81669380D02*
X118840380Y-81145571D01*
X118888000Y-81050333D01*
X118983238Y-81002714D01*
X119126095Y-81002714D01*
X119221333Y-81050333D01*
X119268952Y-81097952D01*
X117935619Y-81002714D02*
X117935619Y-81669380D01*
X118364190Y-81002714D02*
X118364190Y-81526523D01*
X118316571Y-81621761D01*
X118221333Y-81669380D01*
X118078476Y-81669380D01*
X117983238Y-81621761D01*
X117935619Y-81574142D01*
X117459428Y-81669380D02*
X117459428Y-80669380D01*
X117459428Y-81050333D02*
X117364190Y-81002714D01*
X117173714Y-81002714D01*
X117078476Y-81050333D01*
X117030857Y-81097952D01*
X116983238Y-81193190D01*
X116983238Y-81478904D01*
X117030857Y-81574142D01*
X117078476Y-81621761D01*
X117173714Y-81669380D01*
X117364190Y-81669380D01*
X117459428Y-81621761D01*
X116554666Y-81574142D02*
X116507047Y-81621761D01*
X116554666Y-81669380D01*
X116602285Y-81621761D01*
X116554666Y-81574142D01*
X116554666Y-81669380D01*
X115649904Y-81621761D02*
X115745142Y-81669380D01*
X115935619Y-81669380D01*
X116030857Y-81621761D01*
X116078476Y-81574142D01*
X116126095Y-81478904D01*
X116126095Y-81193190D01*
X116078476Y-81097952D01*
X116030857Y-81050333D01*
X115935619Y-81002714D01*
X115745142Y-81002714D01*
X115649904Y-81050333D01*
X115078476Y-81669380D02*
X115173714Y-81621761D01*
X115221333Y-81574142D01*
X115268952Y-81478904D01*
X115268952Y-81193190D01*
X115221333Y-81097952D01*
X115173714Y-81050333D01*
X115078476Y-81002714D01*
X114935619Y-81002714D01*
X114840380Y-81050333D01*
X114792761Y-81097952D01*
X114745142Y-81193190D01*
X114745142Y-81478904D01*
X114792761Y-81574142D01*
X114840380Y-81621761D01*
X114935619Y-81669380D01*
X115078476Y-81669380D01*
X114316571Y-81669380D02*
X114316571Y-81002714D01*
X114316571Y-81097952D02*
X114268952Y-81050333D01*
X114173714Y-81002714D01*
X114030857Y-81002714D01*
X113935619Y-81050333D01*
X113888000Y-81145571D01*
X113888000Y-81669380D01*
X113888000Y-81145571D02*
X113840380Y-81050333D01*
X113745142Y-81002714D01*
X113602285Y-81002714D01*
X113507047Y-81050333D01*
X113459428Y-81145571D01*
X113459428Y-81669380D01*
X112268952Y-80621761D02*
X113126095Y-81907476D01*
X111792761Y-81669380D02*
X111888000Y-81621761D01*
X111935619Y-81526523D01*
X111935619Y-80669380D01*
X111268952Y-81669380D02*
X111364190Y-81621761D01*
X111411809Y-81574142D01*
X111459428Y-81478904D01*
X111459428Y-81193190D01*
X111411809Y-81097952D01*
X111364190Y-81050333D01*
X111268952Y-81002714D01*
X111126095Y-81002714D01*
X111030857Y-81050333D01*
X110983238Y-81097952D01*
X110935619Y-81193190D01*
X110935619Y-81478904D01*
X110983238Y-81574142D01*
X111030857Y-81621761D01*
X111126095Y-81669380D01*
X111268952Y-81669380D01*
X110078476Y-81621761D02*
X110173714Y-81669380D01*
X110364190Y-81669380D01*
X110459428Y-81621761D01*
X110507047Y-81574142D01*
X110554666Y-81478904D01*
X110554666Y-81193190D01*
X110507047Y-81097952D01*
X110459428Y-81050333D01*
X110364190Y-81002714D01*
X110173714Y-81002714D01*
X110078476Y-81050333D01*
X109221333Y-81669380D02*
X109221333Y-81145571D01*
X109268952Y-81050333D01*
X109364190Y-81002714D01*
X109554666Y-81002714D01*
X109649904Y-81050333D01*
X109221333Y-81621761D02*
X109316571Y-81669380D01*
X109554666Y-81669380D01*
X109649904Y-81621761D01*
X109697523Y-81526523D01*
X109697523Y-81431285D01*
X109649904Y-81336047D01*
X109554666Y-81288428D01*
X109316571Y-81288428D01*
X109221333Y-81240809D01*
X108602285Y-81669380D02*
X108697523Y-81621761D01*
X108745142Y-81526523D01*
X108745142Y-80669380D01*
X107792761Y-81621761D02*
X107888000Y-81669380D01*
X108078476Y-81669380D01*
X108173714Y-81621761D01*
X108221333Y-81574142D01*
X108268952Y-81478904D01*
X108268952Y-81193190D01*
X108221333Y-81097952D01*
X108173714Y-81050333D01*
X108078476Y-81002714D01*
X107888000Y-81002714D01*
X107792761Y-81050333D01*
X106935619Y-81621761D02*
X107030857Y-81669380D01*
X107221333Y-81669380D01*
X107316571Y-81621761D01*
X107364190Y-81574142D01*
X107411809Y-81478904D01*
X107411809Y-81193190D01*
X107364190Y-81097952D01*
X107316571Y-81050333D01*
X107221333Y-81002714D01*
X107030857Y-81002714D01*
X106935619Y-81050333D01*
X127649904Y-83319380D02*
X127649904Y-82319380D01*
X127221333Y-83319380D02*
X127221333Y-82795571D01*
X127268952Y-82700333D01*
X127364190Y-82652714D01*
X127507047Y-82652714D01*
X127602285Y-82700333D01*
X127649904Y-82747952D01*
X126888000Y-82652714D02*
X126507047Y-82652714D01*
X126745142Y-82319380D02*
X126745142Y-83176523D01*
X126697523Y-83271761D01*
X126602285Y-83319380D01*
X126507047Y-83319380D01*
X126316571Y-82652714D02*
X125935619Y-82652714D01*
X126173714Y-82319380D02*
X126173714Y-83176523D01*
X126126095Y-83271761D01*
X126030857Y-83319380D01*
X125935619Y-83319380D01*
X125602285Y-82652714D02*
X125602285Y-83652714D01*
X125602285Y-82700333D02*
X125507047Y-82652714D01*
X125316571Y-82652714D01*
X125221333Y-82700333D01*
X125173714Y-82747952D01*
X125126095Y-82843190D01*
X125126095Y-83128904D01*
X125173714Y-83224142D01*
X125221333Y-83271761D01*
X125316571Y-83319380D01*
X125507047Y-83319380D01*
X125602285Y-83271761D01*
X124745142Y-83271761D02*
X124649904Y-83319380D01*
X124459428Y-83319380D01*
X124364190Y-83271761D01*
X124316571Y-83176523D01*
X124316571Y-83128904D01*
X124364190Y-83033666D01*
X124459428Y-82986047D01*
X124602285Y-82986047D01*
X124697523Y-82938428D01*
X124745142Y-82843190D01*
X124745142Y-82795571D01*
X124697523Y-82700333D01*
X124602285Y-82652714D01*
X124459428Y-82652714D01*
X124364190Y-82700333D01*
X123888000Y-83224142D02*
X123840380Y-83271761D01*
X123888000Y-83319380D01*
X123935619Y-83271761D01*
X123888000Y-83224142D01*
X123888000Y-83319380D01*
X123888000Y-82700333D02*
X123840380Y-82747952D01*
X123888000Y-82795571D01*
X123935619Y-82747952D01*
X123888000Y-82700333D01*
X123888000Y-82795571D01*
X122697523Y-82271761D02*
X123554666Y-83557476D01*
X121649904Y-82271761D02*
X122507047Y-83557476D01*
X120888000Y-82652714D02*
X120888000Y-83462238D01*
X120935619Y-83557476D01*
X120983238Y-83605095D01*
X121078476Y-83652714D01*
X121221333Y-83652714D01*
X121316571Y-83605095D01*
X120888000Y-83271761D02*
X120983238Y-83319380D01*
X121173714Y-83319380D01*
X121268952Y-83271761D01*
X121316571Y-83224142D01*
X121364190Y-83128904D01*
X121364190Y-82843190D01*
X121316571Y-82747952D01*
X121268952Y-82700333D01*
X121173714Y-82652714D01*
X120983238Y-82652714D01*
X120888000Y-82700333D01*
X120411809Y-83319380D02*
X120411809Y-82652714D01*
X120411809Y-82319380D02*
X120459428Y-82367000D01*
X120411809Y-82414619D01*
X120364190Y-82367000D01*
X120411809Y-82319380D01*
X120411809Y-82414619D01*
X120078476Y-82652714D02*
X119697523Y-82652714D01*
X119935619Y-82319380D02*
X119935619Y-83176523D01*
X119888000Y-83271761D01*
X119792761Y-83319380D01*
X119697523Y-83319380D01*
X119364190Y-83319380D02*
X119364190Y-82319380D01*
X118935619Y-83319380D02*
X118935619Y-82795571D01*
X118983238Y-82700333D01*
X119078476Y-82652714D01*
X119221333Y-82652714D01*
X119316571Y-82700333D01*
X119364190Y-82747952D01*
X118030857Y-82652714D02*
X118030857Y-83319380D01*
X118459428Y-82652714D02*
X118459428Y-83176523D01*
X118411809Y-83271761D01*
X118316571Y-83319380D01*
X118173714Y-83319380D01*
X118078476Y-83271761D01*
X118030857Y-83224142D01*
X117554666Y-83319380D02*
X117554666Y-82319380D01*
X117554666Y-82700333D02*
X117459428Y-82652714D01*
X117268952Y-82652714D01*
X117173714Y-82700333D01*
X117126095Y-82747952D01*
X117078476Y-82843190D01*
X117078476Y-83128904D01*
X117126095Y-83224142D01*
X117173714Y-83271761D01*
X117268952Y-83319380D01*
X117459428Y-83319380D01*
X117554666Y-83271761D01*
X116649904Y-83224142D02*
X116602285Y-83271761D01*
X116649904Y-83319380D01*
X116697523Y-83271761D01*
X116649904Y-83224142D01*
X116649904Y-83319380D01*
X115745142Y-83271761D02*
X115840380Y-83319380D01*
X116030857Y-83319380D01*
X116126095Y-83271761D01*
X116173714Y-83224142D01*
X116221333Y-83128904D01*
X116221333Y-82843190D01*
X116173714Y-82747952D01*
X116126095Y-82700333D01*
X116030857Y-82652714D01*
X115840380Y-82652714D01*
X115745142Y-82700333D01*
X115173714Y-83319380D02*
X115268952Y-83271761D01*
X115316571Y-83224142D01*
X115364190Y-83128904D01*
X115364190Y-82843190D01*
X115316571Y-82747952D01*
X115268952Y-82700333D01*
X115173714Y-82652714D01*
X115030857Y-82652714D01*
X114935619Y-82700333D01*
X114888000Y-82747952D01*
X114840380Y-82843190D01*
X114840380Y-83128904D01*
X114888000Y-83224142D01*
X114935619Y-83271761D01*
X115030857Y-83319380D01*
X115173714Y-83319380D01*
X114411809Y-83319380D02*
X114411809Y-82652714D01*
X114411809Y-82747952D02*
X114364190Y-82700333D01*
X114268952Y-82652714D01*
X114126095Y-82652714D01*
X114030857Y-82700333D01*
X113983238Y-82795571D01*
X113983238Y-83319380D01*
X113983238Y-82795571D02*
X113935619Y-82700333D01*
X113840380Y-82652714D01*
X113697523Y-82652714D01*
X113602285Y-82700333D01*
X113554666Y-82795571D01*
X113554666Y-83319380D01*
X112364190Y-82271761D02*
X113221333Y-83557476D01*
X112126095Y-82652714D02*
X111602285Y-82652714D01*
X112126095Y-83319380D01*
X111602285Y-83319380D01*
X111078476Y-83319380D02*
X111173714Y-83271761D01*
X111221333Y-83176523D01*
X111221333Y-82319380D01*
X110554666Y-83319380D02*
X110649904Y-83271761D01*
X110697523Y-83224142D01*
X110745142Y-83128904D01*
X110745142Y-82843190D01*
X110697523Y-82747952D01*
X110649904Y-82700333D01*
X110554666Y-82652714D01*
X110411809Y-82652714D01*
X110316571Y-82700333D01*
X110268952Y-82747952D01*
X110221333Y-82843190D01*
X110221333Y-83128904D01*
X110268952Y-83224142D01*
X110316571Y-83271761D01*
X110411809Y-83319380D01*
X110554666Y-83319380D01*
X109888000Y-82652714D02*
X109649904Y-83319380D01*
X109411809Y-82652714D01*
X108602285Y-83319380D02*
X108602285Y-82795571D01*
X108649904Y-82700333D01*
X108745142Y-82652714D01*
X108935619Y-82652714D01*
X109030857Y-82700333D01*
X108602285Y-83271761D02*
X108697523Y-83319380D01*
X108935619Y-83319380D01*
X109030857Y-83271761D01*
X109078476Y-83176523D01*
X109078476Y-83081285D01*
X109030857Y-82986047D01*
X108935619Y-82938428D01*
X108697523Y-82938428D01*
X108602285Y-82890809D01*
X108126095Y-82652714D02*
X108126095Y-83319380D01*
X108126095Y-82747952D02*
X108078476Y-82700333D01*
X107983238Y-82652714D01*
X107840380Y-82652714D01*
X107745142Y-82700333D01*
X107697523Y-82795571D01*
X107697523Y-83319380D01*
X107364190Y-82652714D02*
X106983238Y-82652714D01*
X107221333Y-82319380D02*
X107221333Y-83176523D01*
X107173714Y-83271761D01*
X107078476Y-83319380D01*
X106983238Y-83319380D01*
X106221333Y-82652714D02*
X106221333Y-83319380D01*
X106649904Y-82652714D02*
X106649904Y-83176523D01*
X106602285Y-83271761D01*
X106507047Y-83319380D01*
X106364190Y-83319380D01*
X106268952Y-83271761D01*
X106221333Y-83224142D01*
X105840380Y-82652714D02*
X105316571Y-82652714D01*
X105840380Y-83319380D01*
X105316571Y-83319380D01*
X104507047Y-82652714D02*
X104507047Y-83319380D01*
X104935619Y-82652714D02*
X104935619Y-83176523D01*
X104888000Y-83271761D01*
X104792761Y-83319380D01*
X104649904Y-83319380D01*
X104554666Y-83271761D01*
X104507047Y-83224142D01*
X80712000Y-55693000D02*
X80712000Y-60893000D01*
X80712000Y-60893000D02*
X85912000Y-60893000D01*
X85912000Y-60893000D02*
X85912000Y-55693000D01*
X85912000Y-55693000D02*
X80712000Y-55693000D01*
X84312000Y-58293000D02*
G75*
G03X84312000Y-58293000I-1000000J0D01*
G01*
D11*
X125492000Y-51344000D02*
X125492000Y-55244000D01*
X127492000Y-51344000D02*
X127492000Y-55244000D01*
X125492000Y-51344000D02*
X127492000Y-51344000D01*
X106315000Y-51471000D02*
X106315000Y-55371000D01*
X108315000Y-51471000D02*
X108315000Y-55371000D01*
X106315000Y-51471000D02*
X108315000Y-51471000D01*
X125492000Y-70140000D02*
X125492000Y-74040000D01*
X127492000Y-70140000D02*
X127492000Y-74040000D01*
X125492000Y-70140000D02*
X127492000Y-70140000D01*
X106188000Y-70140000D02*
X106188000Y-74040000D01*
X108188000Y-70140000D02*
X108188000Y-74040000D01*
X106188000Y-70140000D02*
X108188000Y-70140000D01*
D10*
X87780761Y-56959666D02*
X87828380Y-57102523D01*
X87828380Y-57340619D01*
X87780761Y-57435857D01*
X87733142Y-57483476D01*
X87637904Y-57531095D01*
X87542666Y-57531095D01*
X87447428Y-57483476D01*
X87399809Y-57435857D01*
X87352190Y-57340619D01*
X87304571Y-57150142D01*
X87256952Y-57054904D01*
X87209333Y-57007285D01*
X87114095Y-56959666D01*
X87018857Y-56959666D01*
X86923619Y-57007285D01*
X86876000Y-57054904D01*
X86828380Y-57150142D01*
X86828380Y-57388238D01*
X86876000Y-57531095D01*
X86828380Y-57864428D02*
X87828380Y-58102523D01*
X87114095Y-58293000D01*
X87828380Y-58483476D01*
X86828380Y-58721571D01*
X87828380Y-59626333D02*
X87828380Y-59054904D01*
X87828380Y-59340619D02*
X86828380Y-59340619D01*
X86971238Y-59245380D01*
X87066476Y-59150142D01*
X87114095Y-59054904D01*
X124944380Y-52855904D02*
X123944380Y-52855904D01*
X123944380Y-53094000D01*
X123992000Y-53236857D01*
X124087238Y-53332095D01*
X124182476Y-53379714D01*
X124372952Y-53427333D01*
X124515809Y-53427333D01*
X124706285Y-53379714D01*
X124801523Y-53332095D01*
X124896761Y-53236857D01*
X124944380Y-53094000D01*
X124944380Y-52855904D01*
X124277714Y-54284476D02*
X124944380Y-54284476D01*
X123896761Y-54046380D02*
X124611047Y-53808285D01*
X124611047Y-54427333D01*
X105767380Y-52982904D02*
X104767380Y-52982904D01*
X104767380Y-53221000D01*
X104815000Y-53363857D01*
X104910238Y-53459095D01*
X105005476Y-53506714D01*
X105195952Y-53554333D01*
X105338809Y-53554333D01*
X105529285Y-53506714D01*
X105624523Y-53459095D01*
X105719761Y-53363857D01*
X105767380Y-53221000D01*
X105767380Y-52982904D01*
X104767380Y-53887666D02*
X104767380Y-54506714D01*
X105148333Y-54173380D01*
X105148333Y-54316238D01*
X105195952Y-54411476D01*
X105243571Y-54459095D01*
X105338809Y-54506714D01*
X105576904Y-54506714D01*
X105672142Y-54459095D01*
X105719761Y-54411476D01*
X105767380Y-54316238D01*
X105767380Y-54030523D01*
X105719761Y-53935285D01*
X105672142Y-53887666D01*
X124944380Y-71651904D02*
X123944380Y-71651904D01*
X123944380Y-71890000D01*
X123992000Y-72032857D01*
X124087238Y-72128095D01*
X124182476Y-72175714D01*
X124372952Y-72223333D01*
X124515809Y-72223333D01*
X124706285Y-72175714D01*
X124801523Y-72128095D01*
X124896761Y-72032857D01*
X124944380Y-71890000D01*
X124944380Y-71651904D01*
X124039619Y-72604285D02*
X123992000Y-72651904D01*
X123944380Y-72747142D01*
X123944380Y-72985238D01*
X123992000Y-73080476D01*
X124039619Y-73128095D01*
X124134857Y-73175714D01*
X124230095Y-73175714D01*
X124372952Y-73128095D01*
X124944380Y-72556666D01*
X124944380Y-73175714D01*
X105640380Y-71651904D02*
X104640380Y-71651904D01*
X104640380Y-71890000D01*
X104688000Y-72032857D01*
X104783238Y-72128095D01*
X104878476Y-72175714D01*
X105068952Y-72223333D01*
X105211809Y-72223333D01*
X105402285Y-72175714D01*
X105497523Y-72128095D01*
X105592761Y-72032857D01*
X105640380Y-71890000D01*
X105640380Y-71651904D01*
X105640380Y-73175714D02*
X105640380Y-72604285D01*
X105640380Y-72890000D02*
X104640380Y-72890000D01*
X104783238Y-72794761D01*
X104878476Y-72699523D01*
X104926095Y-72604285D01*
%LPC*%
D12*
X123317000Y-53594000D03*
X113157000Y-53594000D03*
D13*
X118237000Y-53594000D03*
D14*
X43815000Y-53373000D03*
X43815000Y-60673000D03*
X48315000Y-60673000D03*
X48315000Y-53373000D03*
D15*
X85162000Y-55193000D03*
X81462000Y-61393000D03*
X81462000Y-55193000D03*
X85162000Y-61393000D03*
D12*
X104013000Y-53594000D03*
X93853000Y-53594000D03*
D13*
X98933000Y-53594000D03*
D12*
X123317000Y-72644000D03*
X113157000Y-72644000D03*
D13*
X118237000Y-72644000D03*
D12*
X104008000Y-72640000D03*
X93848000Y-72640000D03*
D13*
X98928000Y-72640000D03*
D16*
X126492000Y-55244000D03*
X126492000Y-51944000D03*
X107315000Y-55371000D03*
X107315000Y-52071000D03*
X126492000Y-74040000D03*
X126492000Y-70740000D03*
X107188000Y-74040000D03*
X107188000Y-70740000D03*
M02*
