G04 #@! TF.GenerationSoftware,KiCad,Pcbnew,(5.1.4)-1*
G04 #@! TF.CreationDate,2020-10-27T18:56:57+03:00*
G04 #@! TF.ProjectId,100_keyboard,3130305f-6b65-4796-926f-6172642e6b69,rev?*
G04 #@! TF.SameCoordinates,Original*
G04 #@! TF.FileFunction,Paste,Top*
G04 #@! TF.FilePolarity,Positive*
%FSLAX46Y46*%
G04 Gerber Fmt 4.6, Leading zero omitted, Abs format (unit mm)*
G04 Created by KiCad (PCBNEW (5.1.4)-1) date 2020-10-27 18:56:57*
%MOMM*%
%LPD*%
G04 APERTURE LIST*
%ADD10R,2.250000X0.500000*%
%ADD11C,0.100000*%
%ADD12C,0.300000*%
%ADD13R,1.060000X0.650000*%
%ADD14C,0.975000*%
%ADD15C,1.250000*%
%ADD16R,1.200000X0.900000*%
G04 APERTURE END LIST*
D10*
X48315000Y-55423000D03*
X48315000Y-56223000D03*
X48315000Y-57023000D03*
X48315000Y-57823000D03*
X48315000Y-58623000D03*
D11*
G36*
X72094851Y-78719111D02*
G01*
X72102132Y-78720191D01*
X72109271Y-78721979D01*
X72116201Y-78724459D01*
X72122855Y-78727606D01*
X72129168Y-78731390D01*
X72135079Y-78735774D01*
X72140533Y-78740717D01*
X72145476Y-78746171D01*
X72149860Y-78752082D01*
X72153644Y-78758395D01*
X72156791Y-78765049D01*
X72159271Y-78771979D01*
X72161059Y-78779118D01*
X72162139Y-78786399D01*
X72162500Y-78793750D01*
X72162500Y-80193750D01*
X72162139Y-80201101D01*
X72161059Y-80208382D01*
X72159271Y-80215521D01*
X72156791Y-80222451D01*
X72153644Y-80229105D01*
X72149860Y-80235418D01*
X72145476Y-80241329D01*
X72140533Y-80246783D01*
X72135079Y-80251726D01*
X72129168Y-80256110D01*
X72122855Y-80259894D01*
X72116201Y-80263041D01*
X72109271Y-80265521D01*
X72102132Y-80267309D01*
X72094851Y-80268389D01*
X72087500Y-80268750D01*
X71937500Y-80268750D01*
X71930149Y-80268389D01*
X71922868Y-80267309D01*
X71915729Y-80265521D01*
X71908799Y-80263041D01*
X71902145Y-80259894D01*
X71895832Y-80256110D01*
X71889921Y-80251726D01*
X71884467Y-80246783D01*
X71879524Y-80241329D01*
X71875140Y-80235418D01*
X71871356Y-80229105D01*
X71868209Y-80222451D01*
X71865729Y-80215521D01*
X71863941Y-80208382D01*
X71862861Y-80201101D01*
X71862500Y-80193750D01*
X71862500Y-78793750D01*
X71862861Y-78786399D01*
X71863941Y-78779118D01*
X71865729Y-78771979D01*
X71868209Y-78765049D01*
X71871356Y-78758395D01*
X71875140Y-78752082D01*
X71879524Y-78746171D01*
X71884467Y-78740717D01*
X71889921Y-78735774D01*
X71895832Y-78731390D01*
X71902145Y-78727606D01*
X71908799Y-78724459D01*
X71915729Y-78721979D01*
X71922868Y-78720191D01*
X71930149Y-78719111D01*
X71937500Y-78718750D01*
X72087500Y-78718750D01*
X72094851Y-78719111D01*
X72094851Y-78719111D01*
G37*
D12*
X72012500Y-79493750D03*
D11*
G36*
X71594851Y-78719111D02*
G01*
X71602132Y-78720191D01*
X71609271Y-78721979D01*
X71616201Y-78724459D01*
X71622855Y-78727606D01*
X71629168Y-78731390D01*
X71635079Y-78735774D01*
X71640533Y-78740717D01*
X71645476Y-78746171D01*
X71649860Y-78752082D01*
X71653644Y-78758395D01*
X71656791Y-78765049D01*
X71659271Y-78771979D01*
X71661059Y-78779118D01*
X71662139Y-78786399D01*
X71662500Y-78793750D01*
X71662500Y-80193750D01*
X71662139Y-80201101D01*
X71661059Y-80208382D01*
X71659271Y-80215521D01*
X71656791Y-80222451D01*
X71653644Y-80229105D01*
X71649860Y-80235418D01*
X71645476Y-80241329D01*
X71640533Y-80246783D01*
X71635079Y-80251726D01*
X71629168Y-80256110D01*
X71622855Y-80259894D01*
X71616201Y-80263041D01*
X71609271Y-80265521D01*
X71602132Y-80267309D01*
X71594851Y-80268389D01*
X71587500Y-80268750D01*
X71437500Y-80268750D01*
X71430149Y-80268389D01*
X71422868Y-80267309D01*
X71415729Y-80265521D01*
X71408799Y-80263041D01*
X71402145Y-80259894D01*
X71395832Y-80256110D01*
X71389921Y-80251726D01*
X71384467Y-80246783D01*
X71379524Y-80241329D01*
X71375140Y-80235418D01*
X71371356Y-80229105D01*
X71368209Y-80222451D01*
X71365729Y-80215521D01*
X71363941Y-80208382D01*
X71362861Y-80201101D01*
X71362500Y-80193750D01*
X71362500Y-78793750D01*
X71362861Y-78786399D01*
X71363941Y-78779118D01*
X71365729Y-78771979D01*
X71368209Y-78765049D01*
X71371356Y-78758395D01*
X71375140Y-78752082D01*
X71379524Y-78746171D01*
X71384467Y-78740717D01*
X71389921Y-78735774D01*
X71395832Y-78731390D01*
X71402145Y-78727606D01*
X71408799Y-78724459D01*
X71415729Y-78721979D01*
X71422868Y-78720191D01*
X71430149Y-78719111D01*
X71437500Y-78718750D01*
X71587500Y-78718750D01*
X71594851Y-78719111D01*
X71594851Y-78719111D01*
G37*
D12*
X71512500Y-79493750D03*
D11*
G36*
X71094851Y-78719111D02*
G01*
X71102132Y-78720191D01*
X71109271Y-78721979D01*
X71116201Y-78724459D01*
X71122855Y-78727606D01*
X71129168Y-78731390D01*
X71135079Y-78735774D01*
X71140533Y-78740717D01*
X71145476Y-78746171D01*
X71149860Y-78752082D01*
X71153644Y-78758395D01*
X71156791Y-78765049D01*
X71159271Y-78771979D01*
X71161059Y-78779118D01*
X71162139Y-78786399D01*
X71162500Y-78793750D01*
X71162500Y-80193750D01*
X71162139Y-80201101D01*
X71161059Y-80208382D01*
X71159271Y-80215521D01*
X71156791Y-80222451D01*
X71153644Y-80229105D01*
X71149860Y-80235418D01*
X71145476Y-80241329D01*
X71140533Y-80246783D01*
X71135079Y-80251726D01*
X71129168Y-80256110D01*
X71122855Y-80259894D01*
X71116201Y-80263041D01*
X71109271Y-80265521D01*
X71102132Y-80267309D01*
X71094851Y-80268389D01*
X71087500Y-80268750D01*
X70937500Y-80268750D01*
X70930149Y-80268389D01*
X70922868Y-80267309D01*
X70915729Y-80265521D01*
X70908799Y-80263041D01*
X70902145Y-80259894D01*
X70895832Y-80256110D01*
X70889921Y-80251726D01*
X70884467Y-80246783D01*
X70879524Y-80241329D01*
X70875140Y-80235418D01*
X70871356Y-80229105D01*
X70868209Y-80222451D01*
X70865729Y-80215521D01*
X70863941Y-80208382D01*
X70862861Y-80201101D01*
X70862500Y-80193750D01*
X70862500Y-78793750D01*
X70862861Y-78786399D01*
X70863941Y-78779118D01*
X70865729Y-78771979D01*
X70868209Y-78765049D01*
X70871356Y-78758395D01*
X70875140Y-78752082D01*
X70879524Y-78746171D01*
X70884467Y-78740717D01*
X70889921Y-78735774D01*
X70895832Y-78731390D01*
X70902145Y-78727606D01*
X70908799Y-78724459D01*
X70915729Y-78721979D01*
X70922868Y-78720191D01*
X70930149Y-78719111D01*
X70937500Y-78718750D01*
X71087500Y-78718750D01*
X71094851Y-78719111D01*
X71094851Y-78719111D01*
G37*
D12*
X71012500Y-79493750D03*
D11*
G36*
X70594851Y-78719111D02*
G01*
X70602132Y-78720191D01*
X70609271Y-78721979D01*
X70616201Y-78724459D01*
X70622855Y-78727606D01*
X70629168Y-78731390D01*
X70635079Y-78735774D01*
X70640533Y-78740717D01*
X70645476Y-78746171D01*
X70649860Y-78752082D01*
X70653644Y-78758395D01*
X70656791Y-78765049D01*
X70659271Y-78771979D01*
X70661059Y-78779118D01*
X70662139Y-78786399D01*
X70662500Y-78793750D01*
X70662500Y-80193750D01*
X70662139Y-80201101D01*
X70661059Y-80208382D01*
X70659271Y-80215521D01*
X70656791Y-80222451D01*
X70653644Y-80229105D01*
X70649860Y-80235418D01*
X70645476Y-80241329D01*
X70640533Y-80246783D01*
X70635079Y-80251726D01*
X70629168Y-80256110D01*
X70622855Y-80259894D01*
X70616201Y-80263041D01*
X70609271Y-80265521D01*
X70602132Y-80267309D01*
X70594851Y-80268389D01*
X70587500Y-80268750D01*
X70437500Y-80268750D01*
X70430149Y-80268389D01*
X70422868Y-80267309D01*
X70415729Y-80265521D01*
X70408799Y-80263041D01*
X70402145Y-80259894D01*
X70395832Y-80256110D01*
X70389921Y-80251726D01*
X70384467Y-80246783D01*
X70379524Y-80241329D01*
X70375140Y-80235418D01*
X70371356Y-80229105D01*
X70368209Y-80222451D01*
X70365729Y-80215521D01*
X70363941Y-80208382D01*
X70362861Y-80201101D01*
X70362500Y-80193750D01*
X70362500Y-78793750D01*
X70362861Y-78786399D01*
X70363941Y-78779118D01*
X70365729Y-78771979D01*
X70368209Y-78765049D01*
X70371356Y-78758395D01*
X70375140Y-78752082D01*
X70379524Y-78746171D01*
X70384467Y-78740717D01*
X70389921Y-78735774D01*
X70395832Y-78731390D01*
X70402145Y-78727606D01*
X70408799Y-78724459D01*
X70415729Y-78721979D01*
X70422868Y-78720191D01*
X70430149Y-78719111D01*
X70437500Y-78718750D01*
X70587500Y-78718750D01*
X70594851Y-78719111D01*
X70594851Y-78719111D01*
G37*
D12*
X70512500Y-79493750D03*
D11*
G36*
X70094851Y-78719111D02*
G01*
X70102132Y-78720191D01*
X70109271Y-78721979D01*
X70116201Y-78724459D01*
X70122855Y-78727606D01*
X70129168Y-78731390D01*
X70135079Y-78735774D01*
X70140533Y-78740717D01*
X70145476Y-78746171D01*
X70149860Y-78752082D01*
X70153644Y-78758395D01*
X70156791Y-78765049D01*
X70159271Y-78771979D01*
X70161059Y-78779118D01*
X70162139Y-78786399D01*
X70162500Y-78793750D01*
X70162500Y-80193750D01*
X70162139Y-80201101D01*
X70161059Y-80208382D01*
X70159271Y-80215521D01*
X70156791Y-80222451D01*
X70153644Y-80229105D01*
X70149860Y-80235418D01*
X70145476Y-80241329D01*
X70140533Y-80246783D01*
X70135079Y-80251726D01*
X70129168Y-80256110D01*
X70122855Y-80259894D01*
X70116201Y-80263041D01*
X70109271Y-80265521D01*
X70102132Y-80267309D01*
X70094851Y-80268389D01*
X70087500Y-80268750D01*
X69937500Y-80268750D01*
X69930149Y-80268389D01*
X69922868Y-80267309D01*
X69915729Y-80265521D01*
X69908799Y-80263041D01*
X69902145Y-80259894D01*
X69895832Y-80256110D01*
X69889921Y-80251726D01*
X69884467Y-80246783D01*
X69879524Y-80241329D01*
X69875140Y-80235418D01*
X69871356Y-80229105D01*
X69868209Y-80222451D01*
X69865729Y-80215521D01*
X69863941Y-80208382D01*
X69862861Y-80201101D01*
X69862500Y-80193750D01*
X69862500Y-78793750D01*
X69862861Y-78786399D01*
X69863941Y-78779118D01*
X69865729Y-78771979D01*
X69868209Y-78765049D01*
X69871356Y-78758395D01*
X69875140Y-78752082D01*
X69879524Y-78746171D01*
X69884467Y-78740717D01*
X69889921Y-78735774D01*
X69895832Y-78731390D01*
X69902145Y-78727606D01*
X69908799Y-78724459D01*
X69915729Y-78721979D01*
X69922868Y-78720191D01*
X69930149Y-78719111D01*
X69937500Y-78718750D01*
X70087500Y-78718750D01*
X70094851Y-78719111D01*
X70094851Y-78719111D01*
G37*
D12*
X70012500Y-79493750D03*
D11*
G36*
X69594851Y-78719111D02*
G01*
X69602132Y-78720191D01*
X69609271Y-78721979D01*
X69616201Y-78724459D01*
X69622855Y-78727606D01*
X69629168Y-78731390D01*
X69635079Y-78735774D01*
X69640533Y-78740717D01*
X69645476Y-78746171D01*
X69649860Y-78752082D01*
X69653644Y-78758395D01*
X69656791Y-78765049D01*
X69659271Y-78771979D01*
X69661059Y-78779118D01*
X69662139Y-78786399D01*
X69662500Y-78793750D01*
X69662500Y-80193750D01*
X69662139Y-80201101D01*
X69661059Y-80208382D01*
X69659271Y-80215521D01*
X69656791Y-80222451D01*
X69653644Y-80229105D01*
X69649860Y-80235418D01*
X69645476Y-80241329D01*
X69640533Y-80246783D01*
X69635079Y-80251726D01*
X69629168Y-80256110D01*
X69622855Y-80259894D01*
X69616201Y-80263041D01*
X69609271Y-80265521D01*
X69602132Y-80267309D01*
X69594851Y-80268389D01*
X69587500Y-80268750D01*
X69437500Y-80268750D01*
X69430149Y-80268389D01*
X69422868Y-80267309D01*
X69415729Y-80265521D01*
X69408799Y-80263041D01*
X69402145Y-80259894D01*
X69395832Y-80256110D01*
X69389921Y-80251726D01*
X69384467Y-80246783D01*
X69379524Y-80241329D01*
X69375140Y-80235418D01*
X69371356Y-80229105D01*
X69368209Y-80222451D01*
X69365729Y-80215521D01*
X69363941Y-80208382D01*
X69362861Y-80201101D01*
X69362500Y-80193750D01*
X69362500Y-78793750D01*
X69362861Y-78786399D01*
X69363941Y-78779118D01*
X69365729Y-78771979D01*
X69368209Y-78765049D01*
X69371356Y-78758395D01*
X69375140Y-78752082D01*
X69379524Y-78746171D01*
X69384467Y-78740717D01*
X69389921Y-78735774D01*
X69395832Y-78731390D01*
X69402145Y-78727606D01*
X69408799Y-78724459D01*
X69415729Y-78721979D01*
X69422868Y-78720191D01*
X69430149Y-78719111D01*
X69437500Y-78718750D01*
X69587500Y-78718750D01*
X69594851Y-78719111D01*
X69594851Y-78719111D01*
G37*
D12*
X69512500Y-79493750D03*
D11*
G36*
X69094851Y-78719111D02*
G01*
X69102132Y-78720191D01*
X69109271Y-78721979D01*
X69116201Y-78724459D01*
X69122855Y-78727606D01*
X69129168Y-78731390D01*
X69135079Y-78735774D01*
X69140533Y-78740717D01*
X69145476Y-78746171D01*
X69149860Y-78752082D01*
X69153644Y-78758395D01*
X69156791Y-78765049D01*
X69159271Y-78771979D01*
X69161059Y-78779118D01*
X69162139Y-78786399D01*
X69162500Y-78793750D01*
X69162500Y-80193750D01*
X69162139Y-80201101D01*
X69161059Y-80208382D01*
X69159271Y-80215521D01*
X69156791Y-80222451D01*
X69153644Y-80229105D01*
X69149860Y-80235418D01*
X69145476Y-80241329D01*
X69140533Y-80246783D01*
X69135079Y-80251726D01*
X69129168Y-80256110D01*
X69122855Y-80259894D01*
X69116201Y-80263041D01*
X69109271Y-80265521D01*
X69102132Y-80267309D01*
X69094851Y-80268389D01*
X69087500Y-80268750D01*
X68937500Y-80268750D01*
X68930149Y-80268389D01*
X68922868Y-80267309D01*
X68915729Y-80265521D01*
X68908799Y-80263041D01*
X68902145Y-80259894D01*
X68895832Y-80256110D01*
X68889921Y-80251726D01*
X68884467Y-80246783D01*
X68879524Y-80241329D01*
X68875140Y-80235418D01*
X68871356Y-80229105D01*
X68868209Y-80222451D01*
X68865729Y-80215521D01*
X68863941Y-80208382D01*
X68862861Y-80201101D01*
X68862500Y-80193750D01*
X68862500Y-78793750D01*
X68862861Y-78786399D01*
X68863941Y-78779118D01*
X68865729Y-78771979D01*
X68868209Y-78765049D01*
X68871356Y-78758395D01*
X68875140Y-78752082D01*
X68879524Y-78746171D01*
X68884467Y-78740717D01*
X68889921Y-78735774D01*
X68895832Y-78731390D01*
X68902145Y-78727606D01*
X68908799Y-78724459D01*
X68915729Y-78721979D01*
X68922868Y-78720191D01*
X68930149Y-78719111D01*
X68937500Y-78718750D01*
X69087500Y-78718750D01*
X69094851Y-78719111D01*
X69094851Y-78719111D01*
G37*
D12*
X69012500Y-79493750D03*
D11*
G36*
X68594851Y-78719111D02*
G01*
X68602132Y-78720191D01*
X68609271Y-78721979D01*
X68616201Y-78724459D01*
X68622855Y-78727606D01*
X68629168Y-78731390D01*
X68635079Y-78735774D01*
X68640533Y-78740717D01*
X68645476Y-78746171D01*
X68649860Y-78752082D01*
X68653644Y-78758395D01*
X68656791Y-78765049D01*
X68659271Y-78771979D01*
X68661059Y-78779118D01*
X68662139Y-78786399D01*
X68662500Y-78793750D01*
X68662500Y-80193750D01*
X68662139Y-80201101D01*
X68661059Y-80208382D01*
X68659271Y-80215521D01*
X68656791Y-80222451D01*
X68653644Y-80229105D01*
X68649860Y-80235418D01*
X68645476Y-80241329D01*
X68640533Y-80246783D01*
X68635079Y-80251726D01*
X68629168Y-80256110D01*
X68622855Y-80259894D01*
X68616201Y-80263041D01*
X68609271Y-80265521D01*
X68602132Y-80267309D01*
X68594851Y-80268389D01*
X68587500Y-80268750D01*
X68437500Y-80268750D01*
X68430149Y-80268389D01*
X68422868Y-80267309D01*
X68415729Y-80265521D01*
X68408799Y-80263041D01*
X68402145Y-80259894D01*
X68395832Y-80256110D01*
X68389921Y-80251726D01*
X68384467Y-80246783D01*
X68379524Y-80241329D01*
X68375140Y-80235418D01*
X68371356Y-80229105D01*
X68368209Y-80222451D01*
X68365729Y-80215521D01*
X68363941Y-80208382D01*
X68362861Y-80201101D01*
X68362500Y-80193750D01*
X68362500Y-78793750D01*
X68362861Y-78786399D01*
X68363941Y-78779118D01*
X68365729Y-78771979D01*
X68368209Y-78765049D01*
X68371356Y-78758395D01*
X68375140Y-78752082D01*
X68379524Y-78746171D01*
X68384467Y-78740717D01*
X68389921Y-78735774D01*
X68395832Y-78731390D01*
X68402145Y-78727606D01*
X68408799Y-78724459D01*
X68415729Y-78721979D01*
X68422868Y-78720191D01*
X68430149Y-78719111D01*
X68437500Y-78718750D01*
X68587500Y-78718750D01*
X68594851Y-78719111D01*
X68594851Y-78719111D01*
G37*
D12*
X68512500Y-79493750D03*
D11*
G36*
X68094851Y-78719111D02*
G01*
X68102132Y-78720191D01*
X68109271Y-78721979D01*
X68116201Y-78724459D01*
X68122855Y-78727606D01*
X68129168Y-78731390D01*
X68135079Y-78735774D01*
X68140533Y-78740717D01*
X68145476Y-78746171D01*
X68149860Y-78752082D01*
X68153644Y-78758395D01*
X68156791Y-78765049D01*
X68159271Y-78771979D01*
X68161059Y-78779118D01*
X68162139Y-78786399D01*
X68162500Y-78793750D01*
X68162500Y-80193750D01*
X68162139Y-80201101D01*
X68161059Y-80208382D01*
X68159271Y-80215521D01*
X68156791Y-80222451D01*
X68153644Y-80229105D01*
X68149860Y-80235418D01*
X68145476Y-80241329D01*
X68140533Y-80246783D01*
X68135079Y-80251726D01*
X68129168Y-80256110D01*
X68122855Y-80259894D01*
X68116201Y-80263041D01*
X68109271Y-80265521D01*
X68102132Y-80267309D01*
X68094851Y-80268389D01*
X68087500Y-80268750D01*
X67937500Y-80268750D01*
X67930149Y-80268389D01*
X67922868Y-80267309D01*
X67915729Y-80265521D01*
X67908799Y-80263041D01*
X67902145Y-80259894D01*
X67895832Y-80256110D01*
X67889921Y-80251726D01*
X67884467Y-80246783D01*
X67879524Y-80241329D01*
X67875140Y-80235418D01*
X67871356Y-80229105D01*
X67868209Y-80222451D01*
X67865729Y-80215521D01*
X67863941Y-80208382D01*
X67862861Y-80201101D01*
X67862500Y-80193750D01*
X67862500Y-78793750D01*
X67862861Y-78786399D01*
X67863941Y-78779118D01*
X67865729Y-78771979D01*
X67868209Y-78765049D01*
X67871356Y-78758395D01*
X67875140Y-78752082D01*
X67879524Y-78746171D01*
X67884467Y-78740717D01*
X67889921Y-78735774D01*
X67895832Y-78731390D01*
X67902145Y-78727606D01*
X67908799Y-78724459D01*
X67915729Y-78721979D01*
X67922868Y-78720191D01*
X67930149Y-78719111D01*
X67937500Y-78718750D01*
X68087500Y-78718750D01*
X68094851Y-78719111D01*
X68094851Y-78719111D01*
G37*
D12*
X68012500Y-79493750D03*
D11*
G36*
X67594851Y-78719111D02*
G01*
X67602132Y-78720191D01*
X67609271Y-78721979D01*
X67616201Y-78724459D01*
X67622855Y-78727606D01*
X67629168Y-78731390D01*
X67635079Y-78735774D01*
X67640533Y-78740717D01*
X67645476Y-78746171D01*
X67649860Y-78752082D01*
X67653644Y-78758395D01*
X67656791Y-78765049D01*
X67659271Y-78771979D01*
X67661059Y-78779118D01*
X67662139Y-78786399D01*
X67662500Y-78793750D01*
X67662500Y-80193750D01*
X67662139Y-80201101D01*
X67661059Y-80208382D01*
X67659271Y-80215521D01*
X67656791Y-80222451D01*
X67653644Y-80229105D01*
X67649860Y-80235418D01*
X67645476Y-80241329D01*
X67640533Y-80246783D01*
X67635079Y-80251726D01*
X67629168Y-80256110D01*
X67622855Y-80259894D01*
X67616201Y-80263041D01*
X67609271Y-80265521D01*
X67602132Y-80267309D01*
X67594851Y-80268389D01*
X67587500Y-80268750D01*
X67437500Y-80268750D01*
X67430149Y-80268389D01*
X67422868Y-80267309D01*
X67415729Y-80265521D01*
X67408799Y-80263041D01*
X67402145Y-80259894D01*
X67395832Y-80256110D01*
X67389921Y-80251726D01*
X67384467Y-80246783D01*
X67379524Y-80241329D01*
X67375140Y-80235418D01*
X67371356Y-80229105D01*
X67368209Y-80222451D01*
X67365729Y-80215521D01*
X67363941Y-80208382D01*
X67362861Y-80201101D01*
X67362500Y-80193750D01*
X67362500Y-78793750D01*
X67362861Y-78786399D01*
X67363941Y-78779118D01*
X67365729Y-78771979D01*
X67368209Y-78765049D01*
X67371356Y-78758395D01*
X67375140Y-78752082D01*
X67379524Y-78746171D01*
X67384467Y-78740717D01*
X67389921Y-78735774D01*
X67395832Y-78731390D01*
X67402145Y-78727606D01*
X67408799Y-78724459D01*
X67415729Y-78721979D01*
X67422868Y-78720191D01*
X67430149Y-78719111D01*
X67437500Y-78718750D01*
X67587500Y-78718750D01*
X67594851Y-78719111D01*
X67594851Y-78719111D01*
G37*
D12*
X67512500Y-79493750D03*
D11*
G36*
X67094851Y-78719111D02*
G01*
X67102132Y-78720191D01*
X67109271Y-78721979D01*
X67116201Y-78724459D01*
X67122855Y-78727606D01*
X67129168Y-78731390D01*
X67135079Y-78735774D01*
X67140533Y-78740717D01*
X67145476Y-78746171D01*
X67149860Y-78752082D01*
X67153644Y-78758395D01*
X67156791Y-78765049D01*
X67159271Y-78771979D01*
X67161059Y-78779118D01*
X67162139Y-78786399D01*
X67162500Y-78793750D01*
X67162500Y-80193750D01*
X67162139Y-80201101D01*
X67161059Y-80208382D01*
X67159271Y-80215521D01*
X67156791Y-80222451D01*
X67153644Y-80229105D01*
X67149860Y-80235418D01*
X67145476Y-80241329D01*
X67140533Y-80246783D01*
X67135079Y-80251726D01*
X67129168Y-80256110D01*
X67122855Y-80259894D01*
X67116201Y-80263041D01*
X67109271Y-80265521D01*
X67102132Y-80267309D01*
X67094851Y-80268389D01*
X67087500Y-80268750D01*
X66937500Y-80268750D01*
X66930149Y-80268389D01*
X66922868Y-80267309D01*
X66915729Y-80265521D01*
X66908799Y-80263041D01*
X66902145Y-80259894D01*
X66895832Y-80256110D01*
X66889921Y-80251726D01*
X66884467Y-80246783D01*
X66879524Y-80241329D01*
X66875140Y-80235418D01*
X66871356Y-80229105D01*
X66868209Y-80222451D01*
X66865729Y-80215521D01*
X66863941Y-80208382D01*
X66862861Y-80201101D01*
X66862500Y-80193750D01*
X66862500Y-78793750D01*
X66862861Y-78786399D01*
X66863941Y-78779118D01*
X66865729Y-78771979D01*
X66868209Y-78765049D01*
X66871356Y-78758395D01*
X66875140Y-78752082D01*
X66879524Y-78746171D01*
X66884467Y-78740717D01*
X66889921Y-78735774D01*
X66895832Y-78731390D01*
X66902145Y-78727606D01*
X66908799Y-78724459D01*
X66915729Y-78721979D01*
X66922868Y-78720191D01*
X66930149Y-78719111D01*
X66937500Y-78718750D01*
X67087500Y-78718750D01*
X67094851Y-78719111D01*
X67094851Y-78719111D01*
G37*
D12*
X67012500Y-79493750D03*
D11*
G36*
X66594851Y-78719111D02*
G01*
X66602132Y-78720191D01*
X66609271Y-78721979D01*
X66616201Y-78724459D01*
X66622855Y-78727606D01*
X66629168Y-78731390D01*
X66635079Y-78735774D01*
X66640533Y-78740717D01*
X66645476Y-78746171D01*
X66649860Y-78752082D01*
X66653644Y-78758395D01*
X66656791Y-78765049D01*
X66659271Y-78771979D01*
X66661059Y-78779118D01*
X66662139Y-78786399D01*
X66662500Y-78793750D01*
X66662500Y-80193750D01*
X66662139Y-80201101D01*
X66661059Y-80208382D01*
X66659271Y-80215521D01*
X66656791Y-80222451D01*
X66653644Y-80229105D01*
X66649860Y-80235418D01*
X66645476Y-80241329D01*
X66640533Y-80246783D01*
X66635079Y-80251726D01*
X66629168Y-80256110D01*
X66622855Y-80259894D01*
X66616201Y-80263041D01*
X66609271Y-80265521D01*
X66602132Y-80267309D01*
X66594851Y-80268389D01*
X66587500Y-80268750D01*
X66437500Y-80268750D01*
X66430149Y-80268389D01*
X66422868Y-80267309D01*
X66415729Y-80265521D01*
X66408799Y-80263041D01*
X66402145Y-80259894D01*
X66395832Y-80256110D01*
X66389921Y-80251726D01*
X66384467Y-80246783D01*
X66379524Y-80241329D01*
X66375140Y-80235418D01*
X66371356Y-80229105D01*
X66368209Y-80222451D01*
X66365729Y-80215521D01*
X66363941Y-80208382D01*
X66362861Y-80201101D01*
X66362500Y-80193750D01*
X66362500Y-78793750D01*
X66362861Y-78786399D01*
X66363941Y-78779118D01*
X66365729Y-78771979D01*
X66368209Y-78765049D01*
X66371356Y-78758395D01*
X66375140Y-78752082D01*
X66379524Y-78746171D01*
X66384467Y-78740717D01*
X66389921Y-78735774D01*
X66395832Y-78731390D01*
X66402145Y-78727606D01*
X66408799Y-78724459D01*
X66415729Y-78721979D01*
X66422868Y-78720191D01*
X66430149Y-78719111D01*
X66437500Y-78718750D01*
X66587500Y-78718750D01*
X66594851Y-78719111D01*
X66594851Y-78719111D01*
G37*
D12*
X66512500Y-79493750D03*
D11*
G36*
X66094851Y-78719111D02*
G01*
X66102132Y-78720191D01*
X66109271Y-78721979D01*
X66116201Y-78724459D01*
X66122855Y-78727606D01*
X66129168Y-78731390D01*
X66135079Y-78735774D01*
X66140533Y-78740717D01*
X66145476Y-78746171D01*
X66149860Y-78752082D01*
X66153644Y-78758395D01*
X66156791Y-78765049D01*
X66159271Y-78771979D01*
X66161059Y-78779118D01*
X66162139Y-78786399D01*
X66162500Y-78793750D01*
X66162500Y-80193750D01*
X66162139Y-80201101D01*
X66161059Y-80208382D01*
X66159271Y-80215521D01*
X66156791Y-80222451D01*
X66153644Y-80229105D01*
X66149860Y-80235418D01*
X66145476Y-80241329D01*
X66140533Y-80246783D01*
X66135079Y-80251726D01*
X66129168Y-80256110D01*
X66122855Y-80259894D01*
X66116201Y-80263041D01*
X66109271Y-80265521D01*
X66102132Y-80267309D01*
X66094851Y-80268389D01*
X66087500Y-80268750D01*
X65937500Y-80268750D01*
X65930149Y-80268389D01*
X65922868Y-80267309D01*
X65915729Y-80265521D01*
X65908799Y-80263041D01*
X65902145Y-80259894D01*
X65895832Y-80256110D01*
X65889921Y-80251726D01*
X65884467Y-80246783D01*
X65879524Y-80241329D01*
X65875140Y-80235418D01*
X65871356Y-80229105D01*
X65868209Y-80222451D01*
X65865729Y-80215521D01*
X65863941Y-80208382D01*
X65862861Y-80201101D01*
X65862500Y-80193750D01*
X65862500Y-78793750D01*
X65862861Y-78786399D01*
X65863941Y-78779118D01*
X65865729Y-78771979D01*
X65868209Y-78765049D01*
X65871356Y-78758395D01*
X65875140Y-78752082D01*
X65879524Y-78746171D01*
X65884467Y-78740717D01*
X65889921Y-78735774D01*
X65895832Y-78731390D01*
X65902145Y-78727606D01*
X65908799Y-78724459D01*
X65915729Y-78721979D01*
X65922868Y-78720191D01*
X65930149Y-78719111D01*
X65937500Y-78718750D01*
X66087500Y-78718750D01*
X66094851Y-78719111D01*
X66094851Y-78719111D01*
G37*
D12*
X66012500Y-79493750D03*
D11*
G36*
X65594851Y-78719111D02*
G01*
X65602132Y-78720191D01*
X65609271Y-78721979D01*
X65616201Y-78724459D01*
X65622855Y-78727606D01*
X65629168Y-78731390D01*
X65635079Y-78735774D01*
X65640533Y-78740717D01*
X65645476Y-78746171D01*
X65649860Y-78752082D01*
X65653644Y-78758395D01*
X65656791Y-78765049D01*
X65659271Y-78771979D01*
X65661059Y-78779118D01*
X65662139Y-78786399D01*
X65662500Y-78793750D01*
X65662500Y-80193750D01*
X65662139Y-80201101D01*
X65661059Y-80208382D01*
X65659271Y-80215521D01*
X65656791Y-80222451D01*
X65653644Y-80229105D01*
X65649860Y-80235418D01*
X65645476Y-80241329D01*
X65640533Y-80246783D01*
X65635079Y-80251726D01*
X65629168Y-80256110D01*
X65622855Y-80259894D01*
X65616201Y-80263041D01*
X65609271Y-80265521D01*
X65602132Y-80267309D01*
X65594851Y-80268389D01*
X65587500Y-80268750D01*
X65437500Y-80268750D01*
X65430149Y-80268389D01*
X65422868Y-80267309D01*
X65415729Y-80265521D01*
X65408799Y-80263041D01*
X65402145Y-80259894D01*
X65395832Y-80256110D01*
X65389921Y-80251726D01*
X65384467Y-80246783D01*
X65379524Y-80241329D01*
X65375140Y-80235418D01*
X65371356Y-80229105D01*
X65368209Y-80222451D01*
X65365729Y-80215521D01*
X65363941Y-80208382D01*
X65362861Y-80201101D01*
X65362500Y-80193750D01*
X65362500Y-78793750D01*
X65362861Y-78786399D01*
X65363941Y-78779118D01*
X65365729Y-78771979D01*
X65368209Y-78765049D01*
X65371356Y-78758395D01*
X65375140Y-78752082D01*
X65379524Y-78746171D01*
X65384467Y-78740717D01*
X65389921Y-78735774D01*
X65395832Y-78731390D01*
X65402145Y-78727606D01*
X65408799Y-78724459D01*
X65415729Y-78721979D01*
X65422868Y-78720191D01*
X65430149Y-78719111D01*
X65437500Y-78718750D01*
X65587500Y-78718750D01*
X65594851Y-78719111D01*
X65594851Y-78719111D01*
G37*
D12*
X65512500Y-79493750D03*
D11*
G36*
X65094851Y-78719111D02*
G01*
X65102132Y-78720191D01*
X65109271Y-78721979D01*
X65116201Y-78724459D01*
X65122855Y-78727606D01*
X65129168Y-78731390D01*
X65135079Y-78735774D01*
X65140533Y-78740717D01*
X65145476Y-78746171D01*
X65149860Y-78752082D01*
X65153644Y-78758395D01*
X65156791Y-78765049D01*
X65159271Y-78771979D01*
X65161059Y-78779118D01*
X65162139Y-78786399D01*
X65162500Y-78793750D01*
X65162500Y-80193750D01*
X65162139Y-80201101D01*
X65161059Y-80208382D01*
X65159271Y-80215521D01*
X65156791Y-80222451D01*
X65153644Y-80229105D01*
X65149860Y-80235418D01*
X65145476Y-80241329D01*
X65140533Y-80246783D01*
X65135079Y-80251726D01*
X65129168Y-80256110D01*
X65122855Y-80259894D01*
X65116201Y-80263041D01*
X65109271Y-80265521D01*
X65102132Y-80267309D01*
X65094851Y-80268389D01*
X65087500Y-80268750D01*
X64937500Y-80268750D01*
X64930149Y-80268389D01*
X64922868Y-80267309D01*
X64915729Y-80265521D01*
X64908799Y-80263041D01*
X64902145Y-80259894D01*
X64895832Y-80256110D01*
X64889921Y-80251726D01*
X64884467Y-80246783D01*
X64879524Y-80241329D01*
X64875140Y-80235418D01*
X64871356Y-80229105D01*
X64868209Y-80222451D01*
X64865729Y-80215521D01*
X64863941Y-80208382D01*
X64862861Y-80201101D01*
X64862500Y-80193750D01*
X64862500Y-78793750D01*
X64862861Y-78786399D01*
X64863941Y-78779118D01*
X64865729Y-78771979D01*
X64868209Y-78765049D01*
X64871356Y-78758395D01*
X64875140Y-78752082D01*
X64879524Y-78746171D01*
X64884467Y-78740717D01*
X64889921Y-78735774D01*
X64895832Y-78731390D01*
X64902145Y-78727606D01*
X64908799Y-78724459D01*
X64915729Y-78721979D01*
X64922868Y-78720191D01*
X64930149Y-78719111D01*
X64937500Y-78718750D01*
X65087500Y-78718750D01*
X65094851Y-78719111D01*
X65094851Y-78719111D01*
G37*
D12*
X65012500Y-79493750D03*
D11*
G36*
X64594851Y-78719111D02*
G01*
X64602132Y-78720191D01*
X64609271Y-78721979D01*
X64616201Y-78724459D01*
X64622855Y-78727606D01*
X64629168Y-78731390D01*
X64635079Y-78735774D01*
X64640533Y-78740717D01*
X64645476Y-78746171D01*
X64649860Y-78752082D01*
X64653644Y-78758395D01*
X64656791Y-78765049D01*
X64659271Y-78771979D01*
X64661059Y-78779118D01*
X64662139Y-78786399D01*
X64662500Y-78793750D01*
X64662500Y-80193750D01*
X64662139Y-80201101D01*
X64661059Y-80208382D01*
X64659271Y-80215521D01*
X64656791Y-80222451D01*
X64653644Y-80229105D01*
X64649860Y-80235418D01*
X64645476Y-80241329D01*
X64640533Y-80246783D01*
X64635079Y-80251726D01*
X64629168Y-80256110D01*
X64622855Y-80259894D01*
X64616201Y-80263041D01*
X64609271Y-80265521D01*
X64602132Y-80267309D01*
X64594851Y-80268389D01*
X64587500Y-80268750D01*
X64437500Y-80268750D01*
X64430149Y-80268389D01*
X64422868Y-80267309D01*
X64415729Y-80265521D01*
X64408799Y-80263041D01*
X64402145Y-80259894D01*
X64395832Y-80256110D01*
X64389921Y-80251726D01*
X64384467Y-80246783D01*
X64379524Y-80241329D01*
X64375140Y-80235418D01*
X64371356Y-80229105D01*
X64368209Y-80222451D01*
X64365729Y-80215521D01*
X64363941Y-80208382D01*
X64362861Y-80201101D01*
X64362500Y-80193750D01*
X64362500Y-78793750D01*
X64362861Y-78786399D01*
X64363941Y-78779118D01*
X64365729Y-78771979D01*
X64368209Y-78765049D01*
X64371356Y-78758395D01*
X64375140Y-78752082D01*
X64379524Y-78746171D01*
X64384467Y-78740717D01*
X64389921Y-78735774D01*
X64395832Y-78731390D01*
X64402145Y-78727606D01*
X64408799Y-78724459D01*
X64415729Y-78721979D01*
X64422868Y-78720191D01*
X64430149Y-78719111D01*
X64437500Y-78718750D01*
X64587500Y-78718750D01*
X64594851Y-78719111D01*
X64594851Y-78719111D01*
G37*
D12*
X64512500Y-79493750D03*
D11*
G36*
X63294851Y-77419111D02*
G01*
X63302132Y-77420191D01*
X63309271Y-77421979D01*
X63316201Y-77424459D01*
X63322855Y-77427606D01*
X63329168Y-77431390D01*
X63335079Y-77435774D01*
X63340533Y-77440717D01*
X63345476Y-77446171D01*
X63349860Y-77452082D01*
X63353644Y-77458395D01*
X63356791Y-77465049D01*
X63359271Y-77471979D01*
X63361059Y-77479118D01*
X63362139Y-77486399D01*
X63362500Y-77493750D01*
X63362500Y-77643750D01*
X63362139Y-77651101D01*
X63361059Y-77658382D01*
X63359271Y-77665521D01*
X63356791Y-77672451D01*
X63353644Y-77679105D01*
X63349860Y-77685418D01*
X63345476Y-77691329D01*
X63340533Y-77696783D01*
X63335079Y-77701726D01*
X63329168Y-77706110D01*
X63322855Y-77709894D01*
X63316201Y-77713041D01*
X63309271Y-77715521D01*
X63302132Y-77717309D01*
X63294851Y-77718389D01*
X63287500Y-77718750D01*
X61887500Y-77718750D01*
X61880149Y-77718389D01*
X61872868Y-77717309D01*
X61865729Y-77715521D01*
X61858799Y-77713041D01*
X61852145Y-77709894D01*
X61845832Y-77706110D01*
X61839921Y-77701726D01*
X61834467Y-77696783D01*
X61829524Y-77691329D01*
X61825140Y-77685418D01*
X61821356Y-77679105D01*
X61818209Y-77672451D01*
X61815729Y-77665521D01*
X61813941Y-77658382D01*
X61812861Y-77651101D01*
X61812500Y-77643750D01*
X61812500Y-77493750D01*
X61812861Y-77486399D01*
X61813941Y-77479118D01*
X61815729Y-77471979D01*
X61818209Y-77465049D01*
X61821356Y-77458395D01*
X61825140Y-77452082D01*
X61829524Y-77446171D01*
X61834467Y-77440717D01*
X61839921Y-77435774D01*
X61845832Y-77431390D01*
X61852145Y-77427606D01*
X61858799Y-77424459D01*
X61865729Y-77421979D01*
X61872868Y-77420191D01*
X61880149Y-77419111D01*
X61887500Y-77418750D01*
X63287500Y-77418750D01*
X63294851Y-77419111D01*
X63294851Y-77419111D01*
G37*
D12*
X62587500Y-77568750D03*
D11*
G36*
X63294851Y-76919111D02*
G01*
X63302132Y-76920191D01*
X63309271Y-76921979D01*
X63316201Y-76924459D01*
X63322855Y-76927606D01*
X63329168Y-76931390D01*
X63335079Y-76935774D01*
X63340533Y-76940717D01*
X63345476Y-76946171D01*
X63349860Y-76952082D01*
X63353644Y-76958395D01*
X63356791Y-76965049D01*
X63359271Y-76971979D01*
X63361059Y-76979118D01*
X63362139Y-76986399D01*
X63362500Y-76993750D01*
X63362500Y-77143750D01*
X63362139Y-77151101D01*
X63361059Y-77158382D01*
X63359271Y-77165521D01*
X63356791Y-77172451D01*
X63353644Y-77179105D01*
X63349860Y-77185418D01*
X63345476Y-77191329D01*
X63340533Y-77196783D01*
X63335079Y-77201726D01*
X63329168Y-77206110D01*
X63322855Y-77209894D01*
X63316201Y-77213041D01*
X63309271Y-77215521D01*
X63302132Y-77217309D01*
X63294851Y-77218389D01*
X63287500Y-77218750D01*
X61887500Y-77218750D01*
X61880149Y-77218389D01*
X61872868Y-77217309D01*
X61865729Y-77215521D01*
X61858799Y-77213041D01*
X61852145Y-77209894D01*
X61845832Y-77206110D01*
X61839921Y-77201726D01*
X61834467Y-77196783D01*
X61829524Y-77191329D01*
X61825140Y-77185418D01*
X61821356Y-77179105D01*
X61818209Y-77172451D01*
X61815729Y-77165521D01*
X61813941Y-77158382D01*
X61812861Y-77151101D01*
X61812500Y-77143750D01*
X61812500Y-76993750D01*
X61812861Y-76986399D01*
X61813941Y-76979118D01*
X61815729Y-76971979D01*
X61818209Y-76965049D01*
X61821356Y-76958395D01*
X61825140Y-76952082D01*
X61829524Y-76946171D01*
X61834467Y-76940717D01*
X61839921Y-76935774D01*
X61845832Y-76931390D01*
X61852145Y-76927606D01*
X61858799Y-76924459D01*
X61865729Y-76921979D01*
X61872868Y-76920191D01*
X61880149Y-76919111D01*
X61887500Y-76918750D01*
X63287500Y-76918750D01*
X63294851Y-76919111D01*
X63294851Y-76919111D01*
G37*
D12*
X62587500Y-77068750D03*
D11*
G36*
X63294851Y-76419111D02*
G01*
X63302132Y-76420191D01*
X63309271Y-76421979D01*
X63316201Y-76424459D01*
X63322855Y-76427606D01*
X63329168Y-76431390D01*
X63335079Y-76435774D01*
X63340533Y-76440717D01*
X63345476Y-76446171D01*
X63349860Y-76452082D01*
X63353644Y-76458395D01*
X63356791Y-76465049D01*
X63359271Y-76471979D01*
X63361059Y-76479118D01*
X63362139Y-76486399D01*
X63362500Y-76493750D01*
X63362500Y-76643750D01*
X63362139Y-76651101D01*
X63361059Y-76658382D01*
X63359271Y-76665521D01*
X63356791Y-76672451D01*
X63353644Y-76679105D01*
X63349860Y-76685418D01*
X63345476Y-76691329D01*
X63340533Y-76696783D01*
X63335079Y-76701726D01*
X63329168Y-76706110D01*
X63322855Y-76709894D01*
X63316201Y-76713041D01*
X63309271Y-76715521D01*
X63302132Y-76717309D01*
X63294851Y-76718389D01*
X63287500Y-76718750D01*
X61887500Y-76718750D01*
X61880149Y-76718389D01*
X61872868Y-76717309D01*
X61865729Y-76715521D01*
X61858799Y-76713041D01*
X61852145Y-76709894D01*
X61845832Y-76706110D01*
X61839921Y-76701726D01*
X61834467Y-76696783D01*
X61829524Y-76691329D01*
X61825140Y-76685418D01*
X61821356Y-76679105D01*
X61818209Y-76672451D01*
X61815729Y-76665521D01*
X61813941Y-76658382D01*
X61812861Y-76651101D01*
X61812500Y-76643750D01*
X61812500Y-76493750D01*
X61812861Y-76486399D01*
X61813941Y-76479118D01*
X61815729Y-76471979D01*
X61818209Y-76465049D01*
X61821356Y-76458395D01*
X61825140Y-76452082D01*
X61829524Y-76446171D01*
X61834467Y-76440717D01*
X61839921Y-76435774D01*
X61845832Y-76431390D01*
X61852145Y-76427606D01*
X61858799Y-76424459D01*
X61865729Y-76421979D01*
X61872868Y-76420191D01*
X61880149Y-76419111D01*
X61887500Y-76418750D01*
X63287500Y-76418750D01*
X63294851Y-76419111D01*
X63294851Y-76419111D01*
G37*
D12*
X62587500Y-76568750D03*
D11*
G36*
X63294851Y-75919111D02*
G01*
X63302132Y-75920191D01*
X63309271Y-75921979D01*
X63316201Y-75924459D01*
X63322855Y-75927606D01*
X63329168Y-75931390D01*
X63335079Y-75935774D01*
X63340533Y-75940717D01*
X63345476Y-75946171D01*
X63349860Y-75952082D01*
X63353644Y-75958395D01*
X63356791Y-75965049D01*
X63359271Y-75971979D01*
X63361059Y-75979118D01*
X63362139Y-75986399D01*
X63362500Y-75993750D01*
X63362500Y-76143750D01*
X63362139Y-76151101D01*
X63361059Y-76158382D01*
X63359271Y-76165521D01*
X63356791Y-76172451D01*
X63353644Y-76179105D01*
X63349860Y-76185418D01*
X63345476Y-76191329D01*
X63340533Y-76196783D01*
X63335079Y-76201726D01*
X63329168Y-76206110D01*
X63322855Y-76209894D01*
X63316201Y-76213041D01*
X63309271Y-76215521D01*
X63302132Y-76217309D01*
X63294851Y-76218389D01*
X63287500Y-76218750D01*
X61887500Y-76218750D01*
X61880149Y-76218389D01*
X61872868Y-76217309D01*
X61865729Y-76215521D01*
X61858799Y-76213041D01*
X61852145Y-76209894D01*
X61845832Y-76206110D01*
X61839921Y-76201726D01*
X61834467Y-76196783D01*
X61829524Y-76191329D01*
X61825140Y-76185418D01*
X61821356Y-76179105D01*
X61818209Y-76172451D01*
X61815729Y-76165521D01*
X61813941Y-76158382D01*
X61812861Y-76151101D01*
X61812500Y-76143750D01*
X61812500Y-75993750D01*
X61812861Y-75986399D01*
X61813941Y-75979118D01*
X61815729Y-75971979D01*
X61818209Y-75965049D01*
X61821356Y-75958395D01*
X61825140Y-75952082D01*
X61829524Y-75946171D01*
X61834467Y-75940717D01*
X61839921Y-75935774D01*
X61845832Y-75931390D01*
X61852145Y-75927606D01*
X61858799Y-75924459D01*
X61865729Y-75921979D01*
X61872868Y-75920191D01*
X61880149Y-75919111D01*
X61887500Y-75918750D01*
X63287500Y-75918750D01*
X63294851Y-75919111D01*
X63294851Y-75919111D01*
G37*
D12*
X62587500Y-76068750D03*
D11*
G36*
X63294851Y-75419111D02*
G01*
X63302132Y-75420191D01*
X63309271Y-75421979D01*
X63316201Y-75424459D01*
X63322855Y-75427606D01*
X63329168Y-75431390D01*
X63335079Y-75435774D01*
X63340533Y-75440717D01*
X63345476Y-75446171D01*
X63349860Y-75452082D01*
X63353644Y-75458395D01*
X63356791Y-75465049D01*
X63359271Y-75471979D01*
X63361059Y-75479118D01*
X63362139Y-75486399D01*
X63362500Y-75493750D01*
X63362500Y-75643750D01*
X63362139Y-75651101D01*
X63361059Y-75658382D01*
X63359271Y-75665521D01*
X63356791Y-75672451D01*
X63353644Y-75679105D01*
X63349860Y-75685418D01*
X63345476Y-75691329D01*
X63340533Y-75696783D01*
X63335079Y-75701726D01*
X63329168Y-75706110D01*
X63322855Y-75709894D01*
X63316201Y-75713041D01*
X63309271Y-75715521D01*
X63302132Y-75717309D01*
X63294851Y-75718389D01*
X63287500Y-75718750D01*
X61887500Y-75718750D01*
X61880149Y-75718389D01*
X61872868Y-75717309D01*
X61865729Y-75715521D01*
X61858799Y-75713041D01*
X61852145Y-75709894D01*
X61845832Y-75706110D01*
X61839921Y-75701726D01*
X61834467Y-75696783D01*
X61829524Y-75691329D01*
X61825140Y-75685418D01*
X61821356Y-75679105D01*
X61818209Y-75672451D01*
X61815729Y-75665521D01*
X61813941Y-75658382D01*
X61812861Y-75651101D01*
X61812500Y-75643750D01*
X61812500Y-75493750D01*
X61812861Y-75486399D01*
X61813941Y-75479118D01*
X61815729Y-75471979D01*
X61818209Y-75465049D01*
X61821356Y-75458395D01*
X61825140Y-75452082D01*
X61829524Y-75446171D01*
X61834467Y-75440717D01*
X61839921Y-75435774D01*
X61845832Y-75431390D01*
X61852145Y-75427606D01*
X61858799Y-75424459D01*
X61865729Y-75421979D01*
X61872868Y-75420191D01*
X61880149Y-75419111D01*
X61887500Y-75418750D01*
X63287500Y-75418750D01*
X63294851Y-75419111D01*
X63294851Y-75419111D01*
G37*
D12*
X62587500Y-75568750D03*
D11*
G36*
X63294851Y-74919111D02*
G01*
X63302132Y-74920191D01*
X63309271Y-74921979D01*
X63316201Y-74924459D01*
X63322855Y-74927606D01*
X63329168Y-74931390D01*
X63335079Y-74935774D01*
X63340533Y-74940717D01*
X63345476Y-74946171D01*
X63349860Y-74952082D01*
X63353644Y-74958395D01*
X63356791Y-74965049D01*
X63359271Y-74971979D01*
X63361059Y-74979118D01*
X63362139Y-74986399D01*
X63362500Y-74993750D01*
X63362500Y-75143750D01*
X63362139Y-75151101D01*
X63361059Y-75158382D01*
X63359271Y-75165521D01*
X63356791Y-75172451D01*
X63353644Y-75179105D01*
X63349860Y-75185418D01*
X63345476Y-75191329D01*
X63340533Y-75196783D01*
X63335079Y-75201726D01*
X63329168Y-75206110D01*
X63322855Y-75209894D01*
X63316201Y-75213041D01*
X63309271Y-75215521D01*
X63302132Y-75217309D01*
X63294851Y-75218389D01*
X63287500Y-75218750D01*
X61887500Y-75218750D01*
X61880149Y-75218389D01*
X61872868Y-75217309D01*
X61865729Y-75215521D01*
X61858799Y-75213041D01*
X61852145Y-75209894D01*
X61845832Y-75206110D01*
X61839921Y-75201726D01*
X61834467Y-75196783D01*
X61829524Y-75191329D01*
X61825140Y-75185418D01*
X61821356Y-75179105D01*
X61818209Y-75172451D01*
X61815729Y-75165521D01*
X61813941Y-75158382D01*
X61812861Y-75151101D01*
X61812500Y-75143750D01*
X61812500Y-74993750D01*
X61812861Y-74986399D01*
X61813941Y-74979118D01*
X61815729Y-74971979D01*
X61818209Y-74965049D01*
X61821356Y-74958395D01*
X61825140Y-74952082D01*
X61829524Y-74946171D01*
X61834467Y-74940717D01*
X61839921Y-74935774D01*
X61845832Y-74931390D01*
X61852145Y-74927606D01*
X61858799Y-74924459D01*
X61865729Y-74921979D01*
X61872868Y-74920191D01*
X61880149Y-74919111D01*
X61887500Y-74918750D01*
X63287500Y-74918750D01*
X63294851Y-74919111D01*
X63294851Y-74919111D01*
G37*
D12*
X62587500Y-75068750D03*
D11*
G36*
X63294851Y-74419111D02*
G01*
X63302132Y-74420191D01*
X63309271Y-74421979D01*
X63316201Y-74424459D01*
X63322855Y-74427606D01*
X63329168Y-74431390D01*
X63335079Y-74435774D01*
X63340533Y-74440717D01*
X63345476Y-74446171D01*
X63349860Y-74452082D01*
X63353644Y-74458395D01*
X63356791Y-74465049D01*
X63359271Y-74471979D01*
X63361059Y-74479118D01*
X63362139Y-74486399D01*
X63362500Y-74493750D01*
X63362500Y-74643750D01*
X63362139Y-74651101D01*
X63361059Y-74658382D01*
X63359271Y-74665521D01*
X63356791Y-74672451D01*
X63353644Y-74679105D01*
X63349860Y-74685418D01*
X63345476Y-74691329D01*
X63340533Y-74696783D01*
X63335079Y-74701726D01*
X63329168Y-74706110D01*
X63322855Y-74709894D01*
X63316201Y-74713041D01*
X63309271Y-74715521D01*
X63302132Y-74717309D01*
X63294851Y-74718389D01*
X63287500Y-74718750D01*
X61887500Y-74718750D01*
X61880149Y-74718389D01*
X61872868Y-74717309D01*
X61865729Y-74715521D01*
X61858799Y-74713041D01*
X61852145Y-74709894D01*
X61845832Y-74706110D01*
X61839921Y-74701726D01*
X61834467Y-74696783D01*
X61829524Y-74691329D01*
X61825140Y-74685418D01*
X61821356Y-74679105D01*
X61818209Y-74672451D01*
X61815729Y-74665521D01*
X61813941Y-74658382D01*
X61812861Y-74651101D01*
X61812500Y-74643750D01*
X61812500Y-74493750D01*
X61812861Y-74486399D01*
X61813941Y-74479118D01*
X61815729Y-74471979D01*
X61818209Y-74465049D01*
X61821356Y-74458395D01*
X61825140Y-74452082D01*
X61829524Y-74446171D01*
X61834467Y-74440717D01*
X61839921Y-74435774D01*
X61845832Y-74431390D01*
X61852145Y-74427606D01*
X61858799Y-74424459D01*
X61865729Y-74421979D01*
X61872868Y-74420191D01*
X61880149Y-74419111D01*
X61887500Y-74418750D01*
X63287500Y-74418750D01*
X63294851Y-74419111D01*
X63294851Y-74419111D01*
G37*
D12*
X62587500Y-74568750D03*
D11*
G36*
X63294851Y-73919111D02*
G01*
X63302132Y-73920191D01*
X63309271Y-73921979D01*
X63316201Y-73924459D01*
X63322855Y-73927606D01*
X63329168Y-73931390D01*
X63335079Y-73935774D01*
X63340533Y-73940717D01*
X63345476Y-73946171D01*
X63349860Y-73952082D01*
X63353644Y-73958395D01*
X63356791Y-73965049D01*
X63359271Y-73971979D01*
X63361059Y-73979118D01*
X63362139Y-73986399D01*
X63362500Y-73993750D01*
X63362500Y-74143750D01*
X63362139Y-74151101D01*
X63361059Y-74158382D01*
X63359271Y-74165521D01*
X63356791Y-74172451D01*
X63353644Y-74179105D01*
X63349860Y-74185418D01*
X63345476Y-74191329D01*
X63340533Y-74196783D01*
X63335079Y-74201726D01*
X63329168Y-74206110D01*
X63322855Y-74209894D01*
X63316201Y-74213041D01*
X63309271Y-74215521D01*
X63302132Y-74217309D01*
X63294851Y-74218389D01*
X63287500Y-74218750D01*
X61887500Y-74218750D01*
X61880149Y-74218389D01*
X61872868Y-74217309D01*
X61865729Y-74215521D01*
X61858799Y-74213041D01*
X61852145Y-74209894D01*
X61845832Y-74206110D01*
X61839921Y-74201726D01*
X61834467Y-74196783D01*
X61829524Y-74191329D01*
X61825140Y-74185418D01*
X61821356Y-74179105D01*
X61818209Y-74172451D01*
X61815729Y-74165521D01*
X61813941Y-74158382D01*
X61812861Y-74151101D01*
X61812500Y-74143750D01*
X61812500Y-73993750D01*
X61812861Y-73986399D01*
X61813941Y-73979118D01*
X61815729Y-73971979D01*
X61818209Y-73965049D01*
X61821356Y-73958395D01*
X61825140Y-73952082D01*
X61829524Y-73946171D01*
X61834467Y-73940717D01*
X61839921Y-73935774D01*
X61845832Y-73931390D01*
X61852145Y-73927606D01*
X61858799Y-73924459D01*
X61865729Y-73921979D01*
X61872868Y-73920191D01*
X61880149Y-73919111D01*
X61887500Y-73918750D01*
X63287500Y-73918750D01*
X63294851Y-73919111D01*
X63294851Y-73919111D01*
G37*
D12*
X62587500Y-74068750D03*
D11*
G36*
X63294851Y-73419111D02*
G01*
X63302132Y-73420191D01*
X63309271Y-73421979D01*
X63316201Y-73424459D01*
X63322855Y-73427606D01*
X63329168Y-73431390D01*
X63335079Y-73435774D01*
X63340533Y-73440717D01*
X63345476Y-73446171D01*
X63349860Y-73452082D01*
X63353644Y-73458395D01*
X63356791Y-73465049D01*
X63359271Y-73471979D01*
X63361059Y-73479118D01*
X63362139Y-73486399D01*
X63362500Y-73493750D01*
X63362500Y-73643750D01*
X63362139Y-73651101D01*
X63361059Y-73658382D01*
X63359271Y-73665521D01*
X63356791Y-73672451D01*
X63353644Y-73679105D01*
X63349860Y-73685418D01*
X63345476Y-73691329D01*
X63340533Y-73696783D01*
X63335079Y-73701726D01*
X63329168Y-73706110D01*
X63322855Y-73709894D01*
X63316201Y-73713041D01*
X63309271Y-73715521D01*
X63302132Y-73717309D01*
X63294851Y-73718389D01*
X63287500Y-73718750D01*
X61887500Y-73718750D01*
X61880149Y-73718389D01*
X61872868Y-73717309D01*
X61865729Y-73715521D01*
X61858799Y-73713041D01*
X61852145Y-73709894D01*
X61845832Y-73706110D01*
X61839921Y-73701726D01*
X61834467Y-73696783D01*
X61829524Y-73691329D01*
X61825140Y-73685418D01*
X61821356Y-73679105D01*
X61818209Y-73672451D01*
X61815729Y-73665521D01*
X61813941Y-73658382D01*
X61812861Y-73651101D01*
X61812500Y-73643750D01*
X61812500Y-73493750D01*
X61812861Y-73486399D01*
X61813941Y-73479118D01*
X61815729Y-73471979D01*
X61818209Y-73465049D01*
X61821356Y-73458395D01*
X61825140Y-73452082D01*
X61829524Y-73446171D01*
X61834467Y-73440717D01*
X61839921Y-73435774D01*
X61845832Y-73431390D01*
X61852145Y-73427606D01*
X61858799Y-73424459D01*
X61865729Y-73421979D01*
X61872868Y-73420191D01*
X61880149Y-73419111D01*
X61887500Y-73418750D01*
X63287500Y-73418750D01*
X63294851Y-73419111D01*
X63294851Y-73419111D01*
G37*
D12*
X62587500Y-73568750D03*
D11*
G36*
X63294851Y-72919111D02*
G01*
X63302132Y-72920191D01*
X63309271Y-72921979D01*
X63316201Y-72924459D01*
X63322855Y-72927606D01*
X63329168Y-72931390D01*
X63335079Y-72935774D01*
X63340533Y-72940717D01*
X63345476Y-72946171D01*
X63349860Y-72952082D01*
X63353644Y-72958395D01*
X63356791Y-72965049D01*
X63359271Y-72971979D01*
X63361059Y-72979118D01*
X63362139Y-72986399D01*
X63362500Y-72993750D01*
X63362500Y-73143750D01*
X63362139Y-73151101D01*
X63361059Y-73158382D01*
X63359271Y-73165521D01*
X63356791Y-73172451D01*
X63353644Y-73179105D01*
X63349860Y-73185418D01*
X63345476Y-73191329D01*
X63340533Y-73196783D01*
X63335079Y-73201726D01*
X63329168Y-73206110D01*
X63322855Y-73209894D01*
X63316201Y-73213041D01*
X63309271Y-73215521D01*
X63302132Y-73217309D01*
X63294851Y-73218389D01*
X63287500Y-73218750D01*
X61887500Y-73218750D01*
X61880149Y-73218389D01*
X61872868Y-73217309D01*
X61865729Y-73215521D01*
X61858799Y-73213041D01*
X61852145Y-73209894D01*
X61845832Y-73206110D01*
X61839921Y-73201726D01*
X61834467Y-73196783D01*
X61829524Y-73191329D01*
X61825140Y-73185418D01*
X61821356Y-73179105D01*
X61818209Y-73172451D01*
X61815729Y-73165521D01*
X61813941Y-73158382D01*
X61812861Y-73151101D01*
X61812500Y-73143750D01*
X61812500Y-72993750D01*
X61812861Y-72986399D01*
X61813941Y-72979118D01*
X61815729Y-72971979D01*
X61818209Y-72965049D01*
X61821356Y-72958395D01*
X61825140Y-72952082D01*
X61829524Y-72946171D01*
X61834467Y-72940717D01*
X61839921Y-72935774D01*
X61845832Y-72931390D01*
X61852145Y-72927606D01*
X61858799Y-72924459D01*
X61865729Y-72921979D01*
X61872868Y-72920191D01*
X61880149Y-72919111D01*
X61887500Y-72918750D01*
X63287500Y-72918750D01*
X63294851Y-72919111D01*
X63294851Y-72919111D01*
G37*
D12*
X62587500Y-73068750D03*
D11*
G36*
X63294851Y-72419111D02*
G01*
X63302132Y-72420191D01*
X63309271Y-72421979D01*
X63316201Y-72424459D01*
X63322855Y-72427606D01*
X63329168Y-72431390D01*
X63335079Y-72435774D01*
X63340533Y-72440717D01*
X63345476Y-72446171D01*
X63349860Y-72452082D01*
X63353644Y-72458395D01*
X63356791Y-72465049D01*
X63359271Y-72471979D01*
X63361059Y-72479118D01*
X63362139Y-72486399D01*
X63362500Y-72493750D01*
X63362500Y-72643750D01*
X63362139Y-72651101D01*
X63361059Y-72658382D01*
X63359271Y-72665521D01*
X63356791Y-72672451D01*
X63353644Y-72679105D01*
X63349860Y-72685418D01*
X63345476Y-72691329D01*
X63340533Y-72696783D01*
X63335079Y-72701726D01*
X63329168Y-72706110D01*
X63322855Y-72709894D01*
X63316201Y-72713041D01*
X63309271Y-72715521D01*
X63302132Y-72717309D01*
X63294851Y-72718389D01*
X63287500Y-72718750D01*
X61887500Y-72718750D01*
X61880149Y-72718389D01*
X61872868Y-72717309D01*
X61865729Y-72715521D01*
X61858799Y-72713041D01*
X61852145Y-72709894D01*
X61845832Y-72706110D01*
X61839921Y-72701726D01*
X61834467Y-72696783D01*
X61829524Y-72691329D01*
X61825140Y-72685418D01*
X61821356Y-72679105D01*
X61818209Y-72672451D01*
X61815729Y-72665521D01*
X61813941Y-72658382D01*
X61812861Y-72651101D01*
X61812500Y-72643750D01*
X61812500Y-72493750D01*
X61812861Y-72486399D01*
X61813941Y-72479118D01*
X61815729Y-72471979D01*
X61818209Y-72465049D01*
X61821356Y-72458395D01*
X61825140Y-72452082D01*
X61829524Y-72446171D01*
X61834467Y-72440717D01*
X61839921Y-72435774D01*
X61845832Y-72431390D01*
X61852145Y-72427606D01*
X61858799Y-72424459D01*
X61865729Y-72421979D01*
X61872868Y-72420191D01*
X61880149Y-72419111D01*
X61887500Y-72418750D01*
X63287500Y-72418750D01*
X63294851Y-72419111D01*
X63294851Y-72419111D01*
G37*
D12*
X62587500Y-72568750D03*
D11*
G36*
X63294851Y-71919111D02*
G01*
X63302132Y-71920191D01*
X63309271Y-71921979D01*
X63316201Y-71924459D01*
X63322855Y-71927606D01*
X63329168Y-71931390D01*
X63335079Y-71935774D01*
X63340533Y-71940717D01*
X63345476Y-71946171D01*
X63349860Y-71952082D01*
X63353644Y-71958395D01*
X63356791Y-71965049D01*
X63359271Y-71971979D01*
X63361059Y-71979118D01*
X63362139Y-71986399D01*
X63362500Y-71993750D01*
X63362500Y-72143750D01*
X63362139Y-72151101D01*
X63361059Y-72158382D01*
X63359271Y-72165521D01*
X63356791Y-72172451D01*
X63353644Y-72179105D01*
X63349860Y-72185418D01*
X63345476Y-72191329D01*
X63340533Y-72196783D01*
X63335079Y-72201726D01*
X63329168Y-72206110D01*
X63322855Y-72209894D01*
X63316201Y-72213041D01*
X63309271Y-72215521D01*
X63302132Y-72217309D01*
X63294851Y-72218389D01*
X63287500Y-72218750D01*
X61887500Y-72218750D01*
X61880149Y-72218389D01*
X61872868Y-72217309D01*
X61865729Y-72215521D01*
X61858799Y-72213041D01*
X61852145Y-72209894D01*
X61845832Y-72206110D01*
X61839921Y-72201726D01*
X61834467Y-72196783D01*
X61829524Y-72191329D01*
X61825140Y-72185418D01*
X61821356Y-72179105D01*
X61818209Y-72172451D01*
X61815729Y-72165521D01*
X61813941Y-72158382D01*
X61812861Y-72151101D01*
X61812500Y-72143750D01*
X61812500Y-71993750D01*
X61812861Y-71986399D01*
X61813941Y-71979118D01*
X61815729Y-71971979D01*
X61818209Y-71965049D01*
X61821356Y-71958395D01*
X61825140Y-71952082D01*
X61829524Y-71946171D01*
X61834467Y-71940717D01*
X61839921Y-71935774D01*
X61845832Y-71931390D01*
X61852145Y-71927606D01*
X61858799Y-71924459D01*
X61865729Y-71921979D01*
X61872868Y-71920191D01*
X61880149Y-71919111D01*
X61887500Y-71918750D01*
X63287500Y-71918750D01*
X63294851Y-71919111D01*
X63294851Y-71919111D01*
G37*
D12*
X62587500Y-72068750D03*
D11*
G36*
X63294851Y-71419111D02*
G01*
X63302132Y-71420191D01*
X63309271Y-71421979D01*
X63316201Y-71424459D01*
X63322855Y-71427606D01*
X63329168Y-71431390D01*
X63335079Y-71435774D01*
X63340533Y-71440717D01*
X63345476Y-71446171D01*
X63349860Y-71452082D01*
X63353644Y-71458395D01*
X63356791Y-71465049D01*
X63359271Y-71471979D01*
X63361059Y-71479118D01*
X63362139Y-71486399D01*
X63362500Y-71493750D01*
X63362500Y-71643750D01*
X63362139Y-71651101D01*
X63361059Y-71658382D01*
X63359271Y-71665521D01*
X63356791Y-71672451D01*
X63353644Y-71679105D01*
X63349860Y-71685418D01*
X63345476Y-71691329D01*
X63340533Y-71696783D01*
X63335079Y-71701726D01*
X63329168Y-71706110D01*
X63322855Y-71709894D01*
X63316201Y-71713041D01*
X63309271Y-71715521D01*
X63302132Y-71717309D01*
X63294851Y-71718389D01*
X63287500Y-71718750D01*
X61887500Y-71718750D01*
X61880149Y-71718389D01*
X61872868Y-71717309D01*
X61865729Y-71715521D01*
X61858799Y-71713041D01*
X61852145Y-71709894D01*
X61845832Y-71706110D01*
X61839921Y-71701726D01*
X61834467Y-71696783D01*
X61829524Y-71691329D01*
X61825140Y-71685418D01*
X61821356Y-71679105D01*
X61818209Y-71672451D01*
X61815729Y-71665521D01*
X61813941Y-71658382D01*
X61812861Y-71651101D01*
X61812500Y-71643750D01*
X61812500Y-71493750D01*
X61812861Y-71486399D01*
X61813941Y-71479118D01*
X61815729Y-71471979D01*
X61818209Y-71465049D01*
X61821356Y-71458395D01*
X61825140Y-71452082D01*
X61829524Y-71446171D01*
X61834467Y-71440717D01*
X61839921Y-71435774D01*
X61845832Y-71431390D01*
X61852145Y-71427606D01*
X61858799Y-71424459D01*
X61865729Y-71421979D01*
X61872868Y-71420191D01*
X61880149Y-71419111D01*
X61887500Y-71418750D01*
X63287500Y-71418750D01*
X63294851Y-71419111D01*
X63294851Y-71419111D01*
G37*
D12*
X62587500Y-71568750D03*
D11*
G36*
X63294851Y-70919111D02*
G01*
X63302132Y-70920191D01*
X63309271Y-70921979D01*
X63316201Y-70924459D01*
X63322855Y-70927606D01*
X63329168Y-70931390D01*
X63335079Y-70935774D01*
X63340533Y-70940717D01*
X63345476Y-70946171D01*
X63349860Y-70952082D01*
X63353644Y-70958395D01*
X63356791Y-70965049D01*
X63359271Y-70971979D01*
X63361059Y-70979118D01*
X63362139Y-70986399D01*
X63362500Y-70993750D01*
X63362500Y-71143750D01*
X63362139Y-71151101D01*
X63361059Y-71158382D01*
X63359271Y-71165521D01*
X63356791Y-71172451D01*
X63353644Y-71179105D01*
X63349860Y-71185418D01*
X63345476Y-71191329D01*
X63340533Y-71196783D01*
X63335079Y-71201726D01*
X63329168Y-71206110D01*
X63322855Y-71209894D01*
X63316201Y-71213041D01*
X63309271Y-71215521D01*
X63302132Y-71217309D01*
X63294851Y-71218389D01*
X63287500Y-71218750D01*
X61887500Y-71218750D01*
X61880149Y-71218389D01*
X61872868Y-71217309D01*
X61865729Y-71215521D01*
X61858799Y-71213041D01*
X61852145Y-71209894D01*
X61845832Y-71206110D01*
X61839921Y-71201726D01*
X61834467Y-71196783D01*
X61829524Y-71191329D01*
X61825140Y-71185418D01*
X61821356Y-71179105D01*
X61818209Y-71172451D01*
X61815729Y-71165521D01*
X61813941Y-71158382D01*
X61812861Y-71151101D01*
X61812500Y-71143750D01*
X61812500Y-70993750D01*
X61812861Y-70986399D01*
X61813941Y-70979118D01*
X61815729Y-70971979D01*
X61818209Y-70965049D01*
X61821356Y-70958395D01*
X61825140Y-70952082D01*
X61829524Y-70946171D01*
X61834467Y-70940717D01*
X61839921Y-70935774D01*
X61845832Y-70931390D01*
X61852145Y-70927606D01*
X61858799Y-70924459D01*
X61865729Y-70921979D01*
X61872868Y-70920191D01*
X61880149Y-70919111D01*
X61887500Y-70918750D01*
X63287500Y-70918750D01*
X63294851Y-70919111D01*
X63294851Y-70919111D01*
G37*
D12*
X62587500Y-71068750D03*
D11*
G36*
X63294851Y-70419111D02*
G01*
X63302132Y-70420191D01*
X63309271Y-70421979D01*
X63316201Y-70424459D01*
X63322855Y-70427606D01*
X63329168Y-70431390D01*
X63335079Y-70435774D01*
X63340533Y-70440717D01*
X63345476Y-70446171D01*
X63349860Y-70452082D01*
X63353644Y-70458395D01*
X63356791Y-70465049D01*
X63359271Y-70471979D01*
X63361059Y-70479118D01*
X63362139Y-70486399D01*
X63362500Y-70493750D01*
X63362500Y-70643750D01*
X63362139Y-70651101D01*
X63361059Y-70658382D01*
X63359271Y-70665521D01*
X63356791Y-70672451D01*
X63353644Y-70679105D01*
X63349860Y-70685418D01*
X63345476Y-70691329D01*
X63340533Y-70696783D01*
X63335079Y-70701726D01*
X63329168Y-70706110D01*
X63322855Y-70709894D01*
X63316201Y-70713041D01*
X63309271Y-70715521D01*
X63302132Y-70717309D01*
X63294851Y-70718389D01*
X63287500Y-70718750D01*
X61887500Y-70718750D01*
X61880149Y-70718389D01*
X61872868Y-70717309D01*
X61865729Y-70715521D01*
X61858799Y-70713041D01*
X61852145Y-70709894D01*
X61845832Y-70706110D01*
X61839921Y-70701726D01*
X61834467Y-70696783D01*
X61829524Y-70691329D01*
X61825140Y-70685418D01*
X61821356Y-70679105D01*
X61818209Y-70672451D01*
X61815729Y-70665521D01*
X61813941Y-70658382D01*
X61812861Y-70651101D01*
X61812500Y-70643750D01*
X61812500Y-70493750D01*
X61812861Y-70486399D01*
X61813941Y-70479118D01*
X61815729Y-70471979D01*
X61818209Y-70465049D01*
X61821356Y-70458395D01*
X61825140Y-70452082D01*
X61829524Y-70446171D01*
X61834467Y-70440717D01*
X61839921Y-70435774D01*
X61845832Y-70431390D01*
X61852145Y-70427606D01*
X61858799Y-70424459D01*
X61865729Y-70421979D01*
X61872868Y-70420191D01*
X61880149Y-70419111D01*
X61887500Y-70418750D01*
X63287500Y-70418750D01*
X63294851Y-70419111D01*
X63294851Y-70419111D01*
G37*
D12*
X62587500Y-70568750D03*
D11*
G36*
X63294851Y-69919111D02*
G01*
X63302132Y-69920191D01*
X63309271Y-69921979D01*
X63316201Y-69924459D01*
X63322855Y-69927606D01*
X63329168Y-69931390D01*
X63335079Y-69935774D01*
X63340533Y-69940717D01*
X63345476Y-69946171D01*
X63349860Y-69952082D01*
X63353644Y-69958395D01*
X63356791Y-69965049D01*
X63359271Y-69971979D01*
X63361059Y-69979118D01*
X63362139Y-69986399D01*
X63362500Y-69993750D01*
X63362500Y-70143750D01*
X63362139Y-70151101D01*
X63361059Y-70158382D01*
X63359271Y-70165521D01*
X63356791Y-70172451D01*
X63353644Y-70179105D01*
X63349860Y-70185418D01*
X63345476Y-70191329D01*
X63340533Y-70196783D01*
X63335079Y-70201726D01*
X63329168Y-70206110D01*
X63322855Y-70209894D01*
X63316201Y-70213041D01*
X63309271Y-70215521D01*
X63302132Y-70217309D01*
X63294851Y-70218389D01*
X63287500Y-70218750D01*
X61887500Y-70218750D01*
X61880149Y-70218389D01*
X61872868Y-70217309D01*
X61865729Y-70215521D01*
X61858799Y-70213041D01*
X61852145Y-70209894D01*
X61845832Y-70206110D01*
X61839921Y-70201726D01*
X61834467Y-70196783D01*
X61829524Y-70191329D01*
X61825140Y-70185418D01*
X61821356Y-70179105D01*
X61818209Y-70172451D01*
X61815729Y-70165521D01*
X61813941Y-70158382D01*
X61812861Y-70151101D01*
X61812500Y-70143750D01*
X61812500Y-69993750D01*
X61812861Y-69986399D01*
X61813941Y-69979118D01*
X61815729Y-69971979D01*
X61818209Y-69965049D01*
X61821356Y-69958395D01*
X61825140Y-69952082D01*
X61829524Y-69946171D01*
X61834467Y-69940717D01*
X61839921Y-69935774D01*
X61845832Y-69931390D01*
X61852145Y-69927606D01*
X61858799Y-69924459D01*
X61865729Y-69921979D01*
X61872868Y-69920191D01*
X61880149Y-69919111D01*
X61887500Y-69918750D01*
X63287500Y-69918750D01*
X63294851Y-69919111D01*
X63294851Y-69919111D01*
G37*
D12*
X62587500Y-70068750D03*
D11*
G36*
X64594851Y-67369111D02*
G01*
X64602132Y-67370191D01*
X64609271Y-67371979D01*
X64616201Y-67374459D01*
X64622855Y-67377606D01*
X64629168Y-67381390D01*
X64635079Y-67385774D01*
X64640533Y-67390717D01*
X64645476Y-67396171D01*
X64649860Y-67402082D01*
X64653644Y-67408395D01*
X64656791Y-67415049D01*
X64659271Y-67421979D01*
X64661059Y-67429118D01*
X64662139Y-67436399D01*
X64662500Y-67443750D01*
X64662500Y-68843750D01*
X64662139Y-68851101D01*
X64661059Y-68858382D01*
X64659271Y-68865521D01*
X64656791Y-68872451D01*
X64653644Y-68879105D01*
X64649860Y-68885418D01*
X64645476Y-68891329D01*
X64640533Y-68896783D01*
X64635079Y-68901726D01*
X64629168Y-68906110D01*
X64622855Y-68909894D01*
X64616201Y-68913041D01*
X64609271Y-68915521D01*
X64602132Y-68917309D01*
X64594851Y-68918389D01*
X64587500Y-68918750D01*
X64437500Y-68918750D01*
X64430149Y-68918389D01*
X64422868Y-68917309D01*
X64415729Y-68915521D01*
X64408799Y-68913041D01*
X64402145Y-68909894D01*
X64395832Y-68906110D01*
X64389921Y-68901726D01*
X64384467Y-68896783D01*
X64379524Y-68891329D01*
X64375140Y-68885418D01*
X64371356Y-68879105D01*
X64368209Y-68872451D01*
X64365729Y-68865521D01*
X64363941Y-68858382D01*
X64362861Y-68851101D01*
X64362500Y-68843750D01*
X64362500Y-67443750D01*
X64362861Y-67436399D01*
X64363941Y-67429118D01*
X64365729Y-67421979D01*
X64368209Y-67415049D01*
X64371356Y-67408395D01*
X64375140Y-67402082D01*
X64379524Y-67396171D01*
X64384467Y-67390717D01*
X64389921Y-67385774D01*
X64395832Y-67381390D01*
X64402145Y-67377606D01*
X64408799Y-67374459D01*
X64415729Y-67371979D01*
X64422868Y-67370191D01*
X64430149Y-67369111D01*
X64437500Y-67368750D01*
X64587500Y-67368750D01*
X64594851Y-67369111D01*
X64594851Y-67369111D01*
G37*
D12*
X64512500Y-68143750D03*
D11*
G36*
X65094851Y-67369111D02*
G01*
X65102132Y-67370191D01*
X65109271Y-67371979D01*
X65116201Y-67374459D01*
X65122855Y-67377606D01*
X65129168Y-67381390D01*
X65135079Y-67385774D01*
X65140533Y-67390717D01*
X65145476Y-67396171D01*
X65149860Y-67402082D01*
X65153644Y-67408395D01*
X65156791Y-67415049D01*
X65159271Y-67421979D01*
X65161059Y-67429118D01*
X65162139Y-67436399D01*
X65162500Y-67443750D01*
X65162500Y-68843750D01*
X65162139Y-68851101D01*
X65161059Y-68858382D01*
X65159271Y-68865521D01*
X65156791Y-68872451D01*
X65153644Y-68879105D01*
X65149860Y-68885418D01*
X65145476Y-68891329D01*
X65140533Y-68896783D01*
X65135079Y-68901726D01*
X65129168Y-68906110D01*
X65122855Y-68909894D01*
X65116201Y-68913041D01*
X65109271Y-68915521D01*
X65102132Y-68917309D01*
X65094851Y-68918389D01*
X65087500Y-68918750D01*
X64937500Y-68918750D01*
X64930149Y-68918389D01*
X64922868Y-68917309D01*
X64915729Y-68915521D01*
X64908799Y-68913041D01*
X64902145Y-68909894D01*
X64895832Y-68906110D01*
X64889921Y-68901726D01*
X64884467Y-68896783D01*
X64879524Y-68891329D01*
X64875140Y-68885418D01*
X64871356Y-68879105D01*
X64868209Y-68872451D01*
X64865729Y-68865521D01*
X64863941Y-68858382D01*
X64862861Y-68851101D01*
X64862500Y-68843750D01*
X64862500Y-67443750D01*
X64862861Y-67436399D01*
X64863941Y-67429118D01*
X64865729Y-67421979D01*
X64868209Y-67415049D01*
X64871356Y-67408395D01*
X64875140Y-67402082D01*
X64879524Y-67396171D01*
X64884467Y-67390717D01*
X64889921Y-67385774D01*
X64895832Y-67381390D01*
X64902145Y-67377606D01*
X64908799Y-67374459D01*
X64915729Y-67371979D01*
X64922868Y-67370191D01*
X64930149Y-67369111D01*
X64937500Y-67368750D01*
X65087500Y-67368750D01*
X65094851Y-67369111D01*
X65094851Y-67369111D01*
G37*
D12*
X65012500Y-68143750D03*
D11*
G36*
X65594851Y-67369111D02*
G01*
X65602132Y-67370191D01*
X65609271Y-67371979D01*
X65616201Y-67374459D01*
X65622855Y-67377606D01*
X65629168Y-67381390D01*
X65635079Y-67385774D01*
X65640533Y-67390717D01*
X65645476Y-67396171D01*
X65649860Y-67402082D01*
X65653644Y-67408395D01*
X65656791Y-67415049D01*
X65659271Y-67421979D01*
X65661059Y-67429118D01*
X65662139Y-67436399D01*
X65662500Y-67443750D01*
X65662500Y-68843750D01*
X65662139Y-68851101D01*
X65661059Y-68858382D01*
X65659271Y-68865521D01*
X65656791Y-68872451D01*
X65653644Y-68879105D01*
X65649860Y-68885418D01*
X65645476Y-68891329D01*
X65640533Y-68896783D01*
X65635079Y-68901726D01*
X65629168Y-68906110D01*
X65622855Y-68909894D01*
X65616201Y-68913041D01*
X65609271Y-68915521D01*
X65602132Y-68917309D01*
X65594851Y-68918389D01*
X65587500Y-68918750D01*
X65437500Y-68918750D01*
X65430149Y-68918389D01*
X65422868Y-68917309D01*
X65415729Y-68915521D01*
X65408799Y-68913041D01*
X65402145Y-68909894D01*
X65395832Y-68906110D01*
X65389921Y-68901726D01*
X65384467Y-68896783D01*
X65379524Y-68891329D01*
X65375140Y-68885418D01*
X65371356Y-68879105D01*
X65368209Y-68872451D01*
X65365729Y-68865521D01*
X65363941Y-68858382D01*
X65362861Y-68851101D01*
X65362500Y-68843750D01*
X65362500Y-67443750D01*
X65362861Y-67436399D01*
X65363941Y-67429118D01*
X65365729Y-67421979D01*
X65368209Y-67415049D01*
X65371356Y-67408395D01*
X65375140Y-67402082D01*
X65379524Y-67396171D01*
X65384467Y-67390717D01*
X65389921Y-67385774D01*
X65395832Y-67381390D01*
X65402145Y-67377606D01*
X65408799Y-67374459D01*
X65415729Y-67371979D01*
X65422868Y-67370191D01*
X65430149Y-67369111D01*
X65437500Y-67368750D01*
X65587500Y-67368750D01*
X65594851Y-67369111D01*
X65594851Y-67369111D01*
G37*
D12*
X65512500Y-68143750D03*
D11*
G36*
X66094851Y-67369111D02*
G01*
X66102132Y-67370191D01*
X66109271Y-67371979D01*
X66116201Y-67374459D01*
X66122855Y-67377606D01*
X66129168Y-67381390D01*
X66135079Y-67385774D01*
X66140533Y-67390717D01*
X66145476Y-67396171D01*
X66149860Y-67402082D01*
X66153644Y-67408395D01*
X66156791Y-67415049D01*
X66159271Y-67421979D01*
X66161059Y-67429118D01*
X66162139Y-67436399D01*
X66162500Y-67443750D01*
X66162500Y-68843750D01*
X66162139Y-68851101D01*
X66161059Y-68858382D01*
X66159271Y-68865521D01*
X66156791Y-68872451D01*
X66153644Y-68879105D01*
X66149860Y-68885418D01*
X66145476Y-68891329D01*
X66140533Y-68896783D01*
X66135079Y-68901726D01*
X66129168Y-68906110D01*
X66122855Y-68909894D01*
X66116201Y-68913041D01*
X66109271Y-68915521D01*
X66102132Y-68917309D01*
X66094851Y-68918389D01*
X66087500Y-68918750D01*
X65937500Y-68918750D01*
X65930149Y-68918389D01*
X65922868Y-68917309D01*
X65915729Y-68915521D01*
X65908799Y-68913041D01*
X65902145Y-68909894D01*
X65895832Y-68906110D01*
X65889921Y-68901726D01*
X65884467Y-68896783D01*
X65879524Y-68891329D01*
X65875140Y-68885418D01*
X65871356Y-68879105D01*
X65868209Y-68872451D01*
X65865729Y-68865521D01*
X65863941Y-68858382D01*
X65862861Y-68851101D01*
X65862500Y-68843750D01*
X65862500Y-67443750D01*
X65862861Y-67436399D01*
X65863941Y-67429118D01*
X65865729Y-67421979D01*
X65868209Y-67415049D01*
X65871356Y-67408395D01*
X65875140Y-67402082D01*
X65879524Y-67396171D01*
X65884467Y-67390717D01*
X65889921Y-67385774D01*
X65895832Y-67381390D01*
X65902145Y-67377606D01*
X65908799Y-67374459D01*
X65915729Y-67371979D01*
X65922868Y-67370191D01*
X65930149Y-67369111D01*
X65937500Y-67368750D01*
X66087500Y-67368750D01*
X66094851Y-67369111D01*
X66094851Y-67369111D01*
G37*
D12*
X66012500Y-68143750D03*
D11*
G36*
X66594851Y-67369111D02*
G01*
X66602132Y-67370191D01*
X66609271Y-67371979D01*
X66616201Y-67374459D01*
X66622855Y-67377606D01*
X66629168Y-67381390D01*
X66635079Y-67385774D01*
X66640533Y-67390717D01*
X66645476Y-67396171D01*
X66649860Y-67402082D01*
X66653644Y-67408395D01*
X66656791Y-67415049D01*
X66659271Y-67421979D01*
X66661059Y-67429118D01*
X66662139Y-67436399D01*
X66662500Y-67443750D01*
X66662500Y-68843750D01*
X66662139Y-68851101D01*
X66661059Y-68858382D01*
X66659271Y-68865521D01*
X66656791Y-68872451D01*
X66653644Y-68879105D01*
X66649860Y-68885418D01*
X66645476Y-68891329D01*
X66640533Y-68896783D01*
X66635079Y-68901726D01*
X66629168Y-68906110D01*
X66622855Y-68909894D01*
X66616201Y-68913041D01*
X66609271Y-68915521D01*
X66602132Y-68917309D01*
X66594851Y-68918389D01*
X66587500Y-68918750D01*
X66437500Y-68918750D01*
X66430149Y-68918389D01*
X66422868Y-68917309D01*
X66415729Y-68915521D01*
X66408799Y-68913041D01*
X66402145Y-68909894D01*
X66395832Y-68906110D01*
X66389921Y-68901726D01*
X66384467Y-68896783D01*
X66379524Y-68891329D01*
X66375140Y-68885418D01*
X66371356Y-68879105D01*
X66368209Y-68872451D01*
X66365729Y-68865521D01*
X66363941Y-68858382D01*
X66362861Y-68851101D01*
X66362500Y-68843750D01*
X66362500Y-67443750D01*
X66362861Y-67436399D01*
X66363941Y-67429118D01*
X66365729Y-67421979D01*
X66368209Y-67415049D01*
X66371356Y-67408395D01*
X66375140Y-67402082D01*
X66379524Y-67396171D01*
X66384467Y-67390717D01*
X66389921Y-67385774D01*
X66395832Y-67381390D01*
X66402145Y-67377606D01*
X66408799Y-67374459D01*
X66415729Y-67371979D01*
X66422868Y-67370191D01*
X66430149Y-67369111D01*
X66437500Y-67368750D01*
X66587500Y-67368750D01*
X66594851Y-67369111D01*
X66594851Y-67369111D01*
G37*
D12*
X66512500Y-68143750D03*
D11*
G36*
X67094851Y-67369111D02*
G01*
X67102132Y-67370191D01*
X67109271Y-67371979D01*
X67116201Y-67374459D01*
X67122855Y-67377606D01*
X67129168Y-67381390D01*
X67135079Y-67385774D01*
X67140533Y-67390717D01*
X67145476Y-67396171D01*
X67149860Y-67402082D01*
X67153644Y-67408395D01*
X67156791Y-67415049D01*
X67159271Y-67421979D01*
X67161059Y-67429118D01*
X67162139Y-67436399D01*
X67162500Y-67443750D01*
X67162500Y-68843750D01*
X67162139Y-68851101D01*
X67161059Y-68858382D01*
X67159271Y-68865521D01*
X67156791Y-68872451D01*
X67153644Y-68879105D01*
X67149860Y-68885418D01*
X67145476Y-68891329D01*
X67140533Y-68896783D01*
X67135079Y-68901726D01*
X67129168Y-68906110D01*
X67122855Y-68909894D01*
X67116201Y-68913041D01*
X67109271Y-68915521D01*
X67102132Y-68917309D01*
X67094851Y-68918389D01*
X67087500Y-68918750D01*
X66937500Y-68918750D01*
X66930149Y-68918389D01*
X66922868Y-68917309D01*
X66915729Y-68915521D01*
X66908799Y-68913041D01*
X66902145Y-68909894D01*
X66895832Y-68906110D01*
X66889921Y-68901726D01*
X66884467Y-68896783D01*
X66879524Y-68891329D01*
X66875140Y-68885418D01*
X66871356Y-68879105D01*
X66868209Y-68872451D01*
X66865729Y-68865521D01*
X66863941Y-68858382D01*
X66862861Y-68851101D01*
X66862500Y-68843750D01*
X66862500Y-67443750D01*
X66862861Y-67436399D01*
X66863941Y-67429118D01*
X66865729Y-67421979D01*
X66868209Y-67415049D01*
X66871356Y-67408395D01*
X66875140Y-67402082D01*
X66879524Y-67396171D01*
X66884467Y-67390717D01*
X66889921Y-67385774D01*
X66895832Y-67381390D01*
X66902145Y-67377606D01*
X66908799Y-67374459D01*
X66915729Y-67371979D01*
X66922868Y-67370191D01*
X66930149Y-67369111D01*
X66937500Y-67368750D01*
X67087500Y-67368750D01*
X67094851Y-67369111D01*
X67094851Y-67369111D01*
G37*
D12*
X67012500Y-68143750D03*
D11*
G36*
X67594851Y-67369111D02*
G01*
X67602132Y-67370191D01*
X67609271Y-67371979D01*
X67616201Y-67374459D01*
X67622855Y-67377606D01*
X67629168Y-67381390D01*
X67635079Y-67385774D01*
X67640533Y-67390717D01*
X67645476Y-67396171D01*
X67649860Y-67402082D01*
X67653644Y-67408395D01*
X67656791Y-67415049D01*
X67659271Y-67421979D01*
X67661059Y-67429118D01*
X67662139Y-67436399D01*
X67662500Y-67443750D01*
X67662500Y-68843750D01*
X67662139Y-68851101D01*
X67661059Y-68858382D01*
X67659271Y-68865521D01*
X67656791Y-68872451D01*
X67653644Y-68879105D01*
X67649860Y-68885418D01*
X67645476Y-68891329D01*
X67640533Y-68896783D01*
X67635079Y-68901726D01*
X67629168Y-68906110D01*
X67622855Y-68909894D01*
X67616201Y-68913041D01*
X67609271Y-68915521D01*
X67602132Y-68917309D01*
X67594851Y-68918389D01*
X67587500Y-68918750D01*
X67437500Y-68918750D01*
X67430149Y-68918389D01*
X67422868Y-68917309D01*
X67415729Y-68915521D01*
X67408799Y-68913041D01*
X67402145Y-68909894D01*
X67395832Y-68906110D01*
X67389921Y-68901726D01*
X67384467Y-68896783D01*
X67379524Y-68891329D01*
X67375140Y-68885418D01*
X67371356Y-68879105D01*
X67368209Y-68872451D01*
X67365729Y-68865521D01*
X67363941Y-68858382D01*
X67362861Y-68851101D01*
X67362500Y-68843750D01*
X67362500Y-67443750D01*
X67362861Y-67436399D01*
X67363941Y-67429118D01*
X67365729Y-67421979D01*
X67368209Y-67415049D01*
X67371356Y-67408395D01*
X67375140Y-67402082D01*
X67379524Y-67396171D01*
X67384467Y-67390717D01*
X67389921Y-67385774D01*
X67395832Y-67381390D01*
X67402145Y-67377606D01*
X67408799Y-67374459D01*
X67415729Y-67371979D01*
X67422868Y-67370191D01*
X67430149Y-67369111D01*
X67437500Y-67368750D01*
X67587500Y-67368750D01*
X67594851Y-67369111D01*
X67594851Y-67369111D01*
G37*
D12*
X67512500Y-68143750D03*
D11*
G36*
X68094851Y-67369111D02*
G01*
X68102132Y-67370191D01*
X68109271Y-67371979D01*
X68116201Y-67374459D01*
X68122855Y-67377606D01*
X68129168Y-67381390D01*
X68135079Y-67385774D01*
X68140533Y-67390717D01*
X68145476Y-67396171D01*
X68149860Y-67402082D01*
X68153644Y-67408395D01*
X68156791Y-67415049D01*
X68159271Y-67421979D01*
X68161059Y-67429118D01*
X68162139Y-67436399D01*
X68162500Y-67443750D01*
X68162500Y-68843750D01*
X68162139Y-68851101D01*
X68161059Y-68858382D01*
X68159271Y-68865521D01*
X68156791Y-68872451D01*
X68153644Y-68879105D01*
X68149860Y-68885418D01*
X68145476Y-68891329D01*
X68140533Y-68896783D01*
X68135079Y-68901726D01*
X68129168Y-68906110D01*
X68122855Y-68909894D01*
X68116201Y-68913041D01*
X68109271Y-68915521D01*
X68102132Y-68917309D01*
X68094851Y-68918389D01*
X68087500Y-68918750D01*
X67937500Y-68918750D01*
X67930149Y-68918389D01*
X67922868Y-68917309D01*
X67915729Y-68915521D01*
X67908799Y-68913041D01*
X67902145Y-68909894D01*
X67895832Y-68906110D01*
X67889921Y-68901726D01*
X67884467Y-68896783D01*
X67879524Y-68891329D01*
X67875140Y-68885418D01*
X67871356Y-68879105D01*
X67868209Y-68872451D01*
X67865729Y-68865521D01*
X67863941Y-68858382D01*
X67862861Y-68851101D01*
X67862500Y-68843750D01*
X67862500Y-67443750D01*
X67862861Y-67436399D01*
X67863941Y-67429118D01*
X67865729Y-67421979D01*
X67868209Y-67415049D01*
X67871356Y-67408395D01*
X67875140Y-67402082D01*
X67879524Y-67396171D01*
X67884467Y-67390717D01*
X67889921Y-67385774D01*
X67895832Y-67381390D01*
X67902145Y-67377606D01*
X67908799Y-67374459D01*
X67915729Y-67371979D01*
X67922868Y-67370191D01*
X67930149Y-67369111D01*
X67937500Y-67368750D01*
X68087500Y-67368750D01*
X68094851Y-67369111D01*
X68094851Y-67369111D01*
G37*
D12*
X68012500Y-68143750D03*
D11*
G36*
X68594851Y-67369111D02*
G01*
X68602132Y-67370191D01*
X68609271Y-67371979D01*
X68616201Y-67374459D01*
X68622855Y-67377606D01*
X68629168Y-67381390D01*
X68635079Y-67385774D01*
X68640533Y-67390717D01*
X68645476Y-67396171D01*
X68649860Y-67402082D01*
X68653644Y-67408395D01*
X68656791Y-67415049D01*
X68659271Y-67421979D01*
X68661059Y-67429118D01*
X68662139Y-67436399D01*
X68662500Y-67443750D01*
X68662500Y-68843750D01*
X68662139Y-68851101D01*
X68661059Y-68858382D01*
X68659271Y-68865521D01*
X68656791Y-68872451D01*
X68653644Y-68879105D01*
X68649860Y-68885418D01*
X68645476Y-68891329D01*
X68640533Y-68896783D01*
X68635079Y-68901726D01*
X68629168Y-68906110D01*
X68622855Y-68909894D01*
X68616201Y-68913041D01*
X68609271Y-68915521D01*
X68602132Y-68917309D01*
X68594851Y-68918389D01*
X68587500Y-68918750D01*
X68437500Y-68918750D01*
X68430149Y-68918389D01*
X68422868Y-68917309D01*
X68415729Y-68915521D01*
X68408799Y-68913041D01*
X68402145Y-68909894D01*
X68395832Y-68906110D01*
X68389921Y-68901726D01*
X68384467Y-68896783D01*
X68379524Y-68891329D01*
X68375140Y-68885418D01*
X68371356Y-68879105D01*
X68368209Y-68872451D01*
X68365729Y-68865521D01*
X68363941Y-68858382D01*
X68362861Y-68851101D01*
X68362500Y-68843750D01*
X68362500Y-67443750D01*
X68362861Y-67436399D01*
X68363941Y-67429118D01*
X68365729Y-67421979D01*
X68368209Y-67415049D01*
X68371356Y-67408395D01*
X68375140Y-67402082D01*
X68379524Y-67396171D01*
X68384467Y-67390717D01*
X68389921Y-67385774D01*
X68395832Y-67381390D01*
X68402145Y-67377606D01*
X68408799Y-67374459D01*
X68415729Y-67371979D01*
X68422868Y-67370191D01*
X68430149Y-67369111D01*
X68437500Y-67368750D01*
X68587500Y-67368750D01*
X68594851Y-67369111D01*
X68594851Y-67369111D01*
G37*
D12*
X68512500Y-68143750D03*
D11*
G36*
X69094851Y-67369111D02*
G01*
X69102132Y-67370191D01*
X69109271Y-67371979D01*
X69116201Y-67374459D01*
X69122855Y-67377606D01*
X69129168Y-67381390D01*
X69135079Y-67385774D01*
X69140533Y-67390717D01*
X69145476Y-67396171D01*
X69149860Y-67402082D01*
X69153644Y-67408395D01*
X69156791Y-67415049D01*
X69159271Y-67421979D01*
X69161059Y-67429118D01*
X69162139Y-67436399D01*
X69162500Y-67443750D01*
X69162500Y-68843750D01*
X69162139Y-68851101D01*
X69161059Y-68858382D01*
X69159271Y-68865521D01*
X69156791Y-68872451D01*
X69153644Y-68879105D01*
X69149860Y-68885418D01*
X69145476Y-68891329D01*
X69140533Y-68896783D01*
X69135079Y-68901726D01*
X69129168Y-68906110D01*
X69122855Y-68909894D01*
X69116201Y-68913041D01*
X69109271Y-68915521D01*
X69102132Y-68917309D01*
X69094851Y-68918389D01*
X69087500Y-68918750D01*
X68937500Y-68918750D01*
X68930149Y-68918389D01*
X68922868Y-68917309D01*
X68915729Y-68915521D01*
X68908799Y-68913041D01*
X68902145Y-68909894D01*
X68895832Y-68906110D01*
X68889921Y-68901726D01*
X68884467Y-68896783D01*
X68879524Y-68891329D01*
X68875140Y-68885418D01*
X68871356Y-68879105D01*
X68868209Y-68872451D01*
X68865729Y-68865521D01*
X68863941Y-68858382D01*
X68862861Y-68851101D01*
X68862500Y-68843750D01*
X68862500Y-67443750D01*
X68862861Y-67436399D01*
X68863941Y-67429118D01*
X68865729Y-67421979D01*
X68868209Y-67415049D01*
X68871356Y-67408395D01*
X68875140Y-67402082D01*
X68879524Y-67396171D01*
X68884467Y-67390717D01*
X68889921Y-67385774D01*
X68895832Y-67381390D01*
X68902145Y-67377606D01*
X68908799Y-67374459D01*
X68915729Y-67371979D01*
X68922868Y-67370191D01*
X68930149Y-67369111D01*
X68937500Y-67368750D01*
X69087500Y-67368750D01*
X69094851Y-67369111D01*
X69094851Y-67369111D01*
G37*
D12*
X69012500Y-68143750D03*
D11*
G36*
X69594851Y-67369111D02*
G01*
X69602132Y-67370191D01*
X69609271Y-67371979D01*
X69616201Y-67374459D01*
X69622855Y-67377606D01*
X69629168Y-67381390D01*
X69635079Y-67385774D01*
X69640533Y-67390717D01*
X69645476Y-67396171D01*
X69649860Y-67402082D01*
X69653644Y-67408395D01*
X69656791Y-67415049D01*
X69659271Y-67421979D01*
X69661059Y-67429118D01*
X69662139Y-67436399D01*
X69662500Y-67443750D01*
X69662500Y-68843750D01*
X69662139Y-68851101D01*
X69661059Y-68858382D01*
X69659271Y-68865521D01*
X69656791Y-68872451D01*
X69653644Y-68879105D01*
X69649860Y-68885418D01*
X69645476Y-68891329D01*
X69640533Y-68896783D01*
X69635079Y-68901726D01*
X69629168Y-68906110D01*
X69622855Y-68909894D01*
X69616201Y-68913041D01*
X69609271Y-68915521D01*
X69602132Y-68917309D01*
X69594851Y-68918389D01*
X69587500Y-68918750D01*
X69437500Y-68918750D01*
X69430149Y-68918389D01*
X69422868Y-68917309D01*
X69415729Y-68915521D01*
X69408799Y-68913041D01*
X69402145Y-68909894D01*
X69395832Y-68906110D01*
X69389921Y-68901726D01*
X69384467Y-68896783D01*
X69379524Y-68891329D01*
X69375140Y-68885418D01*
X69371356Y-68879105D01*
X69368209Y-68872451D01*
X69365729Y-68865521D01*
X69363941Y-68858382D01*
X69362861Y-68851101D01*
X69362500Y-68843750D01*
X69362500Y-67443750D01*
X69362861Y-67436399D01*
X69363941Y-67429118D01*
X69365729Y-67421979D01*
X69368209Y-67415049D01*
X69371356Y-67408395D01*
X69375140Y-67402082D01*
X69379524Y-67396171D01*
X69384467Y-67390717D01*
X69389921Y-67385774D01*
X69395832Y-67381390D01*
X69402145Y-67377606D01*
X69408799Y-67374459D01*
X69415729Y-67371979D01*
X69422868Y-67370191D01*
X69430149Y-67369111D01*
X69437500Y-67368750D01*
X69587500Y-67368750D01*
X69594851Y-67369111D01*
X69594851Y-67369111D01*
G37*
D12*
X69512500Y-68143750D03*
D11*
G36*
X70094851Y-67369111D02*
G01*
X70102132Y-67370191D01*
X70109271Y-67371979D01*
X70116201Y-67374459D01*
X70122855Y-67377606D01*
X70129168Y-67381390D01*
X70135079Y-67385774D01*
X70140533Y-67390717D01*
X70145476Y-67396171D01*
X70149860Y-67402082D01*
X70153644Y-67408395D01*
X70156791Y-67415049D01*
X70159271Y-67421979D01*
X70161059Y-67429118D01*
X70162139Y-67436399D01*
X70162500Y-67443750D01*
X70162500Y-68843750D01*
X70162139Y-68851101D01*
X70161059Y-68858382D01*
X70159271Y-68865521D01*
X70156791Y-68872451D01*
X70153644Y-68879105D01*
X70149860Y-68885418D01*
X70145476Y-68891329D01*
X70140533Y-68896783D01*
X70135079Y-68901726D01*
X70129168Y-68906110D01*
X70122855Y-68909894D01*
X70116201Y-68913041D01*
X70109271Y-68915521D01*
X70102132Y-68917309D01*
X70094851Y-68918389D01*
X70087500Y-68918750D01*
X69937500Y-68918750D01*
X69930149Y-68918389D01*
X69922868Y-68917309D01*
X69915729Y-68915521D01*
X69908799Y-68913041D01*
X69902145Y-68909894D01*
X69895832Y-68906110D01*
X69889921Y-68901726D01*
X69884467Y-68896783D01*
X69879524Y-68891329D01*
X69875140Y-68885418D01*
X69871356Y-68879105D01*
X69868209Y-68872451D01*
X69865729Y-68865521D01*
X69863941Y-68858382D01*
X69862861Y-68851101D01*
X69862500Y-68843750D01*
X69862500Y-67443750D01*
X69862861Y-67436399D01*
X69863941Y-67429118D01*
X69865729Y-67421979D01*
X69868209Y-67415049D01*
X69871356Y-67408395D01*
X69875140Y-67402082D01*
X69879524Y-67396171D01*
X69884467Y-67390717D01*
X69889921Y-67385774D01*
X69895832Y-67381390D01*
X69902145Y-67377606D01*
X69908799Y-67374459D01*
X69915729Y-67371979D01*
X69922868Y-67370191D01*
X69930149Y-67369111D01*
X69937500Y-67368750D01*
X70087500Y-67368750D01*
X70094851Y-67369111D01*
X70094851Y-67369111D01*
G37*
D12*
X70012500Y-68143750D03*
D11*
G36*
X70594851Y-67369111D02*
G01*
X70602132Y-67370191D01*
X70609271Y-67371979D01*
X70616201Y-67374459D01*
X70622855Y-67377606D01*
X70629168Y-67381390D01*
X70635079Y-67385774D01*
X70640533Y-67390717D01*
X70645476Y-67396171D01*
X70649860Y-67402082D01*
X70653644Y-67408395D01*
X70656791Y-67415049D01*
X70659271Y-67421979D01*
X70661059Y-67429118D01*
X70662139Y-67436399D01*
X70662500Y-67443750D01*
X70662500Y-68843750D01*
X70662139Y-68851101D01*
X70661059Y-68858382D01*
X70659271Y-68865521D01*
X70656791Y-68872451D01*
X70653644Y-68879105D01*
X70649860Y-68885418D01*
X70645476Y-68891329D01*
X70640533Y-68896783D01*
X70635079Y-68901726D01*
X70629168Y-68906110D01*
X70622855Y-68909894D01*
X70616201Y-68913041D01*
X70609271Y-68915521D01*
X70602132Y-68917309D01*
X70594851Y-68918389D01*
X70587500Y-68918750D01*
X70437500Y-68918750D01*
X70430149Y-68918389D01*
X70422868Y-68917309D01*
X70415729Y-68915521D01*
X70408799Y-68913041D01*
X70402145Y-68909894D01*
X70395832Y-68906110D01*
X70389921Y-68901726D01*
X70384467Y-68896783D01*
X70379524Y-68891329D01*
X70375140Y-68885418D01*
X70371356Y-68879105D01*
X70368209Y-68872451D01*
X70365729Y-68865521D01*
X70363941Y-68858382D01*
X70362861Y-68851101D01*
X70362500Y-68843750D01*
X70362500Y-67443750D01*
X70362861Y-67436399D01*
X70363941Y-67429118D01*
X70365729Y-67421979D01*
X70368209Y-67415049D01*
X70371356Y-67408395D01*
X70375140Y-67402082D01*
X70379524Y-67396171D01*
X70384467Y-67390717D01*
X70389921Y-67385774D01*
X70395832Y-67381390D01*
X70402145Y-67377606D01*
X70408799Y-67374459D01*
X70415729Y-67371979D01*
X70422868Y-67370191D01*
X70430149Y-67369111D01*
X70437500Y-67368750D01*
X70587500Y-67368750D01*
X70594851Y-67369111D01*
X70594851Y-67369111D01*
G37*
D12*
X70512500Y-68143750D03*
D11*
G36*
X71094851Y-67369111D02*
G01*
X71102132Y-67370191D01*
X71109271Y-67371979D01*
X71116201Y-67374459D01*
X71122855Y-67377606D01*
X71129168Y-67381390D01*
X71135079Y-67385774D01*
X71140533Y-67390717D01*
X71145476Y-67396171D01*
X71149860Y-67402082D01*
X71153644Y-67408395D01*
X71156791Y-67415049D01*
X71159271Y-67421979D01*
X71161059Y-67429118D01*
X71162139Y-67436399D01*
X71162500Y-67443750D01*
X71162500Y-68843750D01*
X71162139Y-68851101D01*
X71161059Y-68858382D01*
X71159271Y-68865521D01*
X71156791Y-68872451D01*
X71153644Y-68879105D01*
X71149860Y-68885418D01*
X71145476Y-68891329D01*
X71140533Y-68896783D01*
X71135079Y-68901726D01*
X71129168Y-68906110D01*
X71122855Y-68909894D01*
X71116201Y-68913041D01*
X71109271Y-68915521D01*
X71102132Y-68917309D01*
X71094851Y-68918389D01*
X71087500Y-68918750D01*
X70937500Y-68918750D01*
X70930149Y-68918389D01*
X70922868Y-68917309D01*
X70915729Y-68915521D01*
X70908799Y-68913041D01*
X70902145Y-68909894D01*
X70895832Y-68906110D01*
X70889921Y-68901726D01*
X70884467Y-68896783D01*
X70879524Y-68891329D01*
X70875140Y-68885418D01*
X70871356Y-68879105D01*
X70868209Y-68872451D01*
X70865729Y-68865521D01*
X70863941Y-68858382D01*
X70862861Y-68851101D01*
X70862500Y-68843750D01*
X70862500Y-67443750D01*
X70862861Y-67436399D01*
X70863941Y-67429118D01*
X70865729Y-67421979D01*
X70868209Y-67415049D01*
X70871356Y-67408395D01*
X70875140Y-67402082D01*
X70879524Y-67396171D01*
X70884467Y-67390717D01*
X70889921Y-67385774D01*
X70895832Y-67381390D01*
X70902145Y-67377606D01*
X70908799Y-67374459D01*
X70915729Y-67371979D01*
X70922868Y-67370191D01*
X70930149Y-67369111D01*
X70937500Y-67368750D01*
X71087500Y-67368750D01*
X71094851Y-67369111D01*
X71094851Y-67369111D01*
G37*
D12*
X71012500Y-68143750D03*
D11*
G36*
X71594851Y-67369111D02*
G01*
X71602132Y-67370191D01*
X71609271Y-67371979D01*
X71616201Y-67374459D01*
X71622855Y-67377606D01*
X71629168Y-67381390D01*
X71635079Y-67385774D01*
X71640533Y-67390717D01*
X71645476Y-67396171D01*
X71649860Y-67402082D01*
X71653644Y-67408395D01*
X71656791Y-67415049D01*
X71659271Y-67421979D01*
X71661059Y-67429118D01*
X71662139Y-67436399D01*
X71662500Y-67443750D01*
X71662500Y-68843750D01*
X71662139Y-68851101D01*
X71661059Y-68858382D01*
X71659271Y-68865521D01*
X71656791Y-68872451D01*
X71653644Y-68879105D01*
X71649860Y-68885418D01*
X71645476Y-68891329D01*
X71640533Y-68896783D01*
X71635079Y-68901726D01*
X71629168Y-68906110D01*
X71622855Y-68909894D01*
X71616201Y-68913041D01*
X71609271Y-68915521D01*
X71602132Y-68917309D01*
X71594851Y-68918389D01*
X71587500Y-68918750D01*
X71437500Y-68918750D01*
X71430149Y-68918389D01*
X71422868Y-68917309D01*
X71415729Y-68915521D01*
X71408799Y-68913041D01*
X71402145Y-68909894D01*
X71395832Y-68906110D01*
X71389921Y-68901726D01*
X71384467Y-68896783D01*
X71379524Y-68891329D01*
X71375140Y-68885418D01*
X71371356Y-68879105D01*
X71368209Y-68872451D01*
X71365729Y-68865521D01*
X71363941Y-68858382D01*
X71362861Y-68851101D01*
X71362500Y-68843750D01*
X71362500Y-67443750D01*
X71362861Y-67436399D01*
X71363941Y-67429118D01*
X71365729Y-67421979D01*
X71368209Y-67415049D01*
X71371356Y-67408395D01*
X71375140Y-67402082D01*
X71379524Y-67396171D01*
X71384467Y-67390717D01*
X71389921Y-67385774D01*
X71395832Y-67381390D01*
X71402145Y-67377606D01*
X71408799Y-67374459D01*
X71415729Y-67371979D01*
X71422868Y-67370191D01*
X71430149Y-67369111D01*
X71437500Y-67368750D01*
X71587500Y-67368750D01*
X71594851Y-67369111D01*
X71594851Y-67369111D01*
G37*
D12*
X71512500Y-68143750D03*
D11*
G36*
X72094851Y-67369111D02*
G01*
X72102132Y-67370191D01*
X72109271Y-67371979D01*
X72116201Y-67374459D01*
X72122855Y-67377606D01*
X72129168Y-67381390D01*
X72135079Y-67385774D01*
X72140533Y-67390717D01*
X72145476Y-67396171D01*
X72149860Y-67402082D01*
X72153644Y-67408395D01*
X72156791Y-67415049D01*
X72159271Y-67421979D01*
X72161059Y-67429118D01*
X72162139Y-67436399D01*
X72162500Y-67443750D01*
X72162500Y-68843750D01*
X72162139Y-68851101D01*
X72161059Y-68858382D01*
X72159271Y-68865521D01*
X72156791Y-68872451D01*
X72153644Y-68879105D01*
X72149860Y-68885418D01*
X72145476Y-68891329D01*
X72140533Y-68896783D01*
X72135079Y-68901726D01*
X72129168Y-68906110D01*
X72122855Y-68909894D01*
X72116201Y-68913041D01*
X72109271Y-68915521D01*
X72102132Y-68917309D01*
X72094851Y-68918389D01*
X72087500Y-68918750D01*
X71937500Y-68918750D01*
X71930149Y-68918389D01*
X71922868Y-68917309D01*
X71915729Y-68915521D01*
X71908799Y-68913041D01*
X71902145Y-68909894D01*
X71895832Y-68906110D01*
X71889921Y-68901726D01*
X71884467Y-68896783D01*
X71879524Y-68891329D01*
X71875140Y-68885418D01*
X71871356Y-68879105D01*
X71868209Y-68872451D01*
X71865729Y-68865521D01*
X71863941Y-68858382D01*
X71862861Y-68851101D01*
X71862500Y-68843750D01*
X71862500Y-67443750D01*
X71862861Y-67436399D01*
X71863941Y-67429118D01*
X71865729Y-67421979D01*
X71868209Y-67415049D01*
X71871356Y-67408395D01*
X71875140Y-67402082D01*
X71879524Y-67396171D01*
X71884467Y-67390717D01*
X71889921Y-67385774D01*
X71895832Y-67381390D01*
X71902145Y-67377606D01*
X71908799Y-67374459D01*
X71915729Y-67371979D01*
X71922868Y-67370191D01*
X71930149Y-67369111D01*
X71937500Y-67368750D01*
X72087500Y-67368750D01*
X72094851Y-67369111D01*
X72094851Y-67369111D01*
G37*
D12*
X72012500Y-68143750D03*
D11*
G36*
X74644851Y-69919111D02*
G01*
X74652132Y-69920191D01*
X74659271Y-69921979D01*
X74666201Y-69924459D01*
X74672855Y-69927606D01*
X74679168Y-69931390D01*
X74685079Y-69935774D01*
X74690533Y-69940717D01*
X74695476Y-69946171D01*
X74699860Y-69952082D01*
X74703644Y-69958395D01*
X74706791Y-69965049D01*
X74709271Y-69971979D01*
X74711059Y-69979118D01*
X74712139Y-69986399D01*
X74712500Y-69993750D01*
X74712500Y-70143750D01*
X74712139Y-70151101D01*
X74711059Y-70158382D01*
X74709271Y-70165521D01*
X74706791Y-70172451D01*
X74703644Y-70179105D01*
X74699860Y-70185418D01*
X74695476Y-70191329D01*
X74690533Y-70196783D01*
X74685079Y-70201726D01*
X74679168Y-70206110D01*
X74672855Y-70209894D01*
X74666201Y-70213041D01*
X74659271Y-70215521D01*
X74652132Y-70217309D01*
X74644851Y-70218389D01*
X74637500Y-70218750D01*
X73237500Y-70218750D01*
X73230149Y-70218389D01*
X73222868Y-70217309D01*
X73215729Y-70215521D01*
X73208799Y-70213041D01*
X73202145Y-70209894D01*
X73195832Y-70206110D01*
X73189921Y-70201726D01*
X73184467Y-70196783D01*
X73179524Y-70191329D01*
X73175140Y-70185418D01*
X73171356Y-70179105D01*
X73168209Y-70172451D01*
X73165729Y-70165521D01*
X73163941Y-70158382D01*
X73162861Y-70151101D01*
X73162500Y-70143750D01*
X73162500Y-69993750D01*
X73162861Y-69986399D01*
X73163941Y-69979118D01*
X73165729Y-69971979D01*
X73168209Y-69965049D01*
X73171356Y-69958395D01*
X73175140Y-69952082D01*
X73179524Y-69946171D01*
X73184467Y-69940717D01*
X73189921Y-69935774D01*
X73195832Y-69931390D01*
X73202145Y-69927606D01*
X73208799Y-69924459D01*
X73215729Y-69921979D01*
X73222868Y-69920191D01*
X73230149Y-69919111D01*
X73237500Y-69918750D01*
X74637500Y-69918750D01*
X74644851Y-69919111D01*
X74644851Y-69919111D01*
G37*
D12*
X73937500Y-70068750D03*
D11*
G36*
X74644851Y-70419111D02*
G01*
X74652132Y-70420191D01*
X74659271Y-70421979D01*
X74666201Y-70424459D01*
X74672855Y-70427606D01*
X74679168Y-70431390D01*
X74685079Y-70435774D01*
X74690533Y-70440717D01*
X74695476Y-70446171D01*
X74699860Y-70452082D01*
X74703644Y-70458395D01*
X74706791Y-70465049D01*
X74709271Y-70471979D01*
X74711059Y-70479118D01*
X74712139Y-70486399D01*
X74712500Y-70493750D01*
X74712500Y-70643750D01*
X74712139Y-70651101D01*
X74711059Y-70658382D01*
X74709271Y-70665521D01*
X74706791Y-70672451D01*
X74703644Y-70679105D01*
X74699860Y-70685418D01*
X74695476Y-70691329D01*
X74690533Y-70696783D01*
X74685079Y-70701726D01*
X74679168Y-70706110D01*
X74672855Y-70709894D01*
X74666201Y-70713041D01*
X74659271Y-70715521D01*
X74652132Y-70717309D01*
X74644851Y-70718389D01*
X74637500Y-70718750D01*
X73237500Y-70718750D01*
X73230149Y-70718389D01*
X73222868Y-70717309D01*
X73215729Y-70715521D01*
X73208799Y-70713041D01*
X73202145Y-70709894D01*
X73195832Y-70706110D01*
X73189921Y-70701726D01*
X73184467Y-70696783D01*
X73179524Y-70691329D01*
X73175140Y-70685418D01*
X73171356Y-70679105D01*
X73168209Y-70672451D01*
X73165729Y-70665521D01*
X73163941Y-70658382D01*
X73162861Y-70651101D01*
X73162500Y-70643750D01*
X73162500Y-70493750D01*
X73162861Y-70486399D01*
X73163941Y-70479118D01*
X73165729Y-70471979D01*
X73168209Y-70465049D01*
X73171356Y-70458395D01*
X73175140Y-70452082D01*
X73179524Y-70446171D01*
X73184467Y-70440717D01*
X73189921Y-70435774D01*
X73195832Y-70431390D01*
X73202145Y-70427606D01*
X73208799Y-70424459D01*
X73215729Y-70421979D01*
X73222868Y-70420191D01*
X73230149Y-70419111D01*
X73237500Y-70418750D01*
X74637500Y-70418750D01*
X74644851Y-70419111D01*
X74644851Y-70419111D01*
G37*
D12*
X73937500Y-70568750D03*
D11*
G36*
X74644851Y-70919111D02*
G01*
X74652132Y-70920191D01*
X74659271Y-70921979D01*
X74666201Y-70924459D01*
X74672855Y-70927606D01*
X74679168Y-70931390D01*
X74685079Y-70935774D01*
X74690533Y-70940717D01*
X74695476Y-70946171D01*
X74699860Y-70952082D01*
X74703644Y-70958395D01*
X74706791Y-70965049D01*
X74709271Y-70971979D01*
X74711059Y-70979118D01*
X74712139Y-70986399D01*
X74712500Y-70993750D01*
X74712500Y-71143750D01*
X74712139Y-71151101D01*
X74711059Y-71158382D01*
X74709271Y-71165521D01*
X74706791Y-71172451D01*
X74703644Y-71179105D01*
X74699860Y-71185418D01*
X74695476Y-71191329D01*
X74690533Y-71196783D01*
X74685079Y-71201726D01*
X74679168Y-71206110D01*
X74672855Y-71209894D01*
X74666201Y-71213041D01*
X74659271Y-71215521D01*
X74652132Y-71217309D01*
X74644851Y-71218389D01*
X74637500Y-71218750D01*
X73237500Y-71218750D01*
X73230149Y-71218389D01*
X73222868Y-71217309D01*
X73215729Y-71215521D01*
X73208799Y-71213041D01*
X73202145Y-71209894D01*
X73195832Y-71206110D01*
X73189921Y-71201726D01*
X73184467Y-71196783D01*
X73179524Y-71191329D01*
X73175140Y-71185418D01*
X73171356Y-71179105D01*
X73168209Y-71172451D01*
X73165729Y-71165521D01*
X73163941Y-71158382D01*
X73162861Y-71151101D01*
X73162500Y-71143750D01*
X73162500Y-70993750D01*
X73162861Y-70986399D01*
X73163941Y-70979118D01*
X73165729Y-70971979D01*
X73168209Y-70965049D01*
X73171356Y-70958395D01*
X73175140Y-70952082D01*
X73179524Y-70946171D01*
X73184467Y-70940717D01*
X73189921Y-70935774D01*
X73195832Y-70931390D01*
X73202145Y-70927606D01*
X73208799Y-70924459D01*
X73215729Y-70921979D01*
X73222868Y-70920191D01*
X73230149Y-70919111D01*
X73237500Y-70918750D01*
X74637500Y-70918750D01*
X74644851Y-70919111D01*
X74644851Y-70919111D01*
G37*
D12*
X73937500Y-71068750D03*
D11*
G36*
X74644851Y-71419111D02*
G01*
X74652132Y-71420191D01*
X74659271Y-71421979D01*
X74666201Y-71424459D01*
X74672855Y-71427606D01*
X74679168Y-71431390D01*
X74685079Y-71435774D01*
X74690533Y-71440717D01*
X74695476Y-71446171D01*
X74699860Y-71452082D01*
X74703644Y-71458395D01*
X74706791Y-71465049D01*
X74709271Y-71471979D01*
X74711059Y-71479118D01*
X74712139Y-71486399D01*
X74712500Y-71493750D01*
X74712500Y-71643750D01*
X74712139Y-71651101D01*
X74711059Y-71658382D01*
X74709271Y-71665521D01*
X74706791Y-71672451D01*
X74703644Y-71679105D01*
X74699860Y-71685418D01*
X74695476Y-71691329D01*
X74690533Y-71696783D01*
X74685079Y-71701726D01*
X74679168Y-71706110D01*
X74672855Y-71709894D01*
X74666201Y-71713041D01*
X74659271Y-71715521D01*
X74652132Y-71717309D01*
X74644851Y-71718389D01*
X74637500Y-71718750D01*
X73237500Y-71718750D01*
X73230149Y-71718389D01*
X73222868Y-71717309D01*
X73215729Y-71715521D01*
X73208799Y-71713041D01*
X73202145Y-71709894D01*
X73195832Y-71706110D01*
X73189921Y-71701726D01*
X73184467Y-71696783D01*
X73179524Y-71691329D01*
X73175140Y-71685418D01*
X73171356Y-71679105D01*
X73168209Y-71672451D01*
X73165729Y-71665521D01*
X73163941Y-71658382D01*
X73162861Y-71651101D01*
X73162500Y-71643750D01*
X73162500Y-71493750D01*
X73162861Y-71486399D01*
X73163941Y-71479118D01*
X73165729Y-71471979D01*
X73168209Y-71465049D01*
X73171356Y-71458395D01*
X73175140Y-71452082D01*
X73179524Y-71446171D01*
X73184467Y-71440717D01*
X73189921Y-71435774D01*
X73195832Y-71431390D01*
X73202145Y-71427606D01*
X73208799Y-71424459D01*
X73215729Y-71421979D01*
X73222868Y-71420191D01*
X73230149Y-71419111D01*
X73237500Y-71418750D01*
X74637500Y-71418750D01*
X74644851Y-71419111D01*
X74644851Y-71419111D01*
G37*
D12*
X73937500Y-71568750D03*
D11*
G36*
X74644851Y-71919111D02*
G01*
X74652132Y-71920191D01*
X74659271Y-71921979D01*
X74666201Y-71924459D01*
X74672855Y-71927606D01*
X74679168Y-71931390D01*
X74685079Y-71935774D01*
X74690533Y-71940717D01*
X74695476Y-71946171D01*
X74699860Y-71952082D01*
X74703644Y-71958395D01*
X74706791Y-71965049D01*
X74709271Y-71971979D01*
X74711059Y-71979118D01*
X74712139Y-71986399D01*
X74712500Y-71993750D01*
X74712500Y-72143750D01*
X74712139Y-72151101D01*
X74711059Y-72158382D01*
X74709271Y-72165521D01*
X74706791Y-72172451D01*
X74703644Y-72179105D01*
X74699860Y-72185418D01*
X74695476Y-72191329D01*
X74690533Y-72196783D01*
X74685079Y-72201726D01*
X74679168Y-72206110D01*
X74672855Y-72209894D01*
X74666201Y-72213041D01*
X74659271Y-72215521D01*
X74652132Y-72217309D01*
X74644851Y-72218389D01*
X74637500Y-72218750D01*
X73237500Y-72218750D01*
X73230149Y-72218389D01*
X73222868Y-72217309D01*
X73215729Y-72215521D01*
X73208799Y-72213041D01*
X73202145Y-72209894D01*
X73195832Y-72206110D01*
X73189921Y-72201726D01*
X73184467Y-72196783D01*
X73179524Y-72191329D01*
X73175140Y-72185418D01*
X73171356Y-72179105D01*
X73168209Y-72172451D01*
X73165729Y-72165521D01*
X73163941Y-72158382D01*
X73162861Y-72151101D01*
X73162500Y-72143750D01*
X73162500Y-71993750D01*
X73162861Y-71986399D01*
X73163941Y-71979118D01*
X73165729Y-71971979D01*
X73168209Y-71965049D01*
X73171356Y-71958395D01*
X73175140Y-71952082D01*
X73179524Y-71946171D01*
X73184467Y-71940717D01*
X73189921Y-71935774D01*
X73195832Y-71931390D01*
X73202145Y-71927606D01*
X73208799Y-71924459D01*
X73215729Y-71921979D01*
X73222868Y-71920191D01*
X73230149Y-71919111D01*
X73237500Y-71918750D01*
X74637500Y-71918750D01*
X74644851Y-71919111D01*
X74644851Y-71919111D01*
G37*
D12*
X73937500Y-72068750D03*
D11*
G36*
X74644851Y-72419111D02*
G01*
X74652132Y-72420191D01*
X74659271Y-72421979D01*
X74666201Y-72424459D01*
X74672855Y-72427606D01*
X74679168Y-72431390D01*
X74685079Y-72435774D01*
X74690533Y-72440717D01*
X74695476Y-72446171D01*
X74699860Y-72452082D01*
X74703644Y-72458395D01*
X74706791Y-72465049D01*
X74709271Y-72471979D01*
X74711059Y-72479118D01*
X74712139Y-72486399D01*
X74712500Y-72493750D01*
X74712500Y-72643750D01*
X74712139Y-72651101D01*
X74711059Y-72658382D01*
X74709271Y-72665521D01*
X74706791Y-72672451D01*
X74703644Y-72679105D01*
X74699860Y-72685418D01*
X74695476Y-72691329D01*
X74690533Y-72696783D01*
X74685079Y-72701726D01*
X74679168Y-72706110D01*
X74672855Y-72709894D01*
X74666201Y-72713041D01*
X74659271Y-72715521D01*
X74652132Y-72717309D01*
X74644851Y-72718389D01*
X74637500Y-72718750D01*
X73237500Y-72718750D01*
X73230149Y-72718389D01*
X73222868Y-72717309D01*
X73215729Y-72715521D01*
X73208799Y-72713041D01*
X73202145Y-72709894D01*
X73195832Y-72706110D01*
X73189921Y-72701726D01*
X73184467Y-72696783D01*
X73179524Y-72691329D01*
X73175140Y-72685418D01*
X73171356Y-72679105D01*
X73168209Y-72672451D01*
X73165729Y-72665521D01*
X73163941Y-72658382D01*
X73162861Y-72651101D01*
X73162500Y-72643750D01*
X73162500Y-72493750D01*
X73162861Y-72486399D01*
X73163941Y-72479118D01*
X73165729Y-72471979D01*
X73168209Y-72465049D01*
X73171356Y-72458395D01*
X73175140Y-72452082D01*
X73179524Y-72446171D01*
X73184467Y-72440717D01*
X73189921Y-72435774D01*
X73195832Y-72431390D01*
X73202145Y-72427606D01*
X73208799Y-72424459D01*
X73215729Y-72421979D01*
X73222868Y-72420191D01*
X73230149Y-72419111D01*
X73237500Y-72418750D01*
X74637500Y-72418750D01*
X74644851Y-72419111D01*
X74644851Y-72419111D01*
G37*
D12*
X73937500Y-72568750D03*
D11*
G36*
X74644851Y-72919111D02*
G01*
X74652132Y-72920191D01*
X74659271Y-72921979D01*
X74666201Y-72924459D01*
X74672855Y-72927606D01*
X74679168Y-72931390D01*
X74685079Y-72935774D01*
X74690533Y-72940717D01*
X74695476Y-72946171D01*
X74699860Y-72952082D01*
X74703644Y-72958395D01*
X74706791Y-72965049D01*
X74709271Y-72971979D01*
X74711059Y-72979118D01*
X74712139Y-72986399D01*
X74712500Y-72993750D01*
X74712500Y-73143750D01*
X74712139Y-73151101D01*
X74711059Y-73158382D01*
X74709271Y-73165521D01*
X74706791Y-73172451D01*
X74703644Y-73179105D01*
X74699860Y-73185418D01*
X74695476Y-73191329D01*
X74690533Y-73196783D01*
X74685079Y-73201726D01*
X74679168Y-73206110D01*
X74672855Y-73209894D01*
X74666201Y-73213041D01*
X74659271Y-73215521D01*
X74652132Y-73217309D01*
X74644851Y-73218389D01*
X74637500Y-73218750D01*
X73237500Y-73218750D01*
X73230149Y-73218389D01*
X73222868Y-73217309D01*
X73215729Y-73215521D01*
X73208799Y-73213041D01*
X73202145Y-73209894D01*
X73195832Y-73206110D01*
X73189921Y-73201726D01*
X73184467Y-73196783D01*
X73179524Y-73191329D01*
X73175140Y-73185418D01*
X73171356Y-73179105D01*
X73168209Y-73172451D01*
X73165729Y-73165521D01*
X73163941Y-73158382D01*
X73162861Y-73151101D01*
X73162500Y-73143750D01*
X73162500Y-72993750D01*
X73162861Y-72986399D01*
X73163941Y-72979118D01*
X73165729Y-72971979D01*
X73168209Y-72965049D01*
X73171356Y-72958395D01*
X73175140Y-72952082D01*
X73179524Y-72946171D01*
X73184467Y-72940717D01*
X73189921Y-72935774D01*
X73195832Y-72931390D01*
X73202145Y-72927606D01*
X73208799Y-72924459D01*
X73215729Y-72921979D01*
X73222868Y-72920191D01*
X73230149Y-72919111D01*
X73237500Y-72918750D01*
X74637500Y-72918750D01*
X74644851Y-72919111D01*
X74644851Y-72919111D01*
G37*
D12*
X73937500Y-73068750D03*
D11*
G36*
X74644851Y-73419111D02*
G01*
X74652132Y-73420191D01*
X74659271Y-73421979D01*
X74666201Y-73424459D01*
X74672855Y-73427606D01*
X74679168Y-73431390D01*
X74685079Y-73435774D01*
X74690533Y-73440717D01*
X74695476Y-73446171D01*
X74699860Y-73452082D01*
X74703644Y-73458395D01*
X74706791Y-73465049D01*
X74709271Y-73471979D01*
X74711059Y-73479118D01*
X74712139Y-73486399D01*
X74712500Y-73493750D01*
X74712500Y-73643750D01*
X74712139Y-73651101D01*
X74711059Y-73658382D01*
X74709271Y-73665521D01*
X74706791Y-73672451D01*
X74703644Y-73679105D01*
X74699860Y-73685418D01*
X74695476Y-73691329D01*
X74690533Y-73696783D01*
X74685079Y-73701726D01*
X74679168Y-73706110D01*
X74672855Y-73709894D01*
X74666201Y-73713041D01*
X74659271Y-73715521D01*
X74652132Y-73717309D01*
X74644851Y-73718389D01*
X74637500Y-73718750D01*
X73237500Y-73718750D01*
X73230149Y-73718389D01*
X73222868Y-73717309D01*
X73215729Y-73715521D01*
X73208799Y-73713041D01*
X73202145Y-73709894D01*
X73195832Y-73706110D01*
X73189921Y-73701726D01*
X73184467Y-73696783D01*
X73179524Y-73691329D01*
X73175140Y-73685418D01*
X73171356Y-73679105D01*
X73168209Y-73672451D01*
X73165729Y-73665521D01*
X73163941Y-73658382D01*
X73162861Y-73651101D01*
X73162500Y-73643750D01*
X73162500Y-73493750D01*
X73162861Y-73486399D01*
X73163941Y-73479118D01*
X73165729Y-73471979D01*
X73168209Y-73465049D01*
X73171356Y-73458395D01*
X73175140Y-73452082D01*
X73179524Y-73446171D01*
X73184467Y-73440717D01*
X73189921Y-73435774D01*
X73195832Y-73431390D01*
X73202145Y-73427606D01*
X73208799Y-73424459D01*
X73215729Y-73421979D01*
X73222868Y-73420191D01*
X73230149Y-73419111D01*
X73237500Y-73418750D01*
X74637500Y-73418750D01*
X74644851Y-73419111D01*
X74644851Y-73419111D01*
G37*
D12*
X73937500Y-73568750D03*
D11*
G36*
X74644851Y-73919111D02*
G01*
X74652132Y-73920191D01*
X74659271Y-73921979D01*
X74666201Y-73924459D01*
X74672855Y-73927606D01*
X74679168Y-73931390D01*
X74685079Y-73935774D01*
X74690533Y-73940717D01*
X74695476Y-73946171D01*
X74699860Y-73952082D01*
X74703644Y-73958395D01*
X74706791Y-73965049D01*
X74709271Y-73971979D01*
X74711059Y-73979118D01*
X74712139Y-73986399D01*
X74712500Y-73993750D01*
X74712500Y-74143750D01*
X74712139Y-74151101D01*
X74711059Y-74158382D01*
X74709271Y-74165521D01*
X74706791Y-74172451D01*
X74703644Y-74179105D01*
X74699860Y-74185418D01*
X74695476Y-74191329D01*
X74690533Y-74196783D01*
X74685079Y-74201726D01*
X74679168Y-74206110D01*
X74672855Y-74209894D01*
X74666201Y-74213041D01*
X74659271Y-74215521D01*
X74652132Y-74217309D01*
X74644851Y-74218389D01*
X74637500Y-74218750D01*
X73237500Y-74218750D01*
X73230149Y-74218389D01*
X73222868Y-74217309D01*
X73215729Y-74215521D01*
X73208799Y-74213041D01*
X73202145Y-74209894D01*
X73195832Y-74206110D01*
X73189921Y-74201726D01*
X73184467Y-74196783D01*
X73179524Y-74191329D01*
X73175140Y-74185418D01*
X73171356Y-74179105D01*
X73168209Y-74172451D01*
X73165729Y-74165521D01*
X73163941Y-74158382D01*
X73162861Y-74151101D01*
X73162500Y-74143750D01*
X73162500Y-73993750D01*
X73162861Y-73986399D01*
X73163941Y-73979118D01*
X73165729Y-73971979D01*
X73168209Y-73965049D01*
X73171356Y-73958395D01*
X73175140Y-73952082D01*
X73179524Y-73946171D01*
X73184467Y-73940717D01*
X73189921Y-73935774D01*
X73195832Y-73931390D01*
X73202145Y-73927606D01*
X73208799Y-73924459D01*
X73215729Y-73921979D01*
X73222868Y-73920191D01*
X73230149Y-73919111D01*
X73237500Y-73918750D01*
X74637500Y-73918750D01*
X74644851Y-73919111D01*
X74644851Y-73919111D01*
G37*
D12*
X73937500Y-74068750D03*
D11*
G36*
X74644851Y-74419111D02*
G01*
X74652132Y-74420191D01*
X74659271Y-74421979D01*
X74666201Y-74424459D01*
X74672855Y-74427606D01*
X74679168Y-74431390D01*
X74685079Y-74435774D01*
X74690533Y-74440717D01*
X74695476Y-74446171D01*
X74699860Y-74452082D01*
X74703644Y-74458395D01*
X74706791Y-74465049D01*
X74709271Y-74471979D01*
X74711059Y-74479118D01*
X74712139Y-74486399D01*
X74712500Y-74493750D01*
X74712500Y-74643750D01*
X74712139Y-74651101D01*
X74711059Y-74658382D01*
X74709271Y-74665521D01*
X74706791Y-74672451D01*
X74703644Y-74679105D01*
X74699860Y-74685418D01*
X74695476Y-74691329D01*
X74690533Y-74696783D01*
X74685079Y-74701726D01*
X74679168Y-74706110D01*
X74672855Y-74709894D01*
X74666201Y-74713041D01*
X74659271Y-74715521D01*
X74652132Y-74717309D01*
X74644851Y-74718389D01*
X74637500Y-74718750D01*
X73237500Y-74718750D01*
X73230149Y-74718389D01*
X73222868Y-74717309D01*
X73215729Y-74715521D01*
X73208799Y-74713041D01*
X73202145Y-74709894D01*
X73195832Y-74706110D01*
X73189921Y-74701726D01*
X73184467Y-74696783D01*
X73179524Y-74691329D01*
X73175140Y-74685418D01*
X73171356Y-74679105D01*
X73168209Y-74672451D01*
X73165729Y-74665521D01*
X73163941Y-74658382D01*
X73162861Y-74651101D01*
X73162500Y-74643750D01*
X73162500Y-74493750D01*
X73162861Y-74486399D01*
X73163941Y-74479118D01*
X73165729Y-74471979D01*
X73168209Y-74465049D01*
X73171356Y-74458395D01*
X73175140Y-74452082D01*
X73179524Y-74446171D01*
X73184467Y-74440717D01*
X73189921Y-74435774D01*
X73195832Y-74431390D01*
X73202145Y-74427606D01*
X73208799Y-74424459D01*
X73215729Y-74421979D01*
X73222868Y-74420191D01*
X73230149Y-74419111D01*
X73237500Y-74418750D01*
X74637500Y-74418750D01*
X74644851Y-74419111D01*
X74644851Y-74419111D01*
G37*
D12*
X73937500Y-74568750D03*
D11*
G36*
X74644851Y-74919111D02*
G01*
X74652132Y-74920191D01*
X74659271Y-74921979D01*
X74666201Y-74924459D01*
X74672855Y-74927606D01*
X74679168Y-74931390D01*
X74685079Y-74935774D01*
X74690533Y-74940717D01*
X74695476Y-74946171D01*
X74699860Y-74952082D01*
X74703644Y-74958395D01*
X74706791Y-74965049D01*
X74709271Y-74971979D01*
X74711059Y-74979118D01*
X74712139Y-74986399D01*
X74712500Y-74993750D01*
X74712500Y-75143750D01*
X74712139Y-75151101D01*
X74711059Y-75158382D01*
X74709271Y-75165521D01*
X74706791Y-75172451D01*
X74703644Y-75179105D01*
X74699860Y-75185418D01*
X74695476Y-75191329D01*
X74690533Y-75196783D01*
X74685079Y-75201726D01*
X74679168Y-75206110D01*
X74672855Y-75209894D01*
X74666201Y-75213041D01*
X74659271Y-75215521D01*
X74652132Y-75217309D01*
X74644851Y-75218389D01*
X74637500Y-75218750D01*
X73237500Y-75218750D01*
X73230149Y-75218389D01*
X73222868Y-75217309D01*
X73215729Y-75215521D01*
X73208799Y-75213041D01*
X73202145Y-75209894D01*
X73195832Y-75206110D01*
X73189921Y-75201726D01*
X73184467Y-75196783D01*
X73179524Y-75191329D01*
X73175140Y-75185418D01*
X73171356Y-75179105D01*
X73168209Y-75172451D01*
X73165729Y-75165521D01*
X73163941Y-75158382D01*
X73162861Y-75151101D01*
X73162500Y-75143750D01*
X73162500Y-74993750D01*
X73162861Y-74986399D01*
X73163941Y-74979118D01*
X73165729Y-74971979D01*
X73168209Y-74965049D01*
X73171356Y-74958395D01*
X73175140Y-74952082D01*
X73179524Y-74946171D01*
X73184467Y-74940717D01*
X73189921Y-74935774D01*
X73195832Y-74931390D01*
X73202145Y-74927606D01*
X73208799Y-74924459D01*
X73215729Y-74921979D01*
X73222868Y-74920191D01*
X73230149Y-74919111D01*
X73237500Y-74918750D01*
X74637500Y-74918750D01*
X74644851Y-74919111D01*
X74644851Y-74919111D01*
G37*
D12*
X73937500Y-75068750D03*
D11*
G36*
X74644851Y-75419111D02*
G01*
X74652132Y-75420191D01*
X74659271Y-75421979D01*
X74666201Y-75424459D01*
X74672855Y-75427606D01*
X74679168Y-75431390D01*
X74685079Y-75435774D01*
X74690533Y-75440717D01*
X74695476Y-75446171D01*
X74699860Y-75452082D01*
X74703644Y-75458395D01*
X74706791Y-75465049D01*
X74709271Y-75471979D01*
X74711059Y-75479118D01*
X74712139Y-75486399D01*
X74712500Y-75493750D01*
X74712500Y-75643750D01*
X74712139Y-75651101D01*
X74711059Y-75658382D01*
X74709271Y-75665521D01*
X74706791Y-75672451D01*
X74703644Y-75679105D01*
X74699860Y-75685418D01*
X74695476Y-75691329D01*
X74690533Y-75696783D01*
X74685079Y-75701726D01*
X74679168Y-75706110D01*
X74672855Y-75709894D01*
X74666201Y-75713041D01*
X74659271Y-75715521D01*
X74652132Y-75717309D01*
X74644851Y-75718389D01*
X74637500Y-75718750D01*
X73237500Y-75718750D01*
X73230149Y-75718389D01*
X73222868Y-75717309D01*
X73215729Y-75715521D01*
X73208799Y-75713041D01*
X73202145Y-75709894D01*
X73195832Y-75706110D01*
X73189921Y-75701726D01*
X73184467Y-75696783D01*
X73179524Y-75691329D01*
X73175140Y-75685418D01*
X73171356Y-75679105D01*
X73168209Y-75672451D01*
X73165729Y-75665521D01*
X73163941Y-75658382D01*
X73162861Y-75651101D01*
X73162500Y-75643750D01*
X73162500Y-75493750D01*
X73162861Y-75486399D01*
X73163941Y-75479118D01*
X73165729Y-75471979D01*
X73168209Y-75465049D01*
X73171356Y-75458395D01*
X73175140Y-75452082D01*
X73179524Y-75446171D01*
X73184467Y-75440717D01*
X73189921Y-75435774D01*
X73195832Y-75431390D01*
X73202145Y-75427606D01*
X73208799Y-75424459D01*
X73215729Y-75421979D01*
X73222868Y-75420191D01*
X73230149Y-75419111D01*
X73237500Y-75418750D01*
X74637500Y-75418750D01*
X74644851Y-75419111D01*
X74644851Y-75419111D01*
G37*
D12*
X73937500Y-75568750D03*
D11*
G36*
X74644851Y-75919111D02*
G01*
X74652132Y-75920191D01*
X74659271Y-75921979D01*
X74666201Y-75924459D01*
X74672855Y-75927606D01*
X74679168Y-75931390D01*
X74685079Y-75935774D01*
X74690533Y-75940717D01*
X74695476Y-75946171D01*
X74699860Y-75952082D01*
X74703644Y-75958395D01*
X74706791Y-75965049D01*
X74709271Y-75971979D01*
X74711059Y-75979118D01*
X74712139Y-75986399D01*
X74712500Y-75993750D01*
X74712500Y-76143750D01*
X74712139Y-76151101D01*
X74711059Y-76158382D01*
X74709271Y-76165521D01*
X74706791Y-76172451D01*
X74703644Y-76179105D01*
X74699860Y-76185418D01*
X74695476Y-76191329D01*
X74690533Y-76196783D01*
X74685079Y-76201726D01*
X74679168Y-76206110D01*
X74672855Y-76209894D01*
X74666201Y-76213041D01*
X74659271Y-76215521D01*
X74652132Y-76217309D01*
X74644851Y-76218389D01*
X74637500Y-76218750D01*
X73237500Y-76218750D01*
X73230149Y-76218389D01*
X73222868Y-76217309D01*
X73215729Y-76215521D01*
X73208799Y-76213041D01*
X73202145Y-76209894D01*
X73195832Y-76206110D01*
X73189921Y-76201726D01*
X73184467Y-76196783D01*
X73179524Y-76191329D01*
X73175140Y-76185418D01*
X73171356Y-76179105D01*
X73168209Y-76172451D01*
X73165729Y-76165521D01*
X73163941Y-76158382D01*
X73162861Y-76151101D01*
X73162500Y-76143750D01*
X73162500Y-75993750D01*
X73162861Y-75986399D01*
X73163941Y-75979118D01*
X73165729Y-75971979D01*
X73168209Y-75965049D01*
X73171356Y-75958395D01*
X73175140Y-75952082D01*
X73179524Y-75946171D01*
X73184467Y-75940717D01*
X73189921Y-75935774D01*
X73195832Y-75931390D01*
X73202145Y-75927606D01*
X73208799Y-75924459D01*
X73215729Y-75921979D01*
X73222868Y-75920191D01*
X73230149Y-75919111D01*
X73237500Y-75918750D01*
X74637500Y-75918750D01*
X74644851Y-75919111D01*
X74644851Y-75919111D01*
G37*
D12*
X73937500Y-76068750D03*
D11*
G36*
X74644851Y-76419111D02*
G01*
X74652132Y-76420191D01*
X74659271Y-76421979D01*
X74666201Y-76424459D01*
X74672855Y-76427606D01*
X74679168Y-76431390D01*
X74685079Y-76435774D01*
X74690533Y-76440717D01*
X74695476Y-76446171D01*
X74699860Y-76452082D01*
X74703644Y-76458395D01*
X74706791Y-76465049D01*
X74709271Y-76471979D01*
X74711059Y-76479118D01*
X74712139Y-76486399D01*
X74712500Y-76493750D01*
X74712500Y-76643750D01*
X74712139Y-76651101D01*
X74711059Y-76658382D01*
X74709271Y-76665521D01*
X74706791Y-76672451D01*
X74703644Y-76679105D01*
X74699860Y-76685418D01*
X74695476Y-76691329D01*
X74690533Y-76696783D01*
X74685079Y-76701726D01*
X74679168Y-76706110D01*
X74672855Y-76709894D01*
X74666201Y-76713041D01*
X74659271Y-76715521D01*
X74652132Y-76717309D01*
X74644851Y-76718389D01*
X74637500Y-76718750D01*
X73237500Y-76718750D01*
X73230149Y-76718389D01*
X73222868Y-76717309D01*
X73215729Y-76715521D01*
X73208799Y-76713041D01*
X73202145Y-76709894D01*
X73195832Y-76706110D01*
X73189921Y-76701726D01*
X73184467Y-76696783D01*
X73179524Y-76691329D01*
X73175140Y-76685418D01*
X73171356Y-76679105D01*
X73168209Y-76672451D01*
X73165729Y-76665521D01*
X73163941Y-76658382D01*
X73162861Y-76651101D01*
X73162500Y-76643750D01*
X73162500Y-76493750D01*
X73162861Y-76486399D01*
X73163941Y-76479118D01*
X73165729Y-76471979D01*
X73168209Y-76465049D01*
X73171356Y-76458395D01*
X73175140Y-76452082D01*
X73179524Y-76446171D01*
X73184467Y-76440717D01*
X73189921Y-76435774D01*
X73195832Y-76431390D01*
X73202145Y-76427606D01*
X73208799Y-76424459D01*
X73215729Y-76421979D01*
X73222868Y-76420191D01*
X73230149Y-76419111D01*
X73237500Y-76418750D01*
X74637500Y-76418750D01*
X74644851Y-76419111D01*
X74644851Y-76419111D01*
G37*
D12*
X73937500Y-76568750D03*
D11*
G36*
X74644851Y-76919111D02*
G01*
X74652132Y-76920191D01*
X74659271Y-76921979D01*
X74666201Y-76924459D01*
X74672855Y-76927606D01*
X74679168Y-76931390D01*
X74685079Y-76935774D01*
X74690533Y-76940717D01*
X74695476Y-76946171D01*
X74699860Y-76952082D01*
X74703644Y-76958395D01*
X74706791Y-76965049D01*
X74709271Y-76971979D01*
X74711059Y-76979118D01*
X74712139Y-76986399D01*
X74712500Y-76993750D01*
X74712500Y-77143750D01*
X74712139Y-77151101D01*
X74711059Y-77158382D01*
X74709271Y-77165521D01*
X74706791Y-77172451D01*
X74703644Y-77179105D01*
X74699860Y-77185418D01*
X74695476Y-77191329D01*
X74690533Y-77196783D01*
X74685079Y-77201726D01*
X74679168Y-77206110D01*
X74672855Y-77209894D01*
X74666201Y-77213041D01*
X74659271Y-77215521D01*
X74652132Y-77217309D01*
X74644851Y-77218389D01*
X74637500Y-77218750D01*
X73237500Y-77218750D01*
X73230149Y-77218389D01*
X73222868Y-77217309D01*
X73215729Y-77215521D01*
X73208799Y-77213041D01*
X73202145Y-77209894D01*
X73195832Y-77206110D01*
X73189921Y-77201726D01*
X73184467Y-77196783D01*
X73179524Y-77191329D01*
X73175140Y-77185418D01*
X73171356Y-77179105D01*
X73168209Y-77172451D01*
X73165729Y-77165521D01*
X73163941Y-77158382D01*
X73162861Y-77151101D01*
X73162500Y-77143750D01*
X73162500Y-76993750D01*
X73162861Y-76986399D01*
X73163941Y-76979118D01*
X73165729Y-76971979D01*
X73168209Y-76965049D01*
X73171356Y-76958395D01*
X73175140Y-76952082D01*
X73179524Y-76946171D01*
X73184467Y-76940717D01*
X73189921Y-76935774D01*
X73195832Y-76931390D01*
X73202145Y-76927606D01*
X73208799Y-76924459D01*
X73215729Y-76921979D01*
X73222868Y-76920191D01*
X73230149Y-76919111D01*
X73237500Y-76918750D01*
X74637500Y-76918750D01*
X74644851Y-76919111D01*
X74644851Y-76919111D01*
G37*
D12*
X73937500Y-77068750D03*
D11*
G36*
X74644851Y-77419111D02*
G01*
X74652132Y-77420191D01*
X74659271Y-77421979D01*
X74666201Y-77424459D01*
X74672855Y-77427606D01*
X74679168Y-77431390D01*
X74685079Y-77435774D01*
X74690533Y-77440717D01*
X74695476Y-77446171D01*
X74699860Y-77452082D01*
X74703644Y-77458395D01*
X74706791Y-77465049D01*
X74709271Y-77471979D01*
X74711059Y-77479118D01*
X74712139Y-77486399D01*
X74712500Y-77493750D01*
X74712500Y-77643750D01*
X74712139Y-77651101D01*
X74711059Y-77658382D01*
X74709271Y-77665521D01*
X74706791Y-77672451D01*
X74703644Y-77679105D01*
X74699860Y-77685418D01*
X74695476Y-77691329D01*
X74690533Y-77696783D01*
X74685079Y-77701726D01*
X74679168Y-77706110D01*
X74672855Y-77709894D01*
X74666201Y-77713041D01*
X74659271Y-77715521D01*
X74652132Y-77717309D01*
X74644851Y-77718389D01*
X74637500Y-77718750D01*
X73237500Y-77718750D01*
X73230149Y-77718389D01*
X73222868Y-77717309D01*
X73215729Y-77715521D01*
X73208799Y-77713041D01*
X73202145Y-77709894D01*
X73195832Y-77706110D01*
X73189921Y-77701726D01*
X73184467Y-77696783D01*
X73179524Y-77691329D01*
X73175140Y-77685418D01*
X73171356Y-77679105D01*
X73168209Y-77672451D01*
X73165729Y-77665521D01*
X73163941Y-77658382D01*
X73162861Y-77651101D01*
X73162500Y-77643750D01*
X73162500Y-77493750D01*
X73162861Y-77486399D01*
X73163941Y-77479118D01*
X73165729Y-77471979D01*
X73168209Y-77465049D01*
X73171356Y-77458395D01*
X73175140Y-77452082D01*
X73179524Y-77446171D01*
X73184467Y-77440717D01*
X73189921Y-77435774D01*
X73195832Y-77431390D01*
X73202145Y-77427606D01*
X73208799Y-77424459D01*
X73215729Y-77421979D01*
X73222868Y-77420191D01*
X73230149Y-77419111D01*
X73237500Y-77418750D01*
X74637500Y-77418750D01*
X74644851Y-77419111D01*
X74644851Y-77419111D01*
G37*
D12*
X73937500Y-77568750D03*
D13*
X69299000Y-57216000D03*
X69299000Y-59116000D03*
X67099000Y-59116000D03*
X67099000Y-58166000D03*
X67099000Y-57216000D03*
D11*
G36*
X52797142Y-56197174D02*
G01*
X52820803Y-56200684D01*
X52844007Y-56206496D01*
X52866529Y-56214554D01*
X52888153Y-56224782D01*
X52908670Y-56237079D01*
X52927883Y-56251329D01*
X52945607Y-56267393D01*
X52961671Y-56285117D01*
X52975921Y-56304330D01*
X52988218Y-56324847D01*
X52998446Y-56346471D01*
X53006504Y-56368993D01*
X53012316Y-56392197D01*
X53015826Y-56415858D01*
X53017000Y-56439750D01*
X53017000Y-57352250D01*
X53015826Y-57376142D01*
X53012316Y-57399803D01*
X53006504Y-57423007D01*
X52998446Y-57445529D01*
X52988218Y-57467153D01*
X52975921Y-57487670D01*
X52961671Y-57506883D01*
X52945607Y-57524607D01*
X52927883Y-57540671D01*
X52908670Y-57554921D01*
X52888153Y-57567218D01*
X52866529Y-57577446D01*
X52844007Y-57585504D01*
X52820803Y-57591316D01*
X52797142Y-57594826D01*
X52773250Y-57596000D01*
X52285750Y-57596000D01*
X52261858Y-57594826D01*
X52238197Y-57591316D01*
X52214993Y-57585504D01*
X52192471Y-57577446D01*
X52170847Y-57567218D01*
X52150330Y-57554921D01*
X52131117Y-57540671D01*
X52113393Y-57524607D01*
X52097329Y-57506883D01*
X52083079Y-57487670D01*
X52070782Y-57467153D01*
X52060554Y-57445529D01*
X52052496Y-57423007D01*
X52046684Y-57399803D01*
X52043174Y-57376142D01*
X52042000Y-57352250D01*
X52042000Y-56439750D01*
X52043174Y-56415858D01*
X52046684Y-56392197D01*
X52052496Y-56368993D01*
X52060554Y-56346471D01*
X52070782Y-56324847D01*
X52083079Y-56304330D01*
X52097329Y-56285117D01*
X52113393Y-56267393D01*
X52131117Y-56251329D01*
X52150330Y-56237079D01*
X52170847Y-56224782D01*
X52192471Y-56214554D01*
X52214993Y-56206496D01*
X52238197Y-56200684D01*
X52261858Y-56197174D01*
X52285750Y-56196000D01*
X52773250Y-56196000D01*
X52797142Y-56197174D01*
X52797142Y-56197174D01*
G37*
D14*
X52529500Y-56896000D03*
D11*
G36*
X54672142Y-56197174D02*
G01*
X54695803Y-56200684D01*
X54719007Y-56206496D01*
X54741529Y-56214554D01*
X54763153Y-56224782D01*
X54783670Y-56237079D01*
X54802883Y-56251329D01*
X54820607Y-56267393D01*
X54836671Y-56285117D01*
X54850921Y-56304330D01*
X54863218Y-56324847D01*
X54873446Y-56346471D01*
X54881504Y-56368993D01*
X54887316Y-56392197D01*
X54890826Y-56415858D01*
X54892000Y-56439750D01*
X54892000Y-57352250D01*
X54890826Y-57376142D01*
X54887316Y-57399803D01*
X54881504Y-57423007D01*
X54873446Y-57445529D01*
X54863218Y-57467153D01*
X54850921Y-57487670D01*
X54836671Y-57506883D01*
X54820607Y-57524607D01*
X54802883Y-57540671D01*
X54783670Y-57554921D01*
X54763153Y-57567218D01*
X54741529Y-57577446D01*
X54719007Y-57585504D01*
X54695803Y-57591316D01*
X54672142Y-57594826D01*
X54648250Y-57596000D01*
X54160750Y-57596000D01*
X54136858Y-57594826D01*
X54113197Y-57591316D01*
X54089993Y-57585504D01*
X54067471Y-57577446D01*
X54045847Y-57567218D01*
X54025330Y-57554921D01*
X54006117Y-57540671D01*
X53988393Y-57524607D01*
X53972329Y-57506883D01*
X53958079Y-57487670D01*
X53945782Y-57467153D01*
X53935554Y-57445529D01*
X53927496Y-57423007D01*
X53921684Y-57399803D01*
X53918174Y-57376142D01*
X53917000Y-57352250D01*
X53917000Y-56439750D01*
X53918174Y-56415858D01*
X53921684Y-56392197D01*
X53927496Y-56368993D01*
X53935554Y-56346471D01*
X53945782Y-56324847D01*
X53958079Y-56304330D01*
X53972329Y-56285117D01*
X53988393Y-56267393D01*
X54006117Y-56251329D01*
X54025330Y-56237079D01*
X54045847Y-56224782D01*
X54067471Y-56214554D01*
X54089993Y-56206496D01*
X54113197Y-56200684D01*
X54136858Y-56197174D01*
X54160750Y-56196000D01*
X54648250Y-56196000D01*
X54672142Y-56197174D01*
X54672142Y-56197174D01*
G37*
D14*
X54404500Y-56896000D03*
D11*
G36*
X52875642Y-58229174D02*
G01*
X52899303Y-58232684D01*
X52922507Y-58238496D01*
X52945029Y-58246554D01*
X52966653Y-58256782D01*
X52987170Y-58269079D01*
X53006383Y-58283329D01*
X53024107Y-58299393D01*
X53040171Y-58317117D01*
X53054421Y-58336330D01*
X53066718Y-58356847D01*
X53076946Y-58378471D01*
X53085004Y-58400993D01*
X53090816Y-58424197D01*
X53094326Y-58447858D01*
X53095500Y-58471750D01*
X53095500Y-59384250D01*
X53094326Y-59408142D01*
X53090816Y-59431803D01*
X53085004Y-59455007D01*
X53076946Y-59477529D01*
X53066718Y-59499153D01*
X53054421Y-59519670D01*
X53040171Y-59538883D01*
X53024107Y-59556607D01*
X53006383Y-59572671D01*
X52987170Y-59586921D01*
X52966653Y-59599218D01*
X52945029Y-59609446D01*
X52922507Y-59617504D01*
X52899303Y-59623316D01*
X52875642Y-59626826D01*
X52851750Y-59628000D01*
X52364250Y-59628000D01*
X52340358Y-59626826D01*
X52316697Y-59623316D01*
X52293493Y-59617504D01*
X52270971Y-59609446D01*
X52249347Y-59599218D01*
X52228830Y-59586921D01*
X52209617Y-59572671D01*
X52191893Y-59556607D01*
X52175829Y-59538883D01*
X52161579Y-59519670D01*
X52149282Y-59499153D01*
X52139054Y-59477529D01*
X52130996Y-59455007D01*
X52125184Y-59431803D01*
X52121674Y-59408142D01*
X52120500Y-59384250D01*
X52120500Y-58471750D01*
X52121674Y-58447858D01*
X52125184Y-58424197D01*
X52130996Y-58400993D01*
X52139054Y-58378471D01*
X52149282Y-58356847D01*
X52161579Y-58336330D01*
X52175829Y-58317117D01*
X52191893Y-58299393D01*
X52209617Y-58283329D01*
X52228830Y-58269079D01*
X52249347Y-58256782D01*
X52270971Y-58246554D01*
X52293493Y-58238496D01*
X52316697Y-58232684D01*
X52340358Y-58229174D01*
X52364250Y-58228000D01*
X52851750Y-58228000D01*
X52875642Y-58229174D01*
X52875642Y-58229174D01*
G37*
D14*
X52608000Y-58928000D03*
D11*
G36*
X54750642Y-58229174D02*
G01*
X54774303Y-58232684D01*
X54797507Y-58238496D01*
X54820029Y-58246554D01*
X54841653Y-58256782D01*
X54862170Y-58269079D01*
X54881383Y-58283329D01*
X54899107Y-58299393D01*
X54915171Y-58317117D01*
X54929421Y-58336330D01*
X54941718Y-58356847D01*
X54951946Y-58378471D01*
X54960004Y-58400993D01*
X54965816Y-58424197D01*
X54969326Y-58447858D01*
X54970500Y-58471750D01*
X54970500Y-59384250D01*
X54969326Y-59408142D01*
X54965816Y-59431803D01*
X54960004Y-59455007D01*
X54951946Y-59477529D01*
X54941718Y-59499153D01*
X54929421Y-59519670D01*
X54915171Y-59538883D01*
X54899107Y-59556607D01*
X54881383Y-59572671D01*
X54862170Y-59586921D01*
X54841653Y-59599218D01*
X54820029Y-59609446D01*
X54797507Y-59617504D01*
X54774303Y-59623316D01*
X54750642Y-59626826D01*
X54726750Y-59628000D01*
X54239250Y-59628000D01*
X54215358Y-59626826D01*
X54191697Y-59623316D01*
X54168493Y-59617504D01*
X54145971Y-59609446D01*
X54124347Y-59599218D01*
X54103830Y-59586921D01*
X54084617Y-59572671D01*
X54066893Y-59556607D01*
X54050829Y-59538883D01*
X54036579Y-59519670D01*
X54024282Y-59499153D01*
X54014054Y-59477529D01*
X54005996Y-59455007D01*
X54000184Y-59431803D01*
X53996674Y-59408142D01*
X53995500Y-59384250D01*
X53995500Y-58471750D01*
X53996674Y-58447858D01*
X54000184Y-58424197D01*
X54005996Y-58400993D01*
X54014054Y-58378471D01*
X54024282Y-58356847D01*
X54036579Y-58336330D01*
X54050829Y-58317117D01*
X54066893Y-58299393D01*
X54084617Y-58283329D01*
X54103830Y-58269079D01*
X54124347Y-58256782D01*
X54145971Y-58246554D01*
X54168493Y-58238496D01*
X54191697Y-58232684D01*
X54215358Y-58229174D01*
X54239250Y-58228000D01*
X54726750Y-58228000D01*
X54750642Y-58229174D01*
X54750642Y-58229174D01*
G37*
D14*
X54483000Y-58928000D03*
D11*
G36*
X79855142Y-65538674D02*
G01*
X79878803Y-65542184D01*
X79902007Y-65547996D01*
X79924529Y-65556054D01*
X79946153Y-65566282D01*
X79966670Y-65578579D01*
X79985883Y-65592829D01*
X80003607Y-65608893D01*
X80019671Y-65626617D01*
X80033921Y-65645830D01*
X80046218Y-65666347D01*
X80056446Y-65687971D01*
X80064504Y-65710493D01*
X80070316Y-65733697D01*
X80073826Y-65757358D01*
X80075000Y-65781250D01*
X80075000Y-66268750D01*
X80073826Y-66292642D01*
X80070316Y-66316303D01*
X80064504Y-66339507D01*
X80056446Y-66362029D01*
X80046218Y-66383653D01*
X80033921Y-66404170D01*
X80019671Y-66423383D01*
X80003607Y-66441107D01*
X79985883Y-66457171D01*
X79966670Y-66471421D01*
X79946153Y-66483718D01*
X79924529Y-66493946D01*
X79902007Y-66502004D01*
X79878803Y-66507816D01*
X79855142Y-66511326D01*
X79831250Y-66512500D01*
X78918750Y-66512500D01*
X78894858Y-66511326D01*
X78871197Y-66507816D01*
X78847993Y-66502004D01*
X78825471Y-66493946D01*
X78803847Y-66483718D01*
X78783330Y-66471421D01*
X78764117Y-66457171D01*
X78746393Y-66441107D01*
X78730329Y-66423383D01*
X78716079Y-66404170D01*
X78703782Y-66383653D01*
X78693554Y-66362029D01*
X78685496Y-66339507D01*
X78679684Y-66316303D01*
X78676174Y-66292642D01*
X78675000Y-66268750D01*
X78675000Y-65781250D01*
X78676174Y-65757358D01*
X78679684Y-65733697D01*
X78685496Y-65710493D01*
X78693554Y-65687971D01*
X78703782Y-65666347D01*
X78716079Y-65645830D01*
X78730329Y-65626617D01*
X78746393Y-65608893D01*
X78764117Y-65592829D01*
X78783330Y-65578579D01*
X78803847Y-65566282D01*
X78825471Y-65556054D01*
X78847993Y-65547996D01*
X78871197Y-65542184D01*
X78894858Y-65538674D01*
X78918750Y-65537500D01*
X79831250Y-65537500D01*
X79855142Y-65538674D01*
X79855142Y-65538674D01*
G37*
D14*
X79375000Y-66025000D03*
D11*
G36*
X79855142Y-63663674D02*
G01*
X79878803Y-63667184D01*
X79902007Y-63672996D01*
X79924529Y-63681054D01*
X79946153Y-63691282D01*
X79966670Y-63703579D01*
X79985883Y-63717829D01*
X80003607Y-63733893D01*
X80019671Y-63751617D01*
X80033921Y-63770830D01*
X80046218Y-63791347D01*
X80056446Y-63812971D01*
X80064504Y-63835493D01*
X80070316Y-63858697D01*
X80073826Y-63882358D01*
X80075000Y-63906250D01*
X80075000Y-64393750D01*
X80073826Y-64417642D01*
X80070316Y-64441303D01*
X80064504Y-64464507D01*
X80056446Y-64487029D01*
X80046218Y-64508653D01*
X80033921Y-64529170D01*
X80019671Y-64548383D01*
X80003607Y-64566107D01*
X79985883Y-64582171D01*
X79966670Y-64596421D01*
X79946153Y-64608718D01*
X79924529Y-64618946D01*
X79902007Y-64627004D01*
X79878803Y-64632816D01*
X79855142Y-64636326D01*
X79831250Y-64637500D01*
X78918750Y-64637500D01*
X78894858Y-64636326D01*
X78871197Y-64632816D01*
X78847993Y-64627004D01*
X78825471Y-64618946D01*
X78803847Y-64608718D01*
X78783330Y-64596421D01*
X78764117Y-64582171D01*
X78746393Y-64566107D01*
X78730329Y-64548383D01*
X78716079Y-64529170D01*
X78703782Y-64508653D01*
X78693554Y-64487029D01*
X78685496Y-64464507D01*
X78679684Y-64441303D01*
X78676174Y-64417642D01*
X78675000Y-64393750D01*
X78675000Y-63906250D01*
X78676174Y-63882358D01*
X78679684Y-63858697D01*
X78685496Y-63835493D01*
X78693554Y-63812971D01*
X78703782Y-63791347D01*
X78716079Y-63770830D01*
X78730329Y-63751617D01*
X78746393Y-63733893D01*
X78764117Y-63717829D01*
X78783330Y-63703579D01*
X78803847Y-63691282D01*
X78825471Y-63681054D01*
X78847993Y-63672996D01*
X78871197Y-63667184D01*
X78894858Y-63663674D01*
X78918750Y-63662500D01*
X79831250Y-63662500D01*
X79855142Y-63663674D01*
X79855142Y-63663674D01*
G37*
D14*
X79375000Y-64150000D03*
D11*
G36*
X52466504Y-53863204D02*
G01*
X52490773Y-53866804D01*
X52514571Y-53872765D01*
X52537671Y-53881030D01*
X52559849Y-53891520D01*
X52580893Y-53904133D01*
X52600598Y-53918747D01*
X52618777Y-53935223D01*
X52635253Y-53953402D01*
X52649867Y-53973107D01*
X52662480Y-53994151D01*
X52672970Y-54016329D01*
X52681235Y-54039429D01*
X52687196Y-54063227D01*
X52690796Y-54087496D01*
X52692000Y-54112000D01*
X52692000Y-55362000D01*
X52690796Y-55386504D01*
X52687196Y-55410773D01*
X52681235Y-55434571D01*
X52672970Y-55457671D01*
X52662480Y-55479849D01*
X52649867Y-55500893D01*
X52635253Y-55520598D01*
X52618777Y-55538777D01*
X52600598Y-55555253D01*
X52580893Y-55569867D01*
X52559849Y-55582480D01*
X52537671Y-55592970D01*
X52514571Y-55601235D01*
X52490773Y-55607196D01*
X52466504Y-55610796D01*
X52442000Y-55612000D01*
X51692000Y-55612000D01*
X51667496Y-55610796D01*
X51643227Y-55607196D01*
X51619429Y-55601235D01*
X51596329Y-55592970D01*
X51574151Y-55582480D01*
X51553107Y-55569867D01*
X51533402Y-55555253D01*
X51515223Y-55538777D01*
X51498747Y-55520598D01*
X51484133Y-55500893D01*
X51471520Y-55479849D01*
X51461030Y-55457671D01*
X51452765Y-55434571D01*
X51446804Y-55410773D01*
X51443204Y-55386504D01*
X51442000Y-55362000D01*
X51442000Y-54112000D01*
X51443204Y-54087496D01*
X51446804Y-54063227D01*
X51452765Y-54039429D01*
X51461030Y-54016329D01*
X51471520Y-53994151D01*
X51484133Y-53973107D01*
X51498747Y-53953402D01*
X51515223Y-53935223D01*
X51533402Y-53918747D01*
X51553107Y-53904133D01*
X51574151Y-53891520D01*
X51596329Y-53881030D01*
X51619429Y-53872765D01*
X51643227Y-53866804D01*
X51667496Y-53863204D01*
X51692000Y-53862000D01*
X52442000Y-53862000D01*
X52466504Y-53863204D01*
X52466504Y-53863204D01*
G37*
D15*
X52067000Y-54737000D03*
D11*
G36*
X55266504Y-53863204D02*
G01*
X55290773Y-53866804D01*
X55314571Y-53872765D01*
X55337671Y-53881030D01*
X55359849Y-53891520D01*
X55380893Y-53904133D01*
X55400598Y-53918747D01*
X55418777Y-53935223D01*
X55435253Y-53953402D01*
X55449867Y-53973107D01*
X55462480Y-53994151D01*
X55472970Y-54016329D01*
X55481235Y-54039429D01*
X55487196Y-54063227D01*
X55490796Y-54087496D01*
X55492000Y-54112000D01*
X55492000Y-55362000D01*
X55490796Y-55386504D01*
X55487196Y-55410773D01*
X55481235Y-55434571D01*
X55472970Y-55457671D01*
X55462480Y-55479849D01*
X55449867Y-55500893D01*
X55435253Y-55520598D01*
X55418777Y-55538777D01*
X55400598Y-55555253D01*
X55380893Y-55569867D01*
X55359849Y-55582480D01*
X55337671Y-55592970D01*
X55314571Y-55601235D01*
X55290773Y-55607196D01*
X55266504Y-55610796D01*
X55242000Y-55612000D01*
X54492000Y-55612000D01*
X54467496Y-55610796D01*
X54443227Y-55607196D01*
X54419429Y-55601235D01*
X54396329Y-55592970D01*
X54374151Y-55582480D01*
X54353107Y-55569867D01*
X54333402Y-55555253D01*
X54315223Y-55538777D01*
X54298747Y-55520598D01*
X54284133Y-55500893D01*
X54271520Y-55479849D01*
X54261030Y-55457671D01*
X54252765Y-55434571D01*
X54246804Y-55410773D01*
X54243204Y-55386504D01*
X54242000Y-55362000D01*
X54242000Y-54112000D01*
X54243204Y-54087496D01*
X54246804Y-54063227D01*
X54252765Y-54039429D01*
X54261030Y-54016329D01*
X54271520Y-53994151D01*
X54284133Y-53973107D01*
X54298747Y-53953402D01*
X54315223Y-53935223D01*
X54333402Y-53918747D01*
X54353107Y-53904133D01*
X54374151Y-53891520D01*
X54396329Y-53881030D01*
X54419429Y-53872765D01*
X54443227Y-53866804D01*
X54467496Y-53863204D01*
X54492000Y-53862000D01*
X55242000Y-53862000D01*
X55266504Y-53863204D01*
X55266504Y-53863204D01*
G37*
D15*
X54867000Y-54737000D03*
D16*
X58547000Y-56643000D03*
X58547000Y-59943000D03*
D11*
G36*
X63853142Y-58871174D02*
G01*
X63876803Y-58874684D01*
X63900007Y-58880496D01*
X63922529Y-58888554D01*
X63944153Y-58898782D01*
X63964670Y-58911079D01*
X63983883Y-58925329D01*
X64001607Y-58941393D01*
X64017671Y-58959117D01*
X64031921Y-58978330D01*
X64044218Y-58998847D01*
X64054446Y-59020471D01*
X64062504Y-59042993D01*
X64068316Y-59066197D01*
X64071826Y-59089858D01*
X64073000Y-59113750D01*
X64073000Y-59601250D01*
X64071826Y-59625142D01*
X64068316Y-59648803D01*
X64062504Y-59672007D01*
X64054446Y-59694529D01*
X64044218Y-59716153D01*
X64031921Y-59736670D01*
X64017671Y-59755883D01*
X64001607Y-59773607D01*
X63983883Y-59789671D01*
X63964670Y-59803921D01*
X63944153Y-59816218D01*
X63922529Y-59826446D01*
X63900007Y-59834504D01*
X63876803Y-59840316D01*
X63853142Y-59843826D01*
X63829250Y-59845000D01*
X62916750Y-59845000D01*
X62892858Y-59843826D01*
X62869197Y-59840316D01*
X62845993Y-59834504D01*
X62823471Y-59826446D01*
X62801847Y-59816218D01*
X62781330Y-59803921D01*
X62762117Y-59789671D01*
X62744393Y-59773607D01*
X62728329Y-59755883D01*
X62714079Y-59736670D01*
X62701782Y-59716153D01*
X62691554Y-59694529D01*
X62683496Y-59672007D01*
X62677684Y-59648803D01*
X62674174Y-59625142D01*
X62673000Y-59601250D01*
X62673000Y-59113750D01*
X62674174Y-59089858D01*
X62677684Y-59066197D01*
X62683496Y-59042993D01*
X62691554Y-59020471D01*
X62701782Y-58998847D01*
X62714079Y-58978330D01*
X62728329Y-58959117D01*
X62744393Y-58941393D01*
X62762117Y-58925329D01*
X62781330Y-58911079D01*
X62801847Y-58898782D01*
X62823471Y-58888554D01*
X62845993Y-58880496D01*
X62869197Y-58874684D01*
X62892858Y-58871174D01*
X62916750Y-58870000D01*
X63829250Y-58870000D01*
X63853142Y-58871174D01*
X63853142Y-58871174D01*
G37*
D14*
X63373000Y-59357500D03*
D11*
G36*
X63853142Y-56996174D02*
G01*
X63876803Y-56999684D01*
X63900007Y-57005496D01*
X63922529Y-57013554D01*
X63944153Y-57023782D01*
X63964670Y-57036079D01*
X63983883Y-57050329D01*
X64001607Y-57066393D01*
X64017671Y-57084117D01*
X64031921Y-57103330D01*
X64044218Y-57123847D01*
X64054446Y-57145471D01*
X64062504Y-57167993D01*
X64068316Y-57191197D01*
X64071826Y-57214858D01*
X64073000Y-57238750D01*
X64073000Y-57726250D01*
X64071826Y-57750142D01*
X64068316Y-57773803D01*
X64062504Y-57797007D01*
X64054446Y-57819529D01*
X64044218Y-57841153D01*
X64031921Y-57861670D01*
X64017671Y-57880883D01*
X64001607Y-57898607D01*
X63983883Y-57914671D01*
X63964670Y-57928921D01*
X63944153Y-57941218D01*
X63922529Y-57951446D01*
X63900007Y-57959504D01*
X63876803Y-57965316D01*
X63853142Y-57968826D01*
X63829250Y-57970000D01*
X62916750Y-57970000D01*
X62892858Y-57968826D01*
X62869197Y-57965316D01*
X62845993Y-57959504D01*
X62823471Y-57951446D01*
X62801847Y-57941218D01*
X62781330Y-57928921D01*
X62762117Y-57914671D01*
X62744393Y-57898607D01*
X62728329Y-57880883D01*
X62714079Y-57861670D01*
X62701782Y-57841153D01*
X62691554Y-57819529D01*
X62683496Y-57797007D01*
X62677684Y-57773803D01*
X62674174Y-57750142D01*
X62673000Y-57726250D01*
X62673000Y-57238750D01*
X62674174Y-57214858D01*
X62677684Y-57191197D01*
X62683496Y-57167993D01*
X62691554Y-57145471D01*
X62701782Y-57123847D01*
X62714079Y-57103330D01*
X62728329Y-57084117D01*
X62744393Y-57066393D01*
X62762117Y-57050329D01*
X62781330Y-57036079D01*
X62801847Y-57023782D01*
X62823471Y-57013554D01*
X62845993Y-57005496D01*
X62869197Y-56999684D01*
X62892858Y-56996174D01*
X62916750Y-56995000D01*
X63829250Y-56995000D01*
X63853142Y-56996174D01*
X63853142Y-56996174D01*
G37*
D14*
X63373000Y-57482500D03*
D11*
G36*
X61948142Y-58919674D02*
G01*
X61971803Y-58923184D01*
X61995007Y-58928996D01*
X62017529Y-58937054D01*
X62039153Y-58947282D01*
X62059670Y-58959579D01*
X62078883Y-58973829D01*
X62096607Y-58989893D01*
X62112671Y-59007617D01*
X62126921Y-59026830D01*
X62139218Y-59047347D01*
X62149446Y-59068971D01*
X62157504Y-59091493D01*
X62163316Y-59114697D01*
X62166826Y-59138358D01*
X62168000Y-59162250D01*
X62168000Y-59649750D01*
X62166826Y-59673642D01*
X62163316Y-59697303D01*
X62157504Y-59720507D01*
X62149446Y-59743029D01*
X62139218Y-59764653D01*
X62126921Y-59785170D01*
X62112671Y-59804383D01*
X62096607Y-59822107D01*
X62078883Y-59838171D01*
X62059670Y-59852421D01*
X62039153Y-59864718D01*
X62017529Y-59874946D01*
X61995007Y-59883004D01*
X61971803Y-59888816D01*
X61948142Y-59892326D01*
X61924250Y-59893500D01*
X61011750Y-59893500D01*
X60987858Y-59892326D01*
X60964197Y-59888816D01*
X60940993Y-59883004D01*
X60918471Y-59874946D01*
X60896847Y-59864718D01*
X60876330Y-59852421D01*
X60857117Y-59838171D01*
X60839393Y-59822107D01*
X60823329Y-59804383D01*
X60809079Y-59785170D01*
X60796782Y-59764653D01*
X60786554Y-59743029D01*
X60778496Y-59720507D01*
X60772684Y-59697303D01*
X60769174Y-59673642D01*
X60768000Y-59649750D01*
X60768000Y-59162250D01*
X60769174Y-59138358D01*
X60772684Y-59114697D01*
X60778496Y-59091493D01*
X60786554Y-59068971D01*
X60796782Y-59047347D01*
X60809079Y-59026830D01*
X60823329Y-59007617D01*
X60839393Y-58989893D01*
X60857117Y-58973829D01*
X60876330Y-58959579D01*
X60896847Y-58947282D01*
X60918471Y-58937054D01*
X60940993Y-58928996D01*
X60964197Y-58923184D01*
X60987858Y-58919674D01*
X61011750Y-58918500D01*
X61924250Y-58918500D01*
X61948142Y-58919674D01*
X61948142Y-58919674D01*
G37*
D14*
X61468000Y-59406000D03*
D11*
G36*
X61948142Y-57044674D02*
G01*
X61971803Y-57048184D01*
X61995007Y-57053996D01*
X62017529Y-57062054D01*
X62039153Y-57072282D01*
X62059670Y-57084579D01*
X62078883Y-57098829D01*
X62096607Y-57114893D01*
X62112671Y-57132617D01*
X62126921Y-57151830D01*
X62139218Y-57172347D01*
X62149446Y-57193971D01*
X62157504Y-57216493D01*
X62163316Y-57239697D01*
X62166826Y-57263358D01*
X62168000Y-57287250D01*
X62168000Y-57774750D01*
X62166826Y-57798642D01*
X62163316Y-57822303D01*
X62157504Y-57845507D01*
X62149446Y-57868029D01*
X62139218Y-57889653D01*
X62126921Y-57910170D01*
X62112671Y-57929383D01*
X62096607Y-57947107D01*
X62078883Y-57963171D01*
X62059670Y-57977421D01*
X62039153Y-57989718D01*
X62017529Y-57999946D01*
X61995007Y-58008004D01*
X61971803Y-58013816D01*
X61948142Y-58017326D01*
X61924250Y-58018500D01*
X61011750Y-58018500D01*
X60987858Y-58017326D01*
X60964197Y-58013816D01*
X60940993Y-58008004D01*
X60918471Y-57999946D01*
X60896847Y-57989718D01*
X60876330Y-57977421D01*
X60857117Y-57963171D01*
X60839393Y-57947107D01*
X60823329Y-57929383D01*
X60809079Y-57910170D01*
X60796782Y-57889653D01*
X60786554Y-57868029D01*
X60778496Y-57845507D01*
X60772684Y-57822303D01*
X60769174Y-57798642D01*
X60768000Y-57774750D01*
X60768000Y-57287250D01*
X60769174Y-57263358D01*
X60772684Y-57239697D01*
X60778496Y-57216493D01*
X60786554Y-57193971D01*
X60796782Y-57172347D01*
X60809079Y-57151830D01*
X60823329Y-57132617D01*
X60839393Y-57114893D01*
X60857117Y-57098829D01*
X60876330Y-57084579D01*
X60896847Y-57072282D01*
X60918471Y-57062054D01*
X60940993Y-57053996D01*
X60964197Y-57048184D01*
X60987858Y-57044674D01*
X61011750Y-57043500D01*
X61924250Y-57043500D01*
X61948142Y-57044674D01*
X61948142Y-57044674D01*
G37*
D14*
X61468000Y-57531000D03*
D11*
G36*
X71578142Y-61181924D02*
G01*
X71601803Y-61185434D01*
X71625007Y-61191246D01*
X71647529Y-61199304D01*
X71669153Y-61209532D01*
X71689670Y-61221829D01*
X71708883Y-61236079D01*
X71726607Y-61252143D01*
X71742671Y-61269867D01*
X71756921Y-61289080D01*
X71769218Y-61309597D01*
X71779446Y-61331221D01*
X71787504Y-61353743D01*
X71793316Y-61376947D01*
X71796826Y-61400608D01*
X71798000Y-61424500D01*
X71798000Y-62337000D01*
X71796826Y-62360892D01*
X71793316Y-62384553D01*
X71787504Y-62407757D01*
X71779446Y-62430279D01*
X71769218Y-62451903D01*
X71756921Y-62472420D01*
X71742671Y-62491633D01*
X71726607Y-62509357D01*
X71708883Y-62525421D01*
X71689670Y-62539671D01*
X71669153Y-62551968D01*
X71647529Y-62562196D01*
X71625007Y-62570254D01*
X71601803Y-62576066D01*
X71578142Y-62579576D01*
X71554250Y-62580750D01*
X71066750Y-62580750D01*
X71042858Y-62579576D01*
X71019197Y-62576066D01*
X70995993Y-62570254D01*
X70973471Y-62562196D01*
X70951847Y-62551968D01*
X70931330Y-62539671D01*
X70912117Y-62525421D01*
X70894393Y-62509357D01*
X70878329Y-62491633D01*
X70864079Y-62472420D01*
X70851782Y-62451903D01*
X70841554Y-62430279D01*
X70833496Y-62407757D01*
X70827684Y-62384553D01*
X70824174Y-62360892D01*
X70823000Y-62337000D01*
X70823000Y-61424500D01*
X70824174Y-61400608D01*
X70827684Y-61376947D01*
X70833496Y-61353743D01*
X70841554Y-61331221D01*
X70851782Y-61309597D01*
X70864079Y-61289080D01*
X70878329Y-61269867D01*
X70894393Y-61252143D01*
X70912117Y-61236079D01*
X70931330Y-61221829D01*
X70951847Y-61209532D01*
X70973471Y-61199304D01*
X70995993Y-61191246D01*
X71019197Y-61185434D01*
X71042858Y-61181924D01*
X71066750Y-61180750D01*
X71554250Y-61180750D01*
X71578142Y-61181924D01*
X71578142Y-61181924D01*
G37*
D14*
X71310500Y-61880750D03*
D11*
G36*
X73453142Y-61181924D02*
G01*
X73476803Y-61185434D01*
X73500007Y-61191246D01*
X73522529Y-61199304D01*
X73544153Y-61209532D01*
X73564670Y-61221829D01*
X73583883Y-61236079D01*
X73601607Y-61252143D01*
X73617671Y-61269867D01*
X73631921Y-61289080D01*
X73644218Y-61309597D01*
X73654446Y-61331221D01*
X73662504Y-61353743D01*
X73668316Y-61376947D01*
X73671826Y-61400608D01*
X73673000Y-61424500D01*
X73673000Y-62337000D01*
X73671826Y-62360892D01*
X73668316Y-62384553D01*
X73662504Y-62407757D01*
X73654446Y-62430279D01*
X73644218Y-62451903D01*
X73631921Y-62472420D01*
X73617671Y-62491633D01*
X73601607Y-62509357D01*
X73583883Y-62525421D01*
X73564670Y-62539671D01*
X73544153Y-62551968D01*
X73522529Y-62562196D01*
X73500007Y-62570254D01*
X73476803Y-62576066D01*
X73453142Y-62579576D01*
X73429250Y-62580750D01*
X72941750Y-62580750D01*
X72917858Y-62579576D01*
X72894197Y-62576066D01*
X72870993Y-62570254D01*
X72848471Y-62562196D01*
X72826847Y-62551968D01*
X72806330Y-62539671D01*
X72787117Y-62525421D01*
X72769393Y-62509357D01*
X72753329Y-62491633D01*
X72739079Y-62472420D01*
X72726782Y-62451903D01*
X72716554Y-62430279D01*
X72708496Y-62407757D01*
X72702684Y-62384553D01*
X72699174Y-62360892D01*
X72698000Y-62337000D01*
X72698000Y-61424500D01*
X72699174Y-61400608D01*
X72702684Y-61376947D01*
X72708496Y-61353743D01*
X72716554Y-61331221D01*
X72726782Y-61309597D01*
X72739079Y-61289080D01*
X72753329Y-61269867D01*
X72769393Y-61252143D01*
X72787117Y-61236079D01*
X72806330Y-61221829D01*
X72826847Y-61209532D01*
X72848471Y-61199304D01*
X72870993Y-61191246D01*
X72894197Y-61185434D01*
X72917858Y-61181924D01*
X72941750Y-61180750D01*
X73429250Y-61180750D01*
X73453142Y-61181924D01*
X73453142Y-61181924D01*
G37*
D14*
X73185500Y-61880750D03*
D11*
G36*
X71656642Y-63213924D02*
G01*
X71680303Y-63217434D01*
X71703507Y-63223246D01*
X71726029Y-63231304D01*
X71747653Y-63241532D01*
X71768170Y-63253829D01*
X71787383Y-63268079D01*
X71805107Y-63284143D01*
X71821171Y-63301867D01*
X71835421Y-63321080D01*
X71847718Y-63341597D01*
X71857946Y-63363221D01*
X71866004Y-63385743D01*
X71871816Y-63408947D01*
X71875326Y-63432608D01*
X71876500Y-63456500D01*
X71876500Y-64369000D01*
X71875326Y-64392892D01*
X71871816Y-64416553D01*
X71866004Y-64439757D01*
X71857946Y-64462279D01*
X71847718Y-64483903D01*
X71835421Y-64504420D01*
X71821171Y-64523633D01*
X71805107Y-64541357D01*
X71787383Y-64557421D01*
X71768170Y-64571671D01*
X71747653Y-64583968D01*
X71726029Y-64594196D01*
X71703507Y-64602254D01*
X71680303Y-64608066D01*
X71656642Y-64611576D01*
X71632750Y-64612750D01*
X71145250Y-64612750D01*
X71121358Y-64611576D01*
X71097697Y-64608066D01*
X71074493Y-64602254D01*
X71051971Y-64594196D01*
X71030347Y-64583968D01*
X71009830Y-64571671D01*
X70990617Y-64557421D01*
X70972893Y-64541357D01*
X70956829Y-64523633D01*
X70942579Y-64504420D01*
X70930282Y-64483903D01*
X70920054Y-64462279D01*
X70911996Y-64439757D01*
X70906184Y-64416553D01*
X70902674Y-64392892D01*
X70901500Y-64369000D01*
X70901500Y-63456500D01*
X70902674Y-63432608D01*
X70906184Y-63408947D01*
X70911996Y-63385743D01*
X70920054Y-63363221D01*
X70930282Y-63341597D01*
X70942579Y-63321080D01*
X70956829Y-63301867D01*
X70972893Y-63284143D01*
X70990617Y-63268079D01*
X71009830Y-63253829D01*
X71030347Y-63241532D01*
X71051971Y-63231304D01*
X71074493Y-63223246D01*
X71097697Y-63217434D01*
X71121358Y-63213924D01*
X71145250Y-63212750D01*
X71632750Y-63212750D01*
X71656642Y-63213924D01*
X71656642Y-63213924D01*
G37*
D14*
X71389000Y-63912750D03*
D11*
G36*
X73531642Y-63213924D02*
G01*
X73555303Y-63217434D01*
X73578507Y-63223246D01*
X73601029Y-63231304D01*
X73622653Y-63241532D01*
X73643170Y-63253829D01*
X73662383Y-63268079D01*
X73680107Y-63284143D01*
X73696171Y-63301867D01*
X73710421Y-63321080D01*
X73722718Y-63341597D01*
X73732946Y-63363221D01*
X73741004Y-63385743D01*
X73746816Y-63408947D01*
X73750326Y-63432608D01*
X73751500Y-63456500D01*
X73751500Y-64369000D01*
X73750326Y-64392892D01*
X73746816Y-64416553D01*
X73741004Y-64439757D01*
X73732946Y-64462279D01*
X73722718Y-64483903D01*
X73710421Y-64504420D01*
X73696171Y-64523633D01*
X73680107Y-64541357D01*
X73662383Y-64557421D01*
X73643170Y-64571671D01*
X73622653Y-64583968D01*
X73601029Y-64594196D01*
X73578507Y-64602254D01*
X73555303Y-64608066D01*
X73531642Y-64611576D01*
X73507750Y-64612750D01*
X73020250Y-64612750D01*
X72996358Y-64611576D01*
X72972697Y-64608066D01*
X72949493Y-64602254D01*
X72926971Y-64594196D01*
X72905347Y-64583968D01*
X72884830Y-64571671D01*
X72865617Y-64557421D01*
X72847893Y-64541357D01*
X72831829Y-64523633D01*
X72817579Y-64504420D01*
X72805282Y-64483903D01*
X72795054Y-64462279D01*
X72786996Y-64439757D01*
X72781184Y-64416553D01*
X72777674Y-64392892D01*
X72776500Y-64369000D01*
X72776500Y-63456500D01*
X72777674Y-63432608D01*
X72781184Y-63408947D01*
X72786996Y-63385743D01*
X72795054Y-63363221D01*
X72805282Y-63341597D01*
X72817579Y-63321080D01*
X72831829Y-63301867D01*
X72847893Y-63284143D01*
X72865617Y-63268079D01*
X72884830Y-63253829D01*
X72905347Y-63241532D01*
X72926971Y-63231304D01*
X72949493Y-63223246D01*
X72972697Y-63217434D01*
X72996358Y-63213924D01*
X73020250Y-63212750D01*
X73507750Y-63212750D01*
X73531642Y-63213924D01*
X73531642Y-63213924D01*
G37*
D14*
X73264000Y-63912750D03*
D11*
G36*
X65067642Y-62547174D02*
G01*
X65091303Y-62550684D01*
X65114507Y-62556496D01*
X65137029Y-62564554D01*
X65158653Y-62574782D01*
X65179170Y-62587079D01*
X65198383Y-62601329D01*
X65216107Y-62617393D01*
X65232171Y-62635117D01*
X65246421Y-62654330D01*
X65258718Y-62674847D01*
X65268946Y-62696471D01*
X65277004Y-62718993D01*
X65282816Y-62742197D01*
X65286326Y-62765858D01*
X65287500Y-62789750D01*
X65287500Y-63702250D01*
X65286326Y-63726142D01*
X65282816Y-63749803D01*
X65277004Y-63773007D01*
X65268946Y-63795529D01*
X65258718Y-63817153D01*
X65246421Y-63837670D01*
X65232171Y-63856883D01*
X65216107Y-63874607D01*
X65198383Y-63890671D01*
X65179170Y-63904921D01*
X65158653Y-63917218D01*
X65137029Y-63927446D01*
X65114507Y-63935504D01*
X65091303Y-63941316D01*
X65067642Y-63944826D01*
X65043750Y-63946000D01*
X64556250Y-63946000D01*
X64532358Y-63944826D01*
X64508697Y-63941316D01*
X64485493Y-63935504D01*
X64462971Y-63927446D01*
X64441347Y-63917218D01*
X64420830Y-63904921D01*
X64401617Y-63890671D01*
X64383893Y-63874607D01*
X64367829Y-63856883D01*
X64353579Y-63837670D01*
X64341282Y-63817153D01*
X64331054Y-63795529D01*
X64322996Y-63773007D01*
X64317184Y-63749803D01*
X64313674Y-63726142D01*
X64312500Y-63702250D01*
X64312500Y-62789750D01*
X64313674Y-62765858D01*
X64317184Y-62742197D01*
X64322996Y-62718993D01*
X64331054Y-62696471D01*
X64341282Y-62674847D01*
X64353579Y-62654330D01*
X64367829Y-62635117D01*
X64383893Y-62617393D01*
X64401617Y-62601329D01*
X64420830Y-62587079D01*
X64441347Y-62574782D01*
X64462971Y-62564554D01*
X64485493Y-62556496D01*
X64508697Y-62550684D01*
X64532358Y-62547174D01*
X64556250Y-62546000D01*
X65043750Y-62546000D01*
X65067642Y-62547174D01*
X65067642Y-62547174D01*
G37*
D14*
X64800000Y-63246000D03*
D11*
G36*
X66942642Y-62547174D02*
G01*
X66966303Y-62550684D01*
X66989507Y-62556496D01*
X67012029Y-62564554D01*
X67033653Y-62574782D01*
X67054170Y-62587079D01*
X67073383Y-62601329D01*
X67091107Y-62617393D01*
X67107171Y-62635117D01*
X67121421Y-62654330D01*
X67133718Y-62674847D01*
X67143946Y-62696471D01*
X67152004Y-62718993D01*
X67157816Y-62742197D01*
X67161326Y-62765858D01*
X67162500Y-62789750D01*
X67162500Y-63702250D01*
X67161326Y-63726142D01*
X67157816Y-63749803D01*
X67152004Y-63773007D01*
X67143946Y-63795529D01*
X67133718Y-63817153D01*
X67121421Y-63837670D01*
X67107171Y-63856883D01*
X67091107Y-63874607D01*
X67073383Y-63890671D01*
X67054170Y-63904921D01*
X67033653Y-63917218D01*
X67012029Y-63927446D01*
X66989507Y-63935504D01*
X66966303Y-63941316D01*
X66942642Y-63944826D01*
X66918750Y-63946000D01*
X66431250Y-63946000D01*
X66407358Y-63944826D01*
X66383697Y-63941316D01*
X66360493Y-63935504D01*
X66337971Y-63927446D01*
X66316347Y-63917218D01*
X66295830Y-63904921D01*
X66276617Y-63890671D01*
X66258893Y-63874607D01*
X66242829Y-63856883D01*
X66228579Y-63837670D01*
X66216282Y-63817153D01*
X66206054Y-63795529D01*
X66197996Y-63773007D01*
X66192184Y-63749803D01*
X66188674Y-63726142D01*
X66187500Y-63702250D01*
X66187500Y-62789750D01*
X66188674Y-62765858D01*
X66192184Y-62742197D01*
X66197996Y-62718993D01*
X66206054Y-62696471D01*
X66216282Y-62674847D01*
X66228579Y-62654330D01*
X66242829Y-62635117D01*
X66258893Y-62617393D01*
X66276617Y-62601329D01*
X66295830Y-62587079D01*
X66316347Y-62574782D01*
X66337971Y-62564554D01*
X66360493Y-62556496D01*
X66383697Y-62550684D01*
X66407358Y-62547174D01*
X66431250Y-62546000D01*
X66918750Y-62546000D01*
X66942642Y-62547174D01*
X66942642Y-62547174D01*
G37*
D14*
X66675000Y-63246000D03*
M02*
