G04 #@! TF.GenerationSoftware,KiCad,Pcbnew,(5.1.4)-1*
G04 #@! TF.CreationDate,2020-12-19T20:41:21+02:00*
G04 #@! TF.ProjectId,100_keyboard,3130305f-6b65-4796-926f-6172642e6b69,rev?*
G04 #@! TF.SameCoordinates,Original*
G04 #@! TF.FileFunction,Paste,Top*
G04 #@! TF.FilePolarity,Positive*
%FSLAX46Y46*%
G04 Gerber Fmt 4.6, Leading zero omitted, Abs format (unit mm)*
G04 Created by KiCad (PCBNEW (5.1.4)-1) date 2020-12-19 20:41:21*
%MOMM*%
%LPD*%
G04 APERTURE LIST*
%ADD10C,0.100000*%
%ADD11C,0.975000*%
%ADD12R,0.900000X1.200000*%
%ADD13R,1.200000X0.900000*%
%ADD14C,1.250000*%
%ADD15C,1.350000*%
%ADD16R,1.100000X1.800000*%
%ADD17R,0.650000X1.060000*%
%ADD18C,0.300000*%
%ADD19R,0.500000X2.250000*%
G04 APERTURE END LIST*
D10*
G36*
X119392642Y-115801174D02*
G01*
X119416303Y-115804684D01*
X119439507Y-115810496D01*
X119462029Y-115818554D01*
X119483653Y-115828782D01*
X119504170Y-115841079D01*
X119523383Y-115855329D01*
X119541107Y-115871393D01*
X119557171Y-115889117D01*
X119571421Y-115908330D01*
X119583718Y-115928847D01*
X119593946Y-115950471D01*
X119602004Y-115972993D01*
X119607816Y-115996197D01*
X119611326Y-116019858D01*
X119612500Y-116043750D01*
X119612500Y-116956250D01*
X119611326Y-116980142D01*
X119607816Y-117003803D01*
X119602004Y-117027007D01*
X119593946Y-117049529D01*
X119583718Y-117071153D01*
X119571421Y-117091670D01*
X119557171Y-117110883D01*
X119541107Y-117128607D01*
X119523383Y-117144671D01*
X119504170Y-117158921D01*
X119483653Y-117171218D01*
X119462029Y-117181446D01*
X119439507Y-117189504D01*
X119416303Y-117195316D01*
X119392642Y-117198826D01*
X119368750Y-117200000D01*
X118881250Y-117200000D01*
X118857358Y-117198826D01*
X118833697Y-117195316D01*
X118810493Y-117189504D01*
X118787971Y-117181446D01*
X118766347Y-117171218D01*
X118745830Y-117158921D01*
X118726617Y-117144671D01*
X118708893Y-117128607D01*
X118692829Y-117110883D01*
X118678579Y-117091670D01*
X118666282Y-117071153D01*
X118656054Y-117049529D01*
X118647996Y-117027007D01*
X118642184Y-117003803D01*
X118638674Y-116980142D01*
X118637500Y-116956250D01*
X118637500Y-116043750D01*
X118638674Y-116019858D01*
X118642184Y-115996197D01*
X118647996Y-115972993D01*
X118656054Y-115950471D01*
X118666282Y-115928847D01*
X118678579Y-115908330D01*
X118692829Y-115889117D01*
X118708893Y-115871393D01*
X118726617Y-115855329D01*
X118745830Y-115841079D01*
X118766347Y-115828782D01*
X118787971Y-115818554D01*
X118810493Y-115810496D01*
X118833697Y-115804684D01*
X118857358Y-115801174D01*
X118881250Y-115800000D01*
X119368750Y-115800000D01*
X119392642Y-115801174D01*
X119392642Y-115801174D01*
G37*
D11*
X119125000Y-116500000D03*
D10*
G36*
X121267642Y-115801174D02*
G01*
X121291303Y-115804684D01*
X121314507Y-115810496D01*
X121337029Y-115818554D01*
X121358653Y-115828782D01*
X121379170Y-115841079D01*
X121398383Y-115855329D01*
X121416107Y-115871393D01*
X121432171Y-115889117D01*
X121446421Y-115908330D01*
X121458718Y-115928847D01*
X121468946Y-115950471D01*
X121477004Y-115972993D01*
X121482816Y-115996197D01*
X121486326Y-116019858D01*
X121487500Y-116043750D01*
X121487500Y-116956250D01*
X121486326Y-116980142D01*
X121482816Y-117003803D01*
X121477004Y-117027007D01*
X121468946Y-117049529D01*
X121458718Y-117071153D01*
X121446421Y-117091670D01*
X121432171Y-117110883D01*
X121416107Y-117128607D01*
X121398383Y-117144671D01*
X121379170Y-117158921D01*
X121358653Y-117171218D01*
X121337029Y-117181446D01*
X121314507Y-117189504D01*
X121291303Y-117195316D01*
X121267642Y-117198826D01*
X121243750Y-117200000D01*
X120756250Y-117200000D01*
X120732358Y-117198826D01*
X120708697Y-117195316D01*
X120685493Y-117189504D01*
X120662971Y-117181446D01*
X120641347Y-117171218D01*
X120620830Y-117158921D01*
X120601617Y-117144671D01*
X120583893Y-117128607D01*
X120567829Y-117110883D01*
X120553579Y-117091670D01*
X120541282Y-117071153D01*
X120531054Y-117049529D01*
X120522996Y-117027007D01*
X120517184Y-117003803D01*
X120513674Y-116980142D01*
X120512500Y-116956250D01*
X120512500Y-116043750D01*
X120513674Y-116019858D01*
X120517184Y-115996197D01*
X120522996Y-115972993D01*
X120531054Y-115950471D01*
X120541282Y-115928847D01*
X120553579Y-115908330D01*
X120567829Y-115889117D01*
X120583893Y-115871393D01*
X120601617Y-115855329D01*
X120620830Y-115841079D01*
X120641347Y-115828782D01*
X120662971Y-115818554D01*
X120685493Y-115810496D01*
X120708697Y-115804684D01*
X120732358Y-115801174D01*
X120756250Y-115800000D01*
X121243750Y-115800000D01*
X121267642Y-115801174D01*
X121267642Y-115801174D01*
G37*
D11*
X121000000Y-116500000D03*
D10*
G36*
X142392642Y-103301174D02*
G01*
X142416303Y-103304684D01*
X142439507Y-103310496D01*
X142462029Y-103318554D01*
X142483653Y-103328782D01*
X142504170Y-103341079D01*
X142523383Y-103355329D01*
X142541107Y-103371393D01*
X142557171Y-103389117D01*
X142571421Y-103408330D01*
X142583718Y-103428847D01*
X142593946Y-103450471D01*
X142602004Y-103472993D01*
X142607816Y-103496197D01*
X142611326Y-103519858D01*
X142612500Y-103543750D01*
X142612500Y-104456250D01*
X142611326Y-104480142D01*
X142607816Y-104503803D01*
X142602004Y-104527007D01*
X142593946Y-104549529D01*
X142583718Y-104571153D01*
X142571421Y-104591670D01*
X142557171Y-104610883D01*
X142541107Y-104628607D01*
X142523383Y-104644671D01*
X142504170Y-104658921D01*
X142483653Y-104671218D01*
X142462029Y-104681446D01*
X142439507Y-104689504D01*
X142416303Y-104695316D01*
X142392642Y-104698826D01*
X142368750Y-104700000D01*
X141881250Y-104700000D01*
X141857358Y-104698826D01*
X141833697Y-104695316D01*
X141810493Y-104689504D01*
X141787971Y-104681446D01*
X141766347Y-104671218D01*
X141745830Y-104658921D01*
X141726617Y-104644671D01*
X141708893Y-104628607D01*
X141692829Y-104610883D01*
X141678579Y-104591670D01*
X141666282Y-104571153D01*
X141656054Y-104549529D01*
X141647996Y-104527007D01*
X141642184Y-104503803D01*
X141638674Y-104480142D01*
X141637500Y-104456250D01*
X141637500Y-103543750D01*
X141638674Y-103519858D01*
X141642184Y-103496197D01*
X141647996Y-103472993D01*
X141656054Y-103450471D01*
X141666282Y-103428847D01*
X141678579Y-103408330D01*
X141692829Y-103389117D01*
X141708893Y-103371393D01*
X141726617Y-103355329D01*
X141745830Y-103341079D01*
X141766347Y-103328782D01*
X141787971Y-103318554D01*
X141810493Y-103310496D01*
X141833697Y-103304684D01*
X141857358Y-103301174D01*
X141881250Y-103300000D01*
X142368750Y-103300000D01*
X142392642Y-103301174D01*
X142392642Y-103301174D01*
G37*
D11*
X142125000Y-104000000D03*
D10*
G36*
X144267642Y-103301174D02*
G01*
X144291303Y-103304684D01*
X144314507Y-103310496D01*
X144337029Y-103318554D01*
X144358653Y-103328782D01*
X144379170Y-103341079D01*
X144398383Y-103355329D01*
X144416107Y-103371393D01*
X144432171Y-103389117D01*
X144446421Y-103408330D01*
X144458718Y-103428847D01*
X144468946Y-103450471D01*
X144477004Y-103472993D01*
X144482816Y-103496197D01*
X144486326Y-103519858D01*
X144487500Y-103543750D01*
X144487500Y-104456250D01*
X144486326Y-104480142D01*
X144482816Y-104503803D01*
X144477004Y-104527007D01*
X144468946Y-104549529D01*
X144458718Y-104571153D01*
X144446421Y-104591670D01*
X144432171Y-104610883D01*
X144416107Y-104628607D01*
X144398383Y-104644671D01*
X144379170Y-104658921D01*
X144358653Y-104671218D01*
X144337029Y-104681446D01*
X144314507Y-104689504D01*
X144291303Y-104695316D01*
X144267642Y-104698826D01*
X144243750Y-104700000D01*
X143756250Y-104700000D01*
X143732358Y-104698826D01*
X143708697Y-104695316D01*
X143685493Y-104689504D01*
X143662971Y-104681446D01*
X143641347Y-104671218D01*
X143620830Y-104658921D01*
X143601617Y-104644671D01*
X143583893Y-104628607D01*
X143567829Y-104610883D01*
X143553579Y-104591670D01*
X143541282Y-104571153D01*
X143531054Y-104549529D01*
X143522996Y-104527007D01*
X143517184Y-104503803D01*
X143513674Y-104480142D01*
X143512500Y-104456250D01*
X143512500Y-103543750D01*
X143513674Y-103519858D01*
X143517184Y-103496197D01*
X143522996Y-103472993D01*
X143531054Y-103450471D01*
X143541282Y-103428847D01*
X143553579Y-103408330D01*
X143567829Y-103389117D01*
X143583893Y-103371393D01*
X143601617Y-103355329D01*
X143620830Y-103341079D01*
X143641347Y-103328782D01*
X143662971Y-103318554D01*
X143685493Y-103310496D01*
X143708697Y-103304684D01*
X143732358Y-103301174D01*
X143756250Y-103300000D01*
X144243750Y-103300000D01*
X144267642Y-103301174D01*
X144267642Y-103301174D01*
G37*
D11*
X144000000Y-104000000D03*
D10*
G36*
X132480142Y-95513674D02*
G01*
X132503803Y-95517184D01*
X132527007Y-95522996D01*
X132549529Y-95531054D01*
X132571153Y-95541282D01*
X132591670Y-95553579D01*
X132610883Y-95567829D01*
X132628607Y-95583893D01*
X132644671Y-95601617D01*
X132658921Y-95620830D01*
X132671218Y-95641347D01*
X132681446Y-95662971D01*
X132689504Y-95685493D01*
X132695316Y-95708697D01*
X132698826Y-95732358D01*
X132700000Y-95756250D01*
X132700000Y-96243750D01*
X132698826Y-96267642D01*
X132695316Y-96291303D01*
X132689504Y-96314507D01*
X132681446Y-96337029D01*
X132671218Y-96358653D01*
X132658921Y-96379170D01*
X132644671Y-96398383D01*
X132628607Y-96416107D01*
X132610883Y-96432171D01*
X132591670Y-96446421D01*
X132571153Y-96458718D01*
X132549529Y-96468946D01*
X132527007Y-96477004D01*
X132503803Y-96482816D01*
X132480142Y-96486326D01*
X132456250Y-96487500D01*
X131543750Y-96487500D01*
X131519858Y-96486326D01*
X131496197Y-96482816D01*
X131472993Y-96477004D01*
X131450471Y-96468946D01*
X131428847Y-96458718D01*
X131408330Y-96446421D01*
X131389117Y-96432171D01*
X131371393Y-96416107D01*
X131355329Y-96398383D01*
X131341079Y-96379170D01*
X131328782Y-96358653D01*
X131318554Y-96337029D01*
X131310496Y-96314507D01*
X131304684Y-96291303D01*
X131301174Y-96267642D01*
X131300000Y-96243750D01*
X131300000Y-95756250D01*
X131301174Y-95732358D01*
X131304684Y-95708697D01*
X131310496Y-95685493D01*
X131318554Y-95662971D01*
X131328782Y-95641347D01*
X131341079Y-95620830D01*
X131355329Y-95601617D01*
X131371393Y-95583893D01*
X131389117Y-95567829D01*
X131408330Y-95553579D01*
X131428847Y-95541282D01*
X131450471Y-95531054D01*
X131472993Y-95522996D01*
X131496197Y-95517184D01*
X131519858Y-95513674D01*
X131543750Y-95512500D01*
X132456250Y-95512500D01*
X132480142Y-95513674D01*
X132480142Y-95513674D01*
G37*
D11*
X132000000Y-96000000D03*
D10*
G36*
X132480142Y-97388674D02*
G01*
X132503803Y-97392184D01*
X132527007Y-97397996D01*
X132549529Y-97406054D01*
X132571153Y-97416282D01*
X132591670Y-97428579D01*
X132610883Y-97442829D01*
X132628607Y-97458893D01*
X132644671Y-97476617D01*
X132658921Y-97495830D01*
X132671218Y-97516347D01*
X132681446Y-97537971D01*
X132689504Y-97560493D01*
X132695316Y-97583697D01*
X132698826Y-97607358D01*
X132700000Y-97631250D01*
X132700000Y-98118750D01*
X132698826Y-98142642D01*
X132695316Y-98166303D01*
X132689504Y-98189507D01*
X132681446Y-98212029D01*
X132671218Y-98233653D01*
X132658921Y-98254170D01*
X132644671Y-98273383D01*
X132628607Y-98291107D01*
X132610883Y-98307171D01*
X132591670Y-98321421D01*
X132571153Y-98333718D01*
X132549529Y-98343946D01*
X132527007Y-98352004D01*
X132503803Y-98357816D01*
X132480142Y-98361326D01*
X132456250Y-98362500D01*
X131543750Y-98362500D01*
X131519858Y-98361326D01*
X131496197Y-98357816D01*
X131472993Y-98352004D01*
X131450471Y-98343946D01*
X131428847Y-98333718D01*
X131408330Y-98321421D01*
X131389117Y-98307171D01*
X131371393Y-98291107D01*
X131355329Y-98273383D01*
X131341079Y-98254170D01*
X131328782Y-98233653D01*
X131318554Y-98212029D01*
X131310496Y-98189507D01*
X131304684Y-98166303D01*
X131301174Y-98142642D01*
X131300000Y-98118750D01*
X131300000Y-97631250D01*
X131301174Y-97607358D01*
X131304684Y-97583697D01*
X131310496Y-97560493D01*
X131318554Y-97537971D01*
X131328782Y-97516347D01*
X131341079Y-97495830D01*
X131355329Y-97476617D01*
X131371393Y-97458893D01*
X131389117Y-97442829D01*
X131408330Y-97428579D01*
X131428847Y-97416282D01*
X131450471Y-97406054D01*
X131472993Y-97397996D01*
X131496197Y-97392184D01*
X131519858Y-97388674D01*
X131543750Y-97387500D01*
X132456250Y-97387500D01*
X132480142Y-97388674D01*
X132480142Y-97388674D01*
G37*
D11*
X132000000Y-97875000D03*
D10*
G36*
X142392642Y-105301174D02*
G01*
X142416303Y-105304684D01*
X142439507Y-105310496D01*
X142462029Y-105318554D01*
X142483653Y-105328782D01*
X142504170Y-105341079D01*
X142523383Y-105355329D01*
X142541107Y-105371393D01*
X142557171Y-105389117D01*
X142571421Y-105408330D01*
X142583718Y-105428847D01*
X142593946Y-105450471D01*
X142602004Y-105472993D01*
X142607816Y-105496197D01*
X142611326Y-105519858D01*
X142612500Y-105543750D01*
X142612500Y-106456250D01*
X142611326Y-106480142D01*
X142607816Y-106503803D01*
X142602004Y-106527007D01*
X142593946Y-106549529D01*
X142583718Y-106571153D01*
X142571421Y-106591670D01*
X142557171Y-106610883D01*
X142541107Y-106628607D01*
X142523383Y-106644671D01*
X142504170Y-106658921D01*
X142483653Y-106671218D01*
X142462029Y-106681446D01*
X142439507Y-106689504D01*
X142416303Y-106695316D01*
X142392642Y-106698826D01*
X142368750Y-106700000D01*
X141881250Y-106700000D01*
X141857358Y-106698826D01*
X141833697Y-106695316D01*
X141810493Y-106689504D01*
X141787971Y-106681446D01*
X141766347Y-106671218D01*
X141745830Y-106658921D01*
X141726617Y-106644671D01*
X141708893Y-106628607D01*
X141692829Y-106610883D01*
X141678579Y-106591670D01*
X141666282Y-106571153D01*
X141656054Y-106549529D01*
X141647996Y-106527007D01*
X141642184Y-106503803D01*
X141638674Y-106480142D01*
X141637500Y-106456250D01*
X141637500Y-105543750D01*
X141638674Y-105519858D01*
X141642184Y-105496197D01*
X141647996Y-105472993D01*
X141656054Y-105450471D01*
X141666282Y-105428847D01*
X141678579Y-105408330D01*
X141692829Y-105389117D01*
X141708893Y-105371393D01*
X141726617Y-105355329D01*
X141745830Y-105341079D01*
X141766347Y-105328782D01*
X141787971Y-105318554D01*
X141810493Y-105310496D01*
X141833697Y-105304684D01*
X141857358Y-105301174D01*
X141881250Y-105300000D01*
X142368750Y-105300000D01*
X142392642Y-105301174D01*
X142392642Y-105301174D01*
G37*
D11*
X142125000Y-106000000D03*
D10*
G36*
X144267642Y-105301174D02*
G01*
X144291303Y-105304684D01*
X144314507Y-105310496D01*
X144337029Y-105318554D01*
X144358653Y-105328782D01*
X144379170Y-105341079D01*
X144398383Y-105355329D01*
X144416107Y-105371393D01*
X144432171Y-105389117D01*
X144446421Y-105408330D01*
X144458718Y-105428847D01*
X144468946Y-105450471D01*
X144477004Y-105472993D01*
X144482816Y-105496197D01*
X144486326Y-105519858D01*
X144487500Y-105543750D01*
X144487500Y-106456250D01*
X144486326Y-106480142D01*
X144482816Y-106503803D01*
X144477004Y-106527007D01*
X144468946Y-106549529D01*
X144458718Y-106571153D01*
X144446421Y-106591670D01*
X144432171Y-106610883D01*
X144416107Y-106628607D01*
X144398383Y-106644671D01*
X144379170Y-106658921D01*
X144358653Y-106671218D01*
X144337029Y-106681446D01*
X144314507Y-106689504D01*
X144291303Y-106695316D01*
X144267642Y-106698826D01*
X144243750Y-106700000D01*
X143756250Y-106700000D01*
X143732358Y-106698826D01*
X143708697Y-106695316D01*
X143685493Y-106689504D01*
X143662971Y-106681446D01*
X143641347Y-106671218D01*
X143620830Y-106658921D01*
X143601617Y-106644671D01*
X143583893Y-106628607D01*
X143567829Y-106610883D01*
X143553579Y-106591670D01*
X143541282Y-106571153D01*
X143531054Y-106549529D01*
X143522996Y-106527007D01*
X143517184Y-106503803D01*
X143513674Y-106480142D01*
X143512500Y-106456250D01*
X143512500Y-105543750D01*
X143513674Y-105519858D01*
X143517184Y-105496197D01*
X143522996Y-105472993D01*
X143531054Y-105450471D01*
X143541282Y-105428847D01*
X143553579Y-105408330D01*
X143567829Y-105389117D01*
X143583893Y-105371393D01*
X143601617Y-105355329D01*
X143620830Y-105341079D01*
X143641347Y-105328782D01*
X143662971Y-105318554D01*
X143685493Y-105310496D01*
X143708697Y-105304684D01*
X143732358Y-105301174D01*
X143756250Y-105300000D01*
X144243750Y-105300000D01*
X144267642Y-105301174D01*
X144267642Y-105301174D01*
G37*
D11*
X144000000Y-106000000D03*
D10*
G36*
X144267642Y-107301174D02*
G01*
X144291303Y-107304684D01*
X144314507Y-107310496D01*
X144337029Y-107318554D01*
X144358653Y-107328782D01*
X144379170Y-107341079D01*
X144398383Y-107355329D01*
X144416107Y-107371393D01*
X144432171Y-107389117D01*
X144446421Y-107408330D01*
X144458718Y-107428847D01*
X144468946Y-107450471D01*
X144477004Y-107472993D01*
X144482816Y-107496197D01*
X144486326Y-107519858D01*
X144487500Y-107543750D01*
X144487500Y-108456250D01*
X144486326Y-108480142D01*
X144482816Y-108503803D01*
X144477004Y-108527007D01*
X144468946Y-108549529D01*
X144458718Y-108571153D01*
X144446421Y-108591670D01*
X144432171Y-108610883D01*
X144416107Y-108628607D01*
X144398383Y-108644671D01*
X144379170Y-108658921D01*
X144358653Y-108671218D01*
X144337029Y-108681446D01*
X144314507Y-108689504D01*
X144291303Y-108695316D01*
X144267642Y-108698826D01*
X144243750Y-108700000D01*
X143756250Y-108700000D01*
X143732358Y-108698826D01*
X143708697Y-108695316D01*
X143685493Y-108689504D01*
X143662971Y-108681446D01*
X143641347Y-108671218D01*
X143620830Y-108658921D01*
X143601617Y-108644671D01*
X143583893Y-108628607D01*
X143567829Y-108610883D01*
X143553579Y-108591670D01*
X143541282Y-108571153D01*
X143531054Y-108549529D01*
X143522996Y-108527007D01*
X143517184Y-108503803D01*
X143513674Y-108480142D01*
X143512500Y-108456250D01*
X143512500Y-107543750D01*
X143513674Y-107519858D01*
X143517184Y-107496197D01*
X143522996Y-107472993D01*
X143531054Y-107450471D01*
X143541282Y-107428847D01*
X143553579Y-107408330D01*
X143567829Y-107389117D01*
X143583893Y-107371393D01*
X143601617Y-107355329D01*
X143620830Y-107341079D01*
X143641347Y-107328782D01*
X143662971Y-107318554D01*
X143685493Y-107310496D01*
X143708697Y-107304684D01*
X143732358Y-107301174D01*
X143756250Y-107300000D01*
X144243750Y-107300000D01*
X144267642Y-107301174D01*
X144267642Y-107301174D01*
G37*
D11*
X144000000Y-108000000D03*
D10*
G36*
X142392642Y-107301174D02*
G01*
X142416303Y-107304684D01*
X142439507Y-107310496D01*
X142462029Y-107318554D01*
X142483653Y-107328782D01*
X142504170Y-107341079D01*
X142523383Y-107355329D01*
X142541107Y-107371393D01*
X142557171Y-107389117D01*
X142571421Y-107408330D01*
X142583718Y-107428847D01*
X142593946Y-107450471D01*
X142602004Y-107472993D01*
X142607816Y-107496197D01*
X142611326Y-107519858D01*
X142612500Y-107543750D01*
X142612500Y-108456250D01*
X142611326Y-108480142D01*
X142607816Y-108503803D01*
X142602004Y-108527007D01*
X142593946Y-108549529D01*
X142583718Y-108571153D01*
X142571421Y-108591670D01*
X142557171Y-108610883D01*
X142541107Y-108628607D01*
X142523383Y-108644671D01*
X142504170Y-108658921D01*
X142483653Y-108671218D01*
X142462029Y-108681446D01*
X142439507Y-108689504D01*
X142416303Y-108695316D01*
X142392642Y-108698826D01*
X142368750Y-108700000D01*
X141881250Y-108700000D01*
X141857358Y-108698826D01*
X141833697Y-108695316D01*
X141810493Y-108689504D01*
X141787971Y-108681446D01*
X141766347Y-108671218D01*
X141745830Y-108658921D01*
X141726617Y-108644671D01*
X141708893Y-108628607D01*
X141692829Y-108610883D01*
X141678579Y-108591670D01*
X141666282Y-108571153D01*
X141656054Y-108549529D01*
X141647996Y-108527007D01*
X141642184Y-108503803D01*
X141638674Y-108480142D01*
X141637500Y-108456250D01*
X141637500Y-107543750D01*
X141638674Y-107519858D01*
X141642184Y-107496197D01*
X141647996Y-107472993D01*
X141656054Y-107450471D01*
X141666282Y-107428847D01*
X141678579Y-107408330D01*
X141692829Y-107389117D01*
X141708893Y-107371393D01*
X141726617Y-107355329D01*
X141745830Y-107341079D01*
X141766347Y-107328782D01*
X141787971Y-107318554D01*
X141810493Y-107310496D01*
X141833697Y-107304684D01*
X141857358Y-107301174D01*
X141881250Y-107300000D01*
X142368750Y-107300000D01*
X142392642Y-107301174D01*
X142392642Y-107301174D01*
G37*
D11*
X142125000Y-108000000D03*
D10*
G36*
X135142642Y-85819924D02*
G01*
X135166303Y-85823434D01*
X135189507Y-85829246D01*
X135212029Y-85837304D01*
X135233653Y-85847532D01*
X135254170Y-85859829D01*
X135273383Y-85874079D01*
X135291107Y-85890143D01*
X135307171Y-85907867D01*
X135321421Y-85927080D01*
X135333718Y-85947597D01*
X135343946Y-85969221D01*
X135352004Y-85991743D01*
X135357816Y-86014947D01*
X135361326Y-86038608D01*
X135362500Y-86062500D01*
X135362500Y-86975000D01*
X135361326Y-86998892D01*
X135357816Y-87022553D01*
X135352004Y-87045757D01*
X135343946Y-87068279D01*
X135333718Y-87089903D01*
X135321421Y-87110420D01*
X135307171Y-87129633D01*
X135291107Y-87147357D01*
X135273383Y-87163421D01*
X135254170Y-87177671D01*
X135233653Y-87189968D01*
X135212029Y-87200196D01*
X135189507Y-87208254D01*
X135166303Y-87214066D01*
X135142642Y-87217576D01*
X135118750Y-87218750D01*
X134631250Y-87218750D01*
X134607358Y-87217576D01*
X134583697Y-87214066D01*
X134560493Y-87208254D01*
X134537971Y-87200196D01*
X134516347Y-87189968D01*
X134495830Y-87177671D01*
X134476617Y-87163421D01*
X134458893Y-87147357D01*
X134442829Y-87129633D01*
X134428579Y-87110420D01*
X134416282Y-87089903D01*
X134406054Y-87068279D01*
X134397996Y-87045757D01*
X134392184Y-87022553D01*
X134388674Y-86998892D01*
X134387500Y-86975000D01*
X134387500Y-86062500D01*
X134388674Y-86038608D01*
X134392184Y-86014947D01*
X134397996Y-85991743D01*
X134406054Y-85969221D01*
X134416282Y-85947597D01*
X134428579Y-85927080D01*
X134442829Y-85907867D01*
X134458893Y-85890143D01*
X134476617Y-85874079D01*
X134495830Y-85859829D01*
X134516347Y-85847532D01*
X134537971Y-85837304D01*
X134560493Y-85829246D01*
X134583697Y-85823434D01*
X134607358Y-85819924D01*
X134631250Y-85818750D01*
X135118750Y-85818750D01*
X135142642Y-85819924D01*
X135142642Y-85819924D01*
G37*
D11*
X134875000Y-86518750D03*
D10*
G36*
X133267642Y-85819924D02*
G01*
X133291303Y-85823434D01*
X133314507Y-85829246D01*
X133337029Y-85837304D01*
X133358653Y-85847532D01*
X133379170Y-85859829D01*
X133398383Y-85874079D01*
X133416107Y-85890143D01*
X133432171Y-85907867D01*
X133446421Y-85927080D01*
X133458718Y-85947597D01*
X133468946Y-85969221D01*
X133477004Y-85991743D01*
X133482816Y-86014947D01*
X133486326Y-86038608D01*
X133487500Y-86062500D01*
X133487500Y-86975000D01*
X133486326Y-86998892D01*
X133482816Y-87022553D01*
X133477004Y-87045757D01*
X133468946Y-87068279D01*
X133458718Y-87089903D01*
X133446421Y-87110420D01*
X133432171Y-87129633D01*
X133416107Y-87147357D01*
X133398383Y-87163421D01*
X133379170Y-87177671D01*
X133358653Y-87189968D01*
X133337029Y-87200196D01*
X133314507Y-87208254D01*
X133291303Y-87214066D01*
X133267642Y-87217576D01*
X133243750Y-87218750D01*
X132756250Y-87218750D01*
X132732358Y-87217576D01*
X132708697Y-87214066D01*
X132685493Y-87208254D01*
X132662971Y-87200196D01*
X132641347Y-87189968D01*
X132620830Y-87177671D01*
X132601617Y-87163421D01*
X132583893Y-87147357D01*
X132567829Y-87129633D01*
X132553579Y-87110420D01*
X132541282Y-87089903D01*
X132531054Y-87068279D01*
X132522996Y-87045757D01*
X132517184Y-87022553D01*
X132513674Y-86998892D01*
X132512500Y-86975000D01*
X132512500Y-86062500D01*
X132513674Y-86038608D01*
X132517184Y-86014947D01*
X132522996Y-85991743D01*
X132531054Y-85969221D01*
X132541282Y-85947597D01*
X132553579Y-85927080D01*
X132567829Y-85907867D01*
X132583893Y-85890143D01*
X132601617Y-85874079D01*
X132620830Y-85859829D01*
X132641347Y-85847532D01*
X132662971Y-85837304D01*
X132685493Y-85829246D01*
X132708697Y-85823434D01*
X132732358Y-85819924D01*
X132756250Y-85818750D01*
X133243750Y-85818750D01*
X133267642Y-85819924D01*
X133267642Y-85819924D01*
G37*
D11*
X133000000Y-86518750D03*
D10*
G36*
X133267642Y-87782424D02*
G01*
X133291303Y-87785934D01*
X133314507Y-87791746D01*
X133337029Y-87799804D01*
X133358653Y-87810032D01*
X133379170Y-87822329D01*
X133398383Y-87836579D01*
X133416107Y-87852643D01*
X133432171Y-87870367D01*
X133446421Y-87889580D01*
X133458718Y-87910097D01*
X133468946Y-87931721D01*
X133477004Y-87954243D01*
X133482816Y-87977447D01*
X133486326Y-88001108D01*
X133487500Y-88025000D01*
X133487500Y-88937500D01*
X133486326Y-88961392D01*
X133482816Y-88985053D01*
X133477004Y-89008257D01*
X133468946Y-89030779D01*
X133458718Y-89052403D01*
X133446421Y-89072920D01*
X133432171Y-89092133D01*
X133416107Y-89109857D01*
X133398383Y-89125921D01*
X133379170Y-89140171D01*
X133358653Y-89152468D01*
X133337029Y-89162696D01*
X133314507Y-89170754D01*
X133291303Y-89176566D01*
X133267642Y-89180076D01*
X133243750Y-89181250D01*
X132756250Y-89181250D01*
X132732358Y-89180076D01*
X132708697Y-89176566D01*
X132685493Y-89170754D01*
X132662971Y-89162696D01*
X132641347Y-89152468D01*
X132620830Y-89140171D01*
X132601617Y-89125921D01*
X132583893Y-89109857D01*
X132567829Y-89092133D01*
X132553579Y-89072920D01*
X132541282Y-89052403D01*
X132531054Y-89030779D01*
X132522996Y-89008257D01*
X132517184Y-88985053D01*
X132513674Y-88961392D01*
X132512500Y-88937500D01*
X132512500Y-88025000D01*
X132513674Y-88001108D01*
X132517184Y-87977447D01*
X132522996Y-87954243D01*
X132531054Y-87931721D01*
X132541282Y-87910097D01*
X132553579Y-87889580D01*
X132567829Y-87870367D01*
X132583893Y-87852643D01*
X132601617Y-87836579D01*
X132620830Y-87822329D01*
X132641347Y-87810032D01*
X132662971Y-87799804D01*
X132685493Y-87791746D01*
X132708697Y-87785934D01*
X132732358Y-87782424D01*
X132756250Y-87781250D01*
X133243750Y-87781250D01*
X133267642Y-87782424D01*
X133267642Y-87782424D01*
G37*
D11*
X133000000Y-88481250D03*
D10*
G36*
X135142642Y-87782424D02*
G01*
X135166303Y-87785934D01*
X135189507Y-87791746D01*
X135212029Y-87799804D01*
X135233653Y-87810032D01*
X135254170Y-87822329D01*
X135273383Y-87836579D01*
X135291107Y-87852643D01*
X135307171Y-87870367D01*
X135321421Y-87889580D01*
X135333718Y-87910097D01*
X135343946Y-87931721D01*
X135352004Y-87954243D01*
X135357816Y-87977447D01*
X135361326Y-88001108D01*
X135362500Y-88025000D01*
X135362500Y-88937500D01*
X135361326Y-88961392D01*
X135357816Y-88985053D01*
X135352004Y-89008257D01*
X135343946Y-89030779D01*
X135333718Y-89052403D01*
X135321421Y-89072920D01*
X135307171Y-89092133D01*
X135291107Y-89109857D01*
X135273383Y-89125921D01*
X135254170Y-89140171D01*
X135233653Y-89152468D01*
X135212029Y-89162696D01*
X135189507Y-89170754D01*
X135166303Y-89176566D01*
X135142642Y-89180076D01*
X135118750Y-89181250D01*
X134631250Y-89181250D01*
X134607358Y-89180076D01*
X134583697Y-89176566D01*
X134560493Y-89170754D01*
X134537971Y-89162696D01*
X134516347Y-89152468D01*
X134495830Y-89140171D01*
X134476617Y-89125921D01*
X134458893Y-89109857D01*
X134442829Y-89092133D01*
X134428579Y-89072920D01*
X134416282Y-89052403D01*
X134406054Y-89030779D01*
X134397996Y-89008257D01*
X134392184Y-88985053D01*
X134388674Y-88961392D01*
X134387500Y-88937500D01*
X134387500Y-88025000D01*
X134388674Y-88001108D01*
X134392184Y-87977447D01*
X134397996Y-87954243D01*
X134406054Y-87931721D01*
X134416282Y-87910097D01*
X134428579Y-87889580D01*
X134442829Y-87870367D01*
X134458893Y-87852643D01*
X134476617Y-87836579D01*
X134495830Y-87822329D01*
X134516347Y-87810032D01*
X134537971Y-87799804D01*
X134560493Y-87791746D01*
X134583697Y-87785934D01*
X134607358Y-87782424D01*
X134631250Y-87781250D01*
X135118750Y-87781250D01*
X135142642Y-87782424D01*
X135142642Y-87782424D01*
G37*
D11*
X134875000Y-88481250D03*
D12*
X132300000Y-93000000D03*
X129000000Y-93000000D03*
D13*
X132000000Y-103000000D03*
X132000000Y-99700000D03*
D10*
G36*
X130649504Y-85376204D02*
G01*
X130673773Y-85379804D01*
X130697571Y-85385765D01*
X130720671Y-85394030D01*
X130742849Y-85404520D01*
X130763893Y-85417133D01*
X130783598Y-85431747D01*
X130801777Y-85448223D01*
X130818253Y-85466402D01*
X130832867Y-85486107D01*
X130845480Y-85507151D01*
X130855970Y-85529329D01*
X130864235Y-85552429D01*
X130870196Y-85576227D01*
X130873796Y-85600496D01*
X130875000Y-85625000D01*
X130875000Y-86375000D01*
X130873796Y-86399504D01*
X130870196Y-86423773D01*
X130864235Y-86447571D01*
X130855970Y-86470671D01*
X130845480Y-86492849D01*
X130832867Y-86513893D01*
X130818253Y-86533598D01*
X130801777Y-86551777D01*
X130783598Y-86568253D01*
X130763893Y-86582867D01*
X130742849Y-86595480D01*
X130720671Y-86605970D01*
X130697571Y-86614235D01*
X130673773Y-86620196D01*
X130649504Y-86623796D01*
X130625000Y-86625000D01*
X129375000Y-86625000D01*
X129350496Y-86623796D01*
X129326227Y-86620196D01*
X129302429Y-86614235D01*
X129279329Y-86605970D01*
X129257151Y-86595480D01*
X129236107Y-86582867D01*
X129216402Y-86568253D01*
X129198223Y-86551777D01*
X129181747Y-86533598D01*
X129167133Y-86513893D01*
X129154520Y-86492849D01*
X129144030Y-86470671D01*
X129135765Y-86447571D01*
X129129804Y-86423773D01*
X129126204Y-86399504D01*
X129125000Y-86375000D01*
X129125000Y-85625000D01*
X129126204Y-85600496D01*
X129129804Y-85576227D01*
X129135765Y-85552429D01*
X129144030Y-85529329D01*
X129154520Y-85507151D01*
X129167133Y-85486107D01*
X129181747Y-85466402D01*
X129198223Y-85448223D01*
X129216402Y-85431747D01*
X129236107Y-85417133D01*
X129257151Y-85404520D01*
X129279329Y-85394030D01*
X129302429Y-85385765D01*
X129326227Y-85379804D01*
X129350496Y-85376204D01*
X129375000Y-85375000D01*
X130625000Y-85375000D01*
X130649504Y-85376204D01*
X130649504Y-85376204D01*
G37*
D14*
X130000000Y-86000000D03*
D10*
G36*
X130649504Y-88176204D02*
G01*
X130673773Y-88179804D01*
X130697571Y-88185765D01*
X130720671Y-88194030D01*
X130742849Y-88204520D01*
X130763893Y-88217133D01*
X130783598Y-88231747D01*
X130801777Y-88248223D01*
X130818253Y-88266402D01*
X130832867Y-88286107D01*
X130845480Y-88307151D01*
X130855970Y-88329329D01*
X130864235Y-88352429D01*
X130870196Y-88376227D01*
X130873796Y-88400496D01*
X130875000Y-88425000D01*
X130875000Y-89175000D01*
X130873796Y-89199504D01*
X130870196Y-89223773D01*
X130864235Y-89247571D01*
X130855970Y-89270671D01*
X130845480Y-89292849D01*
X130832867Y-89313893D01*
X130818253Y-89333598D01*
X130801777Y-89351777D01*
X130783598Y-89368253D01*
X130763893Y-89382867D01*
X130742849Y-89395480D01*
X130720671Y-89405970D01*
X130697571Y-89414235D01*
X130673773Y-89420196D01*
X130649504Y-89423796D01*
X130625000Y-89425000D01*
X129375000Y-89425000D01*
X129350496Y-89423796D01*
X129326227Y-89420196D01*
X129302429Y-89414235D01*
X129279329Y-89405970D01*
X129257151Y-89395480D01*
X129236107Y-89382867D01*
X129216402Y-89368253D01*
X129198223Y-89351777D01*
X129181747Y-89333598D01*
X129167133Y-89313893D01*
X129154520Y-89292849D01*
X129144030Y-89270671D01*
X129135765Y-89247571D01*
X129129804Y-89223773D01*
X129126204Y-89199504D01*
X129125000Y-89175000D01*
X129125000Y-88425000D01*
X129126204Y-88400496D01*
X129129804Y-88376227D01*
X129135765Y-88352429D01*
X129144030Y-88329329D01*
X129154520Y-88307151D01*
X129167133Y-88286107D01*
X129181747Y-88266402D01*
X129198223Y-88248223D01*
X129216402Y-88231747D01*
X129236107Y-88217133D01*
X129257151Y-88204520D01*
X129279329Y-88194030D01*
X129302429Y-88185765D01*
X129326227Y-88179804D01*
X129350496Y-88176204D01*
X129375000Y-88175000D01*
X130625000Y-88175000D01*
X130649504Y-88176204D01*
X130649504Y-88176204D01*
G37*
D14*
X130000000Y-88800000D03*
D10*
G36*
X143099505Y-94826204D02*
G01*
X143123773Y-94829804D01*
X143147572Y-94835765D01*
X143170671Y-94844030D01*
X143192850Y-94854520D01*
X143213893Y-94867132D01*
X143233599Y-94881747D01*
X143251777Y-94898223D01*
X143268253Y-94916401D01*
X143282868Y-94936107D01*
X143295480Y-94957150D01*
X143305970Y-94979329D01*
X143314235Y-95002428D01*
X143320196Y-95026227D01*
X143323796Y-95050495D01*
X143325000Y-95074999D01*
X143325000Y-95925001D01*
X143323796Y-95949505D01*
X143320196Y-95973773D01*
X143314235Y-95997572D01*
X143305970Y-96020671D01*
X143295480Y-96042850D01*
X143282868Y-96063893D01*
X143268253Y-96083599D01*
X143251777Y-96101777D01*
X143233599Y-96118253D01*
X143213893Y-96132868D01*
X143192850Y-96145480D01*
X143170671Y-96155970D01*
X143147572Y-96164235D01*
X143123773Y-96170196D01*
X143099505Y-96173796D01*
X143075001Y-96175000D01*
X140924999Y-96175000D01*
X140900495Y-96173796D01*
X140876227Y-96170196D01*
X140852428Y-96164235D01*
X140829329Y-96155970D01*
X140807150Y-96145480D01*
X140786107Y-96132868D01*
X140766401Y-96118253D01*
X140748223Y-96101777D01*
X140731747Y-96083599D01*
X140717132Y-96063893D01*
X140704520Y-96042850D01*
X140694030Y-96020671D01*
X140685765Y-95997572D01*
X140679804Y-95973773D01*
X140676204Y-95949505D01*
X140675000Y-95925001D01*
X140675000Y-95074999D01*
X140676204Y-95050495D01*
X140679804Y-95026227D01*
X140685765Y-95002428D01*
X140694030Y-94979329D01*
X140704520Y-94957150D01*
X140717132Y-94936107D01*
X140731747Y-94916401D01*
X140748223Y-94898223D01*
X140766401Y-94881747D01*
X140786107Y-94867132D01*
X140807150Y-94854520D01*
X140829329Y-94844030D01*
X140852428Y-94835765D01*
X140876227Y-94829804D01*
X140900495Y-94826204D01*
X140924999Y-94825000D01*
X143075001Y-94825000D01*
X143099505Y-94826204D01*
X143099505Y-94826204D01*
G37*
D15*
X142000000Y-95500000D03*
D10*
G36*
X143099505Y-99326204D02*
G01*
X143123773Y-99329804D01*
X143147572Y-99335765D01*
X143170671Y-99344030D01*
X143192850Y-99354520D01*
X143213893Y-99367132D01*
X143233599Y-99381747D01*
X143251777Y-99398223D01*
X143268253Y-99416401D01*
X143282868Y-99436107D01*
X143295480Y-99457150D01*
X143305970Y-99479329D01*
X143314235Y-99502428D01*
X143320196Y-99526227D01*
X143323796Y-99550495D01*
X143325000Y-99574999D01*
X143325000Y-100425001D01*
X143323796Y-100449505D01*
X143320196Y-100473773D01*
X143314235Y-100497572D01*
X143305970Y-100520671D01*
X143295480Y-100542850D01*
X143282868Y-100563893D01*
X143268253Y-100583599D01*
X143251777Y-100601777D01*
X143233599Y-100618253D01*
X143213893Y-100632868D01*
X143192850Y-100645480D01*
X143170671Y-100655970D01*
X143147572Y-100664235D01*
X143123773Y-100670196D01*
X143099505Y-100673796D01*
X143075001Y-100675000D01*
X140924999Y-100675000D01*
X140900495Y-100673796D01*
X140876227Y-100670196D01*
X140852428Y-100664235D01*
X140829329Y-100655970D01*
X140807150Y-100645480D01*
X140786107Y-100632868D01*
X140766401Y-100618253D01*
X140748223Y-100601777D01*
X140731747Y-100583599D01*
X140717132Y-100563893D01*
X140704520Y-100542850D01*
X140694030Y-100520671D01*
X140685765Y-100497572D01*
X140679804Y-100473773D01*
X140676204Y-100449505D01*
X140675000Y-100425001D01*
X140675000Y-99574999D01*
X140676204Y-99550495D01*
X140679804Y-99526227D01*
X140685765Y-99502428D01*
X140694030Y-99479329D01*
X140704520Y-99457150D01*
X140717132Y-99436107D01*
X140731747Y-99416401D01*
X140748223Y-99398223D01*
X140766401Y-99381747D01*
X140786107Y-99367132D01*
X140807150Y-99354520D01*
X140829329Y-99344030D01*
X140852428Y-99335765D01*
X140876227Y-99329804D01*
X140900495Y-99326204D01*
X140924999Y-99325000D01*
X143075001Y-99325000D01*
X143099505Y-99326204D01*
X143099505Y-99326204D01*
G37*
D15*
X142000000Y-100000000D03*
D10*
G36*
X138392642Y-101301174D02*
G01*
X138416303Y-101304684D01*
X138439507Y-101310496D01*
X138462029Y-101318554D01*
X138483653Y-101328782D01*
X138504170Y-101341079D01*
X138523383Y-101355329D01*
X138541107Y-101371393D01*
X138557171Y-101389117D01*
X138571421Y-101408330D01*
X138583718Y-101428847D01*
X138593946Y-101450471D01*
X138602004Y-101472993D01*
X138607816Y-101496197D01*
X138611326Y-101519858D01*
X138612500Y-101543750D01*
X138612500Y-102456250D01*
X138611326Y-102480142D01*
X138607816Y-102503803D01*
X138602004Y-102527007D01*
X138593946Y-102549529D01*
X138583718Y-102571153D01*
X138571421Y-102591670D01*
X138557171Y-102610883D01*
X138541107Y-102628607D01*
X138523383Y-102644671D01*
X138504170Y-102658921D01*
X138483653Y-102671218D01*
X138462029Y-102681446D01*
X138439507Y-102689504D01*
X138416303Y-102695316D01*
X138392642Y-102698826D01*
X138368750Y-102700000D01*
X137881250Y-102700000D01*
X137857358Y-102698826D01*
X137833697Y-102695316D01*
X137810493Y-102689504D01*
X137787971Y-102681446D01*
X137766347Y-102671218D01*
X137745830Y-102658921D01*
X137726617Y-102644671D01*
X137708893Y-102628607D01*
X137692829Y-102610883D01*
X137678579Y-102591670D01*
X137666282Y-102571153D01*
X137656054Y-102549529D01*
X137647996Y-102527007D01*
X137642184Y-102503803D01*
X137638674Y-102480142D01*
X137637500Y-102456250D01*
X137637500Y-101543750D01*
X137638674Y-101519858D01*
X137642184Y-101496197D01*
X137647996Y-101472993D01*
X137656054Y-101450471D01*
X137666282Y-101428847D01*
X137678579Y-101408330D01*
X137692829Y-101389117D01*
X137708893Y-101371393D01*
X137726617Y-101355329D01*
X137745830Y-101341079D01*
X137766347Y-101328782D01*
X137787971Y-101318554D01*
X137810493Y-101310496D01*
X137833697Y-101304684D01*
X137857358Y-101301174D01*
X137881250Y-101300000D01*
X138368750Y-101300000D01*
X138392642Y-101301174D01*
X138392642Y-101301174D01*
G37*
D11*
X138125000Y-102000000D03*
D10*
G36*
X140267642Y-101301174D02*
G01*
X140291303Y-101304684D01*
X140314507Y-101310496D01*
X140337029Y-101318554D01*
X140358653Y-101328782D01*
X140379170Y-101341079D01*
X140398383Y-101355329D01*
X140416107Y-101371393D01*
X140432171Y-101389117D01*
X140446421Y-101408330D01*
X140458718Y-101428847D01*
X140468946Y-101450471D01*
X140477004Y-101472993D01*
X140482816Y-101496197D01*
X140486326Y-101519858D01*
X140487500Y-101543750D01*
X140487500Y-102456250D01*
X140486326Y-102480142D01*
X140482816Y-102503803D01*
X140477004Y-102527007D01*
X140468946Y-102549529D01*
X140458718Y-102571153D01*
X140446421Y-102591670D01*
X140432171Y-102610883D01*
X140416107Y-102628607D01*
X140398383Y-102644671D01*
X140379170Y-102658921D01*
X140358653Y-102671218D01*
X140337029Y-102681446D01*
X140314507Y-102689504D01*
X140291303Y-102695316D01*
X140267642Y-102698826D01*
X140243750Y-102700000D01*
X139756250Y-102700000D01*
X139732358Y-102698826D01*
X139708697Y-102695316D01*
X139685493Y-102689504D01*
X139662971Y-102681446D01*
X139641347Y-102671218D01*
X139620830Y-102658921D01*
X139601617Y-102644671D01*
X139583893Y-102628607D01*
X139567829Y-102610883D01*
X139553579Y-102591670D01*
X139541282Y-102571153D01*
X139531054Y-102549529D01*
X139522996Y-102527007D01*
X139517184Y-102503803D01*
X139513674Y-102480142D01*
X139512500Y-102456250D01*
X139512500Y-101543750D01*
X139513674Y-101519858D01*
X139517184Y-101496197D01*
X139522996Y-101472993D01*
X139531054Y-101450471D01*
X139541282Y-101428847D01*
X139553579Y-101408330D01*
X139567829Y-101389117D01*
X139583893Y-101371393D01*
X139601617Y-101355329D01*
X139620830Y-101341079D01*
X139641347Y-101328782D01*
X139662971Y-101318554D01*
X139685493Y-101310496D01*
X139708697Y-101304684D01*
X139732358Y-101301174D01*
X139756250Y-101300000D01*
X140243750Y-101300000D01*
X140267642Y-101301174D01*
X140267642Y-101301174D01*
G37*
D11*
X140000000Y-102000000D03*
D10*
G36*
X123511392Y-89207424D02*
G01*
X123535053Y-89210934D01*
X123558257Y-89216746D01*
X123580779Y-89224804D01*
X123602403Y-89235032D01*
X123622920Y-89247329D01*
X123642133Y-89261579D01*
X123659857Y-89277643D01*
X123675921Y-89295367D01*
X123690171Y-89314580D01*
X123702468Y-89335097D01*
X123712696Y-89356721D01*
X123720754Y-89379243D01*
X123726566Y-89402447D01*
X123730076Y-89426108D01*
X123731250Y-89450000D01*
X123731250Y-89937500D01*
X123730076Y-89961392D01*
X123726566Y-89985053D01*
X123720754Y-90008257D01*
X123712696Y-90030779D01*
X123702468Y-90052403D01*
X123690171Y-90072920D01*
X123675921Y-90092133D01*
X123659857Y-90109857D01*
X123642133Y-90125921D01*
X123622920Y-90140171D01*
X123602403Y-90152468D01*
X123580779Y-90162696D01*
X123558257Y-90170754D01*
X123535053Y-90176566D01*
X123511392Y-90180076D01*
X123487500Y-90181250D01*
X122575000Y-90181250D01*
X122551108Y-90180076D01*
X122527447Y-90176566D01*
X122504243Y-90170754D01*
X122481721Y-90162696D01*
X122460097Y-90152468D01*
X122439580Y-90140171D01*
X122420367Y-90125921D01*
X122402643Y-90109857D01*
X122386579Y-90092133D01*
X122372329Y-90072920D01*
X122360032Y-90052403D01*
X122349804Y-90030779D01*
X122341746Y-90008257D01*
X122335934Y-89985053D01*
X122332424Y-89961392D01*
X122331250Y-89937500D01*
X122331250Y-89450000D01*
X122332424Y-89426108D01*
X122335934Y-89402447D01*
X122341746Y-89379243D01*
X122349804Y-89356721D01*
X122360032Y-89335097D01*
X122372329Y-89314580D01*
X122386579Y-89295367D01*
X122402643Y-89277643D01*
X122420367Y-89261579D01*
X122439580Y-89247329D01*
X122460097Y-89235032D01*
X122481721Y-89224804D01*
X122504243Y-89216746D01*
X122527447Y-89210934D01*
X122551108Y-89207424D01*
X122575000Y-89206250D01*
X123487500Y-89206250D01*
X123511392Y-89207424D01*
X123511392Y-89207424D01*
G37*
D11*
X123031250Y-89693750D03*
D10*
G36*
X123511392Y-91082424D02*
G01*
X123535053Y-91085934D01*
X123558257Y-91091746D01*
X123580779Y-91099804D01*
X123602403Y-91110032D01*
X123622920Y-91122329D01*
X123642133Y-91136579D01*
X123659857Y-91152643D01*
X123675921Y-91170367D01*
X123690171Y-91189580D01*
X123702468Y-91210097D01*
X123712696Y-91231721D01*
X123720754Y-91254243D01*
X123726566Y-91277447D01*
X123730076Y-91301108D01*
X123731250Y-91325000D01*
X123731250Y-91812500D01*
X123730076Y-91836392D01*
X123726566Y-91860053D01*
X123720754Y-91883257D01*
X123712696Y-91905779D01*
X123702468Y-91927403D01*
X123690171Y-91947920D01*
X123675921Y-91967133D01*
X123659857Y-91984857D01*
X123642133Y-92000921D01*
X123622920Y-92015171D01*
X123602403Y-92027468D01*
X123580779Y-92037696D01*
X123558257Y-92045754D01*
X123535053Y-92051566D01*
X123511392Y-92055076D01*
X123487500Y-92056250D01*
X122575000Y-92056250D01*
X122551108Y-92055076D01*
X122527447Y-92051566D01*
X122504243Y-92045754D01*
X122481721Y-92037696D01*
X122460097Y-92027468D01*
X122439580Y-92015171D01*
X122420367Y-92000921D01*
X122402643Y-91984857D01*
X122386579Y-91967133D01*
X122372329Y-91947920D01*
X122360032Y-91927403D01*
X122349804Y-91905779D01*
X122341746Y-91883257D01*
X122335934Y-91860053D01*
X122332424Y-91836392D01*
X122331250Y-91812500D01*
X122331250Y-91325000D01*
X122332424Y-91301108D01*
X122335934Y-91277447D01*
X122341746Y-91254243D01*
X122349804Y-91231721D01*
X122360032Y-91210097D01*
X122372329Y-91189580D01*
X122386579Y-91170367D01*
X122402643Y-91152643D01*
X122420367Y-91136579D01*
X122439580Y-91122329D01*
X122460097Y-91110032D01*
X122481721Y-91099804D01*
X122504243Y-91091746D01*
X122527447Y-91085934D01*
X122551108Y-91082424D01*
X122575000Y-91081250D01*
X123487500Y-91081250D01*
X123511392Y-91082424D01*
X123511392Y-91082424D01*
G37*
D11*
X123031250Y-91568750D03*
D10*
G36*
X125892642Y-91082424D02*
G01*
X125916303Y-91085934D01*
X125939507Y-91091746D01*
X125962029Y-91099804D01*
X125983653Y-91110032D01*
X126004170Y-91122329D01*
X126023383Y-91136579D01*
X126041107Y-91152643D01*
X126057171Y-91170367D01*
X126071421Y-91189580D01*
X126083718Y-91210097D01*
X126093946Y-91231721D01*
X126102004Y-91254243D01*
X126107816Y-91277447D01*
X126111326Y-91301108D01*
X126112500Y-91325000D01*
X126112500Y-91812500D01*
X126111326Y-91836392D01*
X126107816Y-91860053D01*
X126102004Y-91883257D01*
X126093946Y-91905779D01*
X126083718Y-91927403D01*
X126071421Y-91947920D01*
X126057171Y-91967133D01*
X126041107Y-91984857D01*
X126023383Y-92000921D01*
X126004170Y-92015171D01*
X125983653Y-92027468D01*
X125962029Y-92037696D01*
X125939507Y-92045754D01*
X125916303Y-92051566D01*
X125892642Y-92055076D01*
X125868750Y-92056250D01*
X124956250Y-92056250D01*
X124932358Y-92055076D01*
X124908697Y-92051566D01*
X124885493Y-92045754D01*
X124862971Y-92037696D01*
X124841347Y-92027468D01*
X124820830Y-92015171D01*
X124801617Y-92000921D01*
X124783893Y-91984857D01*
X124767829Y-91967133D01*
X124753579Y-91947920D01*
X124741282Y-91927403D01*
X124731054Y-91905779D01*
X124722996Y-91883257D01*
X124717184Y-91860053D01*
X124713674Y-91836392D01*
X124712500Y-91812500D01*
X124712500Y-91325000D01*
X124713674Y-91301108D01*
X124717184Y-91277447D01*
X124722996Y-91254243D01*
X124731054Y-91231721D01*
X124741282Y-91210097D01*
X124753579Y-91189580D01*
X124767829Y-91170367D01*
X124783893Y-91152643D01*
X124801617Y-91136579D01*
X124820830Y-91122329D01*
X124841347Y-91110032D01*
X124862971Y-91099804D01*
X124885493Y-91091746D01*
X124908697Y-91085934D01*
X124932358Y-91082424D01*
X124956250Y-91081250D01*
X125868750Y-91081250D01*
X125892642Y-91082424D01*
X125892642Y-91082424D01*
G37*
D11*
X125412500Y-91568750D03*
D10*
G36*
X125892642Y-89207424D02*
G01*
X125916303Y-89210934D01*
X125939507Y-89216746D01*
X125962029Y-89224804D01*
X125983653Y-89235032D01*
X126004170Y-89247329D01*
X126023383Y-89261579D01*
X126041107Y-89277643D01*
X126057171Y-89295367D01*
X126071421Y-89314580D01*
X126083718Y-89335097D01*
X126093946Y-89356721D01*
X126102004Y-89379243D01*
X126107816Y-89402447D01*
X126111326Y-89426108D01*
X126112500Y-89450000D01*
X126112500Y-89937500D01*
X126111326Y-89961392D01*
X126107816Y-89985053D01*
X126102004Y-90008257D01*
X126093946Y-90030779D01*
X126083718Y-90052403D01*
X126071421Y-90072920D01*
X126057171Y-90092133D01*
X126041107Y-90109857D01*
X126023383Y-90125921D01*
X126004170Y-90140171D01*
X125983653Y-90152468D01*
X125962029Y-90162696D01*
X125939507Y-90170754D01*
X125916303Y-90176566D01*
X125892642Y-90180076D01*
X125868750Y-90181250D01*
X124956250Y-90181250D01*
X124932358Y-90180076D01*
X124908697Y-90176566D01*
X124885493Y-90170754D01*
X124862971Y-90162696D01*
X124841347Y-90152468D01*
X124820830Y-90140171D01*
X124801617Y-90125921D01*
X124783893Y-90109857D01*
X124767829Y-90092133D01*
X124753579Y-90072920D01*
X124741282Y-90052403D01*
X124731054Y-90030779D01*
X124722996Y-90008257D01*
X124717184Y-89985053D01*
X124713674Y-89961392D01*
X124712500Y-89937500D01*
X124712500Y-89450000D01*
X124713674Y-89426108D01*
X124717184Y-89402447D01*
X124722996Y-89379243D01*
X124731054Y-89356721D01*
X124741282Y-89335097D01*
X124753579Y-89314580D01*
X124767829Y-89295367D01*
X124783893Y-89277643D01*
X124801617Y-89261579D01*
X124820830Y-89247329D01*
X124841347Y-89235032D01*
X124862971Y-89224804D01*
X124885493Y-89216746D01*
X124908697Y-89210934D01*
X124932358Y-89207424D01*
X124956250Y-89206250D01*
X125868750Y-89206250D01*
X125892642Y-89207424D01*
X125892642Y-89207424D01*
G37*
D11*
X125412500Y-89693750D03*
D10*
G36*
X137267642Y-91301174D02*
G01*
X137291303Y-91304684D01*
X137314507Y-91310496D01*
X137337029Y-91318554D01*
X137358653Y-91328782D01*
X137379170Y-91341079D01*
X137398383Y-91355329D01*
X137416107Y-91371393D01*
X137432171Y-91389117D01*
X137446421Y-91408330D01*
X137458718Y-91428847D01*
X137468946Y-91450471D01*
X137477004Y-91472993D01*
X137482816Y-91496197D01*
X137486326Y-91519858D01*
X137487500Y-91543750D01*
X137487500Y-92456250D01*
X137486326Y-92480142D01*
X137482816Y-92503803D01*
X137477004Y-92527007D01*
X137468946Y-92549529D01*
X137458718Y-92571153D01*
X137446421Y-92591670D01*
X137432171Y-92610883D01*
X137416107Y-92628607D01*
X137398383Y-92644671D01*
X137379170Y-92658921D01*
X137358653Y-92671218D01*
X137337029Y-92681446D01*
X137314507Y-92689504D01*
X137291303Y-92695316D01*
X137267642Y-92698826D01*
X137243750Y-92700000D01*
X136756250Y-92700000D01*
X136732358Y-92698826D01*
X136708697Y-92695316D01*
X136685493Y-92689504D01*
X136662971Y-92681446D01*
X136641347Y-92671218D01*
X136620830Y-92658921D01*
X136601617Y-92644671D01*
X136583893Y-92628607D01*
X136567829Y-92610883D01*
X136553579Y-92591670D01*
X136541282Y-92571153D01*
X136531054Y-92549529D01*
X136522996Y-92527007D01*
X136517184Y-92503803D01*
X136513674Y-92480142D01*
X136512500Y-92456250D01*
X136512500Y-91543750D01*
X136513674Y-91519858D01*
X136517184Y-91496197D01*
X136522996Y-91472993D01*
X136531054Y-91450471D01*
X136541282Y-91428847D01*
X136553579Y-91408330D01*
X136567829Y-91389117D01*
X136583893Y-91371393D01*
X136601617Y-91355329D01*
X136620830Y-91341079D01*
X136641347Y-91328782D01*
X136662971Y-91318554D01*
X136685493Y-91310496D01*
X136708697Y-91304684D01*
X136732358Y-91301174D01*
X136756250Y-91300000D01*
X137243750Y-91300000D01*
X137267642Y-91301174D01*
X137267642Y-91301174D01*
G37*
D11*
X137000000Y-92000000D03*
D10*
G36*
X135392642Y-91301174D02*
G01*
X135416303Y-91304684D01*
X135439507Y-91310496D01*
X135462029Y-91318554D01*
X135483653Y-91328782D01*
X135504170Y-91341079D01*
X135523383Y-91355329D01*
X135541107Y-91371393D01*
X135557171Y-91389117D01*
X135571421Y-91408330D01*
X135583718Y-91428847D01*
X135593946Y-91450471D01*
X135602004Y-91472993D01*
X135607816Y-91496197D01*
X135611326Y-91519858D01*
X135612500Y-91543750D01*
X135612500Y-92456250D01*
X135611326Y-92480142D01*
X135607816Y-92503803D01*
X135602004Y-92527007D01*
X135593946Y-92549529D01*
X135583718Y-92571153D01*
X135571421Y-92591670D01*
X135557171Y-92610883D01*
X135541107Y-92628607D01*
X135523383Y-92644671D01*
X135504170Y-92658921D01*
X135483653Y-92671218D01*
X135462029Y-92681446D01*
X135439507Y-92689504D01*
X135416303Y-92695316D01*
X135392642Y-92698826D01*
X135368750Y-92700000D01*
X134881250Y-92700000D01*
X134857358Y-92698826D01*
X134833697Y-92695316D01*
X134810493Y-92689504D01*
X134787971Y-92681446D01*
X134766347Y-92671218D01*
X134745830Y-92658921D01*
X134726617Y-92644671D01*
X134708893Y-92628607D01*
X134692829Y-92610883D01*
X134678579Y-92591670D01*
X134666282Y-92571153D01*
X134656054Y-92549529D01*
X134647996Y-92527007D01*
X134642184Y-92503803D01*
X134638674Y-92480142D01*
X134637500Y-92456250D01*
X134637500Y-91543750D01*
X134638674Y-91519858D01*
X134642184Y-91496197D01*
X134647996Y-91472993D01*
X134656054Y-91450471D01*
X134666282Y-91428847D01*
X134678579Y-91408330D01*
X134692829Y-91389117D01*
X134708893Y-91371393D01*
X134726617Y-91355329D01*
X134745830Y-91341079D01*
X134766347Y-91328782D01*
X134787971Y-91318554D01*
X134810493Y-91310496D01*
X134833697Y-91304684D01*
X134857358Y-91301174D01*
X134881250Y-91300000D01*
X135368750Y-91300000D01*
X135392642Y-91301174D01*
X135392642Y-91301174D01*
G37*
D11*
X135125000Y-92000000D03*
D10*
G36*
X138205142Y-99301174D02*
G01*
X138228803Y-99304684D01*
X138252007Y-99310496D01*
X138274529Y-99318554D01*
X138296153Y-99328782D01*
X138316670Y-99341079D01*
X138335883Y-99355329D01*
X138353607Y-99371393D01*
X138369671Y-99389117D01*
X138383921Y-99408330D01*
X138396218Y-99428847D01*
X138406446Y-99450471D01*
X138414504Y-99472993D01*
X138420316Y-99496197D01*
X138423826Y-99519858D01*
X138425000Y-99543750D01*
X138425000Y-100456250D01*
X138423826Y-100480142D01*
X138420316Y-100503803D01*
X138414504Y-100527007D01*
X138406446Y-100549529D01*
X138396218Y-100571153D01*
X138383921Y-100591670D01*
X138369671Y-100610883D01*
X138353607Y-100628607D01*
X138335883Y-100644671D01*
X138316670Y-100658921D01*
X138296153Y-100671218D01*
X138274529Y-100681446D01*
X138252007Y-100689504D01*
X138228803Y-100695316D01*
X138205142Y-100698826D01*
X138181250Y-100700000D01*
X137693750Y-100700000D01*
X137669858Y-100698826D01*
X137646197Y-100695316D01*
X137622993Y-100689504D01*
X137600471Y-100681446D01*
X137578847Y-100671218D01*
X137558330Y-100658921D01*
X137539117Y-100644671D01*
X137521393Y-100628607D01*
X137505329Y-100610883D01*
X137491079Y-100591670D01*
X137478782Y-100571153D01*
X137468554Y-100549529D01*
X137460496Y-100527007D01*
X137454684Y-100503803D01*
X137451174Y-100480142D01*
X137450000Y-100456250D01*
X137450000Y-99543750D01*
X137451174Y-99519858D01*
X137454684Y-99496197D01*
X137460496Y-99472993D01*
X137468554Y-99450471D01*
X137478782Y-99428847D01*
X137491079Y-99408330D01*
X137505329Y-99389117D01*
X137521393Y-99371393D01*
X137539117Y-99355329D01*
X137558330Y-99341079D01*
X137578847Y-99328782D01*
X137600471Y-99318554D01*
X137622993Y-99310496D01*
X137646197Y-99304684D01*
X137669858Y-99301174D01*
X137693750Y-99300000D01*
X138181250Y-99300000D01*
X138205142Y-99301174D01*
X138205142Y-99301174D01*
G37*
D11*
X137937500Y-100000000D03*
D10*
G36*
X136330142Y-99301174D02*
G01*
X136353803Y-99304684D01*
X136377007Y-99310496D01*
X136399529Y-99318554D01*
X136421153Y-99328782D01*
X136441670Y-99341079D01*
X136460883Y-99355329D01*
X136478607Y-99371393D01*
X136494671Y-99389117D01*
X136508921Y-99408330D01*
X136521218Y-99428847D01*
X136531446Y-99450471D01*
X136539504Y-99472993D01*
X136545316Y-99496197D01*
X136548826Y-99519858D01*
X136550000Y-99543750D01*
X136550000Y-100456250D01*
X136548826Y-100480142D01*
X136545316Y-100503803D01*
X136539504Y-100527007D01*
X136531446Y-100549529D01*
X136521218Y-100571153D01*
X136508921Y-100591670D01*
X136494671Y-100610883D01*
X136478607Y-100628607D01*
X136460883Y-100644671D01*
X136441670Y-100658921D01*
X136421153Y-100671218D01*
X136399529Y-100681446D01*
X136377007Y-100689504D01*
X136353803Y-100695316D01*
X136330142Y-100698826D01*
X136306250Y-100700000D01*
X135818750Y-100700000D01*
X135794858Y-100698826D01*
X135771197Y-100695316D01*
X135747993Y-100689504D01*
X135725471Y-100681446D01*
X135703847Y-100671218D01*
X135683330Y-100658921D01*
X135664117Y-100644671D01*
X135646393Y-100628607D01*
X135630329Y-100610883D01*
X135616079Y-100591670D01*
X135603782Y-100571153D01*
X135593554Y-100549529D01*
X135585496Y-100527007D01*
X135579684Y-100503803D01*
X135576174Y-100480142D01*
X135575000Y-100456250D01*
X135575000Y-99543750D01*
X135576174Y-99519858D01*
X135579684Y-99496197D01*
X135585496Y-99472993D01*
X135593554Y-99450471D01*
X135603782Y-99428847D01*
X135616079Y-99408330D01*
X135630329Y-99389117D01*
X135646393Y-99371393D01*
X135664117Y-99355329D01*
X135683330Y-99341079D01*
X135703847Y-99328782D01*
X135725471Y-99318554D01*
X135747993Y-99310496D01*
X135771197Y-99304684D01*
X135794858Y-99301174D01*
X135818750Y-99300000D01*
X136306250Y-99300000D01*
X136330142Y-99301174D01*
X136330142Y-99301174D01*
G37*
D11*
X136062500Y-100000000D03*
D16*
X135150000Y-118100000D03*
X138850000Y-111900000D03*
X138850000Y-118100000D03*
X135150000Y-111900000D03*
D17*
X135050000Y-98100000D03*
X136000000Y-98100000D03*
X136950000Y-98100000D03*
X136950000Y-95900000D03*
X135050000Y-95900000D03*
X136000000Y-95900000D03*
D10*
G36*
X122538601Y-115231611D02*
G01*
X122545882Y-115232691D01*
X122553021Y-115234479D01*
X122559951Y-115236959D01*
X122566605Y-115240106D01*
X122572918Y-115243890D01*
X122578829Y-115248274D01*
X122584283Y-115253217D01*
X122589226Y-115258671D01*
X122593610Y-115264582D01*
X122597394Y-115270895D01*
X122600541Y-115277549D01*
X122603021Y-115284479D01*
X122604809Y-115291618D01*
X122605889Y-115298899D01*
X122606250Y-115306250D01*
X122606250Y-116706250D01*
X122605889Y-116713601D01*
X122604809Y-116720882D01*
X122603021Y-116728021D01*
X122600541Y-116734951D01*
X122597394Y-116741605D01*
X122593610Y-116747918D01*
X122589226Y-116753829D01*
X122584283Y-116759283D01*
X122578829Y-116764226D01*
X122572918Y-116768610D01*
X122566605Y-116772394D01*
X122559951Y-116775541D01*
X122553021Y-116778021D01*
X122545882Y-116779809D01*
X122538601Y-116780889D01*
X122531250Y-116781250D01*
X122381250Y-116781250D01*
X122373899Y-116780889D01*
X122366618Y-116779809D01*
X122359479Y-116778021D01*
X122352549Y-116775541D01*
X122345895Y-116772394D01*
X122339582Y-116768610D01*
X122333671Y-116764226D01*
X122328217Y-116759283D01*
X122323274Y-116753829D01*
X122318890Y-116747918D01*
X122315106Y-116741605D01*
X122311959Y-116734951D01*
X122309479Y-116728021D01*
X122307691Y-116720882D01*
X122306611Y-116713601D01*
X122306250Y-116706250D01*
X122306250Y-115306250D01*
X122306611Y-115298899D01*
X122307691Y-115291618D01*
X122309479Y-115284479D01*
X122311959Y-115277549D01*
X122315106Y-115270895D01*
X122318890Y-115264582D01*
X122323274Y-115258671D01*
X122328217Y-115253217D01*
X122333671Y-115248274D01*
X122339582Y-115243890D01*
X122345895Y-115240106D01*
X122352549Y-115236959D01*
X122359479Y-115234479D01*
X122366618Y-115232691D01*
X122373899Y-115231611D01*
X122381250Y-115231250D01*
X122531250Y-115231250D01*
X122538601Y-115231611D01*
X122538601Y-115231611D01*
G37*
D18*
X122456250Y-116006250D03*
D10*
G36*
X123038601Y-115231611D02*
G01*
X123045882Y-115232691D01*
X123053021Y-115234479D01*
X123059951Y-115236959D01*
X123066605Y-115240106D01*
X123072918Y-115243890D01*
X123078829Y-115248274D01*
X123084283Y-115253217D01*
X123089226Y-115258671D01*
X123093610Y-115264582D01*
X123097394Y-115270895D01*
X123100541Y-115277549D01*
X123103021Y-115284479D01*
X123104809Y-115291618D01*
X123105889Y-115298899D01*
X123106250Y-115306250D01*
X123106250Y-116706250D01*
X123105889Y-116713601D01*
X123104809Y-116720882D01*
X123103021Y-116728021D01*
X123100541Y-116734951D01*
X123097394Y-116741605D01*
X123093610Y-116747918D01*
X123089226Y-116753829D01*
X123084283Y-116759283D01*
X123078829Y-116764226D01*
X123072918Y-116768610D01*
X123066605Y-116772394D01*
X123059951Y-116775541D01*
X123053021Y-116778021D01*
X123045882Y-116779809D01*
X123038601Y-116780889D01*
X123031250Y-116781250D01*
X122881250Y-116781250D01*
X122873899Y-116780889D01*
X122866618Y-116779809D01*
X122859479Y-116778021D01*
X122852549Y-116775541D01*
X122845895Y-116772394D01*
X122839582Y-116768610D01*
X122833671Y-116764226D01*
X122828217Y-116759283D01*
X122823274Y-116753829D01*
X122818890Y-116747918D01*
X122815106Y-116741605D01*
X122811959Y-116734951D01*
X122809479Y-116728021D01*
X122807691Y-116720882D01*
X122806611Y-116713601D01*
X122806250Y-116706250D01*
X122806250Y-115306250D01*
X122806611Y-115298899D01*
X122807691Y-115291618D01*
X122809479Y-115284479D01*
X122811959Y-115277549D01*
X122815106Y-115270895D01*
X122818890Y-115264582D01*
X122823274Y-115258671D01*
X122828217Y-115253217D01*
X122833671Y-115248274D01*
X122839582Y-115243890D01*
X122845895Y-115240106D01*
X122852549Y-115236959D01*
X122859479Y-115234479D01*
X122866618Y-115232691D01*
X122873899Y-115231611D01*
X122881250Y-115231250D01*
X123031250Y-115231250D01*
X123038601Y-115231611D01*
X123038601Y-115231611D01*
G37*
D18*
X122956250Y-116006250D03*
D10*
G36*
X123538601Y-115231611D02*
G01*
X123545882Y-115232691D01*
X123553021Y-115234479D01*
X123559951Y-115236959D01*
X123566605Y-115240106D01*
X123572918Y-115243890D01*
X123578829Y-115248274D01*
X123584283Y-115253217D01*
X123589226Y-115258671D01*
X123593610Y-115264582D01*
X123597394Y-115270895D01*
X123600541Y-115277549D01*
X123603021Y-115284479D01*
X123604809Y-115291618D01*
X123605889Y-115298899D01*
X123606250Y-115306250D01*
X123606250Y-116706250D01*
X123605889Y-116713601D01*
X123604809Y-116720882D01*
X123603021Y-116728021D01*
X123600541Y-116734951D01*
X123597394Y-116741605D01*
X123593610Y-116747918D01*
X123589226Y-116753829D01*
X123584283Y-116759283D01*
X123578829Y-116764226D01*
X123572918Y-116768610D01*
X123566605Y-116772394D01*
X123559951Y-116775541D01*
X123553021Y-116778021D01*
X123545882Y-116779809D01*
X123538601Y-116780889D01*
X123531250Y-116781250D01*
X123381250Y-116781250D01*
X123373899Y-116780889D01*
X123366618Y-116779809D01*
X123359479Y-116778021D01*
X123352549Y-116775541D01*
X123345895Y-116772394D01*
X123339582Y-116768610D01*
X123333671Y-116764226D01*
X123328217Y-116759283D01*
X123323274Y-116753829D01*
X123318890Y-116747918D01*
X123315106Y-116741605D01*
X123311959Y-116734951D01*
X123309479Y-116728021D01*
X123307691Y-116720882D01*
X123306611Y-116713601D01*
X123306250Y-116706250D01*
X123306250Y-115306250D01*
X123306611Y-115298899D01*
X123307691Y-115291618D01*
X123309479Y-115284479D01*
X123311959Y-115277549D01*
X123315106Y-115270895D01*
X123318890Y-115264582D01*
X123323274Y-115258671D01*
X123328217Y-115253217D01*
X123333671Y-115248274D01*
X123339582Y-115243890D01*
X123345895Y-115240106D01*
X123352549Y-115236959D01*
X123359479Y-115234479D01*
X123366618Y-115232691D01*
X123373899Y-115231611D01*
X123381250Y-115231250D01*
X123531250Y-115231250D01*
X123538601Y-115231611D01*
X123538601Y-115231611D01*
G37*
D18*
X123456250Y-116006250D03*
D10*
G36*
X124038601Y-115231611D02*
G01*
X124045882Y-115232691D01*
X124053021Y-115234479D01*
X124059951Y-115236959D01*
X124066605Y-115240106D01*
X124072918Y-115243890D01*
X124078829Y-115248274D01*
X124084283Y-115253217D01*
X124089226Y-115258671D01*
X124093610Y-115264582D01*
X124097394Y-115270895D01*
X124100541Y-115277549D01*
X124103021Y-115284479D01*
X124104809Y-115291618D01*
X124105889Y-115298899D01*
X124106250Y-115306250D01*
X124106250Y-116706250D01*
X124105889Y-116713601D01*
X124104809Y-116720882D01*
X124103021Y-116728021D01*
X124100541Y-116734951D01*
X124097394Y-116741605D01*
X124093610Y-116747918D01*
X124089226Y-116753829D01*
X124084283Y-116759283D01*
X124078829Y-116764226D01*
X124072918Y-116768610D01*
X124066605Y-116772394D01*
X124059951Y-116775541D01*
X124053021Y-116778021D01*
X124045882Y-116779809D01*
X124038601Y-116780889D01*
X124031250Y-116781250D01*
X123881250Y-116781250D01*
X123873899Y-116780889D01*
X123866618Y-116779809D01*
X123859479Y-116778021D01*
X123852549Y-116775541D01*
X123845895Y-116772394D01*
X123839582Y-116768610D01*
X123833671Y-116764226D01*
X123828217Y-116759283D01*
X123823274Y-116753829D01*
X123818890Y-116747918D01*
X123815106Y-116741605D01*
X123811959Y-116734951D01*
X123809479Y-116728021D01*
X123807691Y-116720882D01*
X123806611Y-116713601D01*
X123806250Y-116706250D01*
X123806250Y-115306250D01*
X123806611Y-115298899D01*
X123807691Y-115291618D01*
X123809479Y-115284479D01*
X123811959Y-115277549D01*
X123815106Y-115270895D01*
X123818890Y-115264582D01*
X123823274Y-115258671D01*
X123828217Y-115253217D01*
X123833671Y-115248274D01*
X123839582Y-115243890D01*
X123845895Y-115240106D01*
X123852549Y-115236959D01*
X123859479Y-115234479D01*
X123866618Y-115232691D01*
X123873899Y-115231611D01*
X123881250Y-115231250D01*
X124031250Y-115231250D01*
X124038601Y-115231611D01*
X124038601Y-115231611D01*
G37*
D18*
X123956250Y-116006250D03*
D10*
G36*
X124538601Y-115231611D02*
G01*
X124545882Y-115232691D01*
X124553021Y-115234479D01*
X124559951Y-115236959D01*
X124566605Y-115240106D01*
X124572918Y-115243890D01*
X124578829Y-115248274D01*
X124584283Y-115253217D01*
X124589226Y-115258671D01*
X124593610Y-115264582D01*
X124597394Y-115270895D01*
X124600541Y-115277549D01*
X124603021Y-115284479D01*
X124604809Y-115291618D01*
X124605889Y-115298899D01*
X124606250Y-115306250D01*
X124606250Y-116706250D01*
X124605889Y-116713601D01*
X124604809Y-116720882D01*
X124603021Y-116728021D01*
X124600541Y-116734951D01*
X124597394Y-116741605D01*
X124593610Y-116747918D01*
X124589226Y-116753829D01*
X124584283Y-116759283D01*
X124578829Y-116764226D01*
X124572918Y-116768610D01*
X124566605Y-116772394D01*
X124559951Y-116775541D01*
X124553021Y-116778021D01*
X124545882Y-116779809D01*
X124538601Y-116780889D01*
X124531250Y-116781250D01*
X124381250Y-116781250D01*
X124373899Y-116780889D01*
X124366618Y-116779809D01*
X124359479Y-116778021D01*
X124352549Y-116775541D01*
X124345895Y-116772394D01*
X124339582Y-116768610D01*
X124333671Y-116764226D01*
X124328217Y-116759283D01*
X124323274Y-116753829D01*
X124318890Y-116747918D01*
X124315106Y-116741605D01*
X124311959Y-116734951D01*
X124309479Y-116728021D01*
X124307691Y-116720882D01*
X124306611Y-116713601D01*
X124306250Y-116706250D01*
X124306250Y-115306250D01*
X124306611Y-115298899D01*
X124307691Y-115291618D01*
X124309479Y-115284479D01*
X124311959Y-115277549D01*
X124315106Y-115270895D01*
X124318890Y-115264582D01*
X124323274Y-115258671D01*
X124328217Y-115253217D01*
X124333671Y-115248274D01*
X124339582Y-115243890D01*
X124345895Y-115240106D01*
X124352549Y-115236959D01*
X124359479Y-115234479D01*
X124366618Y-115232691D01*
X124373899Y-115231611D01*
X124381250Y-115231250D01*
X124531250Y-115231250D01*
X124538601Y-115231611D01*
X124538601Y-115231611D01*
G37*
D18*
X124456250Y-116006250D03*
D10*
G36*
X125038601Y-115231611D02*
G01*
X125045882Y-115232691D01*
X125053021Y-115234479D01*
X125059951Y-115236959D01*
X125066605Y-115240106D01*
X125072918Y-115243890D01*
X125078829Y-115248274D01*
X125084283Y-115253217D01*
X125089226Y-115258671D01*
X125093610Y-115264582D01*
X125097394Y-115270895D01*
X125100541Y-115277549D01*
X125103021Y-115284479D01*
X125104809Y-115291618D01*
X125105889Y-115298899D01*
X125106250Y-115306250D01*
X125106250Y-116706250D01*
X125105889Y-116713601D01*
X125104809Y-116720882D01*
X125103021Y-116728021D01*
X125100541Y-116734951D01*
X125097394Y-116741605D01*
X125093610Y-116747918D01*
X125089226Y-116753829D01*
X125084283Y-116759283D01*
X125078829Y-116764226D01*
X125072918Y-116768610D01*
X125066605Y-116772394D01*
X125059951Y-116775541D01*
X125053021Y-116778021D01*
X125045882Y-116779809D01*
X125038601Y-116780889D01*
X125031250Y-116781250D01*
X124881250Y-116781250D01*
X124873899Y-116780889D01*
X124866618Y-116779809D01*
X124859479Y-116778021D01*
X124852549Y-116775541D01*
X124845895Y-116772394D01*
X124839582Y-116768610D01*
X124833671Y-116764226D01*
X124828217Y-116759283D01*
X124823274Y-116753829D01*
X124818890Y-116747918D01*
X124815106Y-116741605D01*
X124811959Y-116734951D01*
X124809479Y-116728021D01*
X124807691Y-116720882D01*
X124806611Y-116713601D01*
X124806250Y-116706250D01*
X124806250Y-115306250D01*
X124806611Y-115298899D01*
X124807691Y-115291618D01*
X124809479Y-115284479D01*
X124811959Y-115277549D01*
X124815106Y-115270895D01*
X124818890Y-115264582D01*
X124823274Y-115258671D01*
X124828217Y-115253217D01*
X124833671Y-115248274D01*
X124839582Y-115243890D01*
X124845895Y-115240106D01*
X124852549Y-115236959D01*
X124859479Y-115234479D01*
X124866618Y-115232691D01*
X124873899Y-115231611D01*
X124881250Y-115231250D01*
X125031250Y-115231250D01*
X125038601Y-115231611D01*
X125038601Y-115231611D01*
G37*
D18*
X124956250Y-116006250D03*
D10*
G36*
X125538601Y-115231611D02*
G01*
X125545882Y-115232691D01*
X125553021Y-115234479D01*
X125559951Y-115236959D01*
X125566605Y-115240106D01*
X125572918Y-115243890D01*
X125578829Y-115248274D01*
X125584283Y-115253217D01*
X125589226Y-115258671D01*
X125593610Y-115264582D01*
X125597394Y-115270895D01*
X125600541Y-115277549D01*
X125603021Y-115284479D01*
X125604809Y-115291618D01*
X125605889Y-115298899D01*
X125606250Y-115306250D01*
X125606250Y-116706250D01*
X125605889Y-116713601D01*
X125604809Y-116720882D01*
X125603021Y-116728021D01*
X125600541Y-116734951D01*
X125597394Y-116741605D01*
X125593610Y-116747918D01*
X125589226Y-116753829D01*
X125584283Y-116759283D01*
X125578829Y-116764226D01*
X125572918Y-116768610D01*
X125566605Y-116772394D01*
X125559951Y-116775541D01*
X125553021Y-116778021D01*
X125545882Y-116779809D01*
X125538601Y-116780889D01*
X125531250Y-116781250D01*
X125381250Y-116781250D01*
X125373899Y-116780889D01*
X125366618Y-116779809D01*
X125359479Y-116778021D01*
X125352549Y-116775541D01*
X125345895Y-116772394D01*
X125339582Y-116768610D01*
X125333671Y-116764226D01*
X125328217Y-116759283D01*
X125323274Y-116753829D01*
X125318890Y-116747918D01*
X125315106Y-116741605D01*
X125311959Y-116734951D01*
X125309479Y-116728021D01*
X125307691Y-116720882D01*
X125306611Y-116713601D01*
X125306250Y-116706250D01*
X125306250Y-115306250D01*
X125306611Y-115298899D01*
X125307691Y-115291618D01*
X125309479Y-115284479D01*
X125311959Y-115277549D01*
X125315106Y-115270895D01*
X125318890Y-115264582D01*
X125323274Y-115258671D01*
X125328217Y-115253217D01*
X125333671Y-115248274D01*
X125339582Y-115243890D01*
X125345895Y-115240106D01*
X125352549Y-115236959D01*
X125359479Y-115234479D01*
X125366618Y-115232691D01*
X125373899Y-115231611D01*
X125381250Y-115231250D01*
X125531250Y-115231250D01*
X125538601Y-115231611D01*
X125538601Y-115231611D01*
G37*
D18*
X125456250Y-116006250D03*
D10*
G36*
X126038601Y-115231611D02*
G01*
X126045882Y-115232691D01*
X126053021Y-115234479D01*
X126059951Y-115236959D01*
X126066605Y-115240106D01*
X126072918Y-115243890D01*
X126078829Y-115248274D01*
X126084283Y-115253217D01*
X126089226Y-115258671D01*
X126093610Y-115264582D01*
X126097394Y-115270895D01*
X126100541Y-115277549D01*
X126103021Y-115284479D01*
X126104809Y-115291618D01*
X126105889Y-115298899D01*
X126106250Y-115306250D01*
X126106250Y-116706250D01*
X126105889Y-116713601D01*
X126104809Y-116720882D01*
X126103021Y-116728021D01*
X126100541Y-116734951D01*
X126097394Y-116741605D01*
X126093610Y-116747918D01*
X126089226Y-116753829D01*
X126084283Y-116759283D01*
X126078829Y-116764226D01*
X126072918Y-116768610D01*
X126066605Y-116772394D01*
X126059951Y-116775541D01*
X126053021Y-116778021D01*
X126045882Y-116779809D01*
X126038601Y-116780889D01*
X126031250Y-116781250D01*
X125881250Y-116781250D01*
X125873899Y-116780889D01*
X125866618Y-116779809D01*
X125859479Y-116778021D01*
X125852549Y-116775541D01*
X125845895Y-116772394D01*
X125839582Y-116768610D01*
X125833671Y-116764226D01*
X125828217Y-116759283D01*
X125823274Y-116753829D01*
X125818890Y-116747918D01*
X125815106Y-116741605D01*
X125811959Y-116734951D01*
X125809479Y-116728021D01*
X125807691Y-116720882D01*
X125806611Y-116713601D01*
X125806250Y-116706250D01*
X125806250Y-115306250D01*
X125806611Y-115298899D01*
X125807691Y-115291618D01*
X125809479Y-115284479D01*
X125811959Y-115277549D01*
X125815106Y-115270895D01*
X125818890Y-115264582D01*
X125823274Y-115258671D01*
X125828217Y-115253217D01*
X125833671Y-115248274D01*
X125839582Y-115243890D01*
X125845895Y-115240106D01*
X125852549Y-115236959D01*
X125859479Y-115234479D01*
X125866618Y-115232691D01*
X125873899Y-115231611D01*
X125881250Y-115231250D01*
X126031250Y-115231250D01*
X126038601Y-115231611D01*
X126038601Y-115231611D01*
G37*
D18*
X125956250Y-116006250D03*
D10*
G36*
X126538601Y-115231611D02*
G01*
X126545882Y-115232691D01*
X126553021Y-115234479D01*
X126559951Y-115236959D01*
X126566605Y-115240106D01*
X126572918Y-115243890D01*
X126578829Y-115248274D01*
X126584283Y-115253217D01*
X126589226Y-115258671D01*
X126593610Y-115264582D01*
X126597394Y-115270895D01*
X126600541Y-115277549D01*
X126603021Y-115284479D01*
X126604809Y-115291618D01*
X126605889Y-115298899D01*
X126606250Y-115306250D01*
X126606250Y-116706250D01*
X126605889Y-116713601D01*
X126604809Y-116720882D01*
X126603021Y-116728021D01*
X126600541Y-116734951D01*
X126597394Y-116741605D01*
X126593610Y-116747918D01*
X126589226Y-116753829D01*
X126584283Y-116759283D01*
X126578829Y-116764226D01*
X126572918Y-116768610D01*
X126566605Y-116772394D01*
X126559951Y-116775541D01*
X126553021Y-116778021D01*
X126545882Y-116779809D01*
X126538601Y-116780889D01*
X126531250Y-116781250D01*
X126381250Y-116781250D01*
X126373899Y-116780889D01*
X126366618Y-116779809D01*
X126359479Y-116778021D01*
X126352549Y-116775541D01*
X126345895Y-116772394D01*
X126339582Y-116768610D01*
X126333671Y-116764226D01*
X126328217Y-116759283D01*
X126323274Y-116753829D01*
X126318890Y-116747918D01*
X126315106Y-116741605D01*
X126311959Y-116734951D01*
X126309479Y-116728021D01*
X126307691Y-116720882D01*
X126306611Y-116713601D01*
X126306250Y-116706250D01*
X126306250Y-115306250D01*
X126306611Y-115298899D01*
X126307691Y-115291618D01*
X126309479Y-115284479D01*
X126311959Y-115277549D01*
X126315106Y-115270895D01*
X126318890Y-115264582D01*
X126323274Y-115258671D01*
X126328217Y-115253217D01*
X126333671Y-115248274D01*
X126339582Y-115243890D01*
X126345895Y-115240106D01*
X126352549Y-115236959D01*
X126359479Y-115234479D01*
X126366618Y-115232691D01*
X126373899Y-115231611D01*
X126381250Y-115231250D01*
X126531250Y-115231250D01*
X126538601Y-115231611D01*
X126538601Y-115231611D01*
G37*
D18*
X126456250Y-116006250D03*
D10*
G36*
X127038601Y-115231611D02*
G01*
X127045882Y-115232691D01*
X127053021Y-115234479D01*
X127059951Y-115236959D01*
X127066605Y-115240106D01*
X127072918Y-115243890D01*
X127078829Y-115248274D01*
X127084283Y-115253217D01*
X127089226Y-115258671D01*
X127093610Y-115264582D01*
X127097394Y-115270895D01*
X127100541Y-115277549D01*
X127103021Y-115284479D01*
X127104809Y-115291618D01*
X127105889Y-115298899D01*
X127106250Y-115306250D01*
X127106250Y-116706250D01*
X127105889Y-116713601D01*
X127104809Y-116720882D01*
X127103021Y-116728021D01*
X127100541Y-116734951D01*
X127097394Y-116741605D01*
X127093610Y-116747918D01*
X127089226Y-116753829D01*
X127084283Y-116759283D01*
X127078829Y-116764226D01*
X127072918Y-116768610D01*
X127066605Y-116772394D01*
X127059951Y-116775541D01*
X127053021Y-116778021D01*
X127045882Y-116779809D01*
X127038601Y-116780889D01*
X127031250Y-116781250D01*
X126881250Y-116781250D01*
X126873899Y-116780889D01*
X126866618Y-116779809D01*
X126859479Y-116778021D01*
X126852549Y-116775541D01*
X126845895Y-116772394D01*
X126839582Y-116768610D01*
X126833671Y-116764226D01*
X126828217Y-116759283D01*
X126823274Y-116753829D01*
X126818890Y-116747918D01*
X126815106Y-116741605D01*
X126811959Y-116734951D01*
X126809479Y-116728021D01*
X126807691Y-116720882D01*
X126806611Y-116713601D01*
X126806250Y-116706250D01*
X126806250Y-115306250D01*
X126806611Y-115298899D01*
X126807691Y-115291618D01*
X126809479Y-115284479D01*
X126811959Y-115277549D01*
X126815106Y-115270895D01*
X126818890Y-115264582D01*
X126823274Y-115258671D01*
X126828217Y-115253217D01*
X126833671Y-115248274D01*
X126839582Y-115243890D01*
X126845895Y-115240106D01*
X126852549Y-115236959D01*
X126859479Y-115234479D01*
X126866618Y-115232691D01*
X126873899Y-115231611D01*
X126881250Y-115231250D01*
X127031250Y-115231250D01*
X127038601Y-115231611D01*
X127038601Y-115231611D01*
G37*
D18*
X126956250Y-116006250D03*
D10*
G36*
X127538601Y-115231611D02*
G01*
X127545882Y-115232691D01*
X127553021Y-115234479D01*
X127559951Y-115236959D01*
X127566605Y-115240106D01*
X127572918Y-115243890D01*
X127578829Y-115248274D01*
X127584283Y-115253217D01*
X127589226Y-115258671D01*
X127593610Y-115264582D01*
X127597394Y-115270895D01*
X127600541Y-115277549D01*
X127603021Y-115284479D01*
X127604809Y-115291618D01*
X127605889Y-115298899D01*
X127606250Y-115306250D01*
X127606250Y-116706250D01*
X127605889Y-116713601D01*
X127604809Y-116720882D01*
X127603021Y-116728021D01*
X127600541Y-116734951D01*
X127597394Y-116741605D01*
X127593610Y-116747918D01*
X127589226Y-116753829D01*
X127584283Y-116759283D01*
X127578829Y-116764226D01*
X127572918Y-116768610D01*
X127566605Y-116772394D01*
X127559951Y-116775541D01*
X127553021Y-116778021D01*
X127545882Y-116779809D01*
X127538601Y-116780889D01*
X127531250Y-116781250D01*
X127381250Y-116781250D01*
X127373899Y-116780889D01*
X127366618Y-116779809D01*
X127359479Y-116778021D01*
X127352549Y-116775541D01*
X127345895Y-116772394D01*
X127339582Y-116768610D01*
X127333671Y-116764226D01*
X127328217Y-116759283D01*
X127323274Y-116753829D01*
X127318890Y-116747918D01*
X127315106Y-116741605D01*
X127311959Y-116734951D01*
X127309479Y-116728021D01*
X127307691Y-116720882D01*
X127306611Y-116713601D01*
X127306250Y-116706250D01*
X127306250Y-115306250D01*
X127306611Y-115298899D01*
X127307691Y-115291618D01*
X127309479Y-115284479D01*
X127311959Y-115277549D01*
X127315106Y-115270895D01*
X127318890Y-115264582D01*
X127323274Y-115258671D01*
X127328217Y-115253217D01*
X127333671Y-115248274D01*
X127339582Y-115243890D01*
X127345895Y-115240106D01*
X127352549Y-115236959D01*
X127359479Y-115234479D01*
X127366618Y-115232691D01*
X127373899Y-115231611D01*
X127381250Y-115231250D01*
X127531250Y-115231250D01*
X127538601Y-115231611D01*
X127538601Y-115231611D01*
G37*
D18*
X127456250Y-116006250D03*
D10*
G36*
X128038601Y-115231611D02*
G01*
X128045882Y-115232691D01*
X128053021Y-115234479D01*
X128059951Y-115236959D01*
X128066605Y-115240106D01*
X128072918Y-115243890D01*
X128078829Y-115248274D01*
X128084283Y-115253217D01*
X128089226Y-115258671D01*
X128093610Y-115264582D01*
X128097394Y-115270895D01*
X128100541Y-115277549D01*
X128103021Y-115284479D01*
X128104809Y-115291618D01*
X128105889Y-115298899D01*
X128106250Y-115306250D01*
X128106250Y-116706250D01*
X128105889Y-116713601D01*
X128104809Y-116720882D01*
X128103021Y-116728021D01*
X128100541Y-116734951D01*
X128097394Y-116741605D01*
X128093610Y-116747918D01*
X128089226Y-116753829D01*
X128084283Y-116759283D01*
X128078829Y-116764226D01*
X128072918Y-116768610D01*
X128066605Y-116772394D01*
X128059951Y-116775541D01*
X128053021Y-116778021D01*
X128045882Y-116779809D01*
X128038601Y-116780889D01*
X128031250Y-116781250D01*
X127881250Y-116781250D01*
X127873899Y-116780889D01*
X127866618Y-116779809D01*
X127859479Y-116778021D01*
X127852549Y-116775541D01*
X127845895Y-116772394D01*
X127839582Y-116768610D01*
X127833671Y-116764226D01*
X127828217Y-116759283D01*
X127823274Y-116753829D01*
X127818890Y-116747918D01*
X127815106Y-116741605D01*
X127811959Y-116734951D01*
X127809479Y-116728021D01*
X127807691Y-116720882D01*
X127806611Y-116713601D01*
X127806250Y-116706250D01*
X127806250Y-115306250D01*
X127806611Y-115298899D01*
X127807691Y-115291618D01*
X127809479Y-115284479D01*
X127811959Y-115277549D01*
X127815106Y-115270895D01*
X127818890Y-115264582D01*
X127823274Y-115258671D01*
X127828217Y-115253217D01*
X127833671Y-115248274D01*
X127839582Y-115243890D01*
X127845895Y-115240106D01*
X127852549Y-115236959D01*
X127859479Y-115234479D01*
X127866618Y-115232691D01*
X127873899Y-115231611D01*
X127881250Y-115231250D01*
X128031250Y-115231250D01*
X128038601Y-115231611D01*
X128038601Y-115231611D01*
G37*
D18*
X127956250Y-116006250D03*
D10*
G36*
X128538601Y-115231611D02*
G01*
X128545882Y-115232691D01*
X128553021Y-115234479D01*
X128559951Y-115236959D01*
X128566605Y-115240106D01*
X128572918Y-115243890D01*
X128578829Y-115248274D01*
X128584283Y-115253217D01*
X128589226Y-115258671D01*
X128593610Y-115264582D01*
X128597394Y-115270895D01*
X128600541Y-115277549D01*
X128603021Y-115284479D01*
X128604809Y-115291618D01*
X128605889Y-115298899D01*
X128606250Y-115306250D01*
X128606250Y-116706250D01*
X128605889Y-116713601D01*
X128604809Y-116720882D01*
X128603021Y-116728021D01*
X128600541Y-116734951D01*
X128597394Y-116741605D01*
X128593610Y-116747918D01*
X128589226Y-116753829D01*
X128584283Y-116759283D01*
X128578829Y-116764226D01*
X128572918Y-116768610D01*
X128566605Y-116772394D01*
X128559951Y-116775541D01*
X128553021Y-116778021D01*
X128545882Y-116779809D01*
X128538601Y-116780889D01*
X128531250Y-116781250D01*
X128381250Y-116781250D01*
X128373899Y-116780889D01*
X128366618Y-116779809D01*
X128359479Y-116778021D01*
X128352549Y-116775541D01*
X128345895Y-116772394D01*
X128339582Y-116768610D01*
X128333671Y-116764226D01*
X128328217Y-116759283D01*
X128323274Y-116753829D01*
X128318890Y-116747918D01*
X128315106Y-116741605D01*
X128311959Y-116734951D01*
X128309479Y-116728021D01*
X128307691Y-116720882D01*
X128306611Y-116713601D01*
X128306250Y-116706250D01*
X128306250Y-115306250D01*
X128306611Y-115298899D01*
X128307691Y-115291618D01*
X128309479Y-115284479D01*
X128311959Y-115277549D01*
X128315106Y-115270895D01*
X128318890Y-115264582D01*
X128323274Y-115258671D01*
X128328217Y-115253217D01*
X128333671Y-115248274D01*
X128339582Y-115243890D01*
X128345895Y-115240106D01*
X128352549Y-115236959D01*
X128359479Y-115234479D01*
X128366618Y-115232691D01*
X128373899Y-115231611D01*
X128381250Y-115231250D01*
X128531250Y-115231250D01*
X128538601Y-115231611D01*
X128538601Y-115231611D01*
G37*
D18*
X128456250Y-116006250D03*
D10*
G36*
X129038601Y-115231611D02*
G01*
X129045882Y-115232691D01*
X129053021Y-115234479D01*
X129059951Y-115236959D01*
X129066605Y-115240106D01*
X129072918Y-115243890D01*
X129078829Y-115248274D01*
X129084283Y-115253217D01*
X129089226Y-115258671D01*
X129093610Y-115264582D01*
X129097394Y-115270895D01*
X129100541Y-115277549D01*
X129103021Y-115284479D01*
X129104809Y-115291618D01*
X129105889Y-115298899D01*
X129106250Y-115306250D01*
X129106250Y-116706250D01*
X129105889Y-116713601D01*
X129104809Y-116720882D01*
X129103021Y-116728021D01*
X129100541Y-116734951D01*
X129097394Y-116741605D01*
X129093610Y-116747918D01*
X129089226Y-116753829D01*
X129084283Y-116759283D01*
X129078829Y-116764226D01*
X129072918Y-116768610D01*
X129066605Y-116772394D01*
X129059951Y-116775541D01*
X129053021Y-116778021D01*
X129045882Y-116779809D01*
X129038601Y-116780889D01*
X129031250Y-116781250D01*
X128881250Y-116781250D01*
X128873899Y-116780889D01*
X128866618Y-116779809D01*
X128859479Y-116778021D01*
X128852549Y-116775541D01*
X128845895Y-116772394D01*
X128839582Y-116768610D01*
X128833671Y-116764226D01*
X128828217Y-116759283D01*
X128823274Y-116753829D01*
X128818890Y-116747918D01*
X128815106Y-116741605D01*
X128811959Y-116734951D01*
X128809479Y-116728021D01*
X128807691Y-116720882D01*
X128806611Y-116713601D01*
X128806250Y-116706250D01*
X128806250Y-115306250D01*
X128806611Y-115298899D01*
X128807691Y-115291618D01*
X128809479Y-115284479D01*
X128811959Y-115277549D01*
X128815106Y-115270895D01*
X128818890Y-115264582D01*
X128823274Y-115258671D01*
X128828217Y-115253217D01*
X128833671Y-115248274D01*
X128839582Y-115243890D01*
X128845895Y-115240106D01*
X128852549Y-115236959D01*
X128859479Y-115234479D01*
X128866618Y-115232691D01*
X128873899Y-115231611D01*
X128881250Y-115231250D01*
X129031250Y-115231250D01*
X129038601Y-115231611D01*
X129038601Y-115231611D01*
G37*
D18*
X128956250Y-116006250D03*
D10*
G36*
X129538601Y-115231611D02*
G01*
X129545882Y-115232691D01*
X129553021Y-115234479D01*
X129559951Y-115236959D01*
X129566605Y-115240106D01*
X129572918Y-115243890D01*
X129578829Y-115248274D01*
X129584283Y-115253217D01*
X129589226Y-115258671D01*
X129593610Y-115264582D01*
X129597394Y-115270895D01*
X129600541Y-115277549D01*
X129603021Y-115284479D01*
X129604809Y-115291618D01*
X129605889Y-115298899D01*
X129606250Y-115306250D01*
X129606250Y-116706250D01*
X129605889Y-116713601D01*
X129604809Y-116720882D01*
X129603021Y-116728021D01*
X129600541Y-116734951D01*
X129597394Y-116741605D01*
X129593610Y-116747918D01*
X129589226Y-116753829D01*
X129584283Y-116759283D01*
X129578829Y-116764226D01*
X129572918Y-116768610D01*
X129566605Y-116772394D01*
X129559951Y-116775541D01*
X129553021Y-116778021D01*
X129545882Y-116779809D01*
X129538601Y-116780889D01*
X129531250Y-116781250D01*
X129381250Y-116781250D01*
X129373899Y-116780889D01*
X129366618Y-116779809D01*
X129359479Y-116778021D01*
X129352549Y-116775541D01*
X129345895Y-116772394D01*
X129339582Y-116768610D01*
X129333671Y-116764226D01*
X129328217Y-116759283D01*
X129323274Y-116753829D01*
X129318890Y-116747918D01*
X129315106Y-116741605D01*
X129311959Y-116734951D01*
X129309479Y-116728021D01*
X129307691Y-116720882D01*
X129306611Y-116713601D01*
X129306250Y-116706250D01*
X129306250Y-115306250D01*
X129306611Y-115298899D01*
X129307691Y-115291618D01*
X129309479Y-115284479D01*
X129311959Y-115277549D01*
X129315106Y-115270895D01*
X129318890Y-115264582D01*
X129323274Y-115258671D01*
X129328217Y-115253217D01*
X129333671Y-115248274D01*
X129339582Y-115243890D01*
X129345895Y-115240106D01*
X129352549Y-115236959D01*
X129359479Y-115234479D01*
X129366618Y-115232691D01*
X129373899Y-115231611D01*
X129381250Y-115231250D01*
X129531250Y-115231250D01*
X129538601Y-115231611D01*
X129538601Y-115231611D01*
G37*
D18*
X129456250Y-116006250D03*
D10*
G36*
X130038601Y-115231611D02*
G01*
X130045882Y-115232691D01*
X130053021Y-115234479D01*
X130059951Y-115236959D01*
X130066605Y-115240106D01*
X130072918Y-115243890D01*
X130078829Y-115248274D01*
X130084283Y-115253217D01*
X130089226Y-115258671D01*
X130093610Y-115264582D01*
X130097394Y-115270895D01*
X130100541Y-115277549D01*
X130103021Y-115284479D01*
X130104809Y-115291618D01*
X130105889Y-115298899D01*
X130106250Y-115306250D01*
X130106250Y-116706250D01*
X130105889Y-116713601D01*
X130104809Y-116720882D01*
X130103021Y-116728021D01*
X130100541Y-116734951D01*
X130097394Y-116741605D01*
X130093610Y-116747918D01*
X130089226Y-116753829D01*
X130084283Y-116759283D01*
X130078829Y-116764226D01*
X130072918Y-116768610D01*
X130066605Y-116772394D01*
X130059951Y-116775541D01*
X130053021Y-116778021D01*
X130045882Y-116779809D01*
X130038601Y-116780889D01*
X130031250Y-116781250D01*
X129881250Y-116781250D01*
X129873899Y-116780889D01*
X129866618Y-116779809D01*
X129859479Y-116778021D01*
X129852549Y-116775541D01*
X129845895Y-116772394D01*
X129839582Y-116768610D01*
X129833671Y-116764226D01*
X129828217Y-116759283D01*
X129823274Y-116753829D01*
X129818890Y-116747918D01*
X129815106Y-116741605D01*
X129811959Y-116734951D01*
X129809479Y-116728021D01*
X129807691Y-116720882D01*
X129806611Y-116713601D01*
X129806250Y-116706250D01*
X129806250Y-115306250D01*
X129806611Y-115298899D01*
X129807691Y-115291618D01*
X129809479Y-115284479D01*
X129811959Y-115277549D01*
X129815106Y-115270895D01*
X129818890Y-115264582D01*
X129823274Y-115258671D01*
X129828217Y-115253217D01*
X129833671Y-115248274D01*
X129839582Y-115243890D01*
X129845895Y-115240106D01*
X129852549Y-115236959D01*
X129859479Y-115234479D01*
X129866618Y-115232691D01*
X129873899Y-115231611D01*
X129881250Y-115231250D01*
X130031250Y-115231250D01*
X130038601Y-115231611D01*
X130038601Y-115231611D01*
G37*
D18*
X129956250Y-116006250D03*
D10*
G36*
X132588601Y-113931611D02*
G01*
X132595882Y-113932691D01*
X132603021Y-113934479D01*
X132609951Y-113936959D01*
X132616605Y-113940106D01*
X132622918Y-113943890D01*
X132628829Y-113948274D01*
X132634283Y-113953217D01*
X132639226Y-113958671D01*
X132643610Y-113964582D01*
X132647394Y-113970895D01*
X132650541Y-113977549D01*
X132653021Y-113984479D01*
X132654809Y-113991618D01*
X132655889Y-113998899D01*
X132656250Y-114006250D01*
X132656250Y-114156250D01*
X132655889Y-114163601D01*
X132654809Y-114170882D01*
X132653021Y-114178021D01*
X132650541Y-114184951D01*
X132647394Y-114191605D01*
X132643610Y-114197918D01*
X132639226Y-114203829D01*
X132634283Y-114209283D01*
X132628829Y-114214226D01*
X132622918Y-114218610D01*
X132616605Y-114222394D01*
X132609951Y-114225541D01*
X132603021Y-114228021D01*
X132595882Y-114229809D01*
X132588601Y-114230889D01*
X132581250Y-114231250D01*
X131181250Y-114231250D01*
X131173899Y-114230889D01*
X131166618Y-114229809D01*
X131159479Y-114228021D01*
X131152549Y-114225541D01*
X131145895Y-114222394D01*
X131139582Y-114218610D01*
X131133671Y-114214226D01*
X131128217Y-114209283D01*
X131123274Y-114203829D01*
X131118890Y-114197918D01*
X131115106Y-114191605D01*
X131111959Y-114184951D01*
X131109479Y-114178021D01*
X131107691Y-114170882D01*
X131106611Y-114163601D01*
X131106250Y-114156250D01*
X131106250Y-114006250D01*
X131106611Y-113998899D01*
X131107691Y-113991618D01*
X131109479Y-113984479D01*
X131111959Y-113977549D01*
X131115106Y-113970895D01*
X131118890Y-113964582D01*
X131123274Y-113958671D01*
X131128217Y-113953217D01*
X131133671Y-113948274D01*
X131139582Y-113943890D01*
X131145895Y-113940106D01*
X131152549Y-113936959D01*
X131159479Y-113934479D01*
X131166618Y-113932691D01*
X131173899Y-113931611D01*
X131181250Y-113931250D01*
X132581250Y-113931250D01*
X132588601Y-113931611D01*
X132588601Y-113931611D01*
G37*
D18*
X131881250Y-114081250D03*
D10*
G36*
X132588601Y-113431611D02*
G01*
X132595882Y-113432691D01*
X132603021Y-113434479D01*
X132609951Y-113436959D01*
X132616605Y-113440106D01*
X132622918Y-113443890D01*
X132628829Y-113448274D01*
X132634283Y-113453217D01*
X132639226Y-113458671D01*
X132643610Y-113464582D01*
X132647394Y-113470895D01*
X132650541Y-113477549D01*
X132653021Y-113484479D01*
X132654809Y-113491618D01*
X132655889Y-113498899D01*
X132656250Y-113506250D01*
X132656250Y-113656250D01*
X132655889Y-113663601D01*
X132654809Y-113670882D01*
X132653021Y-113678021D01*
X132650541Y-113684951D01*
X132647394Y-113691605D01*
X132643610Y-113697918D01*
X132639226Y-113703829D01*
X132634283Y-113709283D01*
X132628829Y-113714226D01*
X132622918Y-113718610D01*
X132616605Y-113722394D01*
X132609951Y-113725541D01*
X132603021Y-113728021D01*
X132595882Y-113729809D01*
X132588601Y-113730889D01*
X132581250Y-113731250D01*
X131181250Y-113731250D01*
X131173899Y-113730889D01*
X131166618Y-113729809D01*
X131159479Y-113728021D01*
X131152549Y-113725541D01*
X131145895Y-113722394D01*
X131139582Y-113718610D01*
X131133671Y-113714226D01*
X131128217Y-113709283D01*
X131123274Y-113703829D01*
X131118890Y-113697918D01*
X131115106Y-113691605D01*
X131111959Y-113684951D01*
X131109479Y-113678021D01*
X131107691Y-113670882D01*
X131106611Y-113663601D01*
X131106250Y-113656250D01*
X131106250Y-113506250D01*
X131106611Y-113498899D01*
X131107691Y-113491618D01*
X131109479Y-113484479D01*
X131111959Y-113477549D01*
X131115106Y-113470895D01*
X131118890Y-113464582D01*
X131123274Y-113458671D01*
X131128217Y-113453217D01*
X131133671Y-113448274D01*
X131139582Y-113443890D01*
X131145895Y-113440106D01*
X131152549Y-113436959D01*
X131159479Y-113434479D01*
X131166618Y-113432691D01*
X131173899Y-113431611D01*
X131181250Y-113431250D01*
X132581250Y-113431250D01*
X132588601Y-113431611D01*
X132588601Y-113431611D01*
G37*
D18*
X131881250Y-113581250D03*
D10*
G36*
X132588601Y-112931611D02*
G01*
X132595882Y-112932691D01*
X132603021Y-112934479D01*
X132609951Y-112936959D01*
X132616605Y-112940106D01*
X132622918Y-112943890D01*
X132628829Y-112948274D01*
X132634283Y-112953217D01*
X132639226Y-112958671D01*
X132643610Y-112964582D01*
X132647394Y-112970895D01*
X132650541Y-112977549D01*
X132653021Y-112984479D01*
X132654809Y-112991618D01*
X132655889Y-112998899D01*
X132656250Y-113006250D01*
X132656250Y-113156250D01*
X132655889Y-113163601D01*
X132654809Y-113170882D01*
X132653021Y-113178021D01*
X132650541Y-113184951D01*
X132647394Y-113191605D01*
X132643610Y-113197918D01*
X132639226Y-113203829D01*
X132634283Y-113209283D01*
X132628829Y-113214226D01*
X132622918Y-113218610D01*
X132616605Y-113222394D01*
X132609951Y-113225541D01*
X132603021Y-113228021D01*
X132595882Y-113229809D01*
X132588601Y-113230889D01*
X132581250Y-113231250D01*
X131181250Y-113231250D01*
X131173899Y-113230889D01*
X131166618Y-113229809D01*
X131159479Y-113228021D01*
X131152549Y-113225541D01*
X131145895Y-113222394D01*
X131139582Y-113218610D01*
X131133671Y-113214226D01*
X131128217Y-113209283D01*
X131123274Y-113203829D01*
X131118890Y-113197918D01*
X131115106Y-113191605D01*
X131111959Y-113184951D01*
X131109479Y-113178021D01*
X131107691Y-113170882D01*
X131106611Y-113163601D01*
X131106250Y-113156250D01*
X131106250Y-113006250D01*
X131106611Y-112998899D01*
X131107691Y-112991618D01*
X131109479Y-112984479D01*
X131111959Y-112977549D01*
X131115106Y-112970895D01*
X131118890Y-112964582D01*
X131123274Y-112958671D01*
X131128217Y-112953217D01*
X131133671Y-112948274D01*
X131139582Y-112943890D01*
X131145895Y-112940106D01*
X131152549Y-112936959D01*
X131159479Y-112934479D01*
X131166618Y-112932691D01*
X131173899Y-112931611D01*
X131181250Y-112931250D01*
X132581250Y-112931250D01*
X132588601Y-112931611D01*
X132588601Y-112931611D01*
G37*
D18*
X131881250Y-113081250D03*
D10*
G36*
X132588601Y-112431611D02*
G01*
X132595882Y-112432691D01*
X132603021Y-112434479D01*
X132609951Y-112436959D01*
X132616605Y-112440106D01*
X132622918Y-112443890D01*
X132628829Y-112448274D01*
X132634283Y-112453217D01*
X132639226Y-112458671D01*
X132643610Y-112464582D01*
X132647394Y-112470895D01*
X132650541Y-112477549D01*
X132653021Y-112484479D01*
X132654809Y-112491618D01*
X132655889Y-112498899D01*
X132656250Y-112506250D01*
X132656250Y-112656250D01*
X132655889Y-112663601D01*
X132654809Y-112670882D01*
X132653021Y-112678021D01*
X132650541Y-112684951D01*
X132647394Y-112691605D01*
X132643610Y-112697918D01*
X132639226Y-112703829D01*
X132634283Y-112709283D01*
X132628829Y-112714226D01*
X132622918Y-112718610D01*
X132616605Y-112722394D01*
X132609951Y-112725541D01*
X132603021Y-112728021D01*
X132595882Y-112729809D01*
X132588601Y-112730889D01*
X132581250Y-112731250D01*
X131181250Y-112731250D01*
X131173899Y-112730889D01*
X131166618Y-112729809D01*
X131159479Y-112728021D01*
X131152549Y-112725541D01*
X131145895Y-112722394D01*
X131139582Y-112718610D01*
X131133671Y-112714226D01*
X131128217Y-112709283D01*
X131123274Y-112703829D01*
X131118890Y-112697918D01*
X131115106Y-112691605D01*
X131111959Y-112684951D01*
X131109479Y-112678021D01*
X131107691Y-112670882D01*
X131106611Y-112663601D01*
X131106250Y-112656250D01*
X131106250Y-112506250D01*
X131106611Y-112498899D01*
X131107691Y-112491618D01*
X131109479Y-112484479D01*
X131111959Y-112477549D01*
X131115106Y-112470895D01*
X131118890Y-112464582D01*
X131123274Y-112458671D01*
X131128217Y-112453217D01*
X131133671Y-112448274D01*
X131139582Y-112443890D01*
X131145895Y-112440106D01*
X131152549Y-112436959D01*
X131159479Y-112434479D01*
X131166618Y-112432691D01*
X131173899Y-112431611D01*
X131181250Y-112431250D01*
X132581250Y-112431250D01*
X132588601Y-112431611D01*
X132588601Y-112431611D01*
G37*
D18*
X131881250Y-112581250D03*
D10*
G36*
X132588601Y-111931611D02*
G01*
X132595882Y-111932691D01*
X132603021Y-111934479D01*
X132609951Y-111936959D01*
X132616605Y-111940106D01*
X132622918Y-111943890D01*
X132628829Y-111948274D01*
X132634283Y-111953217D01*
X132639226Y-111958671D01*
X132643610Y-111964582D01*
X132647394Y-111970895D01*
X132650541Y-111977549D01*
X132653021Y-111984479D01*
X132654809Y-111991618D01*
X132655889Y-111998899D01*
X132656250Y-112006250D01*
X132656250Y-112156250D01*
X132655889Y-112163601D01*
X132654809Y-112170882D01*
X132653021Y-112178021D01*
X132650541Y-112184951D01*
X132647394Y-112191605D01*
X132643610Y-112197918D01*
X132639226Y-112203829D01*
X132634283Y-112209283D01*
X132628829Y-112214226D01*
X132622918Y-112218610D01*
X132616605Y-112222394D01*
X132609951Y-112225541D01*
X132603021Y-112228021D01*
X132595882Y-112229809D01*
X132588601Y-112230889D01*
X132581250Y-112231250D01*
X131181250Y-112231250D01*
X131173899Y-112230889D01*
X131166618Y-112229809D01*
X131159479Y-112228021D01*
X131152549Y-112225541D01*
X131145895Y-112222394D01*
X131139582Y-112218610D01*
X131133671Y-112214226D01*
X131128217Y-112209283D01*
X131123274Y-112203829D01*
X131118890Y-112197918D01*
X131115106Y-112191605D01*
X131111959Y-112184951D01*
X131109479Y-112178021D01*
X131107691Y-112170882D01*
X131106611Y-112163601D01*
X131106250Y-112156250D01*
X131106250Y-112006250D01*
X131106611Y-111998899D01*
X131107691Y-111991618D01*
X131109479Y-111984479D01*
X131111959Y-111977549D01*
X131115106Y-111970895D01*
X131118890Y-111964582D01*
X131123274Y-111958671D01*
X131128217Y-111953217D01*
X131133671Y-111948274D01*
X131139582Y-111943890D01*
X131145895Y-111940106D01*
X131152549Y-111936959D01*
X131159479Y-111934479D01*
X131166618Y-111932691D01*
X131173899Y-111931611D01*
X131181250Y-111931250D01*
X132581250Y-111931250D01*
X132588601Y-111931611D01*
X132588601Y-111931611D01*
G37*
D18*
X131881250Y-112081250D03*
D10*
G36*
X132588601Y-111431611D02*
G01*
X132595882Y-111432691D01*
X132603021Y-111434479D01*
X132609951Y-111436959D01*
X132616605Y-111440106D01*
X132622918Y-111443890D01*
X132628829Y-111448274D01*
X132634283Y-111453217D01*
X132639226Y-111458671D01*
X132643610Y-111464582D01*
X132647394Y-111470895D01*
X132650541Y-111477549D01*
X132653021Y-111484479D01*
X132654809Y-111491618D01*
X132655889Y-111498899D01*
X132656250Y-111506250D01*
X132656250Y-111656250D01*
X132655889Y-111663601D01*
X132654809Y-111670882D01*
X132653021Y-111678021D01*
X132650541Y-111684951D01*
X132647394Y-111691605D01*
X132643610Y-111697918D01*
X132639226Y-111703829D01*
X132634283Y-111709283D01*
X132628829Y-111714226D01*
X132622918Y-111718610D01*
X132616605Y-111722394D01*
X132609951Y-111725541D01*
X132603021Y-111728021D01*
X132595882Y-111729809D01*
X132588601Y-111730889D01*
X132581250Y-111731250D01*
X131181250Y-111731250D01*
X131173899Y-111730889D01*
X131166618Y-111729809D01*
X131159479Y-111728021D01*
X131152549Y-111725541D01*
X131145895Y-111722394D01*
X131139582Y-111718610D01*
X131133671Y-111714226D01*
X131128217Y-111709283D01*
X131123274Y-111703829D01*
X131118890Y-111697918D01*
X131115106Y-111691605D01*
X131111959Y-111684951D01*
X131109479Y-111678021D01*
X131107691Y-111670882D01*
X131106611Y-111663601D01*
X131106250Y-111656250D01*
X131106250Y-111506250D01*
X131106611Y-111498899D01*
X131107691Y-111491618D01*
X131109479Y-111484479D01*
X131111959Y-111477549D01*
X131115106Y-111470895D01*
X131118890Y-111464582D01*
X131123274Y-111458671D01*
X131128217Y-111453217D01*
X131133671Y-111448274D01*
X131139582Y-111443890D01*
X131145895Y-111440106D01*
X131152549Y-111436959D01*
X131159479Y-111434479D01*
X131166618Y-111432691D01*
X131173899Y-111431611D01*
X131181250Y-111431250D01*
X132581250Y-111431250D01*
X132588601Y-111431611D01*
X132588601Y-111431611D01*
G37*
D18*
X131881250Y-111581250D03*
D10*
G36*
X132588601Y-110931611D02*
G01*
X132595882Y-110932691D01*
X132603021Y-110934479D01*
X132609951Y-110936959D01*
X132616605Y-110940106D01*
X132622918Y-110943890D01*
X132628829Y-110948274D01*
X132634283Y-110953217D01*
X132639226Y-110958671D01*
X132643610Y-110964582D01*
X132647394Y-110970895D01*
X132650541Y-110977549D01*
X132653021Y-110984479D01*
X132654809Y-110991618D01*
X132655889Y-110998899D01*
X132656250Y-111006250D01*
X132656250Y-111156250D01*
X132655889Y-111163601D01*
X132654809Y-111170882D01*
X132653021Y-111178021D01*
X132650541Y-111184951D01*
X132647394Y-111191605D01*
X132643610Y-111197918D01*
X132639226Y-111203829D01*
X132634283Y-111209283D01*
X132628829Y-111214226D01*
X132622918Y-111218610D01*
X132616605Y-111222394D01*
X132609951Y-111225541D01*
X132603021Y-111228021D01*
X132595882Y-111229809D01*
X132588601Y-111230889D01*
X132581250Y-111231250D01*
X131181250Y-111231250D01*
X131173899Y-111230889D01*
X131166618Y-111229809D01*
X131159479Y-111228021D01*
X131152549Y-111225541D01*
X131145895Y-111222394D01*
X131139582Y-111218610D01*
X131133671Y-111214226D01*
X131128217Y-111209283D01*
X131123274Y-111203829D01*
X131118890Y-111197918D01*
X131115106Y-111191605D01*
X131111959Y-111184951D01*
X131109479Y-111178021D01*
X131107691Y-111170882D01*
X131106611Y-111163601D01*
X131106250Y-111156250D01*
X131106250Y-111006250D01*
X131106611Y-110998899D01*
X131107691Y-110991618D01*
X131109479Y-110984479D01*
X131111959Y-110977549D01*
X131115106Y-110970895D01*
X131118890Y-110964582D01*
X131123274Y-110958671D01*
X131128217Y-110953217D01*
X131133671Y-110948274D01*
X131139582Y-110943890D01*
X131145895Y-110940106D01*
X131152549Y-110936959D01*
X131159479Y-110934479D01*
X131166618Y-110932691D01*
X131173899Y-110931611D01*
X131181250Y-110931250D01*
X132581250Y-110931250D01*
X132588601Y-110931611D01*
X132588601Y-110931611D01*
G37*
D18*
X131881250Y-111081250D03*
D10*
G36*
X132588601Y-110431611D02*
G01*
X132595882Y-110432691D01*
X132603021Y-110434479D01*
X132609951Y-110436959D01*
X132616605Y-110440106D01*
X132622918Y-110443890D01*
X132628829Y-110448274D01*
X132634283Y-110453217D01*
X132639226Y-110458671D01*
X132643610Y-110464582D01*
X132647394Y-110470895D01*
X132650541Y-110477549D01*
X132653021Y-110484479D01*
X132654809Y-110491618D01*
X132655889Y-110498899D01*
X132656250Y-110506250D01*
X132656250Y-110656250D01*
X132655889Y-110663601D01*
X132654809Y-110670882D01*
X132653021Y-110678021D01*
X132650541Y-110684951D01*
X132647394Y-110691605D01*
X132643610Y-110697918D01*
X132639226Y-110703829D01*
X132634283Y-110709283D01*
X132628829Y-110714226D01*
X132622918Y-110718610D01*
X132616605Y-110722394D01*
X132609951Y-110725541D01*
X132603021Y-110728021D01*
X132595882Y-110729809D01*
X132588601Y-110730889D01*
X132581250Y-110731250D01*
X131181250Y-110731250D01*
X131173899Y-110730889D01*
X131166618Y-110729809D01*
X131159479Y-110728021D01*
X131152549Y-110725541D01*
X131145895Y-110722394D01*
X131139582Y-110718610D01*
X131133671Y-110714226D01*
X131128217Y-110709283D01*
X131123274Y-110703829D01*
X131118890Y-110697918D01*
X131115106Y-110691605D01*
X131111959Y-110684951D01*
X131109479Y-110678021D01*
X131107691Y-110670882D01*
X131106611Y-110663601D01*
X131106250Y-110656250D01*
X131106250Y-110506250D01*
X131106611Y-110498899D01*
X131107691Y-110491618D01*
X131109479Y-110484479D01*
X131111959Y-110477549D01*
X131115106Y-110470895D01*
X131118890Y-110464582D01*
X131123274Y-110458671D01*
X131128217Y-110453217D01*
X131133671Y-110448274D01*
X131139582Y-110443890D01*
X131145895Y-110440106D01*
X131152549Y-110436959D01*
X131159479Y-110434479D01*
X131166618Y-110432691D01*
X131173899Y-110431611D01*
X131181250Y-110431250D01*
X132581250Y-110431250D01*
X132588601Y-110431611D01*
X132588601Y-110431611D01*
G37*
D18*
X131881250Y-110581250D03*
D10*
G36*
X132588601Y-109931611D02*
G01*
X132595882Y-109932691D01*
X132603021Y-109934479D01*
X132609951Y-109936959D01*
X132616605Y-109940106D01*
X132622918Y-109943890D01*
X132628829Y-109948274D01*
X132634283Y-109953217D01*
X132639226Y-109958671D01*
X132643610Y-109964582D01*
X132647394Y-109970895D01*
X132650541Y-109977549D01*
X132653021Y-109984479D01*
X132654809Y-109991618D01*
X132655889Y-109998899D01*
X132656250Y-110006250D01*
X132656250Y-110156250D01*
X132655889Y-110163601D01*
X132654809Y-110170882D01*
X132653021Y-110178021D01*
X132650541Y-110184951D01*
X132647394Y-110191605D01*
X132643610Y-110197918D01*
X132639226Y-110203829D01*
X132634283Y-110209283D01*
X132628829Y-110214226D01*
X132622918Y-110218610D01*
X132616605Y-110222394D01*
X132609951Y-110225541D01*
X132603021Y-110228021D01*
X132595882Y-110229809D01*
X132588601Y-110230889D01*
X132581250Y-110231250D01*
X131181250Y-110231250D01*
X131173899Y-110230889D01*
X131166618Y-110229809D01*
X131159479Y-110228021D01*
X131152549Y-110225541D01*
X131145895Y-110222394D01*
X131139582Y-110218610D01*
X131133671Y-110214226D01*
X131128217Y-110209283D01*
X131123274Y-110203829D01*
X131118890Y-110197918D01*
X131115106Y-110191605D01*
X131111959Y-110184951D01*
X131109479Y-110178021D01*
X131107691Y-110170882D01*
X131106611Y-110163601D01*
X131106250Y-110156250D01*
X131106250Y-110006250D01*
X131106611Y-109998899D01*
X131107691Y-109991618D01*
X131109479Y-109984479D01*
X131111959Y-109977549D01*
X131115106Y-109970895D01*
X131118890Y-109964582D01*
X131123274Y-109958671D01*
X131128217Y-109953217D01*
X131133671Y-109948274D01*
X131139582Y-109943890D01*
X131145895Y-109940106D01*
X131152549Y-109936959D01*
X131159479Y-109934479D01*
X131166618Y-109932691D01*
X131173899Y-109931611D01*
X131181250Y-109931250D01*
X132581250Y-109931250D01*
X132588601Y-109931611D01*
X132588601Y-109931611D01*
G37*
D18*
X131881250Y-110081250D03*
D10*
G36*
X132588601Y-109431611D02*
G01*
X132595882Y-109432691D01*
X132603021Y-109434479D01*
X132609951Y-109436959D01*
X132616605Y-109440106D01*
X132622918Y-109443890D01*
X132628829Y-109448274D01*
X132634283Y-109453217D01*
X132639226Y-109458671D01*
X132643610Y-109464582D01*
X132647394Y-109470895D01*
X132650541Y-109477549D01*
X132653021Y-109484479D01*
X132654809Y-109491618D01*
X132655889Y-109498899D01*
X132656250Y-109506250D01*
X132656250Y-109656250D01*
X132655889Y-109663601D01*
X132654809Y-109670882D01*
X132653021Y-109678021D01*
X132650541Y-109684951D01*
X132647394Y-109691605D01*
X132643610Y-109697918D01*
X132639226Y-109703829D01*
X132634283Y-109709283D01*
X132628829Y-109714226D01*
X132622918Y-109718610D01*
X132616605Y-109722394D01*
X132609951Y-109725541D01*
X132603021Y-109728021D01*
X132595882Y-109729809D01*
X132588601Y-109730889D01*
X132581250Y-109731250D01*
X131181250Y-109731250D01*
X131173899Y-109730889D01*
X131166618Y-109729809D01*
X131159479Y-109728021D01*
X131152549Y-109725541D01*
X131145895Y-109722394D01*
X131139582Y-109718610D01*
X131133671Y-109714226D01*
X131128217Y-109709283D01*
X131123274Y-109703829D01*
X131118890Y-109697918D01*
X131115106Y-109691605D01*
X131111959Y-109684951D01*
X131109479Y-109678021D01*
X131107691Y-109670882D01*
X131106611Y-109663601D01*
X131106250Y-109656250D01*
X131106250Y-109506250D01*
X131106611Y-109498899D01*
X131107691Y-109491618D01*
X131109479Y-109484479D01*
X131111959Y-109477549D01*
X131115106Y-109470895D01*
X131118890Y-109464582D01*
X131123274Y-109458671D01*
X131128217Y-109453217D01*
X131133671Y-109448274D01*
X131139582Y-109443890D01*
X131145895Y-109440106D01*
X131152549Y-109436959D01*
X131159479Y-109434479D01*
X131166618Y-109432691D01*
X131173899Y-109431611D01*
X131181250Y-109431250D01*
X132581250Y-109431250D01*
X132588601Y-109431611D01*
X132588601Y-109431611D01*
G37*
D18*
X131881250Y-109581250D03*
D10*
G36*
X132588601Y-108931611D02*
G01*
X132595882Y-108932691D01*
X132603021Y-108934479D01*
X132609951Y-108936959D01*
X132616605Y-108940106D01*
X132622918Y-108943890D01*
X132628829Y-108948274D01*
X132634283Y-108953217D01*
X132639226Y-108958671D01*
X132643610Y-108964582D01*
X132647394Y-108970895D01*
X132650541Y-108977549D01*
X132653021Y-108984479D01*
X132654809Y-108991618D01*
X132655889Y-108998899D01*
X132656250Y-109006250D01*
X132656250Y-109156250D01*
X132655889Y-109163601D01*
X132654809Y-109170882D01*
X132653021Y-109178021D01*
X132650541Y-109184951D01*
X132647394Y-109191605D01*
X132643610Y-109197918D01*
X132639226Y-109203829D01*
X132634283Y-109209283D01*
X132628829Y-109214226D01*
X132622918Y-109218610D01*
X132616605Y-109222394D01*
X132609951Y-109225541D01*
X132603021Y-109228021D01*
X132595882Y-109229809D01*
X132588601Y-109230889D01*
X132581250Y-109231250D01*
X131181250Y-109231250D01*
X131173899Y-109230889D01*
X131166618Y-109229809D01*
X131159479Y-109228021D01*
X131152549Y-109225541D01*
X131145895Y-109222394D01*
X131139582Y-109218610D01*
X131133671Y-109214226D01*
X131128217Y-109209283D01*
X131123274Y-109203829D01*
X131118890Y-109197918D01*
X131115106Y-109191605D01*
X131111959Y-109184951D01*
X131109479Y-109178021D01*
X131107691Y-109170882D01*
X131106611Y-109163601D01*
X131106250Y-109156250D01*
X131106250Y-109006250D01*
X131106611Y-108998899D01*
X131107691Y-108991618D01*
X131109479Y-108984479D01*
X131111959Y-108977549D01*
X131115106Y-108970895D01*
X131118890Y-108964582D01*
X131123274Y-108958671D01*
X131128217Y-108953217D01*
X131133671Y-108948274D01*
X131139582Y-108943890D01*
X131145895Y-108940106D01*
X131152549Y-108936959D01*
X131159479Y-108934479D01*
X131166618Y-108932691D01*
X131173899Y-108931611D01*
X131181250Y-108931250D01*
X132581250Y-108931250D01*
X132588601Y-108931611D01*
X132588601Y-108931611D01*
G37*
D18*
X131881250Y-109081250D03*
D10*
G36*
X132588601Y-108431611D02*
G01*
X132595882Y-108432691D01*
X132603021Y-108434479D01*
X132609951Y-108436959D01*
X132616605Y-108440106D01*
X132622918Y-108443890D01*
X132628829Y-108448274D01*
X132634283Y-108453217D01*
X132639226Y-108458671D01*
X132643610Y-108464582D01*
X132647394Y-108470895D01*
X132650541Y-108477549D01*
X132653021Y-108484479D01*
X132654809Y-108491618D01*
X132655889Y-108498899D01*
X132656250Y-108506250D01*
X132656250Y-108656250D01*
X132655889Y-108663601D01*
X132654809Y-108670882D01*
X132653021Y-108678021D01*
X132650541Y-108684951D01*
X132647394Y-108691605D01*
X132643610Y-108697918D01*
X132639226Y-108703829D01*
X132634283Y-108709283D01*
X132628829Y-108714226D01*
X132622918Y-108718610D01*
X132616605Y-108722394D01*
X132609951Y-108725541D01*
X132603021Y-108728021D01*
X132595882Y-108729809D01*
X132588601Y-108730889D01*
X132581250Y-108731250D01*
X131181250Y-108731250D01*
X131173899Y-108730889D01*
X131166618Y-108729809D01*
X131159479Y-108728021D01*
X131152549Y-108725541D01*
X131145895Y-108722394D01*
X131139582Y-108718610D01*
X131133671Y-108714226D01*
X131128217Y-108709283D01*
X131123274Y-108703829D01*
X131118890Y-108697918D01*
X131115106Y-108691605D01*
X131111959Y-108684951D01*
X131109479Y-108678021D01*
X131107691Y-108670882D01*
X131106611Y-108663601D01*
X131106250Y-108656250D01*
X131106250Y-108506250D01*
X131106611Y-108498899D01*
X131107691Y-108491618D01*
X131109479Y-108484479D01*
X131111959Y-108477549D01*
X131115106Y-108470895D01*
X131118890Y-108464582D01*
X131123274Y-108458671D01*
X131128217Y-108453217D01*
X131133671Y-108448274D01*
X131139582Y-108443890D01*
X131145895Y-108440106D01*
X131152549Y-108436959D01*
X131159479Y-108434479D01*
X131166618Y-108432691D01*
X131173899Y-108431611D01*
X131181250Y-108431250D01*
X132581250Y-108431250D01*
X132588601Y-108431611D01*
X132588601Y-108431611D01*
G37*
D18*
X131881250Y-108581250D03*
D10*
G36*
X132588601Y-107931611D02*
G01*
X132595882Y-107932691D01*
X132603021Y-107934479D01*
X132609951Y-107936959D01*
X132616605Y-107940106D01*
X132622918Y-107943890D01*
X132628829Y-107948274D01*
X132634283Y-107953217D01*
X132639226Y-107958671D01*
X132643610Y-107964582D01*
X132647394Y-107970895D01*
X132650541Y-107977549D01*
X132653021Y-107984479D01*
X132654809Y-107991618D01*
X132655889Y-107998899D01*
X132656250Y-108006250D01*
X132656250Y-108156250D01*
X132655889Y-108163601D01*
X132654809Y-108170882D01*
X132653021Y-108178021D01*
X132650541Y-108184951D01*
X132647394Y-108191605D01*
X132643610Y-108197918D01*
X132639226Y-108203829D01*
X132634283Y-108209283D01*
X132628829Y-108214226D01*
X132622918Y-108218610D01*
X132616605Y-108222394D01*
X132609951Y-108225541D01*
X132603021Y-108228021D01*
X132595882Y-108229809D01*
X132588601Y-108230889D01*
X132581250Y-108231250D01*
X131181250Y-108231250D01*
X131173899Y-108230889D01*
X131166618Y-108229809D01*
X131159479Y-108228021D01*
X131152549Y-108225541D01*
X131145895Y-108222394D01*
X131139582Y-108218610D01*
X131133671Y-108214226D01*
X131128217Y-108209283D01*
X131123274Y-108203829D01*
X131118890Y-108197918D01*
X131115106Y-108191605D01*
X131111959Y-108184951D01*
X131109479Y-108178021D01*
X131107691Y-108170882D01*
X131106611Y-108163601D01*
X131106250Y-108156250D01*
X131106250Y-108006250D01*
X131106611Y-107998899D01*
X131107691Y-107991618D01*
X131109479Y-107984479D01*
X131111959Y-107977549D01*
X131115106Y-107970895D01*
X131118890Y-107964582D01*
X131123274Y-107958671D01*
X131128217Y-107953217D01*
X131133671Y-107948274D01*
X131139582Y-107943890D01*
X131145895Y-107940106D01*
X131152549Y-107936959D01*
X131159479Y-107934479D01*
X131166618Y-107932691D01*
X131173899Y-107931611D01*
X131181250Y-107931250D01*
X132581250Y-107931250D01*
X132588601Y-107931611D01*
X132588601Y-107931611D01*
G37*
D18*
X131881250Y-108081250D03*
D10*
G36*
X132588601Y-107431611D02*
G01*
X132595882Y-107432691D01*
X132603021Y-107434479D01*
X132609951Y-107436959D01*
X132616605Y-107440106D01*
X132622918Y-107443890D01*
X132628829Y-107448274D01*
X132634283Y-107453217D01*
X132639226Y-107458671D01*
X132643610Y-107464582D01*
X132647394Y-107470895D01*
X132650541Y-107477549D01*
X132653021Y-107484479D01*
X132654809Y-107491618D01*
X132655889Y-107498899D01*
X132656250Y-107506250D01*
X132656250Y-107656250D01*
X132655889Y-107663601D01*
X132654809Y-107670882D01*
X132653021Y-107678021D01*
X132650541Y-107684951D01*
X132647394Y-107691605D01*
X132643610Y-107697918D01*
X132639226Y-107703829D01*
X132634283Y-107709283D01*
X132628829Y-107714226D01*
X132622918Y-107718610D01*
X132616605Y-107722394D01*
X132609951Y-107725541D01*
X132603021Y-107728021D01*
X132595882Y-107729809D01*
X132588601Y-107730889D01*
X132581250Y-107731250D01*
X131181250Y-107731250D01*
X131173899Y-107730889D01*
X131166618Y-107729809D01*
X131159479Y-107728021D01*
X131152549Y-107725541D01*
X131145895Y-107722394D01*
X131139582Y-107718610D01*
X131133671Y-107714226D01*
X131128217Y-107709283D01*
X131123274Y-107703829D01*
X131118890Y-107697918D01*
X131115106Y-107691605D01*
X131111959Y-107684951D01*
X131109479Y-107678021D01*
X131107691Y-107670882D01*
X131106611Y-107663601D01*
X131106250Y-107656250D01*
X131106250Y-107506250D01*
X131106611Y-107498899D01*
X131107691Y-107491618D01*
X131109479Y-107484479D01*
X131111959Y-107477549D01*
X131115106Y-107470895D01*
X131118890Y-107464582D01*
X131123274Y-107458671D01*
X131128217Y-107453217D01*
X131133671Y-107448274D01*
X131139582Y-107443890D01*
X131145895Y-107440106D01*
X131152549Y-107436959D01*
X131159479Y-107434479D01*
X131166618Y-107432691D01*
X131173899Y-107431611D01*
X131181250Y-107431250D01*
X132581250Y-107431250D01*
X132588601Y-107431611D01*
X132588601Y-107431611D01*
G37*
D18*
X131881250Y-107581250D03*
D10*
G36*
X132588601Y-106931611D02*
G01*
X132595882Y-106932691D01*
X132603021Y-106934479D01*
X132609951Y-106936959D01*
X132616605Y-106940106D01*
X132622918Y-106943890D01*
X132628829Y-106948274D01*
X132634283Y-106953217D01*
X132639226Y-106958671D01*
X132643610Y-106964582D01*
X132647394Y-106970895D01*
X132650541Y-106977549D01*
X132653021Y-106984479D01*
X132654809Y-106991618D01*
X132655889Y-106998899D01*
X132656250Y-107006250D01*
X132656250Y-107156250D01*
X132655889Y-107163601D01*
X132654809Y-107170882D01*
X132653021Y-107178021D01*
X132650541Y-107184951D01*
X132647394Y-107191605D01*
X132643610Y-107197918D01*
X132639226Y-107203829D01*
X132634283Y-107209283D01*
X132628829Y-107214226D01*
X132622918Y-107218610D01*
X132616605Y-107222394D01*
X132609951Y-107225541D01*
X132603021Y-107228021D01*
X132595882Y-107229809D01*
X132588601Y-107230889D01*
X132581250Y-107231250D01*
X131181250Y-107231250D01*
X131173899Y-107230889D01*
X131166618Y-107229809D01*
X131159479Y-107228021D01*
X131152549Y-107225541D01*
X131145895Y-107222394D01*
X131139582Y-107218610D01*
X131133671Y-107214226D01*
X131128217Y-107209283D01*
X131123274Y-107203829D01*
X131118890Y-107197918D01*
X131115106Y-107191605D01*
X131111959Y-107184951D01*
X131109479Y-107178021D01*
X131107691Y-107170882D01*
X131106611Y-107163601D01*
X131106250Y-107156250D01*
X131106250Y-107006250D01*
X131106611Y-106998899D01*
X131107691Y-106991618D01*
X131109479Y-106984479D01*
X131111959Y-106977549D01*
X131115106Y-106970895D01*
X131118890Y-106964582D01*
X131123274Y-106958671D01*
X131128217Y-106953217D01*
X131133671Y-106948274D01*
X131139582Y-106943890D01*
X131145895Y-106940106D01*
X131152549Y-106936959D01*
X131159479Y-106934479D01*
X131166618Y-106932691D01*
X131173899Y-106931611D01*
X131181250Y-106931250D01*
X132581250Y-106931250D01*
X132588601Y-106931611D01*
X132588601Y-106931611D01*
G37*
D18*
X131881250Y-107081250D03*
D10*
G36*
X132588601Y-106431611D02*
G01*
X132595882Y-106432691D01*
X132603021Y-106434479D01*
X132609951Y-106436959D01*
X132616605Y-106440106D01*
X132622918Y-106443890D01*
X132628829Y-106448274D01*
X132634283Y-106453217D01*
X132639226Y-106458671D01*
X132643610Y-106464582D01*
X132647394Y-106470895D01*
X132650541Y-106477549D01*
X132653021Y-106484479D01*
X132654809Y-106491618D01*
X132655889Y-106498899D01*
X132656250Y-106506250D01*
X132656250Y-106656250D01*
X132655889Y-106663601D01*
X132654809Y-106670882D01*
X132653021Y-106678021D01*
X132650541Y-106684951D01*
X132647394Y-106691605D01*
X132643610Y-106697918D01*
X132639226Y-106703829D01*
X132634283Y-106709283D01*
X132628829Y-106714226D01*
X132622918Y-106718610D01*
X132616605Y-106722394D01*
X132609951Y-106725541D01*
X132603021Y-106728021D01*
X132595882Y-106729809D01*
X132588601Y-106730889D01*
X132581250Y-106731250D01*
X131181250Y-106731250D01*
X131173899Y-106730889D01*
X131166618Y-106729809D01*
X131159479Y-106728021D01*
X131152549Y-106725541D01*
X131145895Y-106722394D01*
X131139582Y-106718610D01*
X131133671Y-106714226D01*
X131128217Y-106709283D01*
X131123274Y-106703829D01*
X131118890Y-106697918D01*
X131115106Y-106691605D01*
X131111959Y-106684951D01*
X131109479Y-106678021D01*
X131107691Y-106670882D01*
X131106611Y-106663601D01*
X131106250Y-106656250D01*
X131106250Y-106506250D01*
X131106611Y-106498899D01*
X131107691Y-106491618D01*
X131109479Y-106484479D01*
X131111959Y-106477549D01*
X131115106Y-106470895D01*
X131118890Y-106464582D01*
X131123274Y-106458671D01*
X131128217Y-106453217D01*
X131133671Y-106448274D01*
X131139582Y-106443890D01*
X131145895Y-106440106D01*
X131152549Y-106436959D01*
X131159479Y-106434479D01*
X131166618Y-106432691D01*
X131173899Y-106431611D01*
X131181250Y-106431250D01*
X132581250Y-106431250D01*
X132588601Y-106431611D01*
X132588601Y-106431611D01*
G37*
D18*
X131881250Y-106581250D03*
D10*
G36*
X130038601Y-103881611D02*
G01*
X130045882Y-103882691D01*
X130053021Y-103884479D01*
X130059951Y-103886959D01*
X130066605Y-103890106D01*
X130072918Y-103893890D01*
X130078829Y-103898274D01*
X130084283Y-103903217D01*
X130089226Y-103908671D01*
X130093610Y-103914582D01*
X130097394Y-103920895D01*
X130100541Y-103927549D01*
X130103021Y-103934479D01*
X130104809Y-103941618D01*
X130105889Y-103948899D01*
X130106250Y-103956250D01*
X130106250Y-105356250D01*
X130105889Y-105363601D01*
X130104809Y-105370882D01*
X130103021Y-105378021D01*
X130100541Y-105384951D01*
X130097394Y-105391605D01*
X130093610Y-105397918D01*
X130089226Y-105403829D01*
X130084283Y-105409283D01*
X130078829Y-105414226D01*
X130072918Y-105418610D01*
X130066605Y-105422394D01*
X130059951Y-105425541D01*
X130053021Y-105428021D01*
X130045882Y-105429809D01*
X130038601Y-105430889D01*
X130031250Y-105431250D01*
X129881250Y-105431250D01*
X129873899Y-105430889D01*
X129866618Y-105429809D01*
X129859479Y-105428021D01*
X129852549Y-105425541D01*
X129845895Y-105422394D01*
X129839582Y-105418610D01*
X129833671Y-105414226D01*
X129828217Y-105409283D01*
X129823274Y-105403829D01*
X129818890Y-105397918D01*
X129815106Y-105391605D01*
X129811959Y-105384951D01*
X129809479Y-105378021D01*
X129807691Y-105370882D01*
X129806611Y-105363601D01*
X129806250Y-105356250D01*
X129806250Y-103956250D01*
X129806611Y-103948899D01*
X129807691Y-103941618D01*
X129809479Y-103934479D01*
X129811959Y-103927549D01*
X129815106Y-103920895D01*
X129818890Y-103914582D01*
X129823274Y-103908671D01*
X129828217Y-103903217D01*
X129833671Y-103898274D01*
X129839582Y-103893890D01*
X129845895Y-103890106D01*
X129852549Y-103886959D01*
X129859479Y-103884479D01*
X129866618Y-103882691D01*
X129873899Y-103881611D01*
X129881250Y-103881250D01*
X130031250Y-103881250D01*
X130038601Y-103881611D01*
X130038601Y-103881611D01*
G37*
D18*
X129956250Y-104656250D03*
D10*
G36*
X129538601Y-103881611D02*
G01*
X129545882Y-103882691D01*
X129553021Y-103884479D01*
X129559951Y-103886959D01*
X129566605Y-103890106D01*
X129572918Y-103893890D01*
X129578829Y-103898274D01*
X129584283Y-103903217D01*
X129589226Y-103908671D01*
X129593610Y-103914582D01*
X129597394Y-103920895D01*
X129600541Y-103927549D01*
X129603021Y-103934479D01*
X129604809Y-103941618D01*
X129605889Y-103948899D01*
X129606250Y-103956250D01*
X129606250Y-105356250D01*
X129605889Y-105363601D01*
X129604809Y-105370882D01*
X129603021Y-105378021D01*
X129600541Y-105384951D01*
X129597394Y-105391605D01*
X129593610Y-105397918D01*
X129589226Y-105403829D01*
X129584283Y-105409283D01*
X129578829Y-105414226D01*
X129572918Y-105418610D01*
X129566605Y-105422394D01*
X129559951Y-105425541D01*
X129553021Y-105428021D01*
X129545882Y-105429809D01*
X129538601Y-105430889D01*
X129531250Y-105431250D01*
X129381250Y-105431250D01*
X129373899Y-105430889D01*
X129366618Y-105429809D01*
X129359479Y-105428021D01*
X129352549Y-105425541D01*
X129345895Y-105422394D01*
X129339582Y-105418610D01*
X129333671Y-105414226D01*
X129328217Y-105409283D01*
X129323274Y-105403829D01*
X129318890Y-105397918D01*
X129315106Y-105391605D01*
X129311959Y-105384951D01*
X129309479Y-105378021D01*
X129307691Y-105370882D01*
X129306611Y-105363601D01*
X129306250Y-105356250D01*
X129306250Y-103956250D01*
X129306611Y-103948899D01*
X129307691Y-103941618D01*
X129309479Y-103934479D01*
X129311959Y-103927549D01*
X129315106Y-103920895D01*
X129318890Y-103914582D01*
X129323274Y-103908671D01*
X129328217Y-103903217D01*
X129333671Y-103898274D01*
X129339582Y-103893890D01*
X129345895Y-103890106D01*
X129352549Y-103886959D01*
X129359479Y-103884479D01*
X129366618Y-103882691D01*
X129373899Y-103881611D01*
X129381250Y-103881250D01*
X129531250Y-103881250D01*
X129538601Y-103881611D01*
X129538601Y-103881611D01*
G37*
D18*
X129456250Y-104656250D03*
D10*
G36*
X129038601Y-103881611D02*
G01*
X129045882Y-103882691D01*
X129053021Y-103884479D01*
X129059951Y-103886959D01*
X129066605Y-103890106D01*
X129072918Y-103893890D01*
X129078829Y-103898274D01*
X129084283Y-103903217D01*
X129089226Y-103908671D01*
X129093610Y-103914582D01*
X129097394Y-103920895D01*
X129100541Y-103927549D01*
X129103021Y-103934479D01*
X129104809Y-103941618D01*
X129105889Y-103948899D01*
X129106250Y-103956250D01*
X129106250Y-105356250D01*
X129105889Y-105363601D01*
X129104809Y-105370882D01*
X129103021Y-105378021D01*
X129100541Y-105384951D01*
X129097394Y-105391605D01*
X129093610Y-105397918D01*
X129089226Y-105403829D01*
X129084283Y-105409283D01*
X129078829Y-105414226D01*
X129072918Y-105418610D01*
X129066605Y-105422394D01*
X129059951Y-105425541D01*
X129053021Y-105428021D01*
X129045882Y-105429809D01*
X129038601Y-105430889D01*
X129031250Y-105431250D01*
X128881250Y-105431250D01*
X128873899Y-105430889D01*
X128866618Y-105429809D01*
X128859479Y-105428021D01*
X128852549Y-105425541D01*
X128845895Y-105422394D01*
X128839582Y-105418610D01*
X128833671Y-105414226D01*
X128828217Y-105409283D01*
X128823274Y-105403829D01*
X128818890Y-105397918D01*
X128815106Y-105391605D01*
X128811959Y-105384951D01*
X128809479Y-105378021D01*
X128807691Y-105370882D01*
X128806611Y-105363601D01*
X128806250Y-105356250D01*
X128806250Y-103956250D01*
X128806611Y-103948899D01*
X128807691Y-103941618D01*
X128809479Y-103934479D01*
X128811959Y-103927549D01*
X128815106Y-103920895D01*
X128818890Y-103914582D01*
X128823274Y-103908671D01*
X128828217Y-103903217D01*
X128833671Y-103898274D01*
X128839582Y-103893890D01*
X128845895Y-103890106D01*
X128852549Y-103886959D01*
X128859479Y-103884479D01*
X128866618Y-103882691D01*
X128873899Y-103881611D01*
X128881250Y-103881250D01*
X129031250Y-103881250D01*
X129038601Y-103881611D01*
X129038601Y-103881611D01*
G37*
D18*
X128956250Y-104656250D03*
D10*
G36*
X128538601Y-103881611D02*
G01*
X128545882Y-103882691D01*
X128553021Y-103884479D01*
X128559951Y-103886959D01*
X128566605Y-103890106D01*
X128572918Y-103893890D01*
X128578829Y-103898274D01*
X128584283Y-103903217D01*
X128589226Y-103908671D01*
X128593610Y-103914582D01*
X128597394Y-103920895D01*
X128600541Y-103927549D01*
X128603021Y-103934479D01*
X128604809Y-103941618D01*
X128605889Y-103948899D01*
X128606250Y-103956250D01*
X128606250Y-105356250D01*
X128605889Y-105363601D01*
X128604809Y-105370882D01*
X128603021Y-105378021D01*
X128600541Y-105384951D01*
X128597394Y-105391605D01*
X128593610Y-105397918D01*
X128589226Y-105403829D01*
X128584283Y-105409283D01*
X128578829Y-105414226D01*
X128572918Y-105418610D01*
X128566605Y-105422394D01*
X128559951Y-105425541D01*
X128553021Y-105428021D01*
X128545882Y-105429809D01*
X128538601Y-105430889D01*
X128531250Y-105431250D01*
X128381250Y-105431250D01*
X128373899Y-105430889D01*
X128366618Y-105429809D01*
X128359479Y-105428021D01*
X128352549Y-105425541D01*
X128345895Y-105422394D01*
X128339582Y-105418610D01*
X128333671Y-105414226D01*
X128328217Y-105409283D01*
X128323274Y-105403829D01*
X128318890Y-105397918D01*
X128315106Y-105391605D01*
X128311959Y-105384951D01*
X128309479Y-105378021D01*
X128307691Y-105370882D01*
X128306611Y-105363601D01*
X128306250Y-105356250D01*
X128306250Y-103956250D01*
X128306611Y-103948899D01*
X128307691Y-103941618D01*
X128309479Y-103934479D01*
X128311959Y-103927549D01*
X128315106Y-103920895D01*
X128318890Y-103914582D01*
X128323274Y-103908671D01*
X128328217Y-103903217D01*
X128333671Y-103898274D01*
X128339582Y-103893890D01*
X128345895Y-103890106D01*
X128352549Y-103886959D01*
X128359479Y-103884479D01*
X128366618Y-103882691D01*
X128373899Y-103881611D01*
X128381250Y-103881250D01*
X128531250Y-103881250D01*
X128538601Y-103881611D01*
X128538601Y-103881611D01*
G37*
D18*
X128456250Y-104656250D03*
D10*
G36*
X128038601Y-103881611D02*
G01*
X128045882Y-103882691D01*
X128053021Y-103884479D01*
X128059951Y-103886959D01*
X128066605Y-103890106D01*
X128072918Y-103893890D01*
X128078829Y-103898274D01*
X128084283Y-103903217D01*
X128089226Y-103908671D01*
X128093610Y-103914582D01*
X128097394Y-103920895D01*
X128100541Y-103927549D01*
X128103021Y-103934479D01*
X128104809Y-103941618D01*
X128105889Y-103948899D01*
X128106250Y-103956250D01*
X128106250Y-105356250D01*
X128105889Y-105363601D01*
X128104809Y-105370882D01*
X128103021Y-105378021D01*
X128100541Y-105384951D01*
X128097394Y-105391605D01*
X128093610Y-105397918D01*
X128089226Y-105403829D01*
X128084283Y-105409283D01*
X128078829Y-105414226D01*
X128072918Y-105418610D01*
X128066605Y-105422394D01*
X128059951Y-105425541D01*
X128053021Y-105428021D01*
X128045882Y-105429809D01*
X128038601Y-105430889D01*
X128031250Y-105431250D01*
X127881250Y-105431250D01*
X127873899Y-105430889D01*
X127866618Y-105429809D01*
X127859479Y-105428021D01*
X127852549Y-105425541D01*
X127845895Y-105422394D01*
X127839582Y-105418610D01*
X127833671Y-105414226D01*
X127828217Y-105409283D01*
X127823274Y-105403829D01*
X127818890Y-105397918D01*
X127815106Y-105391605D01*
X127811959Y-105384951D01*
X127809479Y-105378021D01*
X127807691Y-105370882D01*
X127806611Y-105363601D01*
X127806250Y-105356250D01*
X127806250Y-103956250D01*
X127806611Y-103948899D01*
X127807691Y-103941618D01*
X127809479Y-103934479D01*
X127811959Y-103927549D01*
X127815106Y-103920895D01*
X127818890Y-103914582D01*
X127823274Y-103908671D01*
X127828217Y-103903217D01*
X127833671Y-103898274D01*
X127839582Y-103893890D01*
X127845895Y-103890106D01*
X127852549Y-103886959D01*
X127859479Y-103884479D01*
X127866618Y-103882691D01*
X127873899Y-103881611D01*
X127881250Y-103881250D01*
X128031250Y-103881250D01*
X128038601Y-103881611D01*
X128038601Y-103881611D01*
G37*
D18*
X127956250Y-104656250D03*
D10*
G36*
X127538601Y-103881611D02*
G01*
X127545882Y-103882691D01*
X127553021Y-103884479D01*
X127559951Y-103886959D01*
X127566605Y-103890106D01*
X127572918Y-103893890D01*
X127578829Y-103898274D01*
X127584283Y-103903217D01*
X127589226Y-103908671D01*
X127593610Y-103914582D01*
X127597394Y-103920895D01*
X127600541Y-103927549D01*
X127603021Y-103934479D01*
X127604809Y-103941618D01*
X127605889Y-103948899D01*
X127606250Y-103956250D01*
X127606250Y-105356250D01*
X127605889Y-105363601D01*
X127604809Y-105370882D01*
X127603021Y-105378021D01*
X127600541Y-105384951D01*
X127597394Y-105391605D01*
X127593610Y-105397918D01*
X127589226Y-105403829D01*
X127584283Y-105409283D01*
X127578829Y-105414226D01*
X127572918Y-105418610D01*
X127566605Y-105422394D01*
X127559951Y-105425541D01*
X127553021Y-105428021D01*
X127545882Y-105429809D01*
X127538601Y-105430889D01*
X127531250Y-105431250D01*
X127381250Y-105431250D01*
X127373899Y-105430889D01*
X127366618Y-105429809D01*
X127359479Y-105428021D01*
X127352549Y-105425541D01*
X127345895Y-105422394D01*
X127339582Y-105418610D01*
X127333671Y-105414226D01*
X127328217Y-105409283D01*
X127323274Y-105403829D01*
X127318890Y-105397918D01*
X127315106Y-105391605D01*
X127311959Y-105384951D01*
X127309479Y-105378021D01*
X127307691Y-105370882D01*
X127306611Y-105363601D01*
X127306250Y-105356250D01*
X127306250Y-103956250D01*
X127306611Y-103948899D01*
X127307691Y-103941618D01*
X127309479Y-103934479D01*
X127311959Y-103927549D01*
X127315106Y-103920895D01*
X127318890Y-103914582D01*
X127323274Y-103908671D01*
X127328217Y-103903217D01*
X127333671Y-103898274D01*
X127339582Y-103893890D01*
X127345895Y-103890106D01*
X127352549Y-103886959D01*
X127359479Y-103884479D01*
X127366618Y-103882691D01*
X127373899Y-103881611D01*
X127381250Y-103881250D01*
X127531250Y-103881250D01*
X127538601Y-103881611D01*
X127538601Y-103881611D01*
G37*
D18*
X127456250Y-104656250D03*
D10*
G36*
X127038601Y-103881611D02*
G01*
X127045882Y-103882691D01*
X127053021Y-103884479D01*
X127059951Y-103886959D01*
X127066605Y-103890106D01*
X127072918Y-103893890D01*
X127078829Y-103898274D01*
X127084283Y-103903217D01*
X127089226Y-103908671D01*
X127093610Y-103914582D01*
X127097394Y-103920895D01*
X127100541Y-103927549D01*
X127103021Y-103934479D01*
X127104809Y-103941618D01*
X127105889Y-103948899D01*
X127106250Y-103956250D01*
X127106250Y-105356250D01*
X127105889Y-105363601D01*
X127104809Y-105370882D01*
X127103021Y-105378021D01*
X127100541Y-105384951D01*
X127097394Y-105391605D01*
X127093610Y-105397918D01*
X127089226Y-105403829D01*
X127084283Y-105409283D01*
X127078829Y-105414226D01*
X127072918Y-105418610D01*
X127066605Y-105422394D01*
X127059951Y-105425541D01*
X127053021Y-105428021D01*
X127045882Y-105429809D01*
X127038601Y-105430889D01*
X127031250Y-105431250D01*
X126881250Y-105431250D01*
X126873899Y-105430889D01*
X126866618Y-105429809D01*
X126859479Y-105428021D01*
X126852549Y-105425541D01*
X126845895Y-105422394D01*
X126839582Y-105418610D01*
X126833671Y-105414226D01*
X126828217Y-105409283D01*
X126823274Y-105403829D01*
X126818890Y-105397918D01*
X126815106Y-105391605D01*
X126811959Y-105384951D01*
X126809479Y-105378021D01*
X126807691Y-105370882D01*
X126806611Y-105363601D01*
X126806250Y-105356250D01*
X126806250Y-103956250D01*
X126806611Y-103948899D01*
X126807691Y-103941618D01*
X126809479Y-103934479D01*
X126811959Y-103927549D01*
X126815106Y-103920895D01*
X126818890Y-103914582D01*
X126823274Y-103908671D01*
X126828217Y-103903217D01*
X126833671Y-103898274D01*
X126839582Y-103893890D01*
X126845895Y-103890106D01*
X126852549Y-103886959D01*
X126859479Y-103884479D01*
X126866618Y-103882691D01*
X126873899Y-103881611D01*
X126881250Y-103881250D01*
X127031250Y-103881250D01*
X127038601Y-103881611D01*
X127038601Y-103881611D01*
G37*
D18*
X126956250Y-104656250D03*
D10*
G36*
X126538601Y-103881611D02*
G01*
X126545882Y-103882691D01*
X126553021Y-103884479D01*
X126559951Y-103886959D01*
X126566605Y-103890106D01*
X126572918Y-103893890D01*
X126578829Y-103898274D01*
X126584283Y-103903217D01*
X126589226Y-103908671D01*
X126593610Y-103914582D01*
X126597394Y-103920895D01*
X126600541Y-103927549D01*
X126603021Y-103934479D01*
X126604809Y-103941618D01*
X126605889Y-103948899D01*
X126606250Y-103956250D01*
X126606250Y-105356250D01*
X126605889Y-105363601D01*
X126604809Y-105370882D01*
X126603021Y-105378021D01*
X126600541Y-105384951D01*
X126597394Y-105391605D01*
X126593610Y-105397918D01*
X126589226Y-105403829D01*
X126584283Y-105409283D01*
X126578829Y-105414226D01*
X126572918Y-105418610D01*
X126566605Y-105422394D01*
X126559951Y-105425541D01*
X126553021Y-105428021D01*
X126545882Y-105429809D01*
X126538601Y-105430889D01*
X126531250Y-105431250D01*
X126381250Y-105431250D01*
X126373899Y-105430889D01*
X126366618Y-105429809D01*
X126359479Y-105428021D01*
X126352549Y-105425541D01*
X126345895Y-105422394D01*
X126339582Y-105418610D01*
X126333671Y-105414226D01*
X126328217Y-105409283D01*
X126323274Y-105403829D01*
X126318890Y-105397918D01*
X126315106Y-105391605D01*
X126311959Y-105384951D01*
X126309479Y-105378021D01*
X126307691Y-105370882D01*
X126306611Y-105363601D01*
X126306250Y-105356250D01*
X126306250Y-103956250D01*
X126306611Y-103948899D01*
X126307691Y-103941618D01*
X126309479Y-103934479D01*
X126311959Y-103927549D01*
X126315106Y-103920895D01*
X126318890Y-103914582D01*
X126323274Y-103908671D01*
X126328217Y-103903217D01*
X126333671Y-103898274D01*
X126339582Y-103893890D01*
X126345895Y-103890106D01*
X126352549Y-103886959D01*
X126359479Y-103884479D01*
X126366618Y-103882691D01*
X126373899Y-103881611D01*
X126381250Y-103881250D01*
X126531250Y-103881250D01*
X126538601Y-103881611D01*
X126538601Y-103881611D01*
G37*
D18*
X126456250Y-104656250D03*
D10*
G36*
X126038601Y-103881611D02*
G01*
X126045882Y-103882691D01*
X126053021Y-103884479D01*
X126059951Y-103886959D01*
X126066605Y-103890106D01*
X126072918Y-103893890D01*
X126078829Y-103898274D01*
X126084283Y-103903217D01*
X126089226Y-103908671D01*
X126093610Y-103914582D01*
X126097394Y-103920895D01*
X126100541Y-103927549D01*
X126103021Y-103934479D01*
X126104809Y-103941618D01*
X126105889Y-103948899D01*
X126106250Y-103956250D01*
X126106250Y-105356250D01*
X126105889Y-105363601D01*
X126104809Y-105370882D01*
X126103021Y-105378021D01*
X126100541Y-105384951D01*
X126097394Y-105391605D01*
X126093610Y-105397918D01*
X126089226Y-105403829D01*
X126084283Y-105409283D01*
X126078829Y-105414226D01*
X126072918Y-105418610D01*
X126066605Y-105422394D01*
X126059951Y-105425541D01*
X126053021Y-105428021D01*
X126045882Y-105429809D01*
X126038601Y-105430889D01*
X126031250Y-105431250D01*
X125881250Y-105431250D01*
X125873899Y-105430889D01*
X125866618Y-105429809D01*
X125859479Y-105428021D01*
X125852549Y-105425541D01*
X125845895Y-105422394D01*
X125839582Y-105418610D01*
X125833671Y-105414226D01*
X125828217Y-105409283D01*
X125823274Y-105403829D01*
X125818890Y-105397918D01*
X125815106Y-105391605D01*
X125811959Y-105384951D01*
X125809479Y-105378021D01*
X125807691Y-105370882D01*
X125806611Y-105363601D01*
X125806250Y-105356250D01*
X125806250Y-103956250D01*
X125806611Y-103948899D01*
X125807691Y-103941618D01*
X125809479Y-103934479D01*
X125811959Y-103927549D01*
X125815106Y-103920895D01*
X125818890Y-103914582D01*
X125823274Y-103908671D01*
X125828217Y-103903217D01*
X125833671Y-103898274D01*
X125839582Y-103893890D01*
X125845895Y-103890106D01*
X125852549Y-103886959D01*
X125859479Y-103884479D01*
X125866618Y-103882691D01*
X125873899Y-103881611D01*
X125881250Y-103881250D01*
X126031250Y-103881250D01*
X126038601Y-103881611D01*
X126038601Y-103881611D01*
G37*
D18*
X125956250Y-104656250D03*
D10*
G36*
X125538601Y-103881611D02*
G01*
X125545882Y-103882691D01*
X125553021Y-103884479D01*
X125559951Y-103886959D01*
X125566605Y-103890106D01*
X125572918Y-103893890D01*
X125578829Y-103898274D01*
X125584283Y-103903217D01*
X125589226Y-103908671D01*
X125593610Y-103914582D01*
X125597394Y-103920895D01*
X125600541Y-103927549D01*
X125603021Y-103934479D01*
X125604809Y-103941618D01*
X125605889Y-103948899D01*
X125606250Y-103956250D01*
X125606250Y-105356250D01*
X125605889Y-105363601D01*
X125604809Y-105370882D01*
X125603021Y-105378021D01*
X125600541Y-105384951D01*
X125597394Y-105391605D01*
X125593610Y-105397918D01*
X125589226Y-105403829D01*
X125584283Y-105409283D01*
X125578829Y-105414226D01*
X125572918Y-105418610D01*
X125566605Y-105422394D01*
X125559951Y-105425541D01*
X125553021Y-105428021D01*
X125545882Y-105429809D01*
X125538601Y-105430889D01*
X125531250Y-105431250D01*
X125381250Y-105431250D01*
X125373899Y-105430889D01*
X125366618Y-105429809D01*
X125359479Y-105428021D01*
X125352549Y-105425541D01*
X125345895Y-105422394D01*
X125339582Y-105418610D01*
X125333671Y-105414226D01*
X125328217Y-105409283D01*
X125323274Y-105403829D01*
X125318890Y-105397918D01*
X125315106Y-105391605D01*
X125311959Y-105384951D01*
X125309479Y-105378021D01*
X125307691Y-105370882D01*
X125306611Y-105363601D01*
X125306250Y-105356250D01*
X125306250Y-103956250D01*
X125306611Y-103948899D01*
X125307691Y-103941618D01*
X125309479Y-103934479D01*
X125311959Y-103927549D01*
X125315106Y-103920895D01*
X125318890Y-103914582D01*
X125323274Y-103908671D01*
X125328217Y-103903217D01*
X125333671Y-103898274D01*
X125339582Y-103893890D01*
X125345895Y-103890106D01*
X125352549Y-103886959D01*
X125359479Y-103884479D01*
X125366618Y-103882691D01*
X125373899Y-103881611D01*
X125381250Y-103881250D01*
X125531250Y-103881250D01*
X125538601Y-103881611D01*
X125538601Y-103881611D01*
G37*
D18*
X125456250Y-104656250D03*
D10*
G36*
X125038601Y-103881611D02*
G01*
X125045882Y-103882691D01*
X125053021Y-103884479D01*
X125059951Y-103886959D01*
X125066605Y-103890106D01*
X125072918Y-103893890D01*
X125078829Y-103898274D01*
X125084283Y-103903217D01*
X125089226Y-103908671D01*
X125093610Y-103914582D01*
X125097394Y-103920895D01*
X125100541Y-103927549D01*
X125103021Y-103934479D01*
X125104809Y-103941618D01*
X125105889Y-103948899D01*
X125106250Y-103956250D01*
X125106250Y-105356250D01*
X125105889Y-105363601D01*
X125104809Y-105370882D01*
X125103021Y-105378021D01*
X125100541Y-105384951D01*
X125097394Y-105391605D01*
X125093610Y-105397918D01*
X125089226Y-105403829D01*
X125084283Y-105409283D01*
X125078829Y-105414226D01*
X125072918Y-105418610D01*
X125066605Y-105422394D01*
X125059951Y-105425541D01*
X125053021Y-105428021D01*
X125045882Y-105429809D01*
X125038601Y-105430889D01*
X125031250Y-105431250D01*
X124881250Y-105431250D01*
X124873899Y-105430889D01*
X124866618Y-105429809D01*
X124859479Y-105428021D01*
X124852549Y-105425541D01*
X124845895Y-105422394D01*
X124839582Y-105418610D01*
X124833671Y-105414226D01*
X124828217Y-105409283D01*
X124823274Y-105403829D01*
X124818890Y-105397918D01*
X124815106Y-105391605D01*
X124811959Y-105384951D01*
X124809479Y-105378021D01*
X124807691Y-105370882D01*
X124806611Y-105363601D01*
X124806250Y-105356250D01*
X124806250Y-103956250D01*
X124806611Y-103948899D01*
X124807691Y-103941618D01*
X124809479Y-103934479D01*
X124811959Y-103927549D01*
X124815106Y-103920895D01*
X124818890Y-103914582D01*
X124823274Y-103908671D01*
X124828217Y-103903217D01*
X124833671Y-103898274D01*
X124839582Y-103893890D01*
X124845895Y-103890106D01*
X124852549Y-103886959D01*
X124859479Y-103884479D01*
X124866618Y-103882691D01*
X124873899Y-103881611D01*
X124881250Y-103881250D01*
X125031250Y-103881250D01*
X125038601Y-103881611D01*
X125038601Y-103881611D01*
G37*
D18*
X124956250Y-104656250D03*
D10*
G36*
X124538601Y-103881611D02*
G01*
X124545882Y-103882691D01*
X124553021Y-103884479D01*
X124559951Y-103886959D01*
X124566605Y-103890106D01*
X124572918Y-103893890D01*
X124578829Y-103898274D01*
X124584283Y-103903217D01*
X124589226Y-103908671D01*
X124593610Y-103914582D01*
X124597394Y-103920895D01*
X124600541Y-103927549D01*
X124603021Y-103934479D01*
X124604809Y-103941618D01*
X124605889Y-103948899D01*
X124606250Y-103956250D01*
X124606250Y-105356250D01*
X124605889Y-105363601D01*
X124604809Y-105370882D01*
X124603021Y-105378021D01*
X124600541Y-105384951D01*
X124597394Y-105391605D01*
X124593610Y-105397918D01*
X124589226Y-105403829D01*
X124584283Y-105409283D01*
X124578829Y-105414226D01*
X124572918Y-105418610D01*
X124566605Y-105422394D01*
X124559951Y-105425541D01*
X124553021Y-105428021D01*
X124545882Y-105429809D01*
X124538601Y-105430889D01*
X124531250Y-105431250D01*
X124381250Y-105431250D01*
X124373899Y-105430889D01*
X124366618Y-105429809D01*
X124359479Y-105428021D01*
X124352549Y-105425541D01*
X124345895Y-105422394D01*
X124339582Y-105418610D01*
X124333671Y-105414226D01*
X124328217Y-105409283D01*
X124323274Y-105403829D01*
X124318890Y-105397918D01*
X124315106Y-105391605D01*
X124311959Y-105384951D01*
X124309479Y-105378021D01*
X124307691Y-105370882D01*
X124306611Y-105363601D01*
X124306250Y-105356250D01*
X124306250Y-103956250D01*
X124306611Y-103948899D01*
X124307691Y-103941618D01*
X124309479Y-103934479D01*
X124311959Y-103927549D01*
X124315106Y-103920895D01*
X124318890Y-103914582D01*
X124323274Y-103908671D01*
X124328217Y-103903217D01*
X124333671Y-103898274D01*
X124339582Y-103893890D01*
X124345895Y-103890106D01*
X124352549Y-103886959D01*
X124359479Y-103884479D01*
X124366618Y-103882691D01*
X124373899Y-103881611D01*
X124381250Y-103881250D01*
X124531250Y-103881250D01*
X124538601Y-103881611D01*
X124538601Y-103881611D01*
G37*
D18*
X124456250Y-104656250D03*
D10*
G36*
X124038601Y-103881611D02*
G01*
X124045882Y-103882691D01*
X124053021Y-103884479D01*
X124059951Y-103886959D01*
X124066605Y-103890106D01*
X124072918Y-103893890D01*
X124078829Y-103898274D01*
X124084283Y-103903217D01*
X124089226Y-103908671D01*
X124093610Y-103914582D01*
X124097394Y-103920895D01*
X124100541Y-103927549D01*
X124103021Y-103934479D01*
X124104809Y-103941618D01*
X124105889Y-103948899D01*
X124106250Y-103956250D01*
X124106250Y-105356250D01*
X124105889Y-105363601D01*
X124104809Y-105370882D01*
X124103021Y-105378021D01*
X124100541Y-105384951D01*
X124097394Y-105391605D01*
X124093610Y-105397918D01*
X124089226Y-105403829D01*
X124084283Y-105409283D01*
X124078829Y-105414226D01*
X124072918Y-105418610D01*
X124066605Y-105422394D01*
X124059951Y-105425541D01*
X124053021Y-105428021D01*
X124045882Y-105429809D01*
X124038601Y-105430889D01*
X124031250Y-105431250D01*
X123881250Y-105431250D01*
X123873899Y-105430889D01*
X123866618Y-105429809D01*
X123859479Y-105428021D01*
X123852549Y-105425541D01*
X123845895Y-105422394D01*
X123839582Y-105418610D01*
X123833671Y-105414226D01*
X123828217Y-105409283D01*
X123823274Y-105403829D01*
X123818890Y-105397918D01*
X123815106Y-105391605D01*
X123811959Y-105384951D01*
X123809479Y-105378021D01*
X123807691Y-105370882D01*
X123806611Y-105363601D01*
X123806250Y-105356250D01*
X123806250Y-103956250D01*
X123806611Y-103948899D01*
X123807691Y-103941618D01*
X123809479Y-103934479D01*
X123811959Y-103927549D01*
X123815106Y-103920895D01*
X123818890Y-103914582D01*
X123823274Y-103908671D01*
X123828217Y-103903217D01*
X123833671Y-103898274D01*
X123839582Y-103893890D01*
X123845895Y-103890106D01*
X123852549Y-103886959D01*
X123859479Y-103884479D01*
X123866618Y-103882691D01*
X123873899Y-103881611D01*
X123881250Y-103881250D01*
X124031250Y-103881250D01*
X124038601Y-103881611D01*
X124038601Y-103881611D01*
G37*
D18*
X123956250Y-104656250D03*
D10*
G36*
X123538601Y-103881611D02*
G01*
X123545882Y-103882691D01*
X123553021Y-103884479D01*
X123559951Y-103886959D01*
X123566605Y-103890106D01*
X123572918Y-103893890D01*
X123578829Y-103898274D01*
X123584283Y-103903217D01*
X123589226Y-103908671D01*
X123593610Y-103914582D01*
X123597394Y-103920895D01*
X123600541Y-103927549D01*
X123603021Y-103934479D01*
X123604809Y-103941618D01*
X123605889Y-103948899D01*
X123606250Y-103956250D01*
X123606250Y-105356250D01*
X123605889Y-105363601D01*
X123604809Y-105370882D01*
X123603021Y-105378021D01*
X123600541Y-105384951D01*
X123597394Y-105391605D01*
X123593610Y-105397918D01*
X123589226Y-105403829D01*
X123584283Y-105409283D01*
X123578829Y-105414226D01*
X123572918Y-105418610D01*
X123566605Y-105422394D01*
X123559951Y-105425541D01*
X123553021Y-105428021D01*
X123545882Y-105429809D01*
X123538601Y-105430889D01*
X123531250Y-105431250D01*
X123381250Y-105431250D01*
X123373899Y-105430889D01*
X123366618Y-105429809D01*
X123359479Y-105428021D01*
X123352549Y-105425541D01*
X123345895Y-105422394D01*
X123339582Y-105418610D01*
X123333671Y-105414226D01*
X123328217Y-105409283D01*
X123323274Y-105403829D01*
X123318890Y-105397918D01*
X123315106Y-105391605D01*
X123311959Y-105384951D01*
X123309479Y-105378021D01*
X123307691Y-105370882D01*
X123306611Y-105363601D01*
X123306250Y-105356250D01*
X123306250Y-103956250D01*
X123306611Y-103948899D01*
X123307691Y-103941618D01*
X123309479Y-103934479D01*
X123311959Y-103927549D01*
X123315106Y-103920895D01*
X123318890Y-103914582D01*
X123323274Y-103908671D01*
X123328217Y-103903217D01*
X123333671Y-103898274D01*
X123339582Y-103893890D01*
X123345895Y-103890106D01*
X123352549Y-103886959D01*
X123359479Y-103884479D01*
X123366618Y-103882691D01*
X123373899Y-103881611D01*
X123381250Y-103881250D01*
X123531250Y-103881250D01*
X123538601Y-103881611D01*
X123538601Y-103881611D01*
G37*
D18*
X123456250Y-104656250D03*
D10*
G36*
X123038601Y-103881611D02*
G01*
X123045882Y-103882691D01*
X123053021Y-103884479D01*
X123059951Y-103886959D01*
X123066605Y-103890106D01*
X123072918Y-103893890D01*
X123078829Y-103898274D01*
X123084283Y-103903217D01*
X123089226Y-103908671D01*
X123093610Y-103914582D01*
X123097394Y-103920895D01*
X123100541Y-103927549D01*
X123103021Y-103934479D01*
X123104809Y-103941618D01*
X123105889Y-103948899D01*
X123106250Y-103956250D01*
X123106250Y-105356250D01*
X123105889Y-105363601D01*
X123104809Y-105370882D01*
X123103021Y-105378021D01*
X123100541Y-105384951D01*
X123097394Y-105391605D01*
X123093610Y-105397918D01*
X123089226Y-105403829D01*
X123084283Y-105409283D01*
X123078829Y-105414226D01*
X123072918Y-105418610D01*
X123066605Y-105422394D01*
X123059951Y-105425541D01*
X123053021Y-105428021D01*
X123045882Y-105429809D01*
X123038601Y-105430889D01*
X123031250Y-105431250D01*
X122881250Y-105431250D01*
X122873899Y-105430889D01*
X122866618Y-105429809D01*
X122859479Y-105428021D01*
X122852549Y-105425541D01*
X122845895Y-105422394D01*
X122839582Y-105418610D01*
X122833671Y-105414226D01*
X122828217Y-105409283D01*
X122823274Y-105403829D01*
X122818890Y-105397918D01*
X122815106Y-105391605D01*
X122811959Y-105384951D01*
X122809479Y-105378021D01*
X122807691Y-105370882D01*
X122806611Y-105363601D01*
X122806250Y-105356250D01*
X122806250Y-103956250D01*
X122806611Y-103948899D01*
X122807691Y-103941618D01*
X122809479Y-103934479D01*
X122811959Y-103927549D01*
X122815106Y-103920895D01*
X122818890Y-103914582D01*
X122823274Y-103908671D01*
X122828217Y-103903217D01*
X122833671Y-103898274D01*
X122839582Y-103893890D01*
X122845895Y-103890106D01*
X122852549Y-103886959D01*
X122859479Y-103884479D01*
X122866618Y-103882691D01*
X122873899Y-103881611D01*
X122881250Y-103881250D01*
X123031250Y-103881250D01*
X123038601Y-103881611D01*
X123038601Y-103881611D01*
G37*
D18*
X122956250Y-104656250D03*
D10*
G36*
X122538601Y-103881611D02*
G01*
X122545882Y-103882691D01*
X122553021Y-103884479D01*
X122559951Y-103886959D01*
X122566605Y-103890106D01*
X122572918Y-103893890D01*
X122578829Y-103898274D01*
X122584283Y-103903217D01*
X122589226Y-103908671D01*
X122593610Y-103914582D01*
X122597394Y-103920895D01*
X122600541Y-103927549D01*
X122603021Y-103934479D01*
X122604809Y-103941618D01*
X122605889Y-103948899D01*
X122606250Y-103956250D01*
X122606250Y-105356250D01*
X122605889Y-105363601D01*
X122604809Y-105370882D01*
X122603021Y-105378021D01*
X122600541Y-105384951D01*
X122597394Y-105391605D01*
X122593610Y-105397918D01*
X122589226Y-105403829D01*
X122584283Y-105409283D01*
X122578829Y-105414226D01*
X122572918Y-105418610D01*
X122566605Y-105422394D01*
X122559951Y-105425541D01*
X122553021Y-105428021D01*
X122545882Y-105429809D01*
X122538601Y-105430889D01*
X122531250Y-105431250D01*
X122381250Y-105431250D01*
X122373899Y-105430889D01*
X122366618Y-105429809D01*
X122359479Y-105428021D01*
X122352549Y-105425541D01*
X122345895Y-105422394D01*
X122339582Y-105418610D01*
X122333671Y-105414226D01*
X122328217Y-105409283D01*
X122323274Y-105403829D01*
X122318890Y-105397918D01*
X122315106Y-105391605D01*
X122311959Y-105384951D01*
X122309479Y-105378021D01*
X122307691Y-105370882D01*
X122306611Y-105363601D01*
X122306250Y-105356250D01*
X122306250Y-103956250D01*
X122306611Y-103948899D01*
X122307691Y-103941618D01*
X122309479Y-103934479D01*
X122311959Y-103927549D01*
X122315106Y-103920895D01*
X122318890Y-103914582D01*
X122323274Y-103908671D01*
X122328217Y-103903217D01*
X122333671Y-103898274D01*
X122339582Y-103893890D01*
X122345895Y-103890106D01*
X122352549Y-103886959D01*
X122359479Y-103884479D01*
X122366618Y-103882691D01*
X122373899Y-103881611D01*
X122381250Y-103881250D01*
X122531250Y-103881250D01*
X122538601Y-103881611D01*
X122538601Y-103881611D01*
G37*
D18*
X122456250Y-104656250D03*
D10*
G36*
X121238601Y-106431611D02*
G01*
X121245882Y-106432691D01*
X121253021Y-106434479D01*
X121259951Y-106436959D01*
X121266605Y-106440106D01*
X121272918Y-106443890D01*
X121278829Y-106448274D01*
X121284283Y-106453217D01*
X121289226Y-106458671D01*
X121293610Y-106464582D01*
X121297394Y-106470895D01*
X121300541Y-106477549D01*
X121303021Y-106484479D01*
X121304809Y-106491618D01*
X121305889Y-106498899D01*
X121306250Y-106506250D01*
X121306250Y-106656250D01*
X121305889Y-106663601D01*
X121304809Y-106670882D01*
X121303021Y-106678021D01*
X121300541Y-106684951D01*
X121297394Y-106691605D01*
X121293610Y-106697918D01*
X121289226Y-106703829D01*
X121284283Y-106709283D01*
X121278829Y-106714226D01*
X121272918Y-106718610D01*
X121266605Y-106722394D01*
X121259951Y-106725541D01*
X121253021Y-106728021D01*
X121245882Y-106729809D01*
X121238601Y-106730889D01*
X121231250Y-106731250D01*
X119831250Y-106731250D01*
X119823899Y-106730889D01*
X119816618Y-106729809D01*
X119809479Y-106728021D01*
X119802549Y-106725541D01*
X119795895Y-106722394D01*
X119789582Y-106718610D01*
X119783671Y-106714226D01*
X119778217Y-106709283D01*
X119773274Y-106703829D01*
X119768890Y-106697918D01*
X119765106Y-106691605D01*
X119761959Y-106684951D01*
X119759479Y-106678021D01*
X119757691Y-106670882D01*
X119756611Y-106663601D01*
X119756250Y-106656250D01*
X119756250Y-106506250D01*
X119756611Y-106498899D01*
X119757691Y-106491618D01*
X119759479Y-106484479D01*
X119761959Y-106477549D01*
X119765106Y-106470895D01*
X119768890Y-106464582D01*
X119773274Y-106458671D01*
X119778217Y-106453217D01*
X119783671Y-106448274D01*
X119789582Y-106443890D01*
X119795895Y-106440106D01*
X119802549Y-106436959D01*
X119809479Y-106434479D01*
X119816618Y-106432691D01*
X119823899Y-106431611D01*
X119831250Y-106431250D01*
X121231250Y-106431250D01*
X121238601Y-106431611D01*
X121238601Y-106431611D01*
G37*
D18*
X120531250Y-106581250D03*
D10*
G36*
X121238601Y-106931611D02*
G01*
X121245882Y-106932691D01*
X121253021Y-106934479D01*
X121259951Y-106936959D01*
X121266605Y-106940106D01*
X121272918Y-106943890D01*
X121278829Y-106948274D01*
X121284283Y-106953217D01*
X121289226Y-106958671D01*
X121293610Y-106964582D01*
X121297394Y-106970895D01*
X121300541Y-106977549D01*
X121303021Y-106984479D01*
X121304809Y-106991618D01*
X121305889Y-106998899D01*
X121306250Y-107006250D01*
X121306250Y-107156250D01*
X121305889Y-107163601D01*
X121304809Y-107170882D01*
X121303021Y-107178021D01*
X121300541Y-107184951D01*
X121297394Y-107191605D01*
X121293610Y-107197918D01*
X121289226Y-107203829D01*
X121284283Y-107209283D01*
X121278829Y-107214226D01*
X121272918Y-107218610D01*
X121266605Y-107222394D01*
X121259951Y-107225541D01*
X121253021Y-107228021D01*
X121245882Y-107229809D01*
X121238601Y-107230889D01*
X121231250Y-107231250D01*
X119831250Y-107231250D01*
X119823899Y-107230889D01*
X119816618Y-107229809D01*
X119809479Y-107228021D01*
X119802549Y-107225541D01*
X119795895Y-107222394D01*
X119789582Y-107218610D01*
X119783671Y-107214226D01*
X119778217Y-107209283D01*
X119773274Y-107203829D01*
X119768890Y-107197918D01*
X119765106Y-107191605D01*
X119761959Y-107184951D01*
X119759479Y-107178021D01*
X119757691Y-107170882D01*
X119756611Y-107163601D01*
X119756250Y-107156250D01*
X119756250Y-107006250D01*
X119756611Y-106998899D01*
X119757691Y-106991618D01*
X119759479Y-106984479D01*
X119761959Y-106977549D01*
X119765106Y-106970895D01*
X119768890Y-106964582D01*
X119773274Y-106958671D01*
X119778217Y-106953217D01*
X119783671Y-106948274D01*
X119789582Y-106943890D01*
X119795895Y-106940106D01*
X119802549Y-106936959D01*
X119809479Y-106934479D01*
X119816618Y-106932691D01*
X119823899Y-106931611D01*
X119831250Y-106931250D01*
X121231250Y-106931250D01*
X121238601Y-106931611D01*
X121238601Y-106931611D01*
G37*
D18*
X120531250Y-107081250D03*
D10*
G36*
X121238601Y-107431611D02*
G01*
X121245882Y-107432691D01*
X121253021Y-107434479D01*
X121259951Y-107436959D01*
X121266605Y-107440106D01*
X121272918Y-107443890D01*
X121278829Y-107448274D01*
X121284283Y-107453217D01*
X121289226Y-107458671D01*
X121293610Y-107464582D01*
X121297394Y-107470895D01*
X121300541Y-107477549D01*
X121303021Y-107484479D01*
X121304809Y-107491618D01*
X121305889Y-107498899D01*
X121306250Y-107506250D01*
X121306250Y-107656250D01*
X121305889Y-107663601D01*
X121304809Y-107670882D01*
X121303021Y-107678021D01*
X121300541Y-107684951D01*
X121297394Y-107691605D01*
X121293610Y-107697918D01*
X121289226Y-107703829D01*
X121284283Y-107709283D01*
X121278829Y-107714226D01*
X121272918Y-107718610D01*
X121266605Y-107722394D01*
X121259951Y-107725541D01*
X121253021Y-107728021D01*
X121245882Y-107729809D01*
X121238601Y-107730889D01*
X121231250Y-107731250D01*
X119831250Y-107731250D01*
X119823899Y-107730889D01*
X119816618Y-107729809D01*
X119809479Y-107728021D01*
X119802549Y-107725541D01*
X119795895Y-107722394D01*
X119789582Y-107718610D01*
X119783671Y-107714226D01*
X119778217Y-107709283D01*
X119773274Y-107703829D01*
X119768890Y-107697918D01*
X119765106Y-107691605D01*
X119761959Y-107684951D01*
X119759479Y-107678021D01*
X119757691Y-107670882D01*
X119756611Y-107663601D01*
X119756250Y-107656250D01*
X119756250Y-107506250D01*
X119756611Y-107498899D01*
X119757691Y-107491618D01*
X119759479Y-107484479D01*
X119761959Y-107477549D01*
X119765106Y-107470895D01*
X119768890Y-107464582D01*
X119773274Y-107458671D01*
X119778217Y-107453217D01*
X119783671Y-107448274D01*
X119789582Y-107443890D01*
X119795895Y-107440106D01*
X119802549Y-107436959D01*
X119809479Y-107434479D01*
X119816618Y-107432691D01*
X119823899Y-107431611D01*
X119831250Y-107431250D01*
X121231250Y-107431250D01*
X121238601Y-107431611D01*
X121238601Y-107431611D01*
G37*
D18*
X120531250Y-107581250D03*
D10*
G36*
X121238601Y-107931611D02*
G01*
X121245882Y-107932691D01*
X121253021Y-107934479D01*
X121259951Y-107936959D01*
X121266605Y-107940106D01*
X121272918Y-107943890D01*
X121278829Y-107948274D01*
X121284283Y-107953217D01*
X121289226Y-107958671D01*
X121293610Y-107964582D01*
X121297394Y-107970895D01*
X121300541Y-107977549D01*
X121303021Y-107984479D01*
X121304809Y-107991618D01*
X121305889Y-107998899D01*
X121306250Y-108006250D01*
X121306250Y-108156250D01*
X121305889Y-108163601D01*
X121304809Y-108170882D01*
X121303021Y-108178021D01*
X121300541Y-108184951D01*
X121297394Y-108191605D01*
X121293610Y-108197918D01*
X121289226Y-108203829D01*
X121284283Y-108209283D01*
X121278829Y-108214226D01*
X121272918Y-108218610D01*
X121266605Y-108222394D01*
X121259951Y-108225541D01*
X121253021Y-108228021D01*
X121245882Y-108229809D01*
X121238601Y-108230889D01*
X121231250Y-108231250D01*
X119831250Y-108231250D01*
X119823899Y-108230889D01*
X119816618Y-108229809D01*
X119809479Y-108228021D01*
X119802549Y-108225541D01*
X119795895Y-108222394D01*
X119789582Y-108218610D01*
X119783671Y-108214226D01*
X119778217Y-108209283D01*
X119773274Y-108203829D01*
X119768890Y-108197918D01*
X119765106Y-108191605D01*
X119761959Y-108184951D01*
X119759479Y-108178021D01*
X119757691Y-108170882D01*
X119756611Y-108163601D01*
X119756250Y-108156250D01*
X119756250Y-108006250D01*
X119756611Y-107998899D01*
X119757691Y-107991618D01*
X119759479Y-107984479D01*
X119761959Y-107977549D01*
X119765106Y-107970895D01*
X119768890Y-107964582D01*
X119773274Y-107958671D01*
X119778217Y-107953217D01*
X119783671Y-107948274D01*
X119789582Y-107943890D01*
X119795895Y-107940106D01*
X119802549Y-107936959D01*
X119809479Y-107934479D01*
X119816618Y-107932691D01*
X119823899Y-107931611D01*
X119831250Y-107931250D01*
X121231250Y-107931250D01*
X121238601Y-107931611D01*
X121238601Y-107931611D01*
G37*
D18*
X120531250Y-108081250D03*
D10*
G36*
X121238601Y-108431611D02*
G01*
X121245882Y-108432691D01*
X121253021Y-108434479D01*
X121259951Y-108436959D01*
X121266605Y-108440106D01*
X121272918Y-108443890D01*
X121278829Y-108448274D01*
X121284283Y-108453217D01*
X121289226Y-108458671D01*
X121293610Y-108464582D01*
X121297394Y-108470895D01*
X121300541Y-108477549D01*
X121303021Y-108484479D01*
X121304809Y-108491618D01*
X121305889Y-108498899D01*
X121306250Y-108506250D01*
X121306250Y-108656250D01*
X121305889Y-108663601D01*
X121304809Y-108670882D01*
X121303021Y-108678021D01*
X121300541Y-108684951D01*
X121297394Y-108691605D01*
X121293610Y-108697918D01*
X121289226Y-108703829D01*
X121284283Y-108709283D01*
X121278829Y-108714226D01*
X121272918Y-108718610D01*
X121266605Y-108722394D01*
X121259951Y-108725541D01*
X121253021Y-108728021D01*
X121245882Y-108729809D01*
X121238601Y-108730889D01*
X121231250Y-108731250D01*
X119831250Y-108731250D01*
X119823899Y-108730889D01*
X119816618Y-108729809D01*
X119809479Y-108728021D01*
X119802549Y-108725541D01*
X119795895Y-108722394D01*
X119789582Y-108718610D01*
X119783671Y-108714226D01*
X119778217Y-108709283D01*
X119773274Y-108703829D01*
X119768890Y-108697918D01*
X119765106Y-108691605D01*
X119761959Y-108684951D01*
X119759479Y-108678021D01*
X119757691Y-108670882D01*
X119756611Y-108663601D01*
X119756250Y-108656250D01*
X119756250Y-108506250D01*
X119756611Y-108498899D01*
X119757691Y-108491618D01*
X119759479Y-108484479D01*
X119761959Y-108477549D01*
X119765106Y-108470895D01*
X119768890Y-108464582D01*
X119773274Y-108458671D01*
X119778217Y-108453217D01*
X119783671Y-108448274D01*
X119789582Y-108443890D01*
X119795895Y-108440106D01*
X119802549Y-108436959D01*
X119809479Y-108434479D01*
X119816618Y-108432691D01*
X119823899Y-108431611D01*
X119831250Y-108431250D01*
X121231250Y-108431250D01*
X121238601Y-108431611D01*
X121238601Y-108431611D01*
G37*
D18*
X120531250Y-108581250D03*
D10*
G36*
X121238601Y-108931611D02*
G01*
X121245882Y-108932691D01*
X121253021Y-108934479D01*
X121259951Y-108936959D01*
X121266605Y-108940106D01*
X121272918Y-108943890D01*
X121278829Y-108948274D01*
X121284283Y-108953217D01*
X121289226Y-108958671D01*
X121293610Y-108964582D01*
X121297394Y-108970895D01*
X121300541Y-108977549D01*
X121303021Y-108984479D01*
X121304809Y-108991618D01*
X121305889Y-108998899D01*
X121306250Y-109006250D01*
X121306250Y-109156250D01*
X121305889Y-109163601D01*
X121304809Y-109170882D01*
X121303021Y-109178021D01*
X121300541Y-109184951D01*
X121297394Y-109191605D01*
X121293610Y-109197918D01*
X121289226Y-109203829D01*
X121284283Y-109209283D01*
X121278829Y-109214226D01*
X121272918Y-109218610D01*
X121266605Y-109222394D01*
X121259951Y-109225541D01*
X121253021Y-109228021D01*
X121245882Y-109229809D01*
X121238601Y-109230889D01*
X121231250Y-109231250D01*
X119831250Y-109231250D01*
X119823899Y-109230889D01*
X119816618Y-109229809D01*
X119809479Y-109228021D01*
X119802549Y-109225541D01*
X119795895Y-109222394D01*
X119789582Y-109218610D01*
X119783671Y-109214226D01*
X119778217Y-109209283D01*
X119773274Y-109203829D01*
X119768890Y-109197918D01*
X119765106Y-109191605D01*
X119761959Y-109184951D01*
X119759479Y-109178021D01*
X119757691Y-109170882D01*
X119756611Y-109163601D01*
X119756250Y-109156250D01*
X119756250Y-109006250D01*
X119756611Y-108998899D01*
X119757691Y-108991618D01*
X119759479Y-108984479D01*
X119761959Y-108977549D01*
X119765106Y-108970895D01*
X119768890Y-108964582D01*
X119773274Y-108958671D01*
X119778217Y-108953217D01*
X119783671Y-108948274D01*
X119789582Y-108943890D01*
X119795895Y-108940106D01*
X119802549Y-108936959D01*
X119809479Y-108934479D01*
X119816618Y-108932691D01*
X119823899Y-108931611D01*
X119831250Y-108931250D01*
X121231250Y-108931250D01*
X121238601Y-108931611D01*
X121238601Y-108931611D01*
G37*
D18*
X120531250Y-109081250D03*
D10*
G36*
X121238601Y-109431611D02*
G01*
X121245882Y-109432691D01*
X121253021Y-109434479D01*
X121259951Y-109436959D01*
X121266605Y-109440106D01*
X121272918Y-109443890D01*
X121278829Y-109448274D01*
X121284283Y-109453217D01*
X121289226Y-109458671D01*
X121293610Y-109464582D01*
X121297394Y-109470895D01*
X121300541Y-109477549D01*
X121303021Y-109484479D01*
X121304809Y-109491618D01*
X121305889Y-109498899D01*
X121306250Y-109506250D01*
X121306250Y-109656250D01*
X121305889Y-109663601D01*
X121304809Y-109670882D01*
X121303021Y-109678021D01*
X121300541Y-109684951D01*
X121297394Y-109691605D01*
X121293610Y-109697918D01*
X121289226Y-109703829D01*
X121284283Y-109709283D01*
X121278829Y-109714226D01*
X121272918Y-109718610D01*
X121266605Y-109722394D01*
X121259951Y-109725541D01*
X121253021Y-109728021D01*
X121245882Y-109729809D01*
X121238601Y-109730889D01*
X121231250Y-109731250D01*
X119831250Y-109731250D01*
X119823899Y-109730889D01*
X119816618Y-109729809D01*
X119809479Y-109728021D01*
X119802549Y-109725541D01*
X119795895Y-109722394D01*
X119789582Y-109718610D01*
X119783671Y-109714226D01*
X119778217Y-109709283D01*
X119773274Y-109703829D01*
X119768890Y-109697918D01*
X119765106Y-109691605D01*
X119761959Y-109684951D01*
X119759479Y-109678021D01*
X119757691Y-109670882D01*
X119756611Y-109663601D01*
X119756250Y-109656250D01*
X119756250Y-109506250D01*
X119756611Y-109498899D01*
X119757691Y-109491618D01*
X119759479Y-109484479D01*
X119761959Y-109477549D01*
X119765106Y-109470895D01*
X119768890Y-109464582D01*
X119773274Y-109458671D01*
X119778217Y-109453217D01*
X119783671Y-109448274D01*
X119789582Y-109443890D01*
X119795895Y-109440106D01*
X119802549Y-109436959D01*
X119809479Y-109434479D01*
X119816618Y-109432691D01*
X119823899Y-109431611D01*
X119831250Y-109431250D01*
X121231250Y-109431250D01*
X121238601Y-109431611D01*
X121238601Y-109431611D01*
G37*
D18*
X120531250Y-109581250D03*
D10*
G36*
X121238601Y-109931611D02*
G01*
X121245882Y-109932691D01*
X121253021Y-109934479D01*
X121259951Y-109936959D01*
X121266605Y-109940106D01*
X121272918Y-109943890D01*
X121278829Y-109948274D01*
X121284283Y-109953217D01*
X121289226Y-109958671D01*
X121293610Y-109964582D01*
X121297394Y-109970895D01*
X121300541Y-109977549D01*
X121303021Y-109984479D01*
X121304809Y-109991618D01*
X121305889Y-109998899D01*
X121306250Y-110006250D01*
X121306250Y-110156250D01*
X121305889Y-110163601D01*
X121304809Y-110170882D01*
X121303021Y-110178021D01*
X121300541Y-110184951D01*
X121297394Y-110191605D01*
X121293610Y-110197918D01*
X121289226Y-110203829D01*
X121284283Y-110209283D01*
X121278829Y-110214226D01*
X121272918Y-110218610D01*
X121266605Y-110222394D01*
X121259951Y-110225541D01*
X121253021Y-110228021D01*
X121245882Y-110229809D01*
X121238601Y-110230889D01*
X121231250Y-110231250D01*
X119831250Y-110231250D01*
X119823899Y-110230889D01*
X119816618Y-110229809D01*
X119809479Y-110228021D01*
X119802549Y-110225541D01*
X119795895Y-110222394D01*
X119789582Y-110218610D01*
X119783671Y-110214226D01*
X119778217Y-110209283D01*
X119773274Y-110203829D01*
X119768890Y-110197918D01*
X119765106Y-110191605D01*
X119761959Y-110184951D01*
X119759479Y-110178021D01*
X119757691Y-110170882D01*
X119756611Y-110163601D01*
X119756250Y-110156250D01*
X119756250Y-110006250D01*
X119756611Y-109998899D01*
X119757691Y-109991618D01*
X119759479Y-109984479D01*
X119761959Y-109977549D01*
X119765106Y-109970895D01*
X119768890Y-109964582D01*
X119773274Y-109958671D01*
X119778217Y-109953217D01*
X119783671Y-109948274D01*
X119789582Y-109943890D01*
X119795895Y-109940106D01*
X119802549Y-109936959D01*
X119809479Y-109934479D01*
X119816618Y-109932691D01*
X119823899Y-109931611D01*
X119831250Y-109931250D01*
X121231250Y-109931250D01*
X121238601Y-109931611D01*
X121238601Y-109931611D01*
G37*
D18*
X120531250Y-110081250D03*
D10*
G36*
X121238601Y-110431611D02*
G01*
X121245882Y-110432691D01*
X121253021Y-110434479D01*
X121259951Y-110436959D01*
X121266605Y-110440106D01*
X121272918Y-110443890D01*
X121278829Y-110448274D01*
X121284283Y-110453217D01*
X121289226Y-110458671D01*
X121293610Y-110464582D01*
X121297394Y-110470895D01*
X121300541Y-110477549D01*
X121303021Y-110484479D01*
X121304809Y-110491618D01*
X121305889Y-110498899D01*
X121306250Y-110506250D01*
X121306250Y-110656250D01*
X121305889Y-110663601D01*
X121304809Y-110670882D01*
X121303021Y-110678021D01*
X121300541Y-110684951D01*
X121297394Y-110691605D01*
X121293610Y-110697918D01*
X121289226Y-110703829D01*
X121284283Y-110709283D01*
X121278829Y-110714226D01*
X121272918Y-110718610D01*
X121266605Y-110722394D01*
X121259951Y-110725541D01*
X121253021Y-110728021D01*
X121245882Y-110729809D01*
X121238601Y-110730889D01*
X121231250Y-110731250D01*
X119831250Y-110731250D01*
X119823899Y-110730889D01*
X119816618Y-110729809D01*
X119809479Y-110728021D01*
X119802549Y-110725541D01*
X119795895Y-110722394D01*
X119789582Y-110718610D01*
X119783671Y-110714226D01*
X119778217Y-110709283D01*
X119773274Y-110703829D01*
X119768890Y-110697918D01*
X119765106Y-110691605D01*
X119761959Y-110684951D01*
X119759479Y-110678021D01*
X119757691Y-110670882D01*
X119756611Y-110663601D01*
X119756250Y-110656250D01*
X119756250Y-110506250D01*
X119756611Y-110498899D01*
X119757691Y-110491618D01*
X119759479Y-110484479D01*
X119761959Y-110477549D01*
X119765106Y-110470895D01*
X119768890Y-110464582D01*
X119773274Y-110458671D01*
X119778217Y-110453217D01*
X119783671Y-110448274D01*
X119789582Y-110443890D01*
X119795895Y-110440106D01*
X119802549Y-110436959D01*
X119809479Y-110434479D01*
X119816618Y-110432691D01*
X119823899Y-110431611D01*
X119831250Y-110431250D01*
X121231250Y-110431250D01*
X121238601Y-110431611D01*
X121238601Y-110431611D01*
G37*
D18*
X120531250Y-110581250D03*
D10*
G36*
X121238601Y-110931611D02*
G01*
X121245882Y-110932691D01*
X121253021Y-110934479D01*
X121259951Y-110936959D01*
X121266605Y-110940106D01*
X121272918Y-110943890D01*
X121278829Y-110948274D01*
X121284283Y-110953217D01*
X121289226Y-110958671D01*
X121293610Y-110964582D01*
X121297394Y-110970895D01*
X121300541Y-110977549D01*
X121303021Y-110984479D01*
X121304809Y-110991618D01*
X121305889Y-110998899D01*
X121306250Y-111006250D01*
X121306250Y-111156250D01*
X121305889Y-111163601D01*
X121304809Y-111170882D01*
X121303021Y-111178021D01*
X121300541Y-111184951D01*
X121297394Y-111191605D01*
X121293610Y-111197918D01*
X121289226Y-111203829D01*
X121284283Y-111209283D01*
X121278829Y-111214226D01*
X121272918Y-111218610D01*
X121266605Y-111222394D01*
X121259951Y-111225541D01*
X121253021Y-111228021D01*
X121245882Y-111229809D01*
X121238601Y-111230889D01*
X121231250Y-111231250D01*
X119831250Y-111231250D01*
X119823899Y-111230889D01*
X119816618Y-111229809D01*
X119809479Y-111228021D01*
X119802549Y-111225541D01*
X119795895Y-111222394D01*
X119789582Y-111218610D01*
X119783671Y-111214226D01*
X119778217Y-111209283D01*
X119773274Y-111203829D01*
X119768890Y-111197918D01*
X119765106Y-111191605D01*
X119761959Y-111184951D01*
X119759479Y-111178021D01*
X119757691Y-111170882D01*
X119756611Y-111163601D01*
X119756250Y-111156250D01*
X119756250Y-111006250D01*
X119756611Y-110998899D01*
X119757691Y-110991618D01*
X119759479Y-110984479D01*
X119761959Y-110977549D01*
X119765106Y-110970895D01*
X119768890Y-110964582D01*
X119773274Y-110958671D01*
X119778217Y-110953217D01*
X119783671Y-110948274D01*
X119789582Y-110943890D01*
X119795895Y-110940106D01*
X119802549Y-110936959D01*
X119809479Y-110934479D01*
X119816618Y-110932691D01*
X119823899Y-110931611D01*
X119831250Y-110931250D01*
X121231250Y-110931250D01*
X121238601Y-110931611D01*
X121238601Y-110931611D01*
G37*
D18*
X120531250Y-111081250D03*
D10*
G36*
X121238601Y-111431611D02*
G01*
X121245882Y-111432691D01*
X121253021Y-111434479D01*
X121259951Y-111436959D01*
X121266605Y-111440106D01*
X121272918Y-111443890D01*
X121278829Y-111448274D01*
X121284283Y-111453217D01*
X121289226Y-111458671D01*
X121293610Y-111464582D01*
X121297394Y-111470895D01*
X121300541Y-111477549D01*
X121303021Y-111484479D01*
X121304809Y-111491618D01*
X121305889Y-111498899D01*
X121306250Y-111506250D01*
X121306250Y-111656250D01*
X121305889Y-111663601D01*
X121304809Y-111670882D01*
X121303021Y-111678021D01*
X121300541Y-111684951D01*
X121297394Y-111691605D01*
X121293610Y-111697918D01*
X121289226Y-111703829D01*
X121284283Y-111709283D01*
X121278829Y-111714226D01*
X121272918Y-111718610D01*
X121266605Y-111722394D01*
X121259951Y-111725541D01*
X121253021Y-111728021D01*
X121245882Y-111729809D01*
X121238601Y-111730889D01*
X121231250Y-111731250D01*
X119831250Y-111731250D01*
X119823899Y-111730889D01*
X119816618Y-111729809D01*
X119809479Y-111728021D01*
X119802549Y-111725541D01*
X119795895Y-111722394D01*
X119789582Y-111718610D01*
X119783671Y-111714226D01*
X119778217Y-111709283D01*
X119773274Y-111703829D01*
X119768890Y-111697918D01*
X119765106Y-111691605D01*
X119761959Y-111684951D01*
X119759479Y-111678021D01*
X119757691Y-111670882D01*
X119756611Y-111663601D01*
X119756250Y-111656250D01*
X119756250Y-111506250D01*
X119756611Y-111498899D01*
X119757691Y-111491618D01*
X119759479Y-111484479D01*
X119761959Y-111477549D01*
X119765106Y-111470895D01*
X119768890Y-111464582D01*
X119773274Y-111458671D01*
X119778217Y-111453217D01*
X119783671Y-111448274D01*
X119789582Y-111443890D01*
X119795895Y-111440106D01*
X119802549Y-111436959D01*
X119809479Y-111434479D01*
X119816618Y-111432691D01*
X119823899Y-111431611D01*
X119831250Y-111431250D01*
X121231250Y-111431250D01*
X121238601Y-111431611D01*
X121238601Y-111431611D01*
G37*
D18*
X120531250Y-111581250D03*
D10*
G36*
X121238601Y-111931611D02*
G01*
X121245882Y-111932691D01*
X121253021Y-111934479D01*
X121259951Y-111936959D01*
X121266605Y-111940106D01*
X121272918Y-111943890D01*
X121278829Y-111948274D01*
X121284283Y-111953217D01*
X121289226Y-111958671D01*
X121293610Y-111964582D01*
X121297394Y-111970895D01*
X121300541Y-111977549D01*
X121303021Y-111984479D01*
X121304809Y-111991618D01*
X121305889Y-111998899D01*
X121306250Y-112006250D01*
X121306250Y-112156250D01*
X121305889Y-112163601D01*
X121304809Y-112170882D01*
X121303021Y-112178021D01*
X121300541Y-112184951D01*
X121297394Y-112191605D01*
X121293610Y-112197918D01*
X121289226Y-112203829D01*
X121284283Y-112209283D01*
X121278829Y-112214226D01*
X121272918Y-112218610D01*
X121266605Y-112222394D01*
X121259951Y-112225541D01*
X121253021Y-112228021D01*
X121245882Y-112229809D01*
X121238601Y-112230889D01*
X121231250Y-112231250D01*
X119831250Y-112231250D01*
X119823899Y-112230889D01*
X119816618Y-112229809D01*
X119809479Y-112228021D01*
X119802549Y-112225541D01*
X119795895Y-112222394D01*
X119789582Y-112218610D01*
X119783671Y-112214226D01*
X119778217Y-112209283D01*
X119773274Y-112203829D01*
X119768890Y-112197918D01*
X119765106Y-112191605D01*
X119761959Y-112184951D01*
X119759479Y-112178021D01*
X119757691Y-112170882D01*
X119756611Y-112163601D01*
X119756250Y-112156250D01*
X119756250Y-112006250D01*
X119756611Y-111998899D01*
X119757691Y-111991618D01*
X119759479Y-111984479D01*
X119761959Y-111977549D01*
X119765106Y-111970895D01*
X119768890Y-111964582D01*
X119773274Y-111958671D01*
X119778217Y-111953217D01*
X119783671Y-111948274D01*
X119789582Y-111943890D01*
X119795895Y-111940106D01*
X119802549Y-111936959D01*
X119809479Y-111934479D01*
X119816618Y-111932691D01*
X119823899Y-111931611D01*
X119831250Y-111931250D01*
X121231250Y-111931250D01*
X121238601Y-111931611D01*
X121238601Y-111931611D01*
G37*
D18*
X120531250Y-112081250D03*
D10*
G36*
X121238601Y-112431611D02*
G01*
X121245882Y-112432691D01*
X121253021Y-112434479D01*
X121259951Y-112436959D01*
X121266605Y-112440106D01*
X121272918Y-112443890D01*
X121278829Y-112448274D01*
X121284283Y-112453217D01*
X121289226Y-112458671D01*
X121293610Y-112464582D01*
X121297394Y-112470895D01*
X121300541Y-112477549D01*
X121303021Y-112484479D01*
X121304809Y-112491618D01*
X121305889Y-112498899D01*
X121306250Y-112506250D01*
X121306250Y-112656250D01*
X121305889Y-112663601D01*
X121304809Y-112670882D01*
X121303021Y-112678021D01*
X121300541Y-112684951D01*
X121297394Y-112691605D01*
X121293610Y-112697918D01*
X121289226Y-112703829D01*
X121284283Y-112709283D01*
X121278829Y-112714226D01*
X121272918Y-112718610D01*
X121266605Y-112722394D01*
X121259951Y-112725541D01*
X121253021Y-112728021D01*
X121245882Y-112729809D01*
X121238601Y-112730889D01*
X121231250Y-112731250D01*
X119831250Y-112731250D01*
X119823899Y-112730889D01*
X119816618Y-112729809D01*
X119809479Y-112728021D01*
X119802549Y-112725541D01*
X119795895Y-112722394D01*
X119789582Y-112718610D01*
X119783671Y-112714226D01*
X119778217Y-112709283D01*
X119773274Y-112703829D01*
X119768890Y-112697918D01*
X119765106Y-112691605D01*
X119761959Y-112684951D01*
X119759479Y-112678021D01*
X119757691Y-112670882D01*
X119756611Y-112663601D01*
X119756250Y-112656250D01*
X119756250Y-112506250D01*
X119756611Y-112498899D01*
X119757691Y-112491618D01*
X119759479Y-112484479D01*
X119761959Y-112477549D01*
X119765106Y-112470895D01*
X119768890Y-112464582D01*
X119773274Y-112458671D01*
X119778217Y-112453217D01*
X119783671Y-112448274D01*
X119789582Y-112443890D01*
X119795895Y-112440106D01*
X119802549Y-112436959D01*
X119809479Y-112434479D01*
X119816618Y-112432691D01*
X119823899Y-112431611D01*
X119831250Y-112431250D01*
X121231250Y-112431250D01*
X121238601Y-112431611D01*
X121238601Y-112431611D01*
G37*
D18*
X120531250Y-112581250D03*
D10*
G36*
X121238601Y-112931611D02*
G01*
X121245882Y-112932691D01*
X121253021Y-112934479D01*
X121259951Y-112936959D01*
X121266605Y-112940106D01*
X121272918Y-112943890D01*
X121278829Y-112948274D01*
X121284283Y-112953217D01*
X121289226Y-112958671D01*
X121293610Y-112964582D01*
X121297394Y-112970895D01*
X121300541Y-112977549D01*
X121303021Y-112984479D01*
X121304809Y-112991618D01*
X121305889Y-112998899D01*
X121306250Y-113006250D01*
X121306250Y-113156250D01*
X121305889Y-113163601D01*
X121304809Y-113170882D01*
X121303021Y-113178021D01*
X121300541Y-113184951D01*
X121297394Y-113191605D01*
X121293610Y-113197918D01*
X121289226Y-113203829D01*
X121284283Y-113209283D01*
X121278829Y-113214226D01*
X121272918Y-113218610D01*
X121266605Y-113222394D01*
X121259951Y-113225541D01*
X121253021Y-113228021D01*
X121245882Y-113229809D01*
X121238601Y-113230889D01*
X121231250Y-113231250D01*
X119831250Y-113231250D01*
X119823899Y-113230889D01*
X119816618Y-113229809D01*
X119809479Y-113228021D01*
X119802549Y-113225541D01*
X119795895Y-113222394D01*
X119789582Y-113218610D01*
X119783671Y-113214226D01*
X119778217Y-113209283D01*
X119773274Y-113203829D01*
X119768890Y-113197918D01*
X119765106Y-113191605D01*
X119761959Y-113184951D01*
X119759479Y-113178021D01*
X119757691Y-113170882D01*
X119756611Y-113163601D01*
X119756250Y-113156250D01*
X119756250Y-113006250D01*
X119756611Y-112998899D01*
X119757691Y-112991618D01*
X119759479Y-112984479D01*
X119761959Y-112977549D01*
X119765106Y-112970895D01*
X119768890Y-112964582D01*
X119773274Y-112958671D01*
X119778217Y-112953217D01*
X119783671Y-112948274D01*
X119789582Y-112943890D01*
X119795895Y-112940106D01*
X119802549Y-112936959D01*
X119809479Y-112934479D01*
X119816618Y-112932691D01*
X119823899Y-112931611D01*
X119831250Y-112931250D01*
X121231250Y-112931250D01*
X121238601Y-112931611D01*
X121238601Y-112931611D01*
G37*
D18*
X120531250Y-113081250D03*
D10*
G36*
X121238601Y-113431611D02*
G01*
X121245882Y-113432691D01*
X121253021Y-113434479D01*
X121259951Y-113436959D01*
X121266605Y-113440106D01*
X121272918Y-113443890D01*
X121278829Y-113448274D01*
X121284283Y-113453217D01*
X121289226Y-113458671D01*
X121293610Y-113464582D01*
X121297394Y-113470895D01*
X121300541Y-113477549D01*
X121303021Y-113484479D01*
X121304809Y-113491618D01*
X121305889Y-113498899D01*
X121306250Y-113506250D01*
X121306250Y-113656250D01*
X121305889Y-113663601D01*
X121304809Y-113670882D01*
X121303021Y-113678021D01*
X121300541Y-113684951D01*
X121297394Y-113691605D01*
X121293610Y-113697918D01*
X121289226Y-113703829D01*
X121284283Y-113709283D01*
X121278829Y-113714226D01*
X121272918Y-113718610D01*
X121266605Y-113722394D01*
X121259951Y-113725541D01*
X121253021Y-113728021D01*
X121245882Y-113729809D01*
X121238601Y-113730889D01*
X121231250Y-113731250D01*
X119831250Y-113731250D01*
X119823899Y-113730889D01*
X119816618Y-113729809D01*
X119809479Y-113728021D01*
X119802549Y-113725541D01*
X119795895Y-113722394D01*
X119789582Y-113718610D01*
X119783671Y-113714226D01*
X119778217Y-113709283D01*
X119773274Y-113703829D01*
X119768890Y-113697918D01*
X119765106Y-113691605D01*
X119761959Y-113684951D01*
X119759479Y-113678021D01*
X119757691Y-113670882D01*
X119756611Y-113663601D01*
X119756250Y-113656250D01*
X119756250Y-113506250D01*
X119756611Y-113498899D01*
X119757691Y-113491618D01*
X119759479Y-113484479D01*
X119761959Y-113477549D01*
X119765106Y-113470895D01*
X119768890Y-113464582D01*
X119773274Y-113458671D01*
X119778217Y-113453217D01*
X119783671Y-113448274D01*
X119789582Y-113443890D01*
X119795895Y-113440106D01*
X119802549Y-113436959D01*
X119809479Y-113434479D01*
X119816618Y-113432691D01*
X119823899Y-113431611D01*
X119831250Y-113431250D01*
X121231250Y-113431250D01*
X121238601Y-113431611D01*
X121238601Y-113431611D01*
G37*
D18*
X120531250Y-113581250D03*
D10*
G36*
X121238601Y-113931611D02*
G01*
X121245882Y-113932691D01*
X121253021Y-113934479D01*
X121259951Y-113936959D01*
X121266605Y-113940106D01*
X121272918Y-113943890D01*
X121278829Y-113948274D01*
X121284283Y-113953217D01*
X121289226Y-113958671D01*
X121293610Y-113964582D01*
X121297394Y-113970895D01*
X121300541Y-113977549D01*
X121303021Y-113984479D01*
X121304809Y-113991618D01*
X121305889Y-113998899D01*
X121306250Y-114006250D01*
X121306250Y-114156250D01*
X121305889Y-114163601D01*
X121304809Y-114170882D01*
X121303021Y-114178021D01*
X121300541Y-114184951D01*
X121297394Y-114191605D01*
X121293610Y-114197918D01*
X121289226Y-114203829D01*
X121284283Y-114209283D01*
X121278829Y-114214226D01*
X121272918Y-114218610D01*
X121266605Y-114222394D01*
X121259951Y-114225541D01*
X121253021Y-114228021D01*
X121245882Y-114229809D01*
X121238601Y-114230889D01*
X121231250Y-114231250D01*
X119831250Y-114231250D01*
X119823899Y-114230889D01*
X119816618Y-114229809D01*
X119809479Y-114228021D01*
X119802549Y-114225541D01*
X119795895Y-114222394D01*
X119789582Y-114218610D01*
X119783671Y-114214226D01*
X119778217Y-114209283D01*
X119773274Y-114203829D01*
X119768890Y-114197918D01*
X119765106Y-114191605D01*
X119761959Y-114184951D01*
X119759479Y-114178021D01*
X119757691Y-114170882D01*
X119756611Y-114163601D01*
X119756250Y-114156250D01*
X119756250Y-114006250D01*
X119756611Y-113998899D01*
X119757691Y-113991618D01*
X119759479Y-113984479D01*
X119761959Y-113977549D01*
X119765106Y-113970895D01*
X119768890Y-113964582D01*
X119773274Y-113958671D01*
X119778217Y-113953217D01*
X119783671Y-113948274D01*
X119789582Y-113943890D01*
X119795895Y-113940106D01*
X119802549Y-113936959D01*
X119809479Y-113934479D01*
X119816618Y-113932691D01*
X119823899Y-113931611D01*
X119831250Y-113931250D01*
X121231250Y-113931250D01*
X121238601Y-113931611D01*
X121238601Y-113931611D01*
G37*
D18*
X120531250Y-114081250D03*
D19*
X122050000Y-85500000D03*
X122850000Y-85500000D03*
X123650000Y-85500000D03*
X124450000Y-85500000D03*
X125250000Y-85500000D03*
M02*
