G04 #@! TF.GenerationSoftware,KiCad,Pcbnew,(5.1.4)-1*
G04 #@! TF.CreationDate,2020-10-27T18:56:57+03:00*
G04 #@! TF.ProjectId,100_keyboard,3130305f-6b65-4796-926f-6172642e6b69,rev?*
G04 #@! TF.SameCoordinates,Original*
G04 #@! TF.FileFunction,Legend,Top*
G04 #@! TF.FilePolarity,Positive*
%FSLAX46Y46*%
G04 Gerber Fmt 4.6, Leading zero omitted, Abs format (unit mm)*
G04 Created by KiCad (PCBNEW (5.1.4)-1) date 2020-10-27 18:56:57*
%MOMM*%
%LPD*%
G04 APERTURE LIST*
%ADD10C,0.300000*%
%ADD11C,0.150000*%
%ADD12C,0.120000*%
%ADD13C,1.852000*%
%ADD14R,2.007000X2.007000*%
%ADD15C,2.007000*%
%ADD16C,2.352000*%
%ADD17C,4.089800*%
%ADD18C,2.352000*%
%ADD19O,2.802000X1.802000*%
%ADD20R,2.352000X0.602000*%
%ADD21C,0.100000*%
%ADD22C,0.402000*%
%ADD23R,1.162000X0.752000*%
%ADD24C,1.077000*%
%ADD25C,1.352000*%
%ADD26R,1.302000X1.002000*%
G04 APERTURE END LIST*
D10*
X48032000Y-43775142D02*
X48032000Y-40775142D01*
X48746285Y-40775142D01*
X49174857Y-40918000D01*
X49460571Y-41203714D01*
X49603428Y-41489428D01*
X49746285Y-42060857D01*
X49746285Y-42489428D01*
X49603428Y-43060857D01*
X49460571Y-43346571D01*
X49174857Y-43632285D01*
X48746285Y-43775142D01*
X48032000Y-43775142D01*
X52174857Y-43632285D02*
X51889142Y-43775142D01*
X51317714Y-43775142D01*
X51032000Y-43632285D01*
X50889142Y-43346571D01*
X50889142Y-42203714D01*
X51032000Y-41918000D01*
X51317714Y-41775142D01*
X51889142Y-41775142D01*
X52174857Y-41918000D01*
X52317714Y-42203714D01*
X52317714Y-42489428D01*
X50889142Y-42775142D01*
X53603428Y-43775142D02*
X53603428Y-40775142D01*
X53603428Y-41918000D02*
X53889142Y-41775142D01*
X54460571Y-41775142D01*
X54746285Y-41918000D01*
X54889142Y-42060857D01*
X55032000Y-42346571D01*
X55032000Y-43203714D01*
X54889142Y-43489428D01*
X54746285Y-43632285D01*
X54460571Y-43775142D01*
X53889142Y-43775142D01*
X53603428Y-43632285D01*
X57603428Y-41775142D02*
X57603428Y-43775142D01*
X56317714Y-41775142D02*
X56317714Y-43346571D01*
X56460571Y-43632285D01*
X56746285Y-43775142D01*
X57174857Y-43775142D01*
X57460571Y-43632285D01*
X57603428Y-43489428D01*
X60317714Y-41775142D02*
X60317714Y-44203714D01*
X60174857Y-44489428D01*
X60032000Y-44632285D01*
X59746285Y-44775142D01*
X59317714Y-44775142D01*
X59032000Y-44632285D01*
X60317714Y-43632285D02*
X60032000Y-43775142D01*
X59460571Y-43775142D01*
X59174857Y-43632285D01*
X59032000Y-43489428D01*
X58889142Y-43203714D01*
X58889142Y-42346571D01*
X59032000Y-42060857D01*
X59174857Y-41918000D01*
X59460571Y-41775142D01*
X60032000Y-41775142D01*
X60317714Y-41918000D01*
X65032000Y-42203714D02*
X65460571Y-42346571D01*
X65603428Y-42489428D01*
X65746285Y-42775142D01*
X65746285Y-43203714D01*
X65603428Y-43489428D01*
X65460571Y-43632285D01*
X65174857Y-43775142D01*
X64032000Y-43775142D01*
X64032000Y-40775142D01*
X65032000Y-40775142D01*
X65317714Y-40918000D01*
X65460571Y-41060857D01*
X65603428Y-41346571D01*
X65603428Y-41632285D01*
X65460571Y-41918000D01*
X65317714Y-42060857D01*
X65032000Y-42203714D01*
X64032000Y-42203714D01*
X67460571Y-43775142D02*
X67174857Y-43632285D01*
X67032000Y-43489428D01*
X66889142Y-43203714D01*
X66889142Y-42346571D01*
X67032000Y-42060857D01*
X67174857Y-41918000D01*
X67460571Y-41775142D01*
X67889142Y-41775142D01*
X68174857Y-41918000D01*
X68317714Y-42060857D01*
X68460571Y-42346571D01*
X68460571Y-43203714D01*
X68317714Y-43489428D01*
X68174857Y-43632285D01*
X67889142Y-43775142D01*
X67460571Y-43775142D01*
X71032000Y-43775142D02*
X71032000Y-42203714D01*
X70889142Y-41918000D01*
X70603428Y-41775142D01*
X70032000Y-41775142D01*
X69746285Y-41918000D01*
X71032000Y-43632285D02*
X70746285Y-43775142D01*
X70032000Y-43775142D01*
X69746285Y-43632285D01*
X69603428Y-43346571D01*
X69603428Y-43060857D01*
X69746285Y-42775142D01*
X70032000Y-42632285D01*
X70746285Y-42632285D01*
X71032000Y-42489428D01*
X72460571Y-43775142D02*
X72460571Y-41775142D01*
X72460571Y-42346571D02*
X72603428Y-42060857D01*
X72746285Y-41918000D01*
X73032000Y-41775142D01*
X73317714Y-41775142D01*
X75603428Y-43775142D02*
X75603428Y-40775142D01*
X75603428Y-43632285D02*
X75317714Y-43775142D01*
X74746285Y-43775142D01*
X74460571Y-43632285D01*
X74317714Y-43489428D01*
X74174857Y-43203714D01*
X74174857Y-42346571D01*
X74317714Y-42060857D01*
X74460571Y-41918000D01*
X74746285Y-41775142D01*
X75317714Y-41775142D01*
X75603428Y-41918000D01*
X79032000Y-41775142D02*
X79746285Y-43775142D01*
X80460571Y-41775142D01*
X83174857Y-43775142D02*
X81460571Y-43775142D01*
X82317714Y-43775142D02*
X82317714Y-40775142D01*
X82032000Y-41203714D01*
X81746285Y-41489428D01*
X81460571Y-41632285D01*
D11*
X43815000Y-53173000D02*
X49265000Y-53173000D01*
X43815000Y-60873000D02*
X49265000Y-60873000D01*
X49265000Y-53173000D02*
X49265000Y-60873000D01*
D12*
X73372500Y-77978750D02*
X74712500Y-77978750D01*
X73372500Y-78928750D02*
X73372500Y-77978750D01*
X72422500Y-78928750D02*
X73372500Y-78928750D01*
X63152500Y-78928750D02*
X63152500Y-77978750D01*
X64102500Y-78928750D02*
X63152500Y-78928750D01*
X73372500Y-68708750D02*
X73372500Y-69658750D01*
X72422500Y-68708750D02*
X73372500Y-68708750D01*
X63152500Y-68708750D02*
X63152500Y-69658750D01*
X64102500Y-68708750D02*
X63152500Y-68708750D01*
X69099000Y-56556000D02*
X66649000Y-56556000D01*
X67299000Y-59776000D02*
X69099000Y-59776000D01*
X53725578Y-56186000D02*
X53208422Y-56186000D01*
X53725578Y-57606000D02*
X53208422Y-57606000D01*
X53804078Y-58218000D02*
X53286922Y-58218000D01*
X53804078Y-59638000D02*
X53286922Y-59638000D01*
X78665000Y-64828922D02*
X78665000Y-65346078D01*
X80085000Y-64828922D02*
X80085000Y-65346078D01*
X54069064Y-53827000D02*
X52864936Y-53827000D01*
X54069064Y-55647000D02*
X52864936Y-55647000D01*
X57547000Y-60543000D02*
X57547000Y-56643000D01*
X59547000Y-60543000D02*
X59547000Y-56643000D01*
X57547000Y-60543000D02*
X59547000Y-60543000D01*
X62663000Y-58161422D02*
X62663000Y-58678578D01*
X64083000Y-58161422D02*
X64083000Y-58678578D01*
X60758000Y-58209922D02*
X60758000Y-58727078D01*
X62178000Y-58209922D02*
X62178000Y-58727078D01*
X72506578Y-61170750D02*
X71989422Y-61170750D01*
X72506578Y-62590750D02*
X71989422Y-62590750D01*
X72585078Y-63202750D02*
X72067922Y-63202750D01*
X72585078Y-64622750D02*
X72067922Y-64622750D01*
X65996078Y-62536000D02*
X65478922Y-62536000D01*
X65996078Y-63956000D02*
X65478922Y-63956000D01*
D11*
X45299380Y-58761095D02*
X46108904Y-58761095D01*
X46204142Y-58713476D01*
X46251761Y-58665857D01*
X46299380Y-58570619D01*
X46299380Y-58380142D01*
X46251761Y-58284904D01*
X46204142Y-58237285D01*
X46108904Y-58189666D01*
X45299380Y-58189666D01*
X46251761Y-57761095D02*
X46299380Y-57618238D01*
X46299380Y-57380142D01*
X46251761Y-57284904D01*
X46204142Y-57237285D01*
X46108904Y-57189666D01*
X46013666Y-57189666D01*
X45918428Y-57237285D01*
X45870809Y-57284904D01*
X45823190Y-57380142D01*
X45775571Y-57570619D01*
X45727952Y-57665857D01*
X45680333Y-57713476D01*
X45585095Y-57761095D01*
X45489857Y-57761095D01*
X45394619Y-57713476D01*
X45347000Y-57665857D01*
X45299380Y-57570619D01*
X45299380Y-57332523D01*
X45347000Y-57189666D01*
X45775571Y-56427761D02*
X45823190Y-56284904D01*
X45870809Y-56237285D01*
X45966047Y-56189666D01*
X46108904Y-56189666D01*
X46204142Y-56237285D01*
X46251761Y-56284904D01*
X46299380Y-56380142D01*
X46299380Y-56761095D01*
X45299380Y-56761095D01*
X45299380Y-56427761D01*
X45347000Y-56332523D01*
X45394619Y-56284904D01*
X45489857Y-56237285D01*
X45585095Y-56237285D01*
X45680333Y-56284904D01*
X45727952Y-56332523D01*
X45775571Y-56427761D01*
X45775571Y-56761095D01*
X46299380Y-55237285D02*
X46299380Y-55808714D01*
X46299380Y-55523000D02*
X45299380Y-55523000D01*
X45442238Y-55618238D01*
X45537476Y-55713476D01*
X45585095Y-55808714D01*
X67500595Y-80671130D02*
X67500595Y-81480654D01*
X67548214Y-81575892D01*
X67595833Y-81623511D01*
X67691071Y-81671130D01*
X67881547Y-81671130D01*
X67976785Y-81623511D01*
X68024404Y-81575892D01*
X68072023Y-81480654D01*
X68072023Y-80671130D01*
X68500595Y-80766369D02*
X68548214Y-80718750D01*
X68643452Y-80671130D01*
X68881547Y-80671130D01*
X68976785Y-80718750D01*
X69024404Y-80766369D01*
X69072023Y-80861607D01*
X69072023Y-80956845D01*
X69024404Y-81099702D01*
X68452976Y-81671130D01*
X69072023Y-81671130D01*
X67437095Y-54718380D02*
X67437095Y-55527904D01*
X67484714Y-55623142D01*
X67532333Y-55670761D01*
X67627571Y-55718380D01*
X67818047Y-55718380D01*
X67913285Y-55670761D01*
X67960904Y-55623142D01*
X68008523Y-55527904D01*
X68008523Y-54718380D01*
X69008523Y-55718380D02*
X68437095Y-55718380D01*
X68722809Y-55718380D02*
X68722809Y-54718380D01*
X68627571Y-54861238D01*
X68532333Y-54956476D01*
X68437095Y-55004095D01*
X53300333Y-58998380D02*
X52967000Y-58522190D01*
X52728904Y-58998380D02*
X52728904Y-57998380D01*
X53109857Y-57998380D01*
X53205095Y-58046000D01*
X53252714Y-58093619D01*
X53300333Y-58188857D01*
X53300333Y-58331714D01*
X53252714Y-58426952D01*
X53205095Y-58474571D01*
X53109857Y-58522190D01*
X52728904Y-58522190D01*
X53633666Y-57998380D02*
X54252714Y-57998380D01*
X53919380Y-58379333D01*
X54062238Y-58379333D01*
X54157476Y-58426952D01*
X54205095Y-58474571D01*
X54252714Y-58569809D01*
X54252714Y-58807904D01*
X54205095Y-58903142D01*
X54157476Y-58950761D01*
X54062238Y-58998380D01*
X53776523Y-58998380D01*
X53681285Y-58950761D01*
X53633666Y-58903142D01*
X53378833Y-61030380D02*
X53045500Y-60554190D01*
X52807404Y-61030380D02*
X52807404Y-60030380D01*
X53188357Y-60030380D01*
X53283595Y-60078000D01*
X53331214Y-60125619D01*
X53378833Y-60220857D01*
X53378833Y-60363714D01*
X53331214Y-60458952D01*
X53283595Y-60506571D01*
X53188357Y-60554190D01*
X52807404Y-60554190D01*
X53759785Y-60125619D02*
X53807404Y-60078000D01*
X53902642Y-60030380D01*
X54140738Y-60030380D01*
X54235976Y-60078000D01*
X54283595Y-60125619D01*
X54331214Y-60220857D01*
X54331214Y-60316095D01*
X54283595Y-60458952D01*
X53712166Y-61030380D01*
X54331214Y-61030380D01*
X81477380Y-65254166D02*
X81001190Y-65587500D01*
X81477380Y-65825595D02*
X80477380Y-65825595D01*
X80477380Y-65444642D01*
X80525000Y-65349404D01*
X80572619Y-65301785D01*
X80667857Y-65254166D01*
X80810714Y-65254166D01*
X80905952Y-65301785D01*
X80953571Y-65349404D01*
X81001190Y-65444642D01*
X81001190Y-65825595D01*
X81477380Y-64301785D02*
X81477380Y-64873214D01*
X81477380Y-64587500D02*
X80477380Y-64587500D01*
X80620238Y-64682738D01*
X80715476Y-64777976D01*
X80763095Y-64873214D01*
X53133666Y-56485571D02*
X52800333Y-56485571D01*
X52800333Y-57009380D02*
X52800333Y-56009380D01*
X53276523Y-56009380D01*
X54181285Y-57009380D02*
X53609857Y-57009380D01*
X53895571Y-57009380D02*
X53895571Y-56009380D01*
X53800333Y-56152238D01*
X53705095Y-56247476D01*
X53609857Y-56295095D01*
X56999380Y-59031095D02*
X55999380Y-59031095D01*
X55999380Y-58793000D01*
X56047000Y-58650142D01*
X56142238Y-58554904D01*
X56237476Y-58507285D01*
X56427952Y-58459666D01*
X56570809Y-58459666D01*
X56761285Y-58507285D01*
X56856523Y-58554904D01*
X56951761Y-58650142D01*
X56999380Y-58793000D01*
X56999380Y-59031095D01*
X55999380Y-57554904D02*
X55999380Y-58031095D01*
X56475571Y-58078714D01*
X56427952Y-58031095D01*
X56380333Y-57935857D01*
X56380333Y-57697761D01*
X56427952Y-57602523D01*
X56475571Y-57554904D01*
X56570809Y-57507285D01*
X56808904Y-57507285D01*
X56904142Y-57554904D01*
X56951761Y-57602523D01*
X56999380Y-57697761D01*
X56999380Y-57935857D01*
X56951761Y-58031095D01*
X56904142Y-58078714D01*
X65380142Y-58586666D02*
X65427761Y-58634285D01*
X65475380Y-58777142D01*
X65475380Y-58872380D01*
X65427761Y-59015238D01*
X65332523Y-59110476D01*
X65237285Y-59158095D01*
X65046809Y-59205714D01*
X64903952Y-59205714D01*
X64713476Y-59158095D01*
X64618238Y-59110476D01*
X64523000Y-59015238D01*
X64475380Y-58872380D01*
X64475380Y-58777142D01*
X64523000Y-58634285D01*
X64570619Y-58586666D01*
X64475380Y-58253333D02*
X64475380Y-57586666D01*
X65475380Y-58015238D01*
X63475142Y-58635166D02*
X63522761Y-58682785D01*
X63570380Y-58825642D01*
X63570380Y-58920880D01*
X63522761Y-59063738D01*
X63427523Y-59158976D01*
X63332285Y-59206595D01*
X63141809Y-59254214D01*
X62998952Y-59254214D01*
X62808476Y-59206595D01*
X62713238Y-59158976D01*
X62618000Y-59063738D01*
X62570380Y-58920880D01*
X62570380Y-58825642D01*
X62618000Y-58682785D01*
X62665619Y-58635166D01*
X62570380Y-57778023D02*
X62570380Y-57968500D01*
X62618000Y-58063738D01*
X62665619Y-58111357D01*
X62808476Y-58206595D01*
X62998952Y-58254214D01*
X63379904Y-58254214D01*
X63475142Y-58206595D01*
X63522761Y-58158976D01*
X63570380Y-58063738D01*
X63570380Y-57873261D01*
X63522761Y-57778023D01*
X63475142Y-57730404D01*
X63379904Y-57682785D01*
X63141809Y-57682785D01*
X63046571Y-57730404D01*
X62998952Y-57778023D01*
X62951333Y-57873261D01*
X62951333Y-58063738D01*
X62998952Y-58158976D01*
X63046571Y-58206595D01*
X63141809Y-58254214D01*
X72081333Y-63887892D02*
X72033714Y-63935511D01*
X71890857Y-63983130D01*
X71795619Y-63983130D01*
X71652761Y-63935511D01*
X71557523Y-63840273D01*
X71509904Y-63745035D01*
X71462285Y-63554559D01*
X71462285Y-63411702D01*
X71509904Y-63221226D01*
X71557523Y-63125988D01*
X71652761Y-63030750D01*
X71795619Y-62983130D01*
X71890857Y-62983130D01*
X72033714Y-63030750D01*
X72081333Y-63078369D01*
X72414666Y-62983130D02*
X73033714Y-62983130D01*
X72700380Y-63364083D01*
X72843238Y-63364083D01*
X72938476Y-63411702D01*
X72986095Y-63459321D01*
X73033714Y-63554559D01*
X73033714Y-63792654D01*
X72986095Y-63887892D01*
X72938476Y-63935511D01*
X72843238Y-63983130D01*
X72557523Y-63983130D01*
X72462285Y-63935511D01*
X72414666Y-63887892D01*
X72159833Y-65919892D02*
X72112214Y-65967511D01*
X71969357Y-66015130D01*
X71874119Y-66015130D01*
X71731261Y-65967511D01*
X71636023Y-65872273D01*
X71588404Y-65777035D01*
X71540785Y-65586559D01*
X71540785Y-65443702D01*
X71588404Y-65253226D01*
X71636023Y-65157988D01*
X71731261Y-65062750D01*
X71874119Y-65015130D01*
X71969357Y-65015130D01*
X72112214Y-65062750D01*
X72159833Y-65110369D01*
X72540785Y-65110369D02*
X72588404Y-65062750D01*
X72683642Y-65015130D01*
X72921738Y-65015130D01*
X73016976Y-65062750D01*
X73064595Y-65110369D01*
X73112214Y-65205607D01*
X73112214Y-65300845D01*
X73064595Y-65443702D01*
X72493166Y-66015130D01*
X73112214Y-66015130D01*
X65570833Y-65253142D02*
X65523214Y-65300761D01*
X65380357Y-65348380D01*
X65285119Y-65348380D01*
X65142261Y-65300761D01*
X65047023Y-65205523D01*
X64999404Y-65110285D01*
X64951785Y-64919809D01*
X64951785Y-64776952D01*
X64999404Y-64586476D01*
X65047023Y-64491238D01*
X65142261Y-64396000D01*
X65285119Y-64348380D01*
X65380357Y-64348380D01*
X65523214Y-64396000D01*
X65570833Y-64443619D01*
X66523214Y-65348380D02*
X65951785Y-65348380D01*
X66237500Y-65348380D02*
X66237500Y-64348380D01*
X66142261Y-64491238D01*
X66047023Y-64586476D01*
X65951785Y-64634095D01*
%LPC*%
D13*
X123317000Y-53594000D03*
X113157000Y-53594000D03*
D14*
X119507000Y-48514000D03*
D15*
X116967000Y-48514000D03*
D16*
X115737000Y-57594000D03*
D17*
X118237000Y-53594000D03*
D16*
X115082001Y-56864000D03*
D18*
X114427000Y-56134000D02*
X115737002Y-57594000D01*
D16*
X120777000Y-58674000D03*
X120757000Y-58384000D03*
D18*
X120737000Y-58094000D02*
X120777000Y-58674000D01*
D19*
X43815000Y-53373000D03*
X43815000Y-60673000D03*
X48315000Y-60673000D03*
X48315000Y-53373000D03*
D20*
X48315000Y-55423000D03*
X48315000Y-56223000D03*
X48315000Y-57023000D03*
X48315000Y-57823000D03*
X48315000Y-58623000D03*
D21*
G36*
X72122851Y-78668234D02*
G01*
X72132607Y-78669681D01*
X72142174Y-78672077D01*
X72151460Y-78675400D01*
X72160375Y-78679617D01*
X72168835Y-78684687D01*
X72176757Y-78690562D01*
X72184064Y-78697186D01*
X72190688Y-78704493D01*
X72196563Y-78712415D01*
X72201633Y-78720875D01*
X72205850Y-78729790D01*
X72209173Y-78739076D01*
X72211569Y-78748643D01*
X72213016Y-78758399D01*
X72213500Y-78768250D01*
X72213500Y-80219250D01*
X72213016Y-80229101D01*
X72211569Y-80238857D01*
X72209173Y-80248424D01*
X72205850Y-80257710D01*
X72201633Y-80266625D01*
X72196563Y-80275085D01*
X72190688Y-80283007D01*
X72184064Y-80290314D01*
X72176757Y-80296938D01*
X72168835Y-80302813D01*
X72160375Y-80307883D01*
X72151460Y-80312100D01*
X72142174Y-80315423D01*
X72132607Y-80317819D01*
X72122851Y-80319266D01*
X72113000Y-80319750D01*
X71912000Y-80319750D01*
X71902149Y-80319266D01*
X71892393Y-80317819D01*
X71882826Y-80315423D01*
X71873540Y-80312100D01*
X71864625Y-80307883D01*
X71856165Y-80302813D01*
X71848243Y-80296938D01*
X71840936Y-80290314D01*
X71834312Y-80283007D01*
X71828437Y-80275085D01*
X71823367Y-80266625D01*
X71819150Y-80257710D01*
X71815827Y-80248424D01*
X71813431Y-80238857D01*
X71811984Y-80229101D01*
X71811500Y-80219250D01*
X71811500Y-78768250D01*
X71811984Y-78758399D01*
X71813431Y-78748643D01*
X71815827Y-78739076D01*
X71819150Y-78729790D01*
X71823367Y-78720875D01*
X71828437Y-78712415D01*
X71834312Y-78704493D01*
X71840936Y-78697186D01*
X71848243Y-78690562D01*
X71856165Y-78684687D01*
X71864625Y-78679617D01*
X71873540Y-78675400D01*
X71882826Y-78672077D01*
X71892393Y-78669681D01*
X71902149Y-78668234D01*
X71912000Y-78667750D01*
X72113000Y-78667750D01*
X72122851Y-78668234D01*
X72122851Y-78668234D01*
G37*
D22*
X72012500Y-79493750D03*
D21*
G36*
X71622851Y-78668234D02*
G01*
X71632607Y-78669681D01*
X71642174Y-78672077D01*
X71651460Y-78675400D01*
X71660375Y-78679617D01*
X71668835Y-78684687D01*
X71676757Y-78690562D01*
X71684064Y-78697186D01*
X71690688Y-78704493D01*
X71696563Y-78712415D01*
X71701633Y-78720875D01*
X71705850Y-78729790D01*
X71709173Y-78739076D01*
X71711569Y-78748643D01*
X71713016Y-78758399D01*
X71713500Y-78768250D01*
X71713500Y-80219250D01*
X71713016Y-80229101D01*
X71711569Y-80238857D01*
X71709173Y-80248424D01*
X71705850Y-80257710D01*
X71701633Y-80266625D01*
X71696563Y-80275085D01*
X71690688Y-80283007D01*
X71684064Y-80290314D01*
X71676757Y-80296938D01*
X71668835Y-80302813D01*
X71660375Y-80307883D01*
X71651460Y-80312100D01*
X71642174Y-80315423D01*
X71632607Y-80317819D01*
X71622851Y-80319266D01*
X71613000Y-80319750D01*
X71412000Y-80319750D01*
X71402149Y-80319266D01*
X71392393Y-80317819D01*
X71382826Y-80315423D01*
X71373540Y-80312100D01*
X71364625Y-80307883D01*
X71356165Y-80302813D01*
X71348243Y-80296938D01*
X71340936Y-80290314D01*
X71334312Y-80283007D01*
X71328437Y-80275085D01*
X71323367Y-80266625D01*
X71319150Y-80257710D01*
X71315827Y-80248424D01*
X71313431Y-80238857D01*
X71311984Y-80229101D01*
X71311500Y-80219250D01*
X71311500Y-78768250D01*
X71311984Y-78758399D01*
X71313431Y-78748643D01*
X71315827Y-78739076D01*
X71319150Y-78729790D01*
X71323367Y-78720875D01*
X71328437Y-78712415D01*
X71334312Y-78704493D01*
X71340936Y-78697186D01*
X71348243Y-78690562D01*
X71356165Y-78684687D01*
X71364625Y-78679617D01*
X71373540Y-78675400D01*
X71382826Y-78672077D01*
X71392393Y-78669681D01*
X71402149Y-78668234D01*
X71412000Y-78667750D01*
X71613000Y-78667750D01*
X71622851Y-78668234D01*
X71622851Y-78668234D01*
G37*
D22*
X71512500Y-79493750D03*
D21*
G36*
X71122851Y-78668234D02*
G01*
X71132607Y-78669681D01*
X71142174Y-78672077D01*
X71151460Y-78675400D01*
X71160375Y-78679617D01*
X71168835Y-78684687D01*
X71176757Y-78690562D01*
X71184064Y-78697186D01*
X71190688Y-78704493D01*
X71196563Y-78712415D01*
X71201633Y-78720875D01*
X71205850Y-78729790D01*
X71209173Y-78739076D01*
X71211569Y-78748643D01*
X71213016Y-78758399D01*
X71213500Y-78768250D01*
X71213500Y-80219250D01*
X71213016Y-80229101D01*
X71211569Y-80238857D01*
X71209173Y-80248424D01*
X71205850Y-80257710D01*
X71201633Y-80266625D01*
X71196563Y-80275085D01*
X71190688Y-80283007D01*
X71184064Y-80290314D01*
X71176757Y-80296938D01*
X71168835Y-80302813D01*
X71160375Y-80307883D01*
X71151460Y-80312100D01*
X71142174Y-80315423D01*
X71132607Y-80317819D01*
X71122851Y-80319266D01*
X71113000Y-80319750D01*
X70912000Y-80319750D01*
X70902149Y-80319266D01*
X70892393Y-80317819D01*
X70882826Y-80315423D01*
X70873540Y-80312100D01*
X70864625Y-80307883D01*
X70856165Y-80302813D01*
X70848243Y-80296938D01*
X70840936Y-80290314D01*
X70834312Y-80283007D01*
X70828437Y-80275085D01*
X70823367Y-80266625D01*
X70819150Y-80257710D01*
X70815827Y-80248424D01*
X70813431Y-80238857D01*
X70811984Y-80229101D01*
X70811500Y-80219250D01*
X70811500Y-78768250D01*
X70811984Y-78758399D01*
X70813431Y-78748643D01*
X70815827Y-78739076D01*
X70819150Y-78729790D01*
X70823367Y-78720875D01*
X70828437Y-78712415D01*
X70834312Y-78704493D01*
X70840936Y-78697186D01*
X70848243Y-78690562D01*
X70856165Y-78684687D01*
X70864625Y-78679617D01*
X70873540Y-78675400D01*
X70882826Y-78672077D01*
X70892393Y-78669681D01*
X70902149Y-78668234D01*
X70912000Y-78667750D01*
X71113000Y-78667750D01*
X71122851Y-78668234D01*
X71122851Y-78668234D01*
G37*
D22*
X71012500Y-79493750D03*
D21*
G36*
X70622851Y-78668234D02*
G01*
X70632607Y-78669681D01*
X70642174Y-78672077D01*
X70651460Y-78675400D01*
X70660375Y-78679617D01*
X70668835Y-78684687D01*
X70676757Y-78690562D01*
X70684064Y-78697186D01*
X70690688Y-78704493D01*
X70696563Y-78712415D01*
X70701633Y-78720875D01*
X70705850Y-78729790D01*
X70709173Y-78739076D01*
X70711569Y-78748643D01*
X70713016Y-78758399D01*
X70713500Y-78768250D01*
X70713500Y-80219250D01*
X70713016Y-80229101D01*
X70711569Y-80238857D01*
X70709173Y-80248424D01*
X70705850Y-80257710D01*
X70701633Y-80266625D01*
X70696563Y-80275085D01*
X70690688Y-80283007D01*
X70684064Y-80290314D01*
X70676757Y-80296938D01*
X70668835Y-80302813D01*
X70660375Y-80307883D01*
X70651460Y-80312100D01*
X70642174Y-80315423D01*
X70632607Y-80317819D01*
X70622851Y-80319266D01*
X70613000Y-80319750D01*
X70412000Y-80319750D01*
X70402149Y-80319266D01*
X70392393Y-80317819D01*
X70382826Y-80315423D01*
X70373540Y-80312100D01*
X70364625Y-80307883D01*
X70356165Y-80302813D01*
X70348243Y-80296938D01*
X70340936Y-80290314D01*
X70334312Y-80283007D01*
X70328437Y-80275085D01*
X70323367Y-80266625D01*
X70319150Y-80257710D01*
X70315827Y-80248424D01*
X70313431Y-80238857D01*
X70311984Y-80229101D01*
X70311500Y-80219250D01*
X70311500Y-78768250D01*
X70311984Y-78758399D01*
X70313431Y-78748643D01*
X70315827Y-78739076D01*
X70319150Y-78729790D01*
X70323367Y-78720875D01*
X70328437Y-78712415D01*
X70334312Y-78704493D01*
X70340936Y-78697186D01*
X70348243Y-78690562D01*
X70356165Y-78684687D01*
X70364625Y-78679617D01*
X70373540Y-78675400D01*
X70382826Y-78672077D01*
X70392393Y-78669681D01*
X70402149Y-78668234D01*
X70412000Y-78667750D01*
X70613000Y-78667750D01*
X70622851Y-78668234D01*
X70622851Y-78668234D01*
G37*
D22*
X70512500Y-79493750D03*
D21*
G36*
X70122851Y-78668234D02*
G01*
X70132607Y-78669681D01*
X70142174Y-78672077D01*
X70151460Y-78675400D01*
X70160375Y-78679617D01*
X70168835Y-78684687D01*
X70176757Y-78690562D01*
X70184064Y-78697186D01*
X70190688Y-78704493D01*
X70196563Y-78712415D01*
X70201633Y-78720875D01*
X70205850Y-78729790D01*
X70209173Y-78739076D01*
X70211569Y-78748643D01*
X70213016Y-78758399D01*
X70213500Y-78768250D01*
X70213500Y-80219250D01*
X70213016Y-80229101D01*
X70211569Y-80238857D01*
X70209173Y-80248424D01*
X70205850Y-80257710D01*
X70201633Y-80266625D01*
X70196563Y-80275085D01*
X70190688Y-80283007D01*
X70184064Y-80290314D01*
X70176757Y-80296938D01*
X70168835Y-80302813D01*
X70160375Y-80307883D01*
X70151460Y-80312100D01*
X70142174Y-80315423D01*
X70132607Y-80317819D01*
X70122851Y-80319266D01*
X70113000Y-80319750D01*
X69912000Y-80319750D01*
X69902149Y-80319266D01*
X69892393Y-80317819D01*
X69882826Y-80315423D01*
X69873540Y-80312100D01*
X69864625Y-80307883D01*
X69856165Y-80302813D01*
X69848243Y-80296938D01*
X69840936Y-80290314D01*
X69834312Y-80283007D01*
X69828437Y-80275085D01*
X69823367Y-80266625D01*
X69819150Y-80257710D01*
X69815827Y-80248424D01*
X69813431Y-80238857D01*
X69811984Y-80229101D01*
X69811500Y-80219250D01*
X69811500Y-78768250D01*
X69811984Y-78758399D01*
X69813431Y-78748643D01*
X69815827Y-78739076D01*
X69819150Y-78729790D01*
X69823367Y-78720875D01*
X69828437Y-78712415D01*
X69834312Y-78704493D01*
X69840936Y-78697186D01*
X69848243Y-78690562D01*
X69856165Y-78684687D01*
X69864625Y-78679617D01*
X69873540Y-78675400D01*
X69882826Y-78672077D01*
X69892393Y-78669681D01*
X69902149Y-78668234D01*
X69912000Y-78667750D01*
X70113000Y-78667750D01*
X70122851Y-78668234D01*
X70122851Y-78668234D01*
G37*
D22*
X70012500Y-79493750D03*
D21*
G36*
X69622851Y-78668234D02*
G01*
X69632607Y-78669681D01*
X69642174Y-78672077D01*
X69651460Y-78675400D01*
X69660375Y-78679617D01*
X69668835Y-78684687D01*
X69676757Y-78690562D01*
X69684064Y-78697186D01*
X69690688Y-78704493D01*
X69696563Y-78712415D01*
X69701633Y-78720875D01*
X69705850Y-78729790D01*
X69709173Y-78739076D01*
X69711569Y-78748643D01*
X69713016Y-78758399D01*
X69713500Y-78768250D01*
X69713500Y-80219250D01*
X69713016Y-80229101D01*
X69711569Y-80238857D01*
X69709173Y-80248424D01*
X69705850Y-80257710D01*
X69701633Y-80266625D01*
X69696563Y-80275085D01*
X69690688Y-80283007D01*
X69684064Y-80290314D01*
X69676757Y-80296938D01*
X69668835Y-80302813D01*
X69660375Y-80307883D01*
X69651460Y-80312100D01*
X69642174Y-80315423D01*
X69632607Y-80317819D01*
X69622851Y-80319266D01*
X69613000Y-80319750D01*
X69412000Y-80319750D01*
X69402149Y-80319266D01*
X69392393Y-80317819D01*
X69382826Y-80315423D01*
X69373540Y-80312100D01*
X69364625Y-80307883D01*
X69356165Y-80302813D01*
X69348243Y-80296938D01*
X69340936Y-80290314D01*
X69334312Y-80283007D01*
X69328437Y-80275085D01*
X69323367Y-80266625D01*
X69319150Y-80257710D01*
X69315827Y-80248424D01*
X69313431Y-80238857D01*
X69311984Y-80229101D01*
X69311500Y-80219250D01*
X69311500Y-78768250D01*
X69311984Y-78758399D01*
X69313431Y-78748643D01*
X69315827Y-78739076D01*
X69319150Y-78729790D01*
X69323367Y-78720875D01*
X69328437Y-78712415D01*
X69334312Y-78704493D01*
X69340936Y-78697186D01*
X69348243Y-78690562D01*
X69356165Y-78684687D01*
X69364625Y-78679617D01*
X69373540Y-78675400D01*
X69382826Y-78672077D01*
X69392393Y-78669681D01*
X69402149Y-78668234D01*
X69412000Y-78667750D01*
X69613000Y-78667750D01*
X69622851Y-78668234D01*
X69622851Y-78668234D01*
G37*
D22*
X69512500Y-79493750D03*
D21*
G36*
X69122851Y-78668234D02*
G01*
X69132607Y-78669681D01*
X69142174Y-78672077D01*
X69151460Y-78675400D01*
X69160375Y-78679617D01*
X69168835Y-78684687D01*
X69176757Y-78690562D01*
X69184064Y-78697186D01*
X69190688Y-78704493D01*
X69196563Y-78712415D01*
X69201633Y-78720875D01*
X69205850Y-78729790D01*
X69209173Y-78739076D01*
X69211569Y-78748643D01*
X69213016Y-78758399D01*
X69213500Y-78768250D01*
X69213500Y-80219250D01*
X69213016Y-80229101D01*
X69211569Y-80238857D01*
X69209173Y-80248424D01*
X69205850Y-80257710D01*
X69201633Y-80266625D01*
X69196563Y-80275085D01*
X69190688Y-80283007D01*
X69184064Y-80290314D01*
X69176757Y-80296938D01*
X69168835Y-80302813D01*
X69160375Y-80307883D01*
X69151460Y-80312100D01*
X69142174Y-80315423D01*
X69132607Y-80317819D01*
X69122851Y-80319266D01*
X69113000Y-80319750D01*
X68912000Y-80319750D01*
X68902149Y-80319266D01*
X68892393Y-80317819D01*
X68882826Y-80315423D01*
X68873540Y-80312100D01*
X68864625Y-80307883D01*
X68856165Y-80302813D01*
X68848243Y-80296938D01*
X68840936Y-80290314D01*
X68834312Y-80283007D01*
X68828437Y-80275085D01*
X68823367Y-80266625D01*
X68819150Y-80257710D01*
X68815827Y-80248424D01*
X68813431Y-80238857D01*
X68811984Y-80229101D01*
X68811500Y-80219250D01*
X68811500Y-78768250D01*
X68811984Y-78758399D01*
X68813431Y-78748643D01*
X68815827Y-78739076D01*
X68819150Y-78729790D01*
X68823367Y-78720875D01*
X68828437Y-78712415D01*
X68834312Y-78704493D01*
X68840936Y-78697186D01*
X68848243Y-78690562D01*
X68856165Y-78684687D01*
X68864625Y-78679617D01*
X68873540Y-78675400D01*
X68882826Y-78672077D01*
X68892393Y-78669681D01*
X68902149Y-78668234D01*
X68912000Y-78667750D01*
X69113000Y-78667750D01*
X69122851Y-78668234D01*
X69122851Y-78668234D01*
G37*
D22*
X69012500Y-79493750D03*
D21*
G36*
X68622851Y-78668234D02*
G01*
X68632607Y-78669681D01*
X68642174Y-78672077D01*
X68651460Y-78675400D01*
X68660375Y-78679617D01*
X68668835Y-78684687D01*
X68676757Y-78690562D01*
X68684064Y-78697186D01*
X68690688Y-78704493D01*
X68696563Y-78712415D01*
X68701633Y-78720875D01*
X68705850Y-78729790D01*
X68709173Y-78739076D01*
X68711569Y-78748643D01*
X68713016Y-78758399D01*
X68713500Y-78768250D01*
X68713500Y-80219250D01*
X68713016Y-80229101D01*
X68711569Y-80238857D01*
X68709173Y-80248424D01*
X68705850Y-80257710D01*
X68701633Y-80266625D01*
X68696563Y-80275085D01*
X68690688Y-80283007D01*
X68684064Y-80290314D01*
X68676757Y-80296938D01*
X68668835Y-80302813D01*
X68660375Y-80307883D01*
X68651460Y-80312100D01*
X68642174Y-80315423D01*
X68632607Y-80317819D01*
X68622851Y-80319266D01*
X68613000Y-80319750D01*
X68412000Y-80319750D01*
X68402149Y-80319266D01*
X68392393Y-80317819D01*
X68382826Y-80315423D01*
X68373540Y-80312100D01*
X68364625Y-80307883D01*
X68356165Y-80302813D01*
X68348243Y-80296938D01*
X68340936Y-80290314D01*
X68334312Y-80283007D01*
X68328437Y-80275085D01*
X68323367Y-80266625D01*
X68319150Y-80257710D01*
X68315827Y-80248424D01*
X68313431Y-80238857D01*
X68311984Y-80229101D01*
X68311500Y-80219250D01*
X68311500Y-78768250D01*
X68311984Y-78758399D01*
X68313431Y-78748643D01*
X68315827Y-78739076D01*
X68319150Y-78729790D01*
X68323367Y-78720875D01*
X68328437Y-78712415D01*
X68334312Y-78704493D01*
X68340936Y-78697186D01*
X68348243Y-78690562D01*
X68356165Y-78684687D01*
X68364625Y-78679617D01*
X68373540Y-78675400D01*
X68382826Y-78672077D01*
X68392393Y-78669681D01*
X68402149Y-78668234D01*
X68412000Y-78667750D01*
X68613000Y-78667750D01*
X68622851Y-78668234D01*
X68622851Y-78668234D01*
G37*
D22*
X68512500Y-79493750D03*
D21*
G36*
X68122851Y-78668234D02*
G01*
X68132607Y-78669681D01*
X68142174Y-78672077D01*
X68151460Y-78675400D01*
X68160375Y-78679617D01*
X68168835Y-78684687D01*
X68176757Y-78690562D01*
X68184064Y-78697186D01*
X68190688Y-78704493D01*
X68196563Y-78712415D01*
X68201633Y-78720875D01*
X68205850Y-78729790D01*
X68209173Y-78739076D01*
X68211569Y-78748643D01*
X68213016Y-78758399D01*
X68213500Y-78768250D01*
X68213500Y-80219250D01*
X68213016Y-80229101D01*
X68211569Y-80238857D01*
X68209173Y-80248424D01*
X68205850Y-80257710D01*
X68201633Y-80266625D01*
X68196563Y-80275085D01*
X68190688Y-80283007D01*
X68184064Y-80290314D01*
X68176757Y-80296938D01*
X68168835Y-80302813D01*
X68160375Y-80307883D01*
X68151460Y-80312100D01*
X68142174Y-80315423D01*
X68132607Y-80317819D01*
X68122851Y-80319266D01*
X68113000Y-80319750D01*
X67912000Y-80319750D01*
X67902149Y-80319266D01*
X67892393Y-80317819D01*
X67882826Y-80315423D01*
X67873540Y-80312100D01*
X67864625Y-80307883D01*
X67856165Y-80302813D01*
X67848243Y-80296938D01*
X67840936Y-80290314D01*
X67834312Y-80283007D01*
X67828437Y-80275085D01*
X67823367Y-80266625D01*
X67819150Y-80257710D01*
X67815827Y-80248424D01*
X67813431Y-80238857D01*
X67811984Y-80229101D01*
X67811500Y-80219250D01*
X67811500Y-78768250D01*
X67811984Y-78758399D01*
X67813431Y-78748643D01*
X67815827Y-78739076D01*
X67819150Y-78729790D01*
X67823367Y-78720875D01*
X67828437Y-78712415D01*
X67834312Y-78704493D01*
X67840936Y-78697186D01*
X67848243Y-78690562D01*
X67856165Y-78684687D01*
X67864625Y-78679617D01*
X67873540Y-78675400D01*
X67882826Y-78672077D01*
X67892393Y-78669681D01*
X67902149Y-78668234D01*
X67912000Y-78667750D01*
X68113000Y-78667750D01*
X68122851Y-78668234D01*
X68122851Y-78668234D01*
G37*
D22*
X68012500Y-79493750D03*
D21*
G36*
X67622851Y-78668234D02*
G01*
X67632607Y-78669681D01*
X67642174Y-78672077D01*
X67651460Y-78675400D01*
X67660375Y-78679617D01*
X67668835Y-78684687D01*
X67676757Y-78690562D01*
X67684064Y-78697186D01*
X67690688Y-78704493D01*
X67696563Y-78712415D01*
X67701633Y-78720875D01*
X67705850Y-78729790D01*
X67709173Y-78739076D01*
X67711569Y-78748643D01*
X67713016Y-78758399D01*
X67713500Y-78768250D01*
X67713500Y-80219250D01*
X67713016Y-80229101D01*
X67711569Y-80238857D01*
X67709173Y-80248424D01*
X67705850Y-80257710D01*
X67701633Y-80266625D01*
X67696563Y-80275085D01*
X67690688Y-80283007D01*
X67684064Y-80290314D01*
X67676757Y-80296938D01*
X67668835Y-80302813D01*
X67660375Y-80307883D01*
X67651460Y-80312100D01*
X67642174Y-80315423D01*
X67632607Y-80317819D01*
X67622851Y-80319266D01*
X67613000Y-80319750D01*
X67412000Y-80319750D01*
X67402149Y-80319266D01*
X67392393Y-80317819D01*
X67382826Y-80315423D01*
X67373540Y-80312100D01*
X67364625Y-80307883D01*
X67356165Y-80302813D01*
X67348243Y-80296938D01*
X67340936Y-80290314D01*
X67334312Y-80283007D01*
X67328437Y-80275085D01*
X67323367Y-80266625D01*
X67319150Y-80257710D01*
X67315827Y-80248424D01*
X67313431Y-80238857D01*
X67311984Y-80229101D01*
X67311500Y-80219250D01*
X67311500Y-78768250D01*
X67311984Y-78758399D01*
X67313431Y-78748643D01*
X67315827Y-78739076D01*
X67319150Y-78729790D01*
X67323367Y-78720875D01*
X67328437Y-78712415D01*
X67334312Y-78704493D01*
X67340936Y-78697186D01*
X67348243Y-78690562D01*
X67356165Y-78684687D01*
X67364625Y-78679617D01*
X67373540Y-78675400D01*
X67382826Y-78672077D01*
X67392393Y-78669681D01*
X67402149Y-78668234D01*
X67412000Y-78667750D01*
X67613000Y-78667750D01*
X67622851Y-78668234D01*
X67622851Y-78668234D01*
G37*
D22*
X67512500Y-79493750D03*
D21*
G36*
X67122851Y-78668234D02*
G01*
X67132607Y-78669681D01*
X67142174Y-78672077D01*
X67151460Y-78675400D01*
X67160375Y-78679617D01*
X67168835Y-78684687D01*
X67176757Y-78690562D01*
X67184064Y-78697186D01*
X67190688Y-78704493D01*
X67196563Y-78712415D01*
X67201633Y-78720875D01*
X67205850Y-78729790D01*
X67209173Y-78739076D01*
X67211569Y-78748643D01*
X67213016Y-78758399D01*
X67213500Y-78768250D01*
X67213500Y-80219250D01*
X67213016Y-80229101D01*
X67211569Y-80238857D01*
X67209173Y-80248424D01*
X67205850Y-80257710D01*
X67201633Y-80266625D01*
X67196563Y-80275085D01*
X67190688Y-80283007D01*
X67184064Y-80290314D01*
X67176757Y-80296938D01*
X67168835Y-80302813D01*
X67160375Y-80307883D01*
X67151460Y-80312100D01*
X67142174Y-80315423D01*
X67132607Y-80317819D01*
X67122851Y-80319266D01*
X67113000Y-80319750D01*
X66912000Y-80319750D01*
X66902149Y-80319266D01*
X66892393Y-80317819D01*
X66882826Y-80315423D01*
X66873540Y-80312100D01*
X66864625Y-80307883D01*
X66856165Y-80302813D01*
X66848243Y-80296938D01*
X66840936Y-80290314D01*
X66834312Y-80283007D01*
X66828437Y-80275085D01*
X66823367Y-80266625D01*
X66819150Y-80257710D01*
X66815827Y-80248424D01*
X66813431Y-80238857D01*
X66811984Y-80229101D01*
X66811500Y-80219250D01*
X66811500Y-78768250D01*
X66811984Y-78758399D01*
X66813431Y-78748643D01*
X66815827Y-78739076D01*
X66819150Y-78729790D01*
X66823367Y-78720875D01*
X66828437Y-78712415D01*
X66834312Y-78704493D01*
X66840936Y-78697186D01*
X66848243Y-78690562D01*
X66856165Y-78684687D01*
X66864625Y-78679617D01*
X66873540Y-78675400D01*
X66882826Y-78672077D01*
X66892393Y-78669681D01*
X66902149Y-78668234D01*
X66912000Y-78667750D01*
X67113000Y-78667750D01*
X67122851Y-78668234D01*
X67122851Y-78668234D01*
G37*
D22*
X67012500Y-79493750D03*
D21*
G36*
X66622851Y-78668234D02*
G01*
X66632607Y-78669681D01*
X66642174Y-78672077D01*
X66651460Y-78675400D01*
X66660375Y-78679617D01*
X66668835Y-78684687D01*
X66676757Y-78690562D01*
X66684064Y-78697186D01*
X66690688Y-78704493D01*
X66696563Y-78712415D01*
X66701633Y-78720875D01*
X66705850Y-78729790D01*
X66709173Y-78739076D01*
X66711569Y-78748643D01*
X66713016Y-78758399D01*
X66713500Y-78768250D01*
X66713500Y-80219250D01*
X66713016Y-80229101D01*
X66711569Y-80238857D01*
X66709173Y-80248424D01*
X66705850Y-80257710D01*
X66701633Y-80266625D01*
X66696563Y-80275085D01*
X66690688Y-80283007D01*
X66684064Y-80290314D01*
X66676757Y-80296938D01*
X66668835Y-80302813D01*
X66660375Y-80307883D01*
X66651460Y-80312100D01*
X66642174Y-80315423D01*
X66632607Y-80317819D01*
X66622851Y-80319266D01*
X66613000Y-80319750D01*
X66412000Y-80319750D01*
X66402149Y-80319266D01*
X66392393Y-80317819D01*
X66382826Y-80315423D01*
X66373540Y-80312100D01*
X66364625Y-80307883D01*
X66356165Y-80302813D01*
X66348243Y-80296938D01*
X66340936Y-80290314D01*
X66334312Y-80283007D01*
X66328437Y-80275085D01*
X66323367Y-80266625D01*
X66319150Y-80257710D01*
X66315827Y-80248424D01*
X66313431Y-80238857D01*
X66311984Y-80229101D01*
X66311500Y-80219250D01*
X66311500Y-78768250D01*
X66311984Y-78758399D01*
X66313431Y-78748643D01*
X66315827Y-78739076D01*
X66319150Y-78729790D01*
X66323367Y-78720875D01*
X66328437Y-78712415D01*
X66334312Y-78704493D01*
X66340936Y-78697186D01*
X66348243Y-78690562D01*
X66356165Y-78684687D01*
X66364625Y-78679617D01*
X66373540Y-78675400D01*
X66382826Y-78672077D01*
X66392393Y-78669681D01*
X66402149Y-78668234D01*
X66412000Y-78667750D01*
X66613000Y-78667750D01*
X66622851Y-78668234D01*
X66622851Y-78668234D01*
G37*
D22*
X66512500Y-79493750D03*
D21*
G36*
X66122851Y-78668234D02*
G01*
X66132607Y-78669681D01*
X66142174Y-78672077D01*
X66151460Y-78675400D01*
X66160375Y-78679617D01*
X66168835Y-78684687D01*
X66176757Y-78690562D01*
X66184064Y-78697186D01*
X66190688Y-78704493D01*
X66196563Y-78712415D01*
X66201633Y-78720875D01*
X66205850Y-78729790D01*
X66209173Y-78739076D01*
X66211569Y-78748643D01*
X66213016Y-78758399D01*
X66213500Y-78768250D01*
X66213500Y-80219250D01*
X66213016Y-80229101D01*
X66211569Y-80238857D01*
X66209173Y-80248424D01*
X66205850Y-80257710D01*
X66201633Y-80266625D01*
X66196563Y-80275085D01*
X66190688Y-80283007D01*
X66184064Y-80290314D01*
X66176757Y-80296938D01*
X66168835Y-80302813D01*
X66160375Y-80307883D01*
X66151460Y-80312100D01*
X66142174Y-80315423D01*
X66132607Y-80317819D01*
X66122851Y-80319266D01*
X66113000Y-80319750D01*
X65912000Y-80319750D01*
X65902149Y-80319266D01*
X65892393Y-80317819D01*
X65882826Y-80315423D01*
X65873540Y-80312100D01*
X65864625Y-80307883D01*
X65856165Y-80302813D01*
X65848243Y-80296938D01*
X65840936Y-80290314D01*
X65834312Y-80283007D01*
X65828437Y-80275085D01*
X65823367Y-80266625D01*
X65819150Y-80257710D01*
X65815827Y-80248424D01*
X65813431Y-80238857D01*
X65811984Y-80229101D01*
X65811500Y-80219250D01*
X65811500Y-78768250D01*
X65811984Y-78758399D01*
X65813431Y-78748643D01*
X65815827Y-78739076D01*
X65819150Y-78729790D01*
X65823367Y-78720875D01*
X65828437Y-78712415D01*
X65834312Y-78704493D01*
X65840936Y-78697186D01*
X65848243Y-78690562D01*
X65856165Y-78684687D01*
X65864625Y-78679617D01*
X65873540Y-78675400D01*
X65882826Y-78672077D01*
X65892393Y-78669681D01*
X65902149Y-78668234D01*
X65912000Y-78667750D01*
X66113000Y-78667750D01*
X66122851Y-78668234D01*
X66122851Y-78668234D01*
G37*
D22*
X66012500Y-79493750D03*
D21*
G36*
X65622851Y-78668234D02*
G01*
X65632607Y-78669681D01*
X65642174Y-78672077D01*
X65651460Y-78675400D01*
X65660375Y-78679617D01*
X65668835Y-78684687D01*
X65676757Y-78690562D01*
X65684064Y-78697186D01*
X65690688Y-78704493D01*
X65696563Y-78712415D01*
X65701633Y-78720875D01*
X65705850Y-78729790D01*
X65709173Y-78739076D01*
X65711569Y-78748643D01*
X65713016Y-78758399D01*
X65713500Y-78768250D01*
X65713500Y-80219250D01*
X65713016Y-80229101D01*
X65711569Y-80238857D01*
X65709173Y-80248424D01*
X65705850Y-80257710D01*
X65701633Y-80266625D01*
X65696563Y-80275085D01*
X65690688Y-80283007D01*
X65684064Y-80290314D01*
X65676757Y-80296938D01*
X65668835Y-80302813D01*
X65660375Y-80307883D01*
X65651460Y-80312100D01*
X65642174Y-80315423D01*
X65632607Y-80317819D01*
X65622851Y-80319266D01*
X65613000Y-80319750D01*
X65412000Y-80319750D01*
X65402149Y-80319266D01*
X65392393Y-80317819D01*
X65382826Y-80315423D01*
X65373540Y-80312100D01*
X65364625Y-80307883D01*
X65356165Y-80302813D01*
X65348243Y-80296938D01*
X65340936Y-80290314D01*
X65334312Y-80283007D01*
X65328437Y-80275085D01*
X65323367Y-80266625D01*
X65319150Y-80257710D01*
X65315827Y-80248424D01*
X65313431Y-80238857D01*
X65311984Y-80229101D01*
X65311500Y-80219250D01*
X65311500Y-78768250D01*
X65311984Y-78758399D01*
X65313431Y-78748643D01*
X65315827Y-78739076D01*
X65319150Y-78729790D01*
X65323367Y-78720875D01*
X65328437Y-78712415D01*
X65334312Y-78704493D01*
X65340936Y-78697186D01*
X65348243Y-78690562D01*
X65356165Y-78684687D01*
X65364625Y-78679617D01*
X65373540Y-78675400D01*
X65382826Y-78672077D01*
X65392393Y-78669681D01*
X65402149Y-78668234D01*
X65412000Y-78667750D01*
X65613000Y-78667750D01*
X65622851Y-78668234D01*
X65622851Y-78668234D01*
G37*
D22*
X65512500Y-79493750D03*
D21*
G36*
X65122851Y-78668234D02*
G01*
X65132607Y-78669681D01*
X65142174Y-78672077D01*
X65151460Y-78675400D01*
X65160375Y-78679617D01*
X65168835Y-78684687D01*
X65176757Y-78690562D01*
X65184064Y-78697186D01*
X65190688Y-78704493D01*
X65196563Y-78712415D01*
X65201633Y-78720875D01*
X65205850Y-78729790D01*
X65209173Y-78739076D01*
X65211569Y-78748643D01*
X65213016Y-78758399D01*
X65213500Y-78768250D01*
X65213500Y-80219250D01*
X65213016Y-80229101D01*
X65211569Y-80238857D01*
X65209173Y-80248424D01*
X65205850Y-80257710D01*
X65201633Y-80266625D01*
X65196563Y-80275085D01*
X65190688Y-80283007D01*
X65184064Y-80290314D01*
X65176757Y-80296938D01*
X65168835Y-80302813D01*
X65160375Y-80307883D01*
X65151460Y-80312100D01*
X65142174Y-80315423D01*
X65132607Y-80317819D01*
X65122851Y-80319266D01*
X65113000Y-80319750D01*
X64912000Y-80319750D01*
X64902149Y-80319266D01*
X64892393Y-80317819D01*
X64882826Y-80315423D01*
X64873540Y-80312100D01*
X64864625Y-80307883D01*
X64856165Y-80302813D01*
X64848243Y-80296938D01*
X64840936Y-80290314D01*
X64834312Y-80283007D01*
X64828437Y-80275085D01*
X64823367Y-80266625D01*
X64819150Y-80257710D01*
X64815827Y-80248424D01*
X64813431Y-80238857D01*
X64811984Y-80229101D01*
X64811500Y-80219250D01*
X64811500Y-78768250D01*
X64811984Y-78758399D01*
X64813431Y-78748643D01*
X64815827Y-78739076D01*
X64819150Y-78729790D01*
X64823367Y-78720875D01*
X64828437Y-78712415D01*
X64834312Y-78704493D01*
X64840936Y-78697186D01*
X64848243Y-78690562D01*
X64856165Y-78684687D01*
X64864625Y-78679617D01*
X64873540Y-78675400D01*
X64882826Y-78672077D01*
X64892393Y-78669681D01*
X64902149Y-78668234D01*
X64912000Y-78667750D01*
X65113000Y-78667750D01*
X65122851Y-78668234D01*
X65122851Y-78668234D01*
G37*
D22*
X65012500Y-79493750D03*
D21*
G36*
X64622851Y-78668234D02*
G01*
X64632607Y-78669681D01*
X64642174Y-78672077D01*
X64651460Y-78675400D01*
X64660375Y-78679617D01*
X64668835Y-78684687D01*
X64676757Y-78690562D01*
X64684064Y-78697186D01*
X64690688Y-78704493D01*
X64696563Y-78712415D01*
X64701633Y-78720875D01*
X64705850Y-78729790D01*
X64709173Y-78739076D01*
X64711569Y-78748643D01*
X64713016Y-78758399D01*
X64713500Y-78768250D01*
X64713500Y-80219250D01*
X64713016Y-80229101D01*
X64711569Y-80238857D01*
X64709173Y-80248424D01*
X64705850Y-80257710D01*
X64701633Y-80266625D01*
X64696563Y-80275085D01*
X64690688Y-80283007D01*
X64684064Y-80290314D01*
X64676757Y-80296938D01*
X64668835Y-80302813D01*
X64660375Y-80307883D01*
X64651460Y-80312100D01*
X64642174Y-80315423D01*
X64632607Y-80317819D01*
X64622851Y-80319266D01*
X64613000Y-80319750D01*
X64412000Y-80319750D01*
X64402149Y-80319266D01*
X64392393Y-80317819D01*
X64382826Y-80315423D01*
X64373540Y-80312100D01*
X64364625Y-80307883D01*
X64356165Y-80302813D01*
X64348243Y-80296938D01*
X64340936Y-80290314D01*
X64334312Y-80283007D01*
X64328437Y-80275085D01*
X64323367Y-80266625D01*
X64319150Y-80257710D01*
X64315827Y-80248424D01*
X64313431Y-80238857D01*
X64311984Y-80229101D01*
X64311500Y-80219250D01*
X64311500Y-78768250D01*
X64311984Y-78758399D01*
X64313431Y-78748643D01*
X64315827Y-78739076D01*
X64319150Y-78729790D01*
X64323367Y-78720875D01*
X64328437Y-78712415D01*
X64334312Y-78704493D01*
X64340936Y-78697186D01*
X64348243Y-78690562D01*
X64356165Y-78684687D01*
X64364625Y-78679617D01*
X64373540Y-78675400D01*
X64382826Y-78672077D01*
X64392393Y-78669681D01*
X64402149Y-78668234D01*
X64412000Y-78667750D01*
X64613000Y-78667750D01*
X64622851Y-78668234D01*
X64622851Y-78668234D01*
G37*
D22*
X64512500Y-79493750D03*
D21*
G36*
X63322851Y-77368234D02*
G01*
X63332607Y-77369681D01*
X63342174Y-77372077D01*
X63351460Y-77375400D01*
X63360375Y-77379617D01*
X63368835Y-77384687D01*
X63376757Y-77390562D01*
X63384064Y-77397186D01*
X63390688Y-77404493D01*
X63396563Y-77412415D01*
X63401633Y-77420875D01*
X63405850Y-77429790D01*
X63409173Y-77439076D01*
X63411569Y-77448643D01*
X63413016Y-77458399D01*
X63413500Y-77468250D01*
X63413500Y-77669250D01*
X63413016Y-77679101D01*
X63411569Y-77688857D01*
X63409173Y-77698424D01*
X63405850Y-77707710D01*
X63401633Y-77716625D01*
X63396563Y-77725085D01*
X63390688Y-77733007D01*
X63384064Y-77740314D01*
X63376757Y-77746938D01*
X63368835Y-77752813D01*
X63360375Y-77757883D01*
X63351460Y-77762100D01*
X63342174Y-77765423D01*
X63332607Y-77767819D01*
X63322851Y-77769266D01*
X63313000Y-77769750D01*
X61862000Y-77769750D01*
X61852149Y-77769266D01*
X61842393Y-77767819D01*
X61832826Y-77765423D01*
X61823540Y-77762100D01*
X61814625Y-77757883D01*
X61806165Y-77752813D01*
X61798243Y-77746938D01*
X61790936Y-77740314D01*
X61784312Y-77733007D01*
X61778437Y-77725085D01*
X61773367Y-77716625D01*
X61769150Y-77707710D01*
X61765827Y-77698424D01*
X61763431Y-77688857D01*
X61761984Y-77679101D01*
X61761500Y-77669250D01*
X61761500Y-77468250D01*
X61761984Y-77458399D01*
X61763431Y-77448643D01*
X61765827Y-77439076D01*
X61769150Y-77429790D01*
X61773367Y-77420875D01*
X61778437Y-77412415D01*
X61784312Y-77404493D01*
X61790936Y-77397186D01*
X61798243Y-77390562D01*
X61806165Y-77384687D01*
X61814625Y-77379617D01*
X61823540Y-77375400D01*
X61832826Y-77372077D01*
X61842393Y-77369681D01*
X61852149Y-77368234D01*
X61862000Y-77367750D01*
X63313000Y-77367750D01*
X63322851Y-77368234D01*
X63322851Y-77368234D01*
G37*
D22*
X62587500Y-77568750D03*
D21*
G36*
X63322851Y-76868234D02*
G01*
X63332607Y-76869681D01*
X63342174Y-76872077D01*
X63351460Y-76875400D01*
X63360375Y-76879617D01*
X63368835Y-76884687D01*
X63376757Y-76890562D01*
X63384064Y-76897186D01*
X63390688Y-76904493D01*
X63396563Y-76912415D01*
X63401633Y-76920875D01*
X63405850Y-76929790D01*
X63409173Y-76939076D01*
X63411569Y-76948643D01*
X63413016Y-76958399D01*
X63413500Y-76968250D01*
X63413500Y-77169250D01*
X63413016Y-77179101D01*
X63411569Y-77188857D01*
X63409173Y-77198424D01*
X63405850Y-77207710D01*
X63401633Y-77216625D01*
X63396563Y-77225085D01*
X63390688Y-77233007D01*
X63384064Y-77240314D01*
X63376757Y-77246938D01*
X63368835Y-77252813D01*
X63360375Y-77257883D01*
X63351460Y-77262100D01*
X63342174Y-77265423D01*
X63332607Y-77267819D01*
X63322851Y-77269266D01*
X63313000Y-77269750D01*
X61862000Y-77269750D01*
X61852149Y-77269266D01*
X61842393Y-77267819D01*
X61832826Y-77265423D01*
X61823540Y-77262100D01*
X61814625Y-77257883D01*
X61806165Y-77252813D01*
X61798243Y-77246938D01*
X61790936Y-77240314D01*
X61784312Y-77233007D01*
X61778437Y-77225085D01*
X61773367Y-77216625D01*
X61769150Y-77207710D01*
X61765827Y-77198424D01*
X61763431Y-77188857D01*
X61761984Y-77179101D01*
X61761500Y-77169250D01*
X61761500Y-76968250D01*
X61761984Y-76958399D01*
X61763431Y-76948643D01*
X61765827Y-76939076D01*
X61769150Y-76929790D01*
X61773367Y-76920875D01*
X61778437Y-76912415D01*
X61784312Y-76904493D01*
X61790936Y-76897186D01*
X61798243Y-76890562D01*
X61806165Y-76884687D01*
X61814625Y-76879617D01*
X61823540Y-76875400D01*
X61832826Y-76872077D01*
X61842393Y-76869681D01*
X61852149Y-76868234D01*
X61862000Y-76867750D01*
X63313000Y-76867750D01*
X63322851Y-76868234D01*
X63322851Y-76868234D01*
G37*
D22*
X62587500Y-77068750D03*
D21*
G36*
X63322851Y-76368234D02*
G01*
X63332607Y-76369681D01*
X63342174Y-76372077D01*
X63351460Y-76375400D01*
X63360375Y-76379617D01*
X63368835Y-76384687D01*
X63376757Y-76390562D01*
X63384064Y-76397186D01*
X63390688Y-76404493D01*
X63396563Y-76412415D01*
X63401633Y-76420875D01*
X63405850Y-76429790D01*
X63409173Y-76439076D01*
X63411569Y-76448643D01*
X63413016Y-76458399D01*
X63413500Y-76468250D01*
X63413500Y-76669250D01*
X63413016Y-76679101D01*
X63411569Y-76688857D01*
X63409173Y-76698424D01*
X63405850Y-76707710D01*
X63401633Y-76716625D01*
X63396563Y-76725085D01*
X63390688Y-76733007D01*
X63384064Y-76740314D01*
X63376757Y-76746938D01*
X63368835Y-76752813D01*
X63360375Y-76757883D01*
X63351460Y-76762100D01*
X63342174Y-76765423D01*
X63332607Y-76767819D01*
X63322851Y-76769266D01*
X63313000Y-76769750D01*
X61862000Y-76769750D01*
X61852149Y-76769266D01*
X61842393Y-76767819D01*
X61832826Y-76765423D01*
X61823540Y-76762100D01*
X61814625Y-76757883D01*
X61806165Y-76752813D01*
X61798243Y-76746938D01*
X61790936Y-76740314D01*
X61784312Y-76733007D01*
X61778437Y-76725085D01*
X61773367Y-76716625D01*
X61769150Y-76707710D01*
X61765827Y-76698424D01*
X61763431Y-76688857D01*
X61761984Y-76679101D01*
X61761500Y-76669250D01*
X61761500Y-76468250D01*
X61761984Y-76458399D01*
X61763431Y-76448643D01*
X61765827Y-76439076D01*
X61769150Y-76429790D01*
X61773367Y-76420875D01*
X61778437Y-76412415D01*
X61784312Y-76404493D01*
X61790936Y-76397186D01*
X61798243Y-76390562D01*
X61806165Y-76384687D01*
X61814625Y-76379617D01*
X61823540Y-76375400D01*
X61832826Y-76372077D01*
X61842393Y-76369681D01*
X61852149Y-76368234D01*
X61862000Y-76367750D01*
X63313000Y-76367750D01*
X63322851Y-76368234D01*
X63322851Y-76368234D01*
G37*
D22*
X62587500Y-76568750D03*
D21*
G36*
X63322851Y-75868234D02*
G01*
X63332607Y-75869681D01*
X63342174Y-75872077D01*
X63351460Y-75875400D01*
X63360375Y-75879617D01*
X63368835Y-75884687D01*
X63376757Y-75890562D01*
X63384064Y-75897186D01*
X63390688Y-75904493D01*
X63396563Y-75912415D01*
X63401633Y-75920875D01*
X63405850Y-75929790D01*
X63409173Y-75939076D01*
X63411569Y-75948643D01*
X63413016Y-75958399D01*
X63413500Y-75968250D01*
X63413500Y-76169250D01*
X63413016Y-76179101D01*
X63411569Y-76188857D01*
X63409173Y-76198424D01*
X63405850Y-76207710D01*
X63401633Y-76216625D01*
X63396563Y-76225085D01*
X63390688Y-76233007D01*
X63384064Y-76240314D01*
X63376757Y-76246938D01*
X63368835Y-76252813D01*
X63360375Y-76257883D01*
X63351460Y-76262100D01*
X63342174Y-76265423D01*
X63332607Y-76267819D01*
X63322851Y-76269266D01*
X63313000Y-76269750D01*
X61862000Y-76269750D01*
X61852149Y-76269266D01*
X61842393Y-76267819D01*
X61832826Y-76265423D01*
X61823540Y-76262100D01*
X61814625Y-76257883D01*
X61806165Y-76252813D01*
X61798243Y-76246938D01*
X61790936Y-76240314D01*
X61784312Y-76233007D01*
X61778437Y-76225085D01*
X61773367Y-76216625D01*
X61769150Y-76207710D01*
X61765827Y-76198424D01*
X61763431Y-76188857D01*
X61761984Y-76179101D01*
X61761500Y-76169250D01*
X61761500Y-75968250D01*
X61761984Y-75958399D01*
X61763431Y-75948643D01*
X61765827Y-75939076D01*
X61769150Y-75929790D01*
X61773367Y-75920875D01*
X61778437Y-75912415D01*
X61784312Y-75904493D01*
X61790936Y-75897186D01*
X61798243Y-75890562D01*
X61806165Y-75884687D01*
X61814625Y-75879617D01*
X61823540Y-75875400D01*
X61832826Y-75872077D01*
X61842393Y-75869681D01*
X61852149Y-75868234D01*
X61862000Y-75867750D01*
X63313000Y-75867750D01*
X63322851Y-75868234D01*
X63322851Y-75868234D01*
G37*
D22*
X62587500Y-76068750D03*
D21*
G36*
X63322851Y-75368234D02*
G01*
X63332607Y-75369681D01*
X63342174Y-75372077D01*
X63351460Y-75375400D01*
X63360375Y-75379617D01*
X63368835Y-75384687D01*
X63376757Y-75390562D01*
X63384064Y-75397186D01*
X63390688Y-75404493D01*
X63396563Y-75412415D01*
X63401633Y-75420875D01*
X63405850Y-75429790D01*
X63409173Y-75439076D01*
X63411569Y-75448643D01*
X63413016Y-75458399D01*
X63413500Y-75468250D01*
X63413500Y-75669250D01*
X63413016Y-75679101D01*
X63411569Y-75688857D01*
X63409173Y-75698424D01*
X63405850Y-75707710D01*
X63401633Y-75716625D01*
X63396563Y-75725085D01*
X63390688Y-75733007D01*
X63384064Y-75740314D01*
X63376757Y-75746938D01*
X63368835Y-75752813D01*
X63360375Y-75757883D01*
X63351460Y-75762100D01*
X63342174Y-75765423D01*
X63332607Y-75767819D01*
X63322851Y-75769266D01*
X63313000Y-75769750D01*
X61862000Y-75769750D01*
X61852149Y-75769266D01*
X61842393Y-75767819D01*
X61832826Y-75765423D01*
X61823540Y-75762100D01*
X61814625Y-75757883D01*
X61806165Y-75752813D01*
X61798243Y-75746938D01*
X61790936Y-75740314D01*
X61784312Y-75733007D01*
X61778437Y-75725085D01*
X61773367Y-75716625D01*
X61769150Y-75707710D01*
X61765827Y-75698424D01*
X61763431Y-75688857D01*
X61761984Y-75679101D01*
X61761500Y-75669250D01*
X61761500Y-75468250D01*
X61761984Y-75458399D01*
X61763431Y-75448643D01*
X61765827Y-75439076D01*
X61769150Y-75429790D01*
X61773367Y-75420875D01*
X61778437Y-75412415D01*
X61784312Y-75404493D01*
X61790936Y-75397186D01*
X61798243Y-75390562D01*
X61806165Y-75384687D01*
X61814625Y-75379617D01*
X61823540Y-75375400D01*
X61832826Y-75372077D01*
X61842393Y-75369681D01*
X61852149Y-75368234D01*
X61862000Y-75367750D01*
X63313000Y-75367750D01*
X63322851Y-75368234D01*
X63322851Y-75368234D01*
G37*
D22*
X62587500Y-75568750D03*
D21*
G36*
X63322851Y-74868234D02*
G01*
X63332607Y-74869681D01*
X63342174Y-74872077D01*
X63351460Y-74875400D01*
X63360375Y-74879617D01*
X63368835Y-74884687D01*
X63376757Y-74890562D01*
X63384064Y-74897186D01*
X63390688Y-74904493D01*
X63396563Y-74912415D01*
X63401633Y-74920875D01*
X63405850Y-74929790D01*
X63409173Y-74939076D01*
X63411569Y-74948643D01*
X63413016Y-74958399D01*
X63413500Y-74968250D01*
X63413500Y-75169250D01*
X63413016Y-75179101D01*
X63411569Y-75188857D01*
X63409173Y-75198424D01*
X63405850Y-75207710D01*
X63401633Y-75216625D01*
X63396563Y-75225085D01*
X63390688Y-75233007D01*
X63384064Y-75240314D01*
X63376757Y-75246938D01*
X63368835Y-75252813D01*
X63360375Y-75257883D01*
X63351460Y-75262100D01*
X63342174Y-75265423D01*
X63332607Y-75267819D01*
X63322851Y-75269266D01*
X63313000Y-75269750D01*
X61862000Y-75269750D01*
X61852149Y-75269266D01*
X61842393Y-75267819D01*
X61832826Y-75265423D01*
X61823540Y-75262100D01*
X61814625Y-75257883D01*
X61806165Y-75252813D01*
X61798243Y-75246938D01*
X61790936Y-75240314D01*
X61784312Y-75233007D01*
X61778437Y-75225085D01*
X61773367Y-75216625D01*
X61769150Y-75207710D01*
X61765827Y-75198424D01*
X61763431Y-75188857D01*
X61761984Y-75179101D01*
X61761500Y-75169250D01*
X61761500Y-74968250D01*
X61761984Y-74958399D01*
X61763431Y-74948643D01*
X61765827Y-74939076D01*
X61769150Y-74929790D01*
X61773367Y-74920875D01*
X61778437Y-74912415D01*
X61784312Y-74904493D01*
X61790936Y-74897186D01*
X61798243Y-74890562D01*
X61806165Y-74884687D01*
X61814625Y-74879617D01*
X61823540Y-74875400D01*
X61832826Y-74872077D01*
X61842393Y-74869681D01*
X61852149Y-74868234D01*
X61862000Y-74867750D01*
X63313000Y-74867750D01*
X63322851Y-74868234D01*
X63322851Y-74868234D01*
G37*
D22*
X62587500Y-75068750D03*
D21*
G36*
X63322851Y-74368234D02*
G01*
X63332607Y-74369681D01*
X63342174Y-74372077D01*
X63351460Y-74375400D01*
X63360375Y-74379617D01*
X63368835Y-74384687D01*
X63376757Y-74390562D01*
X63384064Y-74397186D01*
X63390688Y-74404493D01*
X63396563Y-74412415D01*
X63401633Y-74420875D01*
X63405850Y-74429790D01*
X63409173Y-74439076D01*
X63411569Y-74448643D01*
X63413016Y-74458399D01*
X63413500Y-74468250D01*
X63413500Y-74669250D01*
X63413016Y-74679101D01*
X63411569Y-74688857D01*
X63409173Y-74698424D01*
X63405850Y-74707710D01*
X63401633Y-74716625D01*
X63396563Y-74725085D01*
X63390688Y-74733007D01*
X63384064Y-74740314D01*
X63376757Y-74746938D01*
X63368835Y-74752813D01*
X63360375Y-74757883D01*
X63351460Y-74762100D01*
X63342174Y-74765423D01*
X63332607Y-74767819D01*
X63322851Y-74769266D01*
X63313000Y-74769750D01*
X61862000Y-74769750D01*
X61852149Y-74769266D01*
X61842393Y-74767819D01*
X61832826Y-74765423D01*
X61823540Y-74762100D01*
X61814625Y-74757883D01*
X61806165Y-74752813D01*
X61798243Y-74746938D01*
X61790936Y-74740314D01*
X61784312Y-74733007D01*
X61778437Y-74725085D01*
X61773367Y-74716625D01*
X61769150Y-74707710D01*
X61765827Y-74698424D01*
X61763431Y-74688857D01*
X61761984Y-74679101D01*
X61761500Y-74669250D01*
X61761500Y-74468250D01*
X61761984Y-74458399D01*
X61763431Y-74448643D01*
X61765827Y-74439076D01*
X61769150Y-74429790D01*
X61773367Y-74420875D01*
X61778437Y-74412415D01*
X61784312Y-74404493D01*
X61790936Y-74397186D01*
X61798243Y-74390562D01*
X61806165Y-74384687D01*
X61814625Y-74379617D01*
X61823540Y-74375400D01*
X61832826Y-74372077D01*
X61842393Y-74369681D01*
X61852149Y-74368234D01*
X61862000Y-74367750D01*
X63313000Y-74367750D01*
X63322851Y-74368234D01*
X63322851Y-74368234D01*
G37*
D22*
X62587500Y-74568750D03*
D21*
G36*
X63322851Y-73868234D02*
G01*
X63332607Y-73869681D01*
X63342174Y-73872077D01*
X63351460Y-73875400D01*
X63360375Y-73879617D01*
X63368835Y-73884687D01*
X63376757Y-73890562D01*
X63384064Y-73897186D01*
X63390688Y-73904493D01*
X63396563Y-73912415D01*
X63401633Y-73920875D01*
X63405850Y-73929790D01*
X63409173Y-73939076D01*
X63411569Y-73948643D01*
X63413016Y-73958399D01*
X63413500Y-73968250D01*
X63413500Y-74169250D01*
X63413016Y-74179101D01*
X63411569Y-74188857D01*
X63409173Y-74198424D01*
X63405850Y-74207710D01*
X63401633Y-74216625D01*
X63396563Y-74225085D01*
X63390688Y-74233007D01*
X63384064Y-74240314D01*
X63376757Y-74246938D01*
X63368835Y-74252813D01*
X63360375Y-74257883D01*
X63351460Y-74262100D01*
X63342174Y-74265423D01*
X63332607Y-74267819D01*
X63322851Y-74269266D01*
X63313000Y-74269750D01*
X61862000Y-74269750D01*
X61852149Y-74269266D01*
X61842393Y-74267819D01*
X61832826Y-74265423D01*
X61823540Y-74262100D01*
X61814625Y-74257883D01*
X61806165Y-74252813D01*
X61798243Y-74246938D01*
X61790936Y-74240314D01*
X61784312Y-74233007D01*
X61778437Y-74225085D01*
X61773367Y-74216625D01*
X61769150Y-74207710D01*
X61765827Y-74198424D01*
X61763431Y-74188857D01*
X61761984Y-74179101D01*
X61761500Y-74169250D01*
X61761500Y-73968250D01*
X61761984Y-73958399D01*
X61763431Y-73948643D01*
X61765827Y-73939076D01*
X61769150Y-73929790D01*
X61773367Y-73920875D01*
X61778437Y-73912415D01*
X61784312Y-73904493D01*
X61790936Y-73897186D01*
X61798243Y-73890562D01*
X61806165Y-73884687D01*
X61814625Y-73879617D01*
X61823540Y-73875400D01*
X61832826Y-73872077D01*
X61842393Y-73869681D01*
X61852149Y-73868234D01*
X61862000Y-73867750D01*
X63313000Y-73867750D01*
X63322851Y-73868234D01*
X63322851Y-73868234D01*
G37*
D22*
X62587500Y-74068750D03*
D21*
G36*
X63322851Y-73368234D02*
G01*
X63332607Y-73369681D01*
X63342174Y-73372077D01*
X63351460Y-73375400D01*
X63360375Y-73379617D01*
X63368835Y-73384687D01*
X63376757Y-73390562D01*
X63384064Y-73397186D01*
X63390688Y-73404493D01*
X63396563Y-73412415D01*
X63401633Y-73420875D01*
X63405850Y-73429790D01*
X63409173Y-73439076D01*
X63411569Y-73448643D01*
X63413016Y-73458399D01*
X63413500Y-73468250D01*
X63413500Y-73669250D01*
X63413016Y-73679101D01*
X63411569Y-73688857D01*
X63409173Y-73698424D01*
X63405850Y-73707710D01*
X63401633Y-73716625D01*
X63396563Y-73725085D01*
X63390688Y-73733007D01*
X63384064Y-73740314D01*
X63376757Y-73746938D01*
X63368835Y-73752813D01*
X63360375Y-73757883D01*
X63351460Y-73762100D01*
X63342174Y-73765423D01*
X63332607Y-73767819D01*
X63322851Y-73769266D01*
X63313000Y-73769750D01*
X61862000Y-73769750D01*
X61852149Y-73769266D01*
X61842393Y-73767819D01*
X61832826Y-73765423D01*
X61823540Y-73762100D01*
X61814625Y-73757883D01*
X61806165Y-73752813D01*
X61798243Y-73746938D01*
X61790936Y-73740314D01*
X61784312Y-73733007D01*
X61778437Y-73725085D01*
X61773367Y-73716625D01*
X61769150Y-73707710D01*
X61765827Y-73698424D01*
X61763431Y-73688857D01*
X61761984Y-73679101D01*
X61761500Y-73669250D01*
X61761500Y-73468250D01*
X61761984Y-73458399D01*
X61763431Y-73448643D01*
X61765827Y-73439076D01*
X61769150Y-73429790D01*
X61773367Y-73420875D01*
X61778437Y-73412415D01*
X61784312Y-73404493D01*
X61790936Y-73397186D01*
X61798243Y-73390562D01*
X61806165Y-73384687D01*
X61814625Y-73379617D01*
X61823540Y-73375400D01*
X61832826Y-73372077D01*
X61842393Y-73369681D01*
X61852149Y-73368234D01*
X61862000Y-73367750D01*
X63313000Y-73367750D01*
X63322851Y-73368234D01*
X63322851Y-73368234D01*
G37*
D22*
X62587500Y-73568750D03*
D21*
G36*
X63322851Y-72868234D02*
G01*
X63332607Y-72869681D01*
X63342174Y-72872077D01*
X63351460Y-72875400D01*
X63360375Y-72879617D01*
X63368835Y-72884687D01*
X63376757Y-72890562D01*
X63384064Y-72897186D01*
X63390688Y-72904493D01*
X63396563Y-72912415D01*
X63401633Y-72920875D01*
X63405850Y-72929790D01*
X63409173Y-72939076D01*
X63411569Y-72948643D01*
X63413016Y-72958399D01*
X63413500Y-72968250D01*
X63413500Y-73169250D01*
X63413016Y-73179101D01*
X63411569Y-73188857D01*
X63409173Y-73198424D01*
X63405850Y-73207710D01*
X63401633Y-73216625D01*
X63396563Y-73225085D01*
X63390688Y-73233007D01*
X63384064Y-73240314D01*
X63376757Y-73246938D01*
X63368835Y-73252813D01*
X63360375Y-73257883D01*
X63351460Y-73262100D01*
X63342174Y-73265423D01*
X63332607Y-73267819D01*
X63322851Y-73269266D01*
X63313000Y-73269750D01*
X61862000Y-73269750D01*
X61852149Y-73269266D01*
X61842393Y-73267819D01*
X61832826Y-73265423D01*
X61823540Y-73262100D01*
X61814625Y-73257883D01*
X61806165Y-73252813D01*
X61798243Y-73246938D01*
X61790936Y-73240314D01*
X61784312Y-73233007D01*
X61778437Y-73225085D01*
X61773367Y-73216625D01*
X61769150Y-73207710D01*
X61765827Y-73198424D01*
X61763431Y-73188857D01*
X61761984Y-73179101D01*
X61761500Y-73169250D01*
X61761500Y-72968250D01*
X61761984Y-72958399D01*
X61763431Y-72948643D01*
X61765827Y-72939076D01*
X61769150Y-72929790D01*
X61773367Y-72920875D01*
X61778437Y-72912415D01*
X61784312Y-72904493D01*
X61790936Y-72897186D01*
X61798243Y-72890562D01*
X61806165Y-72884687D01*
X61814625Y-72879617D01*
X61823540Y-72875400D01*
X61832826Y-72872077D01*
X61842393Y-72869681D01*
X61852149Y-72868234D01*
X61862000Y-72867750D01*
X63313000Y-72867750D01*
X63322851Y-72868234D01*
X63322851Y-72868234D01*
G37*
D22*
X62587500Y-73068750D03*
D21*
G36*
X63322851Y-72368234D02*
G01*
X63332607Y-72369681D01*
X63342174Y-72372077D01*
X63351460Y-72375400D01*
X63360375Y-72379617D01*
X63368835Y-72384687D01*
X63376757Y-72390562D01*
X63384064Y-72397186D01*
X63390688Y-72404493D01*
X63396563Y-72412415D01*
X63401633Y-72420875D01*
X63405850Y-72429790D01*
X63409173Y-72439076D01*
X63411569Y-72448643D01*
X63413016Y-72458399D01*
X63413500Y-72468250D01*
X63413500Y-72669250D01*
X63413016Y-72679101D01*
X63411569Y-72688857D01*
X63409173Y-72698424D01*
X63405850Y-72707710D01*
X63401633Y-72716625D01*
X63396563Y-72725085D01*
X63390688Y-72733007D01*
X63384064Y-72740314D01*
X63376757Y-72746938D01*
X63368835Y-72752813D01*
X63360375Y-72757883D01*
X63351460Y-72762100D01*
X63342174Y-72765423D01*
X63332607Y-72767819D01*
X63322851Y-72769266D01*
X63313000Y-72769750D01*
X61862000Y-72769750D01*
X61852149Y-72769266D01*
X61842393Y-72767819D01*
X61832826Y-72765423D01*
X61823540Y-72762100D01*
X61814625Y-72757883D01*
X61806165Y-72752813D01*
X61798243Y-72746938D01*
X61790936Y-72740314D01*
X61784312Y-72733007D01*
X61778437Y-72725085D01*
X61773367Y-72716625D01*
X61769150Y-72707710D01*
X61765827Y-72698424D01*
X61763431Y-72688857D01*
X61761984Y-72679101D01*
X61761500Y-72669250D01*
X61761500Y-72468250D01*
X61761984Y-72458399D01*
X61763431Y-72448643D01*
X61765827Y-72439076D01*
X61769150Y-72429790D01*
X61773367Y-72420875D01*
X61778437Y-72412415D01*
X61784312Y-72404493D01*
X61790936Y-72397186D01*
X61798243Y-72390562D01*
X61806165Y-72384687D01*
X61814625Y-72379617D01*
X61823540Y-72375400D01*
X61832826Y-72372077D01*
X61842393Y-72369681D01*
X61852149Y-72368234D01*
X61862000Y-72367750D01*
X63313000Y-72367750D01*
X63322851Y-72368234D01*
X63322851Y-72368234D01*
G37*
D22*
X62587500Y-72568750D03*
D21*
G36*
X63322851Y-71868234D02*
G01*
X63332607Y-71869681D01*
X63342174Y-71872077D01*
X63351460Y-71875400D01*
X63360375Y-71879617D01*
X63368835Y-71884687D01*
X63376757Y-71890562D01*
X63384064Y-71897186D01*
X63390688Y-71904493D01*
X63396563Y-71912415D01*
X63401633Y-71920875D01*
X63405850Y-71929790D01*
X63409173Y-71939076D01*
X63411569Y-71948643D01*
X63413016Y-71958399D01*
X63413500Y-71968250D01*
X63413500Y-72169250D01*
X63413016Y-72179101D01*
X63411569Y-72188857D01*
X63409173Y-72198424D01*
X63405850Y-72207710D01*
X63401633Y-72216625D01*
X63396563Y-72225085D01*
X63390688Y-72233007D01*
X63384064Y-72240314D01*
X63376757Y-72246938D01*
X63368835Y-72252813D01*
X63360375Y-72257883D01*
X63351460Y-72262100D01*
X63342174Y-72265423D01*
X63332607Y-72267819D01*
X63322851Y-72269266D01*
X63313000Y-72269750D01*
X61862000Y-72269750D01*
X61852149Y-72269266D01*
X61842393Y-72267819D01*
X61832826Y-72265423D01*
X61823540Y-72262100D01*
X61814625Y-72257883D01*
X61806165Y-72252813D01*
X61798243Y-72246938D01*
X61790936Y-72240314D01*
X61784312Y-72233007D01*
X61778437Y-72225085D01*
X61773367Y-72216625D01*
X61769150Y-72207710D01*
X61765827Y-72198424D01*
X61763431Y-72188857D01*
X61761984Y-72179101D01*
X61761500Y-72169250D01*
X61761500Y-71968250D01*
X61761984Y-71958399D01*
X61763431Y-71948643D01*
X61765827Y-71939076D01*
X61769150Y-71929790D01*
X61773367Y-71920875D01*
X61778437Y-71912415D01*
X61784312Y-71904493D01*
X61790936Y-71897186D01*
X61798243Y-71890562D01*
X61806165Y-71884687D01*
X61814625Y-71879617D01*
X61823540Y-71875400D01*
X61832826Y-71872077D01*
X61842393Y-71869681D01*
X61852149Y-71868234D01*
X61862000Y-71867750D01*
X63313000Y-71867750D01*
X63322851Y-71868234D01*
X63322851Y-71868234D01*
G37*
D22*
X62587500Y-72068750D03*
D21*
G36*
X63322851Y-71368234D02*
G01*
X63332607Y-71369681D01*
X63342174Y-71372077D01*
X63351460Y-71375400D01*
X63360375Y-71379617D01*
X63368835Y-71384687D01*
X63376757Y-71390562D01*
X63384064Y-71397186D01*
X63390688Y-71404493D01*
X63396563Y-71412415D01*
X63401633Y-71420875D01*
X63405850Y-71429790D01*
X63409173Y-71439076D01*
X63411569Y-71448643D01*
X63413016Y-71458399D01*
X63413500Y-71468250D01*
X63413500Y-71669250D01*
X63413016Y-71679101D01*
X63411569Y-71688857D01*
X63409173Y-71698424D01*
X63405850Y-71707710D01*
X63401633Y-71716625D01*
X63396563Y-71725085D01*
X63390688Y-71733007D01*
X63384064Y-71740314D01*
X63376757Y-71746938D01*
X63368835Y-71752813D01*
X63360375Y-71757883D01*
X63351460Y-71762100D01*
X63342174Y-71765423D01*
X63332607Y-71767819D01*
X63322851Y-71769266D01*
X63313000Y-71769750D01*
X61862000Y-71769750D01*
X61852149Y-71769266D01*
X61842393Y-71767819D01*
X61832826Y-71765423D01*
X61823540Y-71762100D01*
X61814625Y-71757883D01*
X61806165Y-71752813D01*
X61798243Y-71746938D01*
X61790936Y-71740314D01*
X61784312Y-71733007D01*
X61778437Y-71725085D01*
X61773367Y-71716625D01*
X61769150Y-71707710D01*
X61765827Y-71698424D01*
X61763431Y-71688857D01*
X61761984Y-71679101D01*
X61761500Y-71669250D01*
X61761500Y-71468250D01*
X61761984Y-71458399D01*
X61763431Y-71448643D01*
X61765827Y-71439076D01*
X61769150Y-71429790D01*
X61773367Y-71420875D01*
X61778437Y-71412415D01*
X61784312Y-71404493D01*
X61790936Y-71397186D01*
X61798243Y-71390562D01*
X61806165Y-71384687D01*
X61814625Y-71379617D01*
X61823540Y-71375400D01*
X61832826Y-71372077D01*
X61842393Y-71369681D01*
X61852149Y-71368234D01*
X61862000Y-71367750D01*
X63313000Y-71367750D01*
X63322851Y-71368234D01*
X63322851Y-71368234D01*
G37*
D22*
X62587500Y-71568750D03*
D21*
G36*
X63322851Y-70868234D02*
G01*
X63332607Y-70869681D01*
X63342174Y-70872077D01*
X63351460Y-70875400D01*
X63360375Y-70879617D01*
X63368835Y-70884687D01*
X63376757Y-70890562D01*
X63384064Y-70897186D01*
X63390688Y-70904493D01*
X63396563Y-70912415D01*
X63401633Y-70920875D01*
X63405850Y-70929790D01*
X63409173Y-70939076D01*
X63411569Y-70948643D01*
X63413016Y-70958399D01*
X63413500Y-70968250D01*
X63413500Y-71169250D01*
X63413016Y-71179101D01*
X63411569Y-71188857D01*
X63409173Y-71198424D01*
X63405850Y-71207710D01*
X63401633Y-71216625D01*
X63396563Y-71225085D01*
X63390688Y-71233007D01*
X63384064Y-71240314D01*
X63376757Y-71246938D01*
X63368835Y-71252813D01*
X63360375Y-71257883D01*
X63351460Y-71262100D01*
X63342174Y-71265423D01*
X63332607Y-71267819D01*
X63322851Y-71269266D01*
X63313000Y-71269750D01*
X61862000Y-71269750D01*
X61852149Y-71269266D01*
X61842393Y-71267819D01*
X61832826Y-71265423D01*
X61823540Y-71262100D01*
X61814625Y-71257883D01*
X61806165Y-71252813D01*
X61798243Y-71246938D01*
X61790936Y-71240314D01*
X61784312Y-71233007D01*
X61778437Y-71225085D01*
X61773367Y-71216625D01*
X61769150Y-71207710D01*
X61765827Y-71198424D01*
X61763431Y-71188857D01*
X61761984Y-71179101D01*
X61761500Y-71169250D01*
X61761500Y-70968250D01*
X61761984Y-70958399D01*
X61763431Y-70948643D01*
X61765827Y-70939076D01*
X61769150Y-70929790D01*
X61773367Y-70920875D01*
X61778437Y-70912415D01*
X61784312Y-70904493D01*
X61790936Y-70897186D01*
X61798243Y-70890562D01*
X61806165Y-70884687D01*
X61814625Y-70879617D01*
X61823540Y-70875400D01*
X61832826Y-70872077D01*
X61842393Y-70869681D01*
X61852149Y-70868234D01*
X61862000Y-70867750D01*
X63313000Y-70867750D01*
X63322851Y-70868234D01*
X63322851Y-70868234D01*
G37*
D22*
X62587500Y-71068750D03*
D21*
G36*
X63322851Y-70368234D02*
G01*
X63332607Y-70369681D01*
X63342174Y-70372077D01*
X63351460Y-70375400D01*
X63360375Y-70379617D01*
X63368835Y-70384687D01*
X63376757Y-70390562D01*
X63384064Y-70397186D01*
X63390688Y-70404493D01*
X63396563Y-70412415D01*
X63401633Y-70420875D01*
X63405850Y-70429790D01*
X63409173Y-70439076D01*
X63411569Y-70448643D01*
X63413016Y-70458399D01*
X63413500Y-70468250D01*
X63413500Y-70669250D01*
X63413016Y-70679101D01*
X63411569Y-70688857D01*
X63409173Y-70698424D01*
X63405850Y-70707710D01*
X63401633Y-70716625D01*
X63396563Y-70725085D01*
X63390688Y-70733007D01*
X63384064Y-70740314D01*
X63376757Y-70746938D01*
X63368835Y-70752813D01*
X63360375Y-70757883D01*
X63351460Y-70762100D01*
X63342174Y-70765423D01*
X63332607Y-70767819D01*
X63322851Y-70769266D01*
X63313000Y-70769750D01*
X61862000Y-70769750D01*
X61852149Y-70769266D01*
X61842393Y-70767819D01*
X61832826Y-70765423D01*
X61823540Y-70762100D01*
X61814625Y-70757883D01*
X61806165Y-70752813D01*
X61798243Y-70746938D01*
X61790936Y-70740314D01*
X61784312Y-70733007D01*
X61778437Y-70725085D01*
X61773367Y-70716625D01*
X61769150Y-70707710D01*
X61765827Y-70698424D01*
X61763431Y-70688857D01*
X61761984Y-70679101D01*
X61761500Y-70669250D01*
X61761500Y-70468250D01*
X61761984Y-70458399D01*
X61763431Y-70448643D01*
X61765827Y-70439076D01*
X61769150Y-70429790D01*
X61773367Y-70420875D01*
X61778437Y-70412415D01*
X61784312Y-70404493D01*
X61790936Y-70397186D01*
X61798243Y-70390562D01*
X61806165Y-70384687D01*
X61814625Y-70379617D01*
X61823540Y-70375400D01*
X61832826Y-70372077D01*
X61842393Y-70369681D01*
X61852149Y-70368234D01*
X61862000Y-70367750D01*
X63313000Y-70367750D01*
X63322851Y-70368234D01*
X63322851Y-70368234D01*
G37*
D22*
X62587500Y-70568750D03*
D21*
G36*
X63322851Y-69868234D02*
G01*
X63332607Y-69869681D01*
X63342174Y-69872077D01*
X63351460Y-69875400D01*
X63360375Y-69879617D01*
X63368835Y-69884687D01*
X63376757Y-69890562D01*
X63384064Y-69897186D01*
X63390688Y-69904493D01*
X63396563Y-69912415D01*
X63401633Y-69920875D01*
X63405850Y-69929790D01*
X63409173Y-69939076D01*
X63411569Y-69948643D01*
X63413016Y-69958399D01*
X63413500Y-69968250D01*
X63413500Y-70169250D01*
X63413016Y-70179101D01*
X63411569Y-70188857D01*
X63409173Y-70198424D01*
X63405850Y-70207710D01*
X63401633Y-70216625D01*
X63396563Y-70225085D01*
X63390688Y-70233007D01*
X63384064Y-70240314D01*
X63376757Y-70246938D01*
X63368835Y-70252813D01*
X63360375Y-70257883D01*
X63351460Y-70262100D01*
X63342174Y-70265423D01*
X63332607Y-70267819D01*
X63322851Y-70269266D01*
X63313000Y-70269750D01*
X61862000Y-70269750D01*
X61852149Y-70269266D01*
X61842393Y-70267819D01*
X61832826Y-70265423D01*
X61823540Y-70262100D01*
X61814625Y-70257883D01*
X61806165Y-70252813D01*
X61798243Y-70246938D01*
X61790936Y-70240314D01*
X61784312Y-70233007D01*
X61778437Y-70225085D01*
X61773367Y-70216625D01*
X61769150Y-70207710D01*
X61765827Y-70198424D01*
X61763431Y-70188857D01*
X61761984Y-70179101D01*
X61761500Y-70169250D01*
X61761500Y-69968250D01*
X61761984Y-69958399D01*
X61763431Y-69948643D01*
X61765827Y-69939076D01*
X61769150Y-69929790D01*
X61773367Y-69920875D01*
X61778437Y-69912415D01*
X61784312Y-69904493D01*
X61790936Y-69897186D01*
X61798243Y-69890562D01*
X61806165Y-69884687D01*
X61814625Y-69879617D01*
X61823540Y-69875400D01*
X61832826Y-69872077D01*
X61842393Y-69869681D01*
X61852149Y-69868234D01*
X61862000Y-69867750D01*
X63313000Y-69867750D01*
X63322851Y-69868234D01*
X63322851Y-69868234D01*
G37*
D22*
X62587500Y-70068750D03*
D21*
G36*
X64622851Y-67318234D02*
G01*
X64632607Y-67319681D01*
X64642174Y-67322077D01*
X64651460Y-67325400D01*
X64660375Y-67329617D01*
X64668835Y-67334687D01*
X64676757Y-67340562D01*
X64684064Y-67347186D01*
X64690688Y-67354493D01*
X64696563Y-67362415D01*
X64701633Y-67370875D01*
X64705850Y-67379790D01*
X64709173Y-67389076D01*
X64711569Y-67398643D01*
X64713016Y-67408399D01*
X64713500Y-67418250D01*
X64713500Y-68869250D01*
X64713016Y-68879101D01*
X64711569Y-68888857D01*
X64709173Y-68898424D01*
X64705850Y-68907710D01*
X64701633Y-68916625D01*
X64696563Y-68925085D01*
X64690688Y-68933007D01*
X64684064Y-68940314D01*
X64676757Y-68946938D01*
X64668835Y-68952813D01*
X64660375Y-68957883D01*
X64651460Y-68962100D01*
X64642174Y-68965423D01*
X64632607Y-68967819D01*
X64622851Y-68969266D01*
X64613000Y-68969750D01*
X64412000Y-68969750D01*
X64402149Y-68969266D01*
X64392393Y-68967819D01*
X64382826Y-68965423D01*
X64373540Y-68962100D01*
X64364625Y-68957883D01*
X64356165Y-68952813D01*
X64348243Y-68946938D01*
X64340936Y-68940314D01*
X64334312Y-68933007D01*
X64328437Y-68925085D01*
X64323367Y-68916625D01*
X64319150Y-68907710D01*
X64315827Y-68898424D01*
X64313431Y-68888857D01*
X64311984Y-68879101D01*
X64311500Y-68869250D01*
X64311500Y-67418250D01*
X64311984Y-67408399D01*
X64313431Y-67398643D01*
X64315827Y-67389076D01*
X64319150Y-67379790D01*
X64323367Y-67370875D01*
X64328437Y-67362415D01*
X64334312Y-67354493D01*
X64340936Y-67347186D01*
X64348243Y-67340562D01*
X64356165Y-67334687D01*
X64364625Y-67329617D01*
X64373540Y-67325400D01*
X64382826Y-67322077D01*
X64392393Y-67319681D01*
X64402149Y-67318234D01*
X64412000Y-67317750D01*
X64613000Y-67317750D01*
X64622851Y-67318234D01*
X64622851Y-67318234D01*
G37*
D22*
X64512500Y-68143750D03*
D21*
G36*
X65122851Y-67318234D02*
G01*
X65132607Y-67319681D01*
X65142174Y-67322077D01*
X65151460Y-67325400D01*
X65160375Y-67329617D01*
X65168835Y-67334687D01*
X65176757Y-67340562D01*
X65184064Y-67347186D01*
X65190688Y-67354493D01*
X65196563Y-67362415D01*
X65201633Y-67370875D01*
X65205850Y-67379790D01*
X65209173Y-67389076D01*
X65211569Y-67398643D01*
X65213016Y-67408399D01*
X65213500Y-67418250D01*
X65213500Y-68869250D01*
X65213016Y-68879101D01*
X65211569Y-68888857D01*
X65209173Y-68898424D01*
X65205850Y-68907710D01*
X65201633Y-68916625D01*
X65196563Y-68925085D01*
X65190688Y-68933007D01*
X65184064Y-68940314D01*
X65176757Y-68946938D01*
X65168835Y-68952813D01*
X65160375Y-68957883D01*
X65151460Y-68962100D01*
X65142174Y-68965423D01*
X65132607Y-68967819D01*
X65122851Y-68969266D01*
X65113000Y-68969750D01*
X64912000Y-68969750D01*
X64902149Y-68969266D01*
X64892393Y-68967819D01*
X64882826Y-68965423D01*
X64873540Y-68962100D01*
X64864625Y-68957883D01*
X64856165Y-68952813D01*
X64848243Y-68946938D01*
X64840936Y-68940314D01*
X64834312Y-68933007D01*
X64828437Y-68925085D01*
X64823367Y-68916625D01*
X64819150Y-68907710D01*
X64815827Y-68898424D01*
X64813431Y-68888857D01*
X64811984Y-68879101D01*
X64811500Y-68869250D01*
X64811500Y-67418250D01*
X64811984Y-67408399D01*
X64813431Y-67398643D01*
X64815827Y-67389076D01*
X64819150Y-67379790D01*
X64823367Y-67370875D01*
X64828437Y-67362415D01*
X64834312Y-67354493D01*
X64840936Y-67347186D01*
X64848243Y-67340562D01*
X64856165Y-67334687D01*
X64864625Y-67329617D01*
X64873540Y-67325400D01*
X64882826Y-67322077D01*
X64892393Y-67319681D01*
X64902149Y-67318234D01*
X64912000Y-67317750D01*
X65113000Y-67317750D01*
X65122851Y-67318234D01*
X65122851Y-67318234D01*
G37*
D22*
X65012500Y-68143750D03*
D21*
G36*
X65622851Y-67318234D02*
G01*
X65632607Y-67319681D01*
X65642174Y-67322077D01*
X65651460Y-67325400D01*
X65660375Y-67329617D01*
X65668835Y-67334687D01*
X65676757Y-67340562D01*
X65684064Y-67347186D01*
X65690688Y-67354493D01*
X65696563Y-67362415D01*
X65701633Y-67370875D01*
X65705850Y-67379790D01*
X65709173Y-67389076D01*
X65711569Y-67398643D01*
X65713016Y-67408399D01*
X65713500Y-67418250D01*
X65713500Y-68869250D01*
X65713016Y-68879101D01*
X65711569Y-68888857D01*
X65709173Y-68898424D01*
X65705850Y-68907710D01*
X65701633Y-68916625D01*
X65696563Y-68925085D01*
X65690688Y-68933007D01*
X65684064Y-68940314D01*
X65676757Y-68946938D01*
X65668835Y-68952813D01*
X65660375Y-68957883D01*
X65651460Y-68962100D01*
X65642174Y-68965423D01*
X65632607Y-68967819D01*
X65622851Y-68969266D01*
X65613000Y-68969750D01*
X65412000Y-68969750D01*
X65402149Y-68969266D01*
X65392393Y-68967819D01*
X65382826Y-68965423D01*
X65373540Y-68962100D01*
X65364625Y-68957883D01*
X65356165Y-68952813D01*
X65348243Y-68946938D01*
X65340936Y-68940314D01*
X65334312Y-68933007D01*
X65328437Y-68925085D01*
X65323367Y-68916625D01*
X65319150Y-68907710D01*
X65315827Y-68898424D01*
X65313431Y-68888857D01*
X65311984Y-68879101D01*
X65311500Y-68869250D01*
X65311500Y-67418250D01*
X65311984Y-67408399D01*
X65313431Y-67398643D01*
X65315827Y-67389076D01*
X65319150Y-67379790D01*
X65323367Y-67370875D01*
X65328437Y-67362415D01*
X65334312Y-67354493D01*
X65340936Y-67347186D01*
X65348243Y-67340562D01*
X65356165Y-67334687D01*
X65364625Y-67329617D01*
X65373540Y-67325400D01*
X65382826Y-67322077D01*
X65392393Y-67319681D01*
X65402149Y-67318234D01*
X65412000Y-67317750D01*
X65613000Y-67317750D01*
X65622851Y-67318234D01*
X65622851Y-67318234D01*
G37*
D22*
X65512500Y-68143750D03*
D21*
G36*
X66122851Y-67318234D02*
G01*
X66132607Y-67319681D01*
X66142174Y-67322077D01*
X66151460Y-67325400D01*
X66160375Y-67329617D01*
X66168835Y-67334687D01*
X66176757Y-67340562D01*
X66184064Y-67347186D01*
X66190688Y-67354493D01*
X66196563Y-67362415D01*
X66201633Y-67370875D01*
X66205850Y-67379790D01*
X66209173Y-67389076D01*
X66211569Y-67398643D01*
X66213016Y-67408399D01*
X66213500Y-67418250D01*
X66213500Y-68869250D01*
X66213016Y-68879101D01*
X66211569Y-68888857D01*
X66209173Y-68898424D01*
X66205850Y-68907710D01*
X66201633Y-68916625D01*
X66196563Y-68925085D01*
X66190688Y-68933007D01*
X66184064Y-68940314D01*
X66176757Y-68946938D01*
X66168835Y-68952813D01*
X66160375Y-68957883D01*
X66151460Y-68962100D01*
X66142174Y-68965423D01*
X66132607Y-68967819D01*
X66122851Y-68969266D01*
X66113000Y-68969750D01*
X65912000Y-68969750D01*
X65902149Y-68969266D01*
X65892393Y-68967819D01*
X65882826Y-68965423D01*
X65873540Y-68962100D01*
X65864625Y-68957883D01*
X65856165Y-68952813D01*
X65848243Y-68946938D01*
X65840936Y-68940314D01*
X65834312Y-68933007D01*
X65828437Y-68925085D01*
X65823367Y-68916625D01*
X65819150Y-68907710D01*
X65815827Y-68898424D01*
X65813431Y-68888857D01*
X65811984Y-68879101D01*
X65811500Y-68869250D01*
X65811500Y-67418250D01*
X65811984Y-67408399D01*
X65813431Y-67398643D01*
X65815827Y-67389076D01*
X65819150Y-67379790D01*
X65823367Y-67370875D01*
X65828437Y-67362415D01*
X65834312Y-67354493D01*
X65840936Y-67347186D01*
X65848243Y-67340562D01*
X65856165Y-67334687D01*
X65864625Y-67329617D01*
X65873540Y-67325400D01*
X65882826Y-67322077D01*
X65892393Y-67319681D01*
X65902149Y-67318234D01*
X65912000Y-67317750D01*
X66113000Y-67317750D01*
X66122851Y-67318234D01*
X66122851Y-67318234D01*
G37*
D22*
X66012500Y-68143750D03*
D21*
G36*
X66622851Y-67318234D02*
G01*
X66632607Y-67319681D01*
X66642174Y-67322077D01*
X66651460Y-67325400D01*
X66660375Y-67329617D01*
X66668835Y-67334687D01*
X66676757Y-67340562D01*
X66684064Y-67347186D01*
X66690688Y-67354493D01*
X66696563Y-67362415D01*
X66701633Y-67370875D01*
X66705850Y-67379790D01*
X66709173Y-67389076D01*
X66711569Y-67398643D01*
X66713016Y-67408399D01*
X66713500Y-67418250D01*
X66713500Y-68869250D01*
X66713016Y-68879101D01*
X66711569Y-68888857D01*
X66709173Y-68898424D01*
X66705850Y-68907710D01*
X66701633Y-68916625D01*
X66696563Y-68925085D01*
X66690688Y-68933007D01*
X66684064Y-68940314D01*
X66676757Y-68946938D01*
X66668835Y-68952813D01*
X66660375Y-68957883D01*
X66651460Y-68962100D01*
X66642174Y-68965423D01*
X66632607Y-68967819D01*
X66622851Y-68969266D01*
X66613000Y-68969750D01*
X66412000Y-68969750D01*
X66402149Y-68969266D01*
X66392393Y-68967819D01*
X66382826Y-68965423D01*
X66373540Y-68962100D01*
X66364625Y-68957883D01*
X66356165Y-68952813D01*
X66348243Y-68946938D01*
X66340936Y-68940314D01*
X66334312Y-68933007D01*
X66328437Y-68925085D01*
X66323367Y-68916625D01*
X66319150Y-68907710D01*
X66315827Y-68898424D01*
X66313431Y-68888857D01*
X66311984Y-68879101D01*
X66311500Y-68869250D01*
X66311500Y-67418250D01*
X66311984Y-67408399D01*
X66313431Y-67398643D01*
X66315827Y-67389076D01*
X66319150Y-67379790D01*
X66323367Y-67370875D01*
X66328437Y-67362415D01*
X66334312Y-67354493D01*
X66340936Y-67347186D01*
X66348243Y-67340562D01*
X66356165Y-67334687D01*
X66364625Y-67329617D01*
X66373540Y-67325400D01*
X66382826Y-67322077D01*
X66392393Y-67319681D01*
X66402149Y-67318234D01*
X66412000Y-67317750D01*
X66613000Y-67317750D01*
X66622851Y-67318234D01*
X66622851Y-67318234D01*
G37*
D22*
X66512500Y-68143750D03*
D21*
G36*
X67122851Y-67318234D02*
G01*
X67132607Y-67319681D01*
X67142174Y-67322077D01*
X67151460Y-67325400D01*
X67160375Y-67329617D01*
X67168835Y-67334687D01*
X67176757Y-67340562D01*
X67184064Y-67347186D01*
X67190688Y-67354493D01*
X67196563Y-67362415D01*
X67201633Y-67370875D01*
X67205850Y-67379790D01*
X67209173Y-67389076D01*
X67211569Y-67398643D01*
X67213016Y-67408399D01*
X67213500Y-67418250D01*
X67213500Y-68869250D01*
X67213016Y-68879101D01*
X67211569Y-68888857D01*
X67209173Y-68898424D01*
X67205850Y-68907710D01*
X67201633Y-68916625D01*
X67196563Y-68925085D01*
X67190688Y-68933007D01*
X67184064Y-68940314D01*
X67176757Y-68946938D01*
X67168835Y-68952813D01*
X67160375Y-68957883D01*
X67151460Y-68962100D01*
X67142174Y-68965423D01*
X67132607Y-68967819D01*
X67122851Y-68969266D01*
X67113000Y-68969750D01*
X66912000Y-68969750D01*
X66902149Y-68969266D01*
X66892393Y-68967819D01*
X66882826Y-68965423D01*
X66873540Y-68962100D01*
X66864625Y-68957883D01*
X66856165Y-68952813D01*
X66848243Y-68946938D01*
X66840936Y-68940314D01*
X66834312Y-68933007D01*
X66828437Y-68925085D01*
X66823367Y-68916625D01*
X66819150Y-68907710D01*
X66815827Y-68898424D01*
X66813431Y-68888857D01*
X66811984Y-68879101D01*
X66811500Y-68869250D01*
X66811500Y-67418250D01*
X66811984Y-67408399D01*
X66813431Y-67398643D01*
X66815827Y-67389076D01*
X66819150Y-67379790D01*
X66823367Y-67370875D01*
X66828437Y-67362415D01*
X66834312Y-67354493D01*
X66840936Y-67347186D01*
X66848243Y-67340562D01*
X66856165Y-67334687D01*
X66864625Y-67329617D01*
X66873540Y-67325400D01*
X66882826Y-67322077D01*
X66892393Y-67319681D01*
X66902149Y-67318234D01*
X66912000Y-67317750D01*
X67113000Y-67317750D01*
X67122851Y-67318234D01*
X67122851Y-67318234D01*
G37*
D22*
X67012500Y-68143750D03*
D21*
G36*
X67622851Y-67318234D02*
G01*
X67632607Y-67319681D01*
X67642174Y-67322077D01*
X67651460Y-67325400D01*
X67660375Y-67329617D01*
X67668835Y-67334687D01*
X67676757Y-67340562D01*
X67684064Y-67347186D01*
X67690688Y-67354493D01*
X67696563Y-67362415D01*
X67701633Y-67370875D01*
X67705850Y-67379790D01*
X67709173Y-67389076D01*
X67711569Y-67398643D01*
X67713016Y-67408399D01*
X67713500Y-67418250D01*
X67713500Y-68869250D01*
X67713016Y-68879101D01*
X67711569Y-68888857D01*
X67709173Y-68898424D01*
X67705850Y-68907710D01*
X67701633Y-68916625D01*
X67696563Y-68925085D01*
X67690688Y-68933007D01*
X67684064Y-68940314D01*
X67676757Y-68946938D01*
X67668835Y-68952813D01*
X67660375Y-68957883D01*
X67651460Y-68962100D01*
X67642174Y-68965423D01*
X67632607Y-68967819D01*
X67622851Y-68969266D01*
X67613000Y-68969750D01*
X67412000Y-68969750D01*
X67402149Y-68969266D01*
X67392393Y-68967819D01*
X67382826Y-68965423D01*
X67373540Y-68962100D01*
X67364625Y-68957883D01*
X67356165Y-68952813D01*
X67348243Y-68946938D01*
X67340936Y-68940314D01*
X67334312Y-68933007D01*
X67328437Y-68925085D01*
X67323367Y-68916625D01*
X67319150Y-68907710D01*
X67315827Y-68898424D01*
X67313431Y-68888857D01*
X67311984Y-68879101D01*
X67311500Y-68869250D01*
X67311500Y-67418250D01*
X67311984Y-67408399D01*
X67313431Y-67398643D01*
X67315827Y-67389076D01*
X67319150Y-67379790D01*
X67323367Y-67370875D01*
X67328437Y-67362415D01*
X67334312Y-67354493D01*
X67340936Y-67347186D01*
X67348243Y-67340562D01*
X67356165Y-67334687D01*
X67364625Y-67329617D01*
X67373540Y-67325400D01*
X67382826Y-67322077D01*
X67392393Y-67319681D01*
X67402149Y-67318234D01*
X67412000Y-67317750D01*
X67613000Y-67317750D01*
X67622851Y-67318234D01*
X67622851Y-67318234D01*
G37*
D22*
X67512500Y-68143750D03*
D21*
G36*
X68122851Y-67318234D02*
G01*
X68132607Y-67319681D01*
X68142174Y-67322077D01*
X68151460Y-67325400D01*
X68160375Y-67329617D01*
X68168835Y-67334687D01*
X68176757Y-67340562D01*
X68184064Y-67347186D01*
X68190688Y-67354493D01*
X68196563Y-67362415D01*
X68201633Y-67370875D01*
X68205850Y-67379790D01*
X68209173Y-67389076D01*
X68211569Y-67398643D01*
X68213016Y-67408399D01*
X68213500Y-67418250D01*
X68213500Y-68869250D01*
X68213016Y-68879101D01*
X68211569Y-68888857D01*
X68209173Y-68898424D01*
X68205850Y-68907710D01*
X68201633Y-68916625D01*
X68196563Y-68925085D01*
X68190688Y-68933007D01*
X68184064Y-68940314D01*
X68176757Y-68946938D01*
X68168835Y-68952813D01*
X68160375Y-68957883D01*
X68151460Y-68962100D01*
X68142174Y-68965423D01*
X68132607Y-68967819D01*
X68122851Y-68969266D01*
X68113000Y-68969750D01*
X67912000Y-68969750D01*
X67902149Y-68969266D01*
X67892393Y-68967819D01*
X67882826Y-68965423D01*
X67873540Y-68962100D01*
X67864625Y-68957883D01*
X67856165Y-68952813D01*
X67848243Y-68946938D01*
X67840936Y-68940314D01*
X67834312Y-68933007D01*
X67828437Y-68925085D01*
X67823367Y-68916625D01*
X67819150Y-68907710D01*
X67815827Y-68898424D01*
X67813431Y-68888857D01*
X67811984Y-68879101D01*
X67811500Y-68869250D01*
X67811500Y-67418250D01*
X67811984Y-67408399D01*
X67813431Y-67398643D01*
X67815827Y-67389076D01*
X67819150Y-67379790D01*
X67823367Y-67370875D01*
X67828437Y-67362415D01*
X67834312Y-67354493D01*
X67840936Y-67347186D01*
X67848243Y-67340562D01*
X67856165Y-67334687D01*
X67864625Y-67329617D01*
X67873540Y-67325400D01*
X67882826Y-67322077D01*
X67892393Y-67319681D01*
X67902149Y-67318234D01*
X67912000Y-67317750D01*
X68113000Y-67317750D01*
X68122851Y-67318234D01*
X68122851Y-67318234D01*
G37*
D22*
X68012500Y-68143750D03*
D21*
G36*
X68622851Y-67318234D02*
G01*
X68632607Y-67319681D01*
X68642174Y-67322077D01*
X68651460Y-67325400D01*
X68660375Y-67329617D01*
X68668835Y-67334687D01*
X68676757Y-67340562D01*
X68684064Y-67347186D01*
X68690688Y-67354493D01*
X68696563Y-67362415D01*
X68701633Y-67370875D01*
X68705850Y-67379790D01*
X68709173Y-67389076D01*
X68711569Y-67398643D01*
X68713016Y-67408399D01*
X68713500Y-67418250D01*
X68713500Y-68869250D01*
X68713016Y-68879101D01*
X68711569Y-68888857D01*
X68709173Y-68898424D01*
X68705850Y-68907710D01*
X68701633Y-68916625D01*
X68696563Y-68925085D01*
X68690688Y-68933007D01*
X68684064Y-68940314D01*
X68676757Y-68946938D01*
X68668835Y-68952813D01*
X68660375Y-68957883D01*
X68651460Y-68962100D01*
X68642174Y-68965423D01*
X68632607Y-68967819D01*
X68622851Y-68969266D01*
X68613000Y-68969750D01*
X68412000Y-68969750D01*
X68402149Y-68969266D01*
X68392393Y-68967819D01*
X68382826Y-68965423D01*
X68373540Y-68962100D01*
X68364625Y-68957883D01*
X68356165Y-68952813D01*
X68348243Y-68946938D01*
X68340936Y-68940314D01*
X68334312Y-68933007D01*
X68328437Y-68925085D01*
X68323367Y-68916625D01*
X68319150Y-68907710D01*
X68315827Y-68898424D01*
X68313431Y-68888857D01*
X68311984Y-68879101D01*
X68311500Y-68869250D01*
X68311500Y-67418250D01*
X68311984Y-67408399D01*
X68313431Y-67398643D01*
X68315827Y-67389076D01*
X68319150Y-67379790D01*
X68323367Y-67370875D01*
X68328437Y-67362415D01*
X68334312Y-67354493D01*
X68340936Y-67347186D01*
X68348243Y-67340562D01*
X68356165Y-67334687D01*
X68364625Y-67329617D01*
X68373540Y-67325400D01*
X68382826Y-67322077D01*
X68392393Y-67319681D01*
X68402149Y-67318234D01*
X68412000Y-67317750D01*
X68613000Y-67317750D01*
X68622851Y-67318234D01*
X68622851Y-67318234D01*
G37*
D22*
X68512500Y-68143750D03*
D21*
G36*
X69122851Y-67318234D02*
G01*
X69132607Y-67319681D01*
X69142174Y-67322077D01*
X69151460Y-67325400D01*
X69160375Y-67329617D01*
X69168835Y-67334687D01*
X69176757Y-67340562D01*
X69184064Y-67347186D01*
X69190688Y-67354493D01*
X69196563Y-67362415D01*
X69201633Y-67370875D01*
X69205850Y-67379790D01*
X69209173Y-67389076D01*
X69211569Y-67398643D01*
X69213016Y-67408399D01*
X69213500Y-67418250D01*
X69213500Y-68869250D01*
X69213016Y-68879101D01*
X69211569Y-68888857D01*
X69209173Y-68898424D01*
X69205850Y-68907710D01*
X69201633Y-68916625D01*
X69196563Y-68925085D01*
X69190688Y-68933007D01*
X69184064Y-68940314D01*
X69176757Y-68946938D01*
X69168835Y-68952813D01*
X69160375Y-68957883D01*
X69151460Y-68962100D01*
X69142174Y-68965423D01*
X69132607Y-68967819D01*
X69122851Y-68969266D01*
X69113000Y-68969750D01*
X68912000Y-68969750D01*
X68902149Y-68969266D01*
X68892393Y-68967819D01*
X68882826Y-68965423D01*
X68873540Y-68962100D01*
X68864625Y-68957883D01*
X68856165Y-68952813D01*
X68848243Y-68946938D01*
X68840936Y-68940314D01*
X68834312Y-68933007D01*
X68828437Y-68925085D01*
X68823367Y-68916625D01*
X68819150Y-68907710D01*
X68815827Y-68898424D01*
X68813431Y-68888857D01*
X68811984Y-68879101D01*
X68811500Y-68869250D01*
X68811500Y-67418250D01*
X68811984Y-67408399D01*
X68813431Y-67398643D01*
X68815827Y-67389076D01*
X68819150Y-67379790D01*
X68823367Y-67370875D01*
X68828437Y-67362415D01*
X68834312Y-67354493D01*
X68840936Y-67347186D01*
X68848243Y-67340562D01*
X68856165Y-67334687D01*
X68864625Y-67329617D01*
X68873540Y-67325400D01*
X68882826Y-67322077D01*
X68892393Y-67319681D01*
X68902149Y-67318234D01*
X68912000Y-67317750D01*
X69113000Y-67317750D01*
X69122851Y-67318234D01*
X69122851Y-67318234D01*
G37*
D22*
X69012500Y-68143750D03*
D21*
G36*
X69622851Y-67318234D02*
G01*
X69632607Y-67319681D01*
X69642174Y-67322077D01*
X69651460Y-67325400D01*
X69660375Y-67329617D01*
X69668835Y-67334687D01*
X69676757Y-67340562D01*
X69684064Y-67347186D01*
X69690688Y-67354493D01*
X69696563Y-67362415D01*
X69701633Y-67370875D01*
X69705850Y-67379790D01*
X69709173Y-67389076D01*
X69711569Y-67398643D01*
X69713016Y-67408399D01*
X69713500Y-67418250D01*
X69713500Y-68869250D01*
X69713016Y-68879101D01*
X69711569Y-68888857D01*
X69709173Y-68898424D01*
X69705850Y-68907710D01*
X69701633Y-68916625D01*
X69696563Y-68925085D01*
X69690688Y-68933007D01*
X69684064Y-68940314D01*
X69676757Y-68946938D01*
X69668835Y-68952813D01*
X69660375Y-68957883D01*
X69651460Y-68962100D01*
X69642174Y-68965423D01*
X69632607Y-68967819D01*
X69622851Y-68969266D01*
X69613000Y-68969750D01*
X69412000Y-68969750D01*
X69402149Y-68969266D01*
X69392393Y-68967819D01*
X69382826Y-68965423D01*
X69373540Y-68962100D01*
X69364625Y-68957883D01*
X69356165Y-68952813D01*
X69348243Y-68946938D01*
X69340936Y-68940314D01*
X69334312Y-68933007D01*
X69328437Y-68925085D01*
X69323367Y-68916625D01*
X69319150Y-68907710D01*
X69315827Y-68898424D01*
X69313431Y-68888857D01*
X69311984Y-68879101D01*
X69311500Y-68869250D01*
X69311500Y-67418250D01*
X69311984Y-67408399D01*
X69313431Y-67398643D01*
X69315827Y-67389076D01*
X69319150Y-67379790D01*
X69323367Y-67370875D01*
X69328437Y-67362415D01*
X69334312Y-67354493D01*
X69340936Y-67347186D01*
X69348243Y-67340562D01*
X69356165Y-67334687D01*
X69364625Y-67329617D01*
X69373540Y-67325400D01*
X69382826Y-67322077D01*
X69392393Y-67319681D01*
X69402149Y-67318234D01*
X69412000Y-67317750D01*
X69613000Y-67317750D01*
X69622851Y-67318234D01*
X69622851Y-67318234D01*
G37*
D22*
X69512500Y-68143750D03*
D21*
G36*
X70122851Y-67318234D02*
G01*
X70132607Y-67319681D01*
X70142174Y-67322077D01*
X70151460Y-67325400D01*
X70160375Y-67329617D01*
X70168835Y-67334687D01*
X70176757Y-67340562D01*
X70184064Y-67347186D01*
X70190688Y-67354493D01*
X70196563Y-67362415D01*
X70201633Y-67370875D01*
X70205850Y-67379790D01*
X70209173Y-67389076D01*
X70211569Y-67398643D01*
X70213016Y-67408399D01*
X70213500Y-67418250D01*
X70213500Y-68869250D01*
X70213016Y-68879101D01*
X70211569Y-68888857D01*
X70209173Y-68898424D01*
X70205850Y-68907710D01*
X70201633Y-68916625D01*
X70196563Y-68925085D01*
X70190688Y-68933007D01*
X70184064Y-68940314D01*
X70176757Y-68946938D01*
X70168835Y-68952813D01*
X70160375Y-68957883D01*
X70151460Y-68962100D01*
X70142174Y-68965423D01*
X70132607Y-68967819D01*
X70122851Y-68969266D01*
X70113000Y-68969750D01*
X69912000Y-68969750D01*
X69902149Y-68969266D01*
X69892393Y-68967819D01*
X69882826Y-68965423D01*
X69873540Y-68962100D01*
X69864625Y-68957883D01*
X69856165Y-68952813D01*
X69848243Y-68946938D01*
X69840936Y-68940314D01*
X69834312Y-68933007D01*
X69828437Y-68925085D01*
X69823367Y-68916625D01*
X69819150Y-68907710D01*
X69815827Y-68898424D01*
X69813431Y-68888857D01*
X69811984Y-68879101D01*
X69811500Y-68869250D01*
X69811500Y-67418250D01*
X69811984Y-67408399D01*
X69813431Y-67398643D01*
X69815827Y-67389076D01*
X69819150Y-67379790D01*
X69823367Y-67370875D01*
X69828437Y-67362415D01*
X69834312Y-67354493D01*
X69840936Y-67347186D01*
X69848243Y-67340562D01*
X69856165Y-67334687D01*
X69864625Y-67329617D01*
X69873540Y-67325400D01*
X69882826Y-67322077D01*
X69892393Y-67319681D01*
X69902149Y-67318234D01*
X69912000Y-67317750D01*
X70113000Y-67317750D01*
X70122851Y-67318234D01*
X70122851Y-67318234D01*
G37*
D22*
X70012500Y-68143750D03*
D21*
G36*
X70622851Y-67318234D02*
G01*
X70632607Y-67319681D01*
X70642174Y-67322077D01*
X70651460Y-67325400D01*
X70660375Y-67329617D01*
X70668835Y-67334687D01*
X70676757Y-67340562D01*
X70684064Y-67347186D01*
X70690688Y-67354493D01*
X70696563Y-67362415D01*
X70701633Y-67370875D01*
X70705850Y-67379790D01*
X70709173Y-67389076D01*
X70711569Y-67398643D01*
X70713016Y-67408399D01*
X70713500Y-67418250D01*
X70713500Y-68869250D01*
X70713016Y-68879101D01*
X70711569Y-68888857D01*
X70709173Y-68898424D01*
X70705850Y-68907710D01*
X70701633Y-68916625D01*
X70696563Y-68925085D01*
X70690688Y-68933007D01*
X70684064Y-68940314D01*
X70676757Y-68946938D01*
X70668835Y-68952813D01*
X70660375Y-68957883D01*
X70651460Y-68962100D01*
X70642174Y-68965423D01*
X70632607Y-68967819D01*
X70622851Y-68969266D01*
X70613000Y-68969750D01*
X70412000Y-68969750D01*
X70402149Y-68969266D01*
X70392393Y-68967819D01*
X70382826Y-68965423D01*
X70373540Y-68962100D01*
X70364625Y-68957883D01*
X70356165Y-68952813D01*
X70348243Y-68946938D01*
X70340936Y-68940314D01*
X70334312Y-68933007D01*
X70328437Y-68925085D01*
X70323367Y-68916625D01*
X70319150Y-68907710D01*
X70315827Y-68898424D01*
X70313431Y-68888857D01*
X70311984Y-68879101D01*
X70311500Y-68869250D01*
X70311500Y-67418250D01*
X70311984Y-67408399D01*
X70313431Y-67398643D01*
X70315827Y-67389076D01*
X70319150Y-67379790D01*
X70323367Y-67370875D01*
X70328437Y-67362415D01*
X70334312Y-67354493D01*
X70340936Y-67347186D01*
X70348243Y-67340562D01*
X70356165Y-67334687D01*
X70364625Y-67329617D01*
X70373540Y-67325400D01*
X70382826Y-67322077D01*
X70392393Y-67319681D01*
X70402149Y-67318234D01*
X70412000Y-67317750D01*
X70613000Y-67317750D01*
X70622851Y-67318234D01*
X70622851Y-67318234D01*
G37*
D22*
X70512500Y-68143750D03*
D21*
G36*
X71122851Y-67318234D02*
G01*
X71132607Y-67319681D01*
X71142174Y-67322077D01*
X71151460Y-67325400D01*
X71160375Y-67329617D01*
X71168835Y-67334687D01*
X71176757Y-67340562D01*
X71184064Y-67347186D01*
X71190688Y-67354493D01*
X71196563Y-67362415D01*
X71201633Y-67370875D01*
X71205850Y-67379790D01*
X71209173Y-67389076D01*
X71211569Y-67398643D01*
X71213016Y-67408399D01*
X71213500Y-67418250D01*
X71213500Y-68869250D01*
X71213016Y-68879101D01*
X71211569Y-68888857D01*
X71209173Y-68898424D01*
X71205850Y-68907710D01*
X71201633Y-68916625D01*
X71196563Y-68925085D01*
X71190688Y-68933007D01*
X71184064Y-68940314D01*
X71176757Y-68946938D01*
X71168835Y-68952813D01*
X71160375Y-68957883D01*
X71151460Y-68962100D01*
X71142174Y-68965423D01*
X71132607Y-68967819D01*
X71122851Y-68969266D01*
X71113000Y-68969750D01*
X70912000Y-68969750D01*
X70902149Y-68969266D01*
X70892393Y-68967819D01*
X70882826Y-68965423D01*
X70873540Y-68962100D01*
X70864625Y-68957883D01*
X70856165Y-68952813D01*
X70848243Y-68946938D01*
X70840936Y-68940314D01*
X70834312Y-68933007D01*
X70828437Y-68925085D01*
X70823367Y-68916625D01*
X70819150Y-68907710D01*
X70815827Y-68898424D01*
X70813431Y-68888857D01*
X70811984Y-68879101D01*
X70811500Y-68869250D01*
X70811500Y-67418250D01*
X70811984Y-67408399D01*
X70813431Y-67398643D01*
X70815827Y-67389076D01*
X70819150Y-67379790D01*
X70823367Y-67370875D01*
X70828437Y-67362415D01*
X70834312Y-67354493D01*
X70840936Y-67347186D01*
X70848243Y-67340562D01*
X70856165Y-67334687D01*
X70864625Y-67329617D01*
X70873540Y-67325400D01*
X70882826Y-67322077D01*
X70892393Y-67319681D01*
X70902149Y-67318234D01*
X70912000Y-67317750D01*
X71113000Y-67317750D01*
X71122851Y-67318234D01*
X71122851Y-67318234D01*
G37*
D22*
X71012500Y-68143750D03*
D21*
G36*
X71622851Y-67318234D02*
G01*
X71632607Y-67319681D01*
X71642174Y-67322077D01*
X71651460Y-67325400D01*
X71660375Y-67329617D01*
X71668835Y-67334687D01*
X71676757Y-67340562D01*
X71684064Y-67347186D01*
X71690688Y-67354493D01*
X71696563Y-67362415D01*
X71701633Y-67370875D01*
X71705850Y-67379790D01*
X71709173Y-67389076D01*
X71711569Y-67398643D01*
X71713016Y-67408399D01*
X71713500Y-67418250D01*
X71713500Y-68869250D01*
X71713016Y-68879101D01*
X71711569Y-68888857D01*
X71709173Y-68898424D01*
X71705850Y-68907710D01*
X71701633Y-68916625D01*
X71696563Y-68925085D01*
X71690688Y-68933007D01*
X71684064Y-68940314D01*
X71676757Y-68946938D01*
X71668835Y-68952813D01*
X71660375Y-68957883D01*
X71651460Y-68962100D01*
X71642174Y-68965423D01*
X71632607Y-68967819D01*
X71622851Y-68969266D01*
X71613000Y-68969750D01*
X71412000Y-68969750D01*
X71402149Y-68969266D01*
X71392393Y-68967819D01*
X71382826Y-68965423D01*
X71373540Y-68962100D01*
X71364625Y-68957883D01*
X71356165Y-68952813D01*
X71348243Y-68946938D01*
X71340936Y-68940314D01*
X71334312Y-68933007D01*
X71328437Y-68925085D01*
X71323367Y-68916625D01*
X71319150Y-68907710D01*
X71315827Y-68898424D01*
X71313431Y-68888857D01*
X71311984Y-68879101D01*
X71311500Y-68869250D01*
X71311500Y-67418250D01*
X71311984Y-67408399D01*
X71313431Y-67398643D01*
X71315827Y-67389076D01*
X71319150Y-67379790D01*
X71323367Y-67370875D01*
X71328437Y-67362415D01*
X71334312Y-67354493D01*
X71340936Y-67347186D01*
X71348243Y-67340562D01*
X71356165Y-67334687D01*
X71364625Y-67329617D01*
X71373540Y-67325400D01*
X71382826Y-67322077D01*
X71392393Y-67319681D01*
X71402149Y-67318234D01*
X71412000Y-67317750D01*
X71613000Y-67317750D01*
X71622851Y-67318234D01*
X71622851Y-67318234D01*
G37*
D22*
X71512500Y-68143750D03*
D21*
G36*
X72122851Y-67318234D02*
G01*
X72132607Y-67319681D01*
X72142174Y-67322077D01*
X72151460Y-67325400D01*
X72160375Y-67329617D01*
X72168835Y-67334687D01*
X72176757Y-67340562D01*
X72184064Y-67347186D01*
X72190688Y-67354493D01*
X72196563Y-67362415D01*
X72201633Y-67370875D01*
X72205850Y-67379790D01*
X72209173Y-67389076D01*
X72211569Y-67398643D01*
X72213016Y-67408399D01*
X72213500Y-67418250D01*
X72213500Y-68869250D01*
X72213016Y-68879101D01*
X72211569Y-68888857D01*
X72209173Y-68898424D01*
X72205850Y-68907710D01*
X72201633Y-68916625D01*
X72196563Y-68925085D01*
X72190688Y-68933007D01*
X72184064Y-68940314D01*
X72176757Y-68946938D01*
X72168835Y-68952813D01*
X72160375Y-68957883D01*
X72151460Y-68962100D01*
X72142174Y-68965423D01*
X72132607Y-68967819D01*
X72122851Y-68969266D01*
X72113000Y-68969750D01*
X71912000Y-68969750D01*
X71902149Y-68969266D01*
X71892393Y-68967819D01*
X71882826Y-68965423D01*
X71873540Y-68962100D01*
X71864625Y-68957883D01*
X71856165Y-68952813D01*
X71848243Y-68946938D01*
X71840936Y-68940314D01*
X71834312Y-68933007D01*
X71828437Y-68925085D01*
X71823367Y-68916625D01*
X71819150Y-68907710D01*
X71815827Y-68898424D01*
X71813431Y-68888857D01*
X71811984Y-68879101D01*
X71811500Y-68869250D01*
X71811500Y-67418250D01*
X71811984Y-67408399D01*
X71813431Y-67398643D01*
X71815827Y-67389076D01*
X71819150Y-67379790D01*
X71823367Y-67370875D01*
X71828437Y-67362415D01*
X71834312Y-67354493D01*
X71840936Y-67347186D01*
X71848243Y-67340562D01*
X71856165Y-67334687D01*
X71864625Y-67329617D01*
X71873540Y-67325400D01*
X71882826Y-67322077D01*
X71892393Y-67319681D01*
X71902149Y-67318234D01*
X71912000Y-67317750D01*
X72113000Y-67317750D01*
X72122851Y-67318234D01*
X72122851Y-67318234D01*
G37*
D22*
X72012500Y-68143750D03*
D21*
G36*
X74672851Y-69868234D02*
G01*
X74682607Y-69869681D01*
X74692174Y-69872077D01*
X74701460Y-69875400D01*
X74710375Y-69879617D01*
X74718835Y-69884687D01*
X74726757Y-69890562D01*
X74734064Y-69897186D01*
X74740688Y-69904493D01*
X74746563Y-69912415D01*
X74751633Y-69920875D01*
X74755850Y-69929790D01*
X74759173Y-69939076D01*
X74761569Y-69948643D01*
X74763016Y-69958399D01*
X74763500Y-69968250D01*
X74763500Y-70169250D01*
X74763016Y-70179101D01*
X74761569Y-70188857D01*
X74759173Y-70198424D01*
X74755850Y-70207710D01*
X74751633Y-70216625D01*
X74746563Y-70225085D01*
X74740688Y-70233007D01*
X74734064Y-70240314D01*
X74726757Y-70246938D01*
X74718835Y-70252813D01*
X74710375Y-70257883D01*
X74701460Y-70262100D01*
X74692174Y-70265423D01*
X74682607Y-70267819D01*
X74672851Y-70269266D01*
X74663000Y-70269750D01*
X73212000Y-70269750D01*
X73202149Y-70269266D01*
X73192393Y-70267819D01*
X73182826Y-70265423D01*
X73173540Y-70262100D01*
X73164625Y-70257883D01*
X73156165Y-70252813D01*
X73148243Y-70246938D01*
X73140936Y-70240314D01*
X73134312Y-70233007D01*
X73128437Y-70225085D01*
X73123367Y-70216625D01*
X73119150Y-70207710D01*
X73115827Y-70198424D01*
X73113431Y-70188857D01*
X73111984Y-70179101D01*
X73111500Y-70169250D01*
X73111500Y-69968250D01*
X73111984Y-69958399D01*
X73113431Y-69948643D01*
X73115827Y-69939076D01*
X73119150Y-69929790D01*
X73123367Y-69920875D01*
X73128437Y-69912415D01*
X73134312Y-69904493D01*
X73140936Y-69897186D01*
X73148243Y-69890562D01*
X73156165Y-69884687D01*
X73164625Y-69879617D01*
X73173540Y-69875400D01*
X73182826Y-69872077D01*
X73192393Y-69869681D01*
X73202149Y-69868234D01*
X73212000Y-69867750D01*
X74663000Y-69867750D01*
X74672851Y-69868234D01*
X74672851Y-69868234D01*
G37*
D22*
X73937500Y-70068750D03*
D21*
G36*
X74672851Y-70368234D02*
G01*
X74682607Y-70369681D01*
X74692174Y-70372077D01*
X74701460Y-70375400D01*
X74710375Y-70379617D01*
X74718835Y-70384687D01*
X74726757Y-70390562D01*
X74734064Y-70397186D01*
X74740688Y-70404493D01*
X74746563Y-70412415D01*
X74751633Y-70420875D01*
X74755850Y-70429790D01*
X74759173Y-70439076D01*
X74761569Y-70448643D01*
X74763016Y-70458399D01*
X74763500Y-70468250D01*
X74763500Y-70669250D01*
X74763016Y-70679101D01*
X74761569Y-70688857D01*
X74759173Y-70698424D01*
X74755850Y-70707710D01*
X74751633Y-70716625D01*
X74746563Y-70725085D01*
X74740688Y-70733007D01*
X74734064Y-70740314D01*
X74726757Y-70746938D01*
X74718835Y-70752813D01*
X74710375Y-70757883D01*
X74701460Y-70762100D01*
X74692174Y-70765423D01*
X74682607Y-70767819D01*
X74672851Y-70769266D01*
X74663000Y-70769750D01*
X73212000Y-70769750D01*
X73202149Y-70769266D01*
X73192393Y-70767819D01*
X73182826Y-70765423D01*
X73173540Y-70762100D01*
X73164625Y-70757883D01*
X73156165Y-70752813D01*
X73148243Y-70746938D01*
X73140936Y-70740314D01*
X73134312Y-70733007D01*
X73128437Y-70725085D01*
X73123367Y-70716625D01*
X73119150Y-70707710D01*
X73115827Y-70698424D01*
X73113431Y-70688857D01*
X73111984Y-70679101D01*
X73111500Y-70669250D01*
X73111500Y-70468250D01*
X73111984Y-70458399D01*
X73113431Y-70448643D01*
X73115827Y-70439076D01*
X73119150Y-70429790D01*
X73123367Y-70420875D01*
X73128437Y-70412415D01*
X73134312Y-70404493D01*
X73140936Y-70397186D01*
X73148243Y-70390562D01*
X73156165Y-70384687D01*
X73164625Y-70379617D01*
X73173540Y-70375400D01*
X73182826Y-70372077D01*
X73192393Y-70369681D01*
X73202149Y-70368234D01*
X73212000Y-70367750D01*
X74663000Y-70367750D01*
X74672851Y-70368234D01*
X74672851Y-70368234D01*
G37*
D22*
X73937500Y-70568750D03*
D21*
G36*
X74672851Y-70868234D02*
G01*
X74682607Y-70869681D01*
X74692174Y-70872077D01*
X74701460Y-70875400D01*
X74710375Y-70879617D01*
X74718835Y-70884687D01*
X74726757Y-70890562D01*
X74734064Y-70897186D01*
X74740688Y-70904493D01*
X74746563Y-70912415D01*
X74751633Y-70920875D01*
X74755850Y-70929790D01*
X74759173Y-70939076D01*
X74761569Y-70948643D01*
X74763016Y-70958399D01*
X74763500Y-70968250D01*
X74763500Y-71169250D01*
X74763016Y-71179101D01*
X74761569Y-71188857D01*
X74759173Y-71198424D01*
X74755850Y-71207710D01*
X74751633Y-71216625D01*
X74746563Y-71225085D01*
X74740688Y-71233007D01*
X74734064Y-71240314D01*
X74726757Y-71246938D01*
X74718835Y-71252813D01*
X74710375Y-71257883D01*
X74701460Y-71262100D01*
X74692174Y-71265423D01*
X74682607Y-71267819D01*
X74672851Y-71269266D01*
X74663000Y-71269750D01*
X73212000Y-71269750D01*
X73202149Y-71269266D01*
X73192393Y-71267819D01*
X73182826Y-71265423D01*
X73173540Y-71262100D01*
X73164625Y-71257883D01*
X73156165Y-71252813D01*
X73148243Y-71246938D01*
X73140936Y-71240314D01*
X73134312Y-71233007D01*
X73128437Y-71225085D01*
X73123367Y-71216625D01*
X73119150Y-71207710D01*
X73115827Y-71198424D01*
X73113431Y-71188857D01*
X73111984Y-71179101D01*
X73111500Y-71169250D01*
X73111500Y-70968250D01*
X73111984Y-70958399D01*
X73113431Y-70948643D01*
X73115827Y-70939076D01*
X73119150Y-70929790D01*
X73123367Y-70920875D01*
X73128437Y-70912415D01*
X73134312Y-70904493D01*
X73140936Y-70897186D01*
X73148243Y-70890562D01*
X73156165Y-70884687D01*
X73164625Y-70879617D01*
X73173540Y-70875400D01*
X73182826Y-70872077D01*
X73192393Y-70869681D01*
X73202149Y-70868234D01*
X73212000Y-70867750D01*
X74663000Y-70867750D01*
X74672851Y-70868234D01*
X74672851Y-70868234D01*
G37*
D22*
X73937500Y-71068750D03*
D21*
G36*
X74672851Y-71368234D02*
G01*
X74682607Y-71369681D01*
X74692174Y-71372077D01*
X74701460Y-71375400D01*
X74710375Y-71379617D01*
X74718835Y-71384687D01*
X74726757Y-71390562D01*
X74734064Y-71397186D01*
X74740688Y-71404493D01*
X74746563Y-71412415D01*
X74751633Y-71420875D01*
X74755850Y-71429790D01*
X74759173Y-71439076D01*
X74761569Y-71448643D01*
X74763016Y-71458399D01*
X74763500Y-71468250D01*
X74763500Y-71669250D01*
X74763016Y-71679101D01*
X74761569Y-71688857D01*
X74759173Y-71698424D01*
X74755850Y-71707710D01*
X74751633Y-71716625D01*
X74746563Y-71725085D01*
X74740688Y-71733007D01*
X74734064Y-71740314D01*
X74726757Y-71746938D01*
X74718835Y-71752813D01*
X74710375Y-71757883D01*
X74701460Y-71762100D01*
X74692174Y-71765423D01*
X74682607Y-71767819D01*
X74672851Y-71769266D01*
X74663000Y-71769750D01*
X73212000Y-71769750D01*
X73202149Y-71769266D01*
X73192393Y-71767819D01*
X73182826Y-71765423D01*
X73173540Y-71762100D01*
X73164625Y-71757883D01*
X73156165Y-71752813D01*
X73148243Y-71746938D01*
X73140936Y-71740314D01*
X73134312Y-71733007D01*
X73128437Y-71725085D01*
X73123367Y-71716625D01*
X73119150Y-71707710D01*
X73115827Y-71698424D01*
X73113431Y-71688857D01*
X73111984Y-71679101D01*
X73111500Y-71669250D01*
X73111500Y-71468250D01*
X73111984Y-71458399D01*
X73113431Y-71448643D01*
X73115827Y-71439076D01*
X73119150Y-71429790D01*
X73123367Y-71420875D01*
X73128437Y-71412415D01*
X73134312Y-71404493D01*
X73140936Y-71397186D01*
X73148243Y-71390562D01*
X73156165Y-71384687D01*
X73164625Y-71379617D01*
X73173540Y-71375400D01*
X73182826Y-71372077D01*
X73192393Y-71369681D01*
X73202149Y-71368234D01*
X73212000Y-71367750D01*
X74663000Y-71367750D01*
X74672851Y-71368234D01*
X74672851Y-71368234D01*
G37*
D22*
X73937500Y-71568750D03*
D21*
G36*
X74672851Y-71868234D02*
G01*
X74682607Y-71869681D01*
X74692174Y-71872077D01*
X74701460Y-71875400D01*
X74710375Y-71879617D01*
X74718835Y-71884687D01*
X74726757Y-71890562D01*
X74734064Y-71897186D01*
X74740688Y-71904493D01*
X74746563Y-71912415D01*
X74751633Y-71920875D01*
X74755850Y-71929790D01*
X74759173Y-71939076D01*
X74761569Y-71948643D01*
X74763016Y-71958399D01*
X74763500Y-71968250D01*
X74763500Y-72169250D01*
X74763016Y-72179101D01*
X74761569Y-72188857D01*
X74759173Y-72198424D01*
X74755850Y-72207710D01*
X74751633Y-72216625D01*
X74746563Y-72225085D01*
X74740688Y-72233007D01*
X74734064Y-72240314D01*
X74726757Y-72246938D01*
X74718835Y-72252813D01*
X74710375Y-72257883D01*
X74701460Y-72262100D01*
X74692174Y-72265423D01*
X74682607Y-72267819D01*
X74672851Y-72269266D01*
X74663000Y-72269750D01*
X73212000Y-72269750D01*
X73202149Y-72269266D01*
X73192393Y-72267819D01*
X73182826Y-72265423D01*
X73173540Y-72262100D01*
X73164625Y-72257883D01*
X73156165Y-72252813D01*
X73148243Y-72246938D01*
X73140936Y-72240314D01*
X73134312Y-72233007D01*
X73128437Y-72225085D01*
X73123367Y-72216625D01*
X73119150Y-72207710D01*
X73115827Y-72198424D01*
X73113431Y-72188857D01*
X73111984Y-72179101D01*
X73111500Y-72169250D01*
X73111500Y-71968250D01*
X73111984Y-71958399D01*
X73113431Y-71948643D01*
X73115827Y-71939076D01*
X73119150Y-71929790D01*
X73123367Y-71920875D01*
X73128437Y-71912415D01*
X73134312Y-71904493D01*
X73140936Y-71897186D01*
X73148243Y-71890562D01*
X73156165Y-71884687D01*
X73164625Y-71879617D01*
X73173540Y-71875400D01*
X73182826Y-71872077D01*
X73192393Y-71869681D01*
X73202149Y-71868234D01*
X73212000Y-71867750D01*
X74663000Y-71867750D01*
X74672851Y-71868234D01*
X74672851Y-71868234D01*
G37*
D22*
X73937500Y-72068750D03*
D21*
G36*
X74672851Y-72368234D02*
G01*
X74682607Y-72369681D01*
X74692174Y-72372077D01*
X74701460Y-72375400D01*
X74710375Y-72379617D01*
X74718835Y-72384687D01*
X74726757Y-72390562D01*
X74734064Y-72397186D01*
X74740688Y-72404493D01*
X74746563Y-72412415D01*
X74751633Y-72420875D01*
X74755850Y-72429790D01*
X74759173Y-72439076D01*
X74761569Y-72448643D01*
X74763016Y-72458399D01*
X74763500Y-72468250D01*
X74763500Y-72669250D01*
X74763016Y-72679101D01*
X74761569Y-72688857D01*
X74759173Y-72698424D01*
X74755850Y-72707710D01*
X74751633Y-72716625D01*
X74746563Y-72725085D01*
X74740688Y-72733007D01*
X74734064Y-72740314D01*
X74726757Y-72746938D01*
X74718835Y-72752813D01*
X74710375Y-72757883D01*
X74701460Y-72762100D01*
X74692174Y-72765423D01*
X74682607Y-72767819D01*
X74672851Y-72769266D01*
X74663000Y-72769750D01*
X73212000Y-72769750D01*
X73202149Y-72769266D01*
X73192393Y-72767819D01*
X73182826Y-72765423D01*
X73173540Y-72762100D01*
X73164625Y-72757883D01*
X73156165Y-72752813D01*
X73148243Y-72746938D01*
X73140936Y-72740314D01*
X73134312Y-72733007D01*
X73128437Y-72725085D01*
X73123367Y-72716625D01*
X73119150Y-72707710D01*
X73115827Y-72698424D01*
X73113431Y-72688857D01*
X73111984Y-72679101D01*
X73111500Y-72669250D01*
X73111500Y-72468250D01*
X73111984Y-72458399D01*
X73113431Y-72448643D01*
X73115827Y-72439076D01*
X73119150Y-72429790D01*
X73123367Y-72420875D01*
X73128437Y-72412415D01*
X73134312Y-72404493D01*
X73140936Y-72397186D01*
X73148243Y-72390562D01*
X73156165Y-72384687D01*
X73164625Y-72379617D01*
X73173540Y-72375400D01*
X73182826Y-72372077D01*
X73192393Y-72369681D01*
X73202149Y-72368234D01*
X73212000Y-72367750D01*
X74663000Y-72367750D01*
X74672851Y-72368234D01*
X74672851Y-72368234D01*
G37*
D22*
X73937500Y-72568750D03*
D21*
G36*
X74672851Y-72868234D02*
G01*
X74682607Y-72869681D01*
X74692174Y-72872077D01*
X74701460Y-72875400D01*
X74710375Y-72879617D01*
X74718835Y-72884687D01*
X74726757Y-72890562D01*
X74734064Y-72897186D01*
X74740688Y-72904493D01*
X74746563Y-72912415D01*
X74751633Y-72920875D01*
X74755850Y-72929790D01*
X74759173Y-72939076D01*
X74761569Y-72948643D01*
X74763016Y-72958399D01*
X74763500Y-72968250D01*
X74763500Y-73169250D01*
X74763016Y-73179101D01*
X74761569Y-73188857D01*
X74759173Y-73198424D01*
X74755850Y-73207710D01*
X74751633Y-73216625D01*
X74746563Y-73225085D01*
X74740688Y-73233007D01*
X74734064Y-73240314D01*
X74726757Y-73246938D01*
X74718835Y-73252813D01*
X74710375Y-73257883D01*
X74701460Y-73262100D01*
X74692174Y-73265423D01*
X74682607Y-73267819D01*
X74672851Y-73269266D01*
X74663000Y-73269750D01*
X73212000Y-73269750D01*
X73202149Y-73269266D01*
X73192393Y-73267819D01*
X73182826Y-73265423D01*
X73173540Y-73262100D01*
X73164625Y-73257883D01*
X73156165Y-73252813D01*
X73148243Y-73246938D01*
X73140936Y-73240314D01*
X73134312Y-73233007D01*
X73128437Y-73225085D01*
X73123367Y-73216625D01*
X73119150Y-73207710D01*
X73115827Y-73198424D01*
X73113431Y-73188857D01*
X73111984Y-73179101D01*
X73111500Y-73169250D01*
X73111500Y-72968250D01*
X73111984Y-72958399D01*
X73113431Y-72948643D01*
X73115827Y-72939076D01*
X73119150Y-72929790D01*
X73123367Y-72920875D01*
X73128437Y-72912415D01*
X73134312Y-72904493D01*
X73140936Y-72897186D01*
X73148243Y-72890562D01*
X73156165Y-72884687D01*
X73164625Y-72879617D01*
X73173540Y-72875400D01*
X73182826Y-72872077D01*
X73192393Y-72869681D01*
X73202149Y-72868234D01*
X73212000Y-72867750D01*
X74663000Y-72867750D01*
X74672851Y-72868234D01*
X74672851Y-72868234D01*
G37*
D22*
X73937500Y-73068750D03*
D21*
G36*
X74672851Y-73368234D02*
G01*
X74682607Y-73369681D01*
X74692174Y-73372077D01*
X74701460Y-73375400D01*
X74710375Y-73379617D01*
X74718835Y-73384687D01*
X74726757Y-73390562D01*
X74734064Y-73397186D01*
X74740688Y-73404493D01*
X74746563Y-73412415D01*
X74751633Y-73420875D01*
X74755850Y-73429790D01*
X74759173Y-73439076D01*
X74761569Y-73448643D01*
X74763016Y-73458399D01*
X74763500Y-73468250D01*
X74763500Y-73669250D01*
X74763016Y-73679101D01*
X74761569Y-73688857D01*
X74759173Y-73698424D01*
X74755850Y-73707710D01*
X74751633Y-73716625D01*
X74746563Y-73725085D01*
X74740688Y-73733007D01*
X74734064Y-73740314D01*
X74726757Y-73746938D01*
X74718835Y-73752813D01*
X74710375Y-73757883D01*
X74701460Y-73762100D01*
X74692174Y-73765423D01*
X74682607Y-73767819D01*
X74672851Y-73769266D01*
X74663000Y-73769750D01*
X73212000Y-73769750D01*
X73202149Y-73769266D01*
X73192393Y-73767819D01*
X73182826Y-73765423D01*
X73173540Y-73762100D01*
X73164625Y-73757883D01*
X73156165Y-73752813D01*
X73148243Y-73746938D01*
X73140936Y-73740314D01*
X73134312Y-73733007D01*
X73128437Y-73725085D01*
X73123367Y-73716625D01*
X73119150Y-73707710D01*
X73115827Y-73698424D01*
X73113431Y-73688857D01*
X73111984Y-73679101D01*
X73111500Y-73669250D01*
X73111500Y-73468250D01*
X73111984Y-73458399D01*
X73113431Y-73448643D01*
X73115827Y-73439076D01*
X73119150Y-73429790D01*
X73123367Y-73420875D01*
X73128437Y-73412415D01*
X73134312Y-73404493D01*
X73140936Y-73397186D01*
X73148243Y-73390562D01*
X73156165Y-73384687D01*
X73164625Y-73379617D01*
X73173540Y-73375400D01*
X73182826Y-73372077D01*
X73192393Y-73369681D01*
X73202149Y-73368234D01*
X73212000Y-73367750D01*
X74663000Y-73367750D01*
X74672851Y-73368234D01*
X74672851Y-73368234D01*
G37*
D22*
X73937500Y-73568750D03*
D21*
G36*
X74672851Y-73868234D02*
G01*
X74682607Y-73869681D01*
X74692174Y-73872077D01*
X74701460Y-73875400D01*
X74710375Y-73879617D01*
X74718835Y-73884687D01*
X74726757Y-73890562D01*
X74734064Y-73897186D01*
X74740688Y-73904493D01*
X74746563Y-73912415D01*
X74751633Y-73920875D01*
X74755850Y-73929790D01*
X74759173Y-73939076D01*
X74761569Y-73948643D01*
X74763016Y-73958399D01*
X74763500Y-73968250D01*
X74763500Y-74169250D01*
X74763016Y-74179101D01*
X74761569Y-74188857D01*
X74759173Y-74198424D01*
X74755850Y-74207710D01*
X74751633Y-74216625D01*
X74746563Y-74225085D01*
X74740688Y-74233007D01*
X74734064Y-74240314D01*
X74726757Y-74246938D01*
X74718835Y-74252813D01*
X74710375Y-74257883D01*
X74701460Y-74262100D01*
X74692174Y-74265423D01*
X74682607Y-74267819D01*
X74672851Y-74269266D01*
X74663000Y-74269750D01*
X73212000Y-74269750D01*
X73202149Y-74269266D01*
X73192393Y-74267819D01*
X73182826Y-74265423D01*
X73173540Y-74262100D01*
X73164625Y-74257883D01*
X73156165Y-74252813D01*
X73148243Y-74246938D01*
X73140936Y-74240314D01*
X73134312Y-74233007D01*
X73128437Y-74225085D01*
X73123367Y-74216625D01*
X73119150Y-74207710D01*
X73115827Y-74198424D01*
X73113431Y-74188857D01*
X73111984Y-74179101D01*
X73111500Y-74169250D01*
X73111500Y-73968250D01*
X73111984Y-73958399D01*
X73113431Y-73948643D01*
X73115827Y-73939076D01*
X73119150Y-73929790D01*
X73123367Y-73920875D01*
X73128437Y-73912415D01*
X73134312Y-73904493D01*
X73140936Y-73897186D01*
X73148243Y-73890562D01*
X73156165Y-73884687D01*
X73164625Y-73879617D01*
X73173540Y-73875400D01*
X73182826Y-73872077D01*
X73192393Y-73869681D01*
X73202149Y-73868234D01*
X73212000Y-73867750D01*
X74663000Y-73867750D01*
X74672851Y-73868234D01*
X74672851Y-73868234D01*
G37*
D22*
X73937500Y-74068750D03*
D21*
G36*
X74672851Y-74368234D02*
G01*
X74682607Y-74369681D01*
X74692174Y-74372077D01*
X74701460Y-74375400D01*
X74710375Y-74379617D01*
X74718835Y-74384687D01*
X74726757Y-74390562D01*
X74734064Y-74397186D01*
X74740688Y-74404493D01*
X74746563Y-74412415D01*
X74751633Y-74420875D01*
X74755850Y-74429790D01*
X74759173Y-74439076D01*
X74761569Y-74448643D01*
X74763016Y-74458399D01*
X74763500Y-74468250D01*
X74763500Y-74669250D01*
X74763016Y-74679101D01*
X74761569Y-74688857D01*
X74759173Y-74698424D01*
X74755850Y-74707710D01*
X74751633Y-74716625D01*
X74746563Y-74725085D01*
X74740688Y-74733007D01*
X74734064Y-74740314D01*
X74726757Y-74746938D01*
X74718835Y-74752813D01*
X74710375Y-74757883D01*
X74701460Y-74762100D01*
X74692174Y-74765423D01*
X74682607Y-74767819D01*
X74672851Y-74769266D01*
X74663000Y-74769750D01*
X73212000Y-74769750D01*
X73202149Y-74769266D01*
X73192393Y-74767819D01*
X73182826Y-74765423D01*
X73173540Y-74762100D01*
X73164625Y-74757883D01*
X73156165Y-74752813D01*
X73148243Y-74746938D01*
X73140936Y-74740314D01*
X73134312Y-74733007D01*
X73128437Y-74725085D01*
X73123367Y-74716625D01*
X73119150Y-74707710D01*
X73115827Y-74698424D01*
X73113431Y-74688857D01*
X73111984Y-74679101D01*
X73111500Y-74669250D01*
X73111500Y-74468250D01*
X73111984Y-74458399D01*
X73113431Y-74448643D01*
X73115827Y-74439076D01*
X73119150Y-74429790D01*
X73123367Y-74420875D01*
X73128437Y-74412415D01*
X73134312Y-74404493D01*
X73140936Y-74397186D01*
X73148243Y-74390562D01*
X73156165Y-74384687D01*
X73164625Y-74379617D01*
X73173540Y-74375400D01*
X73182826Y-74372077D01*
X73192393Y-74369681D01*
X73202149Y-74368234D01*
X73212000Y-74367750D01*
X74663000Y-74367750D01*
X74672851Y-74368234D01*
X74672851Y-74368234D01*
G37*
D22*
X73937500Y-74568750D03*
D21*
G36*
X74672851Y-74868234D02*
G01*
X74682607Y-74869681D01*
X74692174Y-74872077D01*
X74701460Y-74875400D01*
X74710375Y-74879617D01*
X74718835Y-74884687D01*
X74726757Y-74890562D01*
X74734064Y-74897186D01*
X74740688Y-74904493D01*
X74746563Y-74912415D01*
X74751633Y-74920875D01*
X74755850Y-74929790D01*
X74759173Y-74939076D01*
X74761569Y-74948643D01*
X74763016Y-74958399D01*
X74763500Y-74968250D01*
X74763500Y-75169250D01*
X74763016Y-75179101D01*
X74761569Y-75188857D01*
X74759173Y-75198424D01*
X74755850Y-75207710D01*
X74751633Y-75216625D01*
X74746563Y-75225085D01*
X74740688Y-75233007D01*
X74734064Y-75240314D01*
X74726757Y-75246938D01*
X74718835Y-75252813D01*
X74710375Y-75257883D01*
X74701460Y-75262100D01*
X74692174Y-75265423D01*
X74682607Y-75267819D01*
X74672851Y-75269266D01*
X74663000Y-75269750D01*
X73212000Y-75269750D01*
X73202149Y-75269266D01*
X73192393Y-75267819D01*
X73182826Y-75265423D01*
X73173540Y-75262100D01*
X73164625Y-75257883D01*
X73156165Y-75252813D01*
X73148243Y-75246938D01*
X73140936Y-75240314D01*
X73134312Y-75233007D01*
X73128437Y-75225085D01*
X73123367Y-75216625D01*
X73119150Y-75207710D01*
X73115827Y-75198424D01*
X73113431Y-75188857D01*
X73111984Y-75179101D01*
X73111500Y-75169250D01*
X73111500Y-74968250D01*
X73111984Y-74958399D01*
X73113431Y-74948643D01*
X73115827Y-74939076D01*
X73119150Y-74929790D01*
X73123367Y-74920875D01*
X73128437Y-74912415D01*
X73134312Y-74904493D01*
X73140936Y-74897186D01*
X73148243Y-74890562D01*
X73156165Y-74884687D01*
X73164625Y-74879617D01*
X73173540Y-74875400D01*
X73182826Y-74872077D01*
X73192393Y-74869681D01*
X73202149Y-74868234D01*
X73212000Y-74867750D01*
X74663000Y-74867750D01*
X74672851Y-74868234D01*
X74672851Y-74868234D01*
G37*
D22*
X73937500Y-75068750D03*
D21*
G36*
X74672851Y-75368234D02*
G01*
X74682607Y-75369681D01*
X74692174Y-75372077D01*
X74701460Y-75375400D01*
X74710375Y-75379617D01*
X74718835Y-75384687D01*
X74726757Y-75390562D01*
X74734064Y-75397186D01*
X74740688Y-75404493D01*
X74746563Y-75412415D01*
X74751633Y-75420875D01*
X74755850Y-75429790D01*
X74759173Y-75439076D01*
X74761569Y-75448643D01*
X74763016Y-75458399D01*
X74763500Y-75468250D01*
X74763500Y-75669250D01*
X74763016Y-75679101D01*
X74761569Y-75688857D01*
X74759173Y-75698424D01*
X74755850Y-75707710D01*
X74751633Y-75716625D01*
X74746563Y-75725085D01*
X74740688Y-75733007D01*
X74734064Y-75740314D01*
X74726757Y-75746938D01*
X74718835Y-75752813D01*
X74710375Y-75757883D01*
X74701460Y-75762100D01*
X74692174Y-75765423D01*
X74682607Y-75767819D01*
X74672851Y-75769266D01*
X74663000Y-75769750D01*
X73212000Y-75769750D01*
X73202149Y-75769266D01*
X73192393Y-75767819D01*
X73182826Y-75765423D01*
X73173540Y-75762100D01*
X73164625Y-75757883D01*
X73156165Y-75752813D01*
X73148243Y-75746938D01*
X73140936Y-75740314D01*
X73134312Y-75733007D01*
X73128437Y-75725085D01*
X73123367Y-75716625D01*
X73119150Y-75707710D01*
X73115827Y-75698424D01*
X73113431Y-75688857D01*
X73111984Y-75679101D01*
X73111500Y-75669250D01*
X73111500Y-75468250D01*
X73111984Y-75458399D01*
X73113431Y-75448643D01*
X73115827Y-75439076D01*
X73119150Y-75429790D01*
X73123367Y-75420875D01*
X73128437Y-75412415D01*
X73134312Y-75404493D01*
X73140936Y-75397186D01*
X73148243Y-75390562D01*
X73156165Y-75384687D01*
X73164625Y-75379617D01*
X73173540Y-75375400D01*
X73182826Y-75372077D01*
X73192393Y-75369681D01*
X73202149Y-75368234D01*
X73212000Y-75367750D01*
X74663000Y-75367750D01*
X74672851Y-75368234D01*
X74672851Y-75368234D01*
G37*
D22*
X73937500Y-75568750D03*
D21*
G36*
X74672851Y-75868234D02*
G01*
X74682607Y-75869681D01*
X74692174Y-75872077D01*
X74701460Y-75875400D01*
X74710375Y-75879617D01*
X74718835Y-75884687D01*
X74726757Y-75890562D01*
X74734064Y-75897186D01*
X74740688Y-75904493D01*
X74746563Y-75912415D01*
X74751633Y-75920875D01*
X74755850Y-75929790D01*
X74759173Y-75939076D01*
X74761569Y-75948643D01*
X74763016Y-75958399D01*
X74763500Y-75968250D01*
X74763500Y-76169250D01*
X74763016Y-76179101D01*
X74761569Y-76188857D01*
X74759173Y-76198424D01*
X74755850Y-76207710D01*
X74751633Y-76216625D01*
X74746563Y-76225085D01*
X74740688Y-76233007D01*
X74734064Y-76240314D01*
X74726757Y-76246938D01*
X74718835Y-76252813D01*
X74710375Y-76257883D01*
X74701460Y-76262100D01*
X74692174Y-76265423D01*
X74682607Y-76267819D01*
X74672851Y-76269266D01*
X74663000Y-76269750D01*
X73212000Y-76269750D01*
X73202149Y-76269266D01*
X73192393Y-76267819D01*
X73182826Y-76265423D01*
X73173540Y-76262100D01*
X73164625Y-76257883D01*
X73156165Y-76252813D01*
X73148243Y-76246938D01*
X73140936Y-76240314D01*
X73134312Y-76233007D01*
X73128437Y-76225085D01*
X73123367Y-76216625D01*
X73119150Y-76207710D01*
X73115827Y-76198424D01*
X73113431Y-76188857D01*
X73111984Y-76179101D01*
X73111500Y-76169250D01*
X73111500Y-75968250D01*
X73111984Y-75958399D01*
X73113431Y-75948643D01*
X73115827Y-75939076D01*
X73119150Y-75929790D01*
X73123367Y-75920875D01*
X73128437Y-75912415D01*
X73134312Y-75904493D01*
X73140936Y-75897186D01*
X73148243Y-75890562D01*
X73156165Y-75884687D01*
X73164625Y-75879617D01*
X73173540Y-75875400D01*
X73182826Y-75872077D01*
X73192393Y-75869681D01*
X73202149Y-75868234D01*
X73212000Y-75867750D01*
X74663000Y-75867750D01*
X74672851Y-75868234D01*
X74672851Y-75868234D01*
G37*
D22*
X73937500Y-76068750D03*
D21*
G36*
X74672851Y-76368234D02*
G01*
X74682607Y-76369681D01*
X74692174Y-76372077D01*
X74701460Y-76375400D01*
X74710375Y-76379617D01*
X74718835Y-76384687D01*
X74726757Y-76390562D01*
X74734064Y-76397186D01*
X74740688Y-76404493D01*
X74746563Y-76412415D01*
X74751633Y-76420875D01*
X74755850Y-76429790D01*
X74759173Y-76439076D01*
X74761569Y-76448643D01*
X74763016Y-76458399D01*
X74763500Y-76468250D01*
X74763500Y-76669250D01*
X74763016Y-76679101D01*
X74761569Y-76688857D01*
X74759173Y-76698424D01*
X74755850Y-76707710D01*
X74751633Y-76716625D01*
X74746563Y-76725085D01*
X74740688Y-76733007D01*
X74734064Y-76740314D01*
X74726757Y-76746938D01*
X74718835Y-76752813D01*
X74710375Y-76757883D01*
X74701460Y-76762100D01*
X74692174Y-76765423D01*
X74682607Y-76767819D01*
X74672851Y-76769266D01*
X74663000Y-76769750D01*
X73212000Y-76769750D01*
X73202149Y-76769266D01*
X73192393Y-76767819D01*
X73182826Y-76765423D01*
X73173540Y-76762100D01*
X73164625Y-76757883D01*
X73156165Y-76752813D01*
X73148243Y-76746938D01*
X73140936Y-76740314D01*
X73134312Y-76733007D01*
X73128437Y-76725085D01*
X73123367Y-76716625D01*
X73119150Y-76707710D01*
X73115827Y-76698424D01*
X73113431Y-76688857D01*
X73111984Y-76679101D01*
X73111500Y-76669250D01*
X73111500Y-76468250D01*
X73111984Y-76458399D01*
X73113431Y-76448643D01*
X73115827Y-76439076D01*
X73119150Y-76429790D01*
X73123367Y-76420875D01*
X73128437Y-76412415D01*
X73134312Y-76404493D01*
X73140936Y-76397186D01*
X73148243Y-76390562D01*
X73156165Y-76384687D01*
X73164625Y-76379617D01*
X73173540Y-76375400D01*
X73182826Y-76372077D01*
X73192393Y-76369681D01*
X73202149Y-76368234D01*
X73212000Y-76367750D01*
X74663000Y-76367750D01*
X74672851Y-76368234D01*
X74672851Y-76368234D01*
G37*
D22*
X73937500Y-76568750D03*
D21*
G36*
X74672851Y-76868234D02*
G01*
X74682607Y-76869681D01*
X74692174Y-76872077D01*
X74701460Y-76875400D01*
X74710375Y-76879617D01*
X74718835Y-76884687D01*
X74726757Y-76890562D01*
X74734064Y-76897186D01*
X74740688Y-76904493D01*
X74746563Y-76912415D01*
X74751633Y-76920875D01*
X74755850Y-76929790D01*
X74759173Y-76939076D01*
X74761569Y-76948643D01*
X74763016Y-76958399D01*
X74763500Y-76968250D01*
X74763500Y-77169250D01*
X74763016Y-77179101D01*
X74761569Y-77188857D01*
X74759173Y-77198424D01*
X74755850Y-77207710D01*
X74751633Y-77216625D01*
X74746563Y-77225085D01*
X74740688Y-77233007D01*
X74734064Y-77240314D01*
X74726757Y-77246938D01*
X74718835Y-77252813D01*
X74710375Y-77257883D01*
X74701460Y-77262100D01*
X74692174Y-77265423D01*
X74682607Y-77267819D01*
X74672851Y-77269266D01*
X74663000Y-77269750D01*
X73212000Y-77269750D01*
X73202149Y-77269266D01*
X73192393Y-77267819D01*
X73182826Y-77265423D01*
X73173540Y-77262100D01*
X73164625Y-77257883D01*
X73156165Y-77252813D01*
X73148243Y-77246938D01*
X73140936Y-77240314D01*
X73134312Y-77233007D01*
X73128437Y-77225085D01*
X73123367Y-77216625D01*
X73119150Y-77207710D01*
X73115827Y-77198424D01*
X73113431Y-77188857D01*
X73111984Y-77179101D01*
X73111500Y-77169250D01*
X73111500Y-76968250D01*
X73111984Y-76958399D01*
X73113431Y-76948643D01*
X73115827Y-76939076D01*
X73119150Y-76929790D01*
X73123367Y-76920875D01*
X73128437Y-76912415D01*
X73134312Y-76904493D01*
X73140936Y-76897186D01*
X73148243Y-76890562D01*
X73156165Y-76884687D01*
X73164625Y-76879617D01*
X73173540Y-76875400D01*
X73182826Y-76872077D01*
X73192393Y-76869681D01*
X73202149Y-76868234D01*
X73212000Y-76867750D01*
X74663000Y-76867750D01*
X74672851Y-76868234D01*
X74672851Y-76868234D01*
G37*
D22*
X73937500Y-77068750D03*
D21*
G36*
X74672851Y-77368234D02*
G01*
X74682607Y-77369681D01*
X74692174Y-77372077D01*
X74701460Y-77375400D01*
X74710375Y-77379617D01*
X74718835Y-77384687D01*
X74726757Y-77390562D01*
X74734064Y-77397186D01*
X74740688Y-77404493D01*
X74746563Y-77412415D01*
X74751633Y-77420875D01*
X74755850Y-77429790D01*
X74759173Y-77439076D01*
X74761569Y-77448643D01*
X74763016Y-77458399D01*
X74763500Y-77468250D01*
X74763500Y-77669250D01*
X74763016Y-77679101D01*
X74761569Y-77688857D01*
X74759173Y-77698424D01*
X74755850Y-77707710D01*
X74751633Y-77716625D01*
X74746563Y-77725085D01*
X74740688Y-77733007D01*
X74734064Y-77740314D01*
X74726757Y-77746938D01*
X74718835Y-77752813D01*
X74710375Y-77757883D01*
X74701460Y-77762100D01*
X74692174Y-77765423D01*
X74682607Y-77767819D01*
X74672851Y-77769266D01*
X74663000Y-77769750D01*
X73212000Y-77769750D01*
X73202149Y-77769266D01*
X73192393Y-77767819D01*
X73182826Y-77765423D01*
X73173540Y-77762100D01*
X73164625Y-77757883D01*
X73156165Y-77752813D01*
X73148243Y-77746938D01*
X73140936Y-77740314D01*
X73134312Y-77733007D01*
X73128437Y-77725085D01*
X73123367Y-77716625D01*
X73119150Y-77707710D01*
X73115827Y-77698424D01*
X73113431Y-77688857D01*
X73111984Y-77679101D01*
X73111500Y-77669250D01*
X73111500Y-77468250D01*
X73111984Y-77458399D01*
X73113431Y-77448643D01*
X73115827Y-77439076D01*
X73119150Y-77429790D01*
X73123367Y-77420875D01*
X73128437Y-77412415D01*
X73134312Y-77404493D01*
X73140936Y-77397186D01*
X73148243Y-77390562D01*
X73156165Y-77384687D01*
X73164625Y-77379617D01*
X73173540Y-77375400D01*
X73182826Y-77372077D01*
X73192393Y-77369681D01*
X73202149Y-77368234D01*
X73212000Y-77367750D01*
X74663000Y-77367750D01*
X74672851Y-77368234D01*
X74672851Y-77368234D01*
G37*
D22*
X73937500Y-77568750D03*
D23*
X69299000Y-57216000D03*
X69299000Y-59116000D03*
X67099000Y-59116000D03*
X67099000Y-58166000D03*
X67099000Y-57216000D03*
D21*
G36*
X52825141Y-56146297D02*
G01*
X52851278Y-56150174D01*
X52876909Y-56156594D01*
X52901788Y-56165495D01*
X52925674Y-56176793D01*
X52948337Y-56190377D01*
X52969560Y-56206117D01*
X52989139Y-56223861D01*
X53006883Y-56243440D01*
X53022623Y-56264663D01*
X53036207Y-56287326D01*
X53047505Y-56311212D01*
X53056406Y-56336091D01*
X53062826Y-56361722D01*
X53066703Y-56387859D01*
X53068000Y-56414250D01*
X53068000Y-57377750D01*
X53066703Y-57404141D01*
X53062826Y-57430278D01*
X53056406Y-57455909D01*
X53047505Y-57480788D01*
X53036207Y-57504674D01*
X53022623Y-57527337D01*
X53006883Y-57548560D01*
X52989139Y-57568139D01*
X52969560Y-57585883D01*
X52948337Y-57601623D01*
X52925674Y-57615207D01*
X52901788Y-57626505D01*
X52876909Y-57635406D01*
X52851278Y-57641826D01*
X52825141Y-57645703D01*
X52798750Y-57647000D01*
X52260250Y-57647000D01*
X52233859Y-57645703D01*
X52207722Y-57641826D01*
X52182091Y-57635406D01*
X52157212Y-57626505D01*
X52133326Y-57615207D01*
X52110663Y-57601623D01*
X52089440Y-57585883D01*
X52069861Y-57568139D01*
X52052117Y-57548560D01*
X52036377Y-57527337D01*
X52022793Y-57504674D01*
X52011495Y-57480788D01*
X52002594Y-57455909D01*
X51996174Y-57430278D01*
X51992297Y-57404141D01*
X51991000Y-57377750D01*
X51991000Y-56414250D01*
X51992297Y-56387859D01*
X51996174Y-56361722D01*
X52002594Y-56336091D01*
X52011495Y-56311212D01*
X52022793Y-56287326D01*
X52036377Y-56264663D01*
X52052117Y-56243440D01*
X52069861Y-56223861D01*
X52089440Y-56206117D01*
X52110663Y-56190377D01*
X52133326Y-56176793D01*
X52157212Y-56165495D01*
X52182091Y-56156594D01*
X52207722Y-56150174D01*
X52233859Y-56146297D01*
X52260250Y-56145000D01*
X52798750Y-56145000D01*
X52825141Y-56146297D01*
X52825141Y-56146297D01*
G37*
D24*
X52529500Y-56896000D03*
D21*
G36*
X54700141Y-56146297D02*
G01*
X54726278Y-56150174D01*
X54751909Y-56156594D01*
X54776788Y-56165495D01*
X54800674Y-56176793D01*
X54823337Y-56190377D01*
X54844560Y-56206117D01*
X54864139Y-56223861D01*
X54881883Y-56243440D01*
X54897623Y-56264663D01*
X54911207Y-56287326D01*
X54922505Y-56311212D01*
X54931406Y-56336091D01*
X54937826Y-56361722D01*
X54941703Y-56387859D01*
X54943000Y-56414250D01*
X54943000Y-57377750D01*
X54941703Y-57404141D01*
X54937826Y-57430278D01*
X54931406Y-57455909D01*
X54922505Y-57480788D01*
X54911207Y-57504674D01*
X54897623Y-57527337D01*
X54881883Y-57548560D01*
X54864139Y-57568139D01*
X54844560Y-57585883D01*
X54823337Y-57601623D01*
X54800674Y-57615207D01*
X54776788Y-57626505D01*
X54751909Y-57635406D01*
X54726278Y-57641826D01*
X54700141Y-57645703D01*
X54673750Y-57647000D01*
X54135250Y-57647000D01*
X54108859Y-57645703D01*
X54082722Y-57641826D01*
X54057091Y-57635406D01*
X54032212Y-57626505D01*
X54008326Y-57615207D01*
X53985663Y-57601623D01*
X53964440Y-57585883D01*
X53944861Y-57568139D01*
X53927117Y-57548560D01*
X53911377Y-57527337D01*
X53897793Y-57504674D01*
X53886495Y-57480788D01*
X53877594Y-57455909D01*
X53871174Y-57430278D01*
X53867297Y-57404141D01*
X53866000Y-57377750D01*
X53866000Y-56414250D01*
X53867297Y-56387859D01*
X53871174Y-56361722D01*
X53877594Y-56336091D01*
X53886495Y-56311212D01*
X53897793Y-56287326D01*
X53911377Y-56264663D01*
X53927117Y-56243440D01*
X53944861Y-56223861D01*
X53964440Y-56206117D01*
X53985663Y-56190377D01*
X54008326Y-56176793D01*
X54032212Y-56165495D01*
X54057091Y-56156594D01*
X54082722Y-56150174D01*
X54108859Y-56146297D01*
X54135250Y-56145000D01*
X54673750Y-56145000D01*
X54700141Y-56146297D01*
X54700141Y-56146297D01*
G37*
D24*
X54404500Y-56896000D03*
D21*
G36*
X52903641Y-58178297D02*
G01*
X52929778Y-58182174D01*
X52955409Y-58188594D01*
X52980288Y-58197495D01*
X53004174Y-58208793D01*
X53026837Y-58222377D01*
X53048060Y-58238117D01*
X53067639Y-58255861D01*
X53085383Y-58275440D01*
X53101123Y-58296663D01*
X53114707Y-58319326D01*
X53126005Y-58343212D01*
X53134906Y-58368091D01*
X53141326Y-58393722D01*
X53145203Y-58419859D01*
X53146500Y-58446250D01*
X53146500Y-59409750D01*
X53145203Y-59436141D01*
X53141326Y-59462278D01*
X53134906Y-59487909D01*
X53126005Y-59512788D01*
X53114707Y-59536674D01*
X53101123Y-59559337D01*
X53085383Y-59580560D01*
X53067639Y-59600139D01*
X53048060Y-59617883D01*
X53026837Y-59633623D01*
X53004174Y-59647207D01*
X52980288Y-59658505D01*
X52955409Y-59667406D01*
X52929778Y-59673826D01*
X52903641Y-59677703D01*
X52877250Y-59679000D01*
X52338750Y-59679000D01*
X52312359Y-59677703D01*
X52286222Y-59673826D01*
X52260591Y-59667406D01*
X52235712Y-59658505D01*
X52211826Y-59647207D01*
X52189163Y-59633623D01*
X52167940Y-59617883D01*
X52148361Y-59600139D01*
X52130617Y-59580560D01*
X52114877Y-59559337D01*
X52101293Y-59536674D01*
X52089995Y-59512788D01*
X52081094Y-59487909D01*
X52074674Y-59462278D01*
X52070797Y-59436141D01*
X52069500Y-59409750D01*
X52069500Y-58446250D01*
X52070797Y-58419859D01*
X52074674Y-58393722D01*
X52081094Y-58368091D01*
X52089995Y-58343212D01*
X52101293Y-58319326D01*
X52114877Y-58296663D01*
X52130617Y-58275440D01*
X52148361Y-58255861D01*
X52167940Y-58238117D01*
X52189163Y-58222377D01*
X52211826Y-58208793D01*
X52235712Y-58197495D01*
X52260591Y-58188594D01*
X52286222Y-58182174D01*
X52312359Y-58178297D01*
X52338750Y-58177000D01*
X52877250Y-58177000D01*
X52903641Y-58178297D01*
X52903641Y-58178297D01*
G37*
D24*
X52608000Y-58928000D03*
D21*
G36*
X54778641Y-58178297D02*
G01*
X54804778Y-58182174D01*
X54830409Y-58188594D01*
X54855288Y-58197495D01*
X54879174Y-58208793D01*
X54901837Y-58222377D01*
X54923060Y-58238117D01*
X54942639Y-58255861D01*
X54960383Y-58275440D01*
X54976123Y-58296663D01*
X54989707Y-58319326D01*
X55001005Y-58343212D01*
X55009906Y-58368091D01*
X55016326Y-58393722D01*
X55020203Y-58419859D01*
X55021500Y-58446250D01*
X55021500Y-59409750D01*
X55020203Y-59436141D01*
X55016326Y-59462278D01*
X55009906Y-59487909D01*
X55001005Y-59512788D01*
X54989707Y-59536674D01*
X54976123Y-59559337D01*
X54960383Y-59580560D01*
X54942639Y-59600139D01*
X54923060Y-59617883D01*
X54901837Y-59633623D01*
X54879174Y-59647207D01*
X54855288Y-59658505D01*
X54830409Y-59667406D01*
X54804778Y-59673826D01*
X54778641Y-59677703D01*
X54752250Y-59679000D01*
X54213750Y-59679000D01*
X54187359Y-59677703D01*
X54161222Y-59673826D01*
X54135591Y-59667406D01*
X54110712Y-59658505D01*
X54086826Y-59647207D01*
X54064163Y-59633623D01*
X54042940Y-59617883D01*
X54023361Y-59600139D01*
X54005617Y-59580560D01*
X53989877Y-59559337D01*
X53976293Y-59536674D01*
X53964995Y-59512788D01*
X53956094Y-59487909D01*
X53949674Y-59462278D01*
X53945797Y-59436141D01*
X53944500Y-59409750D01*
X53944500Y-58446250D01*
X53945797Y-58419859D01*
X53949674Y-58393722D01*
X53956094Y-58368091D01*
X53964995Y-58343212D01*
X53976293Y-58319326D01*
X53989877Y-58296663D01*
X54005617Y-58275440D01*
X54023361Y-58255861D01*
X54042940Y-58238117D01*
X54064163Y-58222377D01*
X54086826Y-58208793D01*
X54110712Y-58197495D01*
X54135591Y-58188594D01*
X54161222Y-58182174D01*
X54187359Y-58178297D01*
X54213750Y-58177000D01*
X54752250Y-58177000D01*
X54778641Y-58178297D01*
X54778641Y-58178297D01*
G37*
D24*
X54483000Y-58928000D03*
D21*
G36*
X79883141Y-65487797D02*
G01*
X79909278Y-65491674D01*
X79934909Y-65498094D01*
X79959788Y-65506995D01*
X79983674Y-65518293D01*
X80006337Y-65531877D01*
X80027560Y-65547617D01*
X80047139Y-65565361D01*
X80064883Y-65584940D01*
X80080623Y-65606163D01*
X80094207Y-65628826D01*
X80105505Y-65652712D01*
X80114406Y-65677591D01*
X80120826Y-65703222D01*
X80124703Y-65729359D01*
X80126000Y-65755750D01*
X80126000Y-66294250D01*
X80124703Y-66320641D01*
X80120826Y-66346778D01*
X80114406Y-66372409D01*
X80105505Y-66397288D01*
X80094207Y-66421174D01*
X80080623Y-66443837D01*
X80064883Y-66465060D01*
X80047139Y-66484639D01*
X80027560Y-66502383D01*
X80006337Y-66518123D01*
X79983674Y-66531707D01*
X79959788Y-66543005D01*
X79934909Y-66551906D01*
X79909278Y-66558326D01*
X79883141Y-66562203D01*
X79856750Y-66563500D01*
X78893250Y-66563500D01*
X78866859Y-66562203D01*
X78840722Y-66558326D01*
X78815091Y-66551906D01*
X78790212Y-66543005D01*
X78766326Y-66531707D01*
X78743663Y-66518123D01*
X78722440Y-66502383D01*
X78702861Y-66484639D01*
X78685117Y-66465060D01*
X78669377Y-66443837D01*
X78655793Y-66421174D01*
X78644495Y-66397288D01*
X78635594Y-66372409D01*
X78629174Y-66346778D01*
X78625297Y-66320641D01*
X78624000Y-66294250D01*
X78624000Y-65755750D01*
X78625297Y-65729359D01*
X78629174Y-65703222D01*
X78635594Y-65677591D01*
X78644495Y-65652712D01*
X78655793Y-65628826D01*
X78669377Y-65606163D01*
X78685117Y-65584940D01*
X78702861Y-65565361D01*
X78722440Y-65547617D01*
X78743663Y-65531877D01*
X78766326Y-65518293D01*
X78790212Y-65506995D01*
X78815091Y-65498094D01*
X78840722Y-65491674D01*
X78866859Y-65487797D01*
X78893250Y-65486500D01*
X79856750Y-65486500D01*
X79883141Y-65487797D01*
X79883141Y-65487797D01*
G37*
D24*
X79375000Y-66025000D03*
D21*
G36*
X79883141Y-63612797D02*
G01*
X79909278Y-63616674D01*
X79934909Y-63623094D01*
X79959788Y-63631995D01*
X79983674Y-63643293D01*
X80006337Y-63656877D01*
X80027560Y-63672617D01*
X80047139Y-63690361D01*
X80064883Y-63709940D01*
X80080623Y-63731163D01*
X80094207Y-63753826D01*
X80105505Y-63777712D01*
X80114406Y-63802591D01*
X80120826Y-63828222D01*
X80124703Y-63854359D01*
X80126000Y-63880750D01*
X80126000Y-64419250D01*
X80124703Y-64445641D01*
X80120826Y-64471778D01*
X80114406Y-64497409D01*
X80105505Y-64522288D01*
X80094207Y-64546174D01*
X80080623Y-64568837D01*
X80064883Y-64590060D01*
X80047139Y-64609639D01*
X80027560Y-64627383D01*
X80006337Y-64643123D01*
X79983674Y-64656707D01*
X79959788Y-64668005D01*
X79934909Y-64676906D01*
X79909278Y-64683326D01*
X79883141Y-64687203D01*
X79856750Y-64688500D01*
X78893250Y-64688500D01*
X78866859Y-64687203D01*
X78840722Y-64683326D01*
X78815091Y-64676906D01*
X78790212Y-64668005D01*
X78766326Y-64656707D01*
X78743663Y-64643123D01*
X78722440Y-64627383D01*
X78702861Y-64609639D01*
X78685117Y-64590060D01*
X78669377Y-64568837D01*
X78655793Y-64546174D01*
X78644495Y-64522288D01*
X78635594Y-64497409D01*
X78629174Y-64471778D01*
X78625297Y-64445641D01*
X78624000Y-64419250D01*
X78624000Y-63880750D01*
X78625297Y-63854359D01*
X78629174Y-63828222D01*
X78635594Y-63802591D01*
X78644495Y-63777712D01*
X78655793Y-63753826D01*
X78669377Y-63731163D01*
X78685117Y-63709940D01*
X78702861Y-63690361D01*
X78722440Y-63672617D01*
X78743663Y-63656877D01*
X78766326Y-63643293D01*
X78790212Y-63631995D01*
X78815091Y-63623094D01*
X78840722Y-63616674D01*
X78866859Y-63612797D01*
X78893250Y-63611500D01*
X79856750Y-63611500D01*
X79883141Y-63612797D01*
X79883141Y-63612797D01*
G37*
D24*
X79375000Y-64150000D03*
D13*
X104013000Y-53594000D03*
X93853000Y-53594000D03*
D14*
X100203000Y-48514000D03*
D15*
X97663000Y-48514000D03*
D16*
X96433000Y-57594000D03*
D17*
X98933000Y-53594000D03*
D16*
X95778001Y-56864000D03*
D18*
X95123000Y-56134000D02*
X96433002Y-57594000D01*
D16*
X101473000Y-58674000D03*
X101453000Y-58384000D03*
D18*
X101433000Y-58094000D02*
X101473000Y-58674000D01*
D13*
X123317000Y-72644000D03*
X113157000Y-72644000D03*
D14*
X119507000Y-67564000D03*
D15*
X116967000Y-67564000D03*
D16*
X115737000Y-76644000D03*
D17*
X118237000Y-72644000D03*
D16*
X115082001Y-75914000D03*
D18*
X114427000Y-75184000D02*
X115737002Y-76644000D01*
D16*
X120777000Y-77724000D03*
X120757000Y-77434000D03*
D18*
X120737000Y-77144000D02*
X120777000Y-77724000D01*
D13*
X104008000Y-72640000D03*
X93848000Y-72640000D03*
D14*
X100198000Y-67560000D03*
D15*
X97658000Y-67560000D03*
D16*
X96428000Y-76640000D03*
D17*
X98928000Y-72640000D03*
D16*
X95773001Y-75910000D03*
D18*
X95118000Y-75180000D02*
X96428002Y-76640000D01*
D16*
X101468000Y-77720000D03*
X101448000Y-77430000D03*
D18*
X101428000Y-77140000D02*
X101468000Y-77720000D01*
D21*
G36*
X52499104Y-53812302D02*
G01*
X52525352Y-53816196D01*
X52551093Y-53822643D01*
X52576078Y-53831583D01*
X52600066Y-53842928D01*
X52622826Y-53856571D01*
X52644140Y-53872378D01*
X52663802Y-53890198D01*
X52681622Y-53909860D01*
X52697429Y-53931174D01*
X52711072Y-53953934D01*
X52722417Y-53977922D01*
X52731357Y-54002907D01*
X52737804Y-54028648D01*
X52741698Y-54054896D01*
X52743000Y-54081400D01*
X52743000Y-55392600D01*
X52741698Y-55419104D01*
X52737804Y-55445352D01*
X52731357Y-55471093D01*
X52722417Y-55496078D01*
X52711072Y-55520066D01*
X52697429Y-55542826D01*
X52681622Y-55564140D01*
X52663802Y-55583802D01*
X52644140Y-55601622D01*
X52622826Y-55617429D01*
X52600066Y-55631072D01*
X52576078Y-55642417D01*
X52551093Y-55651357D01*
X52525352Y-55657804D01*
X52499104Y-55661698D01*
X52472600Y-55663000D01*
X51661400Y-55663000D01*
X51634896Y-55661698D01*
X51608648Y-55657804D01*
X51582907Y-55651357D01*
X51557922Y-55642417D01*
X51533934Y-55631072D01*
X51511174Y-55617429D01*
X51489860Y-55601622D01*
X51470198Y-55583802D01*
X51452378Y-55564140D01*
X51436571Y-55542826D01*
X51422928Y-55520066D01*
X51411583Y-55496078D01*
X51402643Y-55471093D01*
X51396196Y-55445352D01*
X51392302Y-55419104D01*
X51391000Y-55392600D01*
X51391000Y-54081400D01*
X51392302Y-54054896D01*
X51396196Y-54028648D01*
X51402643Y-54002907D01*
X51411583Y-53977922D01*
X51422928Y-53953934D01*
X51436571Y-53931174D01*
X51452378Y-53909860D01*
X51470198Y-53890198D01*
X51489860Y-53872378D01*
X51511174Y-53856571D01*
X51533934Y-53842928D01*
X51557922Y-53831583D01*
X51582907Y-53822643D01*
X51608648Y-53816196D01*
X51634896Y-53812302D01*
X51661400Y-53811000D01*
X52472600Y-53811000D01*
X52499104Y-53812302D01*
X52499104Y-53812302D01*
G37*
D25*
X52067000Y-54737000D03*
D21*
G36*
X55299104Y-53812302D02*
G01*
X55325352Y-53816196D01*
X55351093Y-53822643D01*
X55376078Y-53831583D01*
X55400066Y-53842928D01*
X55422826Y-53856571D01*
X55444140Y-53872378D01*
X55463802Y-53890198D01*
X55481622Y-53909860D01*
X55497429Y-53931174D01*
X55511072Y-53953934D01*
X55522417Y-53977922D01*
X55531357Y-54002907D01*
X55537804Y-54028648D01*
X55541698Y-54054896D01*
X55543000Y-54081400D01*
X55543000Y-55392600D01*
X55541698Y-55419104D01*
X55537804Y-55445352D01*
X55531357Y-55471093D01*
X55522417Y-55496078D01*
X55511072Y-55520066D01*
X55497429Y-55542826D01*
X55481622Y-55564140D01*
X55463802Y-55583802D01*
X55444140Y-55601622D01*
X55422826Y-55617429D01*
X55400066Y-55631072D01*
X55376078Y-55642417D01*
X55351093Y-55651357D01*
X55325352Y-55657804D01*
X55299104Y-55661698D01*
X55272600Y-55663000D01*
X54461400Y-55663000D01*
X54434896Y-55661698D01*
X54408648Y-55657804D01*
X54382907Y-55651357D01*
X54357922Y-55642417D01*
X54333934Y-55631072D01*
X54311174Y-55617429D01*
X54289860Y-55601622D01*
X54270198Y-55583802D01*
X54252378Y-55564140D01*
X54236571Y-55542826D01*
X54222928Y-55520066D01*
X54211583Y-55496078D01*
X54202643Y-55471093D01*
X54196196Y-55445352D01*
X54192302Y-55419104D01*
X54191000Y-55392600D01*
X54191000Y-54081400D01*
X54192302Y-54054896D01*
X54196196Y-54028648D01*
X54202643Y-54002907D01*
X54211583Y-53977922D01*
X54222928Y-53953934D01*
X54236571Y-53931174D01*
X54252378Y-53909860D01*
X54270198Y-53890198D01*
X54289860Y-53872378D01*
X54311174Y-53856571D01*
X54333934Y-53842928D01*
X54357922Y-53831583D01*
X54382907Y-53822643D01*
X54408648Y-53816196D01*
X54434896Y-53812302D01*
X54461400Y-53811000D01*
X55272600Y-53811000D01*
X55299104Y-53812302D01*
X55299104Y-53812302D01*
G37*
D25*
X54867000Y-54737000D03*
D26*
X58547000Y-56643000D03*
X58547000Y-59943000D03*
D21*
G36*
X63881141Y-58820297D02*
G01*
X63907278Y-58824174D01*
X63932909Y-58830594D01*
X63957788Y-58839495D01*
X63981674Y-58850793D01*
X64004337Y-58864377D01*
X64025560Y-58880117D01*
X64045139Y-58897861D01*
X64062883Y-58917440D01*
X64078623Y-58938663D01*
X64092207Y-58961326D01*
X64103505Y-58985212D01*
X64112406Y-59010091D01*
X64118826Y-59035722D01*
X64122703Y-59061859D01*
X64124000Y-59088250D01*
X64124000Y-59626750D01*
X64122703Y-59653141D01*
X64118826Y-59679278D01*
X64112406Y-59704909D01*
X64103505Y-59729788D01*
X64092207Y-59753674D01*
X64078623Y-59776337D01*
X64062883Y-59797560D01*
X64045139Y-59817139D01*
X64025560Y-59834883D01*
X64004337Y-59850623D01*
X63981674Y-59864207D01*
X63957788Y-59875505D01*
X63932909Y-59884406D01*
X63907278Y-59890826D01*
X63881141Y-59894703D01*
X63854750Y-59896000D01*
X62891250Y-59896000D01*
X62864859Y-59894703D01*
X62838722Y-59890826D01*
X62813091Y-59884406D01*
X62788212Y-59875505D01*
X62764326Y-59864207D01*
X62741663Y-59850623D01*
X62720440Y-59834883D01*
X62700861Y-59817139D01*
X62683117Y-59797560D01*
X62667377Y-59776337D01*
X62653793Y-59753674D01*
X62642495Y-59729788D01*
X62633594Y-59704909D01*
X62627174Y-59679278D01*
X62623297Y-59653141D01*
X62622000Y-59626750D01*
X62622000Y-59088250D01*
X62623297Y-59061859D01*
X62627174Y-59035722D01*
X62633594Y-59010091D01*
X62642495Y-58985212D01*
X62653793Y-58961326D01*
X62667377Y-58938663D01*
X62683117Y-58917440D01*
X62700861Y-58897861D01*
X62720440Y-58880117D01*
X62741663Y-58864377D01*
X62764326Y-58850793D01*
X62788212Y-58839495D01*
X62813091Y-58830594D01*
X62838722Y-58824174D01*
X62864859Y-58820297D01*
X62891250Y-58819000D01*
X63854750Y-58819000D01*
X63881141Y-58820297D01*
X63881141Y-58820297D01*
G37*
D24*
X63373000Y-59357500D03*
D21*
G36*
X63881141Y-56945297D02*
G01*
X63907278Y-56949174D01*
X63932909Y-56955594D01*
X63957788Y-56964495D01*
X63981674Y-56975793D01*
X64004337Y-56989377D01*
X64025560Y-57005117D01*
X64045139Y-57022861D01*
X64062883Y-57042440D01*
X64078623Y-57063663D01*
X64092207Y-57086326D01*
X64103505Y-57110212D01*
X64112406Y-57135091D01*
X64118826Y-57160722D01*
X64122703Y-57186859D01*
X64124000Y-57213250D01*
X64124000Y-57751750D01*
X64122703Y-57778141D01*
X64118826Y-57804278D01*
X64112406Y-57829909D01*
X64103505Y-57854788D01*
X64092207Y-57878674D01*
X64078623Y-57901337D01*
X64062883Y-57922560D01*
X64045139Y-57942139D01*
X64025560Y-57959883D01*
X64004337Y-57975623D01*
X63981674Y-57989207D01*
X63957788Y-58000505D01*
X63932909Y-58009406D01*
X63907278Y-58015826D01*
X63881141Y-58019703D01*
X63854750Y-58021000D01*
X62891250Y-58021000D01*
X62864859Y-58019703D01*
X62838722Y-58015826D01*
X62813091Y-58009406D01*
X62788212Y-58000505D01*
X62764326Y-57989207D01*
X62741663Y-57975623D01*
X62720440Y-57959883D01*
X62700861Y-57942139D01*
X62683117Y-57922560D01*
X62667377Y-57901337D01*
X62653793Y-57878674D01*
X62642495Y-57854788D01*
X62633594Y-57829909D01*
X62627174Y-57804278D01*
X62623297Y-57778141D01*
X62622000Y-57751750D01*
X62622000Y-57213250D01*
X62623297Y-57186859D01*
X62627174Y-57160722D01*
X62633594Y-57135091D01*
X62642495Y-57110212D01*
X62653793Y-57086326D01*
X62667377Y-57063663D01*
X62683117Y-57042440D01*
X62700861Y-57022861D01*
X62720440Y-57005117D01*
X62741663Y-56989377D01*
X62764326Y-56975793D01*
X62788212Y-56964495D01*
X62813091Y-56955594D01*
X62838722Y-56949174D01*
X62864859Y-56945297D01*
X62891250Y-56944000D01*
X63854750Y-56944000D01*
X63881141Y-56945297D01*
X63881141Y-56945297D01*
G37*
D24*
X63373000Y-57482500D03*
D21*
G36*
X61976141Y-58868797D02*
G01*
X62002278Y-58872674D01*
X62027909Y-58879094D01*
X62052788Y-58887995D01*
X62076674Y-58899293D01*
X62099337Y-58912877D01*
X62120560Y-58928617D01*
X62140139Y-58946361D01*
X62157883Y-58965940D01*
X62173623Y-58987163D01*
X62187207Y-59009826D01*
X62198505Y-59033712D01*
X62207406Y-59058591D01*
X62213826Y-59084222D01*
X62217703Y-59110359D01*
X62219000Y-59136750D01*
X62219000Y-59675250D01*
X62217703Y-59701641D01*
X62213826Y-59727778D01*
X62207406Y-59753409D01*
X62198505Y-59778288D01*
X62187207Y-59802174D01*
X62173623Y-59824837D01*
X62157883Y-59846060D01*
X62140139Y-59865639D01*
X62120560Y-59883383D01*
X62099337Y-59899123D01*
X62076674Y-59912707D01*
X62052788Y-59924005D01*
X62027909Y-59932906D01*
X62002278Y-59939326D01*
X61976141Y-59943203D01*
X61949750Y-59944500D01*
X60986250Y-59944500D01*
X60959859Y-59943203D01*
X60933722Y-59939326D01*
X60908091Y-59932906D01*
X60883212Y-59924005D01*
X60859326Y-59912707D01*
X60836663Y-59899123D01*
X60815440Y-59883383D01*
X60795861Y-59865639D01*
X60778117Y-59846060D01*
X60762377Y-59824837D01*
X60748793Y-59802174D01*
X60737495Y-59778288D01*
X60728594Y-59753409D01*
X60722174Y-59727778D01*
X60718297Y-59701641D01*
X60717000Y-59675250D01*
X60717000Y-59136750D01*
X60718297Y-59110359D01*
X60722174Y-59084222D01*
X60728594Y-59058591D01*
X60737495Y-59033712D01*
X60748793Y-59009826D01*
X60762377Y-58987163D01*
X60778117Y-58965940D01*
X60795861Y-58946361D01*
X60815440Y-58928617D01*
X60836663Y-58912877D01*
X60859326Y-58899293D01*
X60883212Y-58887995D01*
X60908091Y-58879094D01*
X60933722Y-58872674D01*
X60959859Y-58868797D01*
X60986250Y-58867500D01*
X61949750Y-58867500D01*
X61976141Y-58868797D01*
X61976141Y-58868797D01*
G37*
D24*
X61468000Y-59406000D03*
D21*
G36*
X61976141Y-56993797D02*
G01*
X62002278Y-56997674D01*
X62027909Y-57004094D01*
X62052788Y-57012995D01*
X62076674Y-57024293D01*
X62099337Y-57037877D01*
X62120560Y-57053617D01*
X62140139Y-57071361D01*
X62157883Y-57090940D01*
X62173623Y-57112163D01*
X62187207Y-57134826D01*
X62198505Y-57158712D01*
X62207406Y-57183591D01*
X62213826Y-57209222D01*
X62217703Y-57235359D01*
X62219000Y-57261750D01*
X62219000Y-57800250D01*
X62217703Y-57826641D01*
X62213826Y-57852778D01*
X62207406Y-57878409D01*
X62198505Y-57903288D01*
X62187207Y-57927174D01*
X62173623Y-57949837D01*
X62157883Y-57971060D01*
X62140139Y-57990639D01*
X62120560Y-58008383D01*
X62099337Y-58024123D01*
X62076674Y-58037707D01*
X62052788Y-58049005D01*
X62027909Y-58057906D01*
X62002278Y-58064326D01*
X61976141Y-58068203D01*
X61949750Y-58069500D01*
X60986250Y-58069500D01*
X60959859Y-58068203D01*
X60933722Y-58064326D01*
X60908091Y-58057906D01*
X60883212Y-58049005D01*
X60859326Y-58037707D01*
X60836663Y-58024123D01*
X60815440Y-58008383D01*
X60795861Y-57990639D01*
X60778117Y-57971060D01*
X60762377Y-57949837D01*
X60748793Y-57927174D01*
X60737495Y-57903288D01*
X60728594Y-57878409D01*
X60722174Y-57852778D01*
X60718297Y-57826641D01*
X60717000Y-57800250D01*
X60717000Y-57261750D01*
X60718297Y-57235359D01*
X60722174Y-57209222D01*
X60728594Y-57183591D01*
X60737495Y-57158712D01*
X60748793Y-57134826D01*
X60762377Y-57112163D01*
X60778117Y-57090940D01*
X60795861Y-57071361D01*
X60815440Y-57053617D01*
X60836663Y-57037877D01*
X60859326Y-57024293D01*
X60883212Y-57012995D01*
X60908091Y-57004094D01*
X60933722Y-56997674D01*
X60959859Y-56993797D01*
X60986250Y-56992500D01*
X61949750Y-56992500D01*
X61976141Y-56993797D01*
X61976141Y-56993797D01*
G37*
D24*
X61468000Y-57531000D03*
D21*
G36*
X71606141Y-61131047D02*
G01*
X71632278Y-61134924D01*
X71657909Y-61141344D01*
X71682788Y-61150245D01*
X71706674Y-61161543D01*
X71729337Y-61175127D01*
X71750560Y-61190867D01*
X71770139Y-61208611D01*
X71787883Y-61228190D01*
X71803623Y-61249413D01*
X71817207Y-61272076D01*
X71828505Y-61295962D01*
X71837406Y-61320841D01*
X71843826Y-61346472D01*
X71847703Y-61372609D01*
X71849000Y-61399000D01*
X71849000Y-62362500D01*
X71847703Y-62388891D01*
X71843826Y-62415028D01*
X71837406Y-62440659D01*
X71828505Y-62465538D01*
X71817207Y-62489424D01*
X71803623Y-62512087D01*
X71787883Y-62533310D01*
X71770139Y-62552889D01*
X71750560Y-62570633D01*
X71729337Y-62586373D01*
X71706674Y-62599957D01*
X71682788Y-62611255D01*
X71657909Y-62620156D01*
X71632278Y-62626576D01*
X71606141Y-62630453D01*
X71579750Y-62631750D01*
X71041250Y-62631750D01*
X71014859Y-62630453D01*
X70988722Y-62626576D01*
X70963091Y-62620156D01*
X70938212Y-62611255D01*
X70914326Y-62599957D01*
X70891663Y-62586373D01*
X70870440Y-62570633D01*
X70850861Y-62552889D01*
X70833117Y-62533310D01*
X70817377Y-62512087D01*
X70803793Y-62489424D01*
X70792495Y-62465538D01*
X70783594Y-62440659D01*
X70777174Y-62415028D01*
X70773297Y-62388891D01*
X70772000Y-62362500D01*
X70772000Y-61399000D01*
X70773297Y-61372609D01*
X70777174Y-61346472D01*
X70783594Y-61320841D01*
X70792495Y-61295962D01*
X70803793Y-61272076D01*
X70817377Y-61249413D01*
X70833117Y-61228190D01*
X70850861Y-61208611D01*
X70870440Y-61190867D01*
X70891663Y-61175127D01*
X70914326Y-61161543D01*
X70938212Y-61150245D01*
X70963091Y-61141344D01*
X70988722Y-61134924D01*
X71014859Y-61131047D01*
X71041250Y-61129750D01*
X71579750Y-61129750D01*
X71606141Y-61131047D01*
X71606141Y-61131047D01*
G37*
D24*
X71310500Y-61880750D03*
D21*
G36*
X73481141Y-61131047D02*
G01*
X73507278Y-61134924D01*
X73532909Y-61141344D01*
X73557788Y-61150245D01*
X73581674Y-61161543D01*
X73604337Y-61175127D01*
X73625560Y-61190867D01*
X73645139Y-61208611D01*
X73662883Y-61228190D01*
X73678623Y-61249413D01*
X73692207Y-61272076D01*
X73703505Y-61295962D01*
X73712406Y-61320841D01*
X73718826Y-61346472D01*
X73722703Y-61372609D01*
X73724000Y-61399000D01*
X73724000Y-62362500D01*
X73722703Y-62388891D01*
X73718826Y-62415028D01*
X73712406Y-62440659D01*
X73703505Y-62465538D01*
X73692207Y-62489424D01*
X73678623Y-62512087D01*
X73662883Y-62533310D01*
X73645139Y-62552889D01*
X73625560Y-62570633D01*
X73604337Y-62586373D01*
X73581674Y-62599957D01*
X73557788Y-62611255D01*
X73532909Y-62620156D01*
X73507278Y-62626576D01*
X73481141Y-62630453D01*
X73454750Y-62631750D01*
X72916250Y-62631750D01*
X72889859Y-62630453D01*
X72863722Y-62626576D01*
X72838091Y-62620156D01*
X72813212Y-62611255D01*
X72789326Y-62599957D01*
X72766663Y-62586373D01*
X72745440Y-62570633D01*
X72725861Y-62552889D01*
X72708117Y-62533310D01*
X72692377Y-62512087D01*
X72678793Y-62489424D01*
X72667495Y-62465538D01*
X72658594Y-62440659D01*
X72652174Y-62415028D01*
X72648297Y-62388891D01*
X72647000Y-62362500D01*
X72647000Y-61399000D01*
X72648297Y-61372609D01*
X72652174Y-61346472D01*
X72658594Y-61320841D01*
X72667495Y-61295962D01*
X72678793Y-61272076D01*
X72692377Y-61249413D01*
X72708117Y-61228190D01*
X72725861Y-61208611D01*
X72745440Y-61190867D01*
X72766663Y-61175127D01*
X72789326Y-61161543D01*
X72813212Y-61150245D01*
X72838091Y-61141344D01*
X72863722Y-61134924D01*
X72889859Y-61131047D01*
X72916250Y-61129750D01*
X73454750Y-61129750D01*
X73481141Y-61131047D01*
X73481141Y-61131047D01*
G37*
D24*
X73185500Y-61880750D03*
D21*
G36*
X71684641Y-63163047D02*
G01*
X71710778Y-63166924D01*
X71736409Y-63173344D01*
X71761288Y-63182245D01*
X71785174Y-63193543D01*
X71807837Y-63207127D01*
X71829060Y-63222867D01*
X71848639Y-63240611D01*
X71866383Y-63260190D01*
X71882123Y-63281413D01*
X71895707Y-63304076D01*
X71907005Y-63327962D01*
X71915906Y-63352841D01*
X71922326Y-63378472D01*
X71926203Y-63404609D01*
X71927500Y-63431000D01*
X71927500Y-64394500D01*
X71926203Y-64420891D01*
X71922326Y-64447028D01*
X71915906Y-64472659D01*
X71907005Y-64497538D01*
X71895707Y-64521424D01*
X71882123Y-64544087D01*
X71866383Y-64565310D01*
X71848639Y-64584889D01*
X71829060Y-64602633D01*
X71807837Y-64618373D01*
X71785174Y-64631957D01*
X71761288Y-64643255D01*
X71736409Y-64652156D01*
X71710778Y-64658576D01*
X71684641Y-64662453D01*
X71658250Y-64663750D01*
X71119750Y-64663750D01*
X71093359Y-64662453D01*
X71067222Y-64658576D01*
X71041591Y-64652156D01*
X71016712Y-64643255D01*
X70992826Y-64631957D01*
X70970163Y-64618373D01*
X70948940Y-64602633D01*
X70929361Y-64584889D01*
X70911617Y-64565310D01*
X70895877Y-64544087D01*
X70882293Y-64521424D01*
X70870995Y-64497538D01*
X70862094Y-64472659D01*
X70855674Y-64447028D01*
X70851797Y-64420891D01*
X70850500Y-64394500D01*
X70850500Y-63431000D01*
X70851797Y-63404609D01*
X70855674Y-63378472D01*
X70862094Y-63352841D01*
X70870995Y-63327962D01*
X70882293Y-63304076D01*
X70895877Y-63281413D01*
X70911617Y-63260190D01*
X70929361Y-63240611D01*
X70948940Y-63222867D01*
X70970163Y-63207127D01*
X70992826Y-63193543D01*
X71016712Y-63182245D01*
X71041591Y-63173344D01*
X71067222Y-63166924D01*
X71093359Y-63163047D01*
X71119750Y-63161750D01*
X71658250Y-63161750D01*
X71684641Y-63163047D01*
X71684641Y-63163047D01*
G37*
D24*
X71389000Y-63912750D03*
D21*
G36*
X73559641Y-63163047D02*
G01*
X73585778Y-63166924D01*
X73611409Y-63173344D01*
X73636288Y-63182245D01*
X73660174Y-63193543D01*
X73682837Y-63207127D01*
X73704060Y-63222867D01*
X73723639Y-63240611D01*
X73741383Y-63260190D01*
X73757123Y-63281413D01*
X73770707Y-63304076D01*
X73782005Y-63327962D01*
X73790906Y-63352841D01*
X73797326Y-63378472D01*
X73801203Y-63404609D01*
X73802500Y-63431000D01*
X73802500Y-64394500D01*
X73801203Y-64420891D01*
X73797326Y-64447028D01*
X73790906Y-64472659D01*
X73782005Y-64497538D01*
X73770707Y-64521424D01*
X73757123Y-64544087D01*
X73741383Y-64565310D01*
X73723639Y-64584889D01*
X73704060Y-64602633D01*
X73682837Y-64618373D01*
X73660174Y-64631957D01*
X73636288Y-64643255D01*
X73611409Y-64652156D01*
X73585778Y-64658576D01*
X73559641Y-64662453D01*
X73533250Y-64663750D01*
X72994750Y-64663750D01*
X72968359Y-64662453D01*
X72942222Y-64658576D01*
X72916591Y-64652156D01*
X72891712Y-64643255D01*
X72867826Y-64631957D01*
X72845163Y-64618373D01*
X72823940Y-64602633D01*
X72804361Y-64584889D01*
X72786617Y-64565310D01*
X72770877Y-64544087D01*
X72757293Y-64521424D01*
X72745995Y-64497538D01*
X72737094Y-64472659D01*
X72730674Y-64447028D01*
X72726797Y-64420891D01*
X72725500Y-64394500D01*
X72725500Y-63431000D01*
X72726797Y-63404609D01*
X72730674Y-63378472D01*
X72737094Y-63352841D01*
X72745995Y-63327962D01*
X72757293Y-63304076D01*
X72770877Y-63281413D01*
X72786617Y-63260190D01*
X72804361Y-63240611D01*
X72823940Y-63222867D01*
X72845163Y-63207127D01*
X72867826Y-63193543D01*
X72891712Y-63182245D01*
X72916591Y-63173344D01*
X72942222Y-63166924D01*
X72968359Y-63163047D01*
X72994750Y-63161750D01*
X73533250Y-63161750D01*
X73559641Y-63163047D01*
X73559641Y-63163047D01*
G37*
D24*
X73264000Y-63912750D03*
D21*
G36*
X65095641Y-62496297D02*
G01*
X65121778Y-62500174D01*
X65147409Y-62506594D01*
X65172288Y-62515495D01*
X65196174Y-62526793D01*
X65218837Y-62540377D01*
X65240060Y-62556117D01*
X65259639Y-62573861D01*
X65277383Y-62593440D01*
X65293123Y-62614663D01*
X65306707Y-62637326D01*
X65318005Y-62661212D01*
X65326906Y-62686091D01*
X65333326Y-62711722D01*
X65337203Y-62737859D01*
X65338500Y-62764250D01*
X65338500Y-63727750D01*
X65337203Y-63754141D01*
X65333326Y-63780278D01*
X65326906Y-63805909D01*
X65318005Y-63830788D01*
X65306707Y-63854674D01*
X65293123Y-63877337D01*
X65277383Y-63898560D01*
X65259639Y-63918139D01*
X65240060Y-63935883D01*
X65218837Y-63951623D01*
X65196174Y-63965207D01*
X65172288Y-63976505D01*
X65147409Y-63985406D01*
X65121778Y-63991826D01*
X65095641Y-63995703D01*
X65069250Y-63997000D01*
X64530750Y-63997000D01*
X64504359Y-63995703D01*
X64478222Y-63991826D01*
X64452591Y-63985406D01*
X64427712Y-63976505D01*
X64403826Y-63965207D01*
X64381163Y-63951623D01*
X64359940Y-63935883D01*
X64340361Y-63918139D01*
X64322617Y-63898560D01*
X64306877Y-63877337D01*
X64293293Y-63854674D01*
X64281995Y-63830788D01*
X64273094Y-63805909D01*
X64266674Y-63780278D01*
X64262797Y-63754141D01*
X64261500Y-63727750D01*
X64261500Y-62764250D01*
X64262797Y-62737859D01*
X64266674Y-62711722D01*
X64273094Y-62686091D01*
X64281995Y-62661212D01*
X64293293Y-62637326D01*
X64306877Y-62614663D01*
X64322617Y-62593440D01*
X64340361Y-62573861D01*
X64359940Y-62556117D01*
X64381163Y-62540377D01*
X64403826Y-62526793D01*
X64427712Y-62515495D01*
X64452591Y-62506594D01*
X64478222Y-62500174D01*
X64504359Y-62496297D01*
X64530750Y-62495000D01*
X65069250Y-62495000D01*
X65095641Y-62496297D01*
X65095641Y-62496297D01*
G37*
D24*
X64800000Y-63246000D03*
D21*
G36*
X66970641Y-62496297D02*
G01*
X66996778Y-62500174D01*
X67022409Y-62506594D01*
X67047288Y-62515495D01*
X67071174Y-62526793D01*
X67093837Y-62540377D01*
X67115060Y-62556117D01*
X67134639Y-62573861D01*
X67152383Y-62593440D01*
X67168123Y-62614663D01*
X67181707Y-62637326D01*
X67193005Y-62661212D01*
X67201906Y-62686091D01*
X67208326Y-62711722D01*
X67212203Y-62737859D01*
X67213500Y-62764250D01*
X67213500Y-63727750D01*
X67212203Y-63754141D01*
X67208326Y-63780278D01*
X67201906Y-63805909D01*
X67193005Y-63830788D01*
X67181707Y-63854674D01*
X67168123Y-63877337D01*
X67152383Y-63898560D01*
X67134639Y-63918139D01*
X67115060Y-63935883D01*
X67093837Y-63951623D01*
X67071174Y-63965207D01*
X67047288Y-63976505D01*
X67022409Y-63985406D01*
X66996778Y-63991826D01*
X66970641Y-63995703D01*
X66944250Y-63997000D01*
X66405750Y-63997000D01*
X66379359Y-63995703D01*
X66353222Y-63991826D01*
X66327591Y-63985406D01*
X66302712Y-63976505D01*
X66278826Y-63965207D01*
X66256163Y-63951623D01*
X66234940Y-63935883D01*
X66215361Y-63918139D01*
X66197617Y-63898560D01*
X66181877Y-63877337D01*
X66168293Y-63854674D01*
X66156995Y-63830788D01*
X66148094Y-63805909D01*
X66141674Y-63780278D01*
X66137797Y-63754141D01*
X66136500Y-63727750D01*
X66136500Y-62764250D01*
X66137797Y-62737859D01*
X66141674Y-62711722D01*
X66148094Y-62686091D01*
X66156995Y-62661212D01*
X66168293Y-62637326D01*
X66181877Y-62614663D01*
X66197617Y-62593440D01*
X66215361Y-62573861D01*
X66234940Y-62556117D01*
X66256163Y-62540377D01*
X66278826Y-62526793D01*
X66302712Y-62515495D01*
X66327591Y-62506594D01*
X66353222Y-62500174D01*
X66379359Y-62496297D01*
X66405750Y-62495000D01*
X66944250Y-62495000D01*
X66970641Y-62496297D01*
X66970641Y-62496297D01*
G37*
D24*
X66675000Y-63246000D03*
M02*
